# Exported using wow.export v0.1.65
o bookshelfdwarvensimple01
mtllib bookshelfdwarvensimple01.mtl
v -0.40956512093544006 1.196401596069336 -1.3455727100372314
v -0.40956515073776245 0.38867372274398804 -1.2581077814102173
v -0.40956515073776245 0.38867372274398804 -1.082330346107483
v -0.4095650017261505 1.2176803350448608 1.0927248001098633
v -0.40956512093544006 1.1985584497451782 -1.098423719406128
v -0.4095650613307953 0.38867372274398804 1.075016736984253
v -0.40956512093544006 1.1985584497451782 -1.098423719406128
v -0.40956515073776245 0.38867372274398804 -1.082330346107483
v -0.4095650613307953 0.38867372274398804 1.075016736984253
v 0.2744723856449127 1.2217508554458618 -0.0105671351775527
v 0.2744724154472351 1.2313735485076904 1.0920743942260742
v 0.2853754460811615 0.35220810770988464 1.0747319459915161
v 0.2853753864765167 0.35220810770988464 -0.011478424072265625
v 0.2744723856449127 1.2217508554458618 -0.0105671351775527
v 0.2853754460811615 0.35220810770988464 1.0747319459915161
v 0.28537532687187195 0.35220807790756226 -1.0820457935333252
v 0.27447232604026794 1.2122608423233032 -1.0980123281478882
v 0.2853753864765167 0.35220810770988464 -0.011478424072265625
v 0.27447232604026794 1.2122608423233032 -1.0980123281478882
v 0.2744723856449127 1.2217508554458618 -0.0105671351775527
v -0.4095650017261505 1.2198370695114136 1.3398737907409668
v -0.4095650017261505 1.2176803350448608 1.0927248001098633
v -0.4095650613307953 0.38867372274398804 1.075016736984253
v -0.4095650613307953 0.38867372274398804 1.2507940530776978
v -0.4095650017261505 1.2198370695114136 1.3398737907409668
v 0.2744724154472351 1.2335306406021118 1.3392536640167236
v -0.4095650613307953 0.38867372274398804 1.2507940530776978
v 0.2853754460811615 0.35220810770988464 1.2505252361297607
v -0.4095650017261505 1.2198370695114136 1.3398737907409668
v 0.2853754460811615 0.35220810770988464 1.2505252361297607
v 0.2744724154472351 1.2313735485076904 1.0920743942260742
v 0.2744724154472351 1.2335306406021118 1.3392536640167236
v 0.2853754460811615 0.35220810770988464 1.0747319459915161
v -0.40956515073776245 0.38867372274398804 -1.2581077814102173
v 0.27447232604026794 1.2101037502288818 -1.345191478729248
v 0.28537532687187195 0.35220810770988464 -1.2578390836715698
v -0.40956512093544006 1.196401596069336 -1.3455727100372314
v 0.27447232604026794 1.2122608423233032 -1.0980123281478882
v 0.28537532687187195 0.35220810770988464 -1.2578390836715698
v 0.27447232604026794 1.2101037502288818 -1.345191478729248
v 0.28537532687187195 0.35220807790756226 -1.0820457935333252
v -0.42866599559783936 0.003650923492386937 1.3403980731964111
v 0.4030526578426361 0.0036508545745164156 1.44364333152771
v 0.3410852551460266 0.3518397808074951 1.3994518518447876
v -0.4286658763885498 0.39638060331344604 1.3772634267807007
v -0.42866599559783936 0.0036509367637336254 -1.4280496835708618
v 0.4286658465862274 0.0036507444456219673 -1.4427337646484375
v 0.4030526578426361 0.0036508545745164156 1.44364333152771
v -0.42866599559783936 0.003650923492386937 1.3403980731964111
v -0.4286658763885498 0.39638057351112366 -1.399456262588501
v 0.3666829764842987 0.3509458601474762 -1.411834955215454
v 0.4286658465862274 0.0036507444456219673 -1.4427337646484375
v -0.42866599559783936 0.0036509367637336254 -1.4280496835708618
v -0.4286658763885498 0.39638060331344604 1.3772634267807007
v 0.3410852551460266 0.3518397808074951 1.3994518518447876
v 0.3666829764842987 0.3509458601474762 -1.411834955215454
v -0.4286658763885498 0.39638057351112366 -1.399456262588501
v 0.3410852551460266 0.3518397808074951 1.3994518518447876
v 0.4030526578426361 0.0036508545745164156 1.44364333152771
v 0.4286658465862274 0.0036507444456219673 -1.4427337646484375
v 0.3666829764842987 0.3509458601474762 -1.411834955215454
v -0.4286658763885498 0.39638060331344604 1.3772634267807007
v -0.4286658763885498 0.39638057351112366 -1.399456262588501
v -0.42866599559783936 0.0036509367637336254 -1.4280496835708618
v -0.42866599559783936 0.003650923492386937 1.3403980731964111
v 0.3410851061344147 1.235414743423462 1.4979774951934814
v 0.40305283665657043 1.5707749128341675 1.539244294166565
v -0.4286658763885498 1.5693702697753906 1.4989678859710693
v -0.4286658465862274 1.216631293296814 1.4634426832199097
v 0.40305283665657043 1.5707749128341675 1.539244294166565
v 0.42866599559783936 1.5439422130584717 -1.5354914665222168
v -0.4286658763885498 1.5453394651412964 -1.5142416954040527
v -0.4286658763885498 1.5693702697753906 1.4989678859710693
v 0.42866599559783936 1.5439422130584717 -1.5354914665222168
v 0.3666827082633972 1.210131049156189 -1.5016790628433228
v -0.4286658465862274 1.1931730508804321 -1.4841769933700562
v -0.4286658763885498 1.5453394651412964 -1.5142416954040527
v 0.3666827082633972 1.210131049156189 -1.5016790628433228
v 0.3410851061344147 1.235414743423462 1.4979774951934814
v -0.4286658465862274 1.216631293296814 1.4634426832199097
v -0.4286658465862274 1.1931730508804321 -1.4841769933700562
v 0.42866599559783936 1.5439422130584717 -1.5354914665222168
v 0.40305283665657043 1.5707749128341675 1.539244294166565
v 0.3410851061344147 1.235414743423462 1.4979774951934814
v 0.3666827082633972 1.210131049156189 -1.5016790628433228
v -0.4286658763885498 1.5453394651412964 -1.5142416954040527
v -0.4286658465862274 1.1931730508804321 -1.4841769933700562
v -0.4286658465862274 1.216631293296814 1.4634426832199097
v -0.4286658763885498 1.5693702697753906 1.4989678859710693
v -0.40956512093544006 1.1985584497451782 -1.098423719406128
v -0.40956512093544006 1.196401596069336 -1.3455727100372314
vn -1 6.559375265169365e-8 0
vn -1 6.559375265169365e-8 0
vn -1 6.540771835261694e-8 -5.708057915221332e-10
vn -1 6.288883014349267e-8 4.781112394880438e-8
vn -1 6.288883014349267e-8 4.781112394880438e-8
vn -1 6.288883014349267e-8 4.781112394880438e-8
vn -1 6.639508853822917e-8 4.911765216775166e-8
vn -1 6.639508853822917e-8 4.911765216775166e-8
vn -1 6.639508853822917e-8 4.911765216775166e-8
vn 0.999923050403595 0.012402717024087906 -0.00010828456288436428
vn 0.999923050403595 0.012402717024087906 -0.00010828456288436428
vn 0.999923050403595 0.012402717024087906 -0.00010828456288436428
vn 0.9999213814735413 0.012537787668406963 -4.877301407191226e-8
vn 0.9999213814735413 0.012537787668406963 -4.877301407191226e-8
vn 0.9999213814735413 0.012537787668406963 -4.877301407191226e-8
vn 0.9999196529388428 0.012676108628511429 -4.948559251261031e-8
vn 0.9999196529388428 0.012676108628511429 -4.948559251261031e-8
vn 0.9999196529388428 0.012676108628511429 -4.948559251261031e-8
vn 0.9999213814735413 0.012537902221083641 -0.00010946561815217137
vn 0.9999213814735413 0.012537902221083641 -0.00010946561815217137
vn -1 6.392202323013407e-8 -5.578265627192991e-10
vn -1 6.392202323013407e-8 -5.578265627192991e-10
vn -1 6.392202323013407e-8 -5.578265627192991e-10
vn -1 6.374426675392897e-8 0
vn -1 6.374426675392897e-8 0
vn -0.0009199819760397077 -0.10339757800102234 0.9946396946907043
vn -0.0009199819760397077 -0.10339757800102234 0.9946396946907043
vn -0.004874559585005045 -0.10022851079702377 0.9949524998664856
vn 0.0030346193816512823 -0.10656397044658661 0.9943011999130249
vn 0.9999232292175293 0.012390845455229282 -0.00005402428359957412
vn 0.9999232292175293 0.012390845455229282 -0.00005402428359957412
vn 0.9999233484268188 0.012381110340356827 -0.00010804856719914824
vn 0.9999231100082397 0.012400580570101738 0
vn -0.0011117408284917474 -0.10450834035873413 -0.9945234060287476
vn -0.0011117408284917474 -0.10450834035873413 -0.9945234060287476
vn -0.004934058059006929 -0.10135866701602936 -0.9948377013206482
vn 0.002710603876039386 -0.10765543580055237 -0.9941845536231995
vn 0.9999195337295532 0.012686403468251228 -0.000055401356803486124
vn 0.9999195337295532 0.012686403468251228 -0.000055401356803486124
vn 0.9999194145202637 0.012696697376668453 -0.00011080270633101463
vn 0.9999196529388428 0.012676109559834003 0
vn -0.07876823842525482 0.005062017124146223 0.9968801140785217
vn -0.12252802401781082 0.103469118475914 0.9870567321777344
vn -0.07876823842525482 0.005062017124146223 0.9968801140785217
vn -0.03408724069595337 -0.09340427815914154 0.9950445890426636
vn -3.324182102915074e-7 -1 1.5760754479288153e-8
vn -4.033550169424416e-7 -1 3.63059555752443e-8
vn -3.324182102915074e-7 -1 1.5760754479288153e-8
vn -2.614814320622827e-7 -1 -4.784445284400363e-9
vn -0.013814762234687805 0.07967794686555862 -0.9967249035835266
vn -0.010548826307058334 0.08674685657024384 -0.9961745142936707
vn -0.013814762234687805 0.07967794686555862 -0.9967249035835266
vn -0.017079854384064674 0.07260419428348541 -0.9972145557403564
vn 0.05739711597561836 0.9983513951301575 0.00010424458014313132
vn 0.05776149034500122 0.9983304142951965 0.0002084938605548814
vn 0.05739711597561836 0.9983513951301575 0.00010424458014313132
vn 0.05703273043036461 0.9983723163604736 -4.732672032048413e-9
vn 0.98442143201828 0.17560359835624695 0.008821745403110981
vn 0.9843003749847412 0.1762852519750595 0.0087345065549016
vn 0.98442143201828 0.17560359835624695 0.008821745403110981
vn 0.9845420122146606 0.17492187023162842 0.008908978663384914
vn -1 9.907987674750984e-8 2.437395008048071e-10
vn -1 1.0454778021085076e-7 -5.217393739265219e-10
vn -1 9.907987674750984e-8 2.437395008048071e-10
vn -1 9.361198038959628e-8 1.0092183755361361e-9
vn -0.045012589544057846 -0.10669781267642975 0.993272066116333
vn -0.047866471111774445 -0.11327330768108368 0.9924101829528809
vn -0.045012589544057846 -0.10669781267642975 0.993272066116333
vn -0.042156368494033813 -0.10011675953865051 0.9940822124481201
vn 0.000055507756769657135 0.9999651908874512 -0.008344803936779499
vn 0.0014137215912342072 0.9999610185623169 -0.008714724332094193
vn 0.000055507756769657135 0.9999651908874512 -0.008344803936779499
vn -0.0013027061941102147 0.9999673366546631 -0.007974866777658463
vn -0.022327294573187828 -0.0910753458738327 -0.9955936670303345
vn -0.019826563075184822 -0.097111776471138 -0.9950760006904602
vn -0.022327294573187828 -0.0910753458738327 -0.9955936670303345
vn -0.02482707053422928 -0.08503500372171402 -0.9960685968399048
vn 0.022748947143554688 -0.9997068047523499 0.008293651975691319
vn 0.02400682494044304 -0.9996745586395264 0.008630987256765366
vn 0.022748947143554688 -0.9997068047523499 0.008293651975691319
vn 0.02149103209376335 -0.9997373819351196 0.007956302724778652
vn 0.9832082390785217 -0.18222086131572723 0.009853444993495941
vn 0.9830904006958008 -0.18285919725894928 0.009785121306777
vn 0.9832082390785217 -0.18222086131572723 0.009853444993495941
vn 0.9833256602287292 -0.1815824657678604 0.009921765886247158
vn -1 -9.074107509832174e-8 1.1965138879688197e-9
vn -1 -9.090009456258485e-8 1.1789602627487739e-9
vn -1 -9.074107509832174e-8 1.1965138879688197e-9
vn -1 -9.058206273948599e-8 1.2140675131888656e-9
vn -1 6.540771835261694e-8 -5.708057915221332e-10
vn -1 6.540771835261694e-8 -5.708057915221332e-10
vt 0.5504064559936523 0.9058645367622375
vt 0.5500643253326416 0.006648838520050049
vt 0.4845617711544037 0.006648838520050049
vt 0.556884229183197 0.9749681353569031
vt 0.5568840503692627 0.27623963356018066
vt 0.7716183662414551 0.9509457945823669
vt 0.5568840503692627 0.27623963356018066
vt 0.7716181874275208 0.28093791007995605
vt 0.7716183662414551 0.9509457945823669
vt 0.39781248569488525 0.4149590730667114
vt 0.0009183585643768311 0.4149588346481323
vt 0.0012877881526947021 0.0029149651527404785
vt 0.39792048931121826 0.0029150843620300293
vt 0.39781248569488525 0.4149590730667114
vt 0.0012877881526947021 0.0029149651527404785
vt 0.0008687062654644251 0.46426814794540405
vt 0.0004995765630155802 0.9004666209220886
vt 0.3995998799800873 0.4642677307128906
vt 0.0004995765630155802 0.9004666209220886
vt 0.3997078239917755 0.9004663825035095
vt 0.5504064559936523 0.9058645367622375
vt 0.4846535623073578 0.9058645367622375
vt 0.4845617711544037 0.006648838520050049
vt 0.5500643253326416 0.006648838520050049
vt 0.5504064559936523 0.9058645367622375
vt 0.5715652108192444 0.17591679096221924
vt 0.9720208048820496 0.007146596908569336
vt 0.9733465909957886 0.17397165298461914
vt 0.5713708996772766 0.0071471333503723145
vt 0.4800160229206085 0.4675309658050537
vt 0.400112509727478 0.9059364199638367
vt 0.48035815358161926 0.9059364199638367
vt 0.4000207185745239 0.4675309658050537
vt 0.9720208048820496 0.007146596908569336
vt 0.5715652108192444 0.17591679096221924
vt 0.9733465909957886 0.17397165298461914
vt 0.5713708996772766 0.0071471333503723145
vt 0.400112509727478 0.40352094173431396
vt 0.4800160229206085 0.006178319454193115
vt 0.48035815358161926 0.40352094173431396
vt 0.4000207185745239 0.006178319454193115
vt 0.9972451329231262 0.18476635217666626
vt 0.549846351146698 0.18476635217666626
vt 0.549846351146698 0.2713671922683716
vt 0.997245192527771 0.2713671922683716
vt 0.9959324598312378 0.18486523628234863
vt 0.9983479380607605 0.0037648677825927734
vt 0.547601580619812 0.0037648677825927734
vt 0.5476016402244568 0.1848652958869934
vt 0.9972451329231262 0.18476635217666626
vt 0.549846351146698 0.18476635217666626
vt 0.549846351146698 0.2713671922683716
vt 0.997245192527771 0.2713671922683716
vt 0.9959324598312378 0.18486523628234863
vt 0.9983479380607605 0.0037648677825927734
vt 0.547601580619812 0.0037648677825927734
vt 0.5476016402244568 0.1848652958869934
vt 0.45613276958465576 0.9992596507072449
vt 0.45613276958465576 0.9120543003082275
vt 0.0004917384358122945 0.9120543003082275
vt 0.0004917384358122945 0.9992596507072449
vt 0.45617666840553284 0.9990786910057068
vt 0.0006352589698508382 0.9990786910057068
vt 0.0006352887721732259 0.9123764634132385
vt 0.4561767280101776 0.9123764634132385
vt 0.5482927560806274 0.18476629257202148
vt 0.5482927560806274 0.272865891456604
vt 0.9987988471984863 0.272865891456604
vt 0.9987988471984863 0.18476629257202148
vt 0.547601580619812 0.0037648677825927734
vt 0.9983479380607605 0.0037648677825927734
vt 0.9959324598312378 0.18486523628234863
vt 0.5476016402244568 0.1848652958869934
vt 0.5482927560806274 0.18476629257202148
vt 0.5482927560806274 0.272865891456604
vt 0.9987988471984863 0.272865891456604
vt 0.9987988471984863 0.18476629257202148
vt 0.547601580619812 0.0037648677825927734
vt 0.9983479380607605 0.0037648677825927734
vt 0.9959324598312378 0.18486523628234863
vt 0.5476016402244568 0.1848652958869934
vt 0.0004917384358122945 0.9993304014205933
vt 0.45613276958465576 0.9993304014205933
vt 0.45613276958465576 0.9121250510215759
vt 0.0004917384358122945 0.9121250510215759
vt 0.0006352887721732259 0.9990082383155823
vt 0.0006352589698508382 0.912306010723114
vt 0.45617666840553284 0.912306010723114
vt 0.4561767280101776 0.9990082383155823
vt 0.4846535623073578 0.9058645367622375
vt 0.5504064559936523 0.9058645367622375
g Geoset0
s 1
usemtl mat_dwarvenbookshelvessimple01
f 1/1/1 2/2/2 3/3/3
f 4/4/4 5/5/5 6/6/6
f 7/7/7 8/8/8 9/9/9
f 10/10/10 11/11/11 12/12/12
f 13/13/13 14/14/14 15/15/15
f 16/16/16 17/17/17 18/18/18
f 19/19/19 20/20/20 18/18/18
f 21/21/21 22/22/22 23/23/23
f 24/24/24 25/25/25 23/23/23
f 26/26/26 27/27/27 28/28/28
f 27/27/27 26/26/26 29/29/29
f 30/30/30 31/31/31 32/32/32
f 31/31/31 30/30/30 33/33/33
f 34/34/34 35/35/35 36/36/36
f 35/35/35 34/34/34 37/37/37
f 38/38/38 39/39/39 40/40/40
f 39/39/39 38/38/38 41/41/41
f 42/42/42 43/43/43 44/44/44
f 44/44/44 45/45/45 42/42/42
f 46/46/46 47/47/47 48/48/48
f 48/48/48 49/49/49 46/46/46
f 50/50/50 51/51/51 52/52/52
f 52/52/52 53/53/53 50/50/50
f 54/54/54 55/55/55 56/56/56
f 56/56/56 57/57/57 54/54/54
f 58/58/58 59/59/59 60/60/60
f 60/60/60 61/61/61 58/58/58
f 62/62/62 63/63/63 64/64/64
f 64/64/64 65/65/65 62/62/62
f 66/66/66 67/67/67 68/68/68
f 68/68/68 69/69/69 66/66/66
f 70/70/70 71/71/71 72/72/72
f 72/72/72 73/73/73 70/70/70
f 74/74/74 75/75/75 76/76/76
f 76/76/76 77/77/77 74/74/74
f 78/78/78 79/79/79 80/80/80
f 80/80/80 81/81/81 78/78/78
f 82/82/82 83/83/83 84/84/84
f 84/84/84 85/85/85 82/82/82
f 86/86/86 87/87/87 88/88/88
f 88/88/88 89/89/89 86/86/86
f 90/90/90 91/91/91 3/3/3
