# Exported using wow.export v0.1.65
o stormwindwindowplantergrass
mtllib stormwindwindowplantergrass.mtl
v 0.4943225681781769 0.39266952872276306 1.8467096090316772
v 1.0849660634994507 0.3225730359554291 1.2419451475143433
v 0.6319814324378967 0.8662670254707336 1.383786678314209
v 1.3511991500854492 0.3225730061531067 0.21156932413578033
v 1.2704365253448486 1.1130844354629517 -0.9645489454269409
v 1.7704970836639404 0.7921015620231628 0.05769292637705803
v 1.0940014123916626 0.38177409768104553 -0.5827136039733887
v 1.3511992692947388 0.3225730061531067 1.2419450283050537
v 1.7704970836639404 0.7921015620231628 0.05769292637705803
v 1.7883027791976929 0.8662670254707336 1.383786678314209
v 1.3511991500854492 0.3225730061531067 0.21156932413578033
v 1.0486187934875488 0.39266952872276306 1.8467096090316772
v 1.7883027791976929 0.8662670254707336 1.383786678314209
v 1.1994907855987549 1.0175021886825562 2.1621181964874268
v 1.3511992692947388 0.3225730061531067 1.2419450283050537
v 1.3650413751602173 0.3404557406902313 -1.2201279401779175
v 1.2857271432876587 0.8974202275276184 -2.146205186843872
v 1.7488646507263184 0.9337037205696106 -1.3412907123565674
v 1.1622778177261353 0.38604697585105896 -1.8455475568771362
v 1.4116793870925903 0.3292589783668518 -0.40880846977233887
v 1.7488646507263184 0.9337037205696106 -1.3412907123565674
v 1.6942805051803589 0.9186747670173645 -0.2971223294734955
v 1.3650413751602173 0.3404557406902313 -1.2201279401779175
v 0.8107450604438782 0.3404557406902313 -1.2201279401779175
v 0.7314308285713196 0.8974202275276184 -2.146205186843872
v 1.1945682764053345 0.9337037205696106 -1.3412907123565674
v 0.6079814434051514 0.38604697585105896 -1.8455475568771362
v 0.8573830723762512 0.3292589783668518 -0.40880846977233887
v 1.1945682764053345 0.9337037205696106 -1.3412907123565674
v 1.139984130859375 0.9186747670173645 -0.2971223294734955
v 0.8107450604438782 0.3404557406902313 -1.2201279401779175
v 1.0849660634994507 0.3225730061531067 0.21156932413578033
v 0.5261093974113464 1.1130844354629517 -0.6898422837257385
v 0.6141757965087891 0.7921015620231628 0.05769292637705803
v 0.5397052764892578 0.38177409768104553 -0.5827136039733887
v 1.0849660634994507 0.3225730359554291 1.2419451475143433
v 0.6141757965087891 0.7921015620231628 0.05769292637705803
v 0.6319814324378967 0.8662670254707336 1.383786678314209
v 1.0849660634994507 0.3225730061531067 0.21156932413578033
v 0.6451945900917053 1.0175021886825562 2.1621181964874268
v 0.43541547656059265 0.7847292423248291 -2.2615129947662354
v 1.6359803676605225 0.7847291827201843 -2.2615132331848145
v 1.9566481113433838 0.7847293019294739 -2.81195068359375
v 0.435415118932724 0.3714560270309448 -2.1370937824249268
v 1.6359795331954956 0.3714558780193329 -2.1370937824249268
v 1.6359803676605225 0.7847291827201843 -2.2615132331848145
v 1.6359803676605225 0.7847291827201843 -2.2615132331848145
v 0.43541547656059265 0.7847292423248291 -2.2615129947662354
v 0.435415118932724 0.3714560270309448 -2.1370937824249268
v 1.6359795331954956 0.3714558780193329 2.1370937824249268
v 0.435415118932724 0.3714560270309448 2.1370937824249268
v 0.43541547656059265 0.7847292423248291 2.2615129947662354
v 0.43541547656059265 0.7847292423248291 2.2615129947662354
v 1.6359803676605225 0.7847291827201843 2.2615129947662354
v 1.9566481113433838 0.7847293019294739 -2.81195068359375
v -0.06237124651670456 0.7847294211387634 -2.81195068359375
v 1.6359803676605225 0.7847291827201843 2.2615129947662354
v 1.6359803676605225 0.7847291827201843 -2.2615132331848145
v 1.6359795331954956 0.3714558780193329 -2.1370937824249268
v 1.6359795331954956 0.3714558780193329 2.1370937824249268
v 0.435415118932724 0.3714560270309448 2.1370937824249268
v 0.435415118932724 0.3714560270309448 -2.1370937824249268
v 0.43541547656059265 0.7847292423248291 -2.2615129947662354
v 0.43541547656059265 0.7847292423248291 2.2615129947662354
v 1.5654096603393555 -0.7847293019294739 2.339587688446045
v 1.9566481113433838 0.7847291827201843 2.81195068359375
v -0.06237100437283516 0.7847293615341187 2.81195068359375
v -0.062371186912059784 -0.7847293019294739 2.339587688446045
v 1.9566481113433838 0.7847293019294739 -2.81195068359375
v 1.5654096603393555 -0.7847293019294739 -2.339587688446045
v -0.0623713918030262 -0.7847292423248291 -2.339587688446045
v -0.06237124651670456 0.7847294211387634 -2.81195068359375
v 1.5654096603393555 -0.7847293019294739 -2.339587688446045
v 1.5654096603393555 -0.7847293019294739 2.339587688446045
v -0.062371186912059784 -0.7847293019294739 2.339587688446045
v -0.0623713918030262 -0.7847292423248291 -2.339587688446045
v 1.9566481113433838 0.7847293019294739 -2.81195068359375
v 1.9566481113433838 0.7847291827201843 2.81195068359375
v 1.5654096603393555 -0.7847293019294739 2.339587688446045
v 1.5654096603393555 -0.7847293019294739 -2.339587688446045
v -0.06237124651670456 0.7847294211387634 -2.81195068359375
v -0.0623713918030262 -0.7847292423248291 -2.339587688446045
v -0.062371186912059784 -0.7847293019294739 2.339587688446045
v -0.06237100437283516 0.7847293615341187 2.81195068359375
v -0.06237100437283516 0.7847293615341187 2.81195068359375
v 1.9566481113433838 0.7847291827201843 2.81195068359375
v 1.6359803676605225 0.7847291827201843 2.2615129947662354
v -0.06237124651670456 0.7847294211387634 -2.81195068359375
v -0.06237100437283516 0.7847293615341187 2.81195068359375
v 0.43541547656059265 0.7847292423248291 2.2615129947662354
v -0.06237100437283516 0.7847293615341187 2.81195068359375
v -0.06237124651670456 0.7847294211387634 -2.81195068359375
v 1.9566481113433838 0.7847291827201843 2.81195068359375
v 1.9566481113433838 0.7847293019294739 -2.81195068359375
v 0.4354151487350464 0.3714560568332672 -2.1370937824249268
v 0.4354151487350464 0.3714560568332672 2.1370937824249268
v 1.6359797716140747 0.37145599722862244 2.1370937824249268
v 1.6359797716140747 0.37145599722862244 -2.1370937824249268
vn 0.865285336971283 -0.02983834780752659 0.5003907680511475
vn 0.9431456327438354 0.1432846635580063 0.29990968108177185
vn 0.9494470953941345 0.03318773955106735 0.31216782331466675
vn 0.8905147910118103 -0.193828746676445 -0.41159912943840027
vn 0.7984004020690918 -0.16537605226039886 -0.5789711475372314
vn 0.9388826489448547 -0.22926880419254303 -0.25677844882011414
vn 0.8950173258781433 -0.1324465274810791 -0.4259129762649536
vn 0.947171151638031 -0.22235117852687836 0.2311423420906067
vn 0.9388826489448547 -0.22926880419254303 -0.25677844882011414
vn 0.8416206240653992 -0.18841706216335297 0.5061361193656921
vn 0.8905147910118103 -0.193828746676445 -0.41159912943840027
vn 0.715039849281311 -0.16110998392105103 0.6802658438682556
vn 0.8416206240653992 -0.18841706216335297 0.5061361193656921
vn 0.6489966511726379 -0.12924113869667053 0.7497333288192749
vn 0.947171151638031 -0.22235117852687836 0.2311423420906067
vn 0.878622829914093 -0.3084988594055176 -0.3644865155220032
vn 0.8261873126029968 -0.2808096706867218 -0.4884265065193176
vn 0.9223682880401611 -0.3282127380371094 -0.20374763011932373
vn 0.874864935874939 -0.23830287158489227 -0.42169076204299927
vn 0.9495594501495361 -0.31337442994117737 -0.0115449707955122
vn 0.9223682880401611 -0.3282127380371094 -0.20374763011932373
vn 0.958782434463501 -0.27807116508483887 0.05841813236474991
vn 0.878622829914093 -0.3084988594055176 -0.3644865155220032
vn 0.878622829914093 -0.3084988594055176 -0.3644865155220032
vn 0.8261873126029968 -0.2808096706867218 -0.4884265065193176
vn 0.9223682880401611 -0.3282127380371094 -0.20374763011932373
vn 0.874864935874939 -0.23830287158489227 -0.42169076204299927
vn 0.9495594501495361 -0.31337442994117737 -0.0115449707955122
vn 0.9223682880401611 -0.3282127380371094 -0.20374763011932373
vn 0.958782434463501 -0.27807116508483887 0.05841813236474991
vn 0.878622829914093 -0.3084988594055176 -0.3644865155220032
vn 0.9872863292694092 0.1232014000415802 -0.10043462365865707
vn 0.9840118885040283 0.08133396506309509 -0.15844665467739105
vn 0.97186279296875 0.18690858781337738 0.14334546029567719
vn 0.717824399471283 -0.05474337562918663 -0.6940686702728271
vn 0.9431456327438354 0.1432846635580063 0.29990968108177185
vn 0.97186279296875 0.18690858781337738 0.14334546029567719
vn 0.9494470953941345 0.03318773955106735 0.31216782331466675
vn 0.9872863292694092 0.1232014000415802 -0.10043462365865707
vn 0.9926058053970337 -0.1127302497625351 0.04500701650977135
vn 8.826167174902366e-8 1 2.4392684849772195e-7
vn -3.304474205378938e-7 1 0
vn 8.826167174902366e-8 1 2.4392684849772195e-7
vn 3.180485208531536e-8 0.28827783465385437 0.9575468301773071
vn 3.180485208531536e-8 0.28827783465385437 0.9575468301773071
vn 3.180485208531536e-8 0.28827783465385437 0.9575468301773071
vn 1.9447313093223784e-7 0.28827741742134094 0.9575469493865967
vn 1.9447313093223784e-7 0.28827741742134094 0.9575469493865967
vn 1.9447313093223784e-7 0.28827741742134094 0.9575469493865967
vn 3.1804805900037536e-8 0.28827741742134094 -0.9575469493865967
vn 3.1804805900037536e-8 0.28827741742134094 -0.9575469493865967
vn 3.1804805900037536e-8 0.28827741742134094 -0.9575469493865967
vn 2.5443831930260785e-8 0.28827738761901855 -0.9575469493865967
vn 2.5443831930260785e-8 0.28827738761901855 -0.9575469493865967
vn 1.0496562197204184e-7 1 2.9009117952227825e-7
vn 1.0496562197204184e-7 1 2.9009117952227825e-7
vn -1 0.0000020512106857495382 0
vn -1 0.0000020512106857495382 0
vn -1 0.0000020512106857495382 0
vn -1 0.0000020512106857495382 0
vn 1 -8.974047318588418e-7 0
vn 1 -8.974047318588418e-7 0
vn 1 -8.974047318588418e-7 0
vn 1 -8.974047318588418e-7 0
vn -1.1344224226661481e-8 -0.28820160031318665 0.9575697779655457
vn -2.2688448453322962e-8 -0.28820160031318665 0.9575697779655457
vn -1.1344224226661481e-8 -0.28820160031318665 0.9575697779655457
vn 0 -0.28820160031318665 0.9575697779655457
vn -1.9815901808328817e-8 -0.28820160031318665 -0.9575697779655457
vn -9.380543453119117e-9 -0.28820160031318665 -0.9575697779655457
vn -1.9815901808328817e-8 -0.28820160031318665 -0.9575697779655457
vn -3.025126105171694e-8 -0.28820160031318665 -0.9575697779655457
vn -1.6274272596206174e-8 -1 -5.661456636829598e-9
vn 0 -1 0
vn -1.6274272596206174e-8 -1 -5.661456636829598e-9
vn -3.254854519241235e-8 -1 -1.1322913273659196e-8
vn 0.9703060984611511 -0.24188026785850525 0
vn 0.9703060984611511 -0.24188026785850525 0
vn 0.9703060984611511 -0.24188026785850525 0
vn 0.9703060984611511 -0.24188026785850525 0
vn -1 1.055398755056558e-7 4.372385475903684e-8
vn -1 1.0604024680560542e-7 4.387629815028049e-8
vn -1 1.055398755056558e-7 4.372385475903684e-8
vn -1 1.0503950420570618e-7 4.357141136779319e-8
vn 7.872422713717242e-8 1 -2.383705322017704e-7
vn 7.872422713717242e-8 1 -2.383705322017704e-7
vn -3.304474205378938e-7 1 0
vn 3.297222974651959e-7 1 9.420831226236714e-9
vn 3.297222974651959e-7 1 9.420831226236714e-9
vn 8.826162911645952e-8 1 -2.0894330532428285e-7
vn 8.826162911645952e-8 1 -2.0894330532428285e-7
vn 4.257398131812806e-7 1 0
vn -3.304474205378938e-7 1 0
vn -3.304474205378938e-7 1 0
vn 5.0722412936465844e-8 1 0
vn 5.0722412936465844e-8 1 0
vn 5.0722412936465844e-8 1 0
vn 5.0722412936465844e-8 1 0
vt 0 0
vt 1 0
vt 1 1
vt 0 0
vt 1 1
vt 0 1
vt 1 0
vt 0 0
vt 1 1
vt 0 1
vt 1 0
vt 0 0
vt 1 1
vt 0 1
vt 1 0
vt 0 0
vt 1 1
vt 0 1
vt 1 0
vt 0 0
vt 1 1
vt 0 1
vt 1 0
vt 0 0
vt 1 1
vt 0 1
vt 1 0
vt 0 0
vt 1 1
vt 0 1
vt 1 0
vt 0 0
vt 1 1
vt 0 1
vt 1 0
vt 0 0
vt 1 1
vt 0 1
vt 1 0
vt 0 1
vt 0.9017235040664673 0.22280848026275635
vt 0.9017235636711121 0.58698570728302
vt 0.9874231815338135 0.7434618473052979
vt 0.000499427318572998 0.7492920160293579
vt 0.9994999170303345 0.7492918372154236
vt 0.9995002746582031 0.999498724937439
vt 0.9995002746582031 0.999498724937439
vt 0.0004996657371520996 0.9994988441467285
vt 0.000499427318572998 0.7492920160293579
vt 0.999500036239624 0.7492934465408325
vt 0.0004995763301849365 0.7492936849594116
vt 0.0004998445510864258 0.999500572681427
vt 0.0004998445510864258 0.999500572681427
vt 0.9995005130767822 0.9995005130767822
vt 0.9874231815338135 0.7434618473052979
vt 0.9874231815338135 0.017407715320587158
vt 0 0.9995005130767822
vt 1 0.999498724937439
vt 1 0.7541227340698242
vt 0 0.7541243433952332
vt 0 0.7541245818138123
vt 1 0.7541229724884033
vt 1 0.9994988441467285
vt 0 0.999500572681427
vt 1 0.0005002021789550781
vt 1 0.9995003938674927
vt 0 0.9995005130767822
vt 0 0.0005002021789550781
vt 1 0.9994995594024658
vt 1 0.0004994869232177734
vt 0 0.0004994869232177734
vt 0 0.9994996786117554
vt 1 1
vt 0 1
vt 0 -0.26086950302124023
vt 1 -0.26086950302124023
vt 1 0.9994995594024658
vt 0 0.9995003938674927
vt 0 0.0005002021789550781
vt 1 0.0004994869232177734
vt 0 0.9994996786117554
vt 0 0.0004994869232177734
vt 1 0.0005002021789550781
vt 0.9995004534721375 0.9995005130767822
vt 0.0004995465278625488 0.017407715320587158
vt 0.0004995465278625488 0.7434618473052979
vt 0.09827646613121033 0.58698570728302
vt 0.9874231815338135 0.017407715320587158
vt 0.0004995465278625488 0.017407715320587158
vt 0.09827646613121033 0.22280848026275635
vt 0.0004995465278625488 0.017407715320587158
vt 0.9874231815338135 0.017407715320587158
vt 0.0004995465278625488 0.7434618473052979
vt 0.9874231815338135 0.7434618473052979
vt 0.9995005130767822 0.0002497434616088867
vt 0.0004995465278625488 0.0002497434616088867
vt 0.0004995465278625488 0.4997502565383911
vt 0.9995005130767822 0.4997502565383911
g Geoset0
s 1
usemtl mat_elwynnflower03a
f 1/1/1 2/2/2 3/3/3
f 4/4/4 5/5/5 6/6/6
f 4/4/4 7/7/7 5/5/5
f 8/8/8 9/9/9 10/10/10
f 8/8/8 11/11/11 9/9/9
f 12/12/12 13/13/13 14/14/14
f 12/12/12 15/15/15 13/13/13
f 16/16/16 17/17/17 18/18/18
f 16/16/16 19/19/19 17/17/17
f 20/20/20 21/21/21 22/22/22
f 20/20/20 23/23/23 21/21/21
f 24/24/24 25/25/25 26/26/26
f 24/24/24 27/27/27 25/25/25
f 28/28/28 29/29/29 30/30/30
f 28/28/28 31/31/31 29/29/29
f 32/32/32 33/33/33 34/34/34
f 32/32/32 35/35/35 33/33/33
f 36/36/36 37/37/37 38/38/38
f 36/36/36 39/39/39 37/37/37
f 1/1/1 3/3/3 40/40/40
g Geoset1
s 1
usemtl mat_planterbox
f 41/41/41 42/42/42 43/43/43
f 44/44/44 45/45/45 46/46/46
f 47/47/47 48/48/48 49/49/49
f 50/50/50 51/51/51 52/52/52
f 53/53/53 54/54/54 50/50/50
f 55/55/55 56/56/56 41/41/41
f 57/57/57 58/58/58 59/59/59
f 59/59/59 60/60/60 57/57/57
f 61/61/61 62/62/62 63/63/63
f 63/63/63 64/64/64 61/61/61
f 65/65/65 66/66/66 67/67/67
f 67/67/67 68/68/68 65/65/65
f 69/69/69 70/70/70 71/71/71
f 71/71/71 72/72/72 69/69/69
f 73/73/73 74/74/74 75/75/75
f 75/75/75 76/76/76 73/73/73
f 77/77/77 78/78/78 79/79/79
f 79/79/79 80/80/80 77/77/77
f 81/81/81 82/82/82 83/83/83
f 83/83/83 84/84/84 81/81/81
f 85/85/85 86/86/86 87/87/87
f 88/88/88 89/89/89 90/90/90
f 87/87/87 90/90/90 91/91/91
f 90/90/90 41/41/41 92/92/92
f 42/42/42 87/87/87 93/93/93
f 93/93/93 94/94/94 42/42/42
g Geoset2
s 1
usemtl mat_elwynndirtbase
f 95/95/95 96/96/96 97/97/97
f 97/97/97 98/98/98 95/95/95
