# Exported using wow.export v0.1.65
o stormwindwindowplanterempty
mtllib stormwindwindowplanterempty.mtl
v 0.43541547656059265 0.7847291827201843 -2.2615129947662354
v 1.6359803676605225 0.7847290635108948 -2.2615134716033936
v 1.9566481113433838 0.7847291231155396 -2.81195068359375
v 0.4354151487350464 0.3714560270309448 -2.1370937824249268
v 1.6359795331954956 0.3714558482170105 -2.1370937824249268
v 1.6359803676605225 0.7847290635108948 -2.2615134716033936
v 1.6359803676605225 0.7847290635108948 -2.2615134716033936
v 0.43541547656059265 0.7847291827201843 -2.2615129947662354
v 0.4354151487350464 0.3714560270309448 -2.1370937824249268
v 1.6359795331954956 0.3714558482170105 2.1370937824249268
v 0.4354151487350464 0.3714560270309448 2.1370937824249268
v 0.43541547656059265 0.7847291827201843 2.2615129947662354
v 0.43541547656059265 0.7847291827201843 2.2615129947662354
v 1.6359803676605225 0.7847290635108948 2.2615129947662354
v 1.9566481113433838 0.7847291231155396 -2.81195068359375
v -0.06237124651670456 0.7847294211387634 -2.81195068359375
v 1.6359803676605225 0.7847290635108948 2.2615129947662354
v 1.6359803676605225 0.7847290635108948 -2.2615134716033936
v 1.6359795331954956 0.3714558482170105 -2.1370937824249268
v 1.6359795331954956 0.3714558482170105 2.1370937824249268
v 0.4354151487350464 0.3714560270309448 2.1370937824249268
v 0.4354151487350464 0.3714560270309448 -2.1370937824249268
v 0.43541547656059265 0.7847291827201843 -2.2615129947662354
v 0.43541547656059265 0.7847291827201843 2.2615129947662354
v 1.5654096603393555 -0.7847293019294739 2.339587688446045
v 1.9566481113433838 0.7847291827201843 2.81195068359375
v -0.06237099692225456 0.7847293615341187 2.81195068359375
v -0.062371186912059784 -0.7847293019294739 2.339587688446045
v 1.9566481113433838 0.7847291231155396 -2.81195068359375
v 1.5654096603393555 -0.7847293019294739 -2.339587688446045
v -0.0623713918030262 -0.7847292423248291 -2.339587688446045
v -0.06237124651670456 0.7847294211387634 -2.81195068359375
v 1.5654096603393555 -0.7847293019294739 -2.339587688446045
v 1.5654096603393555 -0.7847293019294739 2.339587688446045
v -0.062371186912059784 -0.7847293019294739 2.339587688446045
v -0.0623713918030262 -0.7847292423248291 -2.339587688446045
v 1.9566481113433838 0.7847291231155396 -2.81195068359375
v 1.9566481113433838 0.7847291827201843 2.81195068359375
v 1.5654096603393555 -0.7847293019294739 2.339587688446045
v 1.5654096603393555 -0.7847293019294739 -2.339587688446045
v -0.06237124651670456 0.7847294211387634 -2.81195068359375
v -0.0623713918030262 -0.7847292423248291 -2.339587688446045
v -0.062371186912059784 -0.7847293019294739 2.339587688446045
v -0.06237099692225456 0.7847293615341187 2.81195068359375
v -0.06237099692225456 0.7847293615341187 2.81195068359375
v 1.9566481113433838 0.7847291827201843 2.81195068359375
v 1.6359803676605225 0.7847290635108948 2.2615129947662354
v -0.06237124651670456 0.7847294211387634 -2.81195068359375
v -0.06237099692225456 0.7847293615341187 2.81195068359375
v 0.43541547656059265 0.7847291827201843 2.2615129947662354
v -0.06237099692225456 0.7847293615341187 2.81195068359375
v -0.06237124651670456 0.7847294211387634 -2.81195068359375
v 1.9566481113433838 0.7847291827201843 2.81195068359375
v 1.9566481113433838 0.7847291231155396 -2.81195068359375
v 0.4354151487350464 0.3714560568332672 -2.1370937824249268
v 0.4354151487350464 0.3714560568332672 2.1370937824249268
v 1.6359797716140747 0.3714560270309448 2.1370937824249268
v 1.6359797716140747 0.3714560270309448 -2.1370937824249268
vn 8.826167174902366e-8 1 2.4392684849772195e-7
vn -3.304474205378938e-7 1 0
vn 8.826167174902366e-8 1 2.4392684849772195e-7
vn 3.180485208531536e-8 0.28827786445617676 0.9575468301773071
vn 3.180485208531536e-8 0.28827786445617676 0.9575468301773071
vn 3.180485208531536e-8 0.28827786445617676 0.9575468301773071
vn 1.9447313093223784e-7 0.28827741742134094 0.9575469493865967
vn 1.9447313093223784e-7 0.28827741742134094 0.9575469493865967
vn 1.9447313093223784e-7 0.28827741742134094 0.9575469493865967
vn 3.1804805900037536e-8 0.28827741742134094 -0.9575469493865967
vn 3.1804805900037536e-8 0.28827741742134094 -0.9575469493865967
vn 3.1804805900037536e-8 0.28827741742134094 -0.9575469493865967
vn 2.5443831930260785e-8 0.28827738761901855 -0.9575469493865967
vn 2.5443831930260785e-8 0.28827738761901855 -0.9575469493865967
vn 1.049656290774692e-7 1 2.900912079439877e-7
vn 1.049656290774692e-7 1 2.900912079439877e-7
vn -1 0.0000020512106857495382 0
vn -1 0.0000020512106857495382 0
vn -1 0.0000020512106857495382 0
vn -1 0.0000020512106857495382 0
vn 1 -8.974047318588418e-7 0
vn 1 -8.974047318588418e-7 0
vn 1 -8.974047318588418e-7 0
vn 1 -8.974047318588418e-7 0
vn -1.2773634594509531e-8 -0.28820160031318665 0.9575697779655457
vn -2.2688450229679802e-8 -0.28820160031318665 0.9575697779655457
vn -1.139383609682909e-8 -0.28820157051086426 0.9575697779655457
vn 0 -0.28820157051086426 0.9575697779655457
vn -2.0028991798426432e-8 -0.28820157051086426 -0.9575697779655457
vn -9.380543453119117e-9 -0.28820157051086426 -0.9575697779655457
vn -2.1191272736587052e-8 -0.28820157051086426 -0.9575697779655457
vn -3.025126105171694e-8 -0.28820157051086426 -0.9575697779655457
vn -2.5611495146904417e-8 -1 -8.909668558487738e-9
vn 0 -1 0
vn -6.93705271004319e-9 -1 -2.413246269483693e-9
vn -3.254854519241235e-8 -1 -1.1322914161837616e-8
vn 0.9703060984611511 -0.24188026785850525 0
vn 0.9703060984611511 -0.24188026785850525 0
vn 0.9703060984611511 -0.24188026785850525 0
vn 0.9703060984611511 -0.24188026785850525 0
vn -1 1.0580875908772214e-7 4.380577323104262e-8
vn -1 1.0604025391103278e-7 4.387629815028049e-8
vn -1 1.0519834603428535e-7 4.361980643352581e-8
vn -1 1.0503951131113354e-7 4.357141136779319e-8
vn 7.872423424259978e-8 1 -2.383705322017704e-7
vn 7.872423424259978e-8 1 -2.383705322017704e-7
vn -3.304474205378938e-7 1 0
vn 3.297222974651959e-7 1 9.420831226236714e-9
vn 3.297222974651959e-7 1 9.420831226236714e-9
vn 8.826162911645952e-8 1 -2.0894330532428285e-7
vn 8.826162911645952e-8 1 -2.0894330532428285e-7
vn 4.257398131812806e-7 1 0
vn -3.304474205378938e-7 1 0
vn -3.304474205378938e-7 1 0
vn 2.6033356803623064e-8 1 0
vn 2.6033356803623064e-8 1 0
vn 2.6033356803623064e-8 1 0
vn 2.6033356803623064e-8 1 0
vt 0.9017235040664673 0.22280848026275635
vt 0.9017235636711121 0.58698570728302
vt 0.9874231815338135 0.7434618473052979
vt 0.000499427318572998 0.7492920160293579
vt 0.9994999170303345 0.7492918372154236
vt 0.9995002746582031 0.999498724937439
vt 0.9995002746582031 0.999498724937439
vt 0.0004996657371520996 0.9994988441467285
vt 0.000499427318572998 0.7492920160293579
vt 0.999500036239624 0.7492934465408325
vt 0.0004995763301849365 0.7492936849594116
vt 0.0004998445510864258 0.999500572681427
vt 0.0004998445510864258 0.999500572681427
vt 0.9995005130767822 0.9995005130767822
vt 0.9874231815338135 0.7434618473052979
vt 0.9874231815338135 0.017407715320587158
vt 0 0.9995005130767822
vt 1 0.999498724937439
vt 1 0.7541227340698242
vt 0 0.7541243433952332
vt 0 0.7541245818138123
vt 1 0.7541229724884033
vt 1 0.9994988441467285
vt 0 0.999500572681427
vt 1 0.0005002021789550781
vt 1 0.9995003938674927
vt 0 0.9995005130767822
vt 0 0.0005002021789550781
vt 1 0.9994995594024658
vt 1 0.0004994869232177734
vt 0 0.0004994869232177734
vt 0 0.9994996786117554
vt 1 1
vt 0 1
vt 0 -0.26086950302124023
vt 1 -0.26086950302124023
vt 1 0.9994995594024658
vt 0 0.9995003938674927
vt 0 0.0005002021789550781
vt 1 0.0004994869232177734
vt 0 0.9994996786117554
vt 0 0.0004994869232177734
vt 1 0.0005002021789550781
vt 0.9995004534721375 0.9995005130767822
vt 0.0004995465278625488 0.017407715320587158
vt 0.0004995465278625488 0.7434618473052979
vt 0.09827646613121033 0.58698570728302
vt 0.9874231815338135 0.017407715320587158
vt 0.0004995465278625488 0.017407715320587158
vt 0.09827646613121033 0.22280848026275635
vt 0.0004995465278625488 0.017407715320587158
vt 0.9874231815338135 0.017407715320587158
vt 0.0004995465278625488 0.7434618473052979
vt 0.9874231815338135 0.7434618473052979
vt 0.9995005130767822 0.0002497434616088867
vt 0.0004995465278625488 0.0002497434616088867
vt 0.0004995465278625488 0.4997502565383911
vt 0.9995005130767822 0.4997502565383911
g Geoset0
s 1
usemtl mat_planterbox
f 1/1/1 2/2/2 3/3/3
f 4/4/4 5/5/5 6/6/6
f 7/7/7 8/8/8 9/9/9
f 10/10/10 11/11/11 12/12/12
f 13/13/13 14/14/14 10/10/10
f 15/15/15 16/16/16 1/1/1
f 17/17/17 18/18/18 19/19/19
f 19/19/19 20/20/20 17/17/17
f 21/21/21 22/22/22 23/23/23
f 23/23/23 24/24/24 21/21/21
f 25/25/25 26/26/26 27/27/27
f 27/27/27 28/28/28 25/25/25
f 29/29/29 30/30/30 31/31/31
f 31/31/31 32/32/32 29/29/29
f 33/33/33 34/34/34 35/35/35
f 35/35/35 36/36/36 33/33/33
f 37/37/37 38/38/38 39/39/39
f 39/39/39 40/40/40 37/37/37
f 41/41/41 42/42/42 43/43/43
f 43/43/43 44/44/44 41/41/41
f 45/45/45 46/46/46 47/47/47
f 48/48/48 49/49/49 50/50/50
f 47/47/47 50/50/50 51/51/51
f 50/50/50 1/1/1 52/52/52
f 2/2/2 47/47/47 53/53/53
f 53/53/53 54/54/54 2/2/2
g Geoset1
s 1
usemtl mat_elwynndirtbase
f 55/55/55 56/56/56 57/57/57
f 57/57/57 58/58/58 55/55/55
