# Exported using wow.export v0.1.65
o hangingpantsgrey
mtllib hangingpantsgrey.mtl
v -0.07907877117395401 0.5631392002105713 -0.02745823748409748
v -0.1583331972360611 -0.018465843051671982 -0.13208796083927155
v -0.07916656136512756 -0.004602483939379454 -0.037468500435352325
v -0.07906970381736755 1.0361138582229614 -0.0034673213958740234
v -0.07906971126794815 1.2473561763763428 0.000034610431612236425
v -0.07906970381736755 1.0391199588775635 0.27164226770401
v -0.07906970381736755 1.0391199588775635 -0.27497223019599915
v -0.0790787786245346 0.5631390810012817 0.026613255962729454
v 1.2715419472897338e-7 -0.018465932458639145 0.13124297559261322
v -0.07916653901338577 -0.004602643195539713 0.0366235189139843
v -6.816839714929301e-8 1.0467909574508667 0.12600715458393097
v -0.07916653156280518 -0.004602537024766207 0.21963028609752655
v -0.07916668057441711 1.0629069805145264 0.23508606851100922
v -0.07904186844825745 0.6874406933784485 -0.00042249096441082656
v 9.404048739725113e-8 -0.01846577413380146 -0.13208796083927155
v -0.07907877117395401 0.5631392002105713 -0.02745823748409748
v -0.07916656136512756 -0.004602483939379454 -0.037468500435352325
v -3.7314730860771306e-8 1.0467909574508667 -0.1268521398305893
v -5.037452410761034e-8 1.0417537689208984 -0.00042249096441082656
v -0.07916655391454697 -0.004602378234267235 -0.22047527134418488
v -0.07916663587093353 1.0629069805145264 -0.23593102395534515
v -0.1583331823348999 -0.018466003239154816 0.13124297559261322
v -0.0790787786245346 0.5631390810012817 0.026613255962729454
v -0.07916653901338577 -0.004602643195539713 0.0366235189139843
v -0.15833337604999542 1.0467908382415771 0.12600715458393097
v -0.07916653156280518 -0.004602537024766207 0.21963028609752655
v -0.15833339095115662 1.0417537689208984 -0.00042249096441082656
v -0.07904186844825745 0.6874406933784485 -0.00042249096441082656
v -0.07916655391454697 -0.004602378234267235 -0.22047527134418488
v -0.15833333134651184 1.0467908382415771 -0.1268521398305893
vn 0.1656060814857483 -0.09402278810739517 0.9816997051239014
vn -0.9543530941009521 -0.04037102684378624 0.2959398627281189
vn -0.00001497265839134343 -0.017628975212574005 0.9998446106910706
vn 1 3.1028541513933305e-8 6.3913874193133324e-12
vn 1 3.1028541513933305e-8 6.3913874193133324e-12
vn 1 3.1045068737967085e-8 -9.905311015856455e-10
vn 1 3.1012014289899525e-8 1.0033138764242722e-9
vn 0.16560614109039307 -0.09402275830507278 -0.9816997051239014
vn 0.9687186479568481 -0.004709869623184204 -0.24811695516109467
vn -0.000015019024431239814 -0.017628971487283707 -0.9998446106910706
vn 0.9951220750808716 -0.07125959545373917 0.0682208314538002
vn 1.6721153883736406e-7 -0.004173451568931341 0.9999912977218628
vn 3.580948373382853e-7 -0.014476827345788479 0.9998952150344849
vn 0.9380031228065491 -0.3466268479824066 2.2953226874733446e-8
vn 0.9687186479568481 -0.004709926899522543 0.2481168806552887
vn 0.1656060814857483 -0.09402278810739517 0.9816997051239014
vn -0.00001497265839134343 -0.017628975212574005 0.9998446106910706
vn 0.9951220750808716 -0.07125961780548096 -0.06822074204683304
vn 0.9760085344314575 -0.21773235499858856 1.1921378018087125e-7
vn 1.1972110769420397e-7 -0.004173451568931341 -0.9999912977218628
vn 3.074315202411526e-7 -0.014476829208433628 -0.9998952150344849
vn -0.9543530344963074 -0.04037107527256012 -0.29593995213508606
vn 0.16560614109039307 -0.09402275830507278 -0.9816997051239014
vn -0.000015019024431239814 -0.017628971487283707 -0.9998446106910706
vn -0.8974742293357849 -0.0018410335760563612 0.4410630762577057
vn 1.6721153883736406e-7 -0.004173451568931341 0.9999912977218628
vn -0.9916636347770691 -0.12885348498821259 -1.7181415046252368e-7
vn 0.9380031228065491 -0.3466268479824066 2.2953226874733446e-8
vn 1.1972110769420397e-7 -0.004173451568931341 -0.9999912977218628
vn -0.8974742293357849 -0.0018409788608551025 -0.4410631060600281
vt 0.9967027306556702 0.3976093530654907
vt 0.9226460456848145 0.2547823190689087
vt 0.9965714812278748 0.25505298376083374
vt 0.7510172128677368 0.12659478187561035
vt 0.752498984336853 0.24959170818328857
vt 0.8733852505683899 0.12659484148025513
vt 0.873672604560852 0.12659478187561035
vt 0.7510140538215637 0.38677382469177246
vt 0.8183783888816833 0.2523004412651062
vt 0.7510226964950562 0.2523822784423828
vt 0.818324089050293 0.49902278184890747
vt 0.8766988515853882 0.2523822784423828
vt 0.876915693283081 0.49814271926879883
vt 0.7509920597076416 0.41866064071655273
vt 0.8183783888816833 0.2523004412651062
vt 0.7510140538215637 0.38677382469177246
vt 0.7510226964950562 0.2523822784423828
vt 0.818324089050293 0.49902278184890747
vt 0.7509920597076416 0.4982367157936096
vt 0.8766988515853882 0.2523822784423828
vt 0.876915693283081 0.49814271926879883
vt 0.9226460456848145 0.2547823190689087
vt 0.9967027306556702 0.3976093530654907
vt 0.9965714812278748 0.25505298376083374
vt 0.942837119102478 0.49802154302597046
vt 0.8765453696250916 0.2550530433654785
vt 0.9971753358840942 0.4982253313064575
vt 0.9971752762794495 0.41986382007598877
vt 0.8765453696250916 0.2550530433654785
vt 0.942837119102478 0.49802154302597046
g Geoset0
s 1
usemtl mat_clothstuff
f 1/1/1 2/2/2 3/3/3
f 4/4/4 5/5/5 6/6/6
f 7/7/7 5/5/5 4/4/4
f 8/8/8 9/9/9 10/10/10
f 9/9/9 8/8/8 11/11/11
f 11/11/11 12/12/12 9/9/9
f 12/12/12 11/11/11 13/13/13
f 14/14/14 11/11/11 8/8/8
f 15/15/15 16/16/16 17/17/17
f 16/16/16 15/15/15 18/18/18
f 18/18/18 14/14/14 16/16/16
f 18/18/18 19/19/19 14/14/14
f 19/19/19 11/11/11 14/14/14
f 18/18/18 20/20/20 21/21/21
f 20/20/20 18/18/18 15/15/15
f 22/22/22 23/23/23 24/24/24
f 25/25/25 26/26/26 13/13/13
f 26/26/26 25/25/25 22/22/22
f 22/22/22 25/25/25 27/27/27
f 23/23/23 22/22/22 27/27/27
f 27/27/27 28/28/28 23/23/23
f 29/29/29 30/30/30 21/21/21
f 30/30/30 29/29/29 2/2/2
f 30/30/30 2/2/2 27/27/27
f 2/2/2 1/1/1 27/27/27
f 28/28/28 27/27/27 1/1/1
