# Exported using wow.export v0.1.65
o hangingshirtgreen
mtllib hangingshirtgreen.mtl
v 0.07656118273735046 0.692430317401886 -0.19237005710601807
v 0.07656117528676987 0.9036727547645569 0.013471153564751148
v 0.07656118273735046 0.692430317401886 0.00996922142803669
v 0.15789978206157684 0.4757804274559021 0.3894762396812439
v 0.07504288852214813 0.6677345037460327 0.37291136384010315
v 0.07742936909198761 0.47193601727485657 0.4390941858291626
v 0.01806146837770939 0.6207588315010071 0.2941289246082306
v 0.013865920715034008 0.4000110626220703 0.30951470136642456
v 0.06475487351417542 0.4731654226779938 0.2272077351808548
v 0.09717559069395065 0.41414833068847656 0.2852446734905243
v 0.11094444245100021 0.6288440823554993 0.27810266613960266
v 0.0023524239659309387 0.45839205384254456 -0.4555780589580536
v 0.05761620029807091 0.669184148311615 -0.3829689919948578
v 0.052139051258563995 0.4528854191303253 -0.3989867568016052
v 0.10892420262098312 0.624265193939209 -0.3150016665458679
v 0.0725073292851448 0.405508428812027 -0.30054402351379395
v 0.044134046882390976 0.4790531396865845 -0.23954184353351593
v -0.011282263323664665 0.3928828835487366 -0.32819971442222595
v -0.013660633936524391 0.6255260109901428 -0.2930702269077301
v -0.0020515434443950653 0.742915689945221 0.020120015367865562
v 0.01806146837770939 0.6207588315010071 0.2941289246082306
v 0.07504288852214813 0.6677345037460327 0.37291136384010315
v 0.06475487351417542 0.4731654226779938 0.2272077351808548
v -0.00222227955237031 0.011675593443214893 -0.011084952391684055
v 0.04684298485517502 0.04000982269644737 0.2408498376607895
v 0.07696820795536041 0.7874733805656433 0.14386005699634552
v 0.0035539460368454456 0.7820179462432861 0.018286047503352165
v 0.07586223632097244 0.7485018372535706 0.17757071554660797
v 0.07696817070245743 0.7878541350364685 -0.10779526084661484
v 0.07586219906806946 0.7444924116134644 -0.15270467102527618
v 0.05761620029807091 0.669184148311615 -0.3829689919948578
v -0.013660633936524391 0.6255260109901428 -0.2930702269077301
v 0.044134046882390976 0.4790531396865845 -0.23954184353351593
v 0.046843014657497406 0.04000980034470558 -0.2415853589773178
v 0.07586223632097244 0.7485018372535706 0.17757071554660797
v 0.07504288852214813 0.6677345037460327 0.37291136384010315
v 0.11094444245100021 0.6288440823554993 0.27810266613960266
v 0.1129872277379036 0.6767318844795227 0.006862988695502281
v 0.07696820795536041 0.7874733805656433 0.14386005699634552
v 0.1426495760679245 0.7319038510322571 0.056318242102861404
v 0.07586219906806946 0.7444924116134644 -0.15270467102527618
v 0.10892420262098312 0.624265193939209 -0.3150016665458679
v 0.05761620029807091 0.669184148311615 -0.3829689919948578
v 0.07696817070245743 0.7878541350364685 -0.10779526084661484
v 0.1430879533290863 0.7268369197845459 -0.02869250811636448
v 0.044134046882390976 0.4790531396865845 -0.23954184353351593
v 0.08515523374080658 0.018375838175415993 -0.15534459054470062
v 0.046843014657497406 0.04000980034470558 -0.2415853589773178
v 0.1031549796462059 0.007829961366951466 -0.011084872297942638
v 0.06475487351417542 0.4731654226779938 0.2272077351808548
v 0.09507633745670319 0.018334783613681793 0.12429467588663101
v 0.04684298485517502 0.04000982269644737 0.2408498376607895
v 0.07656118273735046 0.692430317401886 0.22412188351154327
vn 1 3.102864809534367e-8 0
vn 1 3.102864809534367e-8 0
vn 1 3.102864809534367e-8 0
vn 0.9419296383857727 0.25491654872894287 0.2186002880334854
vn -0.002235117368400097 0.7386831045150757 0.6740491986274719
vn -0.5677319169044495 0.22292019426822662 0.792456328868866
vn -0.9855540990829468 0.09396792203187943 0.14090129733085632
vn -0.8634240627288818 -0.3288273513317108 -0.38258522748947144
vn 0.5021966099739075 -0.7527191638946533 -0.42569059133529663
vn 0.6518607139587402 -0.3437163829803467 -0.6759709119796753
vn 0.9844282865524292 0.13195154070854187 -0.11614509671926498
vn -0.6318161487579346 0.24394086003303528 -0.7357317805290222
vn 0.09480591863393784 0.7126064300537109 -0.6951287388801575
vn 0.8521784543991089 -0.0417078472673893 -0.5215864181518555
vn 0.9921635985374451 0.0480310320854187 -0.11534473299980164
vn 0.771409273147583 -0.4427858293056488 0.45702123641967773
vn 0.4185057580471039 -0.7840939164161682 0.45831170678138733
vn -0.8023930788040161 -0.31356281042099 0.5077831745147705
vn -0.9887464642524719 0.14923883974552155 -0.010402330197393894
vn -0.9564301371574402 0.2917523980140686 -0.011044717393815517
vn -0.9855540990829468 0.09396792203187943 0.14090129733085632
vn -0.002235117368400097 0.7386831045150757 0.6740491986274719
vn 0.5021966099739075 -0.7527191638946533 -0.42569059133529663
vn -0.9997079968452454 0.009528784081339836 0.022205855697393417
vn -0.10332183539867401 0.03557863086462021 0.9940114617347717
vn 0.3263922333717346 -0.14372746646404266 0.9342433214187622
vn -0.9580536484718323 0.24739304184913635 0.1446714699268341
vn 0.1837749183177948 0.7891712188720703 0.5860337018966675
vn -0.2607589364051819 -0.001268616528250277 -0.9654030799865723
vn 0.4743165075778961 0.7956407070159912 -0.3768019676208496
vn 0.09480591863393784 0.7126064300537109 -0.6951287388801575
vn -0.9887464642524719 0.14923883974552155 -0.010402330197393894
vn 0.4185057580471039 -0.7840939164161682 0.45831170678138733
vn -0.1028369888663292 0.003995279781520367 -0.9946901798248291
vn 0.1837749183177948 0.7891712188720703 0.5860337018966675
vn -0.002235117368400097 0.7386831045150757 0.6740491986274719
vn 0.9844282865524292 0.13195154070854187 -0.11614509671926498
vn 0.9906818270683289 -0.13533145189285278 -0.015326480381190777
vn 0.3263922333717346 -0.14372746646404266 0.9342433214187622
vn 0.2556687593460083 -0.7178812623023987 0.6475183367729187
vn 0.4743165075778961 0.7956407070159912 -0.3768019676208496
vn 0.9921635985374451 0.0480310320854187 -0.11534473299980164
vn 0.09480591863393784 0.7126064300537109 -0.6951287388801575
vn -0.2607589364051819 -0.001268616528250277 -0.9654030799865723
vn 0.24846956133842468 -0.6553995609283447 -0.7132421135902405
vn 0.4185057580471039 -0.7840939164161682 0.45831170678138733
vn 0.9636316895484924 0.037446875125169754 -0.2645971477031708
vn -0.1028369888663292 0.003995279781520367 -0.9946901798248291
vn 0.9991636276245117 0.023802991956472397 -0.03324855491518974
vn 0.5021966099739075 -0.7527191638946533 -0.42569059133529663
vn 0.9744227528572083 0.014214723370969296 0.22427260875701904
vn -0.10332183539867401 0.03557863086462021 0.9940114617347717
vn 1 3.102864809534367e-8 0
vt 0.873672604560852 0.12659478187561035
vt 0.752498984336853 0.24959170818328857
vt 0.7510172128677368 0.12659478187561035
vt 0.5674788951873779 0.6800326108932495
vt 0.6006178259849548 0.7334502339363098
vt 0.6015549302101135 0.6792367100715637
vt 0.566032350063324 0.718230128288269
vt 0.5675240159034729 0.6800364255905151
vt 0.5314016938209534 0.710148274898529
vt 0.530228316783905 0.6793572306632996
vt 0.5660520792007446 0.718244194984436
vt 0.6015537977218628 0.6792362332344055
vt 0.6006191968917847 0.7334487438201904
vt 0.5674824118614197 0.6800265908241272
vt 0.5660536289215088 0.7182443141937256
vt 0.5301849842071533 0.6792717576026917
vt 0.5314894914627075 0.7102243304252625
vt 0.5675331354141235 0.6800310015678406
vt 0.5660322904586792 0.718230128288269
vt 0.7478652000427246 0.7234545350074768
vt 0.6290359497070312 0.7030996680259705
vt 0.6289837956428528 0.7279679775238037
vt 0.6291348934173584 0.6537687182426453
vt 0.7475560903549194 0.5020667910575867
vt 0.6293615102767944 0.5021206140518188
vt 0.7147554755210876 0.7472562193870544
vt 0.7473798990249634 0.7383307218551636
vt 0.7016304731369019 0.7363764047622681
vt 0.7147886753082275 0.7472591996192932
vt 0.7016314268112183 0.736341655254364
vt 0.6290677785873413 0.7278140783309937
vt 0.6291415691375732 0.703065812587738
vt 0.6291228532791138 0.6537846922874451
vt 0.6295144557952881 0.5021206140518188
vt 0.5916296243667603 0.7251485586166382
vt 0.6225236654281616 0.7310971617698669
vt 0.6224181652069092 0.7010377645492554
vt 0.5008076429367065 0.7084218859672546
vt 0.5609972476959229 0.7376439571380615
vt 0.5122489929199219 0.7278393507003784
vt 0.5916168689727783 0.72495436668396
vt 0.6224923133850098 0.7010603547096252
vt 0.6223177313804626 0.7313379049301147
vt 0.5608772039413452 0.7376483678817749
vt 0.5120989084243774 0.7275665998458862
vt 0.6224852204322815 0.6658949851989746
vt 0.5508284568786621 0.5021597146987915
vt 0.622255802154541 0.5022746324539185
vt 0.5013471841812134 0.5020191669464111
vt 0.6224925518035889 0.6659650802612305
vt 0.5508058667182922 0.5021592974662781
vt 0.6222559213638306 0.5022743940353394
vt 0.8733852505683899 0.12659484148025513
g Geoset0
s 1
usemtl mat_clothstuff
f 1/1/1 2/2/2 3/3/3
f 4/4/4 5/5/5 6/6/6
f 7/7/7 6/6/6 5/5/5
f 7/7/7 8/8/8 6/6/6
f 9/9/9 8/8/8 7/7/7
f 10/10/10 8/8/8 9/9/9
f 10/10/10 9/9/9 11/11/11
f 11/11/11 4/4/4 10/10/10
f 5/5/5 4/4/4 11/11/11
f 12/12/12 13/13/13 14/14/14
f 15/15/15 14/14/14 13/13/13
f 15/15/15 16/16/16 14/14/14
f 16/16/16 15/15/15 17/17/17
f 16/16/16 17/17/17 18/18/18
f 18/18/18 17/17/17 19/19/19
f 18/18/18 19/19/19 12/12/12
f 19/19/19 13/13/13 12/12/12
f 20/20/20 21/21/21 22/22/22
f 21/21/21 20/20/20 23/23/23
f 24/24/24 23/23/23 20/20/20
f 24/24/24 25/25/25 23/23/23
f 26/26/26 27/27/27 28/28/28
f 20/20/20 22/22/22 28/28/28
f 20/20/20 28/28/28 27/27/27
f 27/27/27 29/29/29 20/20/20
f 20/20/20 30/30/30 31/31/31
f 30/30/30 20/20/20 29/29/29
f 32/32/32 20/20/20 31/31/31
f 33/33/33 20/20/20 32/32/32
f 24/24/24 20/20/20 33/33/33
f 34/34/34 24/24/24 33/33/33
f 35/35/35 36/36/36 37/37/37
f 35/35/35 37/37/37 38/38/38
f 35/35/35 38/38/38 39/39/39
f 40/40/40 39/39/39 38/38/38
f 41/41/41 42/42/42 43/43/43
f 38/38/38 42/42/42 41/41/41
f 38/38/38 41/41/41 44/44/44
f 44/44/44 45/45/45 38/38/38
f 46/46/46 47/47/47 48/48/48
f 49/49/49 47/47/47 46/46/46
f 38/38/38 37/37/37 50/50/50
f 42/42/42 38/38/38 46/46/46
f 38/38/38 49/49/49 46/46/46
f 49/49/49 38/38/38 50/50/50
f 49/49/49 50/50/50 51/51/51
f 50/50/50 52/52/52 51/51/51
f 3/3/3 2/2/2 53/53/53
