# Exported using wow.export v0.1.65
o gunshoptarget01
mtllib gunshoptarget01.mtl
v 0.0971112921833992 1.5441497564315796 0.48355674743652344
v 0.0045986962504684925 1.3750208616256714 0.48355674743652344
v 0.0045986962504684925 1.5441499948501587 0.32586610317230225
v 0.0045986962504684925 1.5441498756408691 -0.3245212137699127
v 0.0045986962504684925 1.3359516859054565 -0.48388925194740295
v 0.09634504467248917 1.5441497564315796 -0.48388925194740295
v 0.0045986962504684925 0.011454092338681221 0.27990248799324036
v 0.0045986962504684925 0.1707693487405777 -0.48388925194740295
v 0.0045986962504684925 0.011454092338681221 -0.3314158618450165
v 0.11157192289829254 0.011454092338681221 -0.48388925194740295
v 0.0045986962504684925 0.2305222600698471 0.48355674743652344
v 0.10320600867271423 0.011454092338681221 0.48355674743652344
vn 0.7800636887550354 -0.4266907870769501 -0.4576413333415985
vn 0.9434149861335754 -0.22614163160324097 -0.24254509806632996
vn 0.9755957722663879 -0.14973677694797516 -0.16059812903404236
vn 0.9883378744125366 -0.09255828708410263 0.12091796100139618
vn 0.9788672924041748 -0.1242990791797638 0.1623840630054474
vn 0.8096153140068054 -0.35677221417427063 0.4660864770412445
vn 0.9935558438301086 0.07717251777648926 -0.08301346749067307
vn 0.968671977519989 0.1717107594013214 0.17941589653491974
vn 0.9266578555107117 0.2599101960659027 0.2715730667114258
vn 0.7173895239830017 0.48169562220573425 0.5033106207847595
vn 0.9898139238357544 0.09693355113267899 -0.10427013784646988
vn 0.8341884613037109 0.37548622488975525 -0.40390557050704956
vt 0 1
vt 0 0.972546398639679
vt 0.03041377291083336 1
vt 0.1558539718389511 1
vt 0.1865912824869156 0.9662045836448669
vt 0.1865912824869156 1
vt 0.0392787866294384 0.751207709312439
vt 0.1865912824869156 0.7770682573318481
vt 0.15718373656272888 0.751207709312439
vt 0.1865912824869156 0.751207709312439
vt 0 0.7867676019668579
vt 0 0.751207709312439
g Geoset0
s 1
usemtl mat_gunshop
f 1/1/1 2/2/2 3/3/3
f 4/4/4 5/5/5 6/6/6
f 7/7/7 5/5/5 4/4/4
f 7/7/7 8/8/8 5/5/5
f 9/9/9 8/8/8 7/7/7
f 10/10/10 8/8/8 9/9/9
f 3/3/3 11/11/11 4/4/4
f 4/4/4 11/11/11 7/7/7
f 11/11/11 12/12/12 7/7/7
f 2/2/2 11/11/11 3/3/3
