# Exported using wow.export v0.1.65
o gunshoptarget03
mtllib gunshoptarget03.mtl
v 0.10830845683813095 1.5378806591033936 0.4857645034790039
v 0.004598695784807205 1.368751883506775 0.4857645034790039
v 0.004598695784807205 1.537880778312683 0.3280738592147827
v 0.004598695784807205 1.537880778312683 -0.32231345772743225
v 0.004598695784807205 1.32968270778656 -0.4816814959049225
v 0.10754219442605972 1.5378806591033936 -0.4816814661026001
v 0.004598695784807205 0.005185060668736696 0.2821102440357208
v 0.004598695784807205 0.16450031101703644 -0.4816814959049225
v 0.004598695784807205 0.005185060668736696 -0.329208105802536
v 0.1227690801024437 0.005185060668736696 -0.4816814661026001
v 0.004598695784807205 0.22425323724746704 0.4857645034790039
v 0.11440316587686539 0.005185060668736696 0.4857645034790039
vn 0.7435908913612366 -0.4559697210788727 -0.4890441298484802
vn 0.9336998462677002 -0.24417363107204437 -0.2618850767612457
vn 0.9715638160705566 -0.16146858036518097 -0.1731809377670288
vn 0.9863195419311523 -0.10019753873348236 0.1308978646993637
vn 0.9751181602478027 -0.13474717736244202 0.17603345215320587
vn 0.77574622631073 -0.3835678696632385 0.5010923147201538
vn 0.9924753308296204 0.08336900919675827 -0.08967894315719604
vn 0.9647579193115234 0.18194055557250977 0.19010470807552338
vn 0.9170227646827698 0.2757638692855835 0.28813812136650085
vn 0.681861400604248 0.5057634711265564 0.5284584164619446
vn 0.988080620765686 0.1048114076256752 -0.11274423450231552
vn 0.8053155541419983 0.40365174412727356 -0.4342028796672821
vt 0.6256038546562195 1
vt 0.6256038546562195 0.972546398639679
vt 0.6560176014900208 1
vt 0.7814578413963318 1
vt 0.8121951222419739 0.9662045836448669
vt 0.8121951222419739 1
vt 0.6648826003074646 0.751207709312439
vt 0.8121951222419739 0.7770682573318481
vt 0.782787561416626 0.751207709312439
vt 0.8121951222419739 0.751207709312439
vt 0.6256038546562195 0.7867676019668579
vt 0.6256038546562195 0.751207709312439
g Geoset0
s 1
usemtl mat_gunshop
f 1/1/1 2/2/2 3/3/3
f 4/4/4 5/5/5 6/6/6
f 7/7/7 5/5/5 4/4/4
f 7/7/7 8/8/8 5/5/5
f 9/9/9 8/8/8 7/7/7
f 10/10/10 8/8/8 9/9/9
f 3/3/3 11/11/11 4/4/4
f 4/4/4 11/11/11 7/7/7
f 11/11/11 12/12/12 7/7/7
f 2/2/2 11/11/11 3/3/3
