# Exported using wow.export v0.1.65
o gunshoptarget04
mtllib gunshoptarget04.mtl
v 0.10830845683813095 1.5378806591033936 0.4824022352695465
v 0.004598695784807205 1.368751883506775 0.4824022650718689
v 0.004598695784807205 1.537880778312683 0.3247116208076477
v 0.004598695784807205 1.537880778312683 -0.32567569613456726
v 0.004598695784807205 1.32968270778656 -0.4850437343120575
v 0.10754219442605972 1.5378806591033936 -0.4850437343120575
v 0.004598695784807205 0.005185060668736696 0.2787480056285858
v 0.004598695784807205 0.16450031101703644 -0.4850437343120575
v 0.004598695784807205 0.005185060668736696 -0.332570344209671
v 0.1227690801024437 0.005185060668736696 -0.4850437343120575
v 0.004598695784807205 0.22425323724746704 0.4824022650718689
v 0.11440316587686539 0.005185060668736696 0.4824022352695465
vn 0.7435908317565918 -0.45596981048583984 -0.489044189453125
vn 0.9336998462677002 -0.24417366087436676 -0.2618851065635681
vn 0.9715638160705566 -0.16146861016750336 -0.1731809377670288
vn 0.9863195419311523 -0.10019752383232117 0.13089783489704132
vn 0.9751181602478027 -0.13474716246128082 0.17603342235088348
vn 0.7757462859153748 -0.38356781005859375 0.5010921955108643
vn 0.9924753308296204 0.08336902409791946 -0.08967895805835724
vn 0.9647579193115234 0.18194054067134857 0.19010469317436218
vn 0.9170227646827698 0.2757638096809387 0.28813809156417847
vn 0.6818615198135376 0.5057634115219116 0.5284583568572998
vn 0.988080620765686 0.1048114225268364 -0.11274424940347672
vn 0.8053154945373535 0.4036518335342407 -0.4342029094696045
vt 0.8115941882133484 1
vt 0.8115941882133484 0.972546398639679
vt 0.8420079350471497 1
vt 0.9674481749534607 1
vt 0.9981854557991028 0.9662045836448669
vt 0.9981854557991028 1
vt 0.8508729934692383 0.751207709312439
vt 0.9981854557991028 0.7770682573318481
vt 0.9687778949737549 0.751207709312439
vt 0.9981854557991028 0.751207709312439
vt 0.8115941882133484 0.7867676019668579
vt 0.8115941882133484 0.751207709312439
g Geoset0
s 1
usemtl mat_gunshop
f 1/1/1 2/2/2 3/3/3
f 4/4/4 5/5/5 6/6/6
f 7/7/7 5/5/5 4/4/4
f 7/7/7 8/8/8 5/5/5
f 9/9/9 8/8/8 7/7/7
f 10/10/10 8/8/8 9/9/9
f 3/3/3 11/11/11 4/4/4
f 4/4/4 11/11/11 7/7/7
f 11/11/11 12/12/12 7/7/7
f 2/2/2 11/11/11 3/3/3
