# Exported using wow.export v0.1.65
o bone_bow
mtllib bone_bow.mtl
v 0.007331675384193659 0.006535141263157129 -0.24420206248760223
v 0.004331248812377453 0.7172698378562927 -0.2677716612815857
v 0.007331675384193659 0.006535141263157129 -0.3168785572052002
v 2.12444706271242e-9 -0.03425400331616402 -0.29392504692077637
v -9.125907252105492e-10 -0.0027009223122149706 -0.3548622727394104
v 0.03431086242198944 -0.01847749575972557 -0.324393630027771
v 5.383559820160144e-9 0.2734854519367218 0.09902255237102509
v -0.06862173229455948 0.294975221157074 0.03385253623127937
v 0.06862172484397888 0.294975221157074 0.03385253623127937
v -9.125907252105492e-10 -0.0027009223122149706 -0.3548622727394104
v -4.711627754616643e-10 0.3164650499820709 -0.03131745755672455
v -0.03431086614727974 -0.01847752369940281 -0.324393630027771
v 0.08797657489776611 0.6166784763336182 0.1852310597896576
v 2.515044617013018e-9 1.962943434715271 -0.28064480423927307
v 0.03431086614727974 1.947166919708252 -0.3111133873462677
v -2.691291911549598e-10 1.931390404701233 -0.3415820002555847
v 5.676846548396952e-9 1.655203938484192 0.09902255237102509
v 0.06862173229455948 1.6337143182754517 0.03385253623127937
v 7.47125028510709e-9 1.3287534713745117 0.2720942795276642
v 7.448095917794717e-9 0.5999359488487244 0.2720942795276642
v 8.776681603706038e-9 0.9643446803092957 0.3548622727394104
v -0.09803103655576706 0.9643446803092957 0.25683116912841797
v -0.08797657489776611 1.3120108842849731 0.18523108959197998
v -0.06862172484397888 1.6337143182754517 0.03385253623127937
v -0.03431086614727974 1.947166919708252 -0.3111133873462677
v -2.691291911549598e-10 1.931390404701233 -0.3415820002555847
v -0.08797657489776611 0.6166785359382629 0.18523108959197998
v 1.8377453725459958e-10 0.9643446803092957 0.1588001400232315
v -3.944119475463026e-10 1.2952684164047241 0.09836786240339279
v -4.1196868139081744e-10 1.6122243404388428 -0.03131745755672455
v -2.691291911549598e-10 1.931390404701233 -0.3415820002555847
v -4.5171169582580717e-10 0.6334209442138672 0.09836786240339279
v 0.09803102910518646 0.9643446803092957 0.25683116912841797
v 0.08797657489776611 1.3120108842849731 0.1852310597896576
v -9.125907252105492e-10 -0.0027009223122149706 -0.3548622727394104
v 0.0011580854188650846 1.92454993724823 -0.3168785572052002
v 0.004285679664462805 1.2166532278060913 -0.29330894351005554
v 0.0011580854188650846 1.92454993724823 -0.24420206248760223
v 0.004291974473744631 1.2155654430389404 -0.2677716612815857
v 0.004316388163715601 0.7199771404266357 -0.29330894351005554
vn -0.7013763189315796 0.7127912044525146 0
vn -0.700586199760437 0.7135677933692932 0.000014111083146417513
vn -0.7013780474662781 0.7127894759178162 0.000003962934897572268
vn 0.017112474888563156 -0.9998093247413635 -0.009403304196894169
vn 0.31281083822250366 -0.9473751783370972 -0.06804127246141434
vn 0.4081735610961914 -0.9127970933914185 -0.013991993851959705
vn -0.028051285073161125 -0.9951997995376587 0.09375745058059692
vn -0.7930872440338135 0.6090964674949646 0.0037575154565274715
vn 0.7378053665161133 -0.6749857664108276 -0.006121780723333359
vn 0.31281083822250366 -0.9473751783370972 -0.06804127246141434
vn 0.029006212949752808 0.9925298690795898 -0.1185036450624466
vn -0.9161136746406555 -0.39405760169029236 -0.07385358959436417
vn 0.708094596862793 -0.7061091065406799 -0.0034602417144924402
vn -0.17409677803516388 0.9846777319908142 -0.01000167801976204
vn 0.6340406537055969 0.7731636166572571 -0.014508474618196487
vn -0.05975409597158432 0.9941542148590088 -0.08992673456668854
vn 0.0251995287835598 0.9954644441604614 0.09173599630594254
vn 0.7385578155517578 -0.6741441488265991 0.007876916788518429
vn 0.02800418622791767 0.9780767560005188 0.20635323226451874
vn -0.029537251219153404 -0.9770840406417847 0.2107945829629898
vn 0.6932836771011353 -0.6991983652114868 0.17458347976207733
vn -0.7033727169036865 0.7105597257614136 0.01927868276834488
vn -0.6805981993675232 0.7326397895812988 -0.005006773397326469
vn -0.6887667775154114 0.7249190807342529 -0.009621809236705303
vn -0.5034719705581665 0.8632913827896118 -0.03526932746171951
vn -0.05975409597158432 0.9941542148590088 -0.08992673456668854
vn -0.7403300404548645 0.672237753868103 0.002796167740598321
vn -0.6914766430854797 0.701013445854187 -0.17447113990783691
vn -0.028231801465153694 -0.9643371105194092 -0.26316696405410767
vn -0.026508457958698273 -0.9927325248718262 -0.11738602072000504
vn -0.05975409597158432 0.9941542148590088 -0.08992673456668854
vn 0.02928217314183712 0.9631710648536682 -0.26729029417037964
vn 0.7029058933258057 -0.7110171914100647 -0.01943913847208023
vn 0.7099263072013855 -0.7042628526687622 0.004298413172364235
vn 0.31281083822250366 -0.9473751783370972 -0.06804127246141434
vn -0.701451301574707 0.7127173542976379 0
vn -0.7006232142448425 0.7135314345359802 0.000012995146789762657
vn -0.7014520764350891 0.7127165794372559 0.0000017275910977332387
vn -0.7006251811981201 0.7135294675827026 0.000008933450772019569
vn -0.7005854845046997 0.7135685086250305 0.000021014755475334823
vt 0.5060386657714844 0.009999990463256836
vt 0.5060386657714844 0.9900000095367432
vt 0.6143478155136108 0.009999990463256836
vt 0.9900000095367432 0.9900000095367432
vt 0.8291878700256348 0.5318043828010559
vt 0.8417033553123474 0.9900000095367432
vt 0.9900000095367432 0.009999990463256836
vt 0.8580784797668457 0.009999990463256836
vt 0.8058937788009644 0.009999990463256836
vt 0.6299999952316284 0.9900000095367432
vt 0.6299999952316284 0.009999990463256836
vt 0.8540594577789307 0.9900000095367432
vt 0.8417033553123474 0.9900000095367432
vt 0.9900000095367432 0.9900000095367432
vt 0.8417033553123474 0.9900000095367432
vt 0.8291878700256348 0.5318043828010559
vt 0.9900000095367432 0.009999990463256836
vt 0.8058937788009644 0.009999990463256836
vt 0.9900000095367432 0.9900000095367432
vt 0.9900000095367432 0.9900000095367432
vt 0.9900000095367432 0.009999990463256836
vt 0.8580784797668457 0.009999990463256836
vt 0.8540594577789307 0.9900000095367432
vt 0.8580784797668457 0.009999990463256836
vt 0.8540594577789307 0.9900000095367432
vt 0.8523955941200256 0.5318043828010559
vt 0.8540594577789307 0.9900000095367432
vt 0.6299999952316284 0.009999990463256836
vt 0.6299999952316284 0.9900000095367432
vt 0.6299999952316284 0.009999990463256836
vt 0.6299999952316284 0.9900000095367432
vt 0.6299999952316284 0.9900000095367432
vt 0.8058937788009644 0.009999990463256836
vt 0.8417033553123474 0.9900000095367432
vt 0.8523955941200256 0.5318043828010559
vt 0.6143478155136108 0.9900000095367432
vt 0.6143478155136108 0.009999990463256836
vt 0.5060386657714844 0.9900000095367432
vt 0.5060386657714844 0.009999990463256836
vt 0.6143478155136108 0.9900000095367432
g Geoset0
s 1
usemtl mat_primbows
f 1/1/1 2/2/2 3/3/3
f 4/4/4 5/5/5 6/6/6
f 7/7/7 4/4/4 6/6/6
f 8/8/8 4/4/4 7/7/7
f 9/9/9 6/6/6 10/10/10
f 7/7/7 6/6/6 9/9/9
f 11/11/11 10/10/10 12/12/12
f 9/9/9 10/10/10 11/11/11
f 13/13/13 9/9/9 11/11/11
f 14/14/14 15/15/15 16/16/16
f 17/17/17 15/15/15 14/14/14
f 17/17/17 18/18/18 15/15/15
f 19/19/19 18/18/18 17/17/17
f 20/20/20 9/9/9 13/13/13
f 21/21/21 20/20/20 13/13/13
f 22/22/22 20/20/20 21/21/21
f 22/22/22 21/21/21 19/19/19
f 22/22/22 19/19/19 23/23/23
f 23/23/23 19/19/19 17/17/17
f 23/23/23 17/17/17 24/24/24
f 24/24/24 17/17/17 14/14/14
f 24/24/24 14/14/14 25/25/25
f 25/25/25 14/14/14 26/26/26
f 20/20/20 7/7/7 9/9/9
f 27/27/27 7/7/7 20/20/20
f 22/22/22 27/27/27 20/20/20
f 28/28/28 27/27/27 22/22/22
f 28/28/28 22/22/22 23/23/23
f 28/28/28 23/23/23 29/29/29
f 29/29/29 23/23/23 24/24/24
f 29/29/29 24/24/24 30/30/30
f 30/30/30 24/24/24 25/25/25
f 30/30/30 25/25/25 31/31/31
f 27/27/27 8/8/8 7/7/7
f 32/32/32 8/8/8 27/27/27
f 28/28/28 32/32/32 27/27/27
f 33/33/33 32/32/32 28/28/28
f 33/33/33 28/28/28 29/29/29
f 33/33/33 29/29/29 34/34/34
f 34/34/34 29/29/29 30/30/30
f 34/34/34 30/30/30 18/18/18
f 18/18/18 30/30/30 31/31/31
f 18/18/18 31/31/31 15/15/15
f 19/19/19 34/34/34 18/18/18
f 21/21/21 34/34/34 19/19/19
f 21/21/21 33/33/33 34/34/34
f 21/21/21 13/13/13 33/33/33
f 33/33/33 13/13/13 32/32/32
f 13/13/13 11/11/11 32/32/32
f 32/32/32 11/11/11 8/8/8
f 11/11/11 12/12/12 8/8/8
f 8/8/8 12/12/12 4/4/4
f 12/12/12 35/35/35 4/4/4
f 36/36/36 37/37/37 38/38/38
f 39/39/39 38/38/38 37/37/37
f 2/2/2 37/37/37 40/40/40
f 2/2/2 39/39/39 37/37/37
f 40/40/40 3/3/3 2/2/2
