# Exported using wow.export v0.1.65
o wicker_bow
mtllib wicker_bow.mtl
v 0.007331728003919125 0.0030069700442254543 -0.3474287688732147
v 0.004331302363425493 0.7253741025924683 -0.370998352766037
v 0.007331728003919125 0.0030069700442254543 -0.4201052486896515
v -0.03431086614727974 1.9436389207839966 -0.41434016823768616
v 2.9995512740299546e-9 1.9594154357910156 -0.38387155532836914
v 0 1.9278624057769775 -0.44480881094932556
v -0.06862173229455948 1.6301862001419067 -0.06937423348426819
v 5.999102548059909e-9 1.651676058769226 -0.004204231314361095
v 0.03431086614727974 1.9436389207839966 -0.41434016823768616
v 0 1.9278624057769775 -0.44480881094932556
v 0.06862173229455948 1.6301862001419067 -0.06937424093484879
v 7.92506060776077e-9 1.325225591659546 0.16886751353740692
v 0 1.9278624057769775 -0.44480881094932556
v 0 1.608696460723877 -0.1345442235469818
v 0.08797657489776611 1.3084830045700073 0.08200428634881973
v 9.490035424164489e-9 0.9608166813850403 0.25163546204566956
v 0.09803104400634766 0.9608166813850403 0.1536044031381607
v 0.08797657489776611 0.6131504774093628 0.08200428634881973
v 2.339032856291112e-10 0.6298930048942566 -0.004858913365751505
v 0 0.31293708086013794 -0.1345442235469818
v -0.06862173229455948 0.2914472222328186 -0.06937423348426819
v -0.03431086614727974 -0.022005537524819374 -0.42762038111686707
v 2.9995512740299546e-9 -0.03778203949332237 -0.3971518278121948
v 0 -0.006228933576494455 -0.45808902382850647
v 2.339032856291112e-10 1.2917404174804688 -0.004858913365751505
v 9.198885542183177e-10 0.9608166813850403 0.05557335913181305
v -0.08797657489776611 0.6131504774093628 0.08200430124998093
v 5.999102548059909e-9 0.26995745301246643 -0.004204231314361095
v 0.03431086614727974 -0.022005537524819374 -0.42762038111686707
v 0 -0.006228933576494455 -0.45808902382850647
v 0.06862173229455948 0.2914472222328186 -0.06937424093484879
v 0 -0.006228933576494455 -0.45808902382850647
v 7.92506060776077e-9 0.596407949924469 0.16886751353740692
v -0.09803104400634766 0.9608166813850403 0.1536044031381607
v -0.08797657489776611 1.3084830045700073 0.08200430124998093
v 0.0011581379221752286 1.9210220575332642 -0.4201052486896515
v 0.004285732284188271 1.2015303373336792 -0.39653563499450684
v 0.0011581379221752286 1.9210220575332642 -0.3474287688732147
v 0.004316440783441067 0.7279555201530457 -0.39653563499450684
v 0.004292027093470097 1.200493335723877 -0.3709983825683594
vn -0.9999913573265076 -0.004153566434979439 0
vn -0.9999977350234985 -0.0021164005156606436 0.0002448763116262853
vn -0.9999913573265076 -0.004159037955105305 0.00008048820745898411
vn -0.8715041279792786 0.19188258051872253 -0.4512888193130493
vn -0.1776963174343109 0.9748675227165222 0.13437750935554504
vn 0.2581831216812134 0.09865167737007141 -0.9610459208488464
vn -0.9914705157279968 0.11113960295915604 -0.06807511299848557
vn -0.004255265928804874 0.6412609219551086 0.7673110961914062
vn 0.7899223566055298 0.6130258440971375 -0.014899805188179016
vn 0.2581831216812134 0.09865167737007141 -0.9610459208488464
vn 0.9999634027481079 -0.002569527132436633 0.008158423937857151
vn 0.0008133980445563793 0.3507797122001648 0.936457633972168
vn 0.2581831216812134 0.09865167737007141 -0.9610459208488464
vn 0.0023122241254895926 -0.5498591661453247 -0.8352541923522949
vn 0.9999960064888 0.0005989474011585116 0.0027571034152060747
vn 0.3218400180339813 3.3856557557498945e-9 0.9467940330505371
vn 0.9492766857147217 0 -0.314441978931427
vn 0.9999960064888 -0.0005989474011585116 0.0027571034152060747
vn -0.0012164193904027343 0.27956423163414 -0.9601262211799622
vn 0.002853055251762271 0.5590769648551941 -0.829110860824585
vn -0.9911091327667236 -0.11308836191892624 -0.07009774446487427
vn -0.8732815980911255 -0.18619932234287262 -0.45023223757743835
vn -0.1752874106168747 -0.9763211607933044 0.1267728954553604
vn 0.25972864031791687 -0.08494583517313004 -0.9619382619857788
vn -0.0012164193904027343 -0.27956423163414 -0.9601262211799622
vn -0.3204968273639679 0 -0.9472495913505554
vn -0.9968662858009338 -0.07519866526126862 -0.024551650509238243
vn -0.004904741421341896 -0.6481946110725403 0.7614589333534241
vn 0.7869493961334229 -0.6167623400688171 -0.017745105549693108
vn 0.25972864031791687 -0.08494583517313004 -0.9619382619857788
vn 0.9999255537986755 0.006237547378987074 0.010486348532140255
vn 0.25972864031791687 -0.08494583517313004 -0.9619382619857788
vn 0.0008133980445563793 -0.3507797122001648 0.936457633972168
vn -0.9513146281242371 0 0.3082214295864105
vn -0.9968662858009338 0.07519866526126862 -0.024551650509238243
vn -0.9999905228614807 -0.004346909467130899 0
vn -0.9999975562095642 -0.002211527433246374 0.00022207407164387405
vn -0.9999905228614807 -0.004349290393292904 0.00003488377114990726
vn -0.9999976754188538 -0.0021146812941879034 0.0003681846137624234
vn -0.9999975562095642 -0.002217172645032406 0.00015645186067558825
vt 0.5060386657714844 0.009999990463256836
vt 0.5060386657714844 0.9900000095367432
vt 0.6143478155136108 0.009999990463256836
vt 0.2373122274875641 0.9900000095367432
vt 0.009999999776482582 0.9900000095367432
vt 0.23210851848125458 0.5233325362205505
vt 0.2556353211402893 0.009999990463256836
vt 0.009999999776482582 0.009999990463256836
vt 0.2373122274875641 0.9900000095367432
vt 0.2588609457015991 0.5233325362205505
vt 0.2556353211402893 0.009999990463256836
vt 0.009999999776482582 0.9900000095367432
vt 0.49000000953674316 0.9900000095367432
vt 0.49000000953674316 0.009999990463256836
vt 0.2373122274875641 0.9900000095367432
vt 0.009999999776482582 0.009999990463256836
vt 0.2556353211402893 0.009999990463256836
vt 0.2373122274875641 0.9900000095367432
vt 0.49000000953674316 0.9900000095367432
vt 0.49000000953674316 0.009999990463256836
vt 0.2556353211402893 0.009999990463256836
vt 0.2373122274875641 0.9900000095367432
vt 0.009999999776482582 0.9900000095367432
vt 0.23210851848125458 0.5233325362205505
vt 0.49000000953674316 0.9900000095367432
vt 0.49000000953674316 0.009999990463256836
vt 0.2373122274875641 0.9900000095367432
vt 0.009999999776482582 0.009999990463256836
vt 0.2373122274875641 0.9900000095367432
vt 0.2588609457015991 0.5233325362205505
vt 0.2556353211402893 0.009999990463256836
vt 0.49000000953674316 0.9900000095367432
vt 0.009999999776482582 0.9900000095367432
vt 0.2556353211402893 0.009999990463256836
vt 0.2373122274875641 0.9900000095367432
vt 0.6143478155136108 0.9900000095367432
vt 0.6143478155136108 0.009999990463256836
vt 0.5060386657714844 0.9900000095367432
vt 0.6143478155136108 0.9900000095367432
vt 0.5060386657714844 0.009999990463256836
g Geoset0
s 1
usemtl mat_primbows
f 1/1/1 2/2/2 3/3/3
f 4/4/4 5/5/5 6/6/6
f 7/7/7 5/5/5 4/4/4
f 7/7/7 8/8/8 5/5/5
f 5/5/5 9/9/9 10/10/10
f 8/8/8 9/9/9 5/5/5
f 8/8/8 11/11/11 9/9/9
f 12/12/12 11/11/11 8/8/8
f 11/11/11 13/13/13 9/9/9
f 11/11/11 14/14/14 13/13/13
f 15/15/15 14/14/14 11/11/11
f 12/12/12 15/15/15 11/11/11
f 16/16/16 15/15/15 12/12/12
f 16/16/16 17/17/17 15/15/15
f 16/16/16 18/18/18 17/17/17
f 17/17/17 18/18/18 19/19/19
f 18/18/18 20/20/20 19/19/19
f 19/19/19 20/20/20 21/21/21
f 20/20/20 22/22/22 21/21/21
f 21/21/21 22/22/22 23/23/23
f 22/22/22 24/24/24 23/23/23
f 15/15/15 25/25/25 14/14/14
f 17/17/17 25/25/25 15/15/15
f 17/17/17 26/26/26 25/25/25
f 17/17/17 19/19/19 26/26/26
f 26/26/26 19/19/19 27/27/27
f 19/19/19 21/21/21 27/27/27
f 27/27/27 21/21/21 28/28/28
f 21/21/21 23/23/23 28/28/28
f 28/28/28 23/23/23 29/29/29
f 23/23/23 30/30/30 29/29/29
f 31/31/31 29/29/29 32/32/32
f 28/28/28 29/29/29 31/31/31
f 33/33/33 28/28/28 31/31/31
f 27/27/27 28/28/28 33/33/33
f 34/34/34 27/27/27 33/33/33
f 26/26/26 27/27/27 34/34/34
f 26/26/26 34/34/34 35/35/35
f 26/26/26 35/35/35 25/25/25
f 25/25/25 35/35/35 7/7/7
f 25/25/25 7/7/7 14/14/14
f 14/14/14 7/7/7 4/4/4
f 14/14/14 4/4/4 13/13/13
f 35/35/35 8/8/8 7/7/7
f 35/35/35 12/12/12 8/8/8
f 34/34/34 12/12/12 35/35/35
f 34/34/34 16/16/16 12/12/12
f 34/34/34 33/33/33 16/16/16
f 16/16/16 33/33/33 18/18/18
f 33/33/33 31/31/31 18/18/18
f 18/18/18 31/31/31 20/20/20
f 31/31/31 32/32/32 20/20/20
f 20/20/20 32/32/32 22/22/22
f 36/36/36 37/37/37 38/38/38
f 39/39/39 3/3/3 2/2/2
f 2/2/2 37/37/37 39/39/39
f 2/2/2 40/40/40 37/37/37
f 40/40/40 38/38/38 37/37/37
