# Exported using wow.export v0.1.65
o woodclub01
mtllib woodclub01.mtl
v -1.1255782972341422e-8 -0.02283136360347271 0.07157459110021591
v -0.0715746060013771 -0.02283136360347271 3.5517584429101134e-9
v -1.7513032801730333e-8 -0.02283136360347271 -0.07157459110021591
v 3.875502141426068e-9 0.6319445371627808 -0.2467213273048401
v -0.11938343942165375 0.5125611424446106 -0.18611262738704681
v -0.1688336879014969 0.6319445371627808 -0.18611262738704681
v -0.11938346922397614 0.7513280510902405 -0.186112642288208
v -1.2268704281670484e-11 0.8007782101631165 -0.186112642288208
v 0.11938345432281494 0.7513280510902405 -0.186112642288208
v 0.16883371770381927 0.6319445371627808 -0.186112642288208
v 4.191118208041189e-8 0.46311086416244507 -0.18611262738704681
v 0.11938348412513733 0.5125611424446106 -0.186112642288208
v 9.866497840960164e-9 0.6319445967674255 0.2467212677001953
v 0.11938345432281494 0.7513280510902405 0.18611259758472443
v -9.094888397953582e-9 0.8007782697677612 0.18611261248588562
v 0.16883371770381927 0.6319445967674255 0.18611261248588562
v 0.11938348412513733 0.5125611424446106 0.18611261248588562
v 3.2828566531861725e-8 0.46311086416244507 0.18611262738704681
v -0.11938343197107315 0.5125611424446106 0.18611262738704681
v -0.1688336879014969 0.6319445371627808 0.18611262738704681
v -0.11938345432281494 0.7513280510902405 0.18611261248588562
v 0.07079782336950302 0.5224418640136719 -8.14246003955077e-9
v -1.0175040365822952e-8 0.5224418640136719 -0.07079783827066422
v -1.0687376317264352e-8 0.5221039652824402 -0.049869105219841
v 0.04986909031867981 0.5221039652824402 -6.539543573325091e-9
v -4.8551118680961736e-9 0.5224418640136719 0.07079783827066422
v -6.327680601714292e-9 0.5221039652824402 0.049869105219841
v -0.07079784572124481 0.5224418640136719 2.6791764362599224e-9
v -0.0498691163957119 0.5221039652824402 2.17984785777503e-9
v 0.041284795850515366 0.43703073263168335 -5.571117345226639e-9
v -7.4711605790867e-9 0.43703073263168335 0.04128480702638626
v -1.1255782972341422e-8 -0.02283136360347271 0.07157459110021591
v 0.07157456874847412 -0.02283136360347271 -8.962740771778499e-9
v -1.1080392603446398e-8 0.43703073263168335 -0.04128480702638626
v -1.7513032801730333e-8 -0.02283136360347271 -0.07157459110021591
v -0.041284821927547455 0.43703073263168335 1.6473474806488753e-9
v -0.0715746060013771 -0.02283136360347271 3.5517584429101134e-9
v 0.07217142730951309 0.4373686909675598 -8.218957070482702e-9
v 0.07079782336950302 0.5224418640136719 -8.14246003955077e-9
v -4.8551118680961736e-9 0.5224418640136719 0.07079783827066422
v -1.2132834292799544e-8 0.4373686909675598 -0.07217143476009369
v -1.0175040365822952e-8 0.5224418640136719 -0.07079783827066422
v -0.07217144966125488 0.4373686909675598 3.732479658680177e-9
v -5.037152916997911e-9 0.4373686909675598 0.07217143476009369
v -0.07079784572124481 0.5224418640136719 2.6791764362599224e-9
v -0.041284821927547455 0.43703073263168335 1.6473474806488753e-9
v -7.4711605790867e-9 0.43703073263168335 0.04128480702638626
v 0.041284795850515366 0.43703073263168335 -5.571117345226639e-9
v -1.1080392603446398e-8 0.43703073263168335 -0.04128480702638626
v 0.04512108117341995 0.7947308421134949 -5.9169167343497975e-9
v -9.312988602516725e-9 0.7947308421134949 -0.04512109234929085
v -1.6357002863287562e-8 0.9000323414802551 0
v -5.36837729825379e-9 0.7947308421134949 0.04512109234929085
v -0.045121096074581146 0.7947308421134949 1.9723054300868625e-9
v -9.666482725378955e-9 0.7313358783721924 -0.04649081826210022
v 0.04649081453680992 0.7313358783721924 -6.096535276611803e-9
v -5.60212587430442e-9 0.7313358783721924 0.04649081826210022
v -0.046490829437971115 0.7313358783721924 2.0321784255372677e-9
v 1.247699610296138e-9 0.7717880010604858 -5.243039780111758e-8
v -0.11938345432281494 0.7513280510902405 0.18611261248588562
v -9.094888397953582e-9 0.8007782697677612 0.18611261248588562
v 0.0988842025399208 0.7308287620544434 -5.4871755139629386e-8
v 0.11938345432281494 0.7513280510902405 -0.186112642288208
v 0.16883371770381927 0.6319445371627808 -0.186112642288208
v 0.1398434042930603 0.6319445967674255 -5.243039780111758e-8
v 0.11938348412513733 0.5125611424446106 -0.186112642288208
v 0.09888423979282379 0.5330603718757629 -4.653643870256019e-8
v 4.191118208041189e-8 0.46311086416244507 -0.18611262738704681
v 0.11938345432281494 0.7513280510902405 0.18611259758472443
v 0.16883371770381927 0.6319445967674255 0.18611261248588562
v 0.11938348412513733 0.5125611424446106 0.18611261248588562
v 3.1568600178388806e-8 0.49210119247436523 -4.06424796040028e-8
v 3.2828566531861725e-8 0.46311086416244507 0.18611262738704681
v -0.0988842025399208 0.5330603718757629 -3.8201122265490994e-8
v -0.11938343197107315 0.5125611424446106 0.18611262738704681
v -0.1398433893918991 0.6319445967674255 -4.06424796040028e-8
v -0.1688336879014969 0.6319445371627808 0.18611262738704681
v -0.0988842025399208 0.7308287620544434 -4.653643870256019e-8
v -0.11938343942165375 0.5125611424446106 -0.18611262738704681
v -0.1688336879014969 0.6319445371627808 -0.18611262738704681
v -0.11938346922397614 0.7513280510902405 -0.186112642288208
v -1.2268704281670484e-11 0.8007782101631165 -0.186112642288208
v 0.07157456874847412 -0.02283136360347271 -8.962740771778499e-9
vn 0.24298356473445892 -0.6399922966957092 0.7289505004882812
vn -0.8852724432945251 -0.35946351289749146 0.295090913772583
vn -0.24298352003097534 -0.6399922966957092 -0.7289505004882812
vn -2.6976278988399827e-8 -1.220353311737199e-7 -1
vn -0.5763519406318665 -0.7202705144882202 -0.3860425651073456
vn -0.9168505072593689 -0.10176576673984528 -0.38604259490966797
vn -0.7202704548835754 0.5763519406318665 -0.38604268431663513
vn -0.10176572948694229 0.9168504476547241 -0.3860427439212799
vn 0.5763520002365112 0.7202703356742859 -0.38604283332824707
vn 0.9168504476547241 0.10176566988229752 -0.3860427141189575
vn 0.10176583379507065 -0.9168505072593689 -0.38604259490966797
vn 0.7202704548835754 -0.5763519406318665 -0.3860427141189575
vn 2.980232594040899e-8 1.135571991994766e-7 1
vn 0.7202704548835754 0.5763519406318665 0.38604265451431274
vn 0.10176577419042587 0.9168505072593689 0.38604265451431274
vn 0.9168504476547241 -0.10176558047533035 0.3860427141189575
vn 0.5763520002365112 -0.7202703356742859 0.3860428035259247
vn -0.10176566243171692 -0.9168503880500793 0.38604286313056946
vn -0.7202703356742859 -0.5763518810272217 0.38604289293289185
vn -0.9168503880500793 0.10176575183868408 0.38604283332824707
vn -0.5763519406318665 0.7202703952789307 0.38604268431663513
vn 0.554450511932373 0.811435341835022 -0.18481691181659698
vn -0.1848168820142746 0.8114354014396667 -0.5544504523277283
vn -0.005381295457482338 0.9998552203178406 0.016143888235092163
vn -0.016143888235092163 0.9998552203178406 -0.005381294526159763
vn 0.18481694161891937 0.8114354014396667 0.5544504523277283
vn 0.005381294060498476 0.9998552203178406 -0.016143888235092163
vn -0.5544504523277283 0.8114354014396667 0.18481691181659698
vn 0.016143888235092163 0.9998552203178406 0.005381294526159763
vn 0.5901774764060974 -0.7844198346138 0.190725177526474
vn -0.190725177526474 -0.7844198346138 0.5901774764060974
vn 0.24298356473445892 -0.6399922966957092 0.7289505004882812
vn 0.8852725028991699 -0.35946348309516907 -0.2950908839702606
vn 0.1907251924276352 -0.7844197750091553 -0.5901774764060974
vn -0.24298352003097534 -0.6399922966957092 -0.7289505004882812
vn -0.5901774764060974 -0.7844197750091553 -0.1907252073287964
vn -0.8852724432945251 -0.35946351289749146 0.295090913772583
vn 0.576736569404602 -0.7939878106117249 0.19224542379379272
vn 0.554450511932373 0.811435341835022 -0.18481691181659698
vn 0.18481694161891937 0.8114354014396667 0.5544504523277283
vn 0.1922454684972763 -0.7939878106117249 -0.5767365097999573
vn -0.1848168820142746 0.8114354014396667 -0.5544504523277283
vn -0.5767365097999573 -0.7939878106117249 -0.1922454982995987
vn -0.1922454535961151 -0.7939878106117249 0.5767365097999573
vn -0.5544504523277283 0.8114354014396667 0.18481691181659698
vn -0.5901774764060974 -0.7844197750091553 -0.1907252073287964
vn -0.190725177526474 -0.7844198346138 0.5901774764060974
vn 0.5901774764060974 -0.7844198346138 0.190725177526474
vn 0.1907251924276352 -0.7844197750091553 -0.5901774764060974
vn 0.9650043249130249 0.17380079627037048 0.1963668018579483
vn 0.1963668018579483 0.1738007813692093 -0.9650043249130249
vn -1.0277621953491689e-7 1 -5.1388109767458445e-8
vn -0.1963668316602707 0.1738007515668869 0.9650043249130249
vn -0.9650043249130249 0.1738007366657257 -0.19636684656143188
vn -0.3161614239215851 0.020493241026997566 -0.9484840631484985
vn 0.9484840631484985 0.020493270829319954 -0.3161614239215851
vn 0.3161614239215851 0.02049325592815876 0.9484840631484985
vn -0.9484840631484985 0.020493241026997566 0.3161614239215851
vn 4.3461689358537114e-8 1 -8.907205284458541e-8
vn -0.5763519406318665 0.7202703952789307 0.38604268431663513
vn 0.10176577419042587 0.9168505072593689 0.38604265451431274
vn 0.7071068286895752 0.7071067094802856 -1.0019838470043396e-7
vn 0.5763520002365112 0.7202703356742859 -0.38604283332824707
vn 0.9168504476547241 0.10176566988229752 -0.3860427141189575
vn 1 3.95171646516701e-8 -5.50727534687212e-8
vn 0.7202704548835754 -0.5763519406318665 -0.3860427141189575
vn 0.70710688829422 -0.7071067094802856 5.967658012195898e-8
vn 0.10176583379507065 -0.9168505072593689 -0.38604259490966797
vn 0.7202704548835754 0.5763519406318665 0.38604265451431274
vn 0.9168504476547241 -0.10176558047533035 0.3860427141189575
vn 0.5763520002365112 -0.7202703356742859 0.3860428035259247
vn 8.297886466834825e-8 -1 1.651156651405472e-7
vn -0.10176566243171692 -0.9168503880500793 0.38604286313056946
vn -0.7071067690849304 -0.7071067690849304 1.7081030989629653e-7
vn -0.7202703356742859 -0.5763518810272217 0.38604289293289185
vn -1 4.4776538032920143e-8 1.1482129735895796e-7
vn -0.9168503880500793 0.10176575183868408 0.38604283332824707
vn -0.7071067690849304 0.7071068286895752 1.636701973950494e-8
vn -0.5763519406318665 -0.7202705144882202 -0.3860425651073456
vn -0.9168505072593689 -0.10176576673984528 -0.38604259490966797
vn -0.7202704548835754 0.5763519406318665 -0.38604268431663513
vn -0.10176572948694229 0.9168504476547241 -0.3860427439212799
vn 0.8852725028991699 -0.35946348309516907 -0.2950908839702606
vt 0.5019999742507935 0.25
vt 0.75 0.49800002574920654
vt 0.9980000257492065 0.25
vt 0.7512434124946594 0.24998211860656738
vt 0.5051841139793396 0.24998217821121216
vt 0.5772532224655151 0.42397236824035645
vt 0.7512434720993042 0.49604153633117676
vt 0.9252337217330933 0.42397236824035645
vt 0.997302770614624 0.24998211860656738
vt 0.9252336621284485 0.0759919285774231
vt 0.5772531628608704 0.0759919285774231
vt 0.7512434124946594 0.003922820091247559
vt 0.7512434124946594 0.24998211860656738
vt 0.997302770614624 0.24998211860656738
vt 0.9252337217330933 0.42397236824035645
vt 0.9252336621284485 0.0759919285774231
vt 0.7512434124946594 0.003922820091247559
vt 0.5772531628608704 0.0759919285774231
vt 0.5051841139793396 0.24998217821121216
vt 0.5772532224655151 0.42397236824035645
vt 0.7512434720993042 0.49604153633117676
vt 0.3161907196044922 -0.9485719203948975
vt 0.948572039604187 0.3161907196044922
vt -0.016142016276717186 -0.01614201068878174
vt 0.016142016276717186 0.01614201068878174
vt -0.9485719799995422 -0.3161907196044922
vt 0.016142018139362335 -0.01614201068878174
vt -0.3161907494068146 0.9485719799995422
vt -0.016142016276717186 -0.01614201068878174
vt 0.2499999701976776 0.49800002574920654
vt 0.0020000000949949026 0.49800002574920654
vt 0.0020000000949949026 0.001999974250793457
vt 0.2499999701976776 0.001999974250793457
vt 0.49799999594688416 0.49800002574920654
vt 0.49799999594688416 0.001999974250793457
vt 0.2500000298023224 0.49800002574920654
vt 0.2500000596046448 0.001999974250793457
vt 0.2499999850988388 0.7149758338928223
vt 0.2499999850988388 0.8835582733154297
vt 0.11255622655153275 0.8835582733154297
vt 0.39011043310165405 0.7149758338928223
vt 0.38744378089904785 0.8835582733154297
vt 0.2500000298023224 0.7149758338928223
vt 0.10988957434892654 0.7149758338928223
vt 0.2500000298023224 0.8835582137107849
vt 0.2500000298023224 0.7318840026855469
vt 0.15051968395709991 0.7318840026855469
vt 0.2499999850988388 0.7318840026855469
vt 0.3494803011417389 0.7318840026855469
vt 0.75 0.6965131163597107
vt 0.9980000257492065 0.6965131163597107
vt 0.75 0.9980000257492065
vt 0.5019999742507935 0.6965131163597107
vt 0.75 0.6965131163597107
vt 0.9980000257492065 0.5019999742507935
vt 0.75 0.5019999742507935
vt 0.5019999742507935 0.5019999742507935
vt 0.75 0.5019999742507935
vt 0.25 0.5080000162124634
vt 0.0078125 0.9919999837875366
vt 0.25 0.9919999837875366
vt 0.4921875 0.5080000162124634
vt 0.4921875 0.9919999837875366
vt 0.25 0.9919999837875366
vt 0.25 0.5080000162124634
vt 0.0078125 0.9919999837875366
vt 0.0078125 0.5080000162124634
vt 0.25 0.9919999837875366
vt 0.4921875 0.9919999837875366
vt 0.25 0.9919999837875366
vt 0.0078125 0.9919999837875366
vt 0.25 0.5080000162124634
vt 0.25 0.9919999837875366
vt 0.4921875 0.5080000162124634
vt 0.4921875 0.9919999837875366
vt 0.25 0.5080000162124634
vt 0.25 0.9919999837875366
vt 0.0078125 0.5080000162124634
vt 0.4921875 0.9919999837875366
vt 0.25 0.9919999837875366
vt 0.0078125 0.9919999837875366
vt 0.25 0.9919999837875366
vt 0.75 0.001999974250793457
g Geoset0
s 1
usemtl mat_woodclub01
f 1/1/1 2/2/2 3/3/3
f 4/4/4 5/5/5 6/6/6
f 4/4/4 6/6/6 7/7/7
f 4/4/4 7/7/7 8/8/8
f 4/4/4 9/9/9 10/10/10
f 4/4/4 8/8/8 9/9/9
f 4/4/4 11/11/11 5/5/5
f 4/4/4 12/12/12 11/11/11
f 4/4/4 10/10/10 12/12/12
f 13/13/13 14/14/14 15/15/15
f 13/13/13 16/16/16 14/14/14
f 13/13/13 17/17/17 16/16/16
f 13/13/13 18/18/18 17/17/17
f 13/13/13 19/19/19 18/18/18
f 13/13/13 20/20/20 19/19/19
f 13/13/13 21/21/21 20/20/20
f 13/13/13 15/15/15 21/21/21
f 22/22/22 23/23/23 24/24/24
f 24/24/24 25/25/25 22/22/22
f 26/26/26 22/22/22 25/25/25
f 25/25/25 27/27/27 26/26/26
f 28/28/28 26/26/26 27/27/27
f 27/27/27 29/29/29 28/28/28
f 23/23/23 28/28/28 29/29/29
f 29/29/29 24/24/24 23/23/23
f 30/30/30 31/31/31 32/32/32
f 32/32/32 33/33/33 30/30/30
f 34/34/34 30/30/30 33/33/33
f 33/33/33 35/35/35 34/34/34
f 36/36/36 34/34/34 35/35/35
f 35/35/35 37/37/37 36/36/36
f 31/31/31 36/36/36 37/37/37
f 37/37/37 32/32/32 31/31/31
f 38/38/38 39/39/39 40/40/40
f 39/39/39 38/38/38 41/41/41
f 41/41/41 42/42/42 39/39/39
f 42/42/42 41/41/41 43/43/43
f 44/44/44 40/40/40 45/45/45
f 40/40/40 44/44/44 38/38/38
f 46/46/46 47/47/47 44/44/44
f 44/44/44 43/43/43 46/46/46
f 45/45/45 43/43/43 44/44/44
f 43/43/43 45/45/45 42/42/42
f 38/38/38 44/44/44 47/47/47
f 47/47/47 48/48/48 38/38/38
f 41/41/41 38/38/38 48/48/48
f 48/48/48 49/49/49 41/41/41
f 43/43/43 41/41/41 49/49/49
f 49/49/49 46/46/46 43/43/43
f 50/50/50 51/51/51 52/52/52
f 53/53/53 50/50/50 52/52/52
f 54/54/54 53/53/53 52/52/52
f 51/51/51 54/54/54 52/52/52
f 54/54/54 51/51/51 55/55/55
f 56/56/56 55/55/55 51/51/51
f 51/51/51 50/50/50 56/56/56
f 57/57/57 56/56/56 50/50/50
f 50/50/50 53/53/53 57/57/57
f 58/58/58 57/57/57 53/53/53
f 53/53/53 54/54/54 58/58/58
f 55/55/55 58/58/58 54/54/54
f 59/59/59 60/60/60 61/61/61
f 62/62/62 59/59/59 61/61/61
f 63/63/63 59/59/59 62/62/62
f 64/64/64 63/63/63 62/62/62
f 64/64/64 62/62/62 65/65/65
f 66/66/66 64/64/64 65/65/65
f 66/66/66 65/65/65 67/67/67
f 68/68/68 66/66/66 67/67/67
f 62/62/62 61/61/61 69/69/69
f 65/65/65 62/62/62 69/69/69
f 65/65/65 69/69/69 70/70/70
f 67/67/67 65/65/65 70/70/70
f 67/67/67 70/70/70 71/71/71
f 72/72/72 67/67/67 71/71/71
f 72/72/72 71/71/71 73/73/73
f 74/74/74 72/72/72 73/73/73
f 74/74/74 73/73/73 75/75/75
f 76/76/76 74/74/74 75/75/75
f 76/76/76 75/75/75 77/77/77
f 78/78/78 76/76/76 77/77/77
f 78/78/78 77/77/77 60/60/60
f 59/59/59 78/78/78 60/60/60
f 68/68/68 67/67/67 72/72/72
f 79/79/79 68/68/68 72/72/72
f 79/79/79 72/72/72 74/74/74
f 80/80/80 79/79/79 74/74/74
f 80/80/80 74/74/74 76/76/76
f 81/81/81 80/80/80 76/76/76
f 81/81/81 76/76/76 78/78/78
f 82/82/82 81/81/81 78/78/78
f 82/82/82 78/78/78 59/59/59
f 63/63/63 82/82/82 59/59/59
f 3/3/3 83/83/83 1/1/1
