# Exported using wow.export v0.1.65
o slimejar03
mtllib slimejar03.mtl
v -0.1295357048511505 0.6671205759048462 -0.0075465599074959755
v 0.14828749001026154 0.6671205759048462 -0.0075465599074959755
v -0.08884943276643753 0.6671205759048462 -0.10577187687158585
v -0.08884943276643753 0.6671205759048462 0.09067875891923904
v 0.009375889785587788 0.6671205759048462 0.13136504590511322
v 0.10760121047496796 0.6671205759048462 0.09067875891923904
v 0.009375889785587788 0.6671205759048462 -0.14645816385746002
v 0.10760121047496796 0.6671205759048462 -0.10577187687158585
v 0.009375889785587788 -0.014487174339592457 -0.007546557579189539
v -0.19140391051769257 -0.014487174339592457 -0.007546557579189539
v -0.13259686529636383 -0.014487174339592457 -0.14951929450035095
v 0.009375889785587788 0.5190659761428833 -0.007546557579189539
v 0.12894368171691895 0.7042803764343262 0.11202120780944824
v 0.17847023904323578 0.7042803168296814 -0.007546557579189539
v 0.12894366681575775 0.7042803764343262 -0.12711431086063385
v 0.12112147361040115 0.618519127368927 -0.11929211765527725
v 0.009375889785587788 0.618519127368927 -0.1655786782503128
v 0.009375889785587788 0.5021971464157104 -0.2366931140422821
v -0.10236968100070953 0.618519127368927 -0.11929211765527725
v -0.1526551991701126 0.5021971464157104 -0.16957761347293854
v -0.1486562043428421 0.618519127368927 -0.007546557579189539
v -0.2197706401348114 0.5021971464157104 -0.007546557579189539
v -0.1526551991701126 0.5021971464157104 0.15448452532291412
v -0.11019188910722733 0.7042803764343262 -0.12711431086063385
v -0.15971846878528595 0.7042803168296814 -0.007546557579189539
v -0.10236968100070953 0.618519127368927 0.10419900715351105
v 0.009375889785587788 0.5021971464157104 0.2216000258922577
v 0.009375889785587788 0.26071083545684814 0.2678968012332916
v 0.17140698432922363 0.5021971464157104 0.15448452532291412
v 0.2041437327861786 0.26071083545684814 0.18722127377986908
v 0.2385224550962448 0.5021971464157104 -0.007546557579189539
v 0.009375889785587788 0.7042803168296814 -0.17664094269275665
v -0.11019188165664673 0.7042803764343262 0.11202120780944824
v 0.009375889785587788 0.7042803168296814 0.16154782474040985
v 0.009375889785587788 0.618519127368927 0.150485560297966
v 0.12112147361040115 0.618519127368927 0.10419900715351105
v 0.16740798950195312 0.618519127368927 -0.007546557579189539
v 0.17140698432922363 0.5021971464157104 -0.16957761347293854
v 0.009375889785587788 0.26071083545684814 -0.28298988938331604
v -0.18539196252822876 0.26071083545684814 -0.20231439173221588
v 0.28481921553611755 0.26071083545684814 -0.007546557579189539
v 0.2041437327861786 0.26071083545684814 -0.20231439173221588
v 0.1267087459564209 0.11633055657148361 -0.1248793974518776
v 0.009375889785587788 0.11633055657148361 -0.17348027229309082
v 0.009375889785587788 -0.014487174339592457 -0.20832636952400208
v -0.10795696824789047 0.11633055657148361 -0.1248793974518776
v -0.13259686529636383 -0.014487174339592457 -0.14951929450035095
v -0.1565578132867813 0.11633055657148361 -0.007546557579189539
v -0.19140391051769257 -0.014487174339592457 -0.007546557579189539
v -0.13259686529636383 -0.014487174339592457 0.13442619144916534
v -0.26606741547584534 0.26071083545684814 -0.007546557579189539
v -0.10795696824789047 0.11633055657148361 0.10978627949953079
v 0.009375889785587788 -0.014487174339592457 0.19323325157165527
v -0.18539196252822876 0.26071083545684814 0.18722127377986908
v 0.009375889785587788 0.11633055657148361 0.15838715434074402
v 0.1267087459564209 0.11633055657148361 0.10978627949953079
v 0.15134865045547485 -0.014487174339592457 0.13442619144916534
v 0.17530959844589233 0.11633055657148361 -0.007546557579189539
v 0.2101556807756424 -0.014487174339592457 -0.007546557579189539
v 0.15134865045547485 -0.014487174339592457 -0.14951929450035095
v 0.15134865045547485 -0.014487174339592457 -0.14951929450035095
v 0.2101556807756424 -0.014487174339592457 -0.007546557579189539
v 0.15134865045547485 -0.014487174339592457 0.13442619144916534
v 0.009375889785587788 -0.014487174339592457 0.19323325157165527
v -0.13259686529636383 -0.014487174339592457 0.13442619144916534
v 0.009375889785587788 -0.014487174339592457 -0.20832636952400208
vn 0 1 0
vn 0 1 0
vn 0 1 0
vn 0 1 0
vn 0 1 0
vn 0 1 0
vn 0 1 0
vn 0 1 0
vn 0 -1 6.304729393541939e-24
vn -0.5857616662979126 -0.8104833960533142 0
vn -0.7054778933525085 -0.4656437635421753 -0.5343002676963806
vn 2.038092805634051e-9 1 4.0761860553573115e-9
vn 0.35597166419029236 0.7601410746574402 0.5435712933540344
vn 0.855786144733429 0.5173298120498657 -1.905891267028892e-8
vn 0.3559716045856476 0.760141134262085 -0.5435712337493896
vn 0.5857117176055908 0.5916269421577454 -0.5540030002593994
vn -6.059954760218034e-9 0.23822732269763947 -0.9712094068527222
vn -5.02785635347891e-9 0.8864834308624268 -0.4627602994441986
vn -0.5857117772102356 0.5916268229484558 -0.5540030598640442
vn -0.36542075872421265 0.8476861119270325 -0.38457244634628296
vn -0.6116763353347778 0.7911081314086914 -1.3098702567049259e-8
vn -0.6044242978096008 0.7966625690460205 -3.869561560065904e-9
vn -0.36542075872421265 0.8476861119270325 0.38457244634628296
vn -0.35597163438796997 0.760141134262085 -0.5435712337493896
vn -0.855786144733429 0.5173298120498657 -4.76472816757223e-9
vn -0.585711658000946 0.5916270017623901 0.5540030002593994
vn -6.70380861933495e-9 0.8864834904670715 0.46276021003723145
vn 6.5707554952609826e-9 -0.12032578885555267 0.992734432220459
vn 0.36542075872421265 0.8476861119270325 0.38457244634628296
vn 0.5920087695121765 -0.5867641568183899 0.5524793863296509
vn 0.6044244170188904 0.7966625094413757 -1.1608686456554551e-8
vn 0 0.948150098323822 -0.3178229033946991
vn -0.3559715449810028 0.760141134262085 0.5435712337493896
vn 0 0.948150098323822 0.3178228735923767
vn -1.817986472474331e-8 0.23822738230228424 0.9712094068527222
vn 0.5857117176055908 0.5916269421577454 0.5540030002593994
vn 0.6116762161254883 0.7911081910133362 -1.7464934387589892e-8
vn 0.36542072892189026 0.8476861119270325 -0.38457241654396057
vn -1.3141509214165126e-8 -0.12032569944858551 -0.9927344918251038
vn -0.5920088291168213 -0.5867639780044556 -0.5524794459342957
vn 0.57072913646698 -0.8211383819580078 8.929707639993012e-9
vn 0.5920087099075317 -0.5867640972137451 -0.5524795055389404
vn 0.593376636505127 -0.49922698736190796 -0.6314083933830261
vn 0 -0.8033407926559448 -0.5955195426940918
vn 0 -0.10434599220752716 -0.9945410490036011
vn -0.593376636505127 -0.49922698736190796 -0.6314083933830261
vn -0.7054778933525085 -0.4656437635421753 -0.5343002676963806
vn -0.9961200952529907 0.08800441026687622 6.868593249720334e-9
vn -0.5857616662979126 -0.8104833960533142 0
vn -0.7054778933525085 -0.4656437635421753 0.5343002676963806
vn -0.57072913646698 -0.8211383819580078 4.464853819996506e-9
vn -0.593376636505127 -0.49922698736190796 0.6314083933830261
vn 0 -0.10434599220752716 0.9945410490036011
vn -0.5920087695121765 -0.5867640972137451 0.5524794459342957
vn -2.3859365594347537e-9 -0.8033407926559448 0.5955195426940918
vn 0.593376636505127 -0.49922698736190796 0.6314083933830261
vn 0.7054778933525085 -0.4656437635421753 0.5343002676963806
vn 0.9961200952529907 0.08800441026687622 6.868593249720334e-9
vn 0.5857616662979126 -0.8104833960533142 0
vn 0.7054778933525085 -0.4656437635421753 -0.5343002676963806
vn 0.7054778933525085 -0.4656437635421753 -0.5343002676963806
vn 0.5857616662979126 -0.8104833960533142 0
vn 0.7054778933525085 -0.4656437635421753 0.5343002676963806
vn 0 -0.10434599220752716 0.9945410490036011
vn -0.7054778933525085 -0.4656437635421753 0.5343002676963806
vn 0 -0.10434599220752716 -0.9945410490036011
vt 0.49999988079071045 0.2625155448913574
vt 0.5000001192092896 0.5007695555686951
vt 0.14679983258247375 0.29740703105926514
vt 0.8532000184059143 0.29740703105926514
vt 0.9995004534721375 0.38164252042770386
vt 0.8532001972198486 0.4658780097961426
vt 0.0004995465278625488 0.38164258003234863
vt 0.1467999815940857 0.46587812900543213
vt 0.5 0.5
vt 0.49999991059303284 0.2055988907814026
vt 0.2918270230293274 0.2918269634246826
vt 0.4568752646446228 0.9366949796676636
vt 0.49361562728881836 0.9995005130767822
vt 0.9076135158538818 0.9995005130767822
vt 0.49361562728881836 0.9995005130767822
vt 0.49361562728881836 0.7925076484680176
vt 0.058095723390579224 0.7925076484680176
vt -0.12135511636734009 0.7052698731422424
vt 0.49361562728881836 0.7925076484680176
vt 0.5101487636566162 0.7052699327468872
vt 0.9076135158538818 0.7925075888633728
vt 1.1104457378387451 0.7052698731422424
vt 0.5101487636566162 0.7052699327468872
vt 0.49361562728881836 0.9995005130767822
vt 0.9076135158538818 0.9995005130767822
vt 0.49361562728881836 0.7925076484680176
vt -0.12135511636734009 0.7052698731422424
vt -0.20508289337158203 0.34242701530456543
vt 0.5101487636566162 0.7052699327468872
vt 0.5178627967834473 0.34242701530456543
vt 1.1104457378387451 0.7052698731422424
vt 0.058095723390579224 0.9995005130767822
vt 0.49361562728881836 0.9995005130767822
vt 0.058095723390579224 0.9995005130767822
vt 0.058095723390579224 0.7925076484680176
vt 0.49361562728881836 0.7925076484680176
vt 0.9076135158538818 0.7925075888633728
vt 0.5101487636566162 0.7052699327468872
vt -0.20508289337158203 0.34242701530456543
vt 0.5178627967834473 0.34242701530456543
vt 1.2050827741622925 0.34242701530456543
vt 0.5178627967834473 0.34242701530456543
vt 0.49361562728881836 0.18189847469329834
vt 0.058095723390579224 0.18189847469329834
vt 0.018217772245407104 0.0004994869232177734
vt 0.49361562728881836 0.18189847469329834
vt 0.4972896873950958 0.0004994869232177734
vt 0.9076135158538818 0.18189847469329834
vt 0.9526873826980591 0.0004994869232177734
vt 0.4972896873950958 0.0004994869232177734
vt 1.2050827741622925 0.34242701530456543
vt 0.49361562728881836 0.18189847469329834
vt 0.018217772245407104 0.0004994869232177734
vt 0.5178627967834473 0.34242701530456543
vt 0.058095723390579224 0.18189847469329834
vt 0.49361562728881836 0.18189847469329834
vt 0.4972896873950958 0.0004994869232177734
vt 0.9076135158538818 0.18189847469329834
vt 0.9526873826980591 0.0004994869232177734
vt 0.4972896873950958 0.0004994869232177734
vt 0.29182708263397217 0.7081730365753174
vt 0.5000000596046448 0.7944010496139526
vt 0.7081730365753174 0.7081729769706726
vt 0.7944010496139526 0.49999988079071045
vt 0.7081729173660278 0.29182690382003784
vt 0.20559896528720856 0.5000000596046448
g Geoset0
s 1
usemtl mat_slimejargoo
f 1/1/1 2/2/2 3/3/3
f 4/4/4 2/2/2 1/1/1
f 5/5/5 2/2/2 4/4/4
f 6/6/6 2/2/2 5/5/5
f 7/7/7 2/2/2 8/8/8
f 3/3/3 2/2/2 7/7/7
g Geoset1
s 1
usemtl mat_slimejar01
f 9/9/9 10/10/10 11/11/11
f 12/12/12 13/13/13 14/14/14
f 12/12/12 14/14/14 15/15/15
f 16/16/16 15/15/15 14/14/14
f 17/17/17 15/15/15 16/16/16
f 18/18/18 17/17/17 16/16/16
f 18/18/18 19/19/19 17/17/17
f 18/18/18 20/20/20 19/19/19
f 20/20/20 21/21/21 19/19/19
f 20/20/20 22/22/22 21/21/21
f 23/23/23 21/21/21 22/22/22
f 17/17/17 19/19/19 24/24/24
f 19/19/19 25/25/25 24/24/24
f 19/19/19 21/21/21 25/25/25
f 26/26/26 25/25/25 21/21/21
f 23/23/23 26/26/26 21/21/21
f 27/27/27 26/26/26 23/23/23
f 28/28/28 27/27/27 23/23/23
f 28/28/28 29/29/29 27/27/27
f 28/28/28 30/30/30 29/29/29
f 30/30/30 31/31/31 29/29/29
f 12/12/12 15/15/15 32/32/32
f 17/17/17 32/32/32 15/15/15
f 17/17/17 24/24/24 32/32/32
f 12/12/12 24/24/24 25/25/25
f 12/12/12 32/32/32 24/24/24
f 12/12/12 25/25/25 33/33/33
f 12/12/12 33/33/33 34/34/34
f 26/26/26 33/33/33 25/25/25
f 35/35/35 33/33/33 26/26/26
f 35/35/35 34/34/34 33/33/33
f 35/35/35 13/13/13 34/34/34
f 12/12/12 34/34/34 13/13/13
f 27/27/27 35/35/35 26/26/26
f 27/27/27 36/36/36 35/35/35
f 27/27/27 29/29/29 36/36/36
f 29/29/29 37/37/37 36/36/36
f 29/29/29 31/31/31 37/37/37
f 38/38/38 37/37/37 31/31/31
f 35/35/35 36/36/36 13/13/13
f 36/36/36 14/14/14 13/13/13
f 36/36/36 37/37/37 14/14/14
f 16/16/16 14/14/14 37/37/37
f 38/38/38 16/16/16 37/37/37
f 18/18/18 16/16/16 38/38/38
f 39/39/39 18/18/18 38/38/38
f 39/39/39 20/20/20 18/18/18
f 39/39/39 40/40/40 20/20/20
f 40/40/40 22/22/22 20/20/20
f 30/30/30 41/41/41 31/31/31
f 42/42/42 31/31/31 41/41/41
f 43/43/43 42/42/42 41/41/41
f 44/44/44 42/42/42 43/43/43
f 45/45/45 44/44/44 43/43/43
f 45/45/45 46/46/46 44/44/44
f 45/45/45 47/47/47 46/46/46
f 47/47/47 48/48/48 46/46/46
f 47/47/47 49/49/49 48/48/48
f 50/50/50 48/48/48 49/49/49
f 42/42/42 38/38/38 31/31/31
f 39/39/39 38/38/38 42/42/42
f 44/44/44 39/39/39 42/42/42
f 44/44/44 40/40/40 39/39/39
f 44/44/44 46/46/46 40/40/40
f 46/46/46 51/51/51 40/40/40
f 46/46/46 48/48/48 51/51/51
f 52/52/52 51/51/51 48/48/48
f 50/50/50 52/52/52 48/48/48
f 53/53/53 52/52/52 50/50/50
f 40/40/40 51/51/51 22/22/22
f 54/54/54 22/22/22 51/51/51
f 52/52/52 54/54/54 51/51/51
f 55/55/55 54/54/54 52/52/52
f 53/53/53 55/55/55 52/52/52
f 53/53/53 56/56/56 55/55/55
f 53/53/53 57/57/57 56/56/56
f 57/57/57 58/58/58 56/56/56
f 57/57/57 59/59/59 58/58/58
f 60/60/60 58/58/58 59/59/59
f 54/54/54 23/23/23 22/22/22
f 28/28/28 23/23/23 54/54/54
f 55/55/55 28/28/28 54/54/54
f 55/55/55 30/30/30 28/28/28
f 55/55/55 56/56/56 30/30/30
f 56/56/56 41/41/41 30/30/30
f 56/56/56 58/58/58 41/41/41
f 43/43/43 41/41/41 58/58/58
f 60/60/60 43/43/43 58/58/58
f 45/45/45 43/43/43 60/60/60
f 9/9/9 61/61/61 62/62/62
f 9/9/9 62/62/62 63/63/63
f 9/9/9 63/63/63 64/64/64
f 9/9/9 65/65/65 10/10/10
f 9/9/9 64/64/64 65/65/65
f 9/9/9 66/66/66 61/61/61
f 9/9/9 11/11/11 66/66/66
