# Exported using wow.export v0.1.65
o felwoodmushroomanim
mtllib felwoodmushroomanim.mtl
v -0.5523543953895569 0.5493655800819397 -0.6380811929702759
v -0.5438254475593567 -0.07658790796995163 -0.6727207899093628
v -0.45405516028404236 -0.07658790796995163 -0.00283785630017519
v -0.5425711274147034 0.5266710519790649 -0.05210350826382637
v 0.13320274651050568 -0.07658790796995163 0.21252234280109406
v -0.019119879230856895 0.5207943320274353 0.2876390516757965
v 0.559569239616394 -0.07658790796995163 -0.13398994505405426
v 0.6537150144577026 0.6086810827255249 -0.005349649582058191
v 0.4536823332309723 -0.07658790796995163 -0.672720730304718
v 0.6545505523681641 0.5565231442451477 -0.6380810737609863
v -0.008024153299629688 -0.07658790796995163 -1.007662296295166
v -0.03705531731247902 0.5623997449874878 -1.0391417741775513
v 0.434398889541626 -0.11511555314064026 0.5660114884376526
v 0.4801500737667084 -0.11536133289337158 0.9583037495613098
v -0.300680547952652 -0.10571553558111191 1.1274124383926392
v -0.052399978041648865 -0.08722616732120514 0.3528894782066345
v 0.5737140774726868 2.2010278701782227 -0.6288745403289795
v 0.5737140774726868 2.2010276317596436 0.028549442067742348
v 0.00659610889852047 2.147921323776245 -0.9575862884521484
v -0.5476179122924805 2.086883306503296 0.16194066405296326
v -0.5605217218399048 2.094815492630005 -0.6288745999336243
v -0.014656024053692818 2.328091859817505 -0.30016258358955383
v 0.006596148479729891 2.147921562194824 0.3572612702846527
v -0.02459479682147503 1.0303460359573364 1.123898983001709
v 0.036901216953992844 1.8229448795318604 -1.3720413446426392
v -0.8859782218933105 1.7968705892562866 -0.9104762673377991
v 0.8974063992500305 1.9140082597732544 -0.8936570286750793
v -0.8859781622886658 1.7130463123321533 0.3554757535457611
v 0.12024806439876556 1.8213255405426025 0.8018352389335632
v 0.980753481388092 1.9123884439468384 0.303070604801178
v 0.06564155966043472 1.1183663606643677 0.11819902807474136
v -0.2973131537437439 1.0703016519546509 -0.0921761766076088
v -0.29731306433677673 1.0703016519546509 -0.5129265785217285
v 0.06564158201217651 1.1183663606643677 -0.7233015894889832
v 0.4285964071750641 1.1664310693740845 -0.09217618405818939
v 0.4498880207538605 1.1758900880813599 -0.5252702832221985
v 0.042605210095644 1.4005769491195679 -1.6648200750350952
v -1.1279436349868774 1.34866201877594 -1.1816130876541138
v 1.2185165882110596 1.486781120300293 -0.9839861989021301
v -1.0590730905532837 1.34866201877594 0.47254228591918945
v 0.04668065160512924 1.4266374111175537 1.058514952659607
v 1.369208812713623 1.502809762954712 0.5633895993232727
v 0.2794167399406433 0.43647223711013794 0.9212439060211182
v 0.264643132686615 0.3747834265232086 1.127650260925293
v -0.2640058100223541 0.3256491720676422 1.2830668687820435
v -0.10351056605577469 0.4234912395477295 0.7995208501815796
v 0.7111084461212158 0.6365042328834534 0.6238067150115967
v -0.4958607256412506 0.6383253335952759 0.39061111211776733
v 0.6828852295875549 0.5657214522361755 1.58552086353302
v -0.06989162415266037 0.5217894911766052 1.9163055419921875
v -0.7190235257148743 0.4851575493812561 1.4502512216567993
v 0.32776084542274475 0.9002723693847656 1.4499990940093994
v 0.36980271339416504 0.969224214553833 0.8396772742271423
v -0.34067076444625854 0.9218676090240479 0.7237527370452881
v -0.4598146080970764 0.8543044328689575 1.2972431182861328
vn -0.9049896597862244 0.07905103266239166 -0.4180246591567993
vn -0.8177143931388855 -0.006104958243668079 -0.5755917429924011
vn -0.9068986177444458 -0.01689167134463787 0.42101022601127625
vn -0.8536627888679504 0.05125943198800087 0.518297553062439
vn -0.09983417391777039 -0.018560556694865227 0.9948309659957886
vn -0.034442879259586334 0.025295548141002655 0.9990864992141724
vn 0.8074855804443359 -0.03227454423904419 0.5890036821365356
vn 0.8596628308296204 0.017780959606170654 0.5105523467063904
vn 0.9325029850006104 -0.06282611936330795 -0.35565581917762756
vn 0.8772484064102173 0.032903797924518585 -0.4789077341556549
vn 0.2158478945493698 -0.027302443981170654 -0.9760451912879944
vn -0.06964277476072311 0.07636145502328873 -0.9946450591087341
vn 0.8239620923995972 0.17960239946842194 -0.5374285578727722
vn 0.8059288263320923 0.04140886291861534 0.5905624628067017
vn -0.7242570519447327 -0.036835771054029465 0.6885454654693604
vn -0.42805904150009155 0.2005048245191574 -0.8812282681465149
vn 0.5809931755065918 0.5754393935203552 -0.5756009221076965
vn 0.7283969521522522 0.6000105738639832 0.33079469203948975
vn -0.22171521186828613 0.52153080701828 -0.823922336101532
vn -0.7054367065429688 0.4544244408607483 0.5439278483390808
vn -0.8490877747535706 0.4662511646747589 -0.24831384420394897
vn -0.25160640478134155 0.9677662253379822 0.011078293435275555
vn 0.0077132852748036385 0.533348798751831 0.8458602428436279
vn -0.23590262234210968 0.9211649298667908 0.30952396988868713
vn 0.054975658655166626 0.31023484468460083 -0.9490690231323242
vn -0.8005151748657227 0.2883402407169342 -0.525390625
vn 0.8236214518547058 0.3180212676525116 -0.4695850908756256
vn -0.8676732182502747 0.25979769229888916 0.4238494038581848
vn -0.12414297461509705 0.2784290313720703 0.9524000287055969
vn 0.7123516798019409 0.4113024175167084 0.5686699151992798
vn 0.19179479777812958 -0.22428420186042786 0.9554639458656311
vn -0.7043815851211548 -0.42313334345817566 0.5699164271354675
vn -0.8841150999069214 -0.24325886368751526 -0.39895567297935486
vn -0.0022670780308544636 -0.38982799649238586 -0.920884907245636
vn 0.8615895509719849 -0.3604694604873657 0.35738664865493774
vn 0.8070490956306458 -0.20602865517139435 -0.5533750057220459
vn 0.07862088829278946 -0.10295024514198303 -0.9915745258331299
vn -0.7146654725074768 -0.5003342628479004 -0.488793283700943
vn 0.8076412677764893 -0.40595147013664246 -0.4276902973651886
vn -0.8304309844970703 -0.130527064204216 0.5416152477264404
vn 0.08815372735261917 -0.43758919835090637 0.894843339920044
vn 0.8622651100158691 -0.0514364093542099 0.5038384795188904
vn 0.7319201231002808 -0.26685887575149536 -0.6269603371620178
vn 0.8523463010787964 -0.20085620880126953 0.48286911845207214
vn -0.4853174090385437 -0.7502851486206055 0.44893118739128113
vn -0.3577873408794403 -0.04465213790535927 -0.9327349066734314
vn 0.87639981508255 -0.041750602424144745 -0.47977107763290405
vn -0.2852436900138855 -0.18393594026565552 -0.9406399726867676
vn 0.8557166457176208 -0.3613267242908478 0.37039443850517273
vn -0.1325371116399765 -0.10724946856498718 0.9853585362434387
vn -0.9664969444274902 -0.14355714619159698 0.2127791941165924
vn 0.5147802829742432 0.4671604335308075 0.7188618779182434
vn 0.5167206525802612 0.6171949505805969 -0.5933550000190735
vn -0.7452511787414551 0.4959075450897217 -0.4457312822341919
vn -0.6939149498939514 0.4065725803375244 0.5942901372909546
vt 0.9885678291320801 0.2315220832824707
vt 0.9877086281776428 0.013227641582489014
vt 0.009389370679855347 0.013227641582489014
vt 0.009389609098434448 0.2315220832824707
vt 0.9869454503059387 0.013227641582489014
vt 0.9869454503059387 0.2315220832824707
vt 0.009389370679855347 0.013227641582489014
vt 0.009389609098434448 0.2315220832824707
vt 0.9877086281776428 0.013227641582489014
vt 0.9885678291320801 0.2315220832824707
vt 0.009351297281682491 0.013227641582489014
vt 0.009351297281682491 0.2315220832824707
vt 0.11151367425918579 0.07997018098831177
vt 0.8096702098846436 0.07997018098831177
vt 0.11151367425918579 0.07997018098831177
vt 0.8094184398651123 0.07997018098831177
vt 0.9354886412620544 0.8552571535110474
vt 0.06551375985145569 0.8552571535110474
vt 0.06547955423593521 0.8552571535110474
vt 0.06551375985145569 0.8552571535110474
vt 0.9354886412620544 0.8552571535110474
vt 0.47966766357421875 0.9861822128295898
vt 0.9348072409629822 0.8552571535110474
vt 0.4473063349723816 0.9861822128295898
vt 0.013298407196998596 0.7282224893569946
vt 0.980673611164093 0.7282224893569946
vt 0.980673611164093 0.7282224893569946
vt 0.013336718082427979 0.7282224893569946
vt 0.9790512323379517 0.7282224893569946
vt 0.013336718082427979 0.7282224893569946
vt 0.8183203339576721 0.46644359827041626
vt 0.182581827044487 0.46644359827041626
vt 0.818091094493866 0.46644359827041626
vt 0.18263855576515198 0.46644359827041626
vt 0.182581827044487 0.46644359827041626
vt 0.818091094493866 0.46644359827041626
vt 0.009690707549452782 0.6125020384788513
vt 0.9854389429092407 0.6125020384788513
vt 0.9854389429092407 0.6125020384788513
vt 0.007960880175232887 0.6125020384788513
vt 0.9857591390609741 0.6125020384788513
vt 0.007960880175232887 0.6125020384788513
vt 0.18536096811294556 0.46998995542526245
vt 0.7302224636077881 0.46998995542526245
vt 0.18536096811294556 0.46998995542526245
vt 0.7300440669059753 0.46998995542526245
vt 0.07088753581047058 0.5977876782417297
vt 0.8510724306106567 0.5977876782417297
vt 0.8497745394706726 0.5977876782417297
vt 0.4250432252883911 0.5977876782417297
vt 0.07088753581047058 0.5977876782417297
vt 0.7501587867736816 0.8552571535110474
vt 0.16889983415603638 0.8552571535110474
vt 0.7506144046783447 0.8552571535110474
vt 0.16889983415603638 0.8552571535110474
g Geoset0
s 1
usemtl mat_felwoodmushroom_white
f 1/1/1 2/2/2 3/3/3
f 4/4/4 1/1/1 3/3/3
f 4/4/4 3/3/3 5/5/5
f 6/6/6 4/4/4 5/5/5
f 6/6/6 5/5/5 7/7/7
f 8/8/8 6/6/6 7/7/7
f 8/8/8 7/7/7 9/9/9
f 10/10/10 8/8/8 9/9/9
f 10/10/10 9/9/9 11/11/11
f 12/12/12 10/10/10 11/11/11
f 1/1/1 12/12/12 2/2/2
f 12/12/12 11/11/11 2/2/2
f 43/43/43 44/44/44 13/13/13
f 44/44/44 14/14/14 13/13/13
f 44/44/44 15/15/15 14/14/14
f 45/45/45 15/15/15 44/44/44
f 45/45/45 46/46/46 15/15/15
f 46/46/46 16/16/16 15/15/15
f 46/46/46 13/13/13 16/16/16
f 43/43/43 13/13/13 46/46/46
f 47/47/47 43/43/43 48/48/48
f 47/47/47 49/49/49 43/43/43
f 49/49/49 44/44/44 43/43/43
f 49/49/49 45/45/45 44/44/44
f 50/50/50 45/45/45 49/49/49
f 51/51/51 45/45/45 50/50/50
f 51/51/51 48/48/48 45/45/45
f 48/48/48 46/46/46 45/45/45
f 48/48/48 43/43/43 46/46/46
f 52/52/52 50/50/50 49/49/49
f 52/52/52 49/49/49 47/47/47
f 53/53/53 52/52/52 47/47/47
f 53/53/53 47/47/47 48/48/48
f 54/54/54 53/53/53 48/48/48
f 54/54/54 48/48/48 51/51/51
f 55/55/55 54/54/54 51/51/51
f 53/53/53 54/54/54 24/24/24
f 52/52/52 53/53/53 24/24/24
f 55/55/55 52/52/52 24/24/24
f 55/55/55 50/50/50 52/52/52
f 55/55/55 51/51/51 50/50/50
f 54/54/54 55/55/55 24/24/24
f 31/31/31 32/32/32 6/6/6
f 32/32/32 4/4/4 6/6/6
f 32/32/32 33/33/33 4/4/4
f 33/33/33 1/1/1 4/4/4
f 34/34/34 12/12/12 1/1/1
f 33/33/33 34/34/34 1/1/1
f 31/31/31 6/6/6 8/8/8
f 35/35/35 31/31/31 8/8/8
f 36/36/36 10/10/10 12/12/12
f 36/36/36 35/35/35 10/10/10
f 35/35/35 8/8/8 10/10/10
f 34/34/34 36/36/36 12/12/12
f 37/37/37 34/34/34 38/38/38
f 39/39/39 35/35/35 36/36/36
f 39/39/39 36/36/36 34/34/34
f 37/37/37 39/39/39 34/34/34
f 38/38/38 34/34/34 33/33/33
f 38/38/38 33/33/33 32/32/32
f 40/40/40 38/38/38 32/32/32
f 40/40/40 32/32/32 41/41/41
f 42/42/42 35/35/35 39/39/39
f 42/42/42 41/41/41 35/35/35
f 41/41/41 31/31/31 35/35/35
f 41/41/41 32/32/32 31/31/31
f 25/25/25 37/37/37 26/26/26
f 17/17/17 18/18/18 27/27/27
f 19/19/19 17/17/17 25/25/25
f 20/20/20 21/21/21 28/28/28
f 21/21/21 20/20/20 22/22/22
f 23/23/23 18/18/18 22/22/22
f 20/20/20 23/23/23 22/22/22
f 23/23/23 20/20/20 29/29/29
f 20/20/20 28/28/28 29/29/29
f 23/23/23 29/29/29 30/30/30
f 18/18/18 23/23/23 30/30/30
f 29/29/29 41/41/41 42/42/42
f 30/30/30 29/29/29 42/42/42
f 30/30/30 42/42/42 27/27/27
f 18/18/18 30/30/30 27/27/27
f 26/26/26 37/37/37 38/38/38
f 26/26/26 38/38/38 40/40/40
f 28/28/28 26/26/26 40/40/40
f 28/28/28 40/40/40 29/29/29
f 27/27/27 42/42/42 39/39/39
f 17/17/17 27/27/27 25/25/25
f 21/21/21 26/26/26 28/28/28
f 21/21/21 19/19/19 26/26/26
f 19/19/19 21/21/21 22/22/22
f 27/27/27 39/39/39 37/37/37
f 25/25/25 27/27/27 37/37/37
f 29/29/29 40/40/40 41/41/41
f 19/19/19 25/25/25 26/26/26
f 17/17/17 19/19/19 22/22/22
f 18/18/18 17/17/17 22/22/22
