# Exported using wow.export v0.1.65
o felwoodmushroom02
mtllib felwoodmushroom02.mtl
v -0.03418448194861412 0.5349366068840027 0.43174615502357483
v 0.23358552157878876 0.5918738842010498 0.4713935852050781
v -0.2601791024208069 -0.07551826536655426 0.20503535866737366
v 0.4947000741958618 0.7551786303520203 0.5169203281402588
v -0.17229622602462769 0.8432195782661438 0.3965040445327759
v 0.15011285245418549 0.9715350270271301 0.6670705080032349
v 0.09018779546022415 0.6964844465255737 0.9980525970458984
v -0.17229622602462769 0.8432195782661438 0.3965040445327759
v -0.419307678937912 0.4566897451877594 0.2682037651538849
v 0.713177502155304 0.3704102635383606 0.37196746468544006
v 0.012752591632306576 0.33511510491371155 1.2071559429168701
v -0.419307678937912 0.4566897451877594 0.2682037651538849
v 0.14294499158859253 0.6968461871147156 -0.23940034210681915
v -0.3849080204963684 -0.036700181663036346 -0.05363969877362251
v 0.5200403332710266 -0.07138232886791229 -0.20063522458076477
v -0.4199744760990143 -0.08901477605104446 -0.651620090007782
v -0.04380063712596893 0.7195228338241577 -0.65558260679245
v 0.3037789463996887 0.6117576956748962 -0.8152773380279541
v 0.3963052034378052 0.8899864554405212 -1.3167482614517212
v 0.47099557518959045 1.4099196195602417 -0.836102306842804
v 0.9696767926216125 0.828820526599884 -0.8086955547332764
v -0.3947802782058716 0.9913403391838074 -0.8436563611030579
v 0.016029609367251396 0.9939479827880859 0.1727989763021469
v 0.5536172389984131 0.5259242057800293 -0.31973177194595337
v 0.10896775871515274 -0.08947573602199554 -0.9790094494819641
v -0.005561421159654856 1.4876614809036255 -0.6252533793449402
v 0.39558467268943787 1.6405751705169678 -0.4358133375644684
v 0.14299342036247253 1.4876618385314941 -0.16069360077381134
v 0.6420048475265503 1.3580915927886963 -0.3080507814884186
v 0.4742046594619751 0.9153268933296204 0.2569301724433899
v 0.9714279174804688 0.7746270298957825 -0.17936921119689941
v -0.03418448194861412 0.5349366068840027 0.43174615502357483
v -0.2601791024208069 -0.07551826536655426 0.20503535866737366
v -0.031208327040076256 -0.08094120025634766 0.7539244890213013
v 0.07230081409215927 0.49447453022003174 0.7372433543205261
v 0.2501297891139984 -0.09245099872350693 0.26977381110191345
vn -0.9497997164726257 0.2876458764076233 -0.12304586172103882
vn 0.8930043578147888 0.12142518162727356 -0.43335792422294617
vn -0.39268529415130615 0.3433395028114319 -0.8531800508499146
vn 0.669992208480835 0.584426760673523 -0.4577726721763611
vn -0.6916984915733337 0.7147377133369446 -0.10345596075057983
vn 0.11797038465738297 0.964606523513794 0.2358330488204956
vn 0.20053859055042267 0.48648422956466675 0.8503630757331848
vn -0.6916984915733337 0.7147377133369446 -0.10345596075057983
vn -0.3009142279624939 0.4413210153579712 -0.8453912734985352
vn 0.9150837659835815 0.3473866879940033 0.2048027068376541
vn -0.45903217792510986 0.4073861837387085 0.7895099520683289
vn -0.3009142279624939 0.4413210153579712 -0.8453912734985352
vn -0.578088104724884 -0.05779796093702316 0.8139247894287109
vn -0.5181233286857605 0.4275481402873993 0.7407771348953247
vn 0.907875657081604 0.008505202829837799 0.41915327310562134
vn -0.8251050114631653 0.36828550696372986 -0.42844778299331665
vn -0.8547373414039612 -0.4646715521812439 -0.23131029307842255
vn 0.2287202924489975 -0.2883889377117157 -0.9297950863838196
vn 0.03657923638820648 -0.48865237832069397 -0.8717114329338074
vn 0.3296850919723511 0.6601458191871643 -0.6749187111854553
vn 0.9245284795761108 -0.05515092611312866 -0.3771013617515564
vn -0.8759344816207886 0.048586390912532806 -0.47997719049453735
vn -0.7357508540153503 -0.25656360387802124 0.6267741322517395
vn 0.45753592252731323 -0.8458021283149719 0.27437132596969604
vn 0.2806957960128784 0.11034350842237473 -0.9534328579902649
vn -0.6842578053474426 0.7098183631896973 -0.1671801060438156
vn 0.25612178444862366 0.9658330678939819 0.03959982842206955
vn -0.16497737169265747 0.6856300830841064 0.709009051322937
vn 0.7703325152397156 0.550692617893219 0.32144275307655334
vn 0.29927974939346313 0.01787550188601017 0.9539979696273804
vn 0.8825145363807678 -0.20663373172283173 0.42245781421661377
vn -0.9497997164726257 0.2876458764076233 -0.12304586172103882
vn -0.39268529415130615 0.3433395028114319 -0.8531800508499146
vn -0.06180628016591072 0.0453345812857151 0.9970580339431763
vn -0.06657726317644119 0.031192922964692116 0.9972935914993286
vn 0.9019551277160645 0.11046764254570007 -0.41746118664741516
vt 0.5974730253219604 0.5666083097457886
vt 0.9035749435424805 0.5666083097457886
vt 0.5559858083724976 0.04132282733917236
vt 0.797524094581604 0.7707160711288452
vt 0.4294090270996094 0.7707160711288452
vt 0.628873348236084 0.9354575872421265
vt 0.4294090270996094 0.7707160711288452
vt 0.7979797124862671 0.7707160711288452
vt 0.3313967287540436 0.6050340533256531
vt 0.897139847278595 0.6050340533256531
vt 0.3313967287540436 0.6050340533256531
vt 0.8984377384185791 0.6050340533256531
vt 0.7300440669059753 0.46998995542526245
vt 0.8094184398651123 0.07997018098831177
vt 0.11151367425918579 0.07997018098831177
vt 0.11151367425918579 0.07997018098831177
vt 0.18536096811294556 0.46998995542526245
vt 0.7302224636077881 0.46998995542526245
vt 0.8497745394706726 0.5977876782417297
vt 0.7501587867736816 0.8552571535110474
vt 0.43679332733154297 0.5977876782417297
vt 0.07088753581047058 0.5977876782417297
vt 0.8510724306106567 0.5977876782417297
vt 0.18632489442825317 0.46998995542526245
vt 0.8096702098846436 0.07997018098831177
vt 0.16889983415603638 0.8552571535110474
vt 0.4473063349723816 0.9861822128295898
vt 0.7506144046783447 0.8552571535110474
vt 0.16889983415603638 0.8552571535110474
vt 0.5713845491409302 0.5977876782417297
vt 0.07088753581047058 0.5977876782417297
vt 0.903474748134613 0.5666083097457886
vt 0.9480670690536499 0.04132282733917236
vt 0.5559858083724976 0.04132282733917236
vt 0.5974730253219604 0.5666083097457886
vt 0.9482085108757019 0.04132282733917236
g Geoset0
s 1
usemtl mat_felwoodmushroom_purple
f 1/1/1 2/2/2 3/3/3
f 4/4/4 5/5/5 6/6/6
f 7/7/7 4/4/4 6/6/6
f 8/8/8 7/7/7 6/6/6
f 5/5/5 4/4/4 9/9/9
f 4/4/4 10/10/10 9/9/9
f 4/4/4 7/7/7 10/10/10
f 7/7/7 11/11/11 10/10/10
f 7/7/7 8/8/8 11/11/11
f 8/8/8 12/12/12 11/11/11
f 13/13/13 14/14/14 15/15/15
f 13/13/13 16/16/16 14/14/14
f 17/17/17 16/16/16 13/13/13
f 17/17/17 18/18/18 16/16/16
f 19/19/19 18/18/18 17/17/17
f 20/20/20 21/21/21 19/19/19
f 20/20/20 19/19/19 22/22/22
f 22/22/22 19/19/19 17/17/17
f 22/22/22 17/17/17 23/23/23
f 23/23/23 17/17/17 13/13/13
f 23/23/23 13/13/13 24/24/24
f 24/24/24 13/13/13 15/15/15
f 24/24/24 15/15/15 18/18/18
f 18/18/18 15/15/15 25/25/25
f 18/18/18 25/25/25 16/16/16
f 20/20/20 26/26/26 27/27/27
f 26/26/26 28/28/28 27/27/27
f 28/28/28 29/29/29 27/27/27
f 29/29/29 20/20/20 27/27/27
f 29/29/29 21/21/21 20/20/20
f 30/30/30 23/23/23 24/24/24
f 31/31/31 30/30/30 24/24/24
f 19/19/19 24/24/24 18/18/18
f 21/21/21 24/24/24 19/19/19
f 31/31/31 24/24/24 21/21/21
f 29/29/29 31/31/31 21/21/21
f 29/29/29 30/30/30 31/31/31
f 28/28/28 30/30/30 29/29/29
f 28/28/28 23/23/23 30/30/30
f 28/28/28 26/26/26 23/23/23
f 26/26/26 22/22/22 23/23/23
f 26/26/26 20/20/20 22/22/22
f 32/32/32 33/33/33 34/34/34
f 35/35/35 32/32/32 34/34/34
f 35/35/35 34/34/34 2/2/2
f 2/2/2 34/34/34 36/36/36
f 2/2/2 36/36/36 3/3/3
