# Exported using wow.export v0.1.65
o shovel
mtllib shovel.mtl
v 0.00047378320596180856 0.24967969954013824 -0.0004134319315198809
v -0.05127665773034096 0.4329107999801636 0.18649616837501526
v -0.04500100389122963 0.11219736188650131 0.14048412442207336
v -0.037432894110679626 0.8050569295883179 -0.0004133379552513361
v 0.0004736839618999511 0.496536523103714 -0.05349195376038551
v -0.052604932337999344 0.4965364634990692 -0.0004133183101657778
v 0.00047371574328280985 0.8050569295883179 -0.03831994906067848
v 0.053552329540252686 0.496536523103714 -0.00041332506225444376
v 0.03838033601641655 0.8050569295883179 -0.00041334281559102237
v 0.0004736954579129815 0.4965364634990692 0.052665311843156815
v 0.00047372389235533774 0.8050569295883179 0.0374932698905468
v -0.05536174774169922 1.5591551065444946 -0.0004134352784603834
v 0.05630927532911301 1.5591551065444946 -0.0004134424088988453
v 0.0004737595154438168 1.5591551065444946 -0.05624895170331001
v 0.00047377150622196496 1.5591551065444946 0.05542208254337311
v -0.045000988990068436 0.11219736188650131 0.14048412442207336
v 0.0004738090210594237 0.24967972934246063 -0.0004134319315198809
v -0.026454133912920952 0.0013195406645536423 -0.000646292872261256
v -0.05127666890621185 0.43291082978248596 0.18649613857269287
v 0.0004736954579129815 0.4965364634990692 0.052665311843156815
v -0.052604932337999344 0.4965364634990692 -0.0004133183101657778
v 0.0004736839618999511 0.496536523103714 -0.05349195376038551
v 0.053552329540252686 0.496536523103714 -0.00041332506225444376
v -0.04500097781419754 0.10518784821033478 -0.13758987188339233
v -0.05127667635679245 0.43291085958480835 -0.18732260167598724
v -0.026454156264662743 0.0013195406645536423 -0.000646292872261256
v -0.051276713609695435 0.4329107999801636 -0.18732260167598724
v 0.0004736770933959633 0.4965364634990692 -0.05349195376038551
v 0.0004736589326057583 0.49653640389442444 0.052665311843156815
vn 0.998318076133728 -0.0579594150185585 -0.0013297894038259983
vn 0.9476749300956726 -0.05340282991528511 0.31473854184150696
vn 0.967602550983429 -0.07206670939922333 0.24197450280189514
vn -0.9999168515205383 0.01289611030369997 1.1925511955723778e-7
vn -0.3237476944923401 -0.057144735008478165 -0.9444161653518677
vn -0.9970413446426392 -0.07686710357666016 1.358145880203665e-7
vn -1.5491502836084692e-7 0.012895945459604263 -0.9999168515205383
vn 0.9970414042472839 -0.07686668634414673 2.580400781937442e-8
vn 0.9999168515205383 0.012895937077701092 -1.3273520949041995e-7
vn -0.3237479329109192 -0.05714502930641174 0.9444160461425781
vn 1.1727573223652143e-7 0.0128960981965065 0.9999168515205383
vn -0.8226642608642578 0.5685275197029114 3.5516876550900633e-8
vn 0.8226646184921265 0.5685269832611084 1.3058955516953574e-7
vn 2.1200737876370113e-7 0.5685275197029114 -0.8226642608642578
vn 1.1152669543434968e-7 0.5685269832611084 0.8226646184921265
vn -0.967602550983429 0.07206670939922333 -0.24197465181350708
vn -0.9996641874313354 0.025880198925733566 0.001331513049080968
vn -0.9941704869270325 0.10778848826885223 0.002592110075056553
vn -0.9476748704910278 0.053402870893478394 -0.31473878026008606
vn -0.3237479329109192 -0.05714502930641174 0.9444160461425781
vn -0.9970413446426392 -0.07686710357666016 1.358145880203665e-7
vn -0.3237476944923401 -0.057144735008478165 -0.9444161653518677
vn 0.9970414042472839 -0.07686668634414673 2.580400781937442e-8
vn 0.9672706723213196 -0.07398999482393265 -0.24271991848945618
vn -0.9472209215164185 0.05469563603401184 0.3158811628818512
vn 0.9941704869270325 -0.10778845101594925 -0.002592067699879408
vn 0.9472208619117737 -0.05469568446278572 -0.31588125228881836
vn 0.9412344098091125 -0.07099990546703339 -0.33020713925361633
vn 0.9412347674369812 -0.07099995762109756 0.3302062451839447
vt 0.9276570677757263 0.8914179801940918
vt 0.016984403133392334 0.7881516218185425
vt 0.10413282364606857 0.9499582052230835
vt 0.5000001192092896 0.49447500705718994
vt 0.9748380184173584 0.7845246195793152
vt 0.5000003576278687 0.78452467918396
vt 0.8391099572181702 0.49447500705718994
vt 0.5000004768371582 0.7845246195793152
vt 0.5000002384185791 0.49447494745254517
vt 0.025162816047668457 0.78452467918396
vt 0.1608904004096985 0.49447494745254517
vt 0.4999999701976776 0.007745862007141113
vt 0.5000001192092896 0.007745921611785889
vt 0.9995005130767822 0.007745862007141113
vt 0.0004995167255401611 0.007745921611785889
vt 0.10413282364606857 0.9499582052230835
vt 0.9276570677757263 0.8914179801940918
vt 0.9287347197532654 1.0015043020248413
vt 0.016984403133392334 0.7881516218185425
vt 0.6820314526557922 0.7577524781227112
vt 0.9276561141014099 0.7577524781227112
vt 0.688100278377533 0.7577524185180664
vt 0.9276561141014099 0.7577524185180664
vt 0.10280808061361313 0.9494962692260742
vt 0.023054033517837524 0.7881516218185425
vt 0.9287347197532654 1.0015043020248413
vt 0.023054033517837524 0.7881516218185425
vt 0.688100278377533 0.7577524185180664
vt 0.6820314526557922 0.7577524781227112
g Geoset0
s 1
usemtl mat_shovel
f 1/1/1 2/2/2 3/3/3
f 4/4/4 5/5/5 6/6/6
f 4/4/4 7/7/7 5/5/5
f 7/7/7 8/8/8 5/5/5
f 7/7/7 9/9/9 8/8/8
f 9/9/9 10/10/10 8/8/8
f 9/9/9 11/11/11 10/10/10
f 12/12/12 13/13/13 14/14/14
f 12/12/12 15/15/15 13/13/13
f 15/15/15 12/12/12 4/4/4
f 15/15/15 4/4/4 11/11/11
f 11/11/11 4/4/4 6/6/6
f 11/11/11 6/6/6 10/10/10
f 12/12/12 7/7/7 4/4/4
f 12/12/12 14/14/14 7/7/7
f 14/14/14 9/9/9 7/7/7
f 14/14/14 13/13/13 9/9/9
f 13/13/13 11/11/11 9/9/9
f 13/13/13 15/15/15 11/11/11
f 16/16/16 17/17/17 18/18/18
f 19/19/19 17/17/17 16/16/16
f 17/17/17 19/19/19 20/20/20
f 20/20/20 21/21/21 17/17/17
f 21/21/21 22/22/22 17/17/17
f 22/22/22 23/23/23 17/17/17
f 23/23/23 20/20/20 17/17/17
f 24/24/24 18/18/18 17/17/17
f 25/25/25 24/24/24 17/17/17
f 17/17/17 22/22/22 25/25/25
f 26/26/26 24/24/24 1/1/1
f 24/24/24 27/27/27 1/1/1
f 28/28/28 1/1/1 27/27/27
f 1/1/1 3/3/3 26/26/26
f 2/2/2 1/1/1 29/29/29
