# Exported using wow.export v0.1.65
o gunshopdynamitebundle
mtllib gunshopdynamitebundle.mtl
v -0.029316285625100136 0.731982409954071 -0.09343557059764862
v -0.04836629703640938 0.7417977452278137 -0.06965015083551407
v -0.018281590193510056 0.7525814175605774 -0.0715516060590744
v -0.05977335199713707 0.5594759583473206 -0.06084829568862915
v 0.011105353944003582 0.6434646248817444 -0.010855895467102528
v 0.00856022723019123 0.6409708261489868 -0.0035438642371445894
v -0.056126873940229416 0.5594759583473206 -0.08052290976047516
v 0.004061557352542877 0.6462043523788452 -0.007849058136343956
v -0.07498882710933685 0.5594759583473206 -0.07384353876113892
v 0.00856022723019123 0.6409708261489868 -0.0035438642371445894
v -0.05977335199713707 0.5594759583473206 -0.06084829568862915
v 0.07085130363702774 0.5748834609985352 0.05098961666226387
v 0.00219729938544333 0.6437074542045593 -0.004478934686630964
v 0.005058935843408108 0.6412137150764465 -0.01167299970984459
v 0.06635010242462158 0.5748834609985352 0.07048645615577698
v 0.009365539066493511 0.6464472413063049 -0.007175661623477936
v 0.08548545092344284 0.5748834609985352 0.06463618576526642
v 0.005058935843408108 0.6412137150764465 -0.01167299970984459
v 0.07085130363702774 0.5748834609985352 0.05098961666226387
v 0.05983224883675575 0.5748834609985352 -0.07155311852693558
v 0.0062108212150633335 0.6437074542045593 -0.006227646954357624
v -0.0008789944695308805 0.6412137150764465 -0.009338618256151676
v 0.07916012406349182 0.5748834609985352 -0.06637423485517502
v 0.0037658964283764362 0.6464472413063049 -0.013485642150044441
v 0.07398123294115067 0.5748834609985352 -0.08570209890604019
v -0.0008789944695308805 0.6412137150764465 -0.009338618256151676
v 0.05983224883675575 0.5748834609985352 -0.07155311852693558
v -0.06460569053888321 0.5594759583473206 0.03213286027312279
v 0.002625369234010577 0.6434645652770996 -0.01286692451685667
v 0.008223582990467548 0.6409708261489868 -0.0075187161564826965
v -0.08099666237831116 0.5594759583473206 0.020655779168009758
v 0.0024404472205787897 0.6462043523788452 -0.00521042849868536
v -0.08274061232805252 0.5594759583473206 0.04058931767940521
v 0.008223582990467548 0.6409708261489868 -0.0075187161564826965
v -0.06460569053888321 0.5594759583473206 0.03213286027312279
v 0.01426279079169035 0.6556165814399719 -0.0054725282825529575
v 0.007366102654486895 0.6427421569824219 -0.019150009378790855
v -0.029316285625100136 0.731982409954071 -0.09343557059764862
v -0.018281590193510056 0.7525814175605774 -0.0715516060590744
v -0.004540156573057175 0.6488767862319946 -0.004284113645553589
v -0.04836629703640938 0.7417977452278137 -0.06965015083551407
v 0.007366102654486895 0.6427421569824219 -0.019150009378790855
v -0.029316285625100136 0.731982409954071 -0.09343557059764862
v 0.008766514249145985 0.5710147023200989 -0.011296259239315987
v -0.0012383251450955868 0.5710147023200989 0.00603263545781374
v 0.018771355971693993 0.5710147023200989 0.006032632198184729
v 0.008766514249145985 0.5710147023200989 -0.011296259239315987
v 0.0630282536149025 0.5844188928604126 0.06240376457571983
v 0.0015253756428137422 0.5844188928604126 0.06240376457571983
v 0.0630282610654831 0.5844188928604126 0.12390664219856262
v 0.0630282536149025 0.014895704574882984 0.06240376457571983
v 0.0630282536149025 0.014895704574882984 0.02084776759147644
v 0.10458425432443619 0.014895704574882984 0.062403757125139236
v 0.12453113496303558 0.5844188928604126 0.062403757125139236
v 0.0630282536149025 0.5844188928604126 0.0009008910856209695
v 0.021472258493304253 0.014895704574882984 0.06240376457571983
v 0.0630282610654831 0.014895704574882984 0.10395976155996323
v -0.07279401272535324 0.5692735910415649 0.05402345582842827
v -0.07279401272535324 0.5692735910415649 0.11552633345127106
v -0.011291139759123325 0.5692735910415649 0.05402345210313797
v -0.07279401272535324 -0.0002495977678336203 0.05402345582842827
v -0.11435001343488693 -0.0002495977678336203 0.05402345582842827
v -0.07279402017593384 -0.0002495977678336203 0.012467456981539726
v -0.07279402017593384 0.5692735910415649 -0.007479419466108084
v -0.13429689407348633 0.5692735910415649 0.05402345582842827
v -0.07279401272535324 -0.0002495977678336203 0.09557945281267166
v -0.031238015741109848 -0.0002495977678336203 0.05402345210313797
v 0.06371232867240906 0.014895704574882984 -0.10707476735115051
v 0.022156335413455963 0.014895704574882984 -0.06551877409219742
v 0.0022094580344855785 0.5844188928604126 -0.06551877409219742
v 0.06371232867240906 0.5844188928604126 -0.1270216405391693
v 0.06371233612298965 0.014895704574882984 -0.06551877409219742
v 0.10526833683252335 0.014895704574882984 -0.06551877409219742
v 0.06371233612298965 0.014895704574882984 -0.023962773382663727
v 0.12521521747112274 0.5844188928604126 -0.06551877409219742
v 0.06371233612298965 0.5844188928604126 -0.06551877409219742
v 0.06371233612298965 0.5844188928604126 -0.00401588948443532
v -0.061848774552345276 -0.0002495977678336203 -0.10861430317163467
v -0.10340477526187897 -0.0002495977678336203 -0.06705830246210098
v -0.12335165590047836 0.5692735910415649 -0.06705830246210098
v -0.06184876710176468 0.5692735910415649 -0.005555424373596907
v -0.061848774552345276 0.5692735910415649 -0.12856118381023407
v -0.061848774552345276 0.5692735910415649 -0.06705830246210098
v -0.0003458989958744496 0.5692735910415649 -0.06705830246210098
v -0.06184876710176468 -0.0002495977678336203 -0.02550230175256729
v -0.020292775705456734 -0.0002495977678336203 -0.06705830246210098
v -0.061848774552345276 -0.0002495977678336203 -0.06705830246210098
v 0.07986520975828171 0.0022206830326467752 -0.0011608643690124154
v -0.0014806526014581323 0.0022206830326467752 -0.08250671625137329
v -0.001480652834288776 0.5717438459396362 -0.0626637265086174
v 0.060022223740816116 0.5717438459396362 -0.0011608620407059789
v -0.0014806526014581323 0.0022206830326467752 -0.0011608537752181292
v -0.001480645383708179 0.0022206830326467752 0.08018502593040466
v -0.08282653242349625 0.0022206830326467752 -0.0011608501663431525
v -0.0014806474791839719 0.5717438459396362 0.06034202128648758
v -0.001480652834288776 0.5717438459396362 -0.0011608540080487728
v -0.06298353523015976 0.5717438459396362 -0.0011608513304963708
v -0.061251092702150345 0.3353705406188965 -0.123467817902565
v -0.12274166196584702 0.45092833042144775 -0.067142553627491
v -0.06221943348646164 0.45092833042144775 -0.12773160636425018
v -0.11816642433404922 0.3353705406188965 -0.06640040129423141
v -0.1337951421737671 0.45092833042144775 0.05426185205578804
v -0.12890928983688354 0.3353705406188965 0.05417969822883606
v -0.07312367856502533 0.45092833042144775 0.11475377529859543
v -0.07290094345808029 0.3353705406188965 0.10995521396398544
v 0.06251838058233261 0.45092833042144775 0.12315935641527176
v 0.06246311217546463 0.3353705406188965 0.1187826544046402
v 0.12341772019863129 0.45092833042144775 0.06340475380420685
v 0.11855954676866531 0.3353705406188965 0.06357411295175552
v 0.12395106256008148 0.45092833042144775 -0.06626691669225693
v 0.11883889138698578 0.3353705406188965 -0.06755217909812927
v 0.06385488063097 0.45092833042144775 -0.12537944316864014
v 0.06384377926588058 0.3353705406188965 -0.12160111963748932
vn -0.30997633934020996 0.7653248310089111 -0.5640856027603149
vn -0.30997633934020996 0.7653248310089111 -0.5640856027603149
vn -0.30997633934020996 0.7653248310089111 -0.5640856027603149
vn 0.45058196783065796 -0.7317019701004028 0.5114569067955017
vn 0.8464086651802063 -0.40614622831344604 -0.3444381654262543
vn -0.3214544355869293 -0.34684932231903076 0.8811144232749939
vn 0.28109320998191833 0.46058014035224915 -0.8419337868690491
vn -0.5222867131233215 0.7734943628311157 -0.35905855894088745
vn -0.8053147196769714 0.3975932002067566 0.4397587776184082
vn -0.3214544355869293 -0.34684932231903076 0.8811144232749939
vn 0.45058196783065796 -0.7317019701004028 0.5114569067955017
vn -0.3508245646953583 -0.799511730670929 -0.4875481128692627
vn -0.8321704268455505 -0.45762374997138977 0.3131658434867859
vn 0.38921162486076355 -0.3951505422592163 -0.8320879340171814
vn -0.33136963844299316 0.5257712602615356 0.7834275960922241
vn 0.4640085697174072 0.831933319568634 0.30427461862564087
vn 0.8006199598312378 0.4116540849208832 -0.4353717565536499
vn 0.38921162486076355 -0.3951505422592163 -0.8320879340171814
vn -0.3508245646953583 -0.799511730670929 -0.4875481128692627
vn -0.5113804340362549 -0.7856912016868591 0.34810829162597656
vn 0.28748100996017456 -0.4544498324394226 0.8431073427200317
vn -0.8317834138870239 -0.37027713656425476 -0.413559228181839
vn 0.7863031625747681 0.5076303482055664 0.35219135880470276
vn 0.335199236869812 0.8232810497283936 -0.45809367299079895
vn -0.4004387855529785 0.42460814118385315 -0.8120077848434448
vn -0.8317834138870239 -0.37027713656425476 -0.413559228181839
vn -0.5113804340362549 -0.7856912016868591 0.34810829162597656
vn 0.6775517463684082 -0.7038391828536987 -0.2133869230747223
vn 0.029207095503807068 -0.4069922864437103 -0.9129645228385925
vn 0.6926726698875427 -0.2995609641075134 0.6561004519462585
vn -0.6781087517738342 0.4236263036727905 -0.6005907654762268
vn -0.5696708559989929 0.7543790936470032 0.3261706829071045
vn 0.058821260929107666 0.4202762544155121 0.9054876565933228
vn 0.6926726698875427 -0.2995609641075134 0.6561004519462585
vn 0.6775517463684082 -0.7038391828536987 -0.2133869230747223
vn 0.8373965620994568 0.25201931595802307 0.48502910137176514
vn 0.13246476650238037 -0.4357233941555023 -0.8902798295021057
vn 0.6095880270004272 -0.34395334124565125 -0.7142118811607361
vn 0.3595355153083801 0.6048800945281982 0.7105309963226318
vn -0.898224949836731 0.14046704769134521 0.41648638248443604
vn -0.9232621192932129 -0.3741576671600342 0.08713852614164352
vn 0.13246476650238037 -0.4357233941555023 -0.8902798295021057
vn 0.6095880270004272 -0.34395334124565125 -0.7142118811607361
vn -0.4395395517349243 -0.12333162128925323 -0.889715850353241
vn -0.49287956953048706 0.0957028791308403 0.8648183345794678
vn 0.9984418749809265 0.048020731657743454 0.02842138521373272
vn -0.4395395517349243 -0.12333162128925323 -0.889715850353241
vn 0 1 0
vn -0.7187532782554626 0.6526814103126526 -0.23958443105220795
vn -0.23958435654640198 0.6526813507080078 0.7187533378601074
vn 0 -1 0
vn -0.23180396854877472 -0.6801977753639221 -0.6954120397567749
vn 0.6954119801521301 -0.6801978349685669 -0.23180405795574188
vn 0.7187533378601074 0.6526813507080078 0.23958435654640198
vn 0.23958440124988556 0.6526813507080078 -0.7187533378601074
vn -0.6954119205474854 -0.6801978349685669 0.2318040430545807
vn 0.23180405795574188 -0.6801978349685669 0.6954119801521301
vn 0 1 0
vn -0.23958443105220795 0.6526814103126526 0.7187532782554626
vn 0.7187533378601074 0.6526813507080078 0.23958435654640198
vn 0 -1 0
vn -0.6954120397567749 -0.6801977753639221 0.23180396854877472
vn -0.23180405795574188 -0.6801978349685669 -0.6954119801521301
vn 0.23958435654640198 0.6526813507080078 -0.7187533378601074
vn -0.7187533378601074 0.6526813507080078 -0.23958440124988556
vn 0.2318040430545807 -0.6801978349685669 0.6954119205474854
vn 0.6954119801521301 -0.6801978349685669 -0.23180405795574188
vn -0.23180405795574188 -0.6801978349685669 -0.6954119801521301
vn -0.6954120397567749 -0.6801977753639221 0.23180396854877472
vn -0.7187533378601074 0.6526813507080078 -0.23958440124988556
vn 0.23958435654640198 0.6526813507080078 -0.7187533378601074
vn 0 -1 0
vn 0.6954119801521301 -0.6801978349685669 -0.23180405795574188
vn 0.2318040430545807 -0.6801978349685669 0.6954119205474854
vn 0.7187533378601074 0.6526813507080078 0.23958435654640198
vn 0 1 0
vn -0.23958443105220795 0.6526814103126526 0.7187532782554626
vn -0.23180396854877472 -0.6801977753639221 -0.6954120397567749
vn -0.6954119205474854 -0.6801978349685669 0.2318040430545807
vn -0.7187532782554626 0.6526814103126526 -0.23958443105220795
vn -0.23958435654640198 0.6526813507080078 0.7187533378601074
vn 0.23958440124988556 0.6526813507080078 -0.7187533378601074
vn 0 1 0
vn 0.7187533378601074 0.6526813507080078 0.23958435654640198
vn 0.23180405795574188 -0.6801978349685669 0.6954119801521301
vn 0.6954119801521301 -0.6801978349685669 -0.23180405795574188
vn 0 -1 0
vn 0.7186927795410156 -0.6527553796768188 -0.23956432938575745
vn -0.23956423997879028 -0.6527553796768188 -0.7186928391456604
vn 0.23182432353496552 0.6801284551620483 -0.6954730749130249
vn 0.6954730749130249 0.6801284551620483 0.23182423412799835
vn -3.601601297082026e-16 -1 1.5743098292547617e-23
vn 0.23956437408924103 -0.6527554392814636 0.7186927199363708
vn -0.7186927795410156 -0.6527554392814636 0.23956429958343506
vn -0.23182429373264313 0.6801284551620483 0.6954730749130249
vn 0 1 0
vn -0.6954730153083801 0.6801285147666931 -0.2318243384361267
vn -0.5017391443252563 -0.03630106896162033 -0.8642569184303284
vn -0.847968339920044 -0.03677735850214958 -0.5287694334983826
vn -0.24148613214492798 -0.03635549917817116 -0.9697229862213135
vn -0.9494069814682007 -0.04030859097838402 -0.3114507496356964
vn -0.9804986119270325 -0.0408550389111042 0.19223250448703766
vn -0.8749857544898987 -0.0375000536441803 0.48269423842430115
vn -0.5206015110015869 -0.036280371248722076 0.8530285954475403
vn -0.29403865337371826 -0.038881804794073105 0.9550023674964905
vn 0.20696142315864563 -0.03849279507994652 0.9775915741920471
vn 0.4826192557811737 -0.03378051891922951 0.8751785755157471
vn 0.8585675954818726 -0.03497762978076935 0.5115058422088623
vn 0.9655231833457947 -0.041009943932294846 0.2570664584636688
vn 0.9666694402694702 -0.03914547711610794 -0.2530173659324646
vn 0.8596959710121155 -0.03247344493865967 -0.5097728371620178
vn 0.5052233934402466 -0.028149215504527092 -0.8625293970108032
vn 0.2612517476081848 -0.03301601856946945 -0.9647058844566345
vt 0.6586151123046875 0.6075124144554138
vt 0.6260064244270325 0.6231883764266968
vt 0.6862878799438477 0.6231883764266968
vt 0.6862878799438477 0.5010572075843811
vt 0.6260064244270325 0.5451585650444031
vt 0.6862878799438477 0.5451585650444031
vt 0.6260064244270325 0.5010572075843811
vt 0.6862878799438477 0.5451585650444031
vt 0.6862878799438477 0.5010572075843811
vt 0.6260064840316772 0.5451585650444031
vt 0.6260064840316772 0.5010572075843811
vt 0.6862878799438477 0.5010572075843811
vt 0.6260064244270325 0.5451585650444031
vt 0.6862878799438477 0.5451585650444031
vt 0.6260064244270325 0.5010572075843811
vt 0.6862878799438477 0.5451585650444031
vt 0.6862878799438477 0.5010572075843811
vt 0.6260064840316772 0.5451585650444031
vt 0.6260064840316772 0.5010572075843811
vt 0.6862878799438477 0.5010572075843811
vt 0.6260064244270325 0.5451585650444031
vt 0.6862878799438477 0.5451585650444031
vt 0.6260064244270325 0.5010572075843811
vt 0.6862878799438477 0.5451585650444031
vt 0.6862878799438477 0.5010572075843811
vt 0.6260064840316772 0.5451585650444031
vt 0.6260064840316772 0.5010572075843811
vt 0.6862878799438477 0.5010572075843811
vt 0.6260064244270325 0.5451585650444031
vt 0.6862878799438477 0.5451585650444031
vt 0.6260064244270325 0.5010572075843811
vt 0.6862878799438477 0.5451585650444031
vt 0.6862878799438477 0.5010572075843811
vt 0.6260064840316772 0.5451585650444031
vt 0.6260064840316772 0.5010572075843811
vt 0.6862878799438477 0.5451585650444031
vt 0.6260064840316772 0.5451585650444031
vt 0.6260064840316772 0.6231883764266968
vt 0.6862878799438477 0.6231883764266968
vt 0.6260064244270325 0.5451585650444031
vt 0.6260064244270325 0.6231883764266968
vt 0.6862878799438477 0.5451585650444031
vt 0.6862878799438477 0.6231883764266968
vt 0.6862878799438477 0.5010572075843811
vt 0.6260064244270325 0.5010572075843811
vt 0.6862878799438477 0.5010572075843811
vt 0.6260064840316772 0.5010572075843811
vt 0.2803073227405548 0.6202050447463989
vt 0.2803472876548767 0.6202050447463989
vt 0.2513319253921509 0.6202050447463989
vt 0.2803073227405548 0.5043032765388489
vt 0.30928272008895874 0.5043032765388489
vt 0.2803073227405548 0.5043032765388489
vt 0.2803073227405548 0.6202050447463989
vt 0.30928272008895874 0.6202050447463989
vt 0.2803472876548767 0.5043032765388489
vt 0.2513319253921509 0.5043032765388489
vt 0.2803073227405548 0.6202050447463989
vt 0.2803472876548767 0.6202050447463989
vt 0.2513319253921509 0.6202050447463989
vt 0.2803073227405548 0.5043032765388489
vt 0.30928272008895874 0.5043032765388489
vt 0.2803073227405548 0.5043032765388489
vt 0.2803073227405548 0.6202050447463989
vt 0.30928272008895874 0.6202050447463989
vt 0.2803472876548767 0.5043032765388489
vt 0.2513319253921509 0.5043032765388489
vt 0.2803073227405548 0.5043032765388489
vt 0.30928272008895874 0.5043032765388489
vt 0.30928272008895874 0.6202050447463989
vt 0.2803073227405548 0.6202050447463989
vt 0.2803073227405548 0.5043032765388489
vt 0.2513319253921509 0.5043032765388489
vt 0.2803472876548767 0.5043032765388489
vt 0.2513319253921509 0.6202050447463989
vt 0.2803073227405548 0.6202050447463989
vt 0.2803472876548767 0.6202050447463989
vt 0.30928272008895874 0.5043032765388489
vt 0.2803472876548767 0.5043032765388489
vt 0.2803472876548767 0.6202050447463989
vt 0.2513319253921509 0.6202050447463989
vt 0.30928272008895874 0.6202050447463989
vt 0.2803073227405548 0.6202050447463989
vt 0.2803073227405548 0.6202050447463989
vt 0.2513319253921509 0.5043032765388489
vt 0.2803073227405548 0.5043032765388489
vt 0.2803073227405548 0.5043032765388489
vt 0.2803073227405548 0.5043032765388489
vt 0.30928272008895874 0.5043032765388489
vt 0.30928272008895874 0.6202050447463989
vt 0.2803073227405548 0.6202050447463989
vt 0.2803073227405548 0.5043032765388489
vt 0.2513319253921509 0.5043032765388489
vt 0.2803472876548767 0.5043032765388489
vt 0.2513319253921509 0.6202050447463989
vt 0.2803073227405548 0.6202050447463989
vt 0.2803472876548767 0.6202050447463989
vt 0.49818840622901917 0.6304347515106201
vt 0.376811683177948 0.748792290687561
vt 0.49818840622901917 0.748792290687561
vt 0.376811683177948 0.6304347515106201
vt 0.4993962347507477 0.748792290687561
vt 0.4993962347507477 0.6304347515106201
vt 0.37801939249038696 0.748792290687561
vt 0.37801939249038696 0.6304347515106201
vt 0.49818840622901917 0.748792290687561
vt 0.49818840622901917 0.6304347515106201
vt 0.3768116235733032 0.748792290687561
vt 0.3768116235733032 0.6304347515106201
vt 0.49939611554145813 0.748792290687561
vt 0.49939611554145813 0.6304347515106201
vt 0.3780193328857422 0.748792290687561
vt 0.3780193328857422 0.6304347515106201
g Geoset0
s 1
usemtl mat_gunshop
f 1/1/1 2/2/2 3/3/3
f 4/4/4 5/5/5 6/6/6
f 4/4/4 7/7/7 5/5/5
f 7/7/7 8/8/8 5/5/5
f 7/7/7 9/9/9 8/8/8
f 9/9/9 10/10/10 8/8/8
f 9/9/9 11/11/11 10/10/10
f 12/12/12 13/13/13 14/14/14
f 12/12/12 15/15/15 13/13/13
f 15/15/15 16/16/16 13/13/13
f 15/15/15 17/17/17 16/16/16
f 17/17/17 18/18/18 16/16/16
f 17/17/17 19/19/19 18/18/18
f 20/20/20 21/21/21 22/22/22
f 20/20/20 23/23/23 21/21/21
f 23/23/23 24/24/24 21/21/21
f 23/23/23 25/25/25 24/24/24
f 25/25/25 26/26/26 24/24/24
f 25/25/25 27/27/27 26/26/26
f 28/28/28 29/29/29 30/30/30
f 28/28/28 31/31/31 29/29/29
f 31/31/31 32/32/32 29/29/29
f 31/31/31 33/33/33 32/32/32
f 33/33/33 34/34/34 32/32/32
f 33/33/33 35/35/35 34/34/34
f 36/36/36 37/37/37 38/38/38
f 36/36/36 38/38/38 39/39/39
f 40/40/40 36/36/36 39/39/39
f 40/40/40 39/39/39 41/41/41
f 42/42/42 40/40/40 41/41/41
f 42/42/42 41/41/41 43/43/43
f 44/44/44 40/40/40 42/42/42
f 44/44/44 45/45/45 40/40/40
f 45/45/45 36/36/36 40/40/40
f 45/45/45 46/46/46 36/36/36
f 46/46/46 37/37/37 36/36/36
f 46/46/46 47/47/47 37/37/37
f 48/48/48 49/49/49 50/50/50
f 51/51/51 52/52/52 53/53/53
f 48/48/48 50/50/50 54/54/54
f 48/48/48 54/54/54 55/55/55
f 48/48/48 55/55/55 49/49/49
f 52/52/52 49/49/49 55/55/55
f 52/52/52 56/56/56 49/49/49
f 51/51/51 56/56/56 52/52/52
f 51/51/51 57/57/57 56/56/56
f 51/51/51 53/53/53 57/57/57
f 56/56/56 50/50/50 49/49/49
f 56/56/56 57/57/57 50/50/50
f 57/57/57 54/54/54 50/50/50
f 57/57/57 53/53/53 54/54/54
f 53/53/53 55/55/55 54/54/54
f 53/53/53 52/52/52 55/55/55
f 58/58/58 59/59/59 60/60/60
f 61/61/61 62/62/62 63/63/63
f 58/58/58 60/60/60 64/64/64
f 58/58/58 64/64/64 65/65/65
f 58/58/58 65/65/65 59/59/59
f 62/62/62 59/59/59 65/65/65
f 62/62/62 66/66/66 59/59/59
f 61/61/61 66/66/66 62/62/62
f 61/61/61 67/67/67 66/66/66
f 61/61/61 63/63/63 67/67/67
f 66/66/66 60/60/60 59/59/59
f 66/66/66 67/67/67 60/60/60
f 67/67/67 64/64/64 60/60/60
f 67/67/67 63/63/63 64/64/64
f 63/63/63 65/65/65 64/64/64
f 63/63/63 62/62/62 65/65/65
f 68/68/68 69/69/69 70/70/70
f 68/68/68 70/70/70 71/71/71
f 72/72/72 73/73/73 74/74/74
f 74/74/74 73/73/73 75/75/75
f 73/73/73 71/71/71 75/75/75
f 76/76/76 75/75/75 71/71/71
f 76/76/76 71/71/71 70/70/70
f 76/76/76 70/70/70 77/77/77
f 69/69/69 77/77/77 70/70/70
f 73/73/73 68/68/68 71/71/71
f 72/72/72 68/68/68 73/73/73
f 72/72/72 69/69/69 68/68/68
f 72/72/72 74/74/74 69/69/69
f 69/69/69 74/74/74 77/77/77
f 74/74/74 75/75/75 77/77/77
f 76/76/76 77/77/77 75/75/75
f 78/78/78 79/79/79 80/80/80
f 79/79/79 81/81/81 80/80/80
f 78/78/78 80/80/80 82/82/82
f 83/83/83 82/82/82 80/80/80
f 83/83/83 80/80/80 81/81/81
f 83/83/83 81/81/81 84/84/84
f 85/85/85 84/84/84 81/81/81
f 85/85/85 86/86/86 84/84/84
f 87/87/87 86/86/86 85/85/85
f 79/79/79 85/85/85 81/81/81
f 87/87/87 85/85/85 79/79/79
f 87/87/87 79/79/79 78/78/78
f 87/87/87 78/78/78 86/86/86
f 86/86/86 78/78/78 82/82/82
f 86/86/86 82/82/82 84/84/84
f 83/83/83 84/84/84 82/82/82
f 88/88/88 89/89/89 90/90/90
f 88/88/88 90/90/90 91/91/91
f 92/92/92 93/93/93 94/94/94
f 94/94/94 93/93/93 95/95/95
f 93/93/93 91/91/91 95/95/95
f 96/96/96 95/95/95 91/91/91
f 96/96/96 91/91/91 90/90/90
f 96/96/96 90/90/90 97/97/97
f 89/89/89 97/97/97 90/90/90
f 93/93/93 88/88/88 91/91/91
f 92/92/92 88/88/88 93/93/93
f 92/92/92 89/89/89 88/88/88
f 92/92/92 94/94/94 89/89/89
f 89/89/89 94/94/94 97/97/97
f 94/94/94 95/95/95 97/97/97
f 96/96/96 97/97/97 95/95/95
f 98/98/98 99/99/99 100/100/100
f 98/98/98 101/101/101 99/99/99
f 101/101/101 102/102/102 99/99/99
f 101/101/101 103/103/103 102/102/102
f 103/103/103 104/104/104 102/102/102
f 103/103/103 105/105/105 104/104/104
f 105/105/105 106/106/106 104/104/104
f 105/105/105 107/107/107 106/106/106
f 107/107/107 108/108/108 106/106/106
f 107/107/107 109/109/109 108/108/108
f 109/109/109 110/110/110 108/108/108
f 109/109/109 111/111/111 110/110/110
f 111/111/111 112/112/112 110/110/110
f 111/111/111 113/113/113 112/112/112
f 113/113/113 100/100/100 112/112/112
f 113/113/113 98/98/98 100/100/100
