# Exported using wow.export v0.1.65
o dunmoroghstonefence01
mtllib dunmoroghstonefence01.mtl
v -0.3617514371871948 -0.0348861888051033 0.2529453933238983
v 0.3380967080593109 -0.0348861888051033 0.2529453933238983
v 0.3380967080593109 0.6040025949478149 0.2529453933238983
v -0.4282369613647461 1.1691887378692627 0.30659234523773193
v -0.4282369613647461 1.1691887378692627 -0.36540693044662476
v -0.3617514371871948 0.6040025949478149 -0.3117600083351135
v -0.3617514371871948 0.6040025949478149 0.2529453933238983
v -0.3617514371871948 -0.0348861888051033 0.2529453933238983
v -0.3617514371871948 -0.0348861888051033 -0.3117600083351135
v -0.19910258054733276 0.7830904722213745 -5.574044704437256
v 0.17544816434383392 0.7830904722213745 -5.574044704437256
v 0.33809685707092285 0.6040024161338806 -5.574045181274414
v -0.3617512285709381 0.6040024161338806 -5.574044704437256
v 0.33809685707092285 -0.0348861962556839 -5.574045181274414
v -0.3617512285709381 -0.0348861962556839 -5.574045181274414
v 0.17544801533222198 0.7830907106399536 -0.3117600083351135
v 0.4045822322368622 1.1691888570785522 -0.36540693044662476
v 0.3380967080593109 0.6040025949478149 -0.3117600083351135
v 0.21103031933307648 1.2429585456848145 -0.42588722705841064
v -0.23468507826328278 1.2429585456848145 -0.42588722705841064
v -0.19910277426242828 0.7830906510353088 -0.3117600083351135
v -0.4282369613647461 1.1691887378692627 -0.36540693044662476
v -0.3617514371871948 0.6040025949478149 -0.3117600083351135
v -0.36175140738487244 -0.034886155277490616 -2.9158103466033936
v -0.3617514371871948 -0.0348861888051033 -0.3117600083351135
v -0.3617514371871948 0.6040025949478149 -0.3117600083351135
v -0.3617515563964844 0.6848328709602356 -2.9158103466033936
v -0.19910277426242828 0.7830906510353088 -0.3117600083351135
v -0.19910287857055664 0.8639208674430847 -2.9158103466033936
v 0.17544801533222198 0.7830907106399536 -0.3117600083351135
v 0.17544789612293243 0.8639208674430847 -2.9158103466033936
v -0.19910258054733276 0.7830904722213745 -5.574044704437256
v -0.3617512285709381 0.6040024161338806 -5.574044704437256
v -0.3617512285709381 -0.0348861962556839 -5.574045181274414
v 0.33809685707092285 0.6040024161338806 -5.574045181274414
v 0.17544816434383392 0.7830904722213745 -5.574044704437256
v 0.3380967080593109 0.6040025949478149 -0.3117600083351135
v 0.33809661865234375 0.6848328709602356 -2.9158103466033936
v 0.33809685707092285 -0.0348861962556839 -5.574045181274414
v 0.3380967080593109 -0.0348861888051033 -0.3117600083351135
v 0.3380967080593109 -0.034886155277490616 -2.9158103466033936
v 0.3380967080593109 0.6040025949478149 0.2529453933238983
v 0.3380967080593109 -0.0348861888051033 0.2529453933238983
v 0.3380967080593109 -0.0348861888051033 -0.3117600083351135
v 0.3380967080593109 0.6040025949478149 -0.3117600083351135
v 0.4045822322368622 1.1691888570785522 -0.36540693044662476
v -0.23468507826328278 1.2429585456848145 -0.42588722705841064
v -0.4282369613647461 1.1691887378692627 -0.36540693044662476
v -0.4282369613647461 1.1691887378692627 0.30659234523773193
v -0.23468507826328278 1.2429585456848145 0.36707258224487305
v 0.21103031933307648 1.2429585456848145 -0.42588722705841064
v 0.21103031933307648 1.2429585456848145 0.36707258224487305
v 0.4045822322368622 1.1691888570785522 0.30659234523773193
v 0.21103031933307648 1.2429585456848145 0.36707258224487305
v 0.3380967080593109 0.6040025949478149 0.2529453933238983
v -0.3617514371871948 0.6040025949478149 0.2529453933238983
v -0.23468507826328278 1.2429585456848145 0.36707258224487305
v -0.4282369613647461 1.1691887378692627 0.30659234523773193
vn -0.7071067690849304 0 0.7071067690849304
vn 0.7071067690849304 0 0.7071067690849304
vn 0.7291489243507385 -0.09121666103601456 0.6782487630844116
vn -0.8547571897506714 0.43840086460113525 0.2778395414352417
vn -0.5892993211746216 0.1954934149980545 -0.7839060425758362
vn -0.9880656599998474 0.05288714915513992 -0.14466914534568787
vn -0.4923248887062073 -0.12915180623531342 0.860776424407959
vn -0.7071067690849304 0 0.7071067690849304
vn -1 0 -5.8494640242656715e-9
vn -0.350979208946228 0.792767345905304 -0.4983307421207428
vn 0.35097917914390564 0.7927674055099487 -0.49833065271377563
vn 0.5979353785514832 0.324097603559494 -0.7330989241600037
vn -0.662956714630127 0.1626293808221817 -0.7307804822921753
vn 0.7071067690849304 1.4604859188693808e-7 -0.7071068286895752
vn -0.7071068286895752 6.743498914829615e-8 -0.7071067094802856
vn 0.2114509791135788 0.2132595032453537 -0.9538390040397644
vn 0.768742024898529 0.35633984208106995 -0.5310909748077393
vn 0.9469215273857117 0.24726228415966034 -0.2054288685321808
vn 0.17640484869480133 0.7742676734924316 -0.6077753305435181
vn -0.24623945355415344 0.5764000415802002 -0.7791849374771118
vn -0.3738318085670471 0.6513983607292175 -0.6602498888969421
vn -0.5892993211746216 0.1954934149980545 -0.7839060425758362
vn -0.9880656599998474 0.05288714915513992 -0.14466914534568787
vn -1 -1.0582114384760644e-7 -3.423600958285533e-8
vn -1 0 -5.8494640242656715e-9
vn -0.9880656599998474 0.05288714915513992 -0.14466914534568787
vn -0.8791598677635193 0.4765269458293915 0.00015063700266182423
vn -0.3738318085670471 0.6513983607292175 -0.6602498888969421
vn -0.40482768416404724 0.9143929481506348 0.0002890024916268885
vn 0.2114509791135788 0.2132595032453537 -0.9538390040397644
vn 0.40482768416404724 0.9143929481506348 0.00028903025668114424
vn -0.350979208946228 0.792767345905304 -0.4983307421207428
vn -0.662956714630127 0.1626293808221817 -0.7307804822921753
vn -0.7071068286895752 6.743498914829615e-8 -0.7071067094802856
vn 0.5979353785514832 0.324097603559494 -0.7330989241600037
vn 0.35097917914390564 0.7927674055099487 -0.49833065271377563
vn 0.9469215273857117 0.24726228415966034 -0.2054288685321808
vn 0.9712052345275879 0.23824442923069 0.00007535716576967388
vn 0.7071067690849304 1.4604859188693808e-7 -0.7071068286895752
vn 1 3.1746342443739195e-8 -8.774195592309297e-9
vn 1 1.2698536977495678e-7 2.865115433792198e-8
vn 0.7291489243507385 -0.09121666103601456 0.6782487630844116
vn 0.7071067690849304 0 0.7071067690849304
vn 1 3.1746342443739195e-8 -8.774195592309297e-9
vn 0.9469215273857117 0.24726228415966034 -0.2054288685321808
vn 0.768742024898529 0.35633984208106995 -0.5310909748077393
vn -0.24623945355415344 0.5764000415802002 -0.7791849374771118
vn -0.5892993211746216 0.1954934149980545 -0.7839060425758362
vn -0.8547571897506714 0.43840086460113525 0.2778395414352417
vn -0.18299679458141327 0.7913814187049866 0.5832903385162354
vn 0.17640484869480133 0.7742676734924316 -0.6077753305435181
vn 0.24737294018268585 0.6135872006416321 0.7498782277107239
vn 0.8039379715919495 0.3493715226650238 0.4812725782394409
vn 0.24737294018268585 0.6135872006416321 0.7498782277107239
vn 0.7291489243507385 -0.09121666103601456 0.6782487630844116
vn -0.4923248887062073 -0.12915180623531342 0.860776424407959
vn -0.18299679458141327 0.7913814187049866 0.5832903385162354
vn -0.8547571897506714 0.43840086460113525 0.2778395414352417
vt 0.2455640733242035 0.7770423889160156
vt 0.0008128583431243896 0.7770423889160156
vt 0.0008128583431243896 0.3512396812438965
vt 0.2495344579219818 0.07510584592819214
vt 0.005236104130744934 0.07510584592819214
vt 0.006488710641860962 0.35263848304748535
vt 0.2506972849369049 0.35263848304748535
vt 0.2506972849369049 0.7757617235183716
vt 0.006488710641860962 0.7757617235183716
vt 1.0673319101333618 0.9721779227256775
vt 1.2022243738174438 0.9697809815406799
vt 1.2555068731307983 0.7938333749771118
vt 1.0071505308151245 0.7938333749771118
vt 1.2555068731307983 0.5250579118728638
vt 1.0071502923965454 0.525057852268219
vt 0.1844603270292282 0.2648543119430542
vt 0.24889275431632996 0.07605165243148804
vt 0.2507621645927429 0.3512396812438965
vt 0.19690419733524323 0.03407996892929077
vt 0.04102839529514313 0.03407996892929077
vt 0.053472235798835754 0.2648543119430542
vt 0.004740297794342041 0.07605165243148804
vt 0.006010979413986206 0.3512396812438965
vt 1.2509081363677979 0.525057852268219
vt 0.013898886740207672 0.525057852268219
vt 0.013898856937885284 0.7961918711662292
vt 1.2509080171585083 0.7961918711662292
vt 0.013898782432079315 0.917994499206543
vt 1.2509080171585083 0.917994499206543
vt 0.01389872282743454 0.9906452298164368
vt 1.2509080171585083 0.9906452298164368
vt 0.013898782432079315 0.917994499206543
vt 0.013898856937885284 0.7961918711662292
vt 0.013898886740207672 0.525057852268219
vt 0.013898737728595734 0.7961918711662292
vt 0.01389872282743454 0.9906452298164368
vt 0.013898737728595734 0.7961918711662292
vt 1.2509080171585083 0.7961918711662292
vt 0.013898767530918121 0.525057852268219
vt 0.013898767530918121 0.525057852268219
vt 1.2509080171585083 0.5250579118728638
vt 0.0008776322938501835 0.35263848304748535
vt 0.0008776322938501835 0.7757617235183716
vt 0.2450861632823944 0.7757617235183716
vt 0.2450861632823944 0.35263848304748535
vt 0.2463388293981552 0.07510584592819214
vt 0.2463388890028 -0.09184598922729492
vt 0.2463388890028 0.07510584592819214
vt 0.002040538704022765 0.07510584592819214
vt 0.0020405384711921215 -0.09184598922729492
vt 0.2463388293981552 -0.021260499954223633
vt 0.0020404790993779898 -0.021260499954223633
vt 0.002040449297055602 0.07510584592819214
vt 0.05467085540294647 0.03407996892929077
vt 0.0043127937242388725 0.34697991609573364
vt 0.2455640733242035 0.3512396812438965
vt 0.21054671704769135 0.03407996892929077
vt 0.24683475494384766 0.07605171203613281
g Geoset0
s 1
usemtl mat_dunmoroghstone_256
f 1/1/1 2/2/2 3/3/3
f 4/4/4 5/5/5 6/6/6
f 6/6/6 7/7/7 4/4/4
f 8/8/8 7/7/7 6/6/6
f 6/6/6 9/9/9 8/8/8
f 10/10/10 11/11/11 12/12/12
f 12/12/12 13/13/13 10/10/10
f 13/13/13 12/12/12 14/14/14
f 14/14/14 15/15/15 13/13/13
f 16/16/16 17/17/17 18/18/18
f 17/17/17 16/16/16 19/19/19
f 20/20/20 19/19/19 16/16/16
f 16/16/16 21/21/21 20/20/20
f 20/20/20 21/21/21 22/22/22
f 23/23/23 22/22/22 21/21/21
f 24/24/24 25/25/25 26/26/26
f 26/26/26 27/27/27 24/24/24
f 28/28/28 29/29/29 27/27/27
f 27/27/27 26/26/26 28/28/28
f 28/28/28 30/30/30 31/31/31
f 31/31/31 29/29/29 28/28/28
f 31/31/31 32/32/32 29/29/29
f 32/32/32 27/27/27 29/29/29
f 27/27/27 32/32/32 33/33/33
f 33/33/33 24/24/24 27/27/27
f 24/24/24 33/33/33 34/34/34
f 31/31/31 35/35/35 36/36/36
f 32/32/32 31/31/31 36/36/36
f 31/31/31 30/30/30 37/37/37
f 37/37/37 38/38/38 31/31/31
f 35/35/35 31/31/31 38/38/38
f 38/38/38 39/39/39 35/35/35
f 38/38/38 37/37/37 40/40/40
f 40/40/40 41/41/41 38/38/38
f 39/39/39 38/38/38 41/41/41
f 42/42/42 43/43/43 44/44/44
f 44/44/44 45/45/45 42/42/42
f 42/42/42 45/45/45 46/46/46
f 47/47/47 48/48/48 49/49/49
f 49/49/49 50/50/50 47/47/47
f 51/51/51 47/47/47 50/50/50
f 50/50/50 52/52/52 51/51/51
f 46/46/46 51/51/51 52/52/52
f 52/52/52 53/53/53 46/46/46
f 46/46/46 53/53/53 42/42/42
f 53/53/53 54/54/54 55/55/55
f 56/56/56 55/55/55 54/54/54
f 54/54/54 57/57/57 56/56/56
f 57/57/57 58/58/58 56/56/56
f 3/3/3 56/56/56 1/1/1
