# Exported using wow.export v0.1.65
o dunmoroghstonefence02
mtllib dunmoroghstonefence02.mtl
v -0.3617514371871948 -0.0348861888051033 2.9859535694122314
v 0.3380967080593109 -0.0348861888051033 2.9859535694122314
v 0.3380967080593109 0.6040025949478149 2.9859535694122314
v -0.3617514371871948 0.6040025949478149 2.421248435974121
v -0.3617514371871948 -0.0348861888051033 2.421248435974121
v -0.3617514371871948 -0.0348861888051033 2.9859535694122314
v -0.4282369613647461 1.1691887378692627 3.0396006107330322
v -0.4282369613647461 1.1691887378692627 2.3676013946533203
v -0.3617514371871948 0.6040025949478149 2.9859535694122314
v 0.33809685707092285 -0.03488611429929733 -0.01852373033761978
v -0.3617512285709381 -0.03488611429929733 -0.018523486331105232
v -0.3617512285709381 0.6040025353431702 -0.018523486331105232
v 0.33809685707092285 0.6040025353431702 -0.018523486331105232
v -0.19910266995429993 0.7830904126167297 -0.018523242324590683
v 0.17544816434383392 0.7830904722213745 -0.018523242324590683
v 0.3380967080593109 -0.0348861888051033 2.421248435974121
v 0.33809685707092285 -0.03488611429929733 -0.01852373033761978
v 0.33809685707092285 0.6040025353431702 -0.018523486331105232
v 0.3380967080593109 0.6040025949478149 2.421248435974121
v 0.17544816434383392 0.7830904722213745 -0.018523242324590683
v 0.17544801533222198 0.7830907106399536 2.421248435974121
v -0.19910277426242828 0.7830906510353088 2.421248435974121
v -0.3617512285709381 -0.03488611429929733 -0.018523486331105232
v -0.3617514371871948 -0.0348861888051033 2.421248435974121
v -0.3617514371871948 0.6040025949478149 2.421248435974121
v -0.3617512285709381 0.6040025353431702 -0.018523486331105232
v -0.19910266995429993 0.7830904126167297 -0.018523242324590683
v 0.17544801533222198 0.7830907106399536 2.421248435974121
v 0.4045822322368622 1.1691888570785522 2.3676013946533203
v 0.3380967080593109 0.6040025949478149 2.421248435974121
v 0.21103031933307648 1.2429585456848145 2.3071210384368896
v -0.23468507826328278 1.2429585456848145 2.3071210384368896
v -0.19910277426242828 0.7830906510353088 2.421248435974121
v -0.4282369613647461 1.1691887378692627 2.3676013946533203
v -0.3617514371871948 0.6040025949478149 2.421248435974121
v 0.3380967080593109 0.6040025949478149 2.9859535694122314
v 0.3380967080593109 -0.0348861888051033 2.9859535694122314
v 0.3380967080593109 -0.0348861888051033 2.421248435974121
v 0.3380967080593109 0.6040025949478149 2.421248435974121
v 0.4045822322368622 1.1691888570785522 2.3676013946533203
v -0.23468507826328278 1.2429585456848145 2.3071210384368896
v -0.4282369613647461 1.1691887378692627 2.3676013946533203
v -0.4282369613647461 1.1691887378692627 3.0396006107330322
v -0.23468507826328278 1.2429585456848145 3.100080966949463
v 0.21103031933307648 1.2429585456848145 2.3071210384368896
v 0.21103031933307648 1.2429585456848145 3.100080966949463
v 0.4045822322368622 1.1691888570785522 3.0396006107330322
v 0.21103031933307648 1.2429585456848145 3.100080966949463
v 0.3380967080593109 0.6040025949478149 2.9859535694122314
v -0.3617514371871948 0.6040025949478149 2.9859535694122314
v -0.23468507826328278 1.2429585456848145 3.100080966949463
v -0.4282369613647461 1.1691887378692627 3.0396006107330322
vn -0.7071067690849304 0 0.7071067690849304
vn 0.7071067690849304 0 0.7071067690849304
vn 0.7291489243507385 -0.09121666103601456 0.6782487630844116
vn -0.9876164793968201 0.05288364738225937 -0.14770567417144775
vn -1 0 -3.745997290138803e-8
vn -0.7071067690849304 0 0.7071067690849304
vn -0.8547571897506714 0.43840086460113525 0.2778395414352417
vn -0.5892993211746216 0.1954934149980545 -0.7839060425758362
vn -0.4923248887062073 -0.12915180623531342 0.860776424407959
vn 0.4472135007381439 1.7059856816104002e-7 -0.8944272398948669
vn -0.8944271802902222 2.1324819243773163e-8 -0.4472135901451111
vn -0.6023076772689819 0.3264944851398468 -0.7284413576126099
vn 0.6653744578361511 0.16324786841869354 -0.7284414768218994
vn -0.27315106987953186 0.617068350315094 -0.7379804253578186
vn 0.39044588804244995 0.8820452094078064 -0.26371994614601135
vn 1 -5.954104600309172e-15 3.121664349237108e-8
vn 0.4472135007381439 1.7059856816104002e-7 -0.8944272398948669
vn 0.6653744578361511 0.16324786841869354 -0.7284414768218994
vn 0.9451265335083008 0.24683856964111328 -0.21402476727962494
vn 0.39044588804244995 0.8820452094078064 -0.26371994614601135
vn 0.20890501141548157 0.21080626547336578 -0.9549447298049927
vn -0.36783668398857117 0.6411126255989075 -0.6735508441925049
vn -0.8944271802902222 2.1324819243773163e-8 -0.4472135901451111
vn -1 0 -3.745997290138803e-8
vn -0.9876164793968201 0.05288364738225937 -0.14770567417144775
vn -0.6023076772689819 0.3264944851398468 -0.7284413576126099
vn -0.27315106987953186 0.617068350315094 -0.7379804253578186
vn 0.20890501141548157 0.21080626547336578 -0.9549447298049927
vn 0.768742024898529 0.35633984208106995 -0.5310909748077393
vn 0.9451265335083008 0.24683856964111328 -0.21402476727962494
vn 0.17640484869480133 0.7742676734924316 -0.6077753305435181
vn -0.24623945355415344 0.5764000415802002 -0.7791849374771118
vn -0.36783668398857117 0.6411126255989075 -0.6735508441925049
vn -0.5892993211746216 0.1954934149980545 -0.7839060425758362
vn -0.9876164793968201 0.05288364738225937 -0.14770567417144775
vn 0.7291489243507385 -0.09121666103601456 0.6782487630844116
vn 0.7071067690849304 0 0.7071067690849304
vn 1 -5.954104600309172e-15 3.121664349237108e-8
vn 0.9451265335083008 0.24683856964111328 -0.21402476727962494
vn 0.768742024898529 0.35633984208106995 -0.5310909748077393
vn -0.24623945355415344 0.5764000415802002 -0.7791849374771118
vn -0.5892993211746216 0.1954934149980545 -0.7839060425758362
vn -0.8547571897506714 0.43840086460113525 0.2778395414352417
vn -0.18299679458141327 0.7913814187049866 0.5832903385162354
vn 0.17640484869480133 0.7742676734924316 -0.6077753305435181
vn 0.24737294018268585 0.6135872006416321 0.7498782277107239
vn 0.8039379715919495 0.3493715226650238 0.4812725782394409
vn 0.24737294018268585 0.6135872006416321 0.7498782277107239
vn 0.7291489243507385 -0.09121666103601456 0.6782487630844116
vn -0.4923248887062073 -0.12915180623531342 0.860776424407959
vn -0.18299679458141327 0.7913814187049866 0.5832903385162354
vn -0.8547571897506714 0.43840086460113525 0.2778395414352417
vt 0.2455640733242035 0.7770423889160156
vt 0.0008128583431243896 0.7770423889160156
vt 0.0008128583431243896 0.3512396812438965
vt 0.006488710641860962 0.35263848304748535
vt 0.006488710641860962 0.7757617235183716
vt 0.2506972849369049 0.7757617235183716
vt 0.2495344579219818 0.07510584592819214
vt 0.005236104130744934 0.07510584592819214
vt 0.2506972849369049 0.35263848304748535
vt 1.2555068731307983 0.5250579118728638
vt 1.0071502923965454 0.525057852268219
vt 1.0071505308151245 0.7938333749771118
vt 1.2555068731307983 0.7938333749771118
vt 1.0673319101333618 0.9721779227256775
vt 1.2022243738174438 0.9697809815406799
vt 0.013898767530918121 0.525057852268219
vt 1.2509080171585083 0.5250579118728638
vt 1.2509080171585083 0.7961918711662292
vt 0.013898737728595734 0.7961918711662292
vt 1.2509080171585083 0.9906452298164368
vt 0.01389872282743454 0.9906452298164368
vt 0.013898782432079315 0.917994499206543
vt 1.2509081363677979 0.525057852268219
vt 0.013898886740207672 0.525057852268219
vt 0.013898856937885284 0.7961918711662292
vt 1.2509080171585083 0.7961918711662292
vt 1.2509080171585083 0.917994499206543
vt 0.1844603270292282 0.2648543119430542
vt 0.24889275431632996 0.07605165243148804
vt 0.2507621645927429 0.3512396812438965
vt 0.19690419733524323 0.03407996892929077
vt 0.04102839529514313 0.03407996892929077
vt 0.053472235798835754 0.2648543119430542
vt 0.004740297794342041 0.07605165243148804
vt 0.006010979413986206 0.3512396812438965
vt 0.0008776322938501835 0.35263848304748535
vt 0.0008776322938501835 0.7757617235183716
vt 0.2450861632823944 0.7757617235183716
vt 0.2450861632823944 0.35263848304748535
vt 0.2463388293981552 0.07510584592819214
vt 0.2463388890028 -0.09184598922729492
vt 0.2463388890028 0.07510584592819214
vt 0.002040538704022765 0.07510584592819214
vt 0.0020405384711921215 -0.09184598922729492
vt 0.2463388293981552 -0.021260499954223633
vt 0.0020404790993779898 -0.021260499954223633
vt 0.002040449297055602 0.07510584592819214
vt 0.05467085540294647 0.03407996892929077
vt 0.0043127937242388725 0.34697991609573364
vt 0.2455640733242035 0.3512396812438965
vt 0.21054671704769135 0.03407996892929077
vt 0.24683475494384766 0.07605171203613281
g Geoset0
s 1
usemtl mat_dunmoroghstone_256
f 1/1/1 2/2/2 3/3/3
f 4/4/4 5/5/5 6/6/6
f 7/7/7 8/8/8 4/4/4
f 4/4/4 9/9/9 7/7/7
f 6/6/6 9/9/9 4/4/4
f 10/10/10 11/11/11 12/12/12
f 12/12/12 13/13/13 10/10/10
f 13/13/13 12/12/12 14/14/14
f 14/14/14 15/15/15 13/13/13
f 16/16/16 17/17/17 18/18/18
f 18/18/18 19/19/19 16/16/16
f 19/19/19 18/18/18 20/20/20
f 20/20/20 21/21/21 19/19/19
f 22/22/22 21/21/21 20/20/20
f 23/23/23 24/24/24 25/25/25
f 25/25/25 26/26/26 23/23/23
f 26/26/26 25/25/25 22/22/22
f 22/22/22 27/27/27 26/26/26
f 20/20/20 27/27/27 22/22/22
f 28/28/28 29/29/29 30/30/30
f 29/29/29 28/28/28 31/31/31
f 32/32/32 31/31/31 28/28/28
f 28/28/28 33/33/33 32/32/32
f 32/32/32 33/33/33 34/34/34
f 35/35/35 34/34/34 33/33/33
f 36/36/36 37/37/37 38/38/38
f 38/38/38 39/39/39 36/36/36
f 36/36/36 39/39/39 40/40/40
f 41/41/41 42/42/42 43/43/43
f 43/43/43 44/44/44 41/41/41
f 45/45/45 41/41/41 44/44/44
f 44/44/44 46/46/46 45/45/45
f 40/40/40 45/45/45 46/46/46
f 46/46/46 47/47/47 40/40/40
f 40/40/40 47/47/47 36/36/36
f 47/47/47 48/48/48 49/49/49
f 50/50/50 49/49/49 48/48/48
f 48/48/48 51/51/51 50/50/50
f 51/51/51 52/52/52 50/50/50
f 3/3/3 50/50/50 1/1/1
