# Exported using wow.export v0.1.65
o redridgebridgebrick02
mtllib redridgebridgebrick02.mtl
v 1.128499984741211 -0.7326220273971558 -1.2738800048828125
v -1.1186699867248535 -0.7326220273971558 -1.2738800048828125
v -1.1186699867248535 -0.7326220273971558 -3.3854000568389893
v 1.128499984741211 0.04770670086145401 -1.2738800048828125
v -1.1186699867248535 0.04770670086145401 -1.2738800048828125
v -1.1186699867248535 -0.7326220273971558 -1.2738800048828125
v 1.128499984741211 -0.7326220273971558 -1.2738800048828125
v -1.1186699867248535 0.04770670086145401 -1.2738800048828125
v -1.1186699867248535 0.04770670086145401 -3.3854000568389893
v -1.1186699867248535 -0.7326220273971558 -3.3854000568389893
v -1.1186699867248535 -0.7326220273971558 -1.2738800048828125
v -1.1186699867248535 0.04770670086145401 -3.3854000568389893
v 1.128499984741211 0.04770670086145401 -3.3854000568389893
v 1.128499984741211 -0.7326220273971558 -3.3854000568389893
v -1.1186699867248535 -0.7326220273971558 -3.3854000568389893
v 1.128499984741211 0.04770670086145401 -3.3854000568389893
v 1.128499984741211 0.04770670086145401 -1.2738800048828125
v 1.128499984741211 -0.7326220273971558 -1.2738800048828125
v 1.128499984741211 -0.7326220273971558 -3.3854000568389893
v -1.1186699867248535 0.04770670086145401 -3.3854000568389893
v -1.1186699867248535 0.04770670086145401 -1.2738800048828125
v 1.128499984741211 0.04770670086145401 -1.2738800048828125
v 1.128499984741211 0.04770670086145401 -3.3854000568389893
v 1.128499984741211 -0.7326220273971558 -3.3854000568389893
vn 2.702009993527099e-8 -1 0
vn 2.702009993527099e-8 -1 0
vn 2.702009993527099e-8 -1 0
vn -9.430859648773549e-8 0 1
vn -9.430859648773549e-8 0 1
vn -9.430859648773549e-8 0 1
vn -9.430859648773549e-8 0 1
vn -1 -6.789669981799307e-8 2.50918006372558e-8
vn -1 -1.357930017320541e-7 5.01836012745116e-8
vn -1 -6.789669981799307e-8 2.50918006372558e-8
vn -1 0 0
vn 9.430859648773549e-8 1.2806500346675739e-14 -1
vn 9.430859648773549e-8 1.2806500346675739e-14 -1
vn 9.430859648773549e-8 1.2806500346675739e-14 -1
vn 9.430859648773549e-8 1.2806500346675739e-14 -1
vn 1 6.789669981799307e-8 -2.50918006372558e-8
vn 1 0 -5.01836012745116e-8
vn 1 6.789669981799307e-8 -2.50918006372558e-8
vn 1 1.357930017320541e-7 0
vn -4.715429824386774e-8 1 2.3663699207879686e-15
vn -4.715429824386774e-8 1 2.3663699207879686e-15
vn -4.715429824386774e-8 1 2.3663699207879686e-15
vn -4.715429824386774e-8 1 2.3663699207879686e-15
vn 2.702009993527099e-8 -1 0
vt 1.0034600496292114 -0.0024199485778808594
vt 1.0034600496292114 0.9697753991931677
vt -0.0008172690286301076 0.9697753991931677
vt 1.0034600496292114 0.9697753991931677
vt -0.0008172690286301076 0.9697753991931677
vt -0.0008172690286301076 -0.0024199485778808594
vt 1.0034600496292114 -0.0024199485778808594
vt 1.0034600496292114 0.9697753991931677
vt -0.0008172690286301076 0.9697753991931677
vt -0.0008172690286301076 -0.0024199485778808594
vt 1.0034600496292114 -0.0024199485778808594
vt 1.0034600496292114 0.9697753991931677
vt -0.0008172690286301076 0.9697753991931677
vt -0.0008172690286301076 -0.0024199485778808594
vt 1.0034600496292114 -0.0024199485778808594
vt 1.0034600496292114 0.9697753991931677
vt -0.0008172690286301076 0.9697753991931677
vt -0.0008172690286301076 -0.0024199485778808594
vt 1.0034600496292114 -0.0024199485778808594
vt 1.0034600496292114 0.9697753991931677
vt -0.0008172690286301076 0.9697753991931677
vt -0.0008172690286301076 -0.0024199485778808594
vt 1.0034600496292114 -0.0024199485778808594
vt -0.0008172690286301076 -0.0024199485778808594
g Geoset0
s 1
usemtl mat_bridgedarkstonea
f 1/1/1 2/2/2 3/3/3
f 4/4/4 5/5/5 6/6/6
f 6/6/6 7/7/7 4/4/4
f 8/8/8 9/9/9 10/10/10
f 10/10/10 11/11/11 8/8/8
f 12/12/12 13/13/13 14/14/14
f 14/14/14 15/15/15 12/12/12
f 16/16/16 17/17/17 18/18/18
f 18/18/18 19/19/19 16/16/16
f 20/20/20 21/21/21 22/22/22
f 22/22/22 23/23/23 20/20/20
f 3/3/3 24/24/24 1/1/1
