# Exported using wow.export v0.1.65
o titanvase01
mtllib titanvase01.mtl
v 0.023511774837970734 2.634894609451294 0.0037116867024451494
v -0.7687786221504211 3.147975206375122 0.33188918232917786
v -0.30466553568840027 3.147975206375122 0.7960020899772644
v 0.2655833959579468 2.8451874256134033 0.5881238579750061
v 0.8158023357391357 3.147975206375122 0.33188900351524353
v 0.3516893684864044 3.147975206375122 0.7960021495819092
v -0.21855957806110382 2.8451874256134033 0.5881239175796509
v -0.21855953335762024 2.5636940002441406 0.5881238579750061
v -0.5609003901481628 2.5636940002441406 0.24578316509723663
v -1.0400129556655884 2.268681526184082 0.44423818588256836
v -1.040013074874878 2.268681526184082 -0.4368147850036621
v 0.6079241037368774 2.8451874256134033 0.24578306078910828
v 0.8158021569252014 3.147975206375122 -0.32446590065956116
v 0.2655833959579468 2.5636940002441406 0.5881238579750061
v -0.417014479637146 2.268681049346924 1.0672365427017212
v 0.6079239845275879 2.8451874256134033 -0.23835989832878113
v 0.35168910026550293 3.147975206375122 -0.7885788083076477
v 0.6079241037368774 2.5636940002441406 0.24578306078910828
v 0.4640384912490845 2.268681049346924 1.0672365427017212
v 0.26558318734169006 2.8451874256134033 -0.5807006359100342
v -0.3046656847000122 3.147975206375122 -0.7885788083076477
v 0.6079239249229431 2.5636940002441406 -0.23835992813110352
v 1.0870368480682373 2.268681049346924 0.44423800706863403
v 0.5341902375221252 1.8668831586837769 1.2365977764129639
v -0.2185596525669098 2.8451874256134033 -0.5807006359100342
v -0.7687786221504211 3.147975206375122 -0.3244657814502716
v 0.26558318734169006 2.5636940002441406 -0.5807006359100342
v 1.0870367288589478 2.268681049346924 -0.43681493401527405
v 1.2563982009887695 1.8668831586837769 0.5143895745277405
v 0.4381979703903198 0.4372977018356323 1.004852294921875
v -0.5609003901481628 2.8451874256134033 -0.23835982382297516
v -0.7687786221504211 3.147975206375122 0.33188918232917786
v -0.2185596376657486 2.5636940002441406 -0.5807006359100342
v 0.46403804421424866 2.268681049346924 -1.059813380241394
v 1.2563978433609009 1.8668831586837769 -0.5069668292999268
v 1.0246526002883911 0.4372977316379547 0.4183974266052246
v 0.22986438870429993 0.07726703584194183 0.5018907785415649
v 1.024652361869812 0.4372977316379547 -0.4109746515750885
v 0.534189760684967 1.8668831586837769 -1.2291747331619263
v -0.4170146584510803 2.268681049346924 -1.059813141822815
v -0.5609003901481628 2.5636940002441406 -0.23835982382297516
v -0.5609003901481628 2.8451874256134033 0.24578316509723663
v -0.30466553568840027 3.147975206375122 0.7960020899772644
v 0.43819767236709595 0.4372977018356323 -0.9974291324615479
v -0.48716646432876587 1.8668831586837769 -1.2291744947433472
v 0.5216909646987915 0.07726703584194183 0.2100640833377838
v 0.22986438870429993 -0.08822128921747208 0.5018907785415649
v 0.5216909646987915 -0.08822128921747208 0.2100640833377838
v 0.5216907858848572 0.07726703584194183 -0.20264096558094025
v -1.2093744277954102 1.8668831586837769 -0.5069664716720581
v -0.3911743462085724 0.4372977316379547 -0.9974290132522583
v 0.22986425459384918 0.07726703584194183 -0.49446746706962585
v 0.5216907858848572 -0.08822128921747208 -0.20264096558094025
v -0.47466719150543213 -0.08822134137153625 0.21006426215171814
v -1.2093740701675415 1.8668831586837769 0.5143899321556091
v -0.9776290059089661 0.43729761242866516 -0.4109744131565094
v -0.18284077942371368 0.07726703584194183 -0.4944674074649811
v 0.22986425459384918 -0.08822128921747208 -0.49446746706962585
v -0.48716607689857483 1.8668831586837769 1.2365978956222534
v -0.9776287078857422 0.43729761242866516 0.41839778423309326
v -0.47466740012168884 0.07726701349020004 -0.2026408463716507
v -0.18284077942371368 -0.08822128921747208 -0.4944673776626587
v -0.39117416739463806 0.4372977316379547 1.0048524141311646
v -0.47466719150543213 0.07726701349020004 0.21006426215171814
v -0.47466740012168884 -0.08822134137153625 -0.20264087617397308
v -0.18284066021442413 0.07726703584194183 0.5018908381462097
v -0.18284067511558533 -0.08822128921747208 0.5018908381462097
v -0.7687786221504211 3.147975206375122 -0.3244657814502716
v -0.7687786221504211 3.147975206375122 0.33188918232917786
v -0.3046656847000122 3.147975206375122 -0.7885788083076477
v 0.35168910026550293 3.147975206375122 -0.7885788083076477
v 0.8158021569252014 3.147975206375122 -0.32446590065956116
v 0.8158023357391357 3.147975206375122 0.33188900351524353
v 0.3516893684864044 3.147975206375122 0.7960021495819092
vn 1.4290978178621572e-8 1 2.290384237824128e-8
vn 0.4743388295173645 0.8581370711326599 -0.19647765159606934
vn 0.19647753238677979 0.8581370115280151 -0.47433891892433167
vn 0.35111019015312195 -0.31830281019210815 0.8805708289146423
vn 0.6948838829994202 -0.5928272008895874 0.40705326199531555
vn 0.2035268396139145 -0.5928270816802979 0.7791873216629028
vn -0.374385267496109 -0.318302720785141 0.870930016040802
vn -0.2932116687297821 0.517066240310669 0.8041576147079468
vn -0.7759572267532349 0.5170662999153137 0.36129331588745117
vn -0.687487781047821 0.6800685524940491 0.25469058752059937
vn -0.666220486164093 0.6800686717033386 -0.30603399872779846
vn 0.870930016040802 -0.3183027505874634 0.37438517808914185
vn 0.7791872620582581 -0.5928271412849426 -0.20352695882320404
vn 0.3612932562828064 0.517066240310669 0.7759572267532349
vn -0.3060339391231537 0.6800686120986938 0.6662206649780273
vn 0.8805707693099976 -0.3183027505874634 -0.3511103093624115
vn 0.4070533812046051 -0.5928270816802979 -0.6948838829994202
vn 0.804157555103302 0.517066240310669 0.2932116389274597
vn 0.2546904683113098 0.6800686120986938 0.687487781047821
vn 0.37438520789146423 -0.3183026909828186 -0.870930016040802
vn -0.2035268098115921 -0.5928271412849426 -0.7791873216629028
vn 0.7759572267532349 0.5170661807060242 -0.36129334568977356
vn 0.6662206053733826 0.6800686717033386 0.30603381991386414
vn 0.3751591145992279 0.12845204770565033 0.9180172681808472
vn -0.35111016035079956 -0.3183027505874634 -0.8805708289146423
vn -0.6948838233947754 -0.5928271412849426 -0.4070534110069275
vn 0.2932116985321045 0.517066240310669 -0.804157555103302
vn 0.687487781047821 0.6800685524940491 -0.254690557718277
vn 0.9144138693809509 0.12845194339752197 0.38385850191116333
vn 0.34492334723472595 -0.5570990443229675 0.7554261088371277
vn -0.870930016040802 -0.318302720785141 -0.374385267496109
vn -0.7791873216629028 -0.5928270816802979 0.2035268396139145
vn -0.3612932860851288 0.517066240310669 -0.7759572863578796
vn 0.3060338795185089 0.6800686120986938 -0.6662206649780273
vn 0.9180172085762024 0.12845194339752197 -0.37515923380851746
vn 0.7780645489692688 -0.5570989847183228 0.2902691960334778
vn 0.3048141598701477 -0.4859086275100708 0.8191343545913696
vn 0.7554260492324829 -0.5570990443229675 -0.34492334723472595
vn 0.38385868072509766 0.12845204770565033 -0.9144138097763062
vn -0.25469037890434265 0.6800687313079834 -0.6874877214431763
vn -0.8041574358940125 0.5170663595199585 -0.29321184754371643
vn -0.8805708289146423 -0.31830278038978577 0.35111016035079956
vn -0.4070533812046051 -0.5928270816802979 0.6948838829994202
vn 0.29026925563812256 -0.5570990443229675 -0.778064489364624
vn -0.3751590847969055 0.12845206260681152 -0.9180172681808472
vn 0.7947517037391663 -0.4859085977077484 0.36367926001548767
vn 0.41119861602783203 -0.5815224647521973 0.7019596099853516
vn 0.7871217727661133 -0.5815224647521973 0.20559902489185333
vn 0.8191344141960144 -0.4859085977077484 -0.3048141896724701
vn -0.9144138097763062 0.12845191359519958 -0.38385868072509766
vn -0.3449232280254364 -0.5570989847183228 -0.7554261684417725
vn 0.36367931962013245 -0.4859086275100708 -0.7947516441345215
vn 0.7019596099853516 -0.5815224647521973 -0.41119861602783203
vn -0.36466801166534424 -0.9063027501106262 0.2136177122592926
vn -0.9180172681808472 0.1284518539905548 0.37515923380851746
vn -0.778064489364624 -0.5570991635322571 -0.29026925563812256
vn -0.30481404066085815 -0.4859086275100708 -0.8191344141960144
vn 0.20559903979301453 -0.5815224647521973 -0.7871217131614685
vn -0.3838588297367096 0.12845200300216675 0.9144137501716614
vn -0.7554261088371277 -0.557098925113678 0.34492337703704834
vn -0.7947515845298767 -0.4859086871147156 -0.36367934942245483
vn -0.4111984670162201 -0.5815224051475525 -0.7019597291946411
vn -0.2902694046497345 -0.5570989847183228 0.778064489364624
vn -0.8191343545913696 -0.485908567905426 0.30481424927711487
vn -0.911095142364502 -0.3365567922592163 -0.23798133432865143
vn -0.363679438829422 -0.485908567905426 0.7947516441345215
vn -0.23798146843910217 -0.33655670285224915 0.911095142364502
vn 0.4743388891220093 0.8581370115280151 0.19647756218910217
vn 0.4743388295173645 0.8581370711326599 -0.19647765159606934
vn 0.19647763669490814 0.8581370711326599 0.4743388295173645
vn -0.196477472782135 0.8581370711326599 0.4743388593196869
vn -0.47433874011039734 0.8581370711326599 0.19647769629955292
vn -0.4743388295173645 0.8581370711326599 -0.19647744297981262
vn -0.19647762179374695 0.8581370711326599 -0.4743387699127197
vt 0.49760106205940247 1.0742062330245972
vt 0.009172477759420872 0.9995004534721375
vt 0.4973467290401459 0.9995004534721375
vt 0.987462043762207 0.9060310125350952
vt 0.4973413944244385 0.9995004534721375
vt 0.987462043762207 0.9995004534721375
vt 0.4973467290401459 0.9060310125350952
vt 0.4973467290401459 0.8191350698471069
vt 0.009172477759420872 0.8191350698471069
vt 0.009172477759420872 0.7280659079551697
vt 0.49734190106391907 0.7280659079551697
vt 0.4973413944244385 0.9060310125350952
vt 0.008720102719962597 0.9995004534721375
vt 0.987462043762207 0.8191350698471069
vt 0.4973467290401459 0.7280658483505249
vt 0.008720102719962597 0.9060310125350952
vt 0.4973462224006653 0.9995004534721375
vt 0.4973413944244385 0.8191350698471069
vt 0.987462043762207 0.7280658483505249
vt 0.4973462224006653 0.9060310125350952
vt 0.9869752526283264 0.9995004534721375
vt 0.008720102719962597 0.8191350698471069
vt 0.4973413944244385 0.7280658483505249
vt 0.987462043762207 0.6040325164794922
vt 0.9869752526283264 0.9060310125350952
vt 0.49734190106391907 0.9995004534721375
vt 0.4973462224006653 0.8191350698471069
vt 0.008720102719962597 0.7280658483505249
vt 0.4973413944244385 0.6040325164794922
vt 0.987462043762207 0.16272521018981934
vt 0.49734190106391907 0.9060310125350952
vt 0.009172477759420872 0.9995004534721375
vt 0.9869752526283264 0.8191350698471069
vt 0.4973462224006653 0.7280658483505249
vt 0.008720102719962597 0.6040325164794922
vt 0.4973413944244385 0.16272521018981934
vt 0.987462043762207 0.05158519744873047
vt 0.008720102719962597 0.16272521018981934
vt 0.4973462224006653 0.6040325164794922
vt 0.9869752526283264 0.7280658483505249
vt 0.49734190106391907 0.8191350698471069
vt 0.009172477759420872 0.9060310125350952
vt 0.4973467290401459 0.9995004534721375
vt 0.4973462224006653 0.16272521018981934
vt 0.9869752526283264 0.6040325164794922
vt 0.4973413944244385 0.05158519744873047
vt 0.987462043762207 0.0004996061325073242
vt 0.4973413944244385 0.0004996061325073242
vt 0.008720102719962597 0.05158519744873047
vt 0.49734190106391907 0.6040325164794922
vt 0.9869752526283264 0.16272521018981934
vt 0.4973462224006653 0.05158519744873047
vt 0.008720102719962597 0.0004996061325073242
vt 0.008762773126363754 0.0004996061325073242
vt 0.009172477759420872 0.6040325164794922
vt 0.49734190106391907 0.16272521018981934
vt 0.9869752526283264 0.05158519744873047
vt 0.4973462224006653 0.0004996061325073242
vt 0.4973467290401459 0.6040325164794922
vt 0.009172477759420872 0.16272521018981934
vt 0.49734190106391907 0.05158519744873047
vt 0.9869752526283264 0.0004996061325073242
vt 0.4973467290401459 0.16272521018981934
vt 0.009172477759420872 0.05158519744873047
vt 0.49734190106391907 0.0004996061325073242
vt 0.4973467290401459 0.05158519744873047
vt 0.4973467290401459 0.0004996061325073242
vt 0.49734190106391907 0.9995004534721375
vt 0.008762773126363754 0.9995004534721375
vt 0.9869752526283264 0.9995004534721375
vt 0.4973462224006653 0.9995004534721375
vt 0.008720102719962597 0.9995004534721375
vt 0.4973413944244385 0.9995004534721375
vt 0.987462043762207 0.9995004534721375
g Geoset0
s 1
usemtl mat_titanvase
f 1/1/1 2/2/2 3/3/3
f 4/4/4 5/5/5 6/6/6
f 7/7/7 4/4/4 6/6/6
f 8/8/8 4/4/4 7/7/7
f 9/9/9 8/8/8 7/7/7
f 10/10/10 8/8/8 9/9/9
f 11/11/11 10/10/10 9/9/9
f 12/12/12 13/13/13 5/5/5
f 4/4/4 12/12/12 5/5/5
f 14/14/14 12/12/12 4/4/4
f 8/8/8 14/14/14 4/4/4
f 15/15/15 14/14/14 8/8/8
f 16/16/16 17/17/17 13/13/13
f 12/12/12 16/16/16 13/13/13
f 18/18/18 16/16/16 12/12/12
f 14/14/14 18/18/18 12/12/12
f 19/19/19 18/18/18 14/14/14
f 20/20/20 21/21/21 17/17/17
f 16/16/16 20/20/20 17/17/17
f 22/22/22 20/20/20 16/16/16
f 18/18/18 22/22/22 16/16/16
f 23/23/23 22/22/22 18/18/18
f 19/19/19 23/23/23 18/18/18
f 24/24/24 23/23/23 19/19/19
f 25/25/25 26/26/26 21/21/21
f 20/20/20 25/25/25 21/21/21
f 27/27/27 25/25/25 20/20/20
f 22/22/22 27/27/27 20/20/20
f 28/28/28 27/27/27 22/22/22
f 23/23/23 28/28/28 22/22/22
f 29/29/29 28/28/28 23/23/23
f 24/24/24 29/29/29 23/23/23
f 29/29/29 24/24/24 30/30/30
f 31/31/31 32/32/32 26/26/26
f 25/25/25 31/31/31 26/26/26
f 33/33/33 31/31/31 25/25/25
f 27/27/27 33/33/33 25/25/25
f 34/34/34 33/33/33 27/27/27
f 28/28/28 34/34/34 27/27/27
f 35/35/35 34/34/34 28/28/28
f 29/29/29 35/35/35 28/28/28
f 35/35/35 29/29/29 36/36/36
f 30/30/30 36/36/36 29/29/29
f 36/36/36 30/30/30 37/37/37
f 36/36/36 38/38/38 35/35/35
f 39/39/39 35/35/35 38/38/38
f 35/35/35 39/39/39 34/34/34
f 39/39/39 40/40/40 34/34/34
f 34/34/34 40/40/40 33/33/33
f 40/40/40 41/41/41 33/33/33
f 33/33/33 41/41/41 31/31/31
f 41/41/41 42/42/42 31/31/31
f 31/31/31 42/42/42 32/32/32
f 42/42/42 43/43/43 32/32/32
f 38/38/38 44/44/44 39/39/39
f 45/45/45 39/39/39 44/44/44
f 39/39/39 45/45/45 40/40/40
f 45/45/45 11/11/11 40/40/40
f 40/40/40 11/11/11 41/41/41
f 11/11/11 9/9/9 41/41/41
f 41/41/41 9/9/9 42/42/42
f 9/9/9 7/7/7 42/42/42
f 42/42/42 7/7/7 43/43/43
f 7/7/7 6/6/6 43/43/43
f 46/46/46 37/37/37 47/47/47
f 37/37/37 46/46/46 36/36/36
f 38/38/38 36/36/36 46/46/46
f 47/47/47 48/48/48 46/46/46
f 49/49/49 46/46/46 48/48/48
f 46/46/46 49/49/49 38/38/38
f 44/44/44 38/38/38 49/49/49
f 50/50/50 10/10/10 11/11/11
f 45/45/45 50/50/50 11/11/11
f 50/50/50 45/45/45 51/51/51
f 44/44/44 51/51/51 45/45/45
f 51/51/51 44/44/44 52/52/52
f 49/49/49 52/52/52 44/44/44
f 52/52/52 49/49/49 53/53/53
f 48/48/48 53/53/53 49/49/49
f 53/53/53 48/48/48 54/54/54
f 48/48/48 47/47/47 54/54/54
f 10/10/10 15/15/15 8/8/8
f 55/55/55 15/15/15 10/10/10
f 50/50/50 55/55/55 10/10/10
f 55/55/55 50/50/50 56/56/56
f 51/51/51 56/56/56 50/50/50
f 56/56/56 51/51/51 57/57/57
f 52/52/52 57/57/57 51/51/51
f 57/57/57 52/52/52 58/58/58
f 53/53/53 58/58/58 52/52/52
f 58/58/58 53/53/53 54/54/54
f 55/55/55 59/59/59 15/15/15
f 59/59/59 55/55/55 60/60/60
f 56/56/56 60/60/60 55/55/55
f 60/60/60 56/56/56 61/61/61
f 57/57/57 61/61/61 56/56/56
f 61/61/61 57/57/57 62/62/62
f 58/58/58 62/62/62 57/57/57
f 62/62/62 58/58/58 54/54/54
f 60/60/60 63/63/63 59/59/59
f 63/63/63 60/60/60 64/64/64
f 61/61/61 64/64/64 60/60/60
f 64/64/64 61/61/61 65/65/65
f 62/62/62 65/65/65 61/61/61
f 65/65/65 62/62/62 54/54/54
f 64/64/64 66/66/66 63/63/63
f 66/66/66 64/64/64 54/54/54
f 65/65/65 54/54/54 64/64/64
f 54/54/54 67/67/67 66/66/66
f 47/47/47 67/67/67 54/54/54
f 67/67/67 47/47/47 37/37/37
f 37/37/37 66/66/66 67/67/67
f 66/66/66 37/37/37 30/30/30
f 30/30/30 63/63/63 66/66/66
f 63/63/63 30/30/30 24/24/24
f 24/24/24 59/59/59 63/63/63
f 59/59/59 24/24/24 19/19/19
f 59/59/59 19/19/19 15/15/15
f 15/15/15 19/19/19 14/14/14
f 1/1/1 68/68/68 69/69/69
f 1/1/1 70/70/70 68/68/68
f 1/1/1 71/71/71 70/70/70
f 1/1/1 72/72/72 71/71/71
f 1/1/1 73/73/73 72/72/72
f 1/1/1 74/74/74 73/73/73
f 1/1/1 3/3/3 74/74/74
