# Exported using wow.export v0.1.65
o titanvase02
mtllib titanvase02.mtl
v 0.023511795327067375 2.5076687335968018 -0.01043024193495512
v -0.6838904023170471 3.175450563430786 0.2825853228569031
v -0.26950374245643616 3.175450563430786 0.6969718933105469
v -0.46349838376045227 2.8726627826690674 0.19129596650600433
v -0.26950374245643616 3.175450563430786 0.6969718933105469
v -0.6838904023170471 3.175450563430786 0.2825853228569031
v -0.17821438610553741 2.8726627826690674 0.4765799343585968
v 0.31652748584747314 3.175450563430786 0.6969719529151917
v 0.2252381443977356 2.8726627826690674 0.4765799343585968
v 0.7309140563011169 3.175450563430786 0.2825852632522583
v 0.5105220079421997 2.8726627826690674 0.19129593670368195
v -0.42260441184043884 2.5911693572998047 -0.19521768391132355
v -0.42260441184043884 2.5911693572998047 0.17435713112354279
v -0.46349838376045227 2.8726627826690674 0.19129596650600433
v -0.46349844336509705 2.8726627826690674 -0.2121565341949463
v -0.16127553582191467 2.5911693572998047 -0.4565465748310089
v -0.17821438610553741 2.8726627826690674 -0.4974404573440552
v 0.2082991898059845 2.5911693572998047 -0.4565465748310089
v 0.22523798048496246 2.8726627826690674 -0.49744054675102234
v -0.5690801739692688 2.296156644821167 -0.255889892578125
v -0.5690801739692688 2.296156644821167 0.2350294291973114
v -0.2219478040933609 2.296156406402588 -0.6030223965644836
v 0.26897138357162476 2.296156406402588 -0.6030223965644836
v -0.6634476780891418 1.89435875415802 -0.29497817158699036
v -0.6634474396705627 1.89435875415802 0.27411770820617676
v -0.26103612780570984 1.89435875415802 -0.6973897814750671
v 0.3080596625804901 1.89435875415802 -0.6973898410797119
v 0.7104712128639221 1.89435875415802 -0.2949783504009247
v 0.7104714512825012 1.89435875415802 0.2741175889968872
v 0.5128379464149475 0.4647730886936188 0.1922551542520523
v 0.5128379464149475 0.4647730886936188 -0.2131158858537674
v 0.2261972725391388 0.464773029088974 -0.499756395816803
v -0.17917370796203613 0.4647730886936188 -0.499756395816803
v -0.4658144414424896 0.4647729694843292 -0.21311576664447784
v -0.46581417322158813 0.4647729694843292 0.19225527346134186
v 0.3260778486728668 0.10474242269992828 0.11489661782979965
v 0.32607778906822205 0.10474242269992828 -0.13575728237628937
v 0.14883871376514435 0.10474242269992828 -0.3129962980747223
v -0.10181516408920288 0.10474242269992828 -0.3129962980747223
v -0.2790542244911194 0.10474231839179993 -0.1357572227716446
v -0.27905410528182983 0.10474231839179993 0.11489672213792801
v 0.4622325301170349 -0.060745980590581894 0.17129367589950562
v 0.4622325003147125 -0.060745980590581894 -0.19215445220470428
v 0.2052358239889145 -0.060745980590581894 -0.4491509795188904
v -0.1582123339176178 -0.060745980590581894 -0.44915103912353516
v -0.41520896553993225 -0.060745980590581894 -0.19215433299541473
v -0.4152087867259979 -0.060745980590581894 0.17129385471343994
v 0.20523594319820404 -0.060745980590581894 0.4282905161380768
v -0.41520896553993225 -0.060745980590581894 -0.19215433299541473
v -0.15821219980716705 -0.060745980590581894 0.428290456533432
v -0.4152087867259979 -0.060745980590581894 0.17129385471343994
v -0.10181508213281631 0.10474242269992828 0.2921357750892639
v -0.27905410528182983 0.10474231839179993 0.11489672213792801
v 0.1488388180732727 0.10474242269992828 0.2921358048915863
v -0.17917366325855255 0.4647730886936188 0.4788958728313446
v -0.46581417322158813 0.4647729694843292 0.19225527346134186
v 0.22619737684726715 0.464773029088974 0.47889581322669983
v -0.2610360383987427 1.89435875415802 0.6765292882919312
v -0.6634474396705627 1.89435875415802 0.27411770820617676
v 0.3080599009990692 1.89435875415802 0.6765292286872864
v 0.6161038875579834 2.296156406402588 -0.25589001178741455
v 0.616104006767273 2.296156406402588 0.23502935469150543
v 0.26897159218788147 2.296156406402588 0.5821617841720581
v -0.2219477742910385 2.296156406402588 0.5821618437767029
v -0.5690801739692688 2.296156644821167 0.2350294291973114
v 0.4696280062198639 2.5911693572998047 -0.19521769881248474
v 0.4696281850337982 2.5911693572998047 0.1743571013212204
v 0.20829930901527405 2.5911693572998047 0.43568599224090576
v -0.1612754762172699 2.5911693572998047 0.4356859624385834
v -0.42260441184043884 2.5911693572998047 0.17435713112354279
v 0.5105220079421997 2.8726627826690674 -0.21215654909610748
v 0.7309139370918274 3.175450563430786 -0.3034459352493286
v 0.3165273070335388 3.175450563430786 -0.7178324460983276
v -0.26950374245643616 3.175450563430786 -0.7178324460983276
v -0.6838904023170471 3.175450563430786 -0.30344584584236145
v -0.6838904023170471 3.175450563430786 0.2825853228569031
v -0.6838904023170471 3.175450563430786 -0.30344584584236145
v -0.6838904023170471 3.175450563430786 0.2825853228569031
v -0.26950374245643616 3.175450563430786 -0.7178324460983276
v 0.3165273070335388 3.175450563430786 -0.7178324460983276
v 0.7309139370918274 3.175450563430786 -0.3034459352493286
v 0.7309140563011169 3.175450563430786 0.2825852632522583
v 0.31652748584747314 3.175450563430786 0.6969719529151917
vn 3.977850937531002e-8 1 3.4407989346618706e-8
vn 0.6072481870651245 0.7536458373069763 -0.2515304684638977
vn 0.2515304386615753 0.7536458373069763 -0.6072482466697693
vn -0.8364214897155762 -0.4246957302093506 0.34645718336105347
vn -0.3005993366241455 -0.6188567280769348 0.7257109880447388
vn -0.7257108688354492 -0.6188567876815796 0.3005993366241455
vn -0.34645721316337585 -0.4246957004070282 0.836421549320221
vn 0.3005993366241455 -0.6188567280769348 0.7257109880447388
vn 0.34645721316337585 -0.4246957004070282 0.8364214897155762
vn 0.725710928440094 -0.6188567876815796 0.30059918761253357
vn 0.8364216089248657 -0.4246956706047058 0.34645697474479675
vn -0.9084047079086304 0.18226070702075958 -0.3762736916542053
vn -0.9084047675132751 0.18226079642772675 0.37627357244491577
vn -0.8364214897155762 -0.4246957302093506 0.34645718336105347
vn -0.836421549320221 -0.424695760011673 -0.3464571535587311
vn -0.37627357244491577 0.1822606325149536 -0.9084047675132751
vn -0.34645718336105347 -0.42469561100006104 -0.836421549320221
vn 0.37627357244491577 0.18226060271263123 -0.9084048271179199
vn 0.3464571237564087 -0.4246956706047058 -0.836421549320221
vn -0.8644388318061829 0.3528977334499359 -0.35806241631507874
vn -0.8644388914108276 0.352897584438324 0.35806238651275635
vn -0.3580623269081116 0.35289761424064636 -0.8644388914108276
vn 0.3580622971057892 0.35289764404296875 -0.8644389510154724
vn -0.9228177666664124 0.04792998358607292 -0.3822435140609741
vn -0.9228176474571228 0.04792986065149307 0.3822437524795532
vn -0.38224372267723083 0.047929950058460236 -0.9228177070617676
vn 0.3822435736656189 0.047930024564266205 -0.9228177070617676
vn 0.922817587852478 0.04792993143200874 -0.3822438716888428
vn 0.9228178262710571 0.04792994633316994 0.3822433650493622
vn 0.8779606223106384 -0.3113428056240082 0.363662987947464
vn 0.8779605031013489 -0.3113428056240082 -0.36366331577301025
vn 0.36366307735443115 -0.3113428056240082 -0.8779606223106384
vn -0.36366307735443115 -0.311342716217041 -0.8779606223106384
vn -0.8779606223106384 -0.31134283542633057 -0.3636630177497864
vn -0.8779605031013489 -0.3113428056240082 0.36366337537765503
vn 0.9164119362831116 0.12688861787319183 0.37958991527557373
vn 0.9164117574691772 0.12688864767551422 -0.37959033250808716
vn 0.37959015369415283 0.126888707280159 -0.916411817073822
vn -0.3795901834964752 0.1268887221813202 -0.9164117574691772
vn -0.9164118766784668 0.12688888609409332 -0.3795899450778961
vn -0.9164116978645325 0.1268889605998993 0.3795902729034424
vn 0.8674095869064331 -0.3442520499229431 0.35929250717163086
vn 0.8674094676971436 -0.34425196051597595 -0.3592929542064667
vn 0.35929274559020996 -0.34425193071365356 -0.8674095273017883
vn -0.3592929244041443 -0.3442517817020416 -0.8674095273017883
vn -0.8674095869064331 -0.34425196051597595 -0.35929256677627563
vn -0.8674095273017883 -0.3442518413066864 0.3592928349971771
vn 0.3592929244041443 -0.34425193071365356 0.8674094676971436
vn -0.8674095869064331 -0.34425196051597595 -0.35929256677627563
vn -0.3592928647994995 -0.3442518711090088 0.8674095273017883
vn -0.8674095273017883 -0.3442518413066864 0.3592928349971771
vn -0.3795901834964752 0.1268886774778366 0.9164117574691772
vn -0.9164116978645325 0.1268889605998993 0.3795902729034424
vn 0.37959030270576477 0.12688878178596497 0.9164116978645325
vn -0.3636631965637207 -0.311342716217041 0.8779605627059937
vn -0.8779605031013489 -0.3113428056240082 0.36366337537765503
vn 0.36366328597068787 -0.3113428056240082 0.8779605031013489
vn -0.38224363327026367 0.04792998358607292 0.9228177070617676
vn -0.9228176474571228 0.04792986065149307 0.3822437524795532
vn 0.38224372267723083 0.047929976135492325 0.9228176474571228
vn 0.8644388318061829 0.35289761424064636 -0.3580625057220459
vn 0.8644389510154724 0.3528977036476135 0.35806217789649963
vn 0.35806238651275635 0.35289764404296875 0.8644388914108276
vn -0.3580622673034668 0.352897584438324 0.8644389510154724
vn -0.8644388914108276 0.352897584438324 0.35806238651275635
vn 0.9084047079086304 0.182260662317276 -0.3762736916542053
vn 0.9084048867225647 0.18226075172424316 0.37627336382865906
vn 0.3762736916542053 0.1822606772184372 0.9084047079086304
vn -0.376273512840271 0.18226072192192078 0.9084048271179199
vn -0.9084047675132751 0.18226079642772675 0.37627357244491577
vn 0.8364214897155762 -0.4246957302093506 -0.346457302570343
vn 0.7257108688354492 -0.6188567876815796 -0.30059942603111267
vn 0.3005993068218231 -0.61885666847229 -0.7257110476493835
vn -0.3005993366241455 -0.6188567280769348 -0.725710928440094
vn -0.725710928440094 -0.6188567280769348 -0.3005993068218231
vn -0.7257108688354492 -0.6188567876815796 0.3005993366241455
vn 0.6072481870651245 0.7536458969116211 0.2515304386615753
vn 0.6072481870651245 0.7536458373069763 -0.2515304684638977
vn 0.2515304386615753 0.7536458373069763 0.6072481870651245
vn -0.25153040885925293 0.7536458373069763 0.6072482466697693
vn -0.6072481274604797 0.7536458969116211 0.25153055787086487
vn -0.6072481274604797 0.7536458969116211 -0.25153037905693054
vn -0.2515304386615753 0.7536458373069763 -0.6072481870651245
vt 0.4956211745738983 0.7933589220046997
vt 0.002005700021982193 0.9995004534721375
vt 0.24931514263153076 0.9995004534721375
vt 0.002005700021982193 0.9060310125350952
vt 0.24931514263153076 0.9995004534721375
vt 0.002005700021982193 0.9995004534721375
vt 0.24931514263153076 0.9060310125350952
vt 0.49707961082458496 0.9995004534721375
vt 0.49707964062690735 0.9060310125350952
vt 0.7454057931900024 0.9995004534721375
vt 0.7454057931900024 0.9060310125350952
vt 0.2490994930267334 0.8191350698471069
vt 0.0008088517934083939 0.8191350698471069
vt 0.0008088517934083939 0.9060310125350952
vt 0.2490994930267334 0.9060310125350952
vt 0.49693506956100464 0.8191350698471069
vt 0.49693506956100464 0.9060310125350952
vt 0.7442086338996887 0.8191350698471069
vt 0.7442086338996887 0.9060310125350952
vt 0.2490994930267334 0.7280659079551697
vt 0.0008088517934083939 0.7280659079551697
vt 0.49693506956100464 0.7280658483505249
vt 0.7442086338996887 0.7280658483505249
vt 0.2490994930267334 0.6040325164794922
vt 0.0008088517934083939 0.6040325164794922
vt 0.49693506956100464 0.6040325164794922
vt 0.7442086338996887 0.6040325164794922
vt 0.993205726146698 0.6040325164794922
vt 0.7454057931900024 0.6040325164794922
vt 0.7454057931900024 0.16272521018981934
vt 0.993205726146698 0.16272521018981934
vt 0.7442086338996887 0.16272521018981934
vt 0.49693506956100464 0.16272521018981934
vt 0.2490994930267334 0.16272521018981934
vt 0.0008088517934083939 0.16272521018981934
vt 0.7454057931900024 0.05158519744873047
vt 0.993205726146698 0.05158519744873047
vt 0.7442086338996887 0.05158519744873047
vt 0.49693506956100464 0.05158519744873047
vt 0.2490994930267334 0.05158519744873047
vt 0.0008088517934083939 0.05158519744873047
vt 0.7454057931900024 0.0004996061325073242
vt 0.993205726146698 0.0004996061325073242
vt 0.7442086338996887 0.0004996061325073242
vt 0.49693506956100464 0.0004996061325073242
vt 0.2490994930267334 0.0004996061325073242
vt 0.0008088517934083939 0.0004996061325073242
vt 0.49707961082458496 0.0004996061325073242
vt 0.2590579092502594 0.08020973205566406
vt 0.24931514263153076 0.0004996061325073242
vt 0.002005700021982193 0.0004996061325073242
vt 0.24931515753269196 0.05158519744873047
vt 0.002005700021982193 0.05158519744873047
vt 0.49707961082458496 0.05158519744873047
vt 0.24931514263153076 0.16272521018981934
vt 0.002005700021982193 0.16272521018981934
vt 0.49707961082458496 0.16272521018981934
vt 0.24931515753269196 0.6040325164794922
vt 0.002005700021982193 0.6040325164794922
vt 0.49707964062690735 0.6040325164794922
vt 0.993205726146698 0.7280658483505249
vt 0.7454057931900024 0.7280658483505249
vt 0.49707964062690735 0.7280658483505249
vt 0.24931515753269196 0.7280658483505249
vt 0.002005700021982193 0.7280659079551697
vt 0.993205726146698 0.8191350698471069
vt 0.7454057931900024 0.8191350698471069
vt 0.49707964062690735 0.8191350698471069
vt 0.24931515753269196 0.8191350698471069
vt 0.002005700021982193 0.8191350698471069
vt 0.993205726146698 0.9060310125350952
vt 0.993205726146698 0.9995004534721375
vt 0.7442086338996887 0.9995004534721375
vt 0.49693506956100464 0.9995004534721375
vt 0.2490994930267334 0.9995004534721375
vt 0.0008088517934083939 0.9995004534721375
vt 0.2490994930267334 0.9995004534721375
vt 0.0008088517934083939 0.9995004534721375
vt 0.49693506956100464 0.9995004534721375
vt 0.7442086338996887 0.9995004534721375
vt 0.993205726146698 0.9995004534721375
vt 0.7454057931900024 0.9995004534721375
vt 0.49707961082458496 0.9995004534721375
g Geoset0
s 1
usemtl mat_titanvase02
f 1/1/1 2/2/2 3/3/3
f 4/4/4 5/5/5 6/6/6
f 4/4/4 7/7/7 5/5/5
f 7/7/7 8/8/8 5/5/5
f 7/7/7 9/9/9 8/8/8
f 9/9/9 10/10/10 8/8/8
f 9/9/9 11/11/11 10/10/10
f 12/12/12 13/13/13 14/14/14
f 12/12/12 14/14/14 15/15/15
f 16/16/16 12/12/12 15/15/15
f 16/16/16 15/15/15 17/17/17
f 18/18/18 16/16/16 17/17/17
f 18/18/18 17/17/17 19/19/19
f 20/20/20 21/21/21 13/13/13
f 20/20/20 13/13/13 12/12/12
f 22/22/22 20/20/20 12/12/12
f 22/22/22 12/12/12 16/16/16
f 23/23/23 22/22/22 16/16/16
f 23/23/23 16/16/16 18/18/18
f 24/24/24 25/25/25 21/21/21
f 24/24/24 21/21/21 20/20/20
f 26/26/26 24/24/24 20/20/20
f 26/26/26 20/20/20 22/22/22
f 27/27/27 26/26/26 22/22/22
f 27/27/27 22/22/22 23/23/23
f 28/28/28 29/29/29 30/30/30
f 30/30/30 31/31/31 28/28/28
f 27/27/27 28/28/28 31/31/31
f 31/31/31 32/32/32 27/27/27
f 26/26/26 27/27/27 32/32/32
f 32/32/32 33/33/33 26/26/26
f 24/24/24 26/26/26 33/33/33
f 33/33/33 34/34/34 24/24/24
f 25/25/25 24/24/24 34/34/34
f 34/34/34 35/35/35 25/25/25
f 31/31/31 30/30/30 36/36/36
f 36/36/36 37/37/37 31/31/31
f 32/32/32 31/31/31 37/37/37
f 37/37/37 38/38/38 32/32/32
f 33/33/33 32/32/32 38/38/38
f 38/38/38 39/39/39 33/33/33
f 34/34/34 33/33/33 39/39/39
f 39/39/39 40/40/40 34/34/34
f 35/35/35 34/34/34 40/40/40
f 40/40/40 41/41/41 35/35/35
f 37/37/37 36/36/36 42/42/42
f 42/42/42 43/43/43 37/37/37
f 38/38/38 37/37/37 43/43/43
f 43/43/43 44/44/44 38/38/38
f 39/39/39 38/38/38 44/44/44
f 44/44/44 45/45/45 39/39/39
f 40/40/40 39/39/39 45/45/45
f 45/45/45 46/46/46 40/40/40
f 41/41/41 40/40/40 46/46/46
f 46/46/46 47/47/47 41/41/41
f 45/45/45 44/44/44 46/46/46
f 44/44/44 43/43/43 46/46/46
f 43/43/43 42/42/42 46/46/46
f 42/42/42 48/48/48 49/49/49
f 48/48/48 50/50/50 49/49/49
f 50/50/50 51/51/51 49/49/49
f 52/52/52 53/53/53 51/51/51
f 51/51/51 50/50/50 52/52/52
f 54/54/54 52/52/52 50/50/50
f 50/50/50 48/48/48 54/54/54
f 36/36/36 54/54/54 48/48/48
f 48/48/48 42/42/42 36/36/36
f 55/55/55 56/56/56 53/53/53
f 53/53/53 52/52/52 55/55/55
f 57/57/57 55/55/55 52/52/52
f 52/52/52 54/54/54 57/57/57
f 30/30/30 57/57/57 54/54/54
f 54/54/54 36/36/36 30/30/30
f 58/58/58 59/59/59 56/56/56
f 56/56/56 55/55/55 58/58/58
f 60/60/60 58/58/58 55/55/55
f 55/55/55 57/57/57 60/60/60
f 29/29/29 60/60/60 57/57/57
f 57/57/57 30/30/30 29/29/29
f 28/28/28 27/27/27 23/23/23
f 28/28/28 23/23/23 61/61/61
f 29/29/29 28/28/28 61/61/61
f 29/29/29 61/61/61 62/62/62
f 60/60/60 29/29/29 62/62/62
f 60/60/60 62/62/62 63/63/63
f 58/58/58 60/60/60 63/63/63
f 58/58/58 63/63/63 64/64/64
f 59/59/59 58/58/58 64/64/64
f 59/59/59 64/64/64 65/65/65
f 61/61/61 23/23/23 18/18/18
f 61/61/61 18/18/18 66/66/66
f 62/62/62 61/61/61 66/66/66
f 62/62/62 66/66/66 67/67/67
f 63/63/63 62/62/62 67/67/67
f 63/63/63 67/67/67 68/68/68
f 64/64/64 63/63/63 68/68/68
f 64/64/64 68/68/68 69/69/69
f 65/65/65 64/64/64 69/69/69
f 65/65/65 69/69/69 70/70/70
f 66/66/66 18/18/18 19/19/19
f 66/66/66 19/19/19 71/71/71
f 67/67/67 66/66/66 71/71/71
f 67/67/67 71/71/71 11/11/11
f 68/68/68 67/67/67 11/11/11
f 68/68/68 11/11/11 9/9/9
f 69/69/69 68/68/68 9/9/9
f 69/69/69 9/9/9 7/7/7
f 70/70/70 69/69/69 7/7/7
f 70/70/70 7/7/7 4/4/4
f 11/11/11 72/72/72 10/10/10
f 11/11/11 71/71/71 72/72/72
f 71/71/71 73/73/73 72/72/72
f 71/71/71 19/19/19 73/73/73
f 19/19/19 74/74/74 73/73/73
f 19/19/19 17/17/17 74/74/74
f 17/17/17 75/75/75 74/74/74
f 17/17/17 15/15/15 75/75/75
f 15/15/15 76/76/76 75/75/75
f 15/15/15 14/14/14 76/76/76
f 1/1/1 77/77/77 78/78/78
f 1/1/1 79/79/79 77/77/77
f 1/1/1 80/80/80 79/79/79
f 1/1/1 81/81/81 80/80/80
f 1/1/1 82/82/82 81/81/81
f 1/1/1 83/83/83 82/82/82
f 1/1/1 3/3/3 83/83/83
