# Exported using wow.export v0.1.65
o dwarventablesimple04
mtllib dwarventablesimple04.mtl
v -0.1970018446445465 0.27718988060951233 -0.1760198324918747
v -0.2732808589935303 0.7049934267997742 -0.25023433566093445
v 0.25607624650001526 0.7049932479858398 -0.25023436546325684
v -0.2105422168970108 -0.0045921290293335915 0.20064090192317963
v 0.1933375895023346 -0.00459225382655859 -0.18908552825450897
v 0.19333763420581818 -0.00459225382655859 0.20064090192317963
v -0.2105422168970108 -0.0045921290293335915 0.20064090192317963
v -0.21054214239120483 -0.004592128563672304 -0.18908555805683136
v 0.1933375895023346 -0.00459225382655859 -0.18908552825450897
v -0.09859530627727509 -0.004592128563672304 -0.6048343777656555
v 0.1933375895023346 -0.00459225382655859 -0.18908552825450897
v -0.21054214239120483 -0.004592128563672304 -0.18908555805683136
v -0.09859530627727509 -0.004592128563672304 -0.6048343777656555
v 0.08139093965291977 -0.004592316225171089 -0.6048343181610107
v 0.1933375895023346 -0.00459225382655859 -0.18908552825450897
v -0.6013639569282532 -0.004592066165059805 0.09805949777364731
v -0.21054214239120483 -0.004592128563672304 -0.18908555805683136
v -0.2105422168970108 -0.0045921290293335915 0.20064090192317963
v -0.6013639569282532 -0.004592066165059805 0.09805949777364731
v -0.6013639569282532 -0.004592066165059805 -0.08652135729789734
v -0.21054214239120483 -0.004592128563672304 -0.18908555805683136
v 0.081390880048275 -0.004592316225171089 0.6163725852966309
v -0.2105422168970108 -0.0045921290293335915 0.20064090192317963
v 0.19333763420581818 -0.00459225382655859 0.20064090192317963
v 0.081390880048275 -0.004592316225171089 0.6163725852966309
v -0.09859536588191986 -0.004592190962284803 0.6163725852966309
v -0.2105422168970108 -0.0045921290293335915 0.20064090192317963
v 0.19333763420581818 -0.00459225382655859 0.20064090192317963
v 0.5841596722602844 -0.004592316225171089 -0.08652140200138092
v 0.5841596722602844 -0.004592316225171089 0.09805947542190552
v 0.19333763420581818 -0.00459225382655859 0.20064090192317963
v 0.1933375895023346 -0.00459225382655859 -0.18908552825450897
v 0.5841596722602844 -0.004592316225171089 -0.08652140200138092
v 0.17979735136032104 0.277189701795578 0.18757517635822296
v 0.081390880048275 -0.004592316225171089 0.6163725852966309
v 0.19333763420581818 -0.00459225382655859 0.20064090192317963
v -0.1970018595457077 0.2771899402141571 0.18757517635822296
v -0.2105422168970108 -0.0045921290293335915 0.20064090192317963
v -0.09859536588191986 -0.004592190962284803 0.6163725852966309
v -0.1970018446445465 0.27718988060951233 -0.1760198324918747
v -0.09859530627727509 -0.004592128563672304 -0.6048343777656555
v -0.21054214239120483 -0.004592128563672304 -0.18908555805683136
v 0.17979735136032104 0.2771897614002228 -0.1760198175907135
v 0.1933375895023346 -0.00459225382655859 -0.18908552825450897
v 0.08139093965291977 -0.004592316225171089 -0.6048343181610107
v -0.09859536588191986 -0.004592190962284803 0.6163725852966309
v 0.081390880048275 -0.004592316225171089 0.6163725852966309
v 0.17979735136032104 0.277189701795578 0.18757517635822296
v 0.17979735136032104 0.277189701795578 0.18757517635822296
v -0.1970018595457077 0.2771899402141571 0.18757517635822296
v 0.08139093965291977 -0.004592316225171089 -0.6048343181610107
v -0.09859530627727509 -0.004592128563672304 -0.6048343777656555
v -0.1970018446445465 0.27718988060951233 -0.1760198324918747
v -0.1970018446445465 0.27718988060951233 -0.1760198324918747
v 0.17979735136032104 0.2771897614002228 -0.1760198175907135
v -0.1970018446445465 0.27718988060951233 -0.1760198324918747
v -0.21054214239120483 -0.004592128563672304 -0.18908555805683136
v -0.6013639569282532 -0.004592066165059805 -0.08652135729789734
v 0.17979735136032104 0.2771897614002228 -0.1760198175907135
v 0.5841596722602844 -0.004592316225171089 -0.08652140200138092
v 0.1933375895023346 -0.00459225382655859 -0.18908552825450897
v 0.17979735136032104 0.277189701795578 0.18757517635822296
v 0.19333763420581818 -0.00459225382655859 0.20064090192317963
v 0.5841596722602844 -0.004592316225171089 0.09805947542190552
v -0.6013639569282532 -0.004592066165059805 -0.08652135729789734
v -0.6013639569282532 -0.004592066165059805 0.09805949777364731
v -0.1970018595457077 0.2771899402141571 0.18757517635822296
v -0.1970018595457077 0.2771899402141571 0.18757517635822296
v -0.1970018446445465 0.27718988060951233 -0.1760198324918747
v 0.5841596722602844 -0.004592316225171089 0.09805947542190552
v 0.5841596722602844 -0.004592316225171089 -0.08652140200138092
v 0.17979735136032104 0.2771897614002228 -0.1760198175907135
v 0.17979735136032104 0.2771897614002228 -0.1760198175907135
v 0.17979735136032104 0.277189701795578 0.18757517635822296
v 0.17979735136032104 0.277189701795578 0.18757517635822296
v -0.2732807397842407 0.7049934267997742 0.26189926266670227
v -0.1970018595457077 0.2771899402141571 0.18757517635822296
v 0.17979735136032104 0.277189701795578 0.18757517635822296
v 0.25607624650001526 0.7049932479858398 0.2618994414806366
v -0.2732807397842407 0.7049934267997742 0.26189926266670227
v -0.1970018446445465 0.27718988060951233 -0.1760198324918747
v 0.25607624650001526 0.7049932479858398 -0.25023436546325684
v 0.17979735136032104 0.2771897614002228 -0.1760198175907135
v 0.25607624650001526 0.7049932479858398 -0.25023436546325684
v 0.25607624650001526 0.7049932479858398 0.2618994414806366
v 0.17979735136032104 0.2771897614002228 -0.1760198175907135
v 0.17979735136032104 0.277189701795578 0.18757517635822296
v 1.0894593000411987 0.8719140291213989 1.1211055517196655
v -1.077207326889038 0.8719140291213989 1.1211055517196655
v -1.0456539392471313 0.7004197835922241 1.088672399520874
v 1.0579060316085815 0.7004197835922241 1.088672399520874
v -1.077207326889038 0.8719140291213989 -1.1059688329696655
v 1.0894593000411987 0.8719140291213989 -1.1059688329696655
v 1.0579060316085815 0.7004197835922241 -1.073535680770874
v -1.0456539392471313 0.7004197835922241 -1.073535680770874
v -1.0559654235839844 0.858072817325592 0.007568359375
v -1.077207326889038 0.8719140291213989 -1.1059688329696655
v -1.0456539392471313 0.7004197835922241 -1.073535680770874
v -1.0250307321548462 0.7030171155929565 0.007568359375
v -1.077207326889038 0.8719140291213989 1.1211055517196655
v -1.0456539392471313 0.7004197835922241 1.088672399520874
v 1.0682176351547241 0.8580726981163025 0.007568359375
v 1.0894593000411987 0.8719140291213989 1.1211055517196655
v 1.0579060316085815 0.7004197835922241 1.088672399520874
v 1.0372827053070068 0.7030171155929565 0.007568359375
v 1.0894593000411987 0.8719140291213989 -1.1059688329696655
v 1.0579060316085815 0.7004197835922241 -1.073535680770874
v -1.0559654235839844 0.858072817325592 0.007568359375
v -1.077207326889038 0.8719140291213989 1.1211055517196655
v 1.0894593000411987 0.8719140291213989 1.1211055517196655
v 1.0682176351547241 0.8580726981163025 0.007568359375
v -1.077207326889038 0.8719140291213989 -1.1059688329696655
v 1.0894593000411987 0.8719140291213989 -1.1059688329696655
v 1.0579060316085815 0.7004197835922241 1.088672399520874
v -1.0456539392471313 0.7004197835922241 1.088672399520874
v -1.0250307321548462 0.7030171155929565 0.007568359375
v 1.0372827053070068 0.7030171155929565 0.007568359375
v -1.0456539392471313 0.7004197835922241 -1.073535680770874
v 1.0579060316085815 0.7004197835922241 -1.073535680770874
v -0.1970018595457077 0.2771899402141571 0.18757517635822296
v -0.6013639569282532 -0.004592066165059805 0.09805949777364731
v -0.2105422168970108 -0.0045921290293335915 0.20064090192317963
v -0.1970018446445465 0.27718988060951233 -0.1760198324918747
v -0.2732807397842407 0.7049934267997742 0.26189926266670227
vn -8.460485645400695e-8 -0.17092515528202057 -0.9852840304374695
vn -8.460485645400695e-8 -0.17092515528202057 -0.9852840304374695
vn -8.460485645400695e-8 -0.17092515528202057 -0.9852840304374695
vn -3.095903480243578e-7 -1 4.9663479708902947e-14
vn -3.095903480243578e-7 -1 4.9663479708902947e-14
vn -3.095903480243578e-7 -1 4.9663479708902947e-14
vn -3.095904332894861e-7 -1 -4.9663486485166525e-14
vn -3.095904332894861e-7 -1 -4.9663486485166525e-14
vn -3.095904332894861e-7 -1 -4.9663486485166525e-14
vn -3.095904332894861e-7 -1 -8.33620390494616e-8
vn -3.095904332894861e-7 -1 -8.33620390494616e-8
vn -3.095904332894861e-7 -1 -8.33620390494616e-8
vn -0.0000010420571925351396 -1 4.30965712894249e-7
vn -0.0000010420571925351396 -1 4.30965712894249e-7
vn -0.0000010420571925351396 -1 4.30965712894249e-7
vn -1.5996712932064838e-7 -1 -2.5661403544089377e-14
vn -1.5996712932064838e-7 -1 -2.5661403544089377e-14
vn -1.5996712932064838e-7 -1 -2.5661403544089377e-14
vn -1.5996717195321253e-7 -1 -8.127277063146865e-14
vn -1.5996717195321253e-7 -1 -8.127277063146865e-14
vn -1.5996717195321253e-7 -1 -8.127277063146865e-14
vn -3.095903480243578e-7 -1 -2.3374758484351332e-7
vn -3.095903480243578e-7 -1 -2.3374758484351332e-7
vn -3.095903480243578e-7 -1 -2.3374758484351332e-7
vn -6.947047381800076e-7 -1 3.668554171554206e-8
vn -6.947047381800076e-7 -1 3.668554171554206e-8
vn -6.947047381800076e-7 -1 3.668554171554206e-8
vn -1.5996702984466538e-7 -1 0
vn -1.5996702984466538e-7 -1 0
vn -1.5996702984466538e-7 -1 0
vn -1.5996701563381066e-7 -1 2.566138999156222e-14
vn -1.5996701563381066e-7 -1 2.566138999156222e-14
vn -1.5996701563381066e-7 -1 2.566138999156222e-14
vn 0.9639590978622437 0.0583563931286335 0.25957152247428894
vn 0.9639590978622437 0.0583563931286335 0.25957152247428894
vn 0.9639590978622437 0.0583563931286335 0.25957152247428894
vn -0.9639590382575989 0.058356598019599915 0.2595716714859009
vn -0.9639590382575989 0.058356598019599915 0.2595716714859009
vn -0.9639590382575989 0.058356598019599915 0.2595716714859009
vn -0.9639617800712585 0.05835603550076485 -0.259561687707901
vn -0.9639617800712585 0.05835603550076485 -0.259561687707901
vn -0.9639617800712585 0.05835603550076485 -0.259561687707901
vn 0.9639618992805481 0.058355800807476044 -0.25956130027770996
vn 0.9639618992805481 0.058355800807476044 -0.25956130027770996
vn 0.9639618992805481 0.058355800807476044 -0.25956130027770996
vn 5.805679847981082e-7 0.8357046842575073 0.5491791367530823
vn 5.805679847981082e-7 0.8357046842575073 0.5491791367530823
vn 5.805679847981082e-7 0.8357046842575073 0.5491791367530823
vn 4.853113750868943e-7 0.8357046842575073 0.5491790771484375
vn 4.853113750868943e-7 0.8357046842575073 0.5491790771484375
vn 0.0000010616158760967664 0.8357148766517639 -0.5491635799407959
vn 0.0000010616158760967664 0.8357148766517639 -0.5491635799407959
vn 0.0000010616158760967664 0.8357148766517639 -0.5491635799407959
vn 3.0010346563358326e-7 0.8357146382331848 -0.5491639375686646
vn 3.0010346563358326e-7 0.8357146382331848 -0.5491639375686646
vn -0.2534247040748596 0.056954361498355865 -0.96567702293396
vn -0.2534247040748596 0.056954361498355865 -0.96567702293396
vn -0.2534247040748596 0.056954361498355865 -0.96567702293396
vn 0.2534243166446686 0.056954238563776016 -0.9656771421432495
vn 0.2534243166446686 0.056954238563776016 -0.9656771421432495
vn 0.2534243166446686 0.056954238563776016 -0.9656771421432495
vn 0.25346434116363525 0.05695584788918495 0.9656665325164795
vn 0.25346434116363525 0.05695584788918495 0.9656665325164795
vn 0.25346434116363525 0.05695584788918495 0.9656665325164795
vn -0.5717295408248901 0.8204421401023865 -2.9047237148915883e-7
vn -0.5717295408248901 0.8204421401023865 -2.9047237148915883e-7
vn -0.5717295408248901 0.8204421401023865 -2.9047237148915883e-7
vn -0.5717296600341797 0.8204420804977417 -7.053580475258059e-8
vn -0.5717296600341797 0.8204420804977417 -7.053580475258059e-8
vn 0.5717295408248901 0.8204421401023865 0
vn 0.5717295408248901 0.8204421401023865 0
vn 0.5717295408248901 0.8204421401023865 0
vn 0.5717294812202454 0.8204421997070312 1.410716379268706e-7
vn 0.5717294812202454 0.8204421997070312 1.410716379268706e-7
vn -9.940212208903176e-8 -0.17117014527320862 0.9852414727210999
vn -9.940212208903176e-8 -0.17117014527320862 0.9852414727210999
vn -9.940212208903176e-8 -0.17117014527320862 0.9852414727210999
vn -4.0467324424753315e-7 -0.1711704581975937 0.9852414131164551
vn -4.0467324424753315e-7 -0.1711704581975937 0.9852414131164551
vn -4.0467324424753315e-7 -0.1711704581975937 0.9852414131164551
vn -1.5850275758566568e-8 -0.17092521488666534 -0.9852840304374695
vn -1.5850275758566568e-8 -0.17092521488666534 -0.9852840304374695
vn -1.5850275758566568e-8 -0.17092521488666534 -0.9852840304374695
vn 0.9844731688499451 -0.17553506791591644 5.357103205483327e-9
vn 0.9844731688499451 -0.17553505301475525 -1.241270819463125e-8
vn 0.9844731688499451 -0.17553505301475525 -1.241270819463125e-8
vn 0.9844731688499451 -0.17553502321243286 -3.018251959474583e-8
vn 0 -0.18582658469676971 0.9825825691223145
vn 0 -0.18582658469676971 0.9825825691223145
vn 0 -0.18582658469676971 0.9825825691223145
vn 0 -0.18582658469676971 0.9825825691223145
vn 0 -0.18582658469676971 -0.9825825691223145
vn 0 -0.18582658469676971 -0.9825825691223145
vn 0 -0.18582658469676971 -0.9825825691223145
vn 0 -0.18582658469676971 -0.9825825691223145
vn -0.9818119406700134 -0.18974503874778748 0.006487232632935047
vn -0.9839094281196594 -0.17789897322654724 0.016557762399315834
vn -0.9822421073913574 -0.18676510453224182 0.017866577953100204
vn -0.9818491339683533 -0.18958573043346405 -0.005432837642729282
vn -0.9822901487350464 -0.18652485311031342 -0.017735442146658897
vn -0.9839502573013306 -0.17740750312805176 -0.01919611170887947
vn 0.9818119406700134 -0.18974505364894867 -0.0064872317016124725
vn 0.9839094281196594 -0.17789897322654724 -0.016557758674025536
vn 0.9822421073913574 -0.18676510453224182 -0.017866574227809906
vn 0.9818491339683533 -0.18958574533462524 0.0054328362457454205
vn 0.9822901487350464 -0.1865248680114746 0.0177354384213686
vn 0.9839502573013306 -0.17740750312805176 0.01919610984623432
vn 8.314012589494268e-9 0.9999914169311523 -0.004143306985497475
vn 0 0.9999227523803711 -0.012429043650627136
vn 6.235081340122406e-9 0.9999227523803711 -0.012429055757820606
vn 8.314012589494268e-9 0.9999914169311523 0.0041432990692555904
vn 6.235081340122406e-9 0.9999227523803711 0.012429055757820606
vn 0 0.9999227523803711 0.012429067865014076
vn -3.1109523845884723e-9 -0.9999971389770508 -0.002402458805590868
vn 0 -0.9999971389770508 -0.002402464859187603
vn -4.147946874866193e-9 -0.9999997019767761 -0.0008008195436559618
vn -4.147946874866193e-9 -0.9999997019767761 0.0008008237346075475
vn -3.1109523845884723e-9 -0.9999971389770508 0.0024024590384215117
vn 0 -0.9999971389770508 0.0024024529848247766
vn -0.2534644305706024 0.056955885142087936 0.9656665325164795
vn -0.2534644305706024 0.056955885142087936 0.9656665325164795
vn -0.2534644305706024 0.056955885142087936 0.9656665325164795
vn -0.9844731688499451 -0.17553529143333435 2.457159951063659e-7
vn -0.9844731688499451 -0.17553529143333435 2.457159951063659e-7
vt 0.7745048403739929 0.22984331846237183
vt 0.7746887803077698 0.4607278108596802
vt 0.5542479753494263 0.4607275724411011
vt 0.8140386343002319 0.008247137069702148
vt 0.7312110662460327 0.1555396318435669
vt 0.7312109470367432 0.008247137069702148
vt 0.8140386343002319 0.008247137069702148
vt 0.8140386343002319 0.1555396318435669
vt 0.7312110662460327 0.1555396318435669
vt 0.5576150417327881 0.11708438396453857
vt 0.8802696466445923 0.008842885494232178
vt 0.8816243410110474 0.15632390975952148
vt 0.5576150417327881 0.11708438396453857
vt 0.5555577874183655 0.04743915796279907
vt 0.8802696466445923 0.008842885494232178
vt 0.9940912127494812 0.04447859525680542
vt 0.8137931227684021 0.15632390975952148
vt 0.8137100338935852 0.008874893188476562
vt 0.9940912127494812 0.04447859525680542
vt 0.9944127798080444 0.11990290880203247
vt 0.8137931227684021 0.15632390975952148
vt 0.5555577278137207 0.11990290880203247
vt 0.880590558052063 0.008874893188476562
vt 0.879236102104187 0.15608006715774536
vt 0.5555577278137207 0.11990290880203247
vt 0.5572759509086609 0.044491469860076904
vt 0.880590558052063 0.008874893188476562
vt 0.7301661372184753 0.008646249771118164
vt 0.5638437867164612 0.12009960412979126
vt 0.5633408427238464 0.04482334852218628
vt 0.7301661372184753 0.008646249771118164
vt 0.7311996817588806 0.15588343143463135
vt 0.5638437867164612 0.12009960412979126
vt 0.7722252607345581 0.23284584283828735
vt 0.5536403656005859 0.5059633255004883
vt 0.5536403656005859 0.2332240343093872
vt 0.7722256779670715 0.23284584283828735
vt 0.553640604019165 0.2332240343093872
vt 0.553640604019165 0.5059633255004883
vt 0.7722253799438477 0.2328779697418213
vt 0.5536401271820068 0.5061958432197571
vt 0.5536403059959412 0.23325616121292114
vt 0.772225022315979 0.2328779697418213
vt 0.5536400079727173 0.23325616121292114
vt 0.5536396503448486 0.5061957836151123
vt 0.7730488181114197 0.4325004816055298
vt 0.5545476675033569 0.4338945746421814
vt 0.5541810989379883 0.2361356019973755
vt 0.5541810989379883 0.2361356019973755
vt 0.7736091017723083 0.2361370325088501
vt 0.7729365229606628 0.43250054121017456
vt 0.5546965599060059 0.4338945150375366
vt 0.554011344909668 0.2361457347869873
vt 0.554011344909668 0.2361457347869873
vt 0.7726877331733704 0.2361443042755127
vt 0.5550314784049988 0.23091524839401245
vt 0.7726717591285706 0.23136252164840698
vt 0.7726716995239258 0.47773802280426025
vt 0.5550318360328674 0.23091524839401245
vt 0.7726721167564392 0.47773802280426025
vt 0.7726718187332153 0.23136252164840698
vt 0.5550315976142883 0.23122930526733398
vt 0.7726717591285706 0.2314310073852539
vt 0.7726719379425049 0.47805166244506836
vt 0.5545554757118225 0.4338945150375366
vt 0.7727708220481873 0.43250060081481934
vt 0.7736091017723083 0.2361370325088501
vt 0.7736091017723083 0.2361370325088501
vt 0.554011344909668 0.2361457347869873
vt 0.5544614791870117 0.4338945150375366
vt 0.7725282311439514 0.43250060081481934
vt 0.7726877331733704 0.2361443042755127
vt 0.7726877331733704 0.2361443042755127
vt 0.5541810989379883 0.2361356019973755
vt 0.5551698803901672 0.22984331846237183
vt 0.7746887803077698 0.46072810888290405
vt 0.7745048403739929 0.22984355688095093
vt 0.5551698803901672 0.22984331846237183
vt 0.5542480945587158 0.4607279300689697
vt 0.7746887803077698 0.46072810888290405
vt 0.7745048403739929 0.22984331846237183
vt 0.5542479753494263 0.4607275724411011
vt 0.5551698207855225 0.2298431396484375
vt 0.774438202381134 0.4607143998146057
vt 0.555177628993988 0.46071857213974
vt 0.774342954158783 0.23110181093215942
vt 0.5543732047080994 0.23110699653625488
vt 0.4026496410369873 0.8391178846359253
vt 0.4026496410369873 0.00483095645904541
vt 0.5500690340995789 0.0120772123336792
vt 0.5500690340995789 0.8270405530929565
vt 0.4026496410369873 0.8391178846359253
vt 0.4026496410369873 0.00483095645904541
vt 0.5500690340995789 0.0120772123336792
vt 0.5500690340995789 0.8270405530929565
vt 0.4026496410369873 0.47727954387664795
vt 0.4026496410369873 0
vt 0.5500690340995789 0.014492690563201904
vt 0.5500690340995789 0.4772794246673584
vt 0.4026496410369873 -0.00031876564025878906
vt 0.5500690340995789 0.01417398452758789
vt 0.4026496410369873 0.47727954387664795
vt 0.4026496410369873 0
vt 0.5500690340995789 0.014492690563201904
vt 0.5500690340995789 0.4772794246673584
vt 0.4026496410369873 -0.00031876564025878906
vt 0.5500690340995789 0.01417398452758789
vt 0.004838423803448677 0.4588737487792969
vt 0.004838386084884405 0.008828699588775635
vt 0.3928986191749573 0.00882863998413086
vt 0.3928986191749573 0.4588736295700073
vt 0.004838461522012949 0.9064996242523193
vt 0.3928987383842468 0.9064995646476746
vt 0.3928987383842468 0.9064995646476746
vt 0.004838461522012949 0.9064996242523193
vt 0.004838423803448677 0.4588737487792969
vt 0.3928986191749573 0.4588736295700073
vt 0.004838386084884405 0.008828699588775635
vt 0.3928986191749573 0.00882863998413086
vt 0.5550311803817749 0.23122930526733398
vt 0.7726713418960571 0.47805166244506836
vt 0.7726716995239258 0.2314310073852539
vt 0.774342954158783 0.23133337497711182
vt 0.555177628993988 0.4609220027923584
g Geoset0
s 1
usemtl mat_dwarventablessimple01
f 1/1/1 2/2/2 3/3/3
f 4/4/4 5/5/5 6/6/6
f 7/7/7 8/8/8 9/9/9
f 10/10/10 11/11/11 12/12/12
f 13/13/13 14/14/14 15/15/15
f 16/16/16 17/17/17 18/18/18
f 19/19/19 20/20/20 21/21/21
f 22/22/22 23/23/23 24/24/24
f 25/25/25 26/26/26 27/27/27
f 28/28/28 29/29/29 30/30/30
f 31/31/31 32/32/32 33/33/33
f 34/34/34 35/35/35 36/36/36
f 37/37/37 38/38/38 39/39/39
f 40/40/40 41/41/41 42/42/42
f 43/43/43 44/44/44 45/45/45
f 46/46/46 47/47/47 48/48/48
f 49/49/49 50/50/50 46/46/46
f 51/51/51 52/52/52 53/53/53
f 54/54/54 55/55/55 51/51/51
f 56/56/56 57/57/57 58/58/58
f 59/59/59 60/60/60 61/61/61
f 62/62/62 63/63/63 64/64/64
f 65/65/65 66/66/66 67/67/67
f 68/68/68 69/69/69 65/65/65
f 70/70/70 71/71/71 72/72/72
f 73/73/73 74/74/74 70/70/70
f 75/75/75 76/76/76 77/77/77
f 78/78/78 79/79/79 80/80/80
f 81/81/81 82/82/82 83/83/83
f 84/84/84 85/85/85 86/86/86
f 87/87/87 86/86/86 85/85/85
f 88/88/88 89/89/89 90/90/90
f 90/90/90 91/91/91 88/88/88
f 92/92/92 93/93/93 94/94/94
f 94/94/94 95/95/95 92/92/92
f 96/96/96 97/97/97 98/98/98
f 98/98/98 99/99/99 96/96/96
f 100/100/100 96/96/96 99/99/99
f 99/99/99 101/101/101 100/100/100
f 102/102/102 103/103/103 104/104/104
f 104/104/104 105/105/105 102/102/102
f 106/106/106 102/102/102 105/105/105
f 105/105/105 107/107/107 106/106/106
f 108/108/108 109/109/109 110/110/110
f 110/110/110 111/111/111 108/108/108
f 112/112/112 108/108/108 111/111/111
f 111/111/111 113/113/113 112/112/112
f 114/114/114 115/115/115 116/116/116
f 116/116/116 117/117/117 114/114/114
f 117/117/117 116/116/116 118/118/118
f 118/118/118 119/119/119 117/117/117
f 120/120/120 121/121/121 122/122/122
f 123/123/123 124/124/124 2/2/2
f 123/123/123 120/120/120 124/124/124
