# Exported using wow.export v0.1.65
o dwarventablesimple03
mtllib dwarventablesimple03.mtl
v -0.2781969904899597 0.42660000920295715 -0.26642900705337524
v -0.3052169978618622 0.7033060193061829 -0.293177992105484
v 0.30271100997924805 0.7033060193061829 -0.293177992105484
v 0.8304939866065979 0.9059470295906067 0.2919059991836548
v -0.8330000042915344 0.9059470295906067 -0.2898170053958893
v -0.8330000042915344 0.9059470295906067 0.2919059991836548
v 0.8304939866065979 0.9059470295906067 0.2919059991836548
v 0.8304939866065979 0.9059470295906067 -0.2898170053958893
v -0.8330000042915344 0.9059470295906067 -0.2898170053958893
v 0.8304939866065979 0.9059470295906067 0.8575189709663391
v -0.8330000042915344 0.9059470295906067 0.8575189709663391
v -1.082110047340393 0.887811005115509 1.1140600442886353
v 1.0795999765396118 0.887811005115509 1.1140600442886353
v 0.8304939866065979 0.9059470295906067 0.8575189709663391
v -1.082110047340393 0.887811005115509 1.1140600442886353
v -0.8330000042915344 0.9059470295906067 -0.8554670214653015
v 0.8304939866065979 0.9059470295906067 -0.8554670214653015
v 1.0795999765396118 0.887811005115509 -1.1119600534439087
v -1.082110047340393 0.887811005115509 -1.1119600534439087
v -0.8330000042915344 0.9059470295906067 -0.8554670214653015
v 1.0795999765396118 0.887811005115509 -1.1119600534439087
v -0.8330000042915344 0.9059470295906067 0.2919059991836548
v -0.8330000042915344 0.9059470295906067 -0.2898170053958893
v -1.082110047340393 0.887811005115509 -1.1119600534439087
v -1.082110047340393 0.887811005115509 1.1140600442886353
v -1.082110047340393 0.887811005115509 -1.1119600534439087
v -1.082110047340393 0.887811005115509 1.1140600442886353
v -0.8330000042915344 0.9059470295906067 0.8575189709663391
v -0.8330000042915344 0.9059470295906067 -0.2898170053958893
v -0.8330000042915344 0.9059470295906067 -0.8554670214653015
v -1.082110047340393 0.887811005115509 -1.1119600534439087
v 0.8304939866065979 0.9059470295906067 -0.2898170053958893
v 0.8304939866065979 0.9059470295906067 0.2919059991836548
v 1.0795999765396118 0.887811005115509 1.1140600442886353
v 1.0795999765396118 0.887811005115509 -1.1119600534439087
v 1.0795999765396118 0.887811005115509 1.1140600442886353
v 1.0795999765396118 0.887811005115509 -1.1119600534439087
v 0.8304939866065979 0.9059470295906067 -0.8554670214653015
v 0.8304939866065979 0.9059470295906067 0.2919059991836548
v 0.8304939866065979 0.9059470295906067 0.8575189709663391
v 1.0795999765396118 0.887811005115509 1.1140600442886353
v 1.0481200218200684 0.69896399974823 1.0784300565719604
v -1.082110047340393 0.887811005115509 1.1140600442886353
v -1.05062997341156 0.69896399974823 1.0784300565719604
v 1.0481200218200684 0.69896399974823 1.0784300565719604
v 1.0795999765396118 0.887811005115509 1.1140600442886353
v -1.082110047340393 0.887811005115509 1.1140600442886353
v -1.05062997341156 0.69896399974823 -1.0771600008010864
v 1.0795999765396118 0.887811005115509 -1.1119600534439087
v 1.0481200218200684 0.69896399974823 -1.0771600008010864
v -1.05062997341156 0.69896399974823 -1.0771600008010864
v -1.082110047340393 0.887811005115509 -1.1119600534439087
v 1.0795999765396118 0.887811005115509 -1.1119600534439087
v -1.05062997341156 0.69896399974823 -1.0771600008010864
v -1.082110047340393 0.887811005115509 1.1140600442886353
v -1.082110047340393 0.887811005115509 -1.1119600534439087
v -1.05062997341156 0.69896399974823 -1.0771600008010864
v -1.05062997341156 0.69896399974823 1.0784300565719604
v 1.0795999765396118 0.887811005115509 -1.1119600534439087
v 1.0795999765396118 0.887811005115509 1.1140600442886353
v 1.0481200218200684 0.69896399974823 -1.0771600008010864
v 1.0481200218200684 0.69896399974823 1.0784300565719604
v 0.27569401264190674 0.426596999168396 0.2680549919605255
v 0.1540299952030182 -0.0045919399708509445 0.6114140152931213
v 0.29559698700904846 -0.0045919399708509445 0.2872610092163086
v -0.2781969904899597 0.42660000920295715 0.2680549919605255
v -0.29809999465942383 -0.004591669887304306 0.2872610092163086
v -0.15653599798679352 -0.004591669887304306 0.6114140152931213
v -0.2781969904899597 0.42660000920295715 -0.26642900705337524
v -0.15653599798679352 -0.004591669887304306 -0.6097890138626099
v -0.29809999465942383 -0.004591669887304306 -0.285631000995636
v 0.27569401264190674 0.426596999168396 -0.26642900705337524
v 0.29559698700904846 -0.0045919399708509445 -0.285631000995636
v 0.1540299952030182 -0.0045922198332846165 -0.6097890138626099
v -0.15653599798679352 -0.004591669887304306 0.6114140152931213
v 0.1540299952030182 -0.0045919399708509445 0.6114140152931213
v 0.27569401264190674 0.426596999168396 0.2680549919605255
v 0.27569401264190674 0.426596999168396 0.2680549919605255
v -0.2781969904899597 0.42660000920295715 0.2680549919605255
v 0.1540299952030182 -0.0045922198332846165 -0.6097890138626099
v -0.15653599798679352 -0.004591669887304306 -0.6097890138626099
v -0.2781969904899597 0.42660000920295715 -0.26642900705337524
v -0.2781969904899597 0.42660000920295715 -0.26642900705337524
v 0.27569401264190674 0.426596999168396 -0.26642900705337524
v -0.2781969904899597 0.42660000920295715 0.2680549919605255
v -0.5940139889717102 -0.004591669887304306 0.14663100242614746
v -0.29809999465942383 -0.004591669887304306 0.2872610092163086
v -0.2781969904899597 0.42660000920295715 -0.26642900705337524
v -0.29809999465942383 -0.004591669887304306 -0.285631000995636
v -0.5940139889717102 -0.004591669887304306 -0.145006000995636
v 0.27569401264190674 0.426596999168396 -0.26642900705337524
v 0.5915079712867737 -0.0045919399708509445 -0.145006000995636
v 0.29559698700904846 -0.0045919399708509445 -0.285631000995636
v 0.27569401264190674 0.426596999168396 0.2680549919605255
v 0.29559698700904846 -0.0045919399708509445 0.2872610092163086
v 0.5915079712867737 -0.0045922198332846165 0.14663100242614746
v -0.5940139889717102 -0.004591669887304306 -0.145006000995636
v -0.5940139889717102 -0.004591669887304306 0.14663100242614746
v -0.2781969904899597 0.42660000920295715 0.2680549919605255
v -0.2781969904899597 0.42660000920295715 0.2680549919605255
v -0.2781969904899597 0.42660000920295715 -0.26642900705337524
v 0.5915079712867737 -0.0045922198332846165 0.14663100242614746
v 0.5915079712867737 -0.0045919399708509445 -0.145006000995636
v 0.27569401264190674 0.426596999168396 -0.26642900705337524
v 0.27569401264190674 0.426596999168396 -0.26642900705337524
v 0.27569401264190674 0.426596999168396 0.2680549919605255
v 0.27569401264190674 0.426596999168396 0.2680549919605255
v -0.3052169978618622 0.7033060193061829 0.29496899247169495
v -0.2781969904899597 0.42660000920295715 0.2680549919605255
v 0.27569401264190674 0.426596999168396 0.2680549919605255
v 0.30271100997924805 0.7033060193061829 0.29496899247169495
v -0.3052169978618622 0.7033060193061829 0.29496899247169495
v -0.2781969904899597 0.42660000920295715 -0.26642900705337524
v 0.30271100997924805 0.7033060193061829 -0.293177992105484
v 0.27569401264190674 0.426596999168396 -0.26642900705337524
v 0.8304939866065979 0.9059470295906067 -0.8554670214653015
v -0.8330000042915344 0.9059470295906067 -0.2898170053958893
v 0.8304939866065979 0.9059470295906067 -0.2898170053958893
v -0.8330000042915344 0.9059470295906067 -0.8554670214653015
v -0.8330000042915344 0.9059470295906067 0.8575189709663391
v 0.8304939866065979 0.9059470295906067 0.2919059991836548
v -0.8330000042915344 0.9059470295906067 0.2919059991836548
v 0.8304939866065979 0.9059470295906067 0.8575189709663391
v -1.05062997341156 0.69896399974823 1.0784300565719604
v -1.05062997341156 0.69896399974823 -1.0771600008010864
v 1.0481200218200684 0.69896399974823 1.0784300565719604
v 1.0481200218200684 0.69896399974823 -1.0771600008010864
v -0.2781969904899597 0.42660000920295715 -0.26642900705337524
v -0.3052169978618622 0.7033060193061829 0.29496899247169495
v -0.3052169978618622 0.7033060193061829 -0.293177992105484
v -0.2781969904899597 0.42660000920295715 0.2680549919605255
v 0.30271100997924805 0.7033060193061829 -0.293177992105484
v 0.30271100997924805 0.7033060193061829 0.29496899247169495
v 0.27569401264190674 0.426596999168396 -0.26642900705337524
v 0.27569401264190674 0.426596999168396 0.2680549919605255
vn -7.344819863419616e-8 -0.09623730182647705 -0.9953579902648926
vn -7.344819863419616e-8 -0.09623730182647705 -0.9953579902648926
vn -7.344819863419616e-8 -0.09623730182647705 -0.9953579902648926
vn 4.578389933840299e-8 1 -2.8461800027912432e-8
vn 4.578389933840299e-8 1 -2.8461800027912432e-8
vn 4.578389933840299e-8 1 -2.8461800027912432e-8
vn 4.677919918094631e-8 1 -3.1307898495924746e-8
vn 4.677919918094631e-8 1 -3.1307898495924746e-8
vn 4.677919918094631e-8 1 -3.1307898495924746e-8
vn 4.1674400819147195e-8 0.9975100159645081 0.07051800191402435
vn 4.1674400819147195e-8 0.9975100159645081 0.07051800191402435
vn 4.1674400819147195e-8 0.9975100159645081 0.07051800191402435
vn 9.1307903460347e-9 0.9975110292434692 0.07051769644021988
vn 9.1307903460347e-9 0.9975110292434692 0.07051769644021988
vn 9.1307903460347e-9 0.9975110292434692 0.07051769644021988
vn 5.564800176216522e-8 0.9975100159645081 -0.07052870094776154
vn 5.564800176216522e-8 0.9975100159645081 -0.07052870094776154
vn 5.564800176216522e-8 0.9975100159645081 -0.07052870094776154
vn 3.02357996417868e-8 0.9975100159645081 -0.07052890211343765
vn 3.02357996417868e-8 0.9975100159645081 -0.07052890211343765
vn 3.02357996417868e-8 0.9975100159645081 -0.07052890211343765
vn -0.07261089980602264 0.9973599910736084 -1.8466799645011633e-8
vn -0.07261089980602264 0.9973599910736084 -1.8466799645011633e-8
vn -0.07261089980602264 0.9973599910736084 -1.8466799645011633e-8
vn -0.07261080294847488 0.9973599910736084 -2.670550003358585e-8
vn -0.07261080294847488 0.9973599910736084 -2.670550003358585e-8
vn -0.07261080294847488 0.9973599910736084 -2.2393500387352105e-8
vn -0.07261080294847488 0.9973599910736084 -2.2393500387352105e-8
vn -0.07261080294847488 0.9973599910736084 -2.9193099493340924e-8
vn -0.07261080294847488 0.9973599910736084 -2.9193099493340924e-8
vn -0.07261080294847488 0.9973599910736084 -2.9193099493340924e-8
vn 0.0726102963089943 0.9973599910736084 -1.799890014808625e-8
vn 0.0726102963089943 0.9973599910736084 -1.799890014808625e-8
vn 0.0726102963089943 0.9973599910736084 -1.799890014808625e-8
vn 0.07261040061712265 0.9973599910736084 -2.350179961752019e-8
vn 0.07261040061712265 0.9973599910736084 -2.350179961752019e-8
vn 0.0726102963089943 0.9973599910736084 -2.9193099493340924e-8
vn 0.0726102963089943 0.9973599910736084 -2.9193099493340924e-8
vn 0.07261040061712265 0.9973599910736084 -2.9195000195159082e-8
vn 0.07261040061712265 0.9973599910736084 -2.9195000195159082e-8
vn 0.07261040061712265 0.9973599910736084 -2.9195000195159082e-8
vn -5.195380126110649e-8 -0.1853960007429123 0.9826639890670776
vn -5.195380126110649e-8 -0.1853960007429123 0.9826639890670776
vn -5.195380126110649e-8 -0.1853960007429123 0.9826639890670776
vn -9.931910227578555e-8 -0.18539699912071228 0.9826639890670776
vn -9.931910227578555e-8 -0.18539699912071228 0.9826639890670776
vn -9.931910227578555e-8 -0.18539699912071228 0.9826639890670776
vn 4.2788698806361936e-8 -0.1812629997730255 -0.9834349751472473
vn 4.2788698806361936e-8 -0.1812629997730255 -0.9834349751472473
vn 4.2788698806361936e-8 -0.1812629997730255 -0.9834349751472473
vn 1.41008996479286e-7 -0.1812639981508255 -0.9834340214729309
vn 1.41008996479286e-7 -0.1812639981508255 -0.9834340214729309
vn 1.41008996479286e-7 -0.1812639981508255 -0.9834340214729309
vn -0.9863880276679993 -0.16443300247192383 4.4028998225087435e-9
vn -0.9863880276679993 -0.16443300247192383 4.4028998225087435e-9
vn -0.9863880276679993 -0.16443300247192383 4.4028998225087435e-9
vn -0.9863880276679993 -0.16443300247192383 2.0207899797952678e-9
vn -0.9863880276679993 -0.16443300247192383 2.0207899797952678e-9
vn 0.9863880276679993 -0.16443200409412384 9.892279706491536e-8
vn 0.9863880276679993 -0.16443300247192383 1.9795800199062796e-7
vn 0.9863880276679993 -0.16443300247192383 1.9795800199062796e-7
vn 0.9863880276679993 -0.16443400084972382 2.9699299375351984e-7
vn 0.9147639870643616 0.060021501034498215 0.39950600266456604
vn 0.9147639870643616 0.060021501034498215 0.39950600266456604
vn 0.9147639870643616 0.060021501034498215 0.39950600266456604
vn -0.9147629737854004 0.06002179905772209 0.39950600266456604
vn -0.9147629737854004 0.06002179905772209 0.39950600266456604
vn -0.9147629737854004 0.06002179905772209 0.39950600266456604
vn -0.9147639870643616 0.060021501034498215 -0.39950600266456604
vn -0.9147639870643616 0.060021501034498215 -0.39950600266456604
vn -0.9147639870643616 0.060021501034498215 -0.39950600266456604
vn 0.9147639870643616 0.060021400451660156 -0.39950600266456604
vn 0.9147639870643616 0.060021400451660156 -0.39950600266456604
vn 0.9147639870643616 0.060021400451660156 -0.39950600266456604
vn 4.082750137968105e-7 0.6229320168495178 0.7822759747505188
vn 4.082750137968105e-7 0.6229320168495178 0.7822759747505188
vn 4.082750137968105e-7 0.6229320168495178 0.7822759747505188
vn 2.109329955146677e-7 0.6229320168495178 0.7822759747505188
vn 2.109329955146677e-7 0.6229320168495178 0.7822759747505188
vn 5.336750064088847e-7 0.6229320168495178 -0.7822759747505188
vn 5.336750064088847e-7 0.6229320168495178 -0.7822759747505188
vn 5.336750064088847e-7 0.6229320168495178 -0.7822759747505188
vn 1.7577700361925963e-7 0.6229310035705566 -0.7822759747505188
vn 1.7577700361925963e-7 0.6229310035705566 -0.7822759747505188
vn -0.42846599221229553 0.05993720144033432 0.9015679955482483
vn -0.42846599221229553 0.05993720144033432 0.9015679955482483
vn -0.42846599221229553 0.05993720144033432 0.9015679955482483
vn -0.42846599221229553 0.0599370002746582 -0.9015679955482483
vn -0.42846599221229553 0.0599370002746582 -0.9015679955482483
vn -0.42846599221229553 0.0599370002746582 -0.9015679955482483
vn 0.42846599221229553 0.059936799108982086 -0.9015679955482483
vn 0.42846599221229553 0.059936799108982086 -0.9015679955482483
vn 0.42846599221229553 0.059936799108982086 -0.9015679955482483
vn 0.42846599221229553 0.0599370002746582 0.9015679955482483
vn 0.42846599221229553 0.0599370002746582 0.9015679955482483
vn 0.42846599221229553 0.0599370002746582 0.9015679955482483
vn -0.8067560195922852 0.5908849835395813 -3.860859862925281e-7
vn -0.8067560195922852 0.5908849835395813 -3.860859862925281e-7
vn -0.8067560195922852 0.5908849835395813 -3.860859862925281e-7
vn -0.8067560195922852 0.5908849835395813 9.436620018732356e-8
vn -0.8067560195922852 0.5908849835395813 9.436620018732356e-8
vn 0.8067560195922852 0.5908849835395813 0
vn 0.8067560195922852 0.5908849835395813 0
vn 0.8067560195922852 0.5908849835395813 0
vn 0.8067560195922852 0.5908849835395813 3.455789965300937e-8
vn 0.8067560195922852 0.5908849835395813 3.455789965300937e-8
vn -3.278169913301099e-8 -0.0968116968870163 0.9953029751777649
vn -3.278169913301099e-8 -0.0968116968870163 0.9953029751777649
vn -3.278169913301099e-8 -0.0968116968870163 0.9953029751777649
vn -3.294659904895525e-7 -0.09681239724159241 0.9953029751777649
vn -3.294659904895525e-7 -0.09681239724159241 0.9953029751777649
vn -3.294659904895525e-7 -0.09681239724159241 0.9953029751777649
vn -3.25871987172377e-8 -0.09623739868402481 -0.9953579902648926
vn -3.25871987172377e-8 -0.09623739868402481 -0.9953579902648926
vn -3.25871987172377e-8 -0.09623739868402481 -0.9953579902648926
vn 4.677919918094631e-8 1 -2.9270399437564265e-8
vn 4.677919918094631e-8 1 -2.9270399437564265e-8
vn 4.677919918094631e-8 1 -2.9270399437564265e-8
vn 4.677919918094631e-8 1 -2.9270399437564265e-8
vn 4.6032798906026073e-8 1 -3.000409876108279e-8
vn 4.6032798906026073e-8 1 -3.000409876108279e-8
vn 4.578389933840299e-8 1 -3.073590093549683e-8
vn 4.628159899766615e-8 1 -2.9272300139382423e-8
vn -1.262220017395066e-8 -1 1.2289399720089023e-8
vn -2.5244499823884325e-8 -1 2.4578799440178045e-8
vn -2.5244499823884325e-8 -1 2.4578799440178045e-8
vn -3.7866701774191824e-8 -1 3.686820093662391e-8
vn -0.9952660202980042 -0.09718330204486847 2.1416900608528522e-7
vn -0.9952660202980042 -0.09718330204486847 2.1416900608528522e-7
vn -0.9952660202980042 -0.09718330204486847 2.1416900608528522e-7
vn -0.9952660202980042 -0.09718310087919235 1.1641599684253379e-7
vn 0.9952660202980042 -0.09718330204486847 2.582559943675733e-9
vn 0.9952660202980042 -0.09718330204486847 -1.55059998174778e-9
vn 0.9952660202980042 -0.09718330204486847 -1.55059998174778e-9
vn 0.9952660202980042 -0.09718330204486847 -5.683760129215898e-9
vt 0.7745050191879272 0.22984302043914795
vt 0.7746890187263489 0.4607279896736145
vt 0.5542479753494263 0.4607279896736145
vt 0.7772210240364075 0.22996801137924194
vt 0.5512589812278748 0.9995004530064762
vt 0.7772210240364075 0.999500393983908
vt 0.7772210240364075 0.22996801137924194
vt 0.5512589812278748 0.22996801137924194
vt 0.5512589812278748 0.9995004530064762
vt 0.04559750109910965 0.9079803004860878
vt 0.3999969959259033 0.90796709805727
vt 0.44856399297714233 0.99729984998703
vt -0.0028355999384075403 0.9972983601037413
vt 0.04559750109910965 0.9079803004860878
vt 0.44856399297714233 0.99729984998703
vt 0.045892901718616486 0.9078862965106964
vt 0.4001060128211975 0.9078729003667831
vt 0.4485599994659424 0.9968633700627834
vt -0.002838870044797659 0.9968619300052524
vt 0.045892901718616486 0.9078862965106964
vt 0.4485599994659424 0.9968633700627834
vt 0.2874380052089691 0.9077581986784935
vt 0.16689400374889374 0.9077652022242546
vt -0.0002753440057858825 0.9949976201169193
vt 0.4556399881839752 0.9949814700521529
vt -0.0002753440057858825 0.9949976201169193
vt 0.4556399881839752 0.9949814700521529
vt 0.403097003698349 0.9077775031328201
vt 0.16689400374889374 0.9077652022242546
vt 0.052258700132369995 0.9077673032879829
vt -0.0002753440057858825 0.9949976201169193
vt 0.28800299763679504 0.9077493995428085
vt 0.1676820069551468 0.9077562987804413
vt -0.0006033480167388916 0.9949595900252461
vt 0.45531201362609863 0.9949433198198676
vt -0.0006033480167388916 0.9949595900252461
vt 0.45531201362609863 0.9949433198198676
vt 0.4027779996395111 0.9077470973134041
vt 0.1676820069551468 0.9077562987804413
vt 0.051938798278570175 0.907737098634243
vt -0.0006033480167388916 0.9949595900252461
vt 0.0014394799945876002 0.9067561998963356
vt 0.4523389935493469 0.9945757398381829
vt 0.4523389935493469 0.9067561030387878
vt 0.0014394799945876002 0.9067561998963356
vt 0.0014394699828699231 0.9945757398381829
vt 0.4523389935493469 0.9945757398381829
vt 0.4523389935493469 0.9067557007074356
vt 0.0014394499594345689 0.9945750199258327
vt 0.0014394399477168918 0.9067557007074356
vt 0.4523389935493469 0.9067557007074356
vt 0.4523389935493469 0.9945750199258327
vt 0.0014394499594345689 0.9945750199258327
vt 0.4524399936199188 0.9067350998520851
vt 0.0015274599427357316 0.9947192701511085
vt 0.45245400071144104 0.9947183099575341
vt 0.4524399936199188 0.9067350998520851
vt 0.001436769962310791 0.9067358002066612
vt 0.45245400071144104 0.9946742099709809
vt 0.0015274599427357316 0.9946750397793949
vt 0.4524399936199188 0.9067049026489258
vt 0.001436769962310791 0.9067056030035019
vt 0.772225022315979 0.23284602165222168
vt 0.5536400079727173 0.505962997674942
vt 0.5536400079727173 0.23322397470474243
vt 0.7722259759902954 0.23284602165222168
vt 0.5536410212516785 0.23322397470474243
vt 0.5536410212516785 0.505962997674942
vt 0.772225022315979 0.23287802934646606
vt 0.5536400079727173 0.506195992231369
vt 0.5536400079727173 0.23325598239898682
vt 0.772225022315979 0.23287802934646606
vt 0.5536400079727173 0.23325598239898682
vt 0.5536400079727173 0.506195992231369
vt 0.773048996925354 0.4325000047683716
vt 0.5545480251312256 0.4338949918746948
vt 0.5541809797286987 0.23613601922988892
vt 0.5541809797286987 0.23613601922988892
vt 0.7736089825630188 0.23613697290420532
vt 0.772936999797821 0.43250101804733276
vt 0.5546969771385193 0.4338949918746948
vt 0.5540109872817993 0.2361459732055664
vt 0.5540109872817993 0.2361459732055664
vt 0.7726879715919495 0.23614400625228882
vt 0.5550310015678406 0.2312290072441101
vt 0.7726709842681885 0.478052020072937
vt 0.7726719975471497 0.2314310073852539
vt 0.5550310015678406 0.23091500997543335
vt 0.7726719975471497 0.23136299848556519
vt 0.7726719975471497 0.47773802280426025
vt 0.5550320148468018 0.23091500997543335
vt 0.7726719975471497 0.47773802280426025
vt 0.7726719975471497 0.23136299848556519
vt 0.5550320148468018 0.2312290072441101
vt 0.7726719975471497 0.2314310073852539
vt 0.7726719975471497 0.478052020072937
vt 0.5545549988746643 0.4338949918746948
vt 0.7727710008621216 0.43250101804733276
vt 0.7736089825630188 0.23613697290420532
vt 0.7736089825630188 0.23613697290420532
vt 0.5540109872817993 0.2361459732055664
vt 0.5544610023498535 0.4338949918746948
vt 0.7725279927253723 0.43250101804733276
vt 0.7726879715919495 0.23614400625228882
vt 0.7726879715919495 0.23614400625228882
vt 0.5541809797286987 0.23613601922988892
vt 0.5551699995994568 0.22984302043914795
vt 0.7746890187263489 0.4607279896736145
vt 0.7745050191879272 0.22984397411346436
vt 0.5551699995994568 0.22984302043914795
vt 0.5542479753494263 0.4607279896736145
vt 0.7746890187263489 0.4607279896736145
vt 0.7745050191879272 0.22984302043914795
vt 0.5542479753494263 0.4607279896736145
vt 0.5551699995994568 0.22984302043914795
vt 0.5512599945068359 0.9995004530064762
vt 0.7772780060768127 0.22996801137924194
vt 0.7772780060768127 0.9995005130185746
vt 0.5512589812278748 0.22996801137924194
vt 0.5512239933013916 0.22996801137924194
vt 0.7772210240364075 0.999500393983908
vt 0.7772210240364075 0.22996801137924194
vt 0.5512239933013916 0.9995004530064762
vt 0.005330509971827269 0.9062327966094017
vt 0.005330389831215143 0.004024028778076172
vt 0.40046700835227966 0.9062329009175301
vt 0.40046700835227966 0.004024028778076172
vt 0.7743430137634277 0.23133301734924316
vt 0.5551779866218567 0.4609220027923584
vt 0.7744380235671997 0.46091800928115845
vt 0.554373025894165 0.2313389778137207
vt 0.7744380235671997 0.4607139825820923
vt 0.5551779866218567 0.4607189893722534
vt 0.7743430137634277 0.23110198974609375
vt 0.554373025894165 0.23110699653625488
g Geoset0
s 1
usemtl mat_dwarventablessimple01
f 1/1/1 2/2/2 3/3/3
f 4/4/4 5/5/5 6/6/6
f 7/7/7 8/8/8 9/9/9
f 10/10/10 11/11/11 12/12/12
f 13/13/13 14/14/14 15/15/15
f 16/16/16 17/17/17 18/18/18
f 19/19/19 20/20/20 21/21/21
f 22/22/22 23/23/23 24/24/24
f 25/25/25 22/22/22 26/26/26
f 22/22/22 27/27/27 28/28/28
f 29/29/29 30/30/30 31/31/31
f 32/32/32 33/33/33 34/34/34
f 35/35/35 32/32/32 36/36/36
f 32/32/32 37/37/37 38/38/38
f 39/39/39 40/40/40 41/41/41
f 42/42/42 43/43/43 44/44/44
f 45/45/45 46/46/46 47/47/47
f 48/48/48 49/49/49 50/50/50
f 51/51/51 52/52/52 53/53/53
f 54/54/54 55/55/55 56/56/56
f 57/57/57 58/58/58 55/55/55
f 59/59/59 60/60/60 61/61/61
f 62/62/62 61/61/61 60/60/60
f 63/63/63 64/64/64 65/65/65
f 66/66/66 67/67/67 68/68/68
f 69/69/69 70/70/70 71/71/71
f 72/72/72 73/73/73 74/74/74
f 75/75/75 76/76/76 77/77/77
f 78/78/78 79/79/79 75/75/75
f 80/80/80 81/81/81 82/82/82
f 83/83/83 84/84/84 80/80/80
f 85/85/85 86/86/86 87/87/87
f 88/88/88 89/89/89 90/90/90
f 91/91/91 92/92/92 93/93/93
f 94/94/94 95/95/95 96/96/96
f 97/97/97 98/98/98 99/99/99
f 100/100/100 101/101/101 97/97/97
f 102/102/102 103/103/103 104/104/104
f 105/105/105 106/106/106 102/102/102
f 107/107/107 108/108/108 109/109/109
f 110/110/110 111/111/111 112/112/112
f 113/113/113 114/114/114 115/115/115
f 116/116/116 117/117/117 118/118/118
f 116/116/116 119/119/119 117/117/117
f 120/120/120 121/121/121 122/122/122
f 120/120/120 123/123/123 121/121/121
f 124/124/124 125/125/125 126/126/126
f 127/127/127 126/126/126 125/125/125
f 128/128/128 129/129/129 130/130/130
f 128/128/128 131/131/131 129/129/129
f 132/132/132 133/133/133 134/134/134
f 135/135/135 134/134/134 133/133/133
