# Exported using wow.export v0.1.65
o booklargeopen01
mtllib booklargeopen01.mtl
v -0.029217200353741646 0.00033611099934205413 -0.3658280074596405
v 1.157230019569397 0.0003388889890629798 -0.3700079917907715
v -0.029217200353741646 0.00033611099934205413 0.3744420111179352
v 1.1199400424957275 0.03363420069217682 0.3456310033798218
v 1.157230019569397 0.0003388889890629798 0.378618985414505
v 1.1199400424957275 0.03363420069217682 -0.33913901448249817
v 1.157230019569397 0.0003388889890629798 -0.3700079917907715
v 1.098449945449829 0.08355139940977097 0.3456310033798218
v 1.1199400424957275 0.03363420069217682 0.3456310033798218
v 1.098449945449829 0.08355139940977097 -0.33913901448249817
v 1.1199400424957275 0.03363420069217682 -0.33913901448249817
v -1.1770399808883667 0.03363420069217682 0.3456310033798218
v -1.1562199592590332 0.08490719646215439 0.3456310033798218
v -1.1770399808883667 0.03363420069217682 -0.33913901448249817
v -1.1562199592590332 0.08490719646215439 -0.33913901448249817
v -1.2119300365447998 0.0003388889890629798 0.378618985414505
v -1.1770399808883667 0.03363420069217682 0.3456310033798218
v -1.2119300365447998 0.0003388889890629798 -0.3700079917907715
v -1.1770399808883667 0.03363420069217682 -0.33913901448249817
v -0.029217200353741646 0.00033611099934205413 0.3744420111179352
v -1.2119300365447998 0.0003388889890629798 0.378618985414505
v -0.029217200353741646 0.00033611099934205413 -0.3658280074596405
v -1.2119300365447998 0.0003388889890629798 -0.3700079917907715
v 1.098449945449829 0.08355139940977097 -0.33913901448249817
v 0.10896900296211243 0.12230800092220306 -0.33913901448249817
v 1.098449945449829 0.08355139940977097 0.3456310033798218
v 0.10896900296211243 0.12230800092220306 0.3456310033798218
v -0.029217200353741646 0.06211639940738678 -0.32987499237060547
v -0.029217200353741646 0.06211639940738678 0.3363640010356903
v -1.1562199592590332 0.08490719646215439 0.3456310033798218
v -0.16536100208759308 0.12144900113344193 0.3456310033798218
v -1.1562199592590332 0.08490719646215439 -0.33913901448249817
v -0.16536100208759308 0.12144900113344193 -0.33913901448249817
v -0.029217200353741646 0.06211639940738678 0.3363640010356903
v -0.029217200353741646 0.06211639940738678 -0.32987499237060547
v -0.16536100208759308 0.12144900113344193 0.3456310033798218
v -1.1562199592590332 0.08490719646215439 0.3456310033798218
v -0.029217200353741646 0.018571900203824043 0.3437030017375946
v -1.1770399808883667 0.03363420069217682 0.3456310033798218
v -0.029217200353741646 0.06211639940738678 0.3363640010356903
v 0.10896900296211243 0.12230800092220306 0.3456310033798218
v 1.1199400424957275 0.03363420069217682 0.3456310033798218
v 1.098449945449829 0.08355139940977097 0.3456310033798218
v -1.2119300365447998 0.0003388889890629798 0.378618985414505
v -0.029217200353741646 0.00033611099934205413 0.3744420111179352
v -1.1770399808883667 0.03363420069217682 0.3456310033798218
v -0.029217200353741646 0.018571900203824043 0.3437030017375946
v 1.157230019569397 0.0003388889890629798 0.378618985414505
v 1.1199400424957275 0.03363420069217682 0.3456310033798218
v -0.029217200353741646 0.06211639940738678 -0.32987499237060547
v -0.029217200353741646 0.018571900203824043 -0.3372170031070709
v -0.16536100208759308 0.12144900113344193 -0.33913901448249817
v 0.10896900296211243 0.12230800092220306 -0.33913901448249817
v 1.1199400424957275 0.03363420069217682 -0.33913901448249817
v 1.098449945449829 0.08355139940977097 -0.33913901448249817
v -1.1770399808883667 0.03363420069217682 -0.33913901448249817
v -1.1562199592590332 0.08490719646215439 -0.33913901448249817
v -1.2119300365447998 0.0003388889890629798 -0.3700079917907715
v -1.1770399808883667 0.03363420069217682 -0.33913901448249817
v -0.029217200353741646 0.00033611099934205413 -0.3658280074596405
v -0.029217200353741646 0.018571900203824043 -0.3372170031070709
v 1.157230019569397 0.0003388889890629798 -0.3700079917907715
v 1.1199400424957275 0.03363420069217682 -0.33913901448249817
v 1.157230019569397 0.0003388889890629798 0.378618985414505
vn -2.4284499758331357e-11 -1 -6.657790291297871e-11
vn -8.419889674371461e-9 -1 4.373270190427547e-9
vn -5.623800092280362e-9 -1 -6.657899925821553e-11
vn 0.8521900177001953 0.5232319831848145 -1.3153499622831077e-8
vn 0.6661069989204407 0.745855987071991 -1.9221699787408397e-8
vn 0.7662709951400757 0.6425179839134216 -1.7646300420892658e-8
vn 0.6661069989204407 0.745855987071991 -1.3196300052698007e-8
vn 0.9184709787368774 0.39548900723457336 0
vn 0.8521900177001953 0.5232319831848145 -1.3153499622831077e-8
vn 0.9184709787368774 0.39548900723457336 -6.69361988059336e-9
vn 0.7662709951400757 0.6425179839134216 -1.7646300420892658e-8
vn -0.7845969796180725 0.6200060248374939 -1.701219964900247e-8
vn -0.9264950156211853 0.37630799412727356 -7.278840197244563e-9
vn -0.8648939728736877 0.5019540190696716 -1.3278199872956975e-8
vn -0.9264950156211853 0.37630799412727356 -1.8197100493111407e-9
vn -0.6903690099716187 0.7234579920768738 -1.2800000170898329e-8
vn -0.7845969796180725 0.6200060248374939 -1.701219964900247e-8
vn -0.6903679966926575 0.7234579920768738 -1.8644499277797877e-8
vn -0.8648939728736877 0.5019540190696716 -1.3278199872956975e-8
vn -5.623800092280362e-9 -1 -6.657899925821553e-11
vn 8.352309954773318e-9 -1 4.373279960390164e-9
vn -2.4284499758331357e-11 -1 -6.657790291297871e-11
vn 1.6736199981437494e-8 -1 1.7692800113877638e-8
vn 0.03913800045847893 0.9992340207099915 0
vn -0.10947000235319138 0.9939900040626526 -2.5272900217032657e-8
vn 0.03913800045847893 0.9992340207099915 -1.9328000533391787e-8
vn -0.25897398591041565 0.9658839702606201 -2.8380199523780902e-8
vn -0.14362700283527374 0.9896320104598999 -1.9319999822187128e-8
vn 0.14382199943065643 0.9896039962768555 -1.931890025730354e-8
vn -0.03685450181365013 0.9993209838867188 -4.832410027688638e-9
vn 0.11106599867343903 0.9938129782676697 -2.6915000006511036e-8
vn -0.03685450181365013 0.9993209838867188 -2.1745799827499468e-8
vn 0.25982099771499634 0.9656569957733154 -2.8374099514394402e-8
vn 0.14382199943065643 0.9896039962768555 -1.931890025730354e-8
vn -0.14362700283527374 0.9896320104598999 -1.9319999822187128e-8
vn 0.06989239901304245 0.07386499643325806 0.99481600522995
vn 0.0011639399453997612 -0.009261470288038254 0.9999560117721558
vn 0.00025881201145239174 0.37573298811912537 0.9267280101776123
vn 0.006011209916323423 0.5750979781150818 0.8180630207061768
vn 0.0005059529794380069 0.1661980003118515 0.9860919713973999
vn -0.04647430032491684 0.0496084988117218 0.9976869821548462
vn -0.004216509871184826 0.24332599341869354 0.9699349999427795
vn 3.6264299296817626e-7 0.000006524529908347176 1
vn 0.0025142000522464514 0.7025330066680908 0.7116469740867615
vn 0.0043180398643016815 0.8134989738464355 0.5815500020980835
vn 0.006011209916323423 0.5750979781150818 0.8180630207061768
vn 0.00025881201145239174 0.37573298811912537 0.9267280101776123
vn -0.006125589832663536 0.7858080267906189 0.6184409856796265
vn -0.004216509871184826 0.24332599341869354 0.9699349999427795
vn 0.0005059610120952129 0.1661970019340515 -0.9860929846763611
vn 0.0002583189925644547 0.36518898606300354 -0.9309340119361877
vn 0.0698925033211708 0.07386379688978195 -0.99481600522995
vn -0.0464744009077549 0.049605898559093475 -0.9976869821548462
vn -0.004092920105904341 0.23330700397491455 -0.9723950028419495
vn 4.2285901002969695e-8 0.0000010795999969559489 -1
vn 0.005937050096690655 0.5562909841537476 -0.8309659957885742
vn 0.0011639499571174383 -0.009264829568564892 -0.9999560117721558
vn 0.0025956700555980206 0.6783919930458069 -0.7346950173377991
vn 0.005937050096690655 0.5562909841537476 -0.8309659957885742
vn 0.004255140200257301 0.7942169904708862 -0.6076200008392334
vn 0.0002583189925644547 0.36518898606300354 -0.9309340119361877
vn -0.006033639889210463 0.7652159929275513 -0.643746018409729
vn -0.004092920105904341 0.23330700397491455 -0.9723950028419495
vn -6.231280075263967e-11 -1 1.7692800113877638e-8
vt 0.29597601294517517 0.5290850102901459
vt 0.617434024810791 0.5290850102901459
vt 0.29597601294517517 0.7491599917411804
vt 0.33428800106048584 0.5268889963626862
vt 0.33428800106048584 0.5318920016288757
vt 0.6291589736938477 0.5268889963626862
vt 0.6291589736938477 0.5318920016288757
vt 0.0006505849887616932 0.062268972396850586
vt 0.0006505849887616932 0.0025169849395751953
vt 0.24886299669742584 0.062268972396850586
vt 0.24886299669742584 0.0025169849395751953
vt 0.0006505849887616932 0.0025169849395751953
vt 0.0006505849887616932 0.06223702430725098
vt 0.24886299669742584 0.0025169849395751953
vt 0.24886299669742584 0.06223702430725098
vt 0.33428800106048584 0.5318920016288757
vt 0.33428800106048584 0.5268889963626862
vt 0.6291589736938477 0.5318920016288757
vt 0.6291589736938477 0.5268889963626862
vt 0.29587501287460327 0.7491599917411804
vt 0.6172990202903748 0.7491599917411804
vt 0.29587501287460327 0.5290850102901459
vt 0.6172990202903748 0.5290850102901459
vt 0.8138269782066345 0.0023990273475646973
vt 0.8138269782066345 0.22916799783706665
vt 0.997717022895813 0.0023990273475646973
vt 0.997717022895813 0.22916799783706665
vt 0.8138269782066345 0.24765300750732422
vt 0.997717022895813 0.24765300750732422
vt 0.8113070130348206 0.0023940205574035645
vt 0.8113070130348206 0.22771799564361572
vt 0.6250140070915222 0.0023940205574035645
vt 0.625012993812561 0.22771799564361572
vt 0.8113070130348206 0.24731600284576416
vt 0.625012993812561 0.24731600284576416
vt 0.03096669912338257 0.12488400936126709
vt 0.24724000692367554 0.12488299608230591
vt 0.000713718996848911 0.06446802616119385
vt 0.2472359985113144 0.0644959807395935
vt 0.0006786750163882971 0.12487900257110596
vt 0.030857499688863754 0.12488400936126709
vt 0.24702300131320953 0.0644959807395935
vt 0.24702699482440948 0.12488299608230591
vt 0.6289820075035095 0.5295239984989166
vt 0.6289820075035095 0.7447569966316223
vt 0.6173539757728577 0.5295239984989166
vt 0.6173539757728577 0.7447569966316223
vt 0.6289820075035095 0.5295650064945221
vt 0.6174650192260742 0.5295650064945221
vt 0.000757806992623955 0.12487900257110596
vt 0.000713718996848911 0.06446802616119385
vt 0.03096669912338257 0.12488400936126709
vt 0.0309555996209383 0.12488400936126709
vt 0.24702300131320953 0.06449699401855469
vt 0.24702699482440948 0.12503498792648315
vt 0.2472359985113144 0.06449699401855469
vt 0.24724000692367554 0.12488299608230591
vt 0.6289820075035095 0.5295650064945221
vt 0.6174650192260742 0.5295650064945221
vt 0.6289820075035095 0.7448799908161163
vt 0.6173539757728577 0.7448799908161163
vt 0.6289820075035095 0.5295239984989166
vt 0.6173539757728577 0.5295239984989166
vt 0.617434024810791 0.7491599917411804
g Geoset0
s 1
usemtl mat_books
f 1/1/1 2/2/2 3/3/3
f 4/4/4 5/5/5 6/6/6
f 7/7/7 6/6/6 5/5/5
f 8/8/8 9/9/9 10/10/10
f 11/11/11 10/10/10 9/9/9
f 12/12/12 13/13/13 14/14/14
f 15/15/15 14/14/14 13/13/13
f 16/16/16 17/17/17 18/18/18
f 19/19/19 18/18/18 17/17/17
f 20/20/20 21/21/21 22/22/22
f 23/23/23 22/22/22 21/21/21
f 24/24/24 25/25/25 26/26/26
f 27/27/27 26/26/26 25/25/25
f 25/25/25 28/28/28 27/27/27
f 29/29/29 27/27/27 28/28/28
f 30/30/30 31/31/31 32/32/32
f 33/33/33 32/32/32 31/31/31
f 31/31/31 34/34/34 33/33/33
f 35/35/35 33/33/33 34/34/34
f 36/36/36 37/37/37 38/38/38
f 39/39/39 38/38/38 37/37/37
f 40/40/40 36/36/36 38/38/38
f 41/41/41 40/40/40 38/38/38
f 38/38/38 42/42/42 41/41/41
f 43/43/43 41/41/41 42/42/42
f 44/44/44 45/45/45 46/46/46
f 47/47/47 46/46/46 45/45/45
f 45/45/45 48/48/48 47/47/47
f 49/49/49 47/47/47 48/48/48
f 50/50/50 51/51/51 52/52/52
f 53/53/53 51/51/51 50/50/50
f 51/51/51 53/53/53 54/54/54
f 55/55/55 54/54/54 53/53/53
f 56/56/56 57/57/57 51/51/51
f 52/52/52 51/51/51 57/57/57
f 58/58/58 59/59/59 60/60/60
f 61/61/61 60/60/60 59/59/59
f 60/60/60 61/61/61 62/62/62
f 63/63/63 62/62/62 61/61/61
f 64/64/64 3/3/3 2/2/2
