# Exported using wow.export v0.1.65
o booksmallopen03
mtllib booksmallopen03.mtl
v 0.2008489966392517 0.00033611099934205413 -0.0019111100118607283
v 0.2050279974937439 0.0003388889890629798 0.3085559904575348
v -0.21700499951839447 0.00033611099934205413 -0.0019111100118607283
v -0.2026520073413849 0.03363420069217682 0.28527501225471497
v -0.22118300199508667 0.0003388889890629798 0.3085559904575348
v 0.18649700284004211 0.03363420069217682 0.28527501225471497
v 0.2050279974937439 0.0003388889890629798 0.3085559904575348
v -0.2026520073413849 0.08817809820175171 0.2664870023727417
v -0.2026520073413849 0.03363420069217682 0.28527501225471497
v 0.18649700284004211 0.08817829936742783 0.2664870023727417
v 0.18649700284004211 0.03363420069217682 0.28527501225471497
v -0.2026520073413849 0.03363420069217682 -0.28909701108932495
v -0.2026520073413849 0.08817809820175171 -0.27031099796295166
v 0.18649700284004211 0.03363420069217682 -0.28909701108932495
v 0.18649700284004211 0.08817829936742783 -0.27031099796295166
v -0.22118300199508667 0.0003388889890629798 -0.3123829960823059
v -0.2026520073413849 0.03363420069217682 -0.28909701108932495
v 0.2050279974937439 0.0003388889890629798 -0.3123829960823059
v 0.18649700284004211 0.03363420069217682 -0.28909701108932495
v -0.21700499951839447 0.00033611099934205413 -0.0019111100118607283
v -0.22118300199508667 0.0003388889890629798 -0.3123829960823059
v 0.2008489966392517 0.00033611099934205413 -0.0019111100118607283
v 0.2050279974937439 0.0003388889890629798 -0.3123829960823059
v 0.18649700284004211 0.08817829936742783 0.2664870023727417
v 0.18649700284004211 0.1294959932565689 0.06691110134124756
v -0.2026520073413849 0.08817809820175171 0.2664870023727417
v -0.2026520073413849 0.1294959932565689 0.06691110134124756
v 0.17723099887371063 0.06211639940738678 -0.0019111100118607283
v -0.1933870017528534 0.06211639940738678 -0.0019111100118607283
v -0.2026520073413849 0.08817809820175171 -0.27031099796295166
v -0.2026520073413849 0.1294959932565689 -0.07073529809713364
v 0.18649700284004211 0.08817829936742783 -0.27031099796295166
v 0.18649700284004211 0.1294959932565689 -0.07073529809713364
v -0.1933870017528534 0.06211639940738678 -0.0019111100118607283
v 0.17723099887371063 0.06211639940738678 -0.0019111100118607283
v -0.2026520073413849 0.1294959932565689 -0.07073529809713364
v -0.2026520073413849 0.08817809820175171 -0.27031099796295166
v -0.2007260024547577 0.01857220008969307 -0.0019111100118607283
v -0.2026520073413849 0.03363420069217682 -0.28909701108932495
v -0.1933870017528534 0.06211639940738678 -0.0019111100118607283
v -0.2026520073413849 0.1294959932565689 0.06691110134124756
v -0.2026520073413849 0.03363420069217682 0.28527501225471497
v -0.2026520073413849 0.08817809820175171 0.2664870023727417
v -0.22118300199508667 0.0003388889890629798 -0.3123829960823059
v -0.21700499951839447 0.00033611099934205413 -0.0019111100118607283
v -0.2026520073413849 0.03363420069217682 -0.28909701108932495
v -0.2007260024547577 0.01857220008969307 -0.0019111100118607283
v -0.22118300199508667 0.0003388889890629798 0.3085559904575348
v -0.2026520073413849 0.03363420069217682 0.28527501225471497
v 0.17723099887371063 0.06211639940738678 -0.0019111100118607283
v 0.18456999957561493 0.01857220008969307 -0.0019111100118607283
v 0.18649700284004211 0.1294959932565689 -0.07073529809713364
v 0.18649700284004211 0.1294959932565689 0.06691110134124756
v 0.18649700284004211 0.03363420069217682 0.28527501225471497
v 0.18649700284004211 0.08817829936742783 0.2664870023727417
v 0.18649700284004211 0.03363420069217682 -0.28909701108932495
v 0.18649700284004211 0.08817829936742783 -0.27031099796295166
v 0.2050279974937439 0.0003388889890629798 -0.3123829960823059
v 0.18649700284004211 0.03363420069217682 -0.28909701108932495
v 0.2008489966392517 0.00033611099934205413 -0.0019111100118607283
v 0.18456999957561493 0.01857220008969307 -0.0019111100118607283
v 0.2050279974937439 0.0003388889890629798 0.3085559904575348
v 0.18649700284004211 0.03363420069217682 0.28527501225471497
v -0.22118300199508667 0.0003388889890629798 0.3085559904575348
vn 1.9814599738765537e-7 -1 6.466259971915633e-9
vn 1.9006499485385575e-7 -1 -5.365410160607098e-8
vn 1.9814599738765537e-7 -1 -2.908559970649094e-8
vn -6.167559973846437e-8 0.4117000102996826 0.9113199710845947
vn -8.655590022499382e-8 0.5731170177459717 0.8194730281829834
vn -7.312179661767004e-8 0.49489501118659973 0.8689529895782471
vn -9.503730069582161e-8 0.5731170177459717 0.8194730281829834
vn -6.099389793234877e-8 0.3256770074367523 0.94548100233078
vn -6.167559973846437e-8 0.4117000102996826 0.9113199710845947
vn -5.268010028203207e-8 0.3256770074367523 0.94548100233078
vn -7.312179661767004e-8 0.49489501118659973 0.8689529895782471
vn -7.312179661767004e-8 0.49489501118659973 -0.8689529895782471
vn -5.268010028203207e-8 0.3256770074367523 -0.94548100233078
vn -6.167559973846437e-8 0.4117000102996826 -0.9113199710845947
vn -6.099389793234877e-8 0.3256770074367523 -0.94548100233078
vn -9.503720121983861e-8 0.5731170177459717 -0.8194739818572998
vn -7.312179661767004e-8 0.49489501118659973 -0.8689529895782471
vn -8.655590022499382e-8 0.5731170177459717 -0.8194730281829834
vn -6.167559973846437e-8 0.4117000102996826 -0.9113199710845947
vn 1.9814599738765537e-7 -1 -2.908559970649094e-8
vn 1.9006499485385575e-7 -1 5.3001599553681444e-8
vn 1.9814599738765537e-7 -1 6.466259971915633e-9
vn 1.6582499995365652e-7 -1 8.595190337246095e-8
vn -1.8339399332489847e-7 0.979233980178833 0.20273099839687347
vn -1.540019951562499e-7 0.9940009713172913 -0.10936900228261948
vn -1.5839700040487514e-7 0.979233980178833 0.20273099839687347
vn -1.364740001008613e-7 0.8955789804458618 -0.4449020028114319
vn -1.640210030018352e-7 0.9506589770317078 -0.3102389872074127
vn -1.640210030018352e-7 0.9506589770317078 0.3102389872074127
vn -1.8339399332489847e-7 0.979233980178833 -0.20273099839687347
vn -1.540019951562499e-7 0.9940009713172913 0.10936900228261948
vn -1.5839700040487514e-7 0.979233980178833 -0.20273099839687347
vn -1.364740001008613e-7 0.8955789804458618 0.4449020028114319
vn -1.640210030018352e-7 0.9506589770317078 0.3102389872074127
vn -1.640210030018352e-7 0.9506589770317078 -0.3102389872074127
vn -0.9866859912872314 0.07302690297365189 0.14531899988651276
vn -0.9999489784240723 -0.008830060251057148 0.00488772988319397
vn -0.9610679745674133 0.276311993598938 0.00040940099279396236
vn -0.916500985622406 0.39951199293136597 0.020373599603772163
vn -0.9860929846763611 0.16619500517845154 0
vn -0.9940059781074524 0.04917920008301735 -0.0976421982049942
vn -0.9876350164413452 0.1562730073928833 -0.012523000128567219
vn -1 -0.0000012636299970836262 -5.024029974265432e-7
vn -0.8772050142288208 0.4799709916114807 0.011805900372564793
vn -0.7942370176315308 0.6074479818344116 0.013973699882626534
vn -0.916500985622406 0.39951199293136597 0.020373599603772163
vn -0.9610679745674133 0.276311993598938 0.00040940099279396236
vn -0.8200209736824036 0.5719689726829529 -0.02044370025396347
vn -0.9876350164413452 0.1562730073928833 -0.012523000128567219
vn 0.9860929846763611 0.1661970019340515 0
vn 0.9610679745674133 0.276311993598938 0.00040934598655439913
vn 0.9866859912872314 0.07302790135145187 0.14531899988651276
vn 0.9940059781074524 0.04918060079216957 -0.0976421982049942
vn 0.9876350164413452 0.1562730073928833 -0.012522599659860134
vn 1 9.036759820446605e-7 1.624079999373862e-7
vn 0.9165019989013672 0.3995110094547272 0.020373400300741196
vn 0.9999489784240723 -0.008828939869999886 0.004887470044195652
vn 0.877206027507782 0.4799700081348419 0.011805900372564793
vn 0.9165019989013672 0.3995110094547272 0.020373400300741196
vn 0.7942379713058472 0.607446014881134 0.01397360023111105
vn 0.9610679745674133 0.276311993598938 0.00040934598655439913
vn 0.8200219869613647 0.5719659924507141 -0.020443499088287354
vn 0.9876350164413452 0.1562730073928833 -0.012522599659860134
vn 1.6582499995365652e-7 -1 -2.070370008766531e-8
vt 0.5208759903907776 0.7777449935674667
vt 0.7122250199317932 0.7777449935674667
vt 0.5208759903907776 1
vt 0.5558199882507324 0.7821660041809082
vt 0.5558199882507324 0.7871689945459366
vt 0.7175940275192261 0.7821660041809082
vt 0.7175940275192261 0.7871689945459366
vt 0.00030392600456252694 0.062376976013183594
vt 0.00030392600456252694 0.0014510154724121094
vt 0.24849699437618256 0.062376976013183594
vt 0.24849699437618256 0.0014510154724121094
vt 0.00030392600456252694 0.0014510154724121094
vt 0.00030392600456252694 0.062345027923583984
vt 0.24849699437618256 0.0014510154724121094
vt 0.24849699437618256 0.062345027923583984
vt 0.5558199882507324 0.7871689945459366
vt 0.5558199882507324 0.7821660041809082
vt 0.7175940275192261 0.7871689945459366
vt 0.7175940275192261 0.7821660041809082
vt 0.5207750201225281 1
vt 0.712090015411377 1
vt 0.5207750201225281 0.7777449935674667
vt 0.712090015411377 0.7777449935674667
vt 0.8110880255699158 0.25088000297546387
vt 0.7271339893341064 0.25088000297546387
vt 0.8110880255699158 0.4984710216522217
vt 0.7271339893341064 0.4984710216522217
vt 0.6896190047264099 0.25088000297546387
vt 0.6896190047264099 0.4984710216522217
vt 0.6846280097961426 0.49898701906204224
vt 0.6007599830627441 0.49898701906204224
vt 0.6846280097961426 0.2513970136642456
vt 0.6007599830627441 0.2513970136642456
vt 0.5633540153503418 0.49898701906204224
vt 0.5633540153503418 0.2513970136642456
vt 0.049633000046014786 0.1240760087966919
vt 0.24931000173091888 0.1240760087966919
vt 0.0003119560133200139 0.06327402591705322
vt 0.24924500286579132 0.06330198049545288
vt 0.00007273259689100087 0.1240760087966919
vt 0.04942009970545769 0.1240760087966919
vt 0.24903200566768646 0.06330198049545288
vt 0.24909700453281403 0.1240760087966919
vt 0.7122359871864319 0.7781849950551987
vt 0.7122359871864319 0.9955970598384738
vt 0.7199379801750183 0.7781849950551987
vt 0.7199379801750183 0.9955971799790859
vt 0.7122359871864319 0.7782250046730042
vt 0.7199379801750183 0.7782250046730042
vt 0.00007273259689100087 0.1240760087966919
vt 0.0003119560133200139 0.06327402591705322
vt 0.049633100628852844 0.1240760087966919
vt 0.04941999912261963 0.1240760087966919
vt 0.24903200566768646 0.06330299377441406
vt 0.24909700453281403 0.12408500909805298
vt 0.24924500286579132 0.06330299377441406
vt 0.24931000173091888 0.1240760087966919
vt 0.7122359871864319 0.7782250046730042
vt 0.7199379801750183 0.7782250046730042
vt 0.7122359871864319 0.9957199702039361
vt 0.7199379801750183 0.9957199702039361
vt 0.7122359871864319 0.7781849950551987
vt 0.7199379801750183 0.7781849950551987
vt 0.7122250199317932 1
g Geoset0
s 1
usemtl mat_books
f 1/1/1 2/2/2 3/3/3
f 4/4/4 5/5/5 6/6/6
f 7/7/7 6/6/6 5/5/5
f 8/8/8 9/9/9 10/10/10
f 11/11/11 10/10/10 9/9/9
f 12/12/12 13/13/13 14/14/14
f 15/15/15 14/14/14 13/13/13
f 16/16/16 17/17/17 18/18/18
f 19/19/19 18/18/18 17/17/17
f 20/20/20 21/21/21 22/22/22
f 23/23/23 22/22/22 21/21/21
f 24/24/24 25/25/25 26/26/26
f 27/27/27 26/26/26 25/25/25
f 25/25/25 28/28/28 27/27/27
f 29/29/29 27/27/27 28/28/28
f 30/30/30 31/31/31 32/32/32
f 33/33/33 32/32/32 31/31/31
f 31/31/31 34/34/34 33/33/33
f 35/35/35 33/33/33 34/34/34
f 36/36/36 37/37/37 38/38/38
f 39/39/39 38/38/38 37/37/37
f 40/40/40 36/36/36 38/38/38
f 41/41/41 40/40/40 38/38/38
f 38/38/38 42/42/42 41/41/41
f 43/43/43 41/41/41 42/42/42
f 44/44/44 45/45/45 46/46/46
f 47/47/47 46/46/46 45/45/45
f 45/45/45 48/48/48 47/47/47
f 49/49/49 47/47/47 48/48/48
f 50/50/50 51/51/51 52/52/52
f 53/53/53 51/51/51 50/50/50
f 51/51/51 53/53/53 54/54/54
f 55/55/55 54/54/54 53/53/53
f 56/56/56 57/57/57 51/51/51
f 52/52/52 51/51/51 57/57/57
f 58/58/58 59/59/59 60/60/60
f 61/61/61 60/60/60 59/59/59
f 60/60/60 61/61/61 62/62/62
f 63/63/63 62/62/62 61/61/61
f 64/64/64 3/3/3 2/2/2
