# Exported using wow.export v0.1.65
o booklargeopen03
mtllib booklargeopen03.mtl
v 0.8418639898300171 0.00033611099934205413 -0.001761110033839941
v 0.8460419774055481 0.0003388889890629798 0.3705439865589142
v -0.8202970027923584 0.00033611099934205413 -0.001761110033839941
v -0.80594402551651 0.03363420069217682 0.34196901321411133
v -0.8244779706001282 0.0003388889890629798 0.3705439865589142
v 0.8275079727172852 0.03363420069217682 0.34196901321411133
v 0.8460419774055481 0.0003388889890629798 0.3705439865589142
v -0.80594402551651 0.08817809820175171 0.31790798902511597
v -0.80594402551651 0.03363420069217682 0.34196901321411133
v 0.8275079727172852 0.08817809820175171 0.31790798902511597
v 0.8275079727172852 0.03363420069217682 0.34196901321411133
v -0.80594402551651 0.03363420069217682 -0.3466640114784241
v -0.80594402551651 0.08817809820175171 -0.32540300488471985
v 0.8275079727172852 0.03363420069217682 -0.3466640114784241
v 0.8275079727172852 0.08817809820175171 -0.32540300488471985
v -0.8244779706001282 0.0003388889890629798 -0.3751470148563385
v -0.80594402551651 0.03363420069217682 -0.3466640114784241
v 0.8460419774055481 0.0003388889890629798 -0.3751470148563385
v 0.8275079727172852 0.03363420069217682 -0.3466640114784241
v -0.8202970027923584 0.00033611099934205413 -0.001761110033839941
v -0.8244779706001282 0.0003388889890629798 -0.3751470148563385
v 0.8418639898300171 0.00033611099934205413 -0.001761110033839941
v 0.8460419774055481 0.0003388889890629798 -0.3751470148563385
v -0.80594402551651 0.1294959932565689 -0.08635249733924866
v -0.80594402551651 0.08817809820175171 -0.32540300488471985
v -0.8040189743041992 0.018571900203824043 -0.001761110033839941
v -0.80594402551651 0.03363420069217682 -0.3466640114784241
v -0.7966809868812561 0.06211639940738678 -0.001761110033839941
v -0.80594402551651 0.1294959932565689 0.08076280355453491
v -0.80594402551651 0.03363420069217682 0.34196901321411133
v -0.80594402551651 0.08817809820175171 0.31790798902511597
v -0.8244779706001282 0.0003388889890629798 -0.3751470148563385
v -0.8202970027923584 0.00033611099934205413 -0.001761110033839941
v -0.80594402551651 0.03363420069217682 -0.3466640114784241
v -0.8040189743041992 0.018571900203824043 -0.001761110033839941
v -0.8244779706001282 0.0003388889890629798 0.3705439865589142
v -0.80594402551651 0.03363420069217682 0.34196901321411133
v 0.8275079727172852 0.03363420069217682 0.34196901321411133
v 0.8460419774055481 0.0003388889890629798 0.3705439865589142
v 0.8255829811096191 0.018571900203824043 -0.001761110033839941
v 0.8418639898300171 0.00033611099934205413 -0.001761110033839941
v 0.8275079727172852 0.03363420069217682 -0.3466640114784241
v 0.8460419774055481 0.0003388889890629798 -0.3751470148563385
v 0.8182439804077148 0.06211639940738678 -0.001761110033839941
v 0.8255829811096191 0.018571900203824043 -0.001761110033839941
v 0.8275079727172852 0.1294959932565689 -0.08635249733924866
v 0.8275079727172852 0.1294959932565689 0.08076280355453491
v 0.8275079727172852 0.03363420069217682 0.34196901321411133
v 0.8275079727172852 0.08817809820175171 0.31790798902511597
v 0.8275079727172852 0.03363420069217682 -0.3466640114784241
v 0.8275079727172852 0.08817809820175171 -0.32540300488471985
v -0.80594402551651 0.08817809820175171 -0.32540300488471985
v -0.80594402551651 0.1294959932565689 -0.08635249733924866
v 0.8275079727172852 0.08817809820175171 -0.32540300488471985
v 0.8275079727172852 0.1294959932565689 -0.08635249733924866
v -0.7966809868812561 0.06211639940738678 -0.001761110033839941
v 0.8182439804077148 0.06211639940738678 -0.001761110033839941
v -0.80594402551651 0.1294959932565689 0.08076280355453491
v 0.8275079727172852 0.1294959932565689 0.08076280355453491
v -0.80594402551651 0.08817809820175171 0.31790798902511597
v 0.8275079727172852 0.08817809820175171 0.31790798902511597
v -0.8244779706001282 0.0003388889890629798 0.3705439865589142
vn 9.269979983628218e-8 -1 5.921230172845071e-9
vn 9.13981992312074e-8 -1 -3.562020012282119e-8
vn 9.269979983628218e-8 -1 -1.7745300340266112e-8
vn -3.865899955712848e-8 0.49087899923324585 0.8712279796600342
vn -5.212639919704998e-8 0.6512659788131714 0.7588499784469604
vn -4.522210161894691e-8 0.5742170214653015 0.8187029957771301
vn -5.698160165934496e-8 0.6512659788131714 0.758849024772644
vn -3.748050048102414e-8 0.40364301204681396 0.9149169921875
vn -3.865899955712848e-8 0.49087899923324585 0.8712279796600342
vn -3.3798301046772394e-8 0.40364301204681396 0.9149169921875
vn -4.522210161894691e-8 0.5742170214653015 0.8187029957771301
vn -4.402570041861509e-8 0.5614759922027588 -0.8274930119514465
vn -3.004469917300412e-8 0.363211989402771 -0.9317070245742798
vn -3.621089916805431e-8 0.4646430015563965 -0.8854979872703552
vn -3.372619872266114e-8 0.363211989402771 -0.9317070245742798
vn -5.6877599519111754e-8 0.6500779986381531 -0.7598680257797241
vn -4.402570041861509e-8 0.5614759922027588 -0.8274930119514465
vn -5.2031300157295846e-8 0.6500779986381531 -0.7598670125007629
vn -3.621089916805431e-8 0.4646430015563965 -0.8854979872703552
vn 9.269979983628218e-8 -1 -1.7745300340266112e-8
vn 9.13981992312074e-8 -1 3.5429998490599246e-8
vn 9.269979983628218e-8 -1 5.921230172845071e-9
vn 8.749349689196606e-8 -1 5.285560078505114e-8
vn -0.9900789856910706 0.07392609864473343 0.11949100345373154
vn -0.9999539852142334 -0.008743209764361382 0.004071659874171019
vn -0.9611759781837463 0.27593401074409485 -0.00039954500971361995
vn -0.9165499806404114 0.39956000447273254 0.016963500529527664
vn -0.9860889911651611 0.16619500517845154 -0.002838429994881153
vn -0.9953740239143372 0.04972120001912117 -0.08221100270748138
vn -0.9876779913902283 0.1561480015516281 -0.010456999763846397
vn -1 3.078820043356245e-7 9.68066046880267e-7
vn -0.8772839903831482 0.47987100481987 0.00981712993234396
vn -0.7942820191383362 0.6074380278587341 0.011628599837422371
vn -0.9165499806404114 0.39956000447273254 0.016963500529527664
vn -0.9611759781837463 0.27593401074409485 -0.00039954500971361995
vn -0.8202080130577087 0.5718110203742981 -0.017066100612282753
vn -0.9876779913902283 0.1561480015516281 -0.010456999763846397
vn 0.9876779913902283 0.15614700317382812 -0.010457499884068966
vn 0.8202099800109863 0.5718079805374146 -0.017066100612282753
vn 0.9611769914627075 0.27593401074409485 -0.00039946899050846696
vn 0.7942839860916138 0.6074349880218506 0.011628800071775913
vn 0.9165509939193726 0.39955899119377136 0.016963699832558632
vn 0.8772839903831482 0.47987100481987 0.009817549958825111
vn 0.9860889911651611 0.16619600355625153 -0.002838419983163476
vn 0.9611769914627075 0.27593401074409485 -0.00039946899050846696
vn 0.9900789856910706 0.073928102850914 0.11949100345373154
vn 0.9953740239143372 0.049722399562597275 -0.0822111964225769
vn 0.9876779913902283 0.15614700317382812 -0.010457499884068966
vn 1 5.652540266964934e-7 -8.984559940472536e-8
vn 0.9165509939193726 0.39955899119377136 0.016963699832558632
vn 0.9999539852142334 -0.008742010220885277 0.004072110168635845
vn -9.149889734771932e-8 0.985388994216919 -0.17031699419021606
vn -8.848640220548987e-8 0.9947789907455444 0.10204999893903732
vn -8.850250310388219e-8 0.985388994216919 -0.17031699419021606
vn -8.100320059156729e-8 0.9213510155677795 0.3887310028076172
vn -8.633389825263293e-8 0.9672650098800659 0.25376999378204346
vn -8.606200196936697e-8 0.9641309976577759 -0.26542899012565613
vn -8.072340307307968e-8 0.9182130098342896 -0.39608699083328247
vn -8.774360082952626e-8 0.9944970011711121 -0.104762002825737
vn -8.74832011277249e-8 0.9851589798927307 0.17164500057697296
vn -8.948040175482674e-8 0.9851589798927307 0.17164500057697296
vn 8.749349689196606e-8 -1 -1.8144099556138826e-8
vt 0.8291599750518799 0.30748099088668823
vt 0.9733089804649353 0.30748099088668823
vt 0.8291599750518799 0.7500029951334
vt 0.05487480014562607 0.7821660041809082
vt 0.05487480014562607 0.7871689945459366
vt 0.21664899587631226 0.7821660041809082
vt 0.21664899587631226 0.7871689945459366
vt 0.00030392600456252694 0.062376976013183594
vt 0.00030392600456252694 0.0014510154724121094
vt 0.24849699437618256 0.062376976013183594
vt 0.24849699437618256 0.0014510154724121094
vt 0.00030392600456252694 0.0014510154724121094
vt 0.00030392600456252694 0.062345027923583984
vt 0.24849699437618256 0.0014510154724121094
vt 0.24849699437618256 0.062345027923583984
vt 0.05487480014562607 0.7871689945459366
vt 0.05487480014562607 0.7821660041809082
vt 0.21664899587631226 0.7871689945459366
vt 0.21664899587631226 0.7821660041809082
vt 0.8290600180625916 0.7500029951334
vt 0.9731749892234802 0.7500029951334
vt 0.8290600180625916 0.30748099088668823
vt 0.9731749892234802 0.30748099088668823
vt 0.049633000046014786 0.1240760087966919
vt 0.24931000173091888 0.1240760087966919
vt 0.0003119560133200139 0.06327402591705322
vt 0.24924500286579132 0.06330198049545288
vt 0.00007273259689100087 0.1240760087966919
vt 0.04942009970545769 0.1240760087966919
vt 0.24903200566768646 0.06330198049545288
vt 0.24909700453281403 0.1240760087966919
vt 0.21129100024700165 0.7892390042543411
vt 0.21129100024700165 0.9955970598384738
vt 0.21899299323558807 0.7892390042543411
vt 0.21899299323558807 0.9955971799790859
vt 0.21129100024700165 0.7892789989709854
vt 0.21899299323558807 0.7892789989709854
vt 0.21899299323558807 0.7892390042543411
vt 0.21129100024700165 0.7892390042543411
vt 0.21899299323558807 0.9957199702039361
vt 0.21129100024700165 0.9957199702039361
vt 0.21899299323558807 0.7892789989709854
vt 0.21129100024700165 0.7892789989709854
vt 0.00007273259689100087 0.1240760087966919
vt 0.0003119560133200139 0.06327402591705322
vt 0.049633100628852844 0.1240760087966919
vt 0.04941999912261963 0.1240760087966919
vt 0.24903200566768646 0.06330299377441406
vt 0.24909700453281403 0.12408500909805298
vt 0.24924500286579132 0.06330299377441406
vt 0.24931000173091888 0.1240760087966919
vt 0.2506659924983978 0.12467300891876221
vt 0.2506659924983978 0.0412060022354126
vt 0.6237130165100098 0.12467300891876221
vt 0.6237130165100098 0.0412060022354126
vt 0.2506659924983978 0.002508997917175293
vt 0.6237130165100098 0.002508997917175293
vt 0.2506659924983978 0.04131501913070679
vt 0.6237130165100098 0.04131501913070679
vt 0.2506659924983978 0.12473702430725098
vt 0.6237130165100098 0.12473702430725098
vt 0.9733089804649353 0.7500029951334
g Geoset0
s 1
usemtl mat_books
f 1/1/1 2/2/2 3/3/3
f 4/4/4 5/5/5 6/6/6
f 7/7/7 6/6/6 5/5/5
f 8/8/8 9/9/9 10/10/10
f 11/11/11 10/10/10 9/9/9
f 12/12/12 13/13/13 14/14/14
f 15/15/15 14/14/14 13/13/13
f 16/16/16 17/17/17 18/18/18
f 19/19/19 18/18/18 17/17/17
f 20/20/20 21/21/21 22/22/22
f 23/23/23 22/22/22 21/21/21
f 24/24/24 25/25/25 26/26/26
f 27/27/27 26/26/26 25/25/25
f 28/28/28 24/24/24 26/26/26
f 29/29/29 28/28/28 26/26/26
f 26/26/26 30/30/30 29/29/29
f 31/31/31 29/29/29 30/30/30
f 32/32/32 33/33/33 34/34/34
f 35/35/35 34/34/34 33/33/33
f 33/33/33 36/36/36 35/35/35
f 37/37/37 35/35/35 36/36/36
f 38/38/38 39/39/39 40/40/40
f 41/41/41 40/40/40 39/39/39
f 40/40/40 41/41/41 42/42/42
f 43/43/43 42/42/42 41/41/41
f 44/44/44 45/45/45 46/46/46
f 47/47/47 45/45/45 44/44/44
f 45/45/45 47/47/47 48/48/48
f 49/49/49 48/48/48 47/47/47
f 50/50/50 51/51/51 45/45/45
f 46/46/46 45/45/45 51/51/51
f 52/52/52 53/53/53 54/54/54
f 55/55/55 54/54/54 53/53/53
f 53/53/53 56/56/56 55/55/55
f 57/57/57 55/55/55 56/56/56
f 56/56/56 58/58/58 57/57/57
f 59/59/59 57/57/57 58/58/58
f 58/58/58 60/60/60 59/59/59
f 61/61/61 59/59/59 60/60/60
f 62/62/62 3/3/3 2/2/2
