# Exported using wow.export v0.1.65
o ironstump04
mtllib ironstump04.mtl
v 2.0998013019561768 4.54143762588501 1.480776309967041
v 2.370551824569702 6.31084680557251 -1.210154414176941
v 2.308530569076538 5.282038688659668 -1.1345040798187256
v -2.9811675548553467 4.927088260650635 -1.5276927947998047
v -2.428635835647583 4.455380916595459 1.3060842752456665
v -2.3245437145233154 5.3208489418029785 -1.0483118295669556
v -3.085259199142456 3.896108865737915 1.4983493089675903
v -2.3245437145233154 5.3208489418029785 -1.0483118295669556
v -2.3892972469329834 6.931850433349609 -2.000561237335205
v -2.9811675548553467 4.927088260650635 -1.5276927947998047
v -1.9714957475662231 6.9454169273376465 -1.5696359872817993
v -0.13042566180229187 5.429807662963867 -0.23526056110858917
v -0.2687813341617584 4.339532375335693 2.6072587966918945
v 2.0998013019561768 4.54143762588501 1.480776309967041
v -2.428635835647583 4.455380916595459 1.3060842752456665
v -0.13042566180229187 5.429807662963867 -0.23526056110858917
v -2.3245437145233154 5.3208489418029785 -1.0483118295669556
v -2.428635835647583 4.455380916595459 1.3060842752456665
v 0.2781502306461334 5.566739559173584 -2.340341329574585
v 2.308530569076538 5.282038688659668 -1.1345040798187256
v 2.0998013019561768 4.54143762588501 1.480776309967041
v -4.373678207397461 -0.6274780631065369 -2.848909378051758
v 0.2951013147830963 2.516521692276001 -4.2695488929748535
v 0.4077804386615753 -0.6274780631065369 -5.708169460296631
v 4.708364009857178 -0.6274780631065369 -2.6380653381347656
v 3.39896559715271 2.516521692276001 -1.9439324140548706
v 4.464902877807617 -0.6274779438972473 2.861607789993286
v 3.1777126789093018 2.516521692276001 2.1251957416534424
v -0.23015935719013214 -0.6274779438972473 5.2911787033081055
v -0.12645259499549866 2.25935435295105 3.868708848953247
v -4.681763172149658 -0.6274779438972473 2.4399218559265137
v -3.5257530212402344 2.516521692276001 1.7419755458831787
v 2.756425619125366 4.176218509674072 1.8598777055740356
v -0.008802758529782295 3.6596875190734863 3.365461826324463
v 2.9651544094085693 5.30883264541626 -1.5136064291000366
v 0.2781502306461334 5.783932209014893 -3.7551815509796143
v -3.245771884918213 2.516521692276001 -2.13554310798645
v -3.085259199142456 3.896108865737915 1.4983493089675903
v -0.2687813341617584 4.339532375335693 2.6072587966918945
v -2.428635835647583 4.455380916595459 1.3060842752456665
v 2.0998013019561768 4.54143762588501 1.480776309967041
v 0.2781505286693573 7.45820951461792 -3.867676258087158
v -2.9811675548553467 4.927088260650635 -1.5276927947998047
v -2.3892972469329834 6.931850433349609 -2.000561237335205
v 2.8702235221862793 6.4746294021606445 -1.615768551826477
v -2.3892972469329834 6.931850433349609 -2.000561237335205
v 0.2781507670879364 7.441675662994385 -3.1094725131988525
v 0.2781505286693573 7.45820951461792 -3.867676258087158
v -1.9714957475662231 6.9454169273376465 -1.5696359872817993
v 0.2781502306461334 5.566739559173584 -2.340341329574585
v -2.3245437145233154 5.3208489418029785 -1.0483118295669556
v 2.8702235221862793 6.4746294021606445 -1.615768551826477
v 0.2781507670879364 7.441675662994385 -3.1094725131988525
v 2.370551824569702 6.31084680557251 -1.210154414176941
v 0.2781502306461334 5.566739559173584 -2.340341329574585
v 2.308530569076538 5.282038688659668 -1.1345040798187256
v 2.756425619125366 4.176218509674072 1.8598777055740356
v 2.0998013019561768 4.54143762588501 1.480776309967041
vn -0.04869639873504639 0.8837621808052063 0.4653955399990082
vn -0.35482779145240784 0.6469157934188843 0.6749794483184814
vn -0.461880087852478 0.77516108751297 0.431036114692688
vn -0.8781286478042603 0.4108453691005707 -0.24514515697956085
vn -0.39567962288856506 0.8358421325683594 0.38053324818611145
vn -0.36850085854530334 0.7307085394859314 0.5746930241584778
vn -0.7190364003181458 0.5282833576202393 0.45155662298202515
vn -0.36850085854530334 0.7307085394859314 0.5746930241584778
vn -0.6380573511123657 0.7512227892875671 0.1689591407775879
vn -0.8781286478042603 0.4108453691005707 -0.24514515697956085
vn 0.026988329365849495 0.6051373481750488 0.7956635355949402
vn -0.009140143170952797 0.9690414071083069 0.2467290312051773
vn -0.12121648341417313 0.8193440437316895 0.5603408813476562
vn -0.04869639873504639 0.8837621808052063 0.4653955399990082
vn -0.39567962288856506 0.8358421325683594 0.38053324818611145
vn -0.009140143170952797 0.9690414071083069 0.2467290312051773
vn -0.36850085854530334 0.7307085394859314 0.5746930241584778
vn -0.39567962288856506 0.8358421325683594 0.38053324818611145
vn -0.0240855123847723 0.6443465352058411 0.7643542885780334
vn -0.461880087852478 0.77516108751297 0.431036114692688
vn -0.04869639873504639 0.8837621808052063 0.4653955399990082
vn -0.7881592512130737 0.38587045669555664 -0.47948822379112244
vn 0.04198971763253212 0.3412085771560669 -0.9390493035316467
vn 0.034941621124744415 0.41686710715293884 -0.9082956314086914
vn 0.7383307218551636 0.4151630401611328 -0.5315142273902893
vn 0.8653808832168579 0.3073694407939911 -0.3957775831222534
vn 0.8417901992797852 0.4196762442588806 0.33950117230415344
vn 0.7806462049484253 0.3419080674648285 0.5231542587280273
vn 0.12473411113023758 0.42802494764328003 0.8951178789138794
vn -0.036007899791002274 0.37501323223114014 0.9263198971748352
vn -0.7149928212165833 0.40605828166007996 0.5691238045692444
vn -0.8193649649620056 0.37663739919662476 0.43218672275543213
vn 0.5516067743301392 0.5663036108016968 0.6123971343040466
vn -0.10103899985551834 0.580400824546814 0.8080383539199829
vn 0.9201796650886536 0.12245944887399673 -0.3718509078025818
vn 0.04623112827539444 0.13001355528831482 -0.9904338121414185
vn -0.8340777158737183 0.2791097164154053 -0.47582781314849854
vn -0.7190364003181458 0.5282833576202393 0.45155662298202515
vn -0.12121648341417313 0.8193440437316895 0.5603408813476562
vn -0.39567962288856506 0.8358421325683594 0.38053324818611145
vn -0.04869639873504639 0.8837621808052063 0.4653955399990082
vn 0.0894615650177002 0.49081549048423767 -0.8666583895683289
vn -0.8781286478042603 0.4108453691005707 -0.24514515697956085
vn -0.6380573511123657 0.7512227892875671 0.1689591407775879
vn 0.630678653717041 0.7696881890296936 0.09911847114562988
vn -0.6380573511123657 0.7512227892875671 0.1689591407775879
vn 0.007183807902038097 0.8971551656723022 0.44165703654289246
vn 0.0894615650177002 0.49081549048423767 -0.8666583895683289
vn 0.026988329365849495 0.6051373481750488 0.7956635355949402
vn -0.0240855123847723 0.6443465352058411 0.7643542885780334
vn -0.36850085854530334 0.7307085394859314 0.5746930241584778
vn 0.630678653717041 0.7696881890296936 0.09911847114562988
vn 0.007183807902038097 0.8971551656723022 0.44165703654289246
vn -0.35482779145240784 0.6469157934188843 0.6749794483184814
vn -0.0240855123847723 0.6443465352058411 0.7643542885780334
vn -0.461880087852478 0.77516108751297 0.431036114692688
vn 0.5516067743301392 0.5663036108016968 0.6123971343040466
vn -0.04869639873504639 0.8837621808052063 0.4653955399990082
vt 0.007781103253364563 0.48017674684524536
vt 0.9889019131660461 0.4992973208427429
vt 0.9687485098838806 0.3629428744316101
vt 0.9922990202903748 0.5485793352127075
vt 0.01053185760974884 0.6398282051086426
vt 0.9907962679862976 0.639559805393219
vt 0.008343681693077087 0.5524682998657227
vt 0.6374584436416626 0.33509552478790283
vt 0.31817734241485596 0.7576591372489929
vt 0.6481954455375671 0.7536598443984985
vt 0.30801185965538025 0.33813345432281494
vt 0.48877382278442383 0.9975845217704773
vt 0.9892014265060425 0.6400966048240662
vt 0.008937060832977295 0.6392914652824402
vt 0.008937060832977295 0.6392914652824402
vt 0.4874021112918854 0.9975845217704773
vt 0.9878296852111816 0.6400966048240662
vt 0.007565349340438843 0.6392914652824402
vt 0.007565349340438843 0.6392914652824402
vt 0.9878296852111816 0.6400966048240662
vt 0.007565349340438843 0.6392914652824402
vt 0.9918633103370667 0.010741055011749268
vt 0.008942335844039917 0.3353448510169983
vt 0.0074055492877960205 0.010741055011749268
vt 0.9918633103370667 0.010741055011749268
vt 0.989185094833374 0.33722054958343506
vt 0.0074055492877960205 0.010741055011749268
vt 0.008942335844039917 0.3353448510169983
vt 0.9918633103370667 0.010741055011749268
vt 0.989185094833374 0.33722054958343506
vt 0.0074055492877960205 0.010741055011749268
vt 0.008942335844039917 0.3353448510169983
vt 0.007423892617225647 0.5582411885261536
vt 0.9904261827468872 0.5524682998657227
vt 0.9904261827468872 0.5524682998657227
vt 0.007423892617225647 0.5582411885261536
vt 0.989185094833374 0.33722054958343506
vt 0.007423892617225647 0.5582411885261536
vt 0.9895339012145996 0.6396604776382446
vt 0.009424825198948383 0.6397387385368347
vt 0.009424825198948383 0.6397387385368347
vt 0.009424825198948383 0.6397387385368347
vt 0.9904261827468872 0.5524682998657227
vt 0.9895339012145996 0.6396604776382446
vt 0.9895339012145996 0.6396604776382446
vt 0.9891356825828552 0.6396940350532532
vt 0.017716392874717712 0.48017674684524536
vt 0.008871309459209442 0.6396940350532532
vt 0.9889694452285767 0.4992973208427429
vt 0.027954742312431335 0.3581119179725647
vt 0.9688160419464111 0.3629428744316101
vt 0.9891356825828552 0.6396940350532532
vt 0.009037554264068604 0.4992973208427429
vt 0.9802905917167664 0.48017674684524536
vt 0.02919095754623413 0.3629428744316101
vt 0.9700522422790527 0.3581119179725647
vt 0.0028830915689468384 0.6493558883666992
vt 0.0038340240716934204 0.5792105793952942
g Geoset0
s 1
usemtl mat_ironstump01
f 1/1/1 2/2/2 3/3/3
f 4/4/4 5/5/5 6/6/6
f 4/4/4 7/7/7 5/5/5
f 8/8/8 9/9/9 10/10/10
f 9/9/9 8/8/8 11/11/11
f 12/12/12 13/13/13 14/14/14
f 12/12/12 15/15/15 13/13/13
f 16/16/16 17/17/17 18/18/18
f 16/16/16 19/19/19 17/17/17
f 16/16/16 20/20/20 19/19/19
f 16/16/16 21/21/21 20/20/20
f 22/22/22 23/23/23 24/24/24
f 25/25/25 24/24/24 23/23/23
f 25/25/25 23/23/23 26/26/26
f 27/27/27 25/25/25 26/26/26
f 27/27/27 26/26/26 28/28/28
f 29/29/29 27/27/27 28/28/28
f 29/29/29 28/28/28 30/30/30
f 31/31/31 29/29/29 30/30/30
f 31/31/31 30/30/30 32/32/32
f 30/30/30 33/33/33 34/34/34
f 30/30/30 28/28/28 33/33/33
f 28/28/28 35/35/35 33/33/33
f 28/28/28 26/26/26 35/35/35
f 26/26/26 36/36/36 35/35/35
f 26/26/26 23/23/23 36/36/36
f 37/37/37 36/36/36 23/23/23
f 22/22/22 37/37/37 23/23/23
f 22/22/22 32/32/32 37/37/37
f 22/22/22 31/31/31 32/32/32
f 38/38/38 39/39/39 40/40/40
f 38/38/38 34/34/34 39/39/39
f 34/34/34 41/41/41 39/39/39
f 34/34/34 33/33/33 41/41/41
f 42/42/42 43/43/43 44/44/44
f 33/33/33 35/35/35 45/45/45
f 42/42/42 45/45/45 35/35/35
f 35/35/35 36/36/36 42/42/42
f 43/43/43 42/42/42 36/36/36
f 37/37/37 43/43/43 36/36/36
f 37/37/37 38/38/38 43/43/43
f 37/37/37 32/32/32 38/38/38
f 32/32/32 34/34/34 38/38/38
f 32/32/32 30/30/30 34/34/34
f 46/46/46 47/47/47 48/48/48
f 46/46/46 49/49/49 47/47/47
f 49/49/49 50/50/50 47/47/47
f 50/50/50 49/49/49 51/51/51
f 52/52/52 48/48/48 53/53/53
f 52/52/52 53/53/53 54/54/54
f 54/54/54 53/53/53 55/55/55
f 55/55/55 56/56/56 54/54/54
f 57/57/57 52/52/52 2/2/2
f 57/57/57 2/2/2 58/58/58
