# Exported using wow.export v0.1.65
o ironforgetree02
mtllib ironforgetree02.mtl
v 2.7374300956726074 28.183300018310547 -0.9968889951705933
v -1.192389965057373 28.183300018310547 -3.265779972076416
v -0.07535439729690552 34.44559860229492 -0.10421600192785263
v -4.472919940948486 15.14490032196045 -7.435939788818359
v -8.640620231628418 16.624399185180664 0.08278530091047287
v -0.045361101627349854 26.030099868774414 -0.06724750250577927
v 4.122330188751221 17.277299880981445 -7.58597993850708
v -4.472919940948486 15.14490032196045 -7.435939788818359
v 8.54990005493164 15.246500015258789 -0.2172819972038269
v 4.122330188751221 17.277299880981445 -7.58597993850708
v 4.382199764251709 16.623699188232422 7.301449775695801
v 8.54990005493164 15.246500015258789 -0.2172819972038269
v -4.213059902191162 15.246500015258789 7.4514899253845215
v 4.382199764251709 16.623699188232422 7.301449775695801
v -8.640620231628418 16.624399185180664 0.08278530091047287
v -4.213059902191162 15.246500015258789 7.4514899253845215
v 0.8113719820976257 31.59760093688965 -1.6265000104904175
v -0.10297100245952606 38.67620086669922 -0.10346899926662445
v 1.4872599840164185 31.59760093688965 0.8959720134735107
v -1.6563299894332886 31.59760093688965 -0.9652780294418335
v 0.8113719820976257 31.59760093688965 -1.6265000104904175
v -0.9804360270500183 31.59760093688965 1.55718994140625
v -1.6563299894332886 31.59760093688965 -0.9652780294418335
v 1.4872599840164185 31.59760093688965 0.8959720134735107
v -0.9804360270500183 31.59760093688965 1.55718994140625
v -0.045361701399087906 21.94729995727539 -0.06724700331687927
v -1.166409969329834 11.086999893188477 -5.93310022354126
v -7.153369903564453 11.762100219726562 -8.679789543151855
v 3.871649980545044 11.762100219726562 -10.524800300598145
v 5.665589809417725 11.086999893188477 1.9467799663543701
v 10.981900215148926 11.762100219726562 -1.8992799520492554
v 7.067200183868408 11.762100219726562 8.571149826049805
v -4.530509948730469 11.086999893188477 4.009210109710693
v -3.957819938659668 11.762100219726562 10.416099548339844
v -11.068099975585938 11.762100219726562 1.7906299829483032
v -0.045361701399087906 21.94729995727539 -0.06724700331687927
v -5.797220230102539 11.086999893188477 -1.81003999710083
v 4.66018009185791 11.086999893188477 -3.7898199558258057
v 1.027609944343567 11.086999893188477 5.919899940490723
v -0.045361701399087906 16.55470085144043 -0.06724700331687927
v -7.350090026855469 6.006830215454102 6.496510028839111
v -4.867889881134033 6.838510036468506 12.831199645996094
v -13.626999855041504 6.838510036468506 2.2055399417877197
v -1.8797399997711182 6.006830215454102 -9.670660018920898
v -8.804459571838379 6.838510036468506 -10.692899703979492
v 4.777160167694092 6.838510036468506 -12.965700149536133
v 9.229769706726074 6.006830215454102 3.1427900791168213
v 13.536299705505371 6.838510036468506 -2.3400299549102783
v 8.713740348815918 6.838510036468506 10.55840015411377
v -0.045361701399087906 16.55470085144043 -0.06724700331687927
v 1.6879600286483765 6.006830215454102 9.603480339050293
v -9.409879684448242 6.006830215454102 -2.966170072555542
v 7.594880104064941 6.006830215454102 -6.185480117797852
v -0.24101099371910095 32.06380081176758 -0.18729299306869507
v 3.8237600326538086 24.561500549316406 -2.534090042114258
v -0.24101099371910095 25.341299057006836 -4.880889892578125
v -4.305789947509766 24.561500549316406 -2.534090042114258
v -4.305789947509766 25.341299057006836 2.1595098972320557
v 3.8237600326538086 25.341299057006836 2.1595098972320557
v -0.24101300537586212 24.561500549316406 4.506309986114502
v 0.42741701006889343 16.57830047607422 -0.05851750075817108
v 6.441609859466553 5.646520137786865 3.4137799739837646
v 6.441609859466553 5.646520137786865 -3.5308101177215576
v 0.42741701006889343 5.646520137786865 6.886079788208008
v -6.0595598220825195 5.646520137786865 3.405050039291382
v -6.0595598220825195 5.646520137786865 -3.5395400524139404
v 0.4274109899997711 5.646520137786865 -7.003119945526123
v -0.04536079987883568 30.2007999420166 -0.06724719703197479
v 3.240649938583374 19.825000762939453 5.295040130615234
v 6.241509914398193 20.810100555419922 -0.2318740040063858
v -3.0462300777435303 20.810100555419922 5.459660053253174
v -6.332240104675293 19.825000762939453 0.0973811000585556
v -3.3313701152801514 20.810100555419922 -5.429530143737793
v 2.9554998874664307 19.825000762939453 -5.594160079956055
v 0.5579500198364258 28.183300018310547 2.778059959411621
v 2.7374300956726074 28.183300018310547 -0.9968889951705933
v -3.3718600273132324 28.183300018310547 0.5091779828071594
v 0.5579500198364258 28.183300018310547 2.778059959411621
v -1.192389965057373 28.183300018310547 -3.265779972076416
v -3.3718600273132324 28.183300018310547 0.5091779828071594
v 4.302730083465576 -0.9192060232162476 2.553109884262085
v 4.302730083465576 -0.9192060232162476 -2.757699966430664
v 2.7910399436950684 3.47517991065979 1.4410400390625
v -0.10739699751138687 40.3026008605957 -0.11998400092124939
v -0.04535859823226929 3.47517991065979 -3.471750020980835
v -2.8817598819732666 4.249660015106201 -1.834149956703186
v -2.8817598819732666 3.47517991065979 1.4410400390625
v -0.045359399169683456 4.022910118103027 3.0786399841308594
v 2.7910399436950684 4.249660015106201 -1.834149956703186
v -0.29657500982284546 -0.9192060232162476 5.20851993560791
v -4.895880222320557 -0.9192060232162476 2.5531198978424072
v -4.895880222320557 -0.9192060232162476 -2.757699966430664
v -0.29657500982284546 -0.9192060232162476 -5.41310977935791
vn 0.47221899032592773 0.3286899924278259 -0.8179069757461548
vn -0.2200710028409958 0.47062399983406067 -0.8544480204582214
vn 0.017355099320411682 0.9997990131378174 0.010020099580287933
vn -0.42539799213409424 0.6195859909057617 -0.6596580147743225
vn -0.738086998462677 0.6746410131454468 0.009367469698190689
vn -0.010810899548232555 0.9998199939727783 0.015567200258374214
vn 0.34283098578453064 0.7007070183753967 -0.6256809830665588
vn -0.42539799213409424 0.6195859909057617 -0.6596580147743225
vn 0.7820129990577698 0.6231589913368225 0.011327199637889862
vn 0.34283098578453064 0.7007070183753967 -0.6256809830665588
vn 0.38018399477005005 0.6746190190315247 0.6327319741249084
vn 0.7820129990577698 0.6231589913368225 0.011327199637889862
vn -0.3790700137615204 0.6233530044555664 0.683912992477417
vn 0.38018399477005005 0.6746190190315247 0.6327319741249084
vn -0.738086998462677 0.6746410131454468 0.009367469698190689
vn -0.3790700137615204 0.6233530044555664 0.683912992477417
vn 0.4845289885997772 0.24337199330329895 -0.8402389883995056
vn -0.0012721800012513995 0.9999880194664001 -0.0047503202222287655
vn 0.9505720138549805 0.17758800089359283 -0.254705011844635
vn -0.2549700140953064 0.17180299758911133 -0.9515640139579773
vn 0.4845289885997772 0.24337199330329895 -0.8402389883995056
vn -0.4843670129776001 0.2562839984893799 0.8364850282669067
vn -0.9505720138549805 0.17758800089359283 0.254705011844635
vn 0.25405699014663696 0.19094599783420563 0.948153018951416
vn -0.4843670129776001 0.2562839984893799 0.8364850282669067
vn -0.0022642300464212894 0.9998769760131836 -0.015506000258028507
vn -0.13256099820137024 0.4815930128097534 -0.8663110136985779
vn -0.40845298767089844 0.7385789752006531 -0.5363460183143616
vn 0.23565800487995148 0.7388399839401245 -0.6313329935073853
vn 0.8142960071563721 0.4868229925632477 0.3161099851131439
vn 0.6638240218162537 0.7391780018806458 -0.11381399631500244
vn 0.42215999960899353 0.7395009994506836 0.5243269801139832
vn -0.6898339986801147 0.48622599244117737 0.5363889932632446
vn -0.2539289891719818 0.7393720149993896 0.6235769987106323
vn -0.6698009967803955 0.7386770248413086 0.07565049827098846
vn -0.0022642300464212894 0.9998769760131836 -0.015506000258028507
vn -0.8083900213241577 0.48229700326919556 -0.3374820053577423
vn 0.6692230105400085 0.4833950102329254 -0.5643320083618164
vn 0.13793599605560303 0.4885849952697754 0.8615440130233765
vn -0.0013713999651372433 0.9999650120735168 -0.008227569982409477
vn -0.5766760110855103 0.6805940270423889 0.45192599296569824
vn -0.21495799720287323 0.8170049786567688 0.5350660085678101
vn -0.5726439952850342 0.8168179988861084 0.06991170346736908
vn -0.11140900105237961 0.6795610189437866 -0.7251099944114685
vn -0.35209599137306213 0.8169389963150024 -0.45677000284194946
vn 0.2030780017375946 0.817084014415741 -0.5395669937133789
vn 0.6822450160980225 0.6809390187263489 0.26620399951934814
vn 0.5687990188598633 0.817084014415741 -0.0940283015370369
vn 0.36083000898361206 0.8170610070228577 0.44968101382255554
vn -0.0013713999651372433 0.9999650120735168 -0.008227569982409477
vn 0.1159759983420372 0.6815230250358582 0.7225480079650879
vn -0.6784039735794067 0.6792470216751099 -0.2799850106239319
vn 0.5618190169334412 0.6801220178604126 -0.47095000743865967
vn 3.287280136987647e-8 1 1.519629933000033e-8
vn 0.7341830134391785 0.5303769707679749 -0.42388099431991577
vn -2.3927799475131906e-7 0.572471022605896 -0.8199250102043152
vn -0.7341830134391785 0.5303769707679749 -0.42388099431991577
vn -0.7100759744644165 0.572471022605896 0.409961998462677
vn 0.7100759744644165 0.572471022605896 0.4099630117416382
vn 2.5901201183842204e-7 0.5303769707679749 0.8477619886398315
vn 0.023464100435376167 0.9997249841690063 -0.00022335999528877437
vn 0.7309949994087219 0.5362160205841064 0.4220399856567383
vn 0.7309949994087219 0.5362160205841064 -0.4220399856567383
vn 0.014078199863433838 0.5361629724502563 0.8439970016479492
vn -0.7104870080947876 0.5576149821281433 0.42927101254463196
vn -0.7098079919815063 0.5580670237541199 -0.42980700731277466
vn 0.01502120029181242 0.5361559987068176 -0.8439850211143494
vn 7.549589753352848e-8 1 1.2319800646309886e-7
vn 0.4468269944190979 0.5183420181274414 0.7291550040245056
vn 0.8306000232696533 0.5564450025558472 -0.02174999937415123
vn -0.3964639902114868 0.5564450025558472 0.7301959991455078
vn -0.8548799753189087 0.5183420181274414 0.02238599956035614
vn -0.4341360032558441 0.5564450025558472 -0.7084450125694275
vn 0.4080530107021332 0.5183420181274414 -0.751541018486023
vn 0.23814600706100464 0.42583799362182617 0.8728960156440735
vn 0.8253710269927979 0.3027940094470978 0.47652798891067505
vn -0.47221899032592773 0.3286899924278259 0.8179069757461548
vn 0.23814600706100464 0.42583799362182617 0.8728960156440735
vn -0.2200710028409958 0.47062399983406067 -0.8544480204582214
vn -0.8021609783172607 0.376895010471344 -0.463128000497818
vn 0.7150700092315674 0.3794330060482025 0.587116003036499
vn 0.8979979753494263 0.3324730098247528 -0.28820401430130005
vn 0.8869670033454895 0.25356799364089966 0.385996013879776
vn -0.0010683400323614478 0.9999179840087891 0.012780800461769104
vn -0.10763300210237503 0.2709310054779053 -0.9565619826316833
vn -0.875810980796814 0.2985210120677948 -0.3792639970779419
vn -0.7602499723434448 0.3055720031261444 0.5732769966125488
vn 0.11017999798059464 0.28335699439048767 0.9526640176773071
vn 0.776220977306366 0.25071901082992554 -0.5784639716148376
vn -0.18769699335098267 0.4109790027141571 0.8921129703521729
vn -0.8352339863777161 0.44214099645614624 0.32694798707962036
vn -0.676065981388092 0.39584100246429443 -0.6214849948883057
vn 0.15123699605464935 0.37642499804496765 -0.914018988609314
vt 0.3885819911956787 0
vt 0.6114180088043213 0
vt 0.4987170100212097 0.3962560296058655
vt 0 0
vt 1 0
vt 0.4987170100212097 1
vt 0 0
vt 1 0
vt 0 0
vt 1 0
vt 0 0
vt 1 0
vt 0 0
vt 1 0
vt 0 0
vt 1 0
vt 0.3885819911956787 0
vt 0.4987170100212097 0.3962560296058655
vt 0.6114180088043213 0
vt 0.3885819911956787 0
vt 0.6114180088043213 0
vt 0.3885819911956787 0
vt 0.6114180088043213 0
vt 0.3885819911956787 0
vt 0.6114180088043213 0
vt 0.4987170100212097 1.2004829943180084
vt 0.48016801476478577 0
vt 0 0
vt 0.999144971370697 0
vt 0.47676700353622437 0
vt 0 0
vt 0.999144971370697 0
vt 0.4649370014667511 0
vt 0 0
vt 0.999144971370697 0
vt 0.5004280209541321 1.2004829943180084
vt 0.547111988067627 0
vt 0.48878899216651917 0
vt 0.5091500282287598 0
vt 0.4987170100212097 1.2004829943180084
vt 0.4649370014667511 0
vt 0 0
vt 0.999144971370697 0
vt 0.48016801476478577 0
vt 0 0
vt 0.999144971370697 0
vt 0.47676700353622437 0
vt 0 0
vt 0.999144971370697 0
vt 0.5004280209541321 1.2004829943180084
vt 0.5091500282287598 0
vt 0.547111988067627 0
vt 0.48878899216651917 0
vt 0.4995720088481903 0.7584539949893951
vt 0.6490939855575562 0
vt 0.35005098581314087 0
vt 0.6490939855575562 0
vt 0.35005098581314087 0
vt 0.35005098581314087 0
vt 0.6490939855575562 0
vt 0.4995720088481903 1
vt 0.3037239909172058 0
vt 0.6954209804534912 0
vt 0.6954209804534912 0
vt 0.3037239909172058 0
vt 0.6954209804534912 0
vt 0.3037239909172058 0
vt 0.4383920133113861 0.9589372016489506
vt 0.6256700158119202 0
vt 0.25171199440956116 0
vt 0.25171199440956116 0
vt 0.6250720024108887 0
vt 0.25171199440956116 0
vt 0.6250720024108887 0
vt 0.3885819911956787 0
vt 0.6114180088043213 0
vt 0.3885819911956787 0
vt 0.6114180088043213 0
vt 0.3885819911956787 0
vt 0.6114180088043213 0
vt 0.9922720193862915 0
vt 0.003947109915316105 0
vt 0.9909150004386902 0.275098979473114
vt 0.49876999855041504 1.2091789990663528
vt 0.9909150004386902 0.275098979473114
vt 0.0053877998143434525 0.275098979473114
vt 0.9909150004386902 0.275098979473114
vt 0.0053877998143434525 0.275098979473114
vt 0.0053877998143434525 0.275098979473114
vt 0.003947109915316105 0
vt 0.9922720193862915 0
vt 0.003947109915316105 0
vt 0.9922720193862915 0
g Geoset0
s 1
usemtl mat_ironforgetreefirtop01
f 1/1/1 2/2/2 3/3/3
f 4/4/4 5/5/5 6/6/6
f 7/7/7 8/8/8 6/6/6
f 9/9/9 10/10/10 6/6/6
f 11/11/11 12/12/12 6/6/6
f 13/13/13 14/14/14 6/6/6
f 15/15/15 16/16/16 6/6/6
f 17/17/17 18/18/18 19/19/19
f 20/20/20 18/18/18 21/21/21
f 22/22/22 18/18/18 23/23/23
f 24/24/24 18/18/18 25/25/25
f 26/26/26 27/27/27 28/28/28
f 26/26/26 29/29/29 27/27/27
f 26/26/26 30/30/30 31/31/31
f 26/26/26 32/32/32 30/30/30
f 26/26/26 33/33/33 34/34/34
f 26/26/26 35/35/35 33/33/33
f 36/36/36 37/37/37 35/35/35
f 36/36/36 28/28/28 37/37/37
f 36/36/36 38/38/38 29/29/29
f 36/36/36 31/31/31 38/38/38
f 36/36/36 39/39/39 32/32/32
f 36/36/36 34/34/34 39/39/39
f 40/40/40 41/41/41 42/42/42
f 40/40/40 43/43/43 41/41/41
f 40/40/40 44/44/44 45/45/45
f 40/40/40 46/46/46 44/44/44
f 40/40/40 47/47/47 48/48/48
f 40/40/40 49/49/49 47/47/47
f 50/50/50 51/51/51 49/49/49
f 50/50/50 42/42/42 51/51/51
f 50/50/50 52/52/52 43/43/43
f 50/50/50 45/45/45 52/52/52
f 50/50/50 53/53/53 46/46/46
f 50/50/50 48/48/48 53/53/53
f 54/54/54 55/55/55 56/56/56
f 54/54/54 56/56/56 57/57/57
f 54/54/54 57/57/57 58/58/58
f 54/54/54 59/59/59 55/55/55
f 54/54/54 60/60/60 59/59/59
f 54/54/54 58/58/58 60/60/60
f 61/61/61 62/62/62 63/63/63
f 61/61/61 64/64/64 62/62/62
f 61/61/61 65/65/65 64/64/64
f 61/61/61 66/66/66 65/65/65
f 61/61/61 67/67/67 66/66/66
f 61/61/61 63/63/63 67/67/67
f 68/68/68 69/69/69 70/70/70
f 68/68/68 71/71/71 69/69/69
f 68/68/68 72/72/72 71/71/71
f 68/68/68 73/73/73 72/72/72
f 68/68/68 74/74/74 73/73/73
f 68/68/68 70/70/70 74/74/74
f 75/75/75 76/76/76 3/3/3
f 77/77/77 78/78/78 3/3/3
f 79/79/79 80/80/80 3/3/3
g Geoset1
s 1
usemtl mat_ironforgefirtrunk01_new
f 81/81/81 82/82/82 83/83/83
f 84/84/84 85/85/85 86/86/86
f 84/84/84 86/86/86 87/87/87
f 84/84/84 87/87/87 88/88/88
f 84/84/84 89/89/89 85/85/85
f 84/84/84 83/83/83 89/89/89
f 84/84/84 88/88/88 83/83/83
f 81/81/81 83/83/83 88/88/88
f 90/90/90 81/81/81 88/88/88
f 90/90/90 88/88/88 87/87/87
f 91/91/91 90/90/90 87/87/87
f 91/91/91 87/87/87 86/86/86
f 92/92/92 91/91/91 86/86/86
f 92/92/92 86/86/86 85/85/85
f 93/93/93 92/92/92 85/85/85
f 93/93/93 85/85/85 89/89/89
f 82/82/82 93/93/93 89/89/89
f 82/82/82 89/89/89 83/83/83
