# Exported using wow.export v0.1.65
o ironstump05
mtllib ironstump05.mtl
v -7.800310134887695 1.5824899673461914 0.07592330127954483
v -7.201779842376709 0.6882690191268921 1.5687600374221802
v -6.824419975280762 2.4242300987243652 1.5991499423980713
v 6.129670143127441 1.7005399465560913 0.07592330127954483
v 7.821080207824707 3.3629400730133057 2.6893200874328613
v 6.481359958648682 0.5434719920158386 2.2098300457000732
v 8.276780128479004 4.901830196380615 0.07592470198869705
v 7.051310062408447 3.3629400730133057 -2.5374701023101807
v 6.139750003814697 0.5434719920158386 -2.2153398990631104
v 6.149280071258545 -0.5456809997558594 0.07592310011386871
v -7.201779842376709 0.6882690191268921 -1.4169100522994995
v -0.36518099904060364 -0.1880829930305481 0.07592310011386871
v -7.26800012588501 -0.1534619927406311 0.07592310011386871
v -0.37292200326919556 0.6984390020370483 -1.4915499687194824
v -6.824419975280762 2.4242300987243652 -1.4472999572753906
v -0.3888779878616333 3.0563299655914307 -1.7025099992752075
v -6.754030227661133 3.3184399604797363 0.07592359930276871
v -0.3970940113067627 4.140669822692871 0.07592389732599258
v 6.481359958648682 0.5434719920158386 2.2098300457000732
v 6.149280071258545 -0.5456809997558594 0.07592310011386871
v 6.139750003814697 0.5434719920158386 -2.2153398990631104
v 7.051310062408447 3.3629400730133057 -2.5374701023101807
v 8.276780128479004 4.901830196380615 0.07592470198869705
v -0.38887500762939453 2.7037100791931152 1.918720006942749
v -6.824419975280762 2.4242300987243652 1.5991499423980713
v 7.821080207824707 3.3629400730133057 2.6893200874328613
v -0.37292200326919556 0.6984390020370483 1.643399953842163
v -7.201779842376709 0.6882690191268921 1.5687600374221802
v -6.824419975280762 2.4242300987243652 -1.4472999572753906
v -7.201779842376709 0.6882690191268921 -1.4169100522994995
v -7.26800012588501 -0.1534619927406311 0.07592310011386871
v -6.754030227661133 3.3184399604797363 0.07592359930276871
vn -0.9890390038490295 0.14765599370002747 7.232240051280314e-8
vn -0.4916200041770935 -0.5014190077781677 0.7119619846343994
vn -0.4610480070114136 0.3532800078392029 0.8140199780464172
vn 0.948065996170044 -0.30125701427459717 -0.1020520031452179
vn 0.5809159874916077 -0.12558099627494812 0.8042179942131042
vn 0.5308949947357178 -0.7114189863204956 0.4604710042476654
vn 0.49485599994659424 0.867510974407196 -0.05041329935193062
vn 0.5260130167007446 -0.048403799533843994 -0.8490980267524719
vn 0.5263199806213379 -0.6551060080528259 -0.5420550107955933
vn 0.7286220192909241 -0.6831730008125305 -0.04883050173521042
vn -0.4916200041770935 -0.5014190077781677 -0.7119609713554382
vn -0.0357200987637043 -0.9993510246276855 0.004563480149954557
vn -0.6304219961166382 -0.7762529850006104 2.444680013979905e-9
vn -0.0634630024433136 -0.3747589886188507 -0.92494797706604
vn -0.4647580087184906 0.36174100637435913 -0.8081730008125305
vn -0.09961509704589844 0.6285610198974609 -0.7713540196418762
vn -0.42330899834632874 0.9057589769363403 0.020275799557566643
vn -0.10770600289106369 0.9925360083580017 0.057203300297260284
vn 0.5308949947357178 -0.7114189863204956 0.4604710042476654
vn 0.7286220192909241 -0.6831730008125305 -0.04883050173521042
vn 0.5263199806213379 -0.6551060080528259 -0.5420550107955933
vn 0.5260130167007446 -0.048403799533843994 -0.8490980267524719
vn 0.49485599994659424 0.867510974407196 -0.05041329935193062
vn -0.09111110121011734 0.5824710130691528 0.8077290058135986
vn -0.4610480070114136 0.3532800078392029 0.8140199780464172
vn 0.5809159874916077 -0.12558099627494812 0.8042179942131042
vn -0.052683599293231964 -0.3986929953098297 0.9155700206756592
vn -0.4916200041770935 -0.5014190077781677 0.7119619846343994
vn -0.4647580087184906 0.36174100637435913 -0.8081730008125305
vn -0.4916200041770935 -0.5014190077781677 -0.7119609713554382
vn -0.6304219961166382 -0.7762529850006104 2.444680013979905e-9
vn -0.42330899834632874 0.9057589769363403 0.020275799557566643
vt 0.6295329928398132 0.019823014736175537
vt 0.18601399660110474 0.12791502475738525
vt 0.9349039793014526 0.1212729811668396
vt 0.6295329928398132 0.019823014736175537
vt 0.9349039793014526 0.1212729811668396
vt 0.18601399660110474 0.12791502475738525
vt 0.18601399660110474 0.12791502475738525
vt 0.9349039793014526 0.1212729811668396
vt 0.18601399660110474 0.12791502475738525
vt 0.9349039793014526 0.1212729811668396
vt 0.9837120175361633 0.09953302145004272
vt 0.40204399824142456 0.9918888797983527
vt 0.40204399824142456 0.09953302145004272
vt 0.9837120175361633 0.9918888797983527
vt 0.40204399824142456 0.09953302145004272
vt 0.40204399824142456 0.9918888797983527
vt 0.008393820375204086 0.09953302145004272
vt 0.008393789641559124 0.9918888797983527
vt 0.9837120175361633 0.09953302145004272
vt 0.40204399824142456 0.09953302145004272
vt 0.9837120175361633 0.09953302145004272
vt 0.40204399824142456 0.09953302145004272
vt 0.008393820375204086 0.09953302145004272
vt 0.40204399824142456 0.9918888797983527
vt 0.40204399824142456 0.09953302145004272
vt 0.40204399824142456 0.09953302145004272
vt 0.9837120175361633 0.9918888797983527
vt 0.9837120175361633 0.09953302145004272
vt 0.9349039793014526 0.1212729811668396
vt 0.18601399660110474 0.12791502475738525
vt 0.9349039793014526 0.1212729811668396
vt 0.18601399660110474 0.12791502475738525
g Geoset0
s 1
usemtl mat_ironstump02a
f 1/1/1 2/2/2 3/3/3
f 4/4/4 5/5/5 6/6/6
f 4/4/4 7/7/7 5/5/5
f 4/4/4 8/8/8 7/7/7
f 4/4/4 9/9/9 8/8/8
f 4/4/4 10/10/10 9/9/9
f 4/4/4 6/6/6 10/10/10
f 11/11/11 12/12/12 13/13/13
f 11/11/11 14/14/14 12/12/12
f 15/15/15 14/14/14 11/11/11
f 15/15/15 16/16/16 14/14/14
f 17/17/17 16/16/16 15/15/15
f 17/17/17 18/18/18 16/16/16
f 19/19/19 12/12/12 20/20/20
f 21/21/21 20/20/20 12/12/12
f 21/21/21 12/12/12 14/14/14
f 22/22/22 21/21/21 14/14/14
f 22/22/22 14/14/14 16/16/16
f 23/23/23 22/22/22 16/16/16
f 23/23/23 16/16/16 18/18/18
f 23/23/23 18/18/18 24/24/24
f 17/17/17 24/24/24 18/18/18
f 17/17/17 25/25/25 24/24/24
f 23/23/23 24/24/24 26/26/26
f 26/26/26 24/24/24 27/27/27
f 25/25/25 27/27/27 24/24/24
f 25/25/25 28/28/28 27/27/27
f 26/26/26 27/27/27 19/19/19
f 19/19/19 27/27/27 12/12/12
f 28/28/28 12/12/12 27/27/27
f 28/28/28 13/13/13 12/12/12
f 1/1/1 29/29/29 30/30/30
f 1/1/1 30/30/30 31/31/31
f 1/1/1 31/31/31 2/2/2
f 1/1/1 32/32/32 29/29/29
f 1/1/1 3/3/3 32/32/32
