# Exported using wow.export v0.1.65
o flowersbunchdead02
mtllib flowersbunchdead02.mtl
v -0.14403000473976135 0.07054390013217926 0.4169889986515045
v 0.11415400356054306 0.07054390013217926 0.4169889986515045
v -0.14403000473976135 0.10764899849891663 -0.0071208300068974495
v -0.01483170036226511 0.019206099212169647 -0.2966110110282898
v 0.051427800208330154 0.11648599803447723 -0.3621329963207245
v 0.09237830340862274 -0.009067780338227749 -0.3731189966201782
v -0.08109170198440552 0.11648599803447723 -0.3621329963207245
v -0.12204200029373169 -0.009067780338227749 -0.3731189966201782
v -0.01483170036226511 -0.08666440099477768 -0.3799079954624176
v 0.08659719675779343 0.037268899381160736 -0.20951999723911285
v 0.06896249949932098 0.15461300313472748 -0.2732909917831421
v 0.18703800439834595 0.09467940032482147 -0.2785309851169586
v -0.024742500856518745 0.061264198273420334 -0.28145599365234375
v 0.03541969880461693 -0.05636189877986908 -0.29174700379371643
v 0.16630800068378448 -0.035710301250219345 -0.2899389863014221
v 0.12376900017261505 0.1341630071401596 -0.28654998540878296
v 0.03257029876112938 0.20659999549388885 -0.35425299406051636
v 0.1586039960384369 0.24739399552345276 -0.3506830036640167
v 0.03257029876112938 0.07458390295505524 -0.36579999327659607
v 0.1586039960384369 0.033789198845624924 -0.36937201023101807
v 0.23649699985980988 0.14059199392795563 -0.3600279986858368
v 0.08229140192270279 0.22931300103664398 -0.20501600205898285
v 0.19363099336624146 0.2533090114593506 -0.2769539952278137
v 0.13346900045871735 0.13568200170993805 -0.2872439920902252
v 0.09992580115795135 0.346653014421463 -0.2687869966030121
v -0.018149400129914284 0.2867189943790436 -0.27402999997138977
v 0.0025805600453168154 0.15633399784564972 -0.28543299436569214
v -0.08870059996843338 0.21296800673007965 -0.20644600689411163
v -0.10633499920368195 0.33031100034713745 -0.27021700143814087
v 0.011740299873054028 0.2703779935836792 -0.27546000480651855
v -0.2000409960746765 0.23696300387382507 -0.2783829867839813
v -0.13987800478935242 0.11933600157499313 -0.28867200016975403
v -0.008989719673991203 0.1399880051612854 -0.2868640124797821
v -0.01483170036226511 0.2672390043735504 -0.2872079908847809
v 0.051427800208330154 0.3645170032978058 -0.35273098945617676
v 0.09237830340862274 0.2389650046825409 -0.3637169897556305
v -0.08109170198440552 0.3645170032978058 -0.35273098945617676
v -0.12204200029373169 0.2389650046825409 -0.3637169897556305
v -0.01483170036226511 0.1613679975271225 -0.3705059885978699
v -0.12413900345563889 0.13523100316524506 -0.2987560033798218
v -0.21533800661563873 0.20766699314117432 -0.36645299196243286
v -0.08930440247058868 0.2484620064496994 -0.36288899183273315
v -0.21533800661563873 0.07565169781446457 -0.3780060112476349
v -0.08930440247058868 0.034856900572776794 -0.38157498836517334
v -0.011411099694669247 0.14166000485420227 -0.37223100662231445
v -0.01483170036226511 0.16207100450992584 -0.318477988243103
v 0.051427800208330154 0.2593519985675812 -0.3840000033378601
v 0.09237830340862274 0.13379700481891632 -0.39498600363731384
v -0.08109170198440552 0.2593519985675812 -0.3840000033378601
v -0.12204200029373169 0.13379700481891632 -0.39498600363731384
v -0.01483170036226511 0.056200798600912094 -0.4017750024795532
v -0.014937800355255604 -0.019900299608707428 -0.3414219915866852
v -0.014937800355255604 0.2913079857826233 -0.31419700384140015
v -0.014937800355255604 -0.020951099693775177 -0.01837190054357052
v -0.014937800355255604 0.23624999821186066 0.004129999782890081
v -0.014937800355255604 -0.05805639922618866 0.4057390093803406
v -0.014937800355255604 0.19914400577545166 0.4282419979572296
v -0.1253879964351654 0.018618900328874588 -0.2567889988422394
v 0.09551279991865158 0.23868100345134735 -0.2375359982252121
v -0.10621900111436844 0.016714399680495262 -0.015076699666678905
v 0.0763436034321785 0.19858400523662567 0.000830555974971503
v -0.10621900111436844 -0.020390000194311142 0.40903300046920776
v 0.0763436034321785 0.16147799789905548 0.42494699358940125
v 0.09551279991865158 0.018618900328874588 -0.2567889988422394
v -0.1253879964351654 0.23868100345134735 -0.2375359982252121
v 0.0763436034321785 0.016714399680495262 -0.015076699666678905
v -0.10621900111436844 0.19858400523662567 0.000830555974971503
v 0.0763436034321785 -0.020390000194311142 0.40903300046920776
v -0.10621900111436844 0.16147799789905548 0.42494699358940125
v 0.1412629932165146 0.13570599257946014 -0.3278079926967621
v -0.17113900184631348 0.13570599257946014 -0.3278079926967621
v 0.11415400356054306 0.10764899849891663 -0.0071208300068974495
vn -1.6633500132812173e-10 0.9961950182914734 0.08715569972991943
vn -1.6633500132812173e-10 0.9961950182914734 0.08715569972991943
vn -1.6633500132812173e-10 0.9961950182914734 0.08715569972991943
vn -3.2235899283250546e-8 0.08715569972991943 -0.9961950182914734
vn -0.32181400060653687 -0.3683220148086548 -0.872223973274231
vn -0.5207059979438782 0.24147599935531616 -0.8188740015029907
vn 0.32181400060653687 -0.3683220148086548 -0.872223973274231
vn 0.5207059979438782 0.24147599935531616 -0.8188740015029907
vn 3.856159835891049e-8 0.6183519959449768 -0.7859010100364685
vn 2.1424300555850095e-8 0.08715560287237167 -0.9961950182914734
vn 0.08564840257167816 -0.46577298641204834 -0.8807500004768372
vn -0.4878289997577667 -0.17468300461769104 -0.8552830219268799
vn 0.5407620072364807 -0.012390400283038616 -0.8410840034484863
vn 0.24856099486351013 0.5589050054550171 -0.7911019921302795
vn -0.38714298605918884 0.45860201120376587 -0.7998780012130737
vn 6.092780058253311e-9 0.08715560287237167 -0.9961950182914734
vn 0.44293901324272156 -0.24765799939632416 -0.8616669774055481
vn -0.169187992811203 -0.4457930028438568 -0.8790019750595093
vn 0.44293901324272156 0.3935219943523407 -0.8055710196495056
vn -0.169187992811203 0.5916569828987122 -0.7882369756698608
vn -0.5475029945373535 0.07293219864368439 -0.8336189985275269
vn -1.307159980257211e-8 0.08715569972991943 -0.9961950182914734
vn -0.5407620072364807 -0.01239010039716959 -0.8410840034484863
vn -0.24856099486351013 0.5589050054550171 -0.7911019921302795
vn -0.08564849942922592 -0.46577200293540955 -0.8807500004768372
vn 0.4878289997577667 -0.17468300461769104 -0.8552830219268799
vn 0.38714298605918884 0.45860201120376587 -0.7998780012130737
vn 5.208719855431809e-8 0.08715549856424332 -0.9961950182914734
vn 0.08564840257167816 -0.46577298641204834 -0.8807500004768372
vn -0.4878289997577667 -0.17468300461769104 -0.8552830219268799
vn 0.5407620072364807 -0.012390400283038616 -0.8410840034484863
vn 0.24856099486351013 0.5589050054550171 -0.7911019921302795
vn -0.38714298605918884 0.45860201120376587 -0.7998780012130737
vn -9.238710241277204e-9 0.08715569972991943 -0.9961950182914734
vn -0.32181400060653687 -0.3683220148086548 -0.872223973274231
vn -0.5207059979438782 0.24147599935531616 -0.8188740015029907
vn 0.32181400060653687 -0.3683220148086548 -0.872223973274231
vn 0.5207059979438782 0.24147599935531616 -0.8188740015029907
vn 3.856159835891049e-8 0.6183519959449768 -0.7859010100364685
vn 3.675580018125402e-8 0.08715560287237167 -0.9961950182914734
vn 0.44293901324272156 -0.24765799939632416 -0.8616669774055481
vn -0.169187992811203 -0.4457930028438568 -0.8790019750595093
vn 0.44293901324272156 0.3935219943523407 -0.8055710196495056
vn -0.169187992811203 0.5916569828987122 -0.7882369756698608
vn -0.5475029945373535 0.07293219864368439 -0.8336189985275269
vn -3.2235899283250546e-8 0.08715569972991943 -0.9961950182914734
vn -0.32181400060653687 -0.3683220148086548 -0.872223973274231
vn -0.5207059979438782 0.24147599935531616 -0.8188740015029907
vn 0.32181400060653687 -0.3683220148086548 -0.872223973274231
vn 0.5207059979438782 0.24147599935531616 -0.8188740015029907
vn 3.856159835891049e-8 0.6183519959449768 -0.7859010100364685
vn 1 -1.1408699762682772e-8 7.450580152834618e-9
vn 1 -1.1408699762682772e-8 7.450580152834618e-9
vn 1 -1.1408699762682772e-8 7.450580152834618e-9
vn 1 -1.1408699762682772e-8 7.450580152834618e-9
vn 1 -1.1408699762682772e-8 7.450580152834618e-9
vn 1 -1.1408699762682772e-8 7.450580152834618e-9
vn 0.7071070075035095 -0.7044159770011902 -0.06162840127944946
vn 0.7071070075035095 -0.7044159770011902 -0.06162840127944946
vn 0.7071070075035095 -0.7044159770011902 -0.06162840127944946
vn 0.7071070075035095 -0.7044159770011902 -0.06162840127944946
vn 0.7071070075035095 -0.7044159770011902 -0.06162840127944946
vn 0.7071070075035095 -0.7044159770011902 -0.06162840127944946
vn 0.7071070075035095 0.7044159770011902 0.06162840127944946
vn 0.7071070075035095 0.7044159770011902 0.06162840127944946
vn 0.7071070075035095 0.7044159770011902 0.06162840127944946
vn 0.7071070075035095 0.7044159770011902 0.06162840127944946
vn 0.7071070075035095 0.7044159770011902 0.06162840127944946
vn 0.7071070075035095 0.7044159770011902 0.06162840127944946
vn -1.6632599464383446e-10 0.9961950182914734 0.08715569972991943
vn -1.6633000532451092e-10 0.9961950182914734 0.08715569972991943
vn -1.6633200372595525e-10 0.9961950182914734 0.08715569972991943
vt 0.7512720227241516 0.002196013927459717
vt 0.9953100085258484 0.002196013927459717
vt 0.7513449788093567 0.25823497772216797
vt 0.1227170005440712 0.37905997037887573
vt 0.021565599367022514 0.25123798847198486
vt 0.22311300039291382 0.2523149847984314
vt -0.00035230201319791377 0.43400299549102783
vt 0.125559002161026 0.498848021030426
vt 0.2528499960899353 0.4219859838485718
vt 0.1227170005440712 0.37905997037887573
vt 0.021565599367022514 0.25123798847198486
vt 0.22311300039291382 0.2523149847984314
vt -0.00035230201319791377 0.43400299549102783
vt 0.125559002161026 0.498848021030426
vt 0.2528499960899353 0.4219859838485718
vt 0.1227170005440712 0.37905997037887573
vt 0.021565599367022514 0.25123798847198486
vt 0.22311300039291382 0.2523149847984314
vt -0.00035230201319791377 0.43400299549102783
vt 0.125559002161026 0.498848021030426
vt 0.2528499960899353 0.4219859838485718
vt 0.1227170005440712 0.37905997037887573
vt 0.021565599367022514 0.25123798847198486
vt 0.22311300039291382 0.2523149847984314
vt -0.00035230201319791377 0.43400299549102783
vt 0.125559002161026 0.498848021030426
vt 0.2528499960899353 0.4219859838485718
vt 0.1227170005440712 0.37905997037887573
vt 0.021565599367022514 0.25123798847198486
vt 0.22311300039291382 0.2523149847984314
vt -0.00035230201319791377 0.43400299549102783
vt 0.125559002161026 0.498848021030426
vt 0.2528499960899353 0.4219859838485718
vt 0.1227170005440712 0.37905997037887573
vt 0.021565599367022514 0.25123798847198486
vt 0.22311300039291382 0.2523149847984314
vt -0.00035230201319791377 0.43400299549102783
vt 0.125559002161026 0.498848021030426
vt 0.2528499960899353 0.4219859838485718
vt 0.1227170005440712 0.37905997037887573
vt 0.021565599367022514 0.25123798847198486
vt 0.22311300039291382 0.2523149847984314
vt -0.00035230201319791377 0.43400299549102783
vt 0.125559002161026 0.498848021030426
vt 0.2528499960899353 0.4219859838485718
vt 0.1227170005440712 0.37905997037887573
vt 0.021565599367022514 0.25123798847198486
vt 0.22311300039291382 0.2523149847984314
vt -0.00035230201319791377 0.43400299549102783
vt 0.125559002161026 0.498848021030426
vt 0.2528499960899353 0.4219859838485718
vt 0.9952290058135986 0.49977999925613403
vt 0.7513449788093567 0.49977999925613403
vt 0.9952290058135986 0.25823497772216797
vt 0.7513449788093567 0.25823497772216797
vt 0.9953100085258484 0.002196013927459717
vt 0.7512720227241516 0.002196013927459717
vt 0.9952290058135986 0.49977999925613403
vt 0.7513449788093567 0.49977999925613403
vt 0.9952290058135986 0.25823497772216797
vt 0.7513449788093567 0.25823497772216797
vt 0.9953100085258484 0.002196013927459717
vt 0.7512720227241516 0.002196013927459717
vt 0.9952290058135986 0.49977999925613403
vt 0.7513449788093567 0.49977999925613403
vt 0.9952290058135986 0.25823497772216797
vt 0.7513449788093567 0.25823497772216797
vt 0.9953100085258484 0.002196013927459717
vt 0.7512720227241516 0.002196013927459717
vt 0.9952290058135986 0.49977999925613403
vt 0.7513449788093567 0.49977999925613403
vt 0.9952290058135986 0.25823497772216797
g Geoset0
s 1
usemtl mat_flowerarrangements01
f 1/1/1 2/2/2 3/3/3
f 4/4/4 5/5/5 6/6/6
f 4/4/4 7/7/7 5/5/5
f 4/4/4 8/8/8 7/7/7
f 4/4/4 9/9/9 8/8/8
f 4/4/4 6/6/6 9/9/9
f 10/10/10 11/11/11 12/12/12
f 10/10/10 13/13/13 11/11/11
f 10/10/10 14/14/14 13/13/13
f 10/10/10 15/15/15 14/14/14
f 10/10/10 12/12/12 15/15/15
f 16/16/16 17/17/17 18/18/18
f 16/16/16 19/19/19 17/17/17
f 16/16/16 20/20/20 19/19/19
f 16/16/16 21/21/21 20/20/20
f 16/16/16 18/18/18 21/21/21
f 22/22/22 23/23/23 24/24/24
f 22/22/22 25/25/25 23/23/23
f 22/22/22 26/26/26 25/25/25
f 22/22/22 27/27/27 26/26/26
f 22/22/22 24/24/24 27/27/27
f 28/28/28 29/29/29 30/30/30
f 28/28/28 31/31/31 29/29/29
f 28/28/28 32/32/32 31/31/31
f 28/28/28 33/33/33 32/32/32
f 28/28/28 30/30/30 33/33/33
f 34/34/34 35/35/35 36/36/36
f 34/34/34 37/37/37 35/35/35
f 34/34/34 38/38/38 37/37/37
f 34/34/34 39/39/39 38/38/38
f 34/34/34 36/36/36 39/39/39
f 40/40/40 41/41/41 42/42/42
f 40/40/40 43/43/43 41/41/41
f 40/40/40 44/44/44 43/43/43
f 40/40/40 45/45/45 44/44/44
f 40/40/40 42/42/42 45/45/45
f 46/46/46 47/47/47 48/48/48
f 46/46/46 49/49/49 47/47/47
f 46/46/46 50/50/50 49/49/49
f 46/46/46 51/51/51 50/50/50
f 46/46/46 48/48/48 51/51/51
f 52/52/52 53/53/53 54/54/54
f 55/55/55 54/54/54 53/53/53
f 54/54/54 55/55/55 56/56/56
f 57/57/57 56/56/56 55/55/55
f 58/58/58 59/59/59 60/60/60
f 61/61/61 60/60/60 59/59/59
f 60/60/60 61/61/61 62/62/62
f 63/63/63 62/62/62 61/61/61
f 64/64/64 65/65/65 66/66/66
f 67/67/67 66/66/66 65/65/65
f 66/66/66 67/67/67 68/68/68
f 69/69/69 68/68/68 67/67/67
f 70/70/70 71/71/71 72/72/72
f 3/3/3 72/72/72 71/71/71
f 72/72/72 3/3/3 2/2/2
