# Exported using wow.export v0.1.65
o flowerswreath02
mtllib flowerswreath02.mtl
v -0.797639012336731 0.05703280121088028 -0.01121469959616661
v -0.33530598878860474 0.1603659987449646 -0.5310029983520508
v -0.4164220094680786 0.05703280121088028 -0.6715030074119568
v -0.5745469927787781 0.10806400328874588 0.21989600360393524
v -0.6307439804077148 0.1232990026473999 0.341372013092041
v -0.5194780230522156 0.18915200233459473 0.31230801343917847
v -0.7077029943466187 0.1232990026473999 0.23348599672317505
v -0.6439970135688782 0.18915200233459473 0.1377439945936203
v -0.5276669859886169 0.22985099256038666 0.1864590048789978
v 0.6360560059547424 0.10806400328874588 0.0036088901106268167
v 0.7190669775009155 0.1232990026473999 -0.10139100253582001
v 0.6040890216827393 0.18915200233459473 -0.09910470247268677
v 0.7687079906463623 0.1232990026473999 0.021478300914168358
v 0.6844080090522766 0.18915200233459473 0.09970279783010483
v 0.5826719999313354 0.22985099256038666 0.02517860010266304
v -0.05781500041484833 0.20209400355815887 -0.5866169929504395
v -0.09876559674739838 0.13624100387096405 -0.6940749883651733
v -0.165024995803833 0.12100599706172943 -0.5777810215950012
v -0.2312850058078766 0.13624100387096405 -0.6940749883651733
v -0.2722359895706177 0.20209400355815887 -0.5866169929504395
v -0.165024995803833 0.2427929937839508 -0.5202029943466187
v 0.20430399477481842 0.24860399961471558 0.5546810030937195
v 0.327241986989975 0.16760599613189697 0.6246309876441956
v 0.2991439998149872 0.14886599779129028 0.4624139964580536
v 0.45301899313926697 0.16760599613189697 0.5209500193595886
v 0.4078109860420227 0.24860399961471558 0.3869220018386841
v 0.25409701466560364 0.2986609935760498 0.4077639877796173
v -0.27732500433921814 0.2559930086135864 0.552236020565033
v -0.20417900383472443 0.17499400675296783 0.43116700649261475
v -0.3670719861984253 0.15625500679016113 0.4550139904022217
v -0.3045310080051422 0.17499400675296783 0.30271899700164795
v -0.43969398736953735 0.2559930086135864 0.34440600872039795
v -0.42288100719451904 0.3060530126094818 0.49861401319503784
v 0.4028579890727997 0.10806400328874588 -0.4315420091152191
v 0.44715800881385803 0.1232990026473999 -0.5578470230102539
v 0.33918899297714233 0.18915200233459473 -0.5182530283927917
v 0.5340970158576965 0.1232990026473999 -0.4578329920768738
v 0.47985801100730896 0.18915200233459473 -0.3564249873161316
v 0.35940301418304443 0.22985099256038666 -0.3937689960002899
v 0.04920469969511032 0.12100599706172943 -0.48288899660110474
v 0.11546500027179718 0.13624100387096405 -0.3665890097618103
v 0.15641500055789948 0.20209400355815887 -0.4740529954433441
v -0.017054399475455284 0.13624100387096405 -0.3665890097618103
v -0.05800560116767883 0.20209400355815887 -0.4740529954433441
v 0.04920469969511032 0.2427929937839508 -0.5404670238494873
v -0.4964999854564667 0.24860399961471558 -0.41125598549842834
v -0.6315029859542847 0.16760599613189697 -0.3690530061721802
v -0.4937030076980591 0.14886599779129028 -0.27897199988365173
v -0.6414579749107361 0.16760599613189697 -0.20635899901390076
v -0.5125970244407654 0.24860399961471558 -0.14801399409770966
v -0.42301398515701294 0.2986609935760498 -0.2746500074863434
v 0.5434389710426331 0.19236600399017334 -0.05371889844536781
v 0.4284830093383789 0.11136800050735474 -0.13613900542259216
v 0.4394780099391937 0.0926280990242958 0.028126100078225136
v 0.29256099462509155 0.11136800050735474 -0.04617390036582947
v 0.323511004447937 0.19236600399017334 0.09184720367193222
v 0.47856399416923523 0.24242599308490753 0.08718419820070267
v -0.1690790057182312 0.10806400328874588 0.5747079849243164
v -0.10281900316476822 0.1232990026473999 0.6910030245780945
v -0.061868298798799515 0.18915200233459473 0.5835440158843994
v -0.2353390008211136 0.1232990026473999 0.6910030245780945
v -0.27628999948501587 0.18915200233459473 0.5835440158843994
v -0.1690790057182312 0.22985099256038666 0.5171279907226562
v -0.33530598878860474 0 -0.5310029983520508
v -0.797639012336731 0.10333000123500824 -0.01121469959616661
v -0.4164220094680786 0.10333000123500824 -0.6715030074119568
v 0.34601399302482605 0.10333000123500824 -0.6715030074119568
v 0.2648969888687134 0 -0.5310029983520508
v 0.7272279858589172 0.10333000123500824 -0.01121469959616661
v 0.5649939775466919 0 -0.01121469959616661
v 0.34601399302482605 0.10333000123500824 0.649071991443634
v 0.2648969888687134 0 0.5085750222206116
v -0.4164220094680786 0.10333000123500824 0.649071991443634
v -0.33530598878860474 0 0.5085750222206116
v -0.25418999791145325 0.10333000123500824 -0.3905079960823059
v 0.1837809979915619 0.10333000123500824 -0.3905079960823059
v -0.6354079842567444 0 -0.01121469959616661
v -0.47317200899124146 0.10333000123500824 -0.01121469959616661
v -0.25418999791145325 0.10333000123500824 0.36807799339294434
v 0.1837809979915619 0.10333000123500824 0.36807799339294434
v 0.40276700258255005 0.10333000123500824 -0.01121469959616661
v -0.4164220094680786 0.05703280121088028 0.649071991443634
v -0.33530598878860474 0.1603659987449646 0.5085750222206116
v 0.34601399302482605 0.057032499462366104 0.649071991443634
v -0.6354079842567444 0.1603659987449646 -0.01121469959616661
v -0.25418999791145325 0.057032499462366104 0.36807799339294434
v 0.2648969888687134 0.1603659987449646 0.5085750222206116
v 0.1837809979915619 0.057032499462366104 0.36807799339294434
v 0.5649939775466919 0.1603659987449646 -0.01121469959616661
v 0.40276700258255005 0.057032499462366104 -0.01121469959616661
v 0.2648969888687134 0.1603659987449646 -0.5310029983520508
v 0.1837809979915619 0.057032499462366104 -0.3905079960823059
v -0.25418999791145325 0.057032499462366104 -0.3905079960823059
v 0.7272279858589172 0.057032499462366104 -0.01121469959616661
v 0.34601399302482605 0.057032499462366104 -0.6715030074119568
v -0.47317200899124146 0.05703280121088028 -0.01121469959616661
vn -0.5372229814529419 0.8434399962425232 -7.800739609820084e-9
vn -0.10384199768304825 0.9781960248947144 -0.17985999584197998
vn -0.26861199736595154 0.8434399962425232 -0.4652490019798279
vn -0.42537400126457214 0.8526399731636047 0.30341601371765137
vn -0.23536799848079681 0.944927990436554 -0.22740699350833893
vn -0.775771975517273 0.6250920295715332 -0.086245097219944
vn 0.1383890062570572 0.944927990436554 0.2965810000896454
vn -0.1710200011730194 0.6250920295715332 0.761584997177124
vn -0.7360029816627502 0.42742300033569336 0.5249860286712646
vn 0.4844520092010498 0.8526399731636047 -0.1957309991121292
vn 0.17577800154685974 0.944927990436554 0.2760689854621887
vn 0.7342039942741394 0.6250920295715332 0.26496198773384094
vn -0.0653299018740654 0.944927990436554 -0.3206929862499237
vn 0.3440830111503601 0.6250920295715332 -0.7006189823150635
vn 0.8382220268249512 0.42742300033569336 -0.3386639952659607
vn -0.5207059979438782 0.6250920295715332 -0.5814849734306335
vn -0.32181400060653687 0.944927990436554 -0.05956089869141579
vn 4.418569954367513e-9 0.8526399731636047 -0.5224990248680115
vn 0.32181400060653687 0.944927990436554 -0.05956089869141579
vn 0.5207059979438782 0.6250920295715332 -0.5814849734306335
vn 3.1634300512450864e-8 0.42742300033569336 -0.9040520191192627
vn 0.7716599702835083 0.6250920295715332 0.11747799813747406
vn 0.286204993724823 0.944927990436554 -0.15874099731445312
vn 0.3323499858379364 0.8526399731636047 0.4031729996204376
vn -0.21043400466442108 0.944927990436554 0.2506580054759979
vn -0.0319196991622448 0.6250920295715332 0.7798979878425598
vn 0.57504802942276 0.42742300033569336 0.6975889801979065
vn 0.13763700425624847 0.6250920295715332 -0.7683200240135193
vn -0.1511940062046051 0.944927990436554 -0.29026201367378235
vn 0.411734014749527 0.8526399731636047 -0.32168200612068176
vn 0.24506300687789917 0.944927990436554 0.21692399680614471
vn 0.7787950038909912 0.6250920295715332 0.05232429876923561
vn 0.7124029994010925 0.42742300033569336 -0.5565900206565857
vn 0.394335001707077 0.8526399731636047 -0.34279000759124756
vn 0.2560800015926361 0.944927990436554 0.2038010060787201
vn 0.7804660201072693 0.6250920295715332 0.011493599973618984
vn -0.16617800295352936 0.944927990436554 -0.28195199370384216
vn 0.0972381979227066 0.6250920295715332 -0.7744709849357605
vn 0.6822969913482666 0.42742300033569336 -0.593110978603363
vn 1.224439993841031e-9 0.8526399731636047 0.5224990248680115
vn -0.32181400060653687 0.944927990436554 0.059560999274253845
vn -0.5207059979438782 0.6250920295715332 0.5814849734306335
vn 0.32181400060653687 0.944927990436554 0.05956089869141579
vn 0.5207059979438782 0.6250920295715332 0.5814849734306335
vn 3.021580141648883e-8 0.42742300033569336 0.9040520191192627
vn -0.612188994884491 0.6250920295715332 0.4842360019683838
vn -0.07909610122442245 0.944927990436554 0.317577987909317
vn -0.5215240120887756 0.8526399731636047 -0.03189770132303238
vn -0.0398034006357193 0.944927990436554 -0.3248499929904938
vn -0.5486119985580444 0.6250920295715332 -0.5552340149879456
vn -0.9023659825325012 0.42742300033569336 -0.055191099643707275
vn -0.7551530003547668 0.6250920295715332 -0.1974949985742569
vn -0.3012300133705139 0.944927990436554 0.12795400619506836
vn -0.2883859872817993 0.8526399731636047 -0.43570399284362793
vn 0.23548300564289093 0.944927990436554 -0.22728799283504486
vn 0.11326699703931808 0.6250920295715332 -0.772288978099823
vn -0.49897998571395874 0.42742300033569336 -0.7538759708404541
vn 1.224439993841031e-9 0.8526399731636047 0.5224990248680115
vn -0.32181400060653687 0.944927990436554 0.059560999274253845
vn -0.5207059979438782 0.6250920295715332 0.5814849734306335
vn 0.32181400060653687 0.944927990436554 0.05956089869141579
vn 0.5207059979438782 0.6250920295715332 0.5814849734306335
vn 3.021580141648883e-8 0.42742300033569336 0.9040520191192627
vn -6.532729912578361e-8 -0.9945260286331177 -0.10449299961328506
vn -0.5372229814529419 -0.8434399962425232 -2.340219928953502e-8
vn -0.26861199736595154 -0.8434399962425232 -0.4652490019798279
vn 0.17812499403953552 -0.8389679789543152 -0.5142019987106323
vn 0.1053680032491684 -0.9925709962844849 0.06083440035581589
vn 0.534375011920929 -0.8389679789543152 -0.10283999890089035
vn 2.4480000249127443e-8 -0.9925709962844849 0.12166900187730789
vn 0.35624998807907104 -0.8389679789543152 0.4113619923591614
vn -0.1053680032491684 -0.9925709962844849 0.060834500938653946
vn -0.17812499403953552 -0.8389679789543152 0.5142019987106323
vn -0.1053680032491684 -0.9925709962844849 -0.06083440035581589
vn 0.17812499403953552 -0.8389679789543152 0.5142019987106323
vn -0.35624998807907104 -0.8389679789543152 0.4113619923591614
vn 0.1260319948196411 -0.9893540143966675 -0.0727647989988327
vn 0.534375011920929 -0.8389679789543152 0.10283999890089035
vn 0.35624998807907104 -0.8389679789543152 -0.4113619923591614
vn -0.17812499403953552 -0.8389679789543152 -0.5142019987106323
vn -0.534375011920929 -0.8389679789543152 -0.10283999890089035
vn -0.26861199736595154 0.8434399962425232 0.4652490019798279
vn -0.10384199768304825 0.9781960248947144 0.17985999584197998
vn 0.17812499403953552 0.8389679789543152 0.5142019987106323
vn 0.20768499374389648 0.9781960248947144 -1.2062700172066343e-8
vn 0.26861199736595154 0.8434399962425232 -0.4652490019798279
vn 0.1053680032491684 0.9925709962844849 -0.060834500938653946
vn -0.35624998807907104 0.8389679789543152 -0.4113619923591614
vn -3.6719999485512744e-8 0.9925709962844849 -0.12166900187730789
vn -0.534375011920929 0.8389679789543152 0.10283999890089035
vn -0.10384199768304825 0.9781960248947144 0.17985999584197998
vn -0.26861199736595154 0.8434399962425232 0.4652490019798279
vn 0.26861199736595154 0.8434399962425232 0.4652490019798279
vn 0.534375011920929 0.8389679789543152 0.10283999890089035
vn 0.26861199736595154 0.8434399962425232 -0.4652490019798279
vn 0.5372229814529419 0.8434399962425232 -3.1202901595861476e-8
vt 0.7535629868507385 0.5040940046310425
vt 0.8704580068588257 0.9759382996708155
vt 0.753587007522583 0.9984230999834836
vt 0.624534010887146 0.8611110001802444
vt 0.5407230257987976 0.7552019953727722
vt 0.7014430165290833 0.754719004034996
vt 0.5018659830093384 0.9013765975832939
vt 0.6328259706497192 0.9990304710227065
vt 0.7491679787635803 0.894556999206543
vt 0.624534010887146 0.8611110001802444
vt 0.5407230257987976 0.7552019953727722
vt 0.7014430165290833 0.754719004034996
vt 0.5018659830093384 0.9013765975832939
vt 0.6328259706497192 0.9990304710227065
vt 0.7491679787635803 0.894556999206543
vt 0.7014430165290833 0.754719004034996
vt 0.5407230257987976 0.7552019953727722
vt 0.624534010887146 0.8611110001802444
vt 0.5018659830093384 0.9013765975832939
vt 0.6328259706497192 0.9990304710227065
vt 0.7491679787635803 0.894556999206543
vt 0.7014430165290833 0.754719004034996
vt 0.5407230257987976 0.7552019953727722
vt 0.624534010887146 0.8611110001802444
vt 0.5018659830093384 0.9013765975832939
vt 0.6328259706497192 0.9990304710227065
vt 0.7491679787635803 0.894556999206543
vt 0.7014430165290833 0.754719004034996
vt 0.5407230257987976 0.7552019953727722
vt 0.624534010887146 0.8611110001802444
vt 0.5018659830093384 0.9013765975832939
vt 0.6328259706497192 0.9990304710227065
vt 0.7491679787635803 0.894556999206543
vt 0.624534010887146 0.8611110001802444
vt 0.5407230257987976 0.7552019953727722
vt 0.7014430165290833 0.754719004034996
vt 0.5018659830093384 0.9013765975832939
vt 0.6328259706497192 0.9990304710227065
vt 0.7491679787635803 0.894556999206543
vt 0.624534010887146 0.8611110001802444
vt 0.5407230257987976 0.7552019953727722
vt 0.7014430165290833 0.754719004034996
vt 0.5018659830093384 0.9013765975832939
vt 0.6328259706497192 0.9990304710227065
vt 0.7491679787635803 0.894556999206543
vt 0.7014430165290833 0.754719004034996
vt 0.5407230257987976 0.7552019953727722
vt 0.624534010887146 0.8611110001802444
vt 0.5018659830093384 0.9013765975832939
vt 0.6328259706497192 0.9990304710227065
vt 0.7491679787635803 0.894556999206543
vt 0.7014430165290833 0.754719004034996
vt 0.5407230257987976 0.7552019953727722
vt 0.624534010887146 0.8611110001802444
vt 0.5018659830093384 0.9013765975832939
vt 0.6328259706497192 0.9990304710227065
vt 0.7491679787635803 0.894556999206543
vt 0.624534010887146 0.8611110001802444
vt 0.5407230257987976 0.7552019953727722
vt 0.7014430165290833 0.754719004034996
vt 0.5018659830093384 0.9013765975832939
vt 0.6328259706497192 0.9990304710227065
vt 0.7491679787635803 0.894556999206543
vt 0.8704580068588257 0.9759382996708155
vt 0.7535629868507385 0.5040940046310425
vt 0.753587007522583 0.9984230999834836
vt 0.753587007522583 0.5039669871330261
vt 0.8704580068588257 0.5264660120010376
vt 0.7535629868507385 0.9983468699501827
vt 0.8703070282936096 0.9758797995746136
vt 0.7535690069198608 0.5039669871330261
vt 0.8703470230102539 0.5264660120010376
vt 0.7535690069198608 0.9984230999834836
vt 0.8703470230102539 0.9759382996708155
vt 0.9970530271530151 0.9577073007822037
vt 0.9970530271530151 0.5447089970111847
vt 0.8703070282936096 0.5265589952468872
vt 0.9966670274734497 0.5447739958763123
vt 0.9967690110206604 0.9577073007822037
vt 0.9967690110206604 0.5447089970111847
vt 0.9966670274734497 0.9576633982360363
vt 0.7535690069198608 0.9984230999834836
vt 0.8703470230102539 0.9759382996708155
vt 0.7535690069198608 0.5039669871330261
vt 0.8703070282936096 0.5265589952468872
vt 0.9967690110206604 0.9577073007822037
vt 0.8703470230102539 0.5264660120010376
vt 0.9967690110206604 0.5447089970111847
vt 0.8703070282936096 0.9758797995746136
vt 0.9966670274734497 0.9576633982360363
vt 0.8704580068588257 0.5264660120010376
vt 0.9970530271530151 0.5447089970111847
vt 0.9970530271530151 0.9577073007822037
vt 0.7535629868507385 0.9983468699501827
vt 0.753587007522583 0.5039669871330261
vt 0.9966670274734497 0.5447739958763123
g Geoset0
s 1
usemtl mat_flowerarrangements01
f 1/1/1 2/2/2 3/3/3
f 4/4/4 5/5/5 6/6/6
f 4/4/4 7/7/7 5/5/5
f 4/4/4 8/8/8 7/7/7
f 4/4/4 9/9/9 8/8/8
f 4/4/4 6/6/6 9/9/9
f 10/10/10 11/11/11 12/12/12
f 10/10/10 13/13/13 11/11/11
f 10/10/10 14/14/14 13/13/13
f 10/10/10 15/15/15 14/14/14
f 10/10/10 12/12/12 15/15/15
f 16/16/16 17/17/17 18/18/18
f 17/17/17 19/19/19 18/18/18
f 19/19/19 20/20/20 18/18/18
f 20/20/20 21/21/21 18/18/18
f 21/21/21 16/16/16 18/18/18
f 22/22/22 23/23/23 24/24/24
f 23/23/23 25/25/25 24/24/24
f 25/25/25 26/26/26 24/24/24
f 26/26/26 27/27/27 24/24/24
f 27/27/27 22/22/22 24/24/24
f 28/28/28 29/29/29 30/30/30
f 29/29/29 31/31/31 30/30/30
f 31/31/31 32/32/32 30/30/30
f 32/32/32 33/33/33 30/30/30
f 33/33/33 28/28/28 30/30/30
f 34/34/34 35/35/35 36/36/36
f 34/34/34 37/37/37 35/35/35
f 34/34/34 38/38/38 37/37/37
f 34/34/34 39/39/39 38/38/38
f 34/34/34 36/36/36 39/39/39
f 40/40/40 41/41/41 42/42/42
f 40/40/40 43/43/43 41/41/41
f 40/40/40 44/44/44 43/43/43
f 40/40/40 45/45/45 44/44/44
f 40/40/40 42/42/42 45/45/45
f 46/46/46 47/47/47 48/48/48
f 47/47/47 49/49/49 48/48/48
f 49/49/49 50/50/50 48/48/48
f 50/50/50 51/51/51 48/48/48
f 51/51/51 46/46/46 48/48/48
f 52/52/52 53/53/53 54/54/54
f 53/53/53 55/55/55 54/54/54
f 55/55/55 56/56/56 54/54/54
f 56/56/56 57/57/57 54/54/54
f 57/57/57 52/52/52 54/54/54
f 58/58/58 59/59/59 60/60/60
f 58/58/58 61/61/61 59/59/59
f 58/58/58 62/62/62 61/61/61
f 58/58/58 63/63/63 62/62/62
f 58/58/58 60/60/60 63/63/63
f 64/64/64 65/65/65 66/66/66
f 64/64/64 66/66/66 67/67/67
f 64/64/64 67/67/67 68/68/68
f 68/68/68 67/67/67 69/69/69
f 68/68/68 69/69/69 70/70/70
f 70/70/70 69/69/69 71/71/71
f 70/70/70 71/71/71 72/72/72
f 72/72/72 71/71/71 73/73/73
f 72/72/72 73/73/73 74/74/74
f 75/75/75 68/68/68 76/76/76
f 76/76/76 68/68/68 70/70/70
f 77/77/77 65/65/65 64/64/64
f 74/74/74 65/65/65 77/77/77
f 74/74/74 73/73/73 65/65/65
f 75/75/75 64/64/64 68/68/68
f 78/78/78 64/64/64 75/75/75
f 78/78/78 77/77/77 64/64/64
f 79/79/79 77/77/77 78/78/78
f 79/79/79 74/74/74 77/77/77
f 80/80/80 74/74/74 79/79/79
f 80/80/80 72/72/72 74/74/74
f 81/81/81 72/72/72 80/80/80
f 81/81/81 70/70/70 72/72/72
f 76/76/76 70/70/70 81/81/81
f 82/82/82 83/83/83 1/1/1
f 84/84/84 83/83/83 82/82/82
f 1/1/1 85/85/85 2/2/2
f 1/1/1 83/83/83 85/85/85
f 83/83/83 86/86/86 85/85/85
f 87/87/87 86/86/86 83/83/83
f 87/87/87 88/88/88 86/86/86
f 89/89/89 88/88/88 87/87/87
f 89/89/89 90/90/90 88/88/88
f 91/91/91 90/90/90 89/89/89
f 91/91/91 92/92/92 90/90/90
f 91/91/91 93/93/93 92/92/92
f 84/84/84 87/87/87 83/83/83
f 94/94/94 87/87/87 84/84/84
f 94/94/94 89/89/89 87/87/87
f 95/95/95 89/89/89 94/94/94
f 95/95/95 91/91/91 89/89/89
f 95/95/95 2/2/2 91/91/91
f 2/2/2 93/93/93 91/91/91
f 85/85/85 93/93/93 2/2/2
f 85/85/85 96/96/96 93/93/93
f 85/85/85 86/86/86 96/96/96
f 3/3/3 2/2/2 95/95/95
