# Exported using wow.export v0.1.65
o painting15
mtllib painting15.mtl
v -0.054727960377931595 -1.5270277261734009 0.9548683166503906
v -0.05472791939973831 1.5293995141983032 0.9546341300010681
v 0.10094181448221207 1.7888895273208618 1.2652740478515625
v -0.12488207966089249 1.746592402458191 1.2056522369384766
v -0.12488232553005219 1.7465929985046387 -1.204421877861023
v -0.12488234043121338 -1.7463358640670776 -1.2044215202331543
v -0.12488234043121338 -1.7463358640670776 -1.2044215202331543
v -0.12488206475973129 -1.746335744857788 1.2056524753570557
v -0.12488207966089249 1.746592402458191 1.2056522369384766
v 0.10094162821769714 1.7888895273208618 -1.265304446220398
v 0.10094181448221207 1.7888895273208618 1.2652740478515625
v -0.05472791939973831 1.5293995141983032 0.9546341300010681
v -0.05472791939973831 1.5293995141983032 0.9546341300010681
v -0.054728079587221146 1.528507113456726 -0.9210687279701233
v 0.10094162821769714 1.7888895273208618 -1.265304446220398
v 0.10094156861305237 -1.7888967990875244 -1.2653043270111084
v 0.10094162821769714 1.7888895273208618 -1.265304446220398
v -0.054728079587221146 1.528507113456726 -0.9210687279701233
v -0.054728079587221146 1.528507113456726 -0.9210687279701233
v -0.05472809076309204 -1.5263971090316772 -0.9246851801872253
v 0.10094156861305237 -1.7888967990875244 -1.2653043270111084
v -0.054727960377931595 -1.5270277261734009 0.9548683166503906
v -0.05472809076309204 -1.5263971090316772 -0.9246851801872253
v -0.054728079587221146 1.528507113456726 -0.9210687279701233
v -0.05472791939973831 1.5293995141983032 0.9546341300010681
v -0.054727960377931595 -1.5270277261734009 0.9548683166503906
v 0.10094181448221207 -1.7888965606689453 1.2652742862701416
v 0.10094181448221207 1.7888895273208618 1.2652740478515625
v -0.12488207966089249 1.746592402458191 1.2056522369384766
v -0.12488206475973129 -1.746335744857788 1.2056524753570557
v 0.10094156861305237 -1.7888967990875244 -1.2653043270111084
v -0.12488234043121338 -1.7463358640670776 -1.2044215202331543
v -0.12488232553005219 1.7465929985046387 -1.204421877861023
v 0.10094162821769714 1.7888895273208618 -1.265304446220398
v 0.10094181448221207 -1.7888965606689453 1.2652742862701416
v -0.12488206475973129 -1.746335744857788 1.2056524753570557
v -0.12488234043121338 -1.7463358640670776 -1.2044215202331543
v 0.10094156861305237 -1.7888967990875244 -1.2653043270111084
v -0.12488207966089249 1.746592402458191 1.2056522369384766
v 0.10094181448221207 1.7888895273208618 1.2652740478515625
v 0.10094162821769714 1.7888895273208618 -1.265304446220398
v -0.12488232553005219 1.7465929985046387 -1.204421877861023
v 0.10094181448221207 -1.7888965606689453 1.2652742862701416
v 0.10094156861305237 -1.7888967990875244 -1.2653043270111084
v 0.10094156861305237 -1.7888967990875244 -1.2653043270111084
v -0.05472809076309204 -1.5263971090316772 -0.9246851801872253
v 0.10094181448221207 1.7888895273208618 1.2652740478515625
v 0.10094181448221207 -1.7888965606689453 1.2652742862701416
vn 0.921683669090271 0.38794228434562683 -8.597910294838584e-8
vn 0.9424391388893127 -0.000025608593205106445 -0.3343776762485504
vn 0.9424391388893127 -0.000025608593205106445 -0.3343776762485504
vn -1 -1.3432604362151324e-8 6.966963184140695e-8
vn -1 -1.3432604362151324e-8 6.966963184140695e-8
vn -1 -1.3432604362151324e-8 6.966963184140695e-8
vn -1 -1.975307029056239e-8 7.882989905283466e-8
vn -1 -1.975307029056239e-8 7.882989905283466e-8
vn -1 -1.975307029056239e-8 7.882989905283466e-8
vn 0.9204089045524597 -0.3909570872783661 -7.003683322182042e-8
vn 0.9204089045524597 -0.3909570872783661 -7.003683322182042e-8
vn 0.9204089045524597 -0.3909570872783661 -7.003683322182042e-8
vn 0.9209785461425781 -0.38961324095726013 0.00018529749650042504
vn 0.9209785461425781 -0.38961324095726013 0.00018529749650042504
vn 0.9209785461425781 -0.38961324095726013 0.00018529749650042504
vn 0.9523705244064331 1.529848070447315e-8 0.3049432635307312
vn 0.9523705244064331 1.529848070447315e-8 0.3049432635307312
vn 0.9523705244064331 1.529848070447315e-8 0.3049432635307312
vn 0.9513442516326904 -0.0003647466073743999 0.3081298768520355
vn 0.9513442516326904 -0.0003647466073743999 0.3081298768520355
vn 0.9513442516326904 -0.0003647466073743999 0.3081298768520355
vn 1 1.5194007829677503e-8 -4.619008464601393e-8
vn 1 1.5194007829677503e-8 -4.619008464601393e-8
vn 1 1.5194007829677503e-8 -4.619008464601393e-8
vn 1 8.017591035525129e-9 -5.7879056214460434e-8
vn 1 8.017591035525129e-9 -5.7879056214460434e-8
vn -0.3493824601173401 6.332743396342266e-8 0.9369801878929138
vn -0.34938251972198486 6.25060110337472e-8 0.9369801878929138
vn -0.3493824899196625 6.252659545680217e-8 0.9369801878929138
vn -0.3493824601173401 6.335633173648603e-8 0.9369801878929138
vn -0.3558444678783417 -1.2846028596413817e-7 -0.9345451593399048
vn -0.35584452748298645 -1.3179105451399664e-7 -0.9345451593399048
vn -0.3558426797389984 -3.624813160740814e-8 -0.9345458745956421
vn -0.3558426797389984 -3.387499347695666e-8 -0.9345458745956421
vn -0.25722333788871765 -0.9663519859313965 2.4804752030149757e-8
vn -0.25722330808639526 -0.9663519859313965 2.0276887724435255e-8
vn -0.25722408294677734 -0.9663518071174622 7.77019977249438e-8
vn -0.2572241425514221 -0.9663517475128174 8.103118886992888e-8
vn -0.255733847618103 0.9667472243309021 8.438759380169358e-8
vn -0.2557339370250702 0.9667472243309021 7.649807542975395e-8
vn -0.2557319700717926 0.9667477011680603 2.094902100679974e-7
vn -0.25573185086250305 0.9667477607727051 2.2023206724952615e-7
vn 0.921683669090271 0.38794228434562683 -8.597910294838584e-8
vn 0.921683669090271 0.38794228434562683 -8.597910294838584e-8
vn 0.9220770597457886 0.38700634241104126 0.00012983496708329767
vn 0.9220770597457886 0.38700634241104126 0.00012983496708329767
vn 0.9423529505729675 -8.08250888439943e-9 -0.33462053537368774
vn 0.9423529505729675 -8.08250888439943e-9 -0.33462053537368774
vt 0.712189793586731 0.8727669715881348
vt 0.7121924161911011 0.13259553909301758
vt 0.9968079328536987 0.005071818828582764
vt 0.0892229750752449 0.14302140474319458
vt 0.011725379154086113 0.14302140474319458
vt 0.011725427582859993 0.019587814807891846
vt 0.011725427582859993 0.019587814807891846
vt 0.08922301232814789 0.019587814807891846
vt 0.0892229750752449 0.14302140474319458
vt 0.9968079328536987 0.005071818828582764
vt 0.9968079328536987 0.9980628490447998
vt 0.712189793586731 0.8727669715881348
vt 0.712189793586731 0.8727669715881348
vt 0.7121924161911011 0.13259553909301758
vt 0.9968079328536987 0.005071818828582764
vt 0.9968079328536987 0.005071818828582764
vt 0.9968079328536987 0.9980628490447998
vt 0.712189793586731 0.8727669715881348
vt 0.712189793586731 0.8727669715881348
vt 0.7121924161911011 0.13259553909301758
vt 0.9968079328536987 0.005071818828582764
vt 0.002091355621814728 0.005397200584411621
vt 0.7058153748512268 0.005330443382263184
vt 0.7058153748512268 0.999242901802063
vt 0.002091355621814728 0.999242901802063
vt 0.002091355621814728 0.005397200584411621
vt 0.9968079328536987 0.9980628490447998
vt 0.9968079328536987 0.005071818828582764
vt 0.7121924161911011 0.13259553909301758
vt 0.712189793586731 0.8727669715881348
vt 0.9968079328536987 0.9980628490447998
vt 0.712189793586731 0.8727669715881348
vt 0.7121924161911011 0.13259553909301758
vt 0.9968079328536987 0.005071818828582764
vt 0.9968079328536987 0.005071818828582764
vt 0.7121924161911011 0.13259553909301758
vt 0.712189793586731 0.8727669715881348
vt 0.9968079328536987 0.9980628490447998
vt 0.7121924161911011 0.13259553909301758
vt 0.9968079328536987 0.005071818828582764
vt 0.9968079328536987 0.9980628490447998
vt 0.712189793586731 0.8727669715881348
vt 0.9968079328536987 0.9980628490447998
vt 0.9968079328536987 0.005071818828582764
vt 0.9968079328536987 0.005071818828582764
vt 0.7121924161911011 0.13259553909301758
vt 0.9968079328536987 0.005071818828582764
vt 0.9968079328536987 0.9980628490447998
g Geoset0
s 1
usemtl mat_femalecaster07
f 1/1/1 2/2/2 3/3/3
f 4/4/4 5/5/5 6/6/6
f 7/7/7 8/8/8 9/9/9
f 10/10/10 11/11/11 12/12/12
f 13/13/13 14/14/14 15/15/15
f 16/16/16 17/17/17 18/18/18
f 19/19/19 20/20/20 21/21/21
f 22/22/22 23/23/23 24/24/24
f 24/24/24 25/25/25 26/26/26
f 27/27/27 28/28/28 29/29/29
f 29/29/29 30/30/30 27/27/27
f 31/31/31 32/32/32 33/33/33
f 33/33/33 34/34/34 31/31/31
f 35/35/35 36/36/36 37/37/37
f 37/37/37 38/38/38 35/35/35
f 39/39/39 40/40/40 41/41/41
f 41/41/41 42/42/42 39/39/39
f 1/1/1 43/43/43 44/44/44
f 45/45/45 46/46/46 1/1/1
f 47/47/47 48/48/48 1/1/1
