# Exported using wow.export v0.1.65
o dungra04
mtllib dungra04.mtl
v -0.30378982424736023 0.7566463351249695 -0.004917534999549389
v -0.31244707107543945 -0.010867186821997166 -0.004917534999549389
v 0.4291919469833374 0.5180657505989075 -0.004917534999549389
v -0.004097426775842905 -0.010867145843803883 -0.2868686020374298
v -0.004097491968423128 0.7373982667922974 -0.2868686020374298
v -0.004097426775842905 -0.010867145843803883 0.24961264431476593
v -0.004097491968423128 0.6720232367515564 0.24961264431476593
v 0.4378491938114166 -0.010867145843803883 -0.004917534999549389
vn 0 0 1
vn 0 0 1
vn 0 0 1
vn 1 8.721398359057275e-8 0
vn 1 9.138859979884728e-8 1.224204826399955e-8
vn 1 9.138859979884728e-8 1.224204826399955e-8
vn 1 9.556322311254917e-8 2.44840965279991e-8
vn 0 0 1
vt 0.7437659502029419 0.6219055652618408
vt 0.7485968470573425 0.498771071434021
vt 0.49885687232017517 0.6219055652618408
vt 0.49885687232017517 0.498771071434021
vt 0.49885687232017517 0.6219055652618408
vt 0.7485968470573425 0.498771071434021
vt 0.7437659502029419 0.6219055652618408
vt 0.49885687232017517 0.498771071434021
g Geoset0
s 1
usemtl mat_ironforgedetaildoodads01
f 1/1/1 2/2/2 3/3/3
f 4/4/4 5/5/5 6/6/6
f 7/7/7 6/6/6 5/5/5
f 8/8/8 3/3/3 2/2/2
