# Exported using wow.export v0.1.65
o dwarvenbarrel01
mtllib dwarvenbarrel01.mtl
v -0.5922136902809143 1.4371683597564697 -0.050912611186504364
v -0.4180543124675751 1.4371683597564697 0.3695451319217682
v 0.0024033982772380114 1.3546043634414673 -0.050912704318761826
v -0.18752779066562653 1.4419485330581665 -0.13778407871723175
v -0.15154443681240082 1.4419485330581665 -0.05091263726353645
v -0.15889471769332886 1.3516958951950073 -0.05091263726353645
v -0.19272522628307343 1.3516958951950073 -0.13258665800094604
v -0.2743992209434509 1.4419485330581665 -0.17376740276813507
v -0.2743992209434509 1.3516958951950073 -0.16641712188720703
v -0.18752776086330414 1.4419485330581665 0.03595881164073944
v -0.2743992209434509 1.4419485330581665 0.07194215804338455
v -0.2743992209434509 1.3516958951950073 0.06459187716245651
v -0.19272519648075104 1.3516958951950073 0.030761374160647392
v -0.15154443681240082 1.4419485330581665 -0.05091263726353645
v -0.15889471769332886 1.3516958951950073 -0.05091263726353645
v -0.36127063632011414 1.4419485330581665 0.035958826541900635
v -0.39725401997566223 1.4419485330581665 -0.050912611186504364
v -0.3899036943912506 1.3516958951950073 -0.05091261863708496
v -0.356073260307312 1.3516958951950073 0.030761387199163437
v -0.2743992209434509 1.4419485330581665 0.07194215804338455
v -0.2743992209434509 1.3516958951950073 0.06459187716245651
v -0.36127063632011414 1.4419485330581665 -0.13778406381607056
v -0.2743992209434509 1.4419485330581665 -0.17376740276813507
v -0.2743992209434509 1.3516958951950073 -0.16641712188720703
v -0.356073260307312 1.3516958951950073 -0.13258664309978485
v -0.39725401997566223 1.4419485330581665 -0.050912611186504364
v -0.3899036943912506 1.3516958951950073 -0.05091261863708496
v -0.36127063632011414 1.4419485330581665 0.035958826541900635
v -0.2743992209434509 1.4419485330581665 0.07194215804338455
v -0.2743992209434509 1.431610107421875 -0.05091263726353645
v -0.39725401997566223 1.4419485330581665 -0.050912611186504364
v -0.2743992209434509 1.431610107421875 -0.05091263726353645
v -0.15154443681240082 1.4419485330581665 -0.05091263726353645
v -0.18752779066562653 1.4419485330581665 -0.13778407871723175
v -0.18752776086330414 1.4419485330581665 0.03595881164073944
v -0.2743992209434509 1.4419485330581665 0.07194215804338455
v -0.36127063632011414 1.4419485330581665 -0.13778406381607056
v -0.39725401997566223 1.4419485330581665 -0.050912611186504364
v -0.2743992209434509 1.4419485330581665 -0.17376740276813507
v -0.42802801728248596 -0.0026371434796601534 0.3795126974582672
v 0.002188353566452861 -0.002560391090810299 0.5577123761177063
v 0.002403420628979802 0.7164102792739868 0.5081290602684021
v -0.3928987979888916 0.7164102792739868 0.34438958764076233
v 0.0024034238886088133 1.4371683597564697 0.5437044501304626
v -0.6061490178108215 -0.0022647215519100428 -0.05057145282626152
v -0.4180543124675751 1.4371683597564697 0.3695451319217682
v -0.5922136902809143 1.4371683597564697 -0.050912611186504364
v -0.5566383600234985 0.7164102792739868 -0.05091261863708496
v -0.42802801728248596 -0.0026371434796601534 0.3795126974582672
v -0.6061490178108215 -0.0022647215519100428 -0.05057145282626152
v 0.0044012838043272495 -0.0030150646343827248 -0.050022806972265244
v 0.002188353566452861 -0.002560391090810299 0.5577123761177063
v 0.002131634159013629 -0.0030150646343827248 -0.6592454314231873
v 0.434294730424881 -0.0030150646343827248 -0.4778763949871063
v -0.4250352084636688 -0.0030150646343827248 -0.482607364654541
v 0.6096171140670776 -0.0030150646343827248 -0.04996815696358681
v 0.43285152316093445 -0.0030150646343827248 0.37953540682792664
v 0.002188353566452861 -0.002560391090810299 0.5577123761177063
v 0.4228610396385193 1.4371683597564697 -0.47137048840522766
v 0.5970204472541809 1.4371683597564697 -0.05091271921992302
v 0.5614450573921204 0.7164102792739868 -0.05091271549463272
v 0.3977054953575134 0.7164102792739868 -0.446214884519577
v 0.0024033719673752785 1.4371683597564697 -0.6455296874046326
v 0.0024033719673752785 0.7164102792739868 -0.6099543571472168
v 0.6096171140670776 -0.0030150646343827248 -0.04996815696358681
v 0.434294730424881 -0.0030150646343827248 -0.4778763949871063
v 0.002131634159013629 -0.0030150646343827248 -0.6592454314231873
v 0.4228611886501312 1.4371683597564697 0.369545042514801
v 0.0024034238886088133 1.4371683597564697 0.5437044501304626
v 0.002403420628979802 0.7164102792739868 0.5081290602684021
v 0.3977055847644806 0.7164102792739868 0.3443894684314728
v 0.5970204472541809 1.4371683597564697 -0.05091271921992302
v 0.5614450573921204 0.7164102792739868 -0.05091271549463272
v 0.002188353566452861 -0.002560391090810299 0.5577123761177063
v 0.43285152316093445 -0.0030150646343827248 0.37953540682792664
v 0.6096171140670776 -0.0030150646343827248 -0.04996815696358681
v -0.4180544316768646 1.4371683597564697 -0.4713703691959381
v 0.0024033719673752785 1.4371683597564697 -0.6455296874046326
v 0.0024033719673752785 0.7164102792739868 -0.6099543571472168
v -0.3928987979888916 0.7164102792739868 -0.44621482491493225
v 0.002131634159013629 -0.0030150646343827248 -0.6592454314231873
v -0.4250352084636688 -0.0030150646343827248 -0.482607364654541
v -0.5922136902809143 1.4371683597564697 -0.050912611186504364
v -0.5566383600234985 0.7164102792739868 -0.05091261863708496
v -0.6061490178108215 -0.0022647215519100428 -0.05057145282626152
v 0.0024034238886088133 1.4371683597564697 0.5437044501304626
v 0.0024033982772380114 1.3546043634414673 -0.050912704318761826
v -0.4180544316768646 1.4371683597564697 -0.4713703691959381
v -0.5922136902809143 1.4371683597564697 -0.050912611186504364
v 0.0024033719673752785 1.4371683597564697 -0.6455296874046326
v 0.0024034238886088133 1.4371683597564697 0.5437044501304626
v 0.4228611886501312 1.4371683597564697 0.369545042514801
v 0.5970204472541809 1.4371683597564697 -0.05091271921992302
v 0.4228610396385193 1.4371683597564697 -0.47137048840522766
vn 0.13753297924995422 0.9904971718788147 -1.0429491048569162e-8
vn 0.09725051373243332 0.9904971718788147 -0.09725052118301392
vn -3.6901861566462912e-9 1 1.3678186583376828e-8
vn 0.7047733068466187 -0.08117228746414185 -0.704773485660553
vn 0.9967001080513 -0.08117228746414185 -6.331622870447973e-8
vn 0.9967001080513 -0.08117228001356125 -5.7229673444680884e-8
vn 0.7047733068466187 -0.08117228746414185 -0.704773485660553
vn -1.127253241861581e-7 -0.08117227256298065 -0.9967001080513
vn -7.142546820659845e-8 -0.08117225766181946 -0.9967001080513
vn 0.704773485660553 -0.08117233216762543 0.7047733068466187
vn 5.365742694607434e-8 -0.08117234706878662 0.9967001080513
vn 5.9011036057654565e-8 -0.08117236942052841 0.9967001080513
vn 0.704773485660553 -0.08117231726646423 0.7047733068466187
vn 0.9967001080513 -0.08117228746414185 -6.331622870447973e-8
vn 0.9967001080513 -0.08117228001356125 -5.7229673444680884e-8
vn -0.7047733664512634 -0.08117230236530304 0.7047733664512634
vn -0.9967001080513 -0.08117236196994781 7.660228362738053e-8
vn -0.9967001080513 -0.08117236196994781 9.86830599458699e-8
vn -0.7047735452651978 -0.08117225021123886 0.7047732472419739
vn 5.365742694607434e-8 -0.08117234706878662 0.9967001080513
vn 5.9011036057654565e-8 -0.08117236942052841 0.9967001080513
vn -0.7047733664512634 -0.0811721608042717 -0.7047734260559082
vn -1.127253241861581e-7 -0.08117227256298065 -0.9967001080513
vn -7.142546820659845e-8 -0.08117225766181946 -0.9967001080513
vn -0.7047733664512634 -0.08117221295833588 -0.7047733664512634
vn -0.9967001080513 -0.08117236196994781 7.660228362738053e-8
vn -0.9967001080513 -0.08117236196994781 9.86830599458699e-8
vn 0.05929505452513695 0.9964779019355774 -0.059295061975717545
vn -3.8747891006885027e-10 0.9964779019355774 -0.08385587483644485
vn 4.00531474653576e-9 1 1.1700848290274735e-8
vn 0.08385588228702545 0.9964779019355774 -3.045203644802541e-9
vn 4.00531474653576e-9 1 1.1700848290274735e-8
vn -0.08385588228702545 0.9964779019355774 7.418811343029574e-9
vn -0.05929505452513695 0.9964779019355774 0.05929506942629814
vn -0.059295061975717545 0.9964779019355774 -0.05929505452513695
vn -3.8747891006885027e-10 0.9964779019355774 -0.08385587483644485
vn 0.05929506942629814 0.9964779019355774 0.05929506942629814
vn 0.08385588228702545 0.9964779019355774 -3.045203644802541e-9
vn 8.418334473958566e-9 0.9964779019355774 0.08385589718818665
vn -0.7053675055503845 0.06892292946577072 0.7054830193519592
vn -0.00008030767639866099 0.06887521594762802 0.9976252913475037
vn 0.00003675764673971571 0.009911103174090385 0.9999508857727051
vn -0.70707106590271 0.009973417967557907 0.7070721387863159
vn 1.081936815694462e-7 -0.04929826408624649 0.9987841248512268
vn -0.997633159160614 0.06872757524251938 -0.00213369308039546
vn -0.7062470316886902 -0.04929821193218231 0.7062470316886902
vn -0.9987841248512268 -0.04929820075631142 7.402145740798005e-8
vn -0.9999558925628662 0.009378518909215927 -0.0004703796003013849
vn -0.0006815156666561961 -0.9999997615814209 0.0001937291381182149
vn -0.0012293480103835464 -0.9999991655349731 0.00043116966844536364
vn -0.0004174986679572612 -0.9999998807907104 0.00029555908986367285
vn -0.0004384197818581015 -0.9999996423721313 0.0007465474773198366
vn 0 -1 0
vn 0 -1 0
vn -0.0006143912905827165 -0.9999996423721313 0.0006099203019402921
vn 0 -1 0
vn -0.00037437945138663054 -0.9999998807907104 0.0003734137862920761
vn -0.0004384197818581015 -0.9999996423721313 0.0007465474773198366
vn 0.7062469124794006 -0.049298208206892014 -0.706247091293335
vn 0.9987841248512268 -0.04929820075631142 -1.2643616287277837e-7
vn 0.9999580383300781 0.009153232909739017 -0.00037620816146954894
vn 0.706906795501709 0.008525382727384567 -0.7072553038597107
vn -9.296481806586598e-8 -0.049298204481601715 -0.9987841248512268
vn 0.00048620926099829376 0.009153919294476509 -0.9999579787254333
vn 0.9977113008499146 0.06761646270751953 0.0004441769851837307
vn 0.7086809873580933 0.06792890280485153 -0.7022513151168823
vn 0.002389003988355398 0.06847947835922241 -0.9976496696472168
vn 0.7062471508979797 -0.0492982342839241 0.7062468528747559
vn 1.081936815694462e-7 -0.04929826408624649 0.9987841248512268
vn 0.00003675764673971571 0.009911103174090385 0.9999508857727051
vn 0.7070484757423401 0.00993457343429327 0.7070953249931335
vn 0.9987841248512268 -0.04929820075631142 -1.2643616287277837e-7
vn 0.9999580383300781 0.009153232909739017 -0.00037620816146954894
vn -0.00008030767639866099 0.06887521594762802 0.9976252913475037
vn 0.705939769744873 0.06844669580459595 0.7049568295478821
vn 0.9977113008499146 0.06761646270751953 0.0004441769851837307
vn -0.7062470316886902 -0.04929819330573082 -0.7062469720840454
vn -9.296481806586598e-8 -0.049298204481601715 -0.9987841248512268
vn 0.00048620926099829376 0.009153919294476509 -0.9999579787254333
vn -0.7074073553085327 0.00902816653251648 -0.7067484259605408
vn 0.002389003988355398 0.06847947835922241 -0.9976496696472168
vn -0.7034013271331787 0.06812780350446701 -0.7075204253196716
vn -0.9987841248512268 -0.04929820075631142 7.402145740798005e-8
vn -0.9999558925628662 0.009378518909215927 -0.0004703796003013849
vn -0.997633159160614 0.06872757524251938 -0.00213369308039546
vn -1.1185894877030478e-8 0.9904971718788147 -0.13753297924995422
vn -3.6901861566462912e-9 1 1.3678186583376828e-8
vn 0.09725052118301392 0.9904971718788147 0.09725051373243332
vn 0.13753297924995422 0.9904971718788147 -1.0429491048569162e-8
vn 7.917009270386188e-9 0.9904971718788147 0.1375330090522766
vn -1.1185894877030478e-8 0.9904971718788147 -0.13753297924995422
vn -0.09725052863359451 0.9904971718788147 -0.09725049883127213
vn -0.13753299415111542 0.9904971718788147 1.4811370796508072e-8
vn -0.09725051373243332 0.9904971718788147 0.09725053608417511
vt 0.9848101735115051 0.9742740392684937
vt 0.7113845348358154 0.9742125868797302
vt 0.4852922558784485 0.7265288829803467
vt 0.5441735982894897 0.6589577198028564
vt 0.39736393094062805 0.6589577198028564
vt 0.39736393094062805 0.7627853155136108
vt 0.5353901386260986 0.7627853155136108
vt 0.6049841642379761 0.6589577198028564
vt 0.5925624370574951 0.7627853155136108
vt 0.4631076753139496 0.6589577198028564
vt 0.40229710936546326 0.6589577198028564
vt 0.4147188365459442 0.7627853155136108
vt 0.4718911349773407 0.7627853155136108
vt 0.6099173426628113 0.6589577198028564
vt 0.6099173426628113 0.7627853155136108
vt 0.5083271861076355 0.6589577198028564
vt 0.39736396074295044 0.6589577198028564
vt 0.39736396074295044 0.7627853155136108
vt 0.5098993182182312 0.7627853155136108
vt 0.6096095442771912 0.6589577198028564
vt 0.6100360155105591 0.7627851963043213
vt 0.5101063251495361 0.6589577198028564
vt 0.3971578776836395 0.6589577198028564
vt 0.39827316999435425 0.7627851963043213
vt 0.5093307495117188 0.7627853155136108
vt 0.6099173426628113 0.6589577198028564
vt 0.6099173426628113 0.7627853155136108
vt 0.10209676623344421 0.9620873332023621
vt 0.20604057610034943 0.9621904492378235
vt 0.484067440032959 0.8505458831787109
vt -0.00018429197371006012 0.9622258543968201
vt 0.4852922558784485 0.850516676902771
vt 0.4686448574066162 0.9621750712394714
vt 0.5998948216438293 0.9621750712394714
vt 0.3373948633670807 0.9621750712394714
vt 0.2061448097229004 0.9621750712394714
vt 0.8623946905136108 0.9621750712394714
vt 0.9993775486946106 0.9621750712394714
vt 0.7311446666717529 0.9621750712394714
vt 0.5167879462242126 0.0012859702110290527
vt 0.9995017051696777 0.0014457106590270996
vt 1.0000581741333008 0.49953770637512207
vt 0.5167878866195679 0.49953770637512207
vt 0.998053789138794 0.9995005130767822
vt 0.0004996061325073242 0.0020609498023986816
vt 0.5167878270149231 0.9995005130767822
vt 0.0004996061325073242 0.9995005130767822
vt 0.0004996061325073242 0.49953770637512207
vt 0.12251980602741241 0.03063565492630005
vt 0.28798961639404297 0.03048264980316162
vt 0.5005785822868347 0.28571921586990356
vt 0.006263395305722952 0.030740797519683838
vt 0.505643904209137 0.030722379684448242
vt 0.60506671667099 0.030723214149475098
vt 0.40651893615722656 0.03063821792602539
vt 0.7372710108757019 0.030704140663146973
vt 0.8770883083343506 0.030772507190704346
vt 0.9957268834114075 0.03093886375427246
vt 0.5168587565422058 0.9995005130767822
vt 0.0020482540130615234 0.9995005130767822
vt 0.002048283815383911 0.49953770637512207
vt 0.5168410539627075 0.49953770637512207
vt 0.9987505674362183 0.9995005130767822
vt 1.0008059740066528 0.49953770637512207
vt 0.0004995167255401611 0.0004994869232177734
vt 0.5168633460998535 0.0004994869232177734
vt 0.9995003938674927 0.0004994869232177734
vt 0.5167868137359619 0.9995005130767822
vt 0.00194629468023777 0.9995005130767822
vt 0.004772864282131195 0.49953770637512207
vt 0.516787052154541 0.49953770637512207
vt 0.9995003938674927 0.9995005130767822
vt 0.9995004534721375 0.49953770637512207
vt 0.0004995167255401611 0.0004994869232177734
vt 0.5167867541313171 0.0004994869232177734
vt 0.9995003938674927 0.0004994869232177734
vt 0.5167416930198669 0.9995005130767822
vt -0.002433478832244873 0.9995005130767822
vt 0.0003998875617980957 0.49953770637512207
vt 0.5167584419250488 0.49953770637512207
vt -0.0007901787757873535 0.0004994869232177734
vt 0.5167341828346252 0.0004994869232177734
vt 0.9976508617401123 0.9995005130767822
vt 0.9976508617401123 0.49953770637512207
vt 0.9982107877731323 0.0010199546813964844
vt 0.4670492112636566 0.974258303642273
vt 0.484067440032959 0.7265473008155823
vt 0.7091208696365356 0.9742515087127686
vt 0.9876745343208313 0.9742515087127686
vt 0.46804079413414 0.9742515087127686
vt 0.4670058786869049 0.9742515087127686
vt 0.23390677571296692 0.9742515087127686
vt 0.005471687763929367 0.9742515087127686
vt 0.23404045403003693 0.9742515087127686
g Geoset0
s 1
usemtl mat_dwarvenbarrel01
f 1/1/1 2/2/2 3/3/3
f 4/4/4 5/5/5 6/6/6
f 6/6/6 7/7/7 4/4/4
f 8/8/8 4/4/4 7/7/7
f 7/7/7 9/9/9 8/8/8
f 10/10/10 11/11/11 12/12/12
f 12/12/12 13/13/13 10/10/10
f 14/14/14 10/10/10 13/13/13
f 13/13/13 15/15/15 14/14/14
f 16/16/16 17/17/17 18/18/18
f 18/18/18 19/19/19 16/16/16
f 20/20/20 16/16/16 19/19/19
f 19/19/19 21/21/21 20/20/20
f 22/22/22 23/23/23 24/24/24
f 24/24/24 25/25/25 22/22/22
f 26/26/26 22/22/22 25/25/25
f 25/25/25 27/27/27 26/26/26
f 28/28/28 29/29/29 30/30/30
f 31/31/31 28/28/28 32/32/32
f 32/32/32 33/33/33 34/34/34
f 35/35/35 33/33/33 32/32/32
f 36/36/36 35/35/35 32/32/32
f 32/32/32 37/37/37 38/38/38
f 32/32/32 39/39/39 37/37/37
f 34/34/34 39/39/39 32/32/32
f 40/40/40 41/41/41 42/42/42
f 43/43/43 42/42/42 44/44/44
f 42/42/42 43/43/43 40/40/40
f 45/45/45 40/40/40 43/43/43
f 46/46/46 47/47/47 48/48/48
f 44/44/44 46/46/46 43/43/43
f 48/48/48 43/43/43 46/46/46
f 43/43/43 48/48/48 45/45/45
f 49/49/49 50/50/50 51/51/51
f 52/52/52 49/49/49 51/51/51
f 53/53/53 54/54/54 51/51/51
f 51/51/51 55/55/55 53/53/53
f 51/51/51 50/50/50 55/55/55
f 51/51/51 54/54/54 56/56/56
f 56/56/56 57/57/57 51/51/51
f 57/57/57 58/58/58 51/51/51
f 59/59/59 60/60/60 61/61/61
f 61/61/61 62/62/62 59/59/59
f 63/63/63 59/59/59 62/62/62
f 62/62/62 64/64/64 63/63/63
f 62/62/62 61/61/61 65/65/65
f 65/65/65 66/66/66 62/62/62
f 64/64/64 62/62/62 66/66/66
f 66/66/66 67/67/67 64/64/64
f 68/68/68 69/69/69 70/70/70
f 70/70/70 71/71/71 68/68/68
f 72/72/72 68/68/68 71/71/71
f 71/71/71 73/73/73 72/72/72
f 71/71/71 70/70/70 74/74/74
f 74/74/74 75/75/75 71/71/71
f 73/73/73 71/71/71 75/75/75
f 75/75/75 76/76/76 73/73/73
f 77/77/77 78/78/78 79/79/79
f 79/79/79 80/80/80 77/77/77
f 80/80/80 79/79/79 81/81/81
f 81/81/81 82/82/82 80/80/80
f 83/83/83 77/77/77 80/80/80
f 80/80/80 84/84/84 83/83/83
f 84/84/84 80/80/80 82/82/82
f 82/82/82 85/85/85 84/84/84
f 2/2/2 86/86/86 87/87/87
f 3/3/3 88/88/88 89/89/89
f 3/3/3 90/90/90 88/88/88
f 91/91/91 92/92/92 3/3/3
f 92/92/92 93/93/93 3/3/3
f 3/3/3 93/93/93 94/94/94
f 94/94/94 90/90/90 3/3/3
