# Exported using wow.export v0.1.65
o winterspringfallentree02
mtllib winterspringfallentree02.mtl
v 0.8665211796760559 0.39988648891448975 -4.638793468475342
v 1.0980219841003418 0.9091881513595581 -5.132424354553223
v 1.2628878355026245 0.7507324814796448 6.918324402249709e-7
v 0.3572196066379547 1.6499906778335571 -4.749678134918213
v -0.19895142316818237 1.3330646753311157 2.679771853308921e-7
v 0.4129653871059418 1.62626051902771 2.679771853308921e-7
v -0.15208207070827484 1.4184900522232056 -4.638793468475342
v -0.4921470880508423 0.6955428719520569 6.918324402249709e-7
v -0.38358274102211 0.9091882705688477 -4.419517993927002
v -0.23689450323581696 0.10087281465530396 6.918324402249709e-7
v -0.15208224952220917 0.3998865783214569 -4.638793468475342
v 0.35777539014816284 -0.1543796807527542 6.918324402249709e-7
v 0.35721948742866516 0.1683858335018158 -4.638793468475342
v 0.9696923494338989 0.13881556689739227 6.918324402249709e-7
v 0.3536616265773773 2.8079605102539062 7.215663433074951
v -0.7234302759170532 2.4040513038635254 7.215663433074951
v -1.1273404359817505 1.3269598484039307 7.258266925811768
v -0.7234306931495667 0.24986787140369415 6.454519271850586
v 0.35366091132164 -0.15404172241687775 6.454519271850586
v 1.4307527542114258 0.24986763298511505 6.71288537979126
v 1.007635235786438 1.3710075616836548 2.679771853308921e-7
v 1.8346623182296753 1.3269591331481934 7.258266925811768
v 1.4307529926300049 2.404050827026367 7.624873638153076
v 0.8665213584899902 1.4184900522232056 -4.870970249176025
v 0.8665211796760559 0.39988648891448975 -4.638793468475342
v 0.35721948742866516 0.1683858335018158 -4.638793468475342
v 0.3580453395843506 0.31431475281715393 -4.713283538818359
v 0.35366091132164 -0.15404172241687775 6.454519271850586
v 1.4307527542114258 0.24986763298511505 6.71288537979126
v 1.2655647993087769 0.4325949251651764 6.8277587890625
v 0.3690854609012604 0.09641536325216293 6.569393157958984
v 1.171526312828064 0.5266335010528564 5.924811363220215
v 0.3851408064365387 0.2317391186952591 5.924811363220215
v 0.3948987126350403 1.2860620021820068 6.119832992553711
v -0.40124428272247314 0.5266336798667908 5.924811363220215
v -0.6961387395858765 1.3130192756652832 6.227982521057129
v 1.6017447710037231 1.3290740251541138 7.373140811920166
v 1.8346623182296753 1.3269591331481934 7.258266925811768
v 1.2655649185180664 2.225553512573242 7.73974609375
v 1.4307529926300049 2.404050827026367 7.624873638153076
v 1.4664207696914673 1.3130186796188354 6.227982521057129
v 1.1715264320373535 2.0994036197662354 6.5260138511657715
v 0.3851414620876312 2.394298791885376 6.5260138511657715
v -0.4012437164783478 2.0994043350219727 6.5260138511657715
v 0.36908602714538574 2.5617334842681885 7.330536842346191
v -0.5273931622505188 2.2255537509918213 7.330536842346191
v -0.8635732531547546 1.329074501991272 7.373140811920166
v -0.527393639087677 0.4325951337814331 6.569393157958984
v 0.3536616265773773 2.8079605102539062 7.215663433074951
v -0.7234302759170532 2.4040513038635254 7.215663433074951
v -1.1273404359817505 1.3269598484039307 7.258266925811768
v -0.7234306931495667 0.24986787140369415 6.454519271850586
v 1.0980219841003418 0.9091881513595581 -5.132424354553223
v 0.7678607106208801 0.500594437122345 -4.713283538818359
v 0.9541404843330383 0.9104097485542297 -5.20691442489624
v 0.8665213584899902 1.4184900522232056 -4.870970249176025
v 0.7678608894348145 1.3202252388000488 -4.945460319519043
v 0.3572196066379547 1.6499906778335571 -4.749678134918213
v -0.05176986753940582 1.3202253580093384 -4.713283538818359
v 0.3580455780029297 1.506505012512207 -4.8241682052612305
v 0.3718021810054779 1.4121732711791992 -4.60245418548584
v 0.7167647480964661 1.255372405052185 -4.723746299743652
v 0.8735655546188354 0.9104097485542297 -4.985199928283691
v 0.7167645692825317 0.5654472708702087 -4.4915690422058105
v 0.37180206179618835 0.4086463153362274 -4.4915690422058105
v 0.02683955617249012 0.5654474496841431 -4.4915690422058105
v 0.36301255226135254 0.8995201587677002 -4.542058944702148
v 0.026839738711714745 1.2553722858428955 -4.4915690422058105
v -0.12996134161949158 0.9104099273681641 -4.2722930908203125
v -0.051770102232694626 0.500594437122345 -4.713283538818359
v -0.23804953694343567 0.9104098081588745 -4.4940080642700195
v -0.15208207070827484 1.4184900522232056 -4.638793468475342
v -0.38358274102211 0.9091882705688477 -4.419517993927002
v -0.15208224952220917 0.3998865783214569 -4.638793468475342
vn 0.47077304124832153 -0.7149006724357605 -0.5170007348060608
vn 0.8345052599906921 -0.08455541729927063 -0.5444735884666443
vn 0.9974076747894287 -0.04022316262125969 -0.059666071087121964
vn -0.09514103829860687 0.8591299057006836 -0.5028358101844788
vn -0.7147058248519897 0.6956141591072083 -0.07291445136070251
vn -0.01791103556752205 0.9965746998786926 -0.08073478937149048
vn -0.6971825361251831 0.5200963020324707 -0.4933926463127136
vn -0.9982654452323914 -0.0069803777150809765 -0.058458197861909866
vn -0.8537305593490601 0.0005929052131250501 -0.5207146406173706
vn -0.6993548274040222 -0.7134298086166382 -0.04382665827870369
vn -0.6620702743530273 -0.5153895020484924 -0.5440925359725952
vn 0.02152474969625473 -0.9990823864936829 -0.03702833130955696
vn 0.0002712311106733978 -0.8345884084701538 -0.5508739948272705
vn 0.6981092095375061 -0.7147316336631775 -0.042452018707990646
vn -0.06771045923233032 0.882908284664154 0.4646379053592682
vn -0.6078860759735107 0.6308618187904358 0.4821699559688568
vn -0.855923593044281 -0.13733263313770294 0.4985322654247284
vn -0.5160467624664307 -0.6876044869422913 0.5107797980308533
vn -0.055535659193992615 -0.8445250391960144 0.53262859582901
vn 0.5032070279121399 -0.7072725296020508 0.49653613567352295
vn 0.717241644859314 0.6929681301116943 -0.07320928573608398
vn 0.8766015768051147 -0.14852185547351837 0.45772361755371094
vn 0.5966641306877136 0.6383275985717773 0.48634323477745056
vn 0.49529117345809937 0.7186598777770996 -0.48807236552238464
vn 0.47077304124832153 -0.7149006724357605 -0.5170007348060608
vn 0.0002712311106733978 -0.8345884084701538 -0.5508739948272705
vn 0.007780532352626324 0.14659525454044342 -0.9891659617424011
vn -0.055535659193992615 -0.8445250391960144 0.53262859582901
vn 0.5032070279121399 -0.7072725296020508 0.49653613567352295
vn -0.5326398015022278 -0.072336845099926 0.8432450294494629
vn -0.1390148550271988 0.320144921541214 0.9371137022972107
vn -0.5341089963912964 0.3811529874801636 0.7546190619468689
vn -0.0046113659627735615 0.6486152410507202 0.7611024975776672
vn -0.0007781252497807145 -0.3103088438510895 0.9506354928016663
vn 0.5207328796386719 0.3635271191596985 0.7724540829658508
vn 0.7471367120742798 -0.17443418502807617 0.6413730978965759
vn -0.3168582320213318 -0.4276899993419647 0.8465707898139954
vn 0.8766015768051147 -0.14852185547351837 0.45772361755371094
vn -0.19794076681137085 -0.16619855165481567 0.9660214781761169
vn 0.5966641306877136 0.6383275985717773 0.48634323477745056
vn -0.7571792602539062 -0.18336263298988342 0.6269431114196777
vn -0.5510759949684143 -0.6470413208007812 0.5269277095794678
vn -0.014051837846636772 -0.8022979497909546 0.5967583656311035
vn 0.5218027830123901 -0.6361681818962097 0.5683413743972778
vn -0.20592190325260162 -0.31459668278694153 0.9266202449798584
vn 0.20662659406661987 -0.1756029576063156 0.962532639503479
vn 0.2911235988140106 -0.30739137530326843 0.9059567451477051
vn 0.4829706847667694 -0.07819805294275284 0.8721378445625305
vn -0.06771045923233032 0.882908284664154 0.4646379053592682
vn -0.6078860759735107 0.6308618187904358 0.4821699559688568
vn -0.855923593044281 -0.13733263313770294 0.4985322654247284
vn -0.5160467624664307 -0.6876044869422913 0.5107797980308533
vn 0.8345052599906921 -0.08455541729927063 -0.5444735884666443
vn -0.4927529990673065 -0.1545802503824234 -0.8563290238380432
vn -0.18801434338092804 -0.1577063947916031 -0.9694221615791321
vn 0.49529117345809937 0.7186598777770996 -0.48807236552238464
vn -0.4513063430786133 0.15177692472934723 -0.8793669939041138
vn -0.09514103829860687 0.8591299057006836 -0.5028358101844788
vn -0.11480620503425598 -0.35094231367111206 -0.9293325543403625
vn -0.2614530622959137 -0.1527392566204071 -0.9530545473098755
vn -0.18955634534358978 -0.6684227585792542 -0.7192213535308838
vn -0.6963423490524292 -0.32077765464782715 -0.6420350670814514
vn -0.8863124847412109 -0.14145062863826752 -0.4409557282924652
vn -0.5938499569892883 0.1636858433485031 -0.7877494096755981
vn -0.011545920744538307 0.6090256571769714 -0.7930665016174316
vn 0.29565900564193726 0.5893694758415222 -0.7518174052238464
vn -0.3714291453361511 -0.12998288869857788 -0.9193176031112671
vn 0.22104153037071228 -0.6265658140182495 -0.7473660111427307
vn 0.35923129320144653 -0.00783162098377943 -0.9332156777381897
vn -0.043878741562366486 0.2742682695388794 -0.9606516361236572
vn 0.14424264430999756 -0.04927515238523483 -0.9883147478103638
vn -0.6971825361251831 0.5200963020324707 -0.4933926463127136
vn -0.8537305593490601 0.0005929052131250501 -0.5207146406173706
vn -0.6620702743530273 -0.5153895020484924 -0.5440925359725952
vt 0.726196825504303 0.6909263730049133
vt 0.49061834812164307 0.6905364394187927
vt 0.4907299280166626 1.6787031888961792
vt 0.013482006266713142 0.6909263730049133
vt 0.24721002578735352 1.6787031888961792
vt 0.013324577361345291 1.6787031888961792
vt 0.2472240924835205 0.6909263730049133
vt 0.4910735487937927 1.6787031888961792
vt 0.49109989404678345 0.6909263730049133
vt 0.7255805730819702 1.6787031888961792
vt 0.7256339192390442 0.6909263730049133
vt 0.9886223673820496 1.6787031888961792
vt 0.9886420369148254 0.6909263730049133
vt 0.7260809540748596 1.6787031888961792
vt 0.013482125476002693 0.6907050609588623
vt 0.24721670150756836 0.6903151273727417
vt 0.49109888076782227 0.6907050609588623
vt 0.7256323099136353 0.6907050609588623
vt 0.9886565804481506 0.6903151273727417
vt 0.7261954545974731 0.6907050609588623
vt 0.24685817956924438 1.6787031888961792
vt 0.49061721563339233 0.6907050609588623
vt 0.2468279004096985 0.6907050609588623
vt 0.24682897329330444 0.6909263730049133
vt 0.29689618945121765 0.10938405990600586
vt 0.9877164959907532 0.006193637847900391
vt 0.9807336926460266 0.049810051918029785
vt 0.9877163767814636 0.0065653324127197266
vt 0.2968955338001251 0.10938376188278198
vt 0.3709263503551483 0.15057975053787231
vt 0.9807320237159729 0.050570785999298096
vt 0.4574850797653198 0.19967901706695557
vt 0.9769097566604614 0.10269170999526978
vt 0.9585533142089844 0.5047165155410767
vt 0.4573695659637451 0.19982540607452393
vt 0.19678422808647156 0.4869328737258911
vt 0.11191698908805847 0.4862580895423889
vt 0.01033024676144123 0.48308396339416504
vt 0.3681541383266449 0.856853723526001
vt 0.27626773715019226 0.9136700630187988
vt 0.19872581958770752 0.48755359649658203
vt 0.4483051300048828 0.7941327095031738
vt 0.98359614610672 0.8782634139060974
vt 0.449832022190094 0.7944909334182739
vt 0.9867678880691528 0.9406453371047974
vt 0.3684951961040497 0.8572413921356201
vt 0.11205324530601501 0.4860219359397888
vt 0.3711903691291809 0.15077459812164307
vt 0.9837689399719238 0.9960623979568481
vt 0.2767539620399475 0.9137846827507019
vt 0.009969072416424751 0.4828840494155884
vt 0.2969108521938324 0.10940569639205933
vt 0.01028636284172535 0.48308396339416504
vt 0.370900422334671 0.1506018042564392
vt 0.11190444231033325 0.48625826835632324
vt 0.276268869638443 0.9136694073677063
vt 0.36814630031585693 0.8568649291992188
vt 0.9837689399719238 0.9967032670974731
vt 0.3684951663017273 0.8572455048561096
vt 0.9867678880691528 0.9407556056976318
vt 0.9835966229438782 0.8785629272460938
vt 0.44829535484313965 0.7941679954528809
vt 0.19860729575157166 0.4875573515892029
vt 0.4574848413467407 0.19968092441558838
vt 0.9769103527069092 0.10288679599761963
vt 0.45736998319625854 0.19982588291168213
vt 0.9585533142089844 0.5047165155410767
vt 0.4498801529407501 0.7945194244384766
vt 0.19676506519317627 0.48694002628326416
vt 0.37119075655937195 0.15080612897872925
vt 0.11203750967979431 0.4860222339630127
vt 0.2767549753189087 0.9137841463088989
vt 0.009887339547276497 0.48288393020629883
vt 0.2969124913215637 0.10940665006637573
g Geoset0
s 1
usemtl mat_ironforgefallentrunk001
f 1/1/1 2/2/2 3/3/3
f 4/4/4 5/5/5 6/6/6
f 4/4/4 7/7/7 5/5/5
f 7/7/7 8/8/8 5/5/5
f 7/7/7 9/9/9 8/8/8
f 9/9/9 10/10/10 8/8/8
f 9/9/9 11/11/11 10/10/10
f 11/11/11 12/12/12 10/10/10
f 11/11/11 13/13/13 12/12/12
f 13/13/13 14/14/14 12/12/12
f 13/13/13 1/1/1 14/14/14
f 6/6/6 5/5/5 15/15/15
f 5/5/5 16/16/16 15/15/15
f 5/5/5 8/8/8 16/16/16
f 8/8/8 17/17/17 16/16/16
f 8/8/8 10/10/10 17/17/17
f 10/10/10 18/18/18 17/17/17
f 10/10/10 12/12/12 18/18/18
f 12/12/12 19/19/19 18/18/18
f 12/12/12 14/14/14 19/19/19
f 14/14/14 20/20/20 19/19/19
f 3/3/3 21/21/21 22/22/22
f 21/21/21 23/23/23 22/22/22
f 21/21/21 6/6/6 23/23/23
f 6/6/6 15/15/15 23/23/23
f 2/2/2 21/21/21 3/3/3
f 2/2/2 24/24/24 21/21/21
f 24/24/24 6/6/6 21/21/21
f 24/24/24 4/4/4 6/6/6
f 3/3/3 22/22/22 20/20/20
f 14/14/14 3/3/3 20/20/20
f 1/1/1 3/3/3 14/14/14
g Geoset1
s 1
usemtl mat_ironforgefallentrunkcap01
f 25/25/25 26/26/26 27/27/27
f 28/28/28 29/29/29 30/30/30
f 30/30/30 31/31/31 28/28/28
f 31/31/31 30/30/30 32/32/32
f 32/32/32 33/33/33 31/31/31
f 34/34/34 33/33/33 32/32/32
f 34/34/34 35/35/35 33/33/33
f 34/34/34 36/36/36 35/35/35
f 37/37/37 30/30/30 29/29/29
f 29/29/29 38/38/38 37/37/37
f 39/39/39 37/37/37 38/38/38
f 38/38/38 40/40/40 39/39/39
f 41/41/41 32/32/32 30/30/30
f 30/30/30 37/37/37 41/41/41
f 42/42/42 41/41/41 37/37/37
f 37/37/37 39/39/39 42/42/42
f 34/34/34 41/41/41 42/42/42
f 34/34/34 32/32/32 41/41/41
f 34/34/34 42/42/42 43/43/43
f 34/34/34 44/44/44 36/36/36
f 34/34/34 43/43/43 44/44/44
f 43/43/43 42/42/42 39/39/39
f 39/39/39 45/45/45 43/43/43
f 44/44/44 43/43/43 45/45/45
f 45/45/45 46/46/46 44/44/44
f 36/36/36 44/44/44 46/46/46
f 46/46/46 47/47/47 36/36/36
f 35/35/35 36/36/36 47/47/47
f 47/47/47 48/48/48 35/35/35
f 33/33/33 35/35/35 48/48/48
f 48/48/48 31/31/31 33/33/33
f 45/45/45 39/39/39 40/40/40
f 40/40/40 49/49/49 45/45/45
f 46/46/46 45/45/45 49/49/49
f 49/49/49 50/50/50 46/46/46
f 47/47/47 46/46/46 50/50/50
f 50/50/50 51/51/51 47/47/47
f 48/48/48 47/47/47 51/51/51
f 51/51/51 52/52/52 48/48/48
f 31/31/31 48/48/48 52/52/52
f 52/52/52 28/28/28 31/31/31
f 53/53/53 25/25/25 54/54/54
f 27/27/27 54/54/54 25/25/25
f 54/54/54 55/55/55 53/53/53
f 56/56/56 53/53/53 55/55/55
f 55/55/55 57/57/57 56/56/56
f 58/58/58 56/56/56 57/57/57
f 59/59/59 60/60/60 61/61/61
f 62/62/62 61/61/61 60/60/60
f 60/60/60 57/57/57 62/62/62
f 63/63/63 62/62/62 57/57/57
f 57/57/57 55/55/55 63/63/63
f 64/64/64 63/63/63 55/55/55
f 55/55/55 54/54/54 64/64/64
f 65/65/65 64/64/64 54/54/54
f 54/54/54 27/27/27 65/65/65
f 66/66/66 65/65/65 27/27/27
f 67/67/67 64/64/64 65/65/65
f 67/67/67 65/65/65 66/66/66
f 63/63/63 64/64/64 67/67/67
f 62/62/62 63/63/63 67/67/67
f 67/67/67 61/61/61 62/62/62
f 67/67/67 68/68/68 61/61/61
f 67/67/67 69/69/69 68/68/68
f 67/67/67 66/66/66 69/69/69
f 69/69/69 66/66/66 70/70/70
f 27/27/27 70/70/70 66/66/66
f 70/70/70 71/71/71 69/69/69
f 68/68/68 69/69/69 71/71/71
f 71/71/71 59/59/59 68/68/68
f 61/61/61 68/68/68 59/59/59
f 57/57/57 60/60/60 58/58/58
f 72/72/72 58/58/58 60/60/60
f 60/60/60 59/59/59 72/72/72
f 73/73/73 72/72/72 59/59/59
f 59/59/59 71/71/71 73/73/73
f 74/74/74 73/73/73 71/71/71
f 71/71/71 70/70/70 74/74/74
f 26/26/26 74/74/74 70/70/70
f 70/70/70 27/27/27 26/26/26
