# Exported using wow.export v0.1.65
o auctioneercollision
mtllib auctioneercollision.mtl
v 5.827495574951172 -0.9810130000114441 2.9479153156280518
v 5.88421630859375 -0.981444239616394 -3.2446091175079346
v 2.82209849357605 -0.9819894433021545 -3.1346142292022705
v -6.747411251068115 -0.9818882346153259 -15.566021919250488
v -1.156930923461914 -0.9825748801231384 -11.72812557220459
v -1.1566106081008911 -0.981920063495636 -15.565568923950195
v -6.747424125671387 -0.9828392863273621 -11.725959777832031
v -1.1567734479904175 -0.9807062149047852 17.18552589416504
v -6.747808933258057 -0.9797976016998291 13.064825057983398
v -6.747608661651611 -0.9806696772575378 17.185184478759766
v -1.156607747077942 -0.9798299074172974 13.064023971557617
v 2.8222475051879883 -0.9811777472496033 2.9476702213287354
vn -0.000054817774071125314 1 -0.00013344896433409303
vn -0.0001806025393307209 1 -0.00007129833829822019
vn -0.000054817774071125314 1 -0.00013344896433409303
vn 0.00000567214738111943 1 0.00017064959683921188
vn 0.00000567214738111943 1 0.00017064959683921188
vn 0.00000567214738111943 1 0.00017064959683921188
vn -0.000047195018851198256 0.9999999403953552 0.00024765869602560997
vn 0.000005810771199321607 1 0.00021262200607452542
vn 0.000005810771199321607 1 0.00021262200607452542
vn 0.000006525894150399836 1 0.0002116517280228436
vn 0.000005810771199321607 1 0.00021262200607452542
vn -0.000054817774071125314 1 -0.00013344896433409303
vt 1 1
vt 1 0
vt 0 0
vt 1 1
vt 0 0
vt 0 1
vt 1 0
vt 1 1
vt 0 0
vt 0 1
vt 1 0
vt 0 1
g Geoset0
s 1
usemtl mat_64
f 1/1/1 2/2/2 3/3/3
f 4/4/4 5/5/5 6/6/6
f 7/7/7 5/5/5 4/4/4
f 8/8/8 9/9/9 10/10/10
f 11/11/11 9/9/9 8/8/8
f 3/3/3 12/12/12 1/1/1
