# Exported using wow.export v0.1.65
o busthf04
mtllib busthf04.mtl
v 0.058862801641225815 0.4222860038280487 0.053524699062108994
v 0.04541829973459244 0.45403599739074707 0.04988029971718788
v 0.052025798708200455 0.48145800828933716 0.051945801824331284
v 0.06023779883980751 0.5398640036582947 0.00011111100320704281
v 0.053362198173999786 0.5240389704704285 0.00011111100320704281
v 0.038336899131536484 0.5114309787750244 -0.048495300114154816
v 0.05440890043973923 0.15746499598026276 0.15443499386310577
v 0.08524720370769501 0.13154500722885132 0
v 0.12733200192451477 0.09614749997854233 0
v 0.05502080172300339 0.16346600651741028 -0.1665630042552948
v -0.04200189933180809 0.13154500722885132 -0.0736996978521347
v -0.04200189933180809 0.13154500722885132 0.07369939982891083
v -0.05185440182685852 0.2620820105075836 0.20975899696350098
v -0.11182300001382828 0.19430199265480042 0
v -0.04760750010609627 0.26222899556159973 -0.21083199977874756
v 0.05602610111236572 0.21705499291419983 0.038442499935626984
v 0.11756099760532379 0.1975730061531067 0.048716701567173004
v 0.12733200192451477 0.09614749997854233 0
v 0.06791809946298599 0.27958598732948303 0.08856359869241714
v -0.012043899856507778 0.29728901386260986 0.039965301752090454
v 0.11756099760532379 0.1975730061531067 0.048716701567173004
v 0.023023100569844246 0.22483399510383606 0.120619997382164
v 0.12733200192451477 0.09614749997854233 0
v 0.06791809946298599 0.27958598732948303 0.08856359869241714
v 0.06791809946298599 0.27958598732948303 0.08856359869241714
v 0.009961389936506748 0.38330599665641785 0.05259859934449196
v 0.058862801641225815 0.4222860038280487 0.053524699062108994
v -0.043548598885536194 0.35443300008773804 0.04435719922184944
v -0.012043899856507778 0.29728901386260986 0.039965301752090454
v 0.023023100569844246 0.22483399510383606 0.120619997382164
v 0.05440890043973923 0.15746499598026276 0.15443499386310577
v 0.12733200192451477 0.09614749997854233 0
v -0.05185440182685852 0.2620820105075836 0.20975899696350098
v -0.04390690103173256 0.2857919931411743 0.13611499965190887
v -0.04200189933180809 0.13154500722885132 -0.0736996978521347
v 0.08524720370769501 0.13154500722885132 0
v -0.05027860030531883 0.00016666699957568198 -0.08808030188083649
v -0.04200189933180809 0.13154500722885132 0.07369939982891083
v -0.04200189933180809 0.13154500722885132 -0.0736996978521347
v -0.05027860030531883 0.00016666699957568198 -0.08808030188083649
v -0.05027860030531883 0.00016666699957568198 0.08807999640703201
v 0.10180000215768814 0.00016666699957568198 0
v -0.04390690103173256 0.2857919931411743 0.13611499965190887
v -0.08289670199155807 0.3456079959869385 0.0009361110278405249
v -0.11182300001382828 0.19430199265480042 0
v -0.05185440182685852 0.2620820105075836 0.20975899696350098
v -0.04390690103173256 0.2857919931411743 0.13611499965190887
v -0.11182300001382828 0.19430199265480042 0
v 0.03215419873595238 0.338236004114151 0.0000555555998289492
v -0.043548598885536194 0.35443300008773804 0.04435719922184944
v -0.012043899856507778 0.29728901386260986 0.039965301752090454
v -0.11182300001382828 0.19430199265480042 0
v -0.046668101102113724 0.3108749985694885 -0.048124201595783234
v 0.02257939986884594 0.265610009431839 0
v -0.043548598885536194 0.35443100333213806 -0.04424560070037842
v -0.04760750010609627 0.26222899556159973 -0.21083199977874756
v 0.05602610111236572 0.21705499291419983 0.038442499935626984
v -0.012043899856507778 0.29728901386260986 0.039965301752090454
v 0.05502080172300339 0.16346600651741028 -0.1665630042552948
v -0.1202939972281456 0.45145300030708313 0.00011111100320704281
v -0.050074998289346695 0.506663978099823 -0.059007201343774796
v -0.04980190098285675 0.42209699749946594 -0.06603579968214035
v -0.08289670199155807 0.3456079959869385 0.0009361110278405249
v -0.043548598885536194 0.35443100333213806 -0.04424560070037842
v -0.043620798736810684 0.4496830105781555 -0.06886079907417297
v -0.01871359907090664 0.45098599791526794 -0.06800279766321182
v 0.038336899131536484 0.5114309787750244 -0.048495300114154816
v -0.06041109934449196 0.5283309817314148 0.00011111100320704281
v 0.06023779883980751 0.5398640036582947 0.00011111100320704281
v -0.020716700702905655 0.38759198784828186 -0.05907750129699707
v -0.043548598885536194 0.35443100333213806 -0.04424560070037842
v -0.04980190098285675 0.42209699749946594 -0.06603579968214035
v -0.043620798736810684 0.4496830105781555 -0.06886079907417297
v -0.01871359907090664 0.45098599791526794 -0.06800279766321182
v -0.04283669963479042 0.4466249942779541 -0.0793318971991539
v 0.058862801641225815 0.4222860038280487 -0.05330140143632889
v 0.10143300145864487 0.4288559854030609 0.00011111100320704281
v 0.08102890104055405 0.4163079857826233 -0.013659199699759483
v 0.07276610285043716 0.4592440128326416 0.00011111100320704281
v 0.05934419855475426 0.45470601320266724 -0.007771669887006283
v 0.04541829973459244 0.45403599739074707 -0.04965750128030777
v 0.052025798708200455 0.48145800828933716 -0.051722798496484756
v 0.038336899131536484 0.5114309787750244 -0.048495300114154816
v 0.07298389822244644 0.4751810133457184 0.00011111100320704281
v 0.038336899131536484 0.5114309787750244 0.0487188994884491
v 0.052025798708200455 0.48145800828933716 0.051945801824331284
v 0.05934419855475426 0.45470601320266724 0.007994449697434902
v 0.08102890104055405 0.4163079857826233 0.013882200233638287
v 0.058862801641225815 0.4222860038280487 0.053524699062108994
v 0.009961389936506748 0.38330599665641785 0.05259859934449196
v 0.07368329912424088 0.35210299491882324 0.023788100108504295
v 0.03215419873595238 0.338236004114151 0.0000555555998289492
v -0.043548598885536194 0.35443300008773804 0.04435719922184944
v -0.020716700702905655 0.38759198784828186 -0.05907750129699707
v 0.04541829973459244 0.45403599739074707 0.04988029971718788
v 0.09005860239267349 0.34701699018478394 0.00011111100320704281
v 0.07368329912424088 0.35210299491882324 -0.023564700037240982
v 0.08524920046329498 0.41203299164772034 0.00011111100320704281
v 0.06791809946298599 0.27958598732948303 0.08856359869241714
v -0.04390690103173256 0.2857919931411743 0.13611499965190887
v 0.023023100569844246 0.22483399510383606 0.120619997382164
v 0.06791809946298599 0.27958598732948303 0.08856359869241714
v 0.058862801641225815 0.4222860038280487 0.053524699062108994
v -0.0038930599112063646 0.42289701104164124 0.10935000330209732
v 0.058862801641225815 0.4222860038280487 0.053524699062108994
v -0.08409690111875534 0.46285301446914673 0.07350970059633255
v -0.08289670199155807 0.3456079959869385 0.0009361110278405249
v 0.058862801641225815 0.4222860038280487 0.053524699062108994
v 0.052025798708200455 0.48145800828933716 0.051945801824331284
v 0.04768110066652298 0.5290859937667847 0.06262940168380737
v -0.1202939972281456 0.45145300030708313 0.00011111100320704281
v -0.08289670199155807 0.3456079959869385 0.0009361110278405249
v 0.06023779883980751 0.5398640036582947 0.00011111100320704281
v 0.038336899131536484 0.5114309787750244 0.0487188994884491
v 0.053362198173999786 0.5240389704704285 0.00011111100320704281
v 0.038336899131536484 0.5114309787750244 0.0487188994884491
vn 0.8875449895858765 0.08989559859037399 0.4518660008907318
vn 0.9836369752883911 0.06310209631919861 -0.16874699294567108
vn 0.9817090034484863 0.05002079904079437 0.18369999527931213
vn 0.6406999826431274 0.695510983467102 -0.325219988822937
vn 0.9995620250701904 0.02796510048210621 0.00970865972340107
vn 0.5313969850540161 0.2815060019493103 -0.7989820241928101
vn 0.3389270007610321 -0.6026239991188049 0.7224770188331604
vn 0.29847899079322815 -0.9542229771614075 -0.019228899851441383
vn 0.956417977809906 0.17019200325012207 -0.23727600276470184
vn 0.36316099762916565 -0.5927940011024475 -0.7188249826431274
vn -0.5877649784088135 -0.5925179719924927 -0.5508670210838318
vn -0.7233690023422241 -0.5065119862556458 0.46923699975013733
vn -0.2942340075969696 0.2444230020046234 0.9239500164985657
vn -0.9964749813079834 -0.054282501339912415 -0.06396710127592087
vn -0.7000449895858765 -0.00742295989766717 -0.7140600085258484
vn 0.6640430092811584 0.5099250078201294 -0.5468310117721558
vn 0.9551299810409546 0.2939850091934204 -0.036049600690603256
vn 0.956417977809906 0.17019200325012207 -0.23727600276470184
vn 0.8546289801597595 0.29931700229644775 -0.42428600788116455
vn 0.9214910268783569 0.3848389983177185 0.05247329920530319
vn 0.9551299810409546 0.2939850091934204 -0.036049600690603256
vn 0.7252939939498901 0.24272100627422333 0.6442319750785828
vn 0.956417977809906 0.17019200325012207 -0.23727600276470184
vn 0.8546289801597595 0.29931700229644775 -0.42428600788116455
vn 0.8546289801597595 0.29931700229644775 -0.42428600788116455
vn 0.420183002948761 -0.8867369890213013 0.19272899627685547
vn 0.8875449895858765 0.08989559859037399 0.4518660008907318
vn 0.9823930263519287 -0.1517139971256256 -0.10903099924325943
vn 0.9214910268783569 0.3848389983177185 0.05247329920530319
vn 0.7252939939498901 0.24272100627422333 0.6442319750785828
vn 0.3389270007610321 -0.6026239991188049 0.7224770188331604
vn 0.956417977809906 0.17019200325012207 -0.23727600276470184
vn -0.2942340075969696 0.2444230020046234 0.9239500164985657
vn -0.18654200434684753 0.3244810104370117 0.9273160099983215
vn -0.5877649784088135 -0.5925179719924927 -0.5508670210838318
vn 0.29847899079322815 -0.9542229771614075 -0.019228899851441383
vn -0.49695101380348206 0.10008200258016586 -0.8619880080223083
vn -0.7233690023422241 -0.5065119862556458 0.46923699975013733
vn -0.5877649784088135 -0.5925179719924927 -0.5508670210838318
vn -0.49695101380348206 0.10008200258016586 -0.8619880080223083
vn 0.001467259950004518 0.08697979897260666 0.9962090253829956
vn 0.9949929714202881 0.09994769841432571 -0.000021977899450575933
vn -0.18654200434684753 0.3244810104370117 0.9273160099983215
vn -0.9601929783821106 -0.0736112967133522 -0.269461989402771
vn -0.9964749813079834 -0.054282501339912415 -0.06396710127592087
vn -0.2942340075969696 0.2444230020046234 0.9239500164985657
vn -0.18654200434684753 0.3244810104370117 0.9273160099983215
vn -0.9964749813079834 -0.054282501339912415 -0.06396710127592087
vn 0.6086260080337524 -0.7922229766845703 -0.04423470050096512
vn 0.9823930263519287 -0.1517139971256256 -0.10903099924325943
vn 0.9214910268783569 0.3848389983177185 0.05247329920530319
vn -0.9964749813079834 -0.054282501339912415 -0.06396710127592087
vn 0.19923900067806244 0.42644599080085754 -0.8822969794273376
vn 0.936627984046936 0.30438199639320374 -0.1734360009431839
vn 0.02017050050199032 -0.3136509954929352 -0.9493240118026733
vn -0.7000449895858765 -0.00742295989766717 -0.7140600085258484
vn 0.6640430092811584 0.5099250078201294 -0.5468310117721558
vn 0.9214910268783569 0.3848389983177185 0.05247329920530319
vn 0.36316099762916565 -0.5927940011024475 -0.7188249826431274
vn -0.957394003868103 0.14377200603485107 -0.2504520118236542
vn -0.35273000597953796 0.42642900347709656 -0.8329100012779236
vn -0.5021349787712097 -0.14537499845027924 -0.85248202085495
vn -0.9601929783821106 -0.0736112967133522 -0.269461989402771
vn 0.02017050050199032 -0.3136509954929352 -0.9493240118026733
vn -0.5431990027427673 0.4004400074481964 -0.7379590272903442
vn 0.17755700647830963 0.08779720216989517 -0.9801859855651855
vn 0.5313969850540161 0.2815060019493103 -0.7989820241928101
vn -0.5373669862747192 0.8394950032234192 0.08052749931812286
vn 0.6406999826431274 0.695510983467102 -0.325219988822937
vn 0.36661800742149353 -0.4785139858722687 -0.7978820204734802
vn 0.02017050050199032 -0.3136509954929352 -0.9493240118026733
vn -0.5021349787712097 -0.14537499845027924 -0.85248202085495
vn -0.5431990027427673 0.4004400074481964 -0.7379590272903442
vn 0.17755700647830963 0.08779720216989517 -0.9801859855651855
vn -0.3917819857597351 0.40171098709106445 -0.8277289867401123
vn 0.6672539710998535 -0.055965300649404526 -0.7427250146865845
vn 0.9737679958343506 -0.2275419980287552 9.358390116176452e-7
vn 0.7837920188903809 0.07569990307092667 -0.6163920164108276
vn 0.9161019921302795 0.4009439945220947 7.167449780354218e-7
vn 0.8118370175361633 0.09039729833602905 -0.5768439769744873
vn 0.6832339763641357 0.05597589910030365 -0.7280510067939758
vn 0.7649800181388855 0.02511190064251423 -0.643563985824585
vn 0.5313969850540161 0.2815060019493103 -0.7989820241928101
vn 0.9997730255126953 -0.021303800866007805 0.00001626149969524704
vn 0.9947829842567444 0.032459698617458344 -0.0967118963599205
vn 0.9817090034484863 0.05002079904079437 0.18369999527931213
vn 0.8118370175361633 0.09039700031280518 0.5768449902534485
vn 0.7837920188903809 0.07569970190525055 0.6163930296897888
vn 0.8875449895858765 0.08989559859037399 0.4518660008907318
vn 0.420183002948761 -0.8867369890213013 0.19272899627685547
vn 0.49872300028800964 -0.4450249969959259 0.7437930107116699
vn 0.6086260080337524 -0.7922229766845703 -0.04423470050096512
vn 0.9823930263519287 -0.1517139971256256 -0.10903099924325943
vn 0.44255000352859497 -0.6750580072402954 -0.5902929902076721
vn 0.9836369752883911 0.06310209631919861 -0.16874699294567108
vn 0.9280840158462524 -0.37237098813056946 -0.00008606960182078183
vn 0.49730199575424194 -0.45267900824546814 -0.7401170134544373
vn 0.9614049792289734 -0.2751390039920807 6.32174021575338e-7
vn 0.8546289801597595 0.29931700229644775 -0.42428600788116455
vn -0.18654200434684753 0.3244810104370117 0.9273160099983215
vn 0.7252939939498901 0.24272100627422333 0.6442319750785828
vn 0.8546289801597595 0.29931700229644775 -0.42428600788116455
vn 0.8875449895858765 0.08989559859037399 0.4518660008907318
vn 0.37736400961875916 0.13021600246429443 0.9168639779090881
vn 0.8875449895858765 0.08989559859037399 0.4518660008907318
vn -0.6808109879493713 0.27314698696136475 0.679623007774353
vn -0.9601929783821106 -0.0736112967133522 -0.269461989402771
vn 0.8875449895858765 0.08989559859037399 0.4518660008907318
vn 0.9817090034484863 0.05002079904079437 0.18369999527931213
vn 0.7585849761962891 0.3665519952774048 0.5386919975280762
vn -0.957394003868103 0.14377200603485107 -0.2504520118236542
vn -0.9601929783821106 -0.0736112967133522 -0.269461989402771
vn 0.6406999826431274 0.695510983467102 -0.325219988822937
vn 0.9947829842567444 0.032459698617458344 -0.0967118963599205
vn 0.9995620250701904 0.02796510048210621 0.00970865972340107
vn 0.9947829842567444 0.032459698617458344 -0.0967118963599205
vt 0.363754004240036 0.4777979850769043
vt 0.36635398864746094 0.6639269888401031
vt 0.29887598752975464 0.6818520128726959
vt 0.057052500545978546 0.985113300383091
vt 0.008322379551827908 0.8368230015039444
vt 0.1498270034790039 0.8031380027532578
vt 0.8622999787330627 0.28267902135849
vt 0.7638599872589111 0.379954993724823
vt 0.8970270156860352 0.3750770092010498
vt 0.8589010238647461 0.4747310280799866
vt 0.7636309862136841 0.4192820191383362
vt 0.7636309862136841 0.33109402656555176
vt 0.882440984249115 0.2550399899482727
vt 0.8825960159301758 0.3785499930381775
vt 0.8823580145835876 0.5066779851913452
vt 0.5130149722099304 0.041500985622406006
vt 0.6863909959793091 0.18258202075958252
vt 0.9876999855041504 0.024797022342681885
vt 0.47665899991989136 0.3678709864616394
vt 0.4418950080871582 0.20238399505615234
vt 0.6879580020904541 0.1821349859237671
vt 0.5120519995689392 0.04300498962402344
vt 0.9855409860610962 0.02700197696685791
vt 0.4769189953804016 0.3633520007133484
vt 0.4789249897003174 0.36965298652648926
vt 0.49038800597190857 0.46190398931503296
vt 0.4018160104751587 0.6389270126819611
vt 0.3318850100040436 0.6078619956970215
vt 0.4346790015697479 0.20249199867248535
vt 0.8372849822044373 0.6540299952030182
vt 0.8561540246009827 0.5633459985256195
vt 0.502128005027771 0.513361006975174
vt 0.9966409802436829 0.9334269016981125
vt 0.8284680247306824 0.9105926007032394
vt 0.7622810006141663 0.20181500911712646
vt 0.7622810006141663 0.5272270143032074
vt 0.9981030225753784 0.20179998874664307
vt 0.7622810006141663 0.20170998573303223
vt 0.7622810006141663 0.5272279977798462
vt 0.9981030225753784 0.5272429883480072
vt 0.9981030225753784 0.20166802406311035
vt 0.9981030225753784 0.5272429883480072
vt 0.7591310143470764 0.9136136993765831
vt 0.5960059762001038 0.9798693004995584
vt 0.7010030150413513 0.4827510118484497
vt 0.9967139959335327 0.9334777966141701
vt 0.7590969800949097 0.9135906994342804
vt 0.7010059952735901 0.482774019241333
vt 0.5015580058097839 0.9974074400961399
vt 0.6643570065498352 0.9975370198953897
vt 0.670009970664978 0.921558603644371
vt 0.701062023639679 0.4829689860343933
vt 0.670009970664978 0.921558603644371
vt 0.5017279982566833 0.8232109993696213
vt 0.6643540263175964 0.9975370198953897
vt 0.9967150092124939 0.9334836974740028
vt 0.6207510232925415 0.7401750087738037
vt 0.6695060133934021 0.903301402926445
vt 0.8561800122261047 0.5633459985256195
vt 0.49467501044273376 0.5936169922351837
vt 0.33828800916671753 0.8326759934425354
vt 0.3073689937591553 0.5447080135345459
vt 0.42658698558807373 0.2156500220298767
vt 0.2733829915523529 0.34511798620224
vt 0.29632899165153503 0.6960999965667725
vt 0.24670499563217163 0.6465269923210144
vt 0.14991499483585358 0.8033740073442459
vt 0.49203601479530334 0.9531902000308037
vt 0.057011500000953674 0.9846751997247338
vt 0.25347700715065 0.4180179834365845
vt 0.27376100420951843 0.34292298555374146
vt 0.3056890070438385 0.5464850068092346
vt 0.3081760108470917 0.6463249921798706
vt 0.24820299446582794 0.6444729864597321
vt 0.30511099100112915 0.6399750113487244
vt 0.08738470077514648 0.5038149952888489
vt 0.008035089820623398 0.49133801460266113
vt 0.021056899800896645 0.4593629837036133
vt 0.008035089820623398 0.6185359954833984
vt 0.018948499113321304 0.604541003704071
vt 0.08340950310230255 0.6024779975414276
vt 0.0857074037194252 0.6959550082683563
vt 0.15078899264335632 0.7972919940948486
vt 0.008035089820623398 0.676609992980957
vt 0.1508760005235672 0.7972919940948486
vt 0.08626800030469894 0.6959550082683563
vt 0.019016999751329422 0.604541003704071
vt 0.021134400740265846 0.4593629837036133
vt 0.08794520050287247 0.5038149952888489
vt 0.08117060363292694 0.2995709776878357
vt 0.04731370136141777 0.2669209837913513
vt 0.008036339655518532 0.2164430022239685
vt 0.27387601137161255 0.34292298555374146
vt 0.25347700715065 0.4180179834365845
vt 0.08349669724702835 0.6024779975414276
vt 0.008035089820623398 0.2435150146484375
vt 0.04675329849123955 0.2669209837913513
vt 0.008035089820623398 0.4417110085487366
vt 0.47592398524284363 0.3699139952659607
vt 0.4402559995651245 0.20499002933502197
vt 0.5118409991264343 0.04511600732803345
vt 0.4759880006313324 0.3701440095901489
vt 0.4245550036430359 0.6950600147247314
vt 0.29037800431251526 0.7399959862232208
vt 0.4245550036430359 0.6951319873332977
vt 0.40323498845100403 0.8277270048856735
vt 0.39154401421546936 0.31554102897644043
vt 0.42457300424575806 0.6951319873332977
vt 0.3519569933414459 0.7895099967718124
vt 0.15493999421596527 0.927437998354435
vt 0.4946739971637726 0.5840559899806976
vt 0.41696399450302124 0.2452930212020874
vt 0.057718899101018906 0.9906091103330255
vt 0.14787200093269348 0.798347994685173
vt 0.00698215002194047 0.8370860069990158
vt 0.14786599576473236 0.7983729988336563
g Geoset0
s 1
usemtl mat_bustfh04
f 1/1/1 2/2/2 3/3/3
f 4/4/4 5/5/5 6/6/6
f 7/7/7 8/8/8 9/9/9
f 8/8/8 10/10/10 9/9/9
f 11/11/11 10/10/10 8/8/8
f 12/12/12 8/8/8 7/7/7
f 7/7/7 13/13/13 12/12/12
f 13/13/13 14/14/14 12/12/12
f 12/12/12 14/14/14 11/11/11
f 15/15/15 11/11/11 14/14/14
f 15/15/15 10/10/10 11/11/11
f 16/16/16 17/17/17 18/18/18
f 16/16/16 19/19/19 17/17/17
f 16/16/16 20/20/20 19/19/19
f 21/21/21 22/22/22 23/23/23
f 24/24/24 22/22/22 21/21/21
f 25/25/25 26/26/26 27/27/27
f 28/28/28 26/26/26 25/25/25
f 29/29/29 28/28/28 25/25/25
f 30/30/30 31/31/31 32/32/32
f 30/30/30 33/33/33 31/31/31
f 30/30/30 34/34/34 33/33/33
f 35/35/35 36/36/36 37/37/37
f 38/38/38 39/39/39 40/40/40
f 41/41/41 38/38/38 40/40/40
f 36/36/36 38/38/38 41/41/41
f 42/42/42 36/36/36 41/41/41
f 36/36/36 42/42/42 37/37/37
f 43/43/43 44/44/44 45/45/45
f 46/46/46 47/47/47 48/48/48
f 49/49/49 50/50/50 51/51/51
f 52/52/52 44/44/44 53/53/53
f 54/54/54 49/49/49 51/51/51
f 49/49/49 54/54/54 53/53/53
f 55/55/55 49/49/49 53/53/53
f 55/55/55 53/53/53 44/44/44
f 48/48/48 53/53/53 56/56/56
f 57/57/57 54/54/54 58/58/58
f 57/57/57 32/32/32 54/54/54
f 54/54/54 32/32/32 53/53/53
f 59/59/59 53/53/53 32/32/32
f 59/59/59 56/56/56 53/53/53
f 60/60/60 61/61/61 62/62/62
f 60/60/60 62/62/62 63/63/63
f 64/64/64 63/63/63 62/62/62
f 61/61/61 65/65/65 62/62/62
f 65/65/65 61/61/61 66/66/66
f 61/61/61 67/67/67 66/66/66
f 60/60/60 68/68/68 61/61/61
f 68/68/68 69/69/69 61/61/61
f 61/61/61 69/69/69 67/67/67
f 70/70/70 71/71/71 72/72/72
f 73/73/73 74/74/74 75/75/75
f 70/70/70 74/74/74 76/76/76
f 74/74/74 70/70/70 72/72/72
f 74/74/74 72/72/72 75/75/75
f 73/73/73 75/75/75 72/72/72
f 77/77/77 78/78/78 79/79/79
f 78/78/78 80/80/80 79/79/79
f 78/78/78 76/76/76 80/80/80
f 76/76/76 81/81/81 80/80/80
f 74/74/74 81/81/81 76/76/76
f 74/74/74 82/82/82 81/81/81
f 74/74/74 83/83/83 82/82/82
f 82/82/82 83/83/83 5/5/5
f 81/81/81 82/82/82 80/80/80
f 80/80/80 82/82/82 84/84/84
f 84/84/84 79/79/79 80/80/80
f 82/82/82 5/5/5 84/84/84
f 85/85/85 86/86/86 5/5/5
f 5/5/5 86/86/86 84/84/84
f 86/86/86 87/87/87 84/84/84
f 79/79/79 84/84/84 87/87/87
f 87/87/87 88/88/88 79/79/79
f 89/89/89 90/90/90 91/91/91
f 90/90/90 92/92/92 91/91/91
f 93/93/93 92/92/92 90/90/90
f 71/71/71 94/94/94 92/92/92
f 86/86/86 95/95/95 87/87/87
f 95/95/95 89/89/89 87/87/87
f 89/89/89 88/88/88 87/87/87
f 89/89/89 91/91/91 88/88/88
f 91/91/91 96/96/96 88/88/88
f 92/92/92 96/96/96 91/91/91
f 96/96/96 92/92/92 97/97/97
f 92/92/92 94/94/94 97/97/97
f 77/77/77 98/98/98 78/78/78
f 94/94/94 76/76/76 97/97/97
f 97/97/97 76/76/76 78/78/78
f 97/97/97 78/78/78 96/96/96
f 96/96/96 78/78/78 98/98/98
f 88/88/88 96/96/96 98/98/98
f 98/98/98 77/77/77 88/88/88
f 88/88/88 77/77/77 79/79/79
f 99/99/99 100/100/100 101/101/101
f 102/102/102 103/103/103 100/100/100
f 104/104/104 100/100/100 105/105/105
f 104/104/104 106/106/106 100/100/100
f 100/100/100 106/106/106 107/107/107
f 108/108/108 109/109/109 104/104/104
f 109/109/109 110/110/110 104/104/104
f 111/111/111 112/112/112 106/106/106
f 111/111/111 106/106/106 68/68/68
f 68/68/68 106/106/106 110/110/110
f 104/104/104 110/110/110 106/106/106
f 68/68/68 110/110/110 113/113/113
f 110/110/110 114/114/114 115/115/115
f 115/115/115 113/113/113 110/110/110
f 110/110/110 3/3/3 116/116/116
