# Exported using wow.export v0.1.65
o orcstaff02
mtllib orcstaff02.mtl
v 0.2573547065258026 0.04332718625664711 -0.03419339284300804
v 0.536246120929718 0.035300467163324356 -0.047138068825006485
v 0.5363066792488098 0.007374392822384834 -0.022425683215260506
v 0.2573111951351166 0.012046280317008495 -0.006426534149795771
v 0.2572878897190094 0.04332722723484039 0.021274453029036522
v -0.11501751840114594 0.018420258536934853 0.019517289474606514
v -0.11503773182630539 -0.010930007323622704 -0.006455463357269764
v 0.2573547065258026 0.0433272086083889 -0.03419339656829834
v -0.11513326317071915 0.01842021942138672 -0.03242817521095276
v 0.2573298513889313 0.07463044673204422 -0.006426532287150621
v -0.1150585263967514 0.04777054861187935 -0.006455461494624615
v -0.4833114445209503 0.0475100614130497 -0.04719111695885658
v -0.11513326317071915 0.01842021942138672 -0.03242817521095276
v -0.48337212204933167 0.01958400383591652 -0.022478729486465454
v -0.11503773182630539 -0.010930007323622704 -0.006455463357269764
v -0.1150585263967514 0.04777054861187935 -0.006455461494624615
v -0.483358770608902 0.07543610781431198 -0.022478727623820305
v -0.11501751840114594 0.018420258536934853 0.019517289474606514
v -0.4833848178386688 0.0475100614130497 0.0022336896508932114
v 0.536319375038147 0.035300467163324356 0.0022867408115416765
v 0.8611618876457214 0.019463032484054565 0.018160095438361168
v 0.5362934470176697 0.06322654336690903 -0.022425679489970207
v 0.8611878156661987 0.04738908261060715 -0.006552328821271658
v 0.536246120929718 0.035300467163324356 -0.047138068825006485
v 0.8612350821495056 0.019463011994957924 -0.03126472979784012
v 0.5363066792488098 0.007374392822384834 -0.022425683215260506
v 0.8611745834350586 -0.008463103324174881 -0.00655233021825552
v -0.7290738224983215 -0.011797103099524975 -0.006586989853531122
v -0.48337212204933167 0.01958400383591652 -0.022478729486465454
v -0.4833848178386688 0.0475100614130497 0.0022336896508932114
v -0.7309815287590027 0.02026950567960739 -0.034898899495601654
v -1.1993043422698975 0.08376119285821915 -0.03853786364197731
v -1.199243187904358 0.11985427886247635 -0.006598263047635555
v -1.227310061454773 0.11304545402526855 -0.006406466476619244
v -0.4833114445209503 0.0475100614130497 -0.04719111695885658
v -0.7310565114021301 0.05226748064160347 -0.006587028969079256
v -1.1992095708847046 0.08376117795705795 0.02534138411283493
v -0.483358770608902 0.07543610781431198 -0.022478727623820305
v -0.7280650734901428 0.020135970786213875 0.021705610677599907
v -1.199225902557373 0.04766806587576866 -0.006598265375941992
v -1.2273097038269043 0.05303848534822464 -0.006406468339264393
v -1.227310061454773 0.08304199576377869 -0.03295718878507614
v -1.2273097038269043 0.0830419734120369 0.020144280046224594
v -1.2432818412780762 0.08328287303447723 -0.006476639304310083
v 0.2573298513889313 0.07463044673204422 -0.006426532287150621
v 0.5362934470176697 0.06322654336690903 -0.022425679489970207
v 0.2572878897190094 0.04332722723484039 0.021274453029036522
v 0.536319375038147 0.035300467163324356 0.0022867408115416765
v 0.2573111951351166 0.012046280317008495 -0.006426534149795771
v 0.8934239149093628 0.019462332129478455 -0.0617920346558094
v 0.8612351417541504 0.019463058561086655 -0.03126472979784012
v 0.8611878752708435 0.04738913103938103 -0.006552328821271658
v 0.95429527759552 0.018930304795503616 -0.057996321469545364
v 0.961730420589447 0.018930308520793915 -0.047661542892456055
v 0.95429527759552 -0.043525662273168564 -0.0027277523186057806
v 0.961730420589447 0.06970752775669098 -0.00272773508913815
v 0.8935591578483582 -0.04295245558023453 -0.006559830624610186
v 0.8935875296592712 0.019462354481220245 0.04867245629429817
v 0.8934239149093628 0.019462332129478455 -0.0617920346558094
v 0.95429527759552 0.0813862755894661 -0.0027277490589767694
v 0.961730420589447 0.018930265679955482 0.04220609739422798
v 0.95429527759552 0.018930284306406975 0.052540890872478485
v 0.961730420589447 -0.03184691071510315 -0.002727736486122012
v 0.8935297727584839 0.08187707513570786 -0.006559826899319887
v 0.961730420589447 -0.03184691071510315 -0.002727736486122012
v 1.0089263916015625 -0.06096137315034866 -0.0027277301996946335
v 1.0089267492294312 -0.030859623104333878 0.0503036193549633
v 1.0089268684387207 -0.030859602615237236 -0.05575907975435257
v 0.961730420589447 0.018930308520793915 -0.047661542892456055
v 1.008926510810852 0.018910223618149757 -0.07623498141765594
v 1.0089268684387207 0.07215327769517899 -0.05664066597819328
v 0.961730420589447 0.018930265679955482 0.04220609739422798
v 0.961730420589447 0.06970752775669098 -0.00272773508913815
v 1.083086371421814 0.05856563523411751 -0.041195791214704514
v 1.0819216966629028 0.020800713449716568 -0.05630721151828766
v 1.048181176185608 0.01868491619825363 -0.07356254011392593
v 1.0491951704025269 0.06948505342006683 -0.05416681244969368
v 1.0510386228561401 0.09350750595331192 -0.0027277220506221056
v 1.0089263916015625 0.09878181666135788 -0.0027277301996946335
v 1.0089267492294312 0.0721532478928566 0.05118520185351372
v 1.0089263916015625 0.018910203129053116 0.07077951729297638
v 1.0491951704025269 0.06948502361774445 0.04871130734682083
v 1.048181176185608 0.01868491619825363 0.068107008934021
v 1.1029541492462158 0.018914543092250824 -0.005886867176741362
v 1.0816713571548462 -0.01544182188808918 -0.04156104475259781
v 1.0833479166030884 0.07436684519052505 -0.005722506437450647
v 1.0836453437805176 0.0578596331179142 0.03455217927694321
v 1.0851848125457764 -0.03342107683420181 -0.0029790557455271482
v 1.0822702646255493 -0.01474947202950716 0.03491801768541336
v 1.082849144935608 0.01581943966448307 0.044796135276556015
v 1.047837257385254 -0.029436562210321426 0.04854718595743179
v 1.051059365272522 -0.05612074211239815 -0.0027277220506221056
v 1.047837257385254 -0.029436582699418068 -0.05400269106030464
v 0.8935591578483582 -0.04295245558023453 -0.006559830624610186
v 0.8611746430397034 -0.008463053032755852 -0.00655233021825552
v 0.8935875296592712 0.019462354481220245 0.04867245629429817
v 0.8611619472503662 0.019463080912828445 0.018160095438361168
v 0.8935297727584839 0.08187707513570786 -0.006559826899319887
vn -0.05262993648648262 -0.2823677659034729 -0.9578614234924316
vn 0.012072572484612465 0.2829338610172272 -0.9590634107589722
vn -0.032017286866903305 -0.9353364706039429 -0.35230758786201477
vn -0.20008869469165802 -0.9169574975967407 0.34518617391586304
vn 0.024954291060566902 0.28236672282218933 0.9589819312095642
vn -0.004227292258292437 0.000536254548933357 0.9999909400939941
vn -0.018656644970178604 -0.9998254776000977 -0.0009753326303325593
vn 0.01446570921689272 -0.2832719683647156 -0.958930492401123
vn -0.0038705249316990376 -0.0004459360206965357 -0.9999924302101135
vn 0.20623978972434998 0.9157492518424988 -0.3447730541229248
vn 0.009592713788151741 0.9999534487724304 0.0010321071604266763
vn -0.00882263295352459 0.28134581446647644 -0.9595658779144287
vn -0.0038705249316990376 -0.0004459360206965357 -0.9999924302101135
vn 0.016884244978427887 -0.9345738887786865 -0.3553682267665863
vn -0.018656644970178604 -0.9998254776000977 -0.0009753326303325593
vn 0.009592713788151741 0.9999534487724304 0.0010321071604266763
vn -0.00494636595249176 0.9348390102386475 0.3550373911857605
vn -0.004227292258292437 0.000536254548933357 0.9999909400939941
vn 0.019941195845603943 -0.2813977897167206 0.9593839645385742
vn -0.0017569676274433732 -0.28290775418281555 0.9591454863548279
vn -0.03300487622618675 0.28358063101768494 0.9583802223205566
vn 0.043324653059244156 0.9349297285079956 0.35217800736427307
vn 0.06267708539962769 0.9343351721763611 -0.3508409559726715
vn 0.012072572484612465 0.2829338610172272 -0.9590634107589722
vn 0.032991908490657806 -0.2835652828216553 -0.9583852291107178
vn -0.032017286866903305 -0.9353364706039429 -0.35230758786201477
vn -0.06269413232803345 -0.9343342185020447 0.35084041953086853
vn 0.01248780358582735 -0.99991774559021 -0.002916370052844286
vn 0.016884244978427887 -0.9345738887786865 -0.3553682267665863
vn 0.019941195845603943 -0.2813977897167206 0.9593839645385742
vn 0.015314023941755295 -0.0015583168715238571 -0.9998815059661865
vn -0.1252710074186325 -0.12676945328712463 -0.9839901924133301
vn -0.009421909227967262 0.9752869009971619 -0.22074110805988312
vn -0.5356696844100952 0.8444275856018066 0.00027998865698464215
vn -0.00882263295352459 0.28134581446647644 -0.9595658779144287
vn 0.013489415869116783 0.9999082684516907 0.0011987695470452309
vn -0.08396124094724655 0.1247047483921051 0.9886350631713867
vn -0.00494636595249176 0.9348390102386475 0.3550373911857605
vn 0.007368158083409071 0.0013789543882012367 0.9999719262123108
vn -0.14689214527606964 -0.9645866751670837 0.21907809376716614
vn -0.513359010219574 -0.8581739664077759 0.00015402372810058296
vn -0.6077730059623718 0.00026084351702593267 -0.7941107749938965
vn -0.6042399406433105 0.00033152179094031453 0.7968023419380188
vn -0.9999961853027344 0.0025921750348061323 -0.0009605974773876369
vn 0.20623978972434998 0.9157492518424988 -0.3447730541229248
vn 0.043324653059244156 0.9349297285079956 0.35217800736427307
vn 0.024954291060566902 0.28236672282218933 0.9589819312095642
vn -0.0017569676274433732 -0.28290775418281555 0.9591454863548279
vn -0.20008869469165802 -0.9169574975967407 0.34518617391586304
vn -0.30397236347198486 0.10582955926656723 -0.946784496307373
vn -0.6717802286148071 -0.2101443111896515 -0.7103173136711121
vn -0.7072194814682007 0.6617096066474915 -0.24895985424518585
vn 0.5901772379875183 0.11997371912002563 -0.7983089089393616
vn -0.027934350073337555 -0.11645039170980453 -0.9928035736083984
vn 0.466144323348999 -0.8774242401123047 -0.11329708248376846
vn -0.03348124399781227 0.990873396396637 -0.13057155907154083
vn -0.501278281211853 -0.8472591042518616 -0.1757044494152069
vn -0.36736851930618286 -0.10359793901443481 0.924287736415863
vn -0.30397236347198486 0.10582955926656723 -0.946784496307373
vn 0.4739828407764435 0.8732893466949463 0.11272065341472626
vn -0.02799958549439907 0.09499741345643997 0.9950836896896362
vn 0.5566086173057556 -0.12346740067005157 0.8215489387512207
vn -0.0144300302490592 -0.9912999272346497 0.13082890212535858
vn -0.49606433510780334 0.8500978350639343 0.17678748071193695
vn -0.0144300302490592 -0.9912999272346497 0.13082890212535858
vn -0.1633785516023636 -0.9803913235664368 -0.11018308997154236
vn -0.2557089328765869 -0.6874059438705444 0.6797690987586975
vn -0.261739045381546 -0.5923138856887817 -0.7620084881782532
vn -0.027934350073337555 -0.11645039170980453 -0.9928035736083984
vn -0.17280495166778564 0.0640433058142662 -0.9828717708587646
vn -0.25616759061813354 0.6978405714035034 -0.6688771843910217
vn -0.02799958549439907 0.09499741345643997 0.9950836896896362
vn -0.03348124399781227 0.990873396396637 -0.13057155907154083
vn 0.6595394611358643 0.5064235925674438 -0.55546635389328
vn 0.6889600157737732 -0.0864543467760086 -0.7196247577667236
vn 0.2663736045360565 -0.01794801466166973 -0.9637027382850647
vn 0.2334447056055069 0.5946671962738037 -0.7693337798118591
vn 0.33452531695365906 0.9392457008361816 -0.07687832415103912
vn -0.15183323621749878 0.9835098385810852 0.09825999289751053
vn -0.26338502764701843 0.5928152799606323 0.761050820350647
vn -0.1778309941291809 -0.09844858199357986 0.979124128818512
vn 0.25279316306114197 0.7095690369606018 0.6577289700508118
vn 0.3412998914718628 0.03292364627122879 0.9393776655197144
vn 0.9999105930328369 -0.009064920246601105 -0.009832669049501419
vn 0.7039234042167664 -0.5107791423797607 -0.4935550093650818
vn 0.7780740261077881 0.6278975009918213 -0.0185872670263052
vn 0.7070502042770386 0.4661603271961212 0.5317654609680176
vn 0.7510092854499817 -0.6534361839294434 0.094900943338871
vn 0.7228043079376221 -0.39254167675971985 0.5687397718429565
vn 0.779868483543396 -0.03866209462285042 0.6247482299804688
vn 0.29483023285865784 -0.6315880417823792 0.7170576453208923
vn 0.33343929052352905 -0.9426382780075073 0.015852991491556168
vn 0.2831518054008484 -0.6416849493980408 -0.7127870917320251
vn -0.501278281211853 -0.8472591042518616 -0.1757044494152069
vn -0.7057033777236938 -0.6630740761756897 0.24963071942329407
vn -0.36736851930618286 -0.10359793901443481 0.924287736415863
vn -0.6704779863357544 0.20970328152179718 0.7116767764091492
vn -0.49606433510780334 0.8500978350639343 0.17678748071193695
vt 0.9921875 0.484375
vt 0.0078125 0.484375
vt 0.0078125 0.265625
vt 0.6015625 0.015625
vt 0.6171875 0.234375
vt 0.9921875 0.234375
vt 0.9921875 0.015625
vt 0.6015625 0.234375
vt 0.9921875 0.234375
vt 0.59375 0.015625
vt 0.9921875 0.015625
vt 0.0078125 0.484375
vt 0.9921875 0.484375
vt 0.0078125 0.265625
vt 0.9921875 0.265625
vt 0.9921875 0.265625
vt 0.0078125 0.265625
vt 0.9921875 0.484375
vt 0.0078125 0.484375
vt 0.9921875 0.234375
vt 0.421875 0.234375
vt 0.9921875 0.015625
vt 0.421875 0.015625
vt 0.9921875 0.234375
vt 0.421875 0.234375
vt 0.9921875 0.015625
vt 0.421875 0.015625
vt 0.625 0.015625
vt 0.9921875 0.015625
vt 0.9921875 0.234375
vt 0.625 0.234375
vt 0.25 0.234375
vt 0.25 0.015625
vt 0.0859375 0.015625
vt 0.9921875 0.234375
vt 0.625 0.015625
vt 0.25 0.234375
vt 0.9921875 0.015625
vt 0.625 0.234375
vt 0.25 0.015625
vt 0.0859375 0.015625
vt 0.0859375 0.234375
vt 0.0859375 0.234375
vt 0.0078125 0.234375
vt 0.9921875 0.265625
vt 0.0078125 0.265625
vt 0.9921875 0.484375
vt 0.0078125 0.484375
vt 0.9921875 0.265625
vt 0.1875 0.90625
vt 0.0078125 0.734375
vt 0.0078125 0.515625
vt 0.2578125 0.984375
vt 0.3046875 0.984375
vt 0.2578125 0.515625
vt 0.3046875 0.609375
vt 0.0078125 0.765625
vt 0.0078125 0.984375
vt 0.0078125 0.984375
vt 0.2578125 0.515625
vt 0.3046875 0.984375
vt 0.2578125 0.984375
vt 0.3046875 0.609375
vt 0.0078125 0.765625
vt 0.3203125 0.765625
vt 0.546875 0.515625
vt 0.546875 0.75
vt 0.546875 0.75
vt 0.3203125 0.984375
vt 0.546875 0.984375
vt 0.546875 0.75
vt 0.3203125 0.984375
vt 0.3203125 0.765625
vt 0.890625 0.78125
vt 0.890625 0.984375
vt 0.734375 0.984375
vt 0.734375 0.75
vt 0.7421875 0.515625
vt 0.546875 0.515625
vt 0.546875 0.75
vt 0.546875 0.984375
vt 0.734375 0.75
vt 0.734375 0.984375
vt 0.9921875 0.984375
vt 0.890625 0.78125
vt 0.9140625 0.546875
vt 0.890625 0.78125
vt 0.9140625 0.546875
vt 0.890625 0.78125
vt 0.890625 0.984375
vt 0.734375 0.75
vt 0.7421875 0.515625
vt 0.734375 0.75
vt 0.1875 0.6875
vt 0.0078125 0.515625
vt 0.1875 0.90625
vt 0.0078125 0.734375
vt 0.1875 0.6875
g Geoset0
s 1
usemtl mat_stave_2h_other_b_01white
f 1/1/1 2/2/2 3/3/3
f 4/4/4 5/5/5 6/6/6
f 7/7/7 4/4/4 6/6/6
f 8/8/8 4/4/4 7/7/7
f 9/9/9 8/8/8 7/7/7
f 10/10/10 8/8/8 9/9/9
f 11/11/11 10/10/10 9/9/9
f 5/5/5 10/10/10 11/11/11
f 6/6/6 5/5/5 11/11/11
f 12/12/12 13/13/13 14/14/14
f 15/15/15 14/14/14 13/13/13
f 13/13/13 12/12/12 16/16/16
f 17/17/17 16/16/16 12/12/12
f 16/16/16 17/17/17 18/18/18
f 19/19/19 18/18/18 17/17/17
f 18/18/18 19/19/19 15/15/15
f 14/14/14 15/15/15 19/19/19
f 20/20/20 21/21/21 22/22/22
f 23/23/23 22/22/22 21/21/21
f 22/22/22 23/23/23 24/24/24
f 25/25/25 24/24/24 23/23/23
f 24/24/24 25/25/25 26/26/26
f 27/27/27 26/26/26 25/25/25
f 26/26/26 27/27/27 20/20/20
f 21/21/21 20/20/20 27/27/27
f 28/28/28 29/29/29 30/30/30
f 29/29/29 28/28/28 31/31/31
f 32/32/32 31/31/31 28/28/28
f 31/31/31 32/32/32 33/33/33
f 34/34/34 33/33/33 32/32/32
f 31/31/31 35/35/35 29/29/29
f 35/35/35 31/31/31 36/36/36
f 33/33/33 36/36/36 31/31/31
f 36/36/36 33/33/33 37/37/37
f 33/33/33 34/34/34 37/37/37
f 36/36/36 38/38/38 35/35/35
f 38/38/38 36/36/36 39/39/39
f 37/37/37 39/39/39 36/36/36
f 39/39/39 37/37/37 40/40/40
f 41/41/41 40/40/40 37/37/37
f 32/32/32 42/42/42 34/34/34
f 37/37/37 43/43/43 41/41/41
f 43/43/43 44/44/44 41/41/41
f 43/43/43 37/37/37 34/34/34
f 43/43/43 34/34/34 44/44/44
f 34/34/34 42/42/42 44/44/44
f 44/44/44 42/42/42 41/41/41
f 42/42/42 32/32/32 41/41/41
f 40/40/40 41/41/41 32/32/32
f 28/28/28 40/40/40 32/32/32
f 40/40/40 28/28/28 39/39/39
f 30/30/30 39/39/39 28/28/28
f 39/39/39 30/30/30 38/38/38
f 45/45/45 46/46/46 2/2/2
f 2/2/2 1/1/1 45/45/45
f 46/46/46 45/45/45 47/47/47
f 47/47/47 48/48/48 46/46/46
f 48/48/48 47/47/47 49/49/49
f 49/49/49 3/3/3 48/48/48
f 3/3/3 49/49/49 1/1/1
g Geoset1
s 1
usemtl mat_stave_2h_other_b_01white
f 50/50/50 51/51/51 52/52/52
f 53/53/53 54/54/54 55/55/55
f 54/54/54 53/53/53 56/56/56
f 57/57/57 55/55/55 58/58/58
f 55/55/55 57/57/57 59/59/59
f 59/59/59 53/53/53 55/55/55
f 53/53/53 59/59/59 60/60/60
f 60/60/60 56/56/56 53/53/53
f 56/56/56 60/60/60 61/61/61
f 61/61/61 62/62/62 63/63/63
f 62/62/62 61/61/61 60/60/60
f 63/63/63 55/55/55 54/54/54
f 55/55/55 63/63/63 62/62/62
f 62/62/62 58/58/58 55/55/55
f 58/58/58 62/62/62 60/60/60
f 60/60/60 64/64/64 58/58/58
f 64/64/64 60/60/60 59/59/59
f 65/65/65 66/66/66 67/67/67
f 66/66/66 65/65/65 68/68/68
f 69/69/69 68/68/68 65/65/65
f 69/69/69 70/70/70 68/68/68
f 70/70/70 69/69/69 71/71/71
f 67/67/67 72/72/72 65/65/65
f 73/73/73 71/71/71 69/69/69
f 74/74/74 75/75/75 76/76/76
f 77/77/77 74/74/74 76/76/76
f 78/78/78 74/74/74 77/77/77
f 71/71/71 78/78/78 77/77/77
f 71/71/71 79/79/79 78/78/78
f 73/73/73 79/79/79 71/71/71
f 79/79/79 73/73/73 80/80/80
f 80/80/80 73/73/73 72/72/72
f 72/72/72 81/81/81 80/80/80
f 81/81/81 72/72/72 67/67/67
f 79/79/79 82/82/82 78/78/78
f 79/79/79 80/80/80 82/82/82
f 80/80/80 83/83/83 82/82/82
f 80/80/80 81/81/81 83/83/83
f 75/75/75 84/84/84 85/85/85
f 74/74/74 84/84/84 75/75/75
f 74/74/74 86/86/86 84/84/84
f 78/78/78 86/86/86 74/74/74
f 78/78/78 87/87/87 86/86/86
f 78/78/78 82/82/82 87/87/87
f 82/82/82 83/83/83 87/87/87
f 86/86/86 87/87/87 84/84/84
f 85/85/85 84/84/84 88/88/88
f 84/84/84 89/89/89 88/88/88
f 90/90/90 89/89/89 84/84/84
f 87/87/87 90/90/90 84/84/84
f 83/83/83 90/90/90 87/87/87
f 83/83/83 89/89/89 90/90/90
f 83/83/83 91/91/91 89/89/89
f 91/91/91 88/88/88 89/89/89
f 91/91/91 92/92/92 88/88/88
f 88/88/88 92/92/92 85/85/85
f 85/85/85 92/92/92 93/93/93
f 75/75/75 85/85/85 93/93/93
f 76/76/76 75/75/75 93/93/93
f 83/83/83 81/81/81 91/91/91
f 91/91/91 81/81/81 67/67/67
f 91/91/91 67/67/67 92/92/92
f 92/92/92 67/67/67 66/66/66
f 93/93/93 92/92/92 66/66/66
f 68/68/68 93/93/93 66/66/66
f 76/76/76 93/93/93 68/68/68
f 70/70/70 76/76/76 68/68/68
f 70/70/70 77/77/77 76/76/76
f 70/70/70 71/71/71 77/77/77
f 51/51/51 50/50/50 94/94/94
f 94/94/94 95/95/95 51/51/51
f 95/95/95 94/94/94 96/96/96
f 96/96/96 97/97/97 95/95/95
f 97/97/97 96/96/96 98/98/98
f 98/98/98 52/52/52 97/97/97
f 52/52/52 98/98/98 50/50/50
