# Exported using wow.export v0.1.65
o orcstaff01
mtllib orcstaff01.mtl
v 0.5362463593482971 -0.023360975086688995 -0.03126474842429161
v 0.25741127133369446 -0.026048028841614723 -0.03413405269384384
v 0.25733187794685364 0.005258954130113125 -0.006429822649806738
v -0.3088338077068329 -0.04527651518583298 0.019517282024025917
v -0.5879694819450378 -0.043454162776470184 0.01813652738928795
v -0.30885401368141174 -0.07462684065103531 -0.006455469410866499
v -0.5879567265510559 -0.07138021290302277 -0.006575889885425568
v -0.3089495301246643 -0.04527655988931656 -0.032428182661533356
v -0.5878961682319641 -0.043454162776470184 -0.0312882699072361
v -0.3089495301246643 -0.04527655988931656 -0.032428182661533356
v -0.2853245139122009 -0.04527651518583298 -0.0064307344146072865
v -0.30885401368141174 -0.07462684065103531 -0.006455469410866499
v -0.30887487530708313 -0.01592625305056572 -0.006455468013882637
v -0.3088338077068329 -0.04527651518583298 0.019517282024025917
v 0.2370574176311493 -0.016194362193346024 -0.006403442472219467
v 0.25733187794685364 0.005258954130113125 -0.006429822649806738
v 0.25741127133369446 -0.026048028841614723 -0.03413405269384384
v 0.2572878897190094 -0.02604798972606659 0.021274447441101074
v 0.2573093771934509 -0.057355012744665146 -0.0064298240467906
v -0.3099844455718994 0.014683286659419537 0.019517282024025917
v -0.5882089734077454 0.013650365173816681 0.01813652738928795
v -0.30883365869522095 -0.04527653753757477 0.019517285749316216
v -0.5879693031311035 -0.043454185128211975 0.01813652738928795
v -0.5881359577178955 0.01365034468472004 -0.0312882736325264
v -0.3099077641963959 0.014683225192129612 -0.032675400376319885
v -0.3087569773197174 -0.04527657479047775 -0.032675404101610184
v -0.5878962874412537 -0.04345420375466347 -0.0312882736325264
v 0.2572878897190094 -0.02604801021516323 0.02127445675432682
v 0.5365591645240784 0.03374355286359787 0.018160061910748482
v 0.536319375038147 -0.023360993713140488 0.018160061910748482
v 0.2585189938545227 0.03791654855012894 0.021267862990498543
v 0.2585591673851013 0.06921609491109848 -0.006429822649806738
v 0.5365331172943115 0.061669666320085526 -0.006552360951900482
v 0.5364858508110046 0.03374359384179115 -0.03126474469900131
v 0.5365591645240784 0.03374359756708145 0.018160054460167885
v 0.2585369348526001 0.006602106150239706 -0.0064298240467906
v 0.5365464687347412 0.005817505531013012 -0.006552362348884344
v 0.25852954387664795 0.037916529923677444 -0.034259311854839325
v 0.5364861488342285 0.03374353423714638 -0.03126474842429161
v 0.25720611214637756 -0.026048030704259872 -0.034397754818201065
v 0.5362463593482971 -0.02336101420223713 -0.03126474842429161
v 1.0306156873703003 -0.05036438629031181 -0.03126471862196922
v 1.0587234497070312 -0.05713530257344246 -0.006475924048572779
v 1.030676245689392 -0.07829047739505768 -0.00655233021825552
v 1.0306631326675415 -0.02243831381201744 -0.006552329286932945
v 1.0306888818740845 -0.05036438629031181 0.018160097301006317
v -0.6034088730812073 0.013361980207264423 -0.006499485112726688
v -0.5882090926170349 0.013650385662913322 0.0181365255266428
v -0.5881830453872681 0.04157647490501404 -0.006575888488441706
v -0.5881963968276978 -0.014275704510509968 -0.006575889885425568
v -0.5881357789039612 0.013650385662913322 -0.0312882699072361
v 0.5364858508110046 0.03374359384179115 -0.03126474469900131
v 0.5645936131477356 0.026972675696015358 -0.006475956179201603
v 0.5365464687347412 0.005817505531013012 -0.006552362348884344
v 0.5365331172943115 0.061669666320085526 -0.006552360951900482
v 0.5365591645240784 0.03374359756708145 0.018160054460167885
v -0.3089495301246643 -0.04527655988931656 -0.032428182661533356
v -0.5878961682319641 -0.043454162776470184 -0.0312882699072361
v -0.30887487530708313 -0.01592625305056572 -0.006455468013882637
v -0.5879433751106262 -0.015528094954788685 -0.006575888488441706
v -0.3088338077068329 -0.04527651518583298 0.019517282024025917
v -0.5879694819450378 -0.043454162776470184 0.01813652738928795
v 0.5363195538520813 -0.023360975086688995 0.018160061910748482
v 0.8611619472503662 -0.04970001429319382 0.018160095438361168
v 0.536293625831604 0.004565095994621515 -0.006552360951900482
v 0.8611878156661987 -0.021773943677544594 -0.006552328355610371
v 0.5362463593482971 -0.023360975086688995 -0.03126474842429161
v 0.8612351417541504 -0.04970003291964531 -0.03126472979784012
v 0.5363067984580994 -0.05128704383969307 -0.006552362348884344
v 0.8611746430397034 -0.07762612402439117 -0.0065523297525942326
v 0.25741127133369446 -0.026048028841614723 -0.03413405269384384
v 0.5362463593482971 -0.023360975086688995 -0.03126474842429161
v 0.5363067984580994 -0.05128704383969307 -0.006552362348884344
v 0.2573093771934509 -0.057355012744665146 -0.0064298240467906
v 0.5363195538520813 -0.023360975086688995 0.018160061910748482
v 0.2572878897190094 -0.02604798972606659 0.021274447441101074
v -0.5881357789039612 0.013650385662913322 -0.0312882699072361
v -0.3101003170013428 0.014683225192129612 -0.032428182661533356
v -0.5881963968276978 -0.014275704510509968 -0.006575889885425568
v -0.3100047707557678 -0.014667057432234287 -0.006455469410866499
v -0.3100256621837616 0.04403354972600937 -0.006455468013882637
v -0.5881830453872681 0.04157647490501404 -0.006575888488441706
v -0.30998459458351135 0.014683286659419537 0.019517282024025917
v -0.5882090926170349 0.013650385662913322 0.0181365255266428
v 0.2585591673851013 0.06921609491109848 -0.006429822649806738
v -0.0033672477584332228 0.0706554427742958 -0.006441636476665735
v 0.2585189938545227 0.03791654855012894 0.021267862990498543
v -0.02056683413684368 0.039551060646772385 0.020408479496836662
v 0.25854411721229553 0.006661649327725172 -0.0064298240467906
v -0.3100256621837616 0.04403354972600937 -0.006455468013882637
v 0.25852954387664795 0.037916529923677444 -0.034259311854839325
v -0.010136737488210201 0.03997927904129028 -0.03339414298534393
v -0.3101003170013428 0.014683225192129612 -0.032428182661533356
v -0.30998459458351135 0.014683286659419537 0.019517282024025917
v -0.01027930248528719 0.009616957046091557 -0.006441949866712093
v -0.3100047707557678 -0.014667057432234287 -0.006455469410866499
v 0.8611619472503662 -0.04970001429319382 0.018160095438361168
v 1.0306888818740845 -0.05036438629031181 0.018160097301006317
v 1.0306631326675415 -0.02243831381201744 -0.006552329286932945
v 0.8611878156661987 -0.021773943677544594 -0.006552328355610371
v 0.8611746430397034 -0.07762612402439117 -0.0065523297525942326
v 1.030676245689392 -0.07829047739505768 -0.00655233021825552
v 0.8612351417541504 -0.04970003291964531 -0.03126472979784012
v 1.0306156873703003 -0.05036438629031181 -0.03126471862196922
v -1.3019559383392334 0.00572859775274992 0.020144272595643997
v -1.2738559246063232 0.0064477864652872086 0.025341371074318886
v -1.3019564151763916 0.03573209047317505 -0.006406473461538553
v -1.2738895416259766 0.04254089295864105 -0.006598270032554865
v -1.3179280757904053 0.005969482008367777 -0.006476645823568106
v -0.8507705330848694 -0.0018850391497835517 -0.006587037350982428
v -0.5879433751106262 -0.015528094954788685 -0.006575888488441706
v -0.5878961682319641 -0.043454162776470184 -0.0312882699072361
v -0.8506955504417419 -0.03388300910592079 -0.03489891067147255
v -1.2739506959915161 0.006447806488722563 -0.03853786736726761
v -1.3019564151763916 0.005728617776185274 -0.03295718878507614
v -1.3019559383392334 -0.02427489124238491 -0.006406474858522415
v -1.2738722562789917 -0.029645336791872978 -0.006598271895200014
v -0.8477790951728821 -0.03401654213666916 0.02170559950172901
v -0.8487878441810608 -0.06594964116811752 -0.0065869977697730064
v -0.5879694819450378 -0.043454162776470184 0.01813652738928795
v -0.5879567265510559 -0.07138021290302277 -0.006575889885425568
v 0.2572878897190094 -0.02604798972606659 0.021274447441101074
v 0.5363195538520813 -0.023360975086688995 0.018160061910748482
v 0.536293625831604 0.004565095994621515 -0.006552360951900482
vn 0.015031320974230766 0.2828998863697052 -0.9590316414833069
vn -0.3730916976928711 -0.14271503686904907 -0.9167523980140686
vn -0.3399426341056824 0.9136355519294739 -0.22295527160167694
vn 0.34343862533569336 0.17973507940769196 0.9218162298202515
vn -0.0018622054485604167 -0.2830561399459839 0.9591015577316284
vn 0.373953640460968 -0.9000959992408752 0.22357511520385742
vn -0.015118168666958809 -0.9356639981269836 -0.352568119764328
vn 0.34144285321235657 -0.17953889071941376 -0.9225955605506897
vn 0.010700839571654797 0.2828342616558075 -0.9591091275215149
vn 0.34144285321235657 -0.17953889071941376 -0.9225955605506897
vn 0.9999993443489075 0.0002632118412293494 -0.00113453040830791
vn 0.373953640460968 -0.9000959992408752 0.22357511520385742
vn 0.3805471658706665 0.8972987532615662 -0.2236935943365097
vn 0.34343862533569336 0.17973507940769196 0.9218162298202515
vn -0.9942969679832458 0.10663949698209763 -0.0012558134039863944
vn -0.3399426341056824 0.9136355519294739 -0.22295527160167694
vn -0.3730916976928711 -0.14271503686904907 -0.9167523980140686
vn -0.3706270456314087 0.2212003469467163 0.9020565152168274
vn -0.4771097004413605 -0.8487356305122375 0.22806623578071594
vn 0.004962306935340166 0.00009515057899989188 -0.9999876618385315
vn 0.004954461008310318 0.00005795295146526769 -0.9999877214431763
vn 0.004954461008310318 0.00005795295146526769 -0.9999877214431763
vn 0.0049466160126030445 0.000020755336663569324 -0.999987781047821
vn 0.004977262578904629 0.000058226902183378115 0.9999876022338867
vn 0.0049851443618535995 0.00009559724276186898 0.9999875426292419
vn 0.004977262578904629 0.000058226902183378115 0.9999876022338867
vn 0.004969380330294371 0.00002085656888084486 0.9999876618385315
vn -0.011168152093887329 0.0000794317529653199 -0.9999376535415649
vn -0.011168152093887329 0.0000794317529653199 -0.9999376535415649
vn -0.011161181144416332 0.00004686799366027117 -0.9999377131462097
vn 0.007244135718792677 0.28043267130851746 0.9598463773727417
vn 0.01505204662680626 0.9357433319091797 -0.35236042737960815
vn 0.39173224568367004 0.8929243683815002 0.22188274562358856
vn 0.30054324865341187 0.15724734961986542 -0.9407162070274353
vn 0.2926790416240692 -0.19868077337741852 0.9353421330451965
vn -0.002499823924154043 -0.9356474280357361 0.3529272675514221
vn 0.26278847455978394 -0.9391997456550598 -0.22101140022277832
vn 0.0003958989982493222 -0.2836812138557434 -0.958918571472168
vn -0.011014745570719242 -0.0009467803756706417 0.9999389052391052
vn -0.011014745570719242 -0.0009467803756706417 0.9999389052391052
vn -0.011227516457438469 0.00004715079194284044 0.9999369978904724
vn 0.29275986552238464 0.1571654975414276 -0.9431811571121216
vn 0.9972646832466125 -0.07391291111707687 0.00012554957356769592
vn 0.26228195428848267 -0.939216136932373 -0.22154271602630615
vn 0.37993481755256653 0.8977084159851074 0.22308993339538574
vn 0.28831589221954346 -0.19897708296775818 0.9366333484649658
vn -0.9999949932098389 -0.003160336287692189 -0.000011927137165912427
vn -0.42899394035339355 -0.184548482298851 0.884254515171051
vn -0.47290411591529846 0.851698100566864 0.22576989233493805
vn -0.4651181697845459 -0.8558843731880188 -0.22611285746097565
vn -0.4303649961948395 0.18182066082954407 -0.8841533660888672
vn 0.30054324865341187 0.15724734961986542 -0.9407162070274353
vn 0.9972649812698364 -0.07390877604484558 0.0001235693198395893
vn 0.26278847455978394 -0.9391997456550598 -0.22101140022277832
vn 0.39173224568367004 0.8929243683815002 0.22188274562358856
vn 0.2926790416240692 -0.19868077337741852 0.9353421330451965
vn 0.34144285321235657 -0.17953889071941376 -0.9225955605506897
vn 0.010700839571654797 0.2828342616558075 -0.9591091275215149
vn 0.3805471658706665 0.8972987532615662 -0.2236935943365097
vn 0.02485552616417408 0.9355133771896362 0.3524158298969269
vn 0.34343862533569336 0.17973507940769196 0.9218162298202515
vn -0.0018622054485604167 -0.2830561399459839 0.9591015577316284
vn -0.004741110373288393 -0.28289541602134705 0.9591390490531921
vn 0.012013783678412437 0.28289973735809326 0.9590742588043213
vn 0.039119284600019455 0.935096800327301 0.35222676396369934
vn 0.039706356823444366 0.9350737929344177 -0.3522220551967621
vn 0.015031320974230766 0.2828998863697052 -0.9590316414833069
vn -0.012014065869152546 -0.2828933000564575 -0.9590761661529541
vn -0.027786945924162865 -0.9354497790336609 -0.35236576199531555
vn -0.03971312940120697 -0.9350752830505371 0.3522173762321472
vn -0.3730916976928711 -0.14271503686904907 -0.9167523980140686
vn 0.015031320974230766 0.2828998863697052 -0.9590316414833069
vn -0.027786945924162865 -0.9354497790336609 -0.35236576199531555
vn -0.4771097004413605 -0.8487356305122375 0.22806623578071594
vn -0.004741110373288393 -0.28289541602134705 0.9591390490531921
vn -0.3706270456314087 0.2212003469467163 0.9020565152168274
vn -0.4303649961948395 0.18182066082954407 -0.8841533660888672
vn -0.015456764958798885 0.0007795362616889179 -0.9998802542686462
vn -0.4651181697845459 -0.8558843731880188 -0.22611285746097565
vn 0.039622414857149124 -0.9992145895957947 0.0005332965520210564
vn -0.04817237704992294 0.99883633852005 -0.0023325863294303417
vn -0.47290411591529846 0.851698100566864 0.22576989233493805
vn 0.007767888717353344 0.0013395724818110466 0.999968945980072
vn -0.42899394035339355 -0.184548482298851 0.884254515171051
vn 0.01505204662680626 0.9357433319091797 -0.35236042737960815
vn -0.04160608723759651 0.9991337656974792 0.0007797423750162125
vn 0.007244135718792677 0.28043267130851746 0.9598463773727417
vn -0.01679469458758831 -0.0008147524204105139 0.9998586177825928
vn -0.009783108718693256 -0.9369453191757202 0.3493390679359436
vn -0.04817237704992294 0.99883633852005 -0.0023325863294303417
vn 0.0003958989982493222 -0.2836812138557434 -0.958918571472168
vn 0.010572641156613827 0.0003766082809306681 -0.9999440312385559
vn -0.015456764958798885 0.0007795362616889179 -0.9998802542686462
vn 0.007767888717353344 0.0013395724818110466 0.999968945980072
vn 0.034973327070474625 -0.9993880987167358 0.00052080542081967
vn 0.039622414857149124 -0.9992145895957947 0.0005332965520210564
vn 0.012013783678412437 0.28289973735809326 0.9590742588043213
vn 0.28831589221954346 -0.19897708296775818 0.9366333484649658
vn 0.37993481755256653 0.8977084159851074 0.22308993339538574
vn 0.039706356823444366 0.9350737929344177 -0.3522220551967621
vn -0.03971312940120697 -0.9350752830505371 0.3522173762321472
vn 0.26228195428848267 -0.939216136932373 -0.22154271602630615
vn -0.012014065869152546 -0.2828933000564575 -0.9590761661529541
vn 0.29275986552238464 0.1571654975414276 -0.9431811571121216
vn -0.6042400598526001 0.00033146573696285486 0.7968022227287292
vn -0.08853898197412491 0.12455550581216812 0.9882544279098511
vn -0.5356698632240295 0.8444274663925171 0.000279922503978014
vn -0.03233903646469116 0.9747793078422546 -0.22081542015075684
vn -0.9999961853027344 0.002592169912531972 -0.0009607461397536099
vn 0.07813576608896255 0.9969424605369568 -0.0007175537757575512
vn 0.02485552616417408 0.9355133771896362 0.3524158298969269
vn 0.010700839571654797 0.2828342616558075 -0.9591091275215149
vn 0.01981351152062416 -0.0006844112067483366 -0.9998034834861755
vn -0.11983683705329895 -0.12675681710243225 -0.9846683740615845
vn -0.6077731847763062 0.00026076496578752995 -0.7941106557846069
vn -0.5133596658706665 -0.8581735491752625 0.00015400919073726982
vn -0.12344414740800858 -0.9677065014839172 0.21978546679019928
vn 0.0025120764039456844 0.0004166135040577501 0.9999967813491821
vn -0.05305017530918121 -0.9985917210578918 0.0005233093979768455
vn -0.0018622054485604167 -0.2830561399459839 0.9591015577316284
vn -0.015118168666958809 -0.9356639981269836 -0.352568119764328
vn -0.3706270456314087 0.2212003469467163 0.9020565152168274
vn -0.004741110373288393 -0.28289541602134705 0.9591390490531921
vn 0.039119284600019455 0.935096800327301 0.35222676396369934
vt 0.0078125 0.96875
vt 0.9921875 0.96875
vt 0.9921875 0.53125
vt 0.9921875 0.53125
vt 0.0078125 0.53125
vt 0.9921875 0.96875
vt 0.0078125 0.96875
vt 0.9921875 0.53125
vt 0.0078125 0.53125
vt 0.3125 0.46875
vt 0.1875 0.25
vt 0.3125 0.03125
vt 0.3125 0.03125
vt 0.3125 0.46875
vt 0.0234375 0.3125
vt 0.1875 0.03125
vt 0.1875 0.46875
vt 0.1875 0.46875
vt 0.1875 0.03125
vt 0.9921875 0.96875
vt 0.0078125 0.96875
vt 0.9921875 0.53125
vt 0.0078125 0.53125
vt 0.0078125 0.96875
vt 0.9921875 0.96875
vt 0.9921875 0.53125
vt 0.0078125 0.53125
vt 0.9921875 0.53125
vt 0.0078125 0.96875
vt 0.0078125 0.53125
vt 0.9921875 0.96875
vt 0.9921875 0.53125
vt 0.0078125 0.53125
vt 0.0078125 0.96875
vt 0.0078125 0.96875
vt 0.9921875 0.53125
vt 0.0078125 0.53125
vt 0.9921875 0.96875
vt 0.0078125 0.96875
vt 0.9921875 0.53125
vt 0.0078125 0.53125
vt 0.15625 0.46875
vt 0.015625 0.375
vt 0.15625 0.03125
vt 0.15625 0.03125
vt 0.15625 0.46875
vt 0.046875 0.46875
vt 0.265625 0.46875
vt 0.265625 0.03125
vt 0.265625 0.03125
vt 0.265625 0.46875
vt 0.15625 0.46875
vt 0.015625 0.375
vt 0.15625 0.03125
vt 0.15625 0.03125
vt 0.15625 0.46875
vt 0.9921875 0.96875
vt 0.0078125 0.96875
vt 0.9921875 0.53125
vt 0.0078125 0.53125
vt 0.9921875 0.96875
vt 0.0078125 0.96875
vt 0.9921875 0.46875
vt 0.4190821051597595 0.46875
vt 0.9921875 0.03125
vt 0.4190821051597595 0.03125
vt 0.9921875 0.46875
vt 0.4190821051597595 0.46875
vt 0.9921875 0.03125
vt 0.4190821051597595 0.03125
vt 0.9921875 0.53125
vt 0.0078125 0.53125
vt 0.0078125 0.96875
vt 0.9921875 0.96875
vt 0.0078125 0.53125
vt 0.9921875 0.53125
vt 0.0078125 0.96875
vt 0.9921875 0.96875
vt 0.0078125 0.53125
vt 0.9921875 0.53125
vt 0.9921875 0.53125
vt 0.0078125 0.53125
vt 0.9921875 0.96875
vt 0.0078125 0.96875
vt 0.9375 0.03125
vt 0.5918989181518555 0.03125
vt 0.9375 0.46875
vt 0.6143495440483093 0.46875
vt 0.9375 0.03125
vt 0.9921875 0.03125
vt 0.9375 0.46875
vt 0.6006688475608826 0.46875
vt 0.9921875 0.46875
vt 0.9921875 0.46875
vt 0.6009238958358765 0.03125
vt 0.9921875 0.03125
vt 0.9921875 0.96875
vt 0.0078125 0.96875
vt 0.0078125 0.53125
vt 0.9921875 0.53125
vt 0.9921875 0.53125
vt 0.0078125 0.53125
vt 0.9921875 0.96875
vt 0.0078125 0.96875
vt 0.0859375 0.46875
vt 0.25 0.46875
vt 0.0859375 0.03125
vt 0.25 0.03125
vt 0 0.46875
vt 0.6224873065948486 0.03125
vt 0.9921875 0.03125
vt 0.9921875 0.46875
vt 0.6225430965423584 0.46875
vt 0.25 0.46875
vt 0.0859375 0.46875
vt 0.0859375 0.03125
vt 0.25 0.03125
vt 0.6245290040969849 0.46875
vt 0.6238409280776978 0.03125
vt 0.9921875 0.46875
vt 0.9921875 0.03125
vt 0.9921875 0.96875
vt 0.0078125 0.96875
vt 0.0078125 0.53125
g Geoset0
s 1
usemtl mat_stave_2h_other_a_01blue
f 1/1/1 2/2/2 3/3/3
f 4/4/4 5/5/5 6/6/6
f 7/7/7 6/6/6 5/5/5
f 6/6/6 7/7/7 8/8/8
f 9/9/9 8/8/8 7/7/7
f 10/10/10 11/11/11 12/12/12
f 13/13/13 11/11/11 10/10/10
f 14/14/14 11/11/11 13/13/13
f 12/12/12 11/11/11 14/14/14
f 15/15/15 16/16/16 17/17/17
f 15/15/15 18/18/18 16/16/16
f 15/15/15 19/19/19 18/18/18
f 15/15/15 17/17/17 19/19/19
f 20/20/20 21/21/21 22/22/22
f 23/23/23 22/22/22 21/21/21
f 22/22/22 21/21/21 20/20/20
f 21/21/21 22/22/22 23/23/23
f 24/24/24 25/25/25 26/26/26
f 26/26/26 27/27/27 24/24/24
f 26/26/26 25/25/25 24/24/24
f 24/24/24 27/27/27 26/26/26
f 28/28/28 29/29/29 30/30/30
f 28/28/28 30/30/30 29/29/29
f 29/29/29 28/28/28 31/31/31
f 29/29/29 31/31/31 28/28/28
f 32/32/32 33/33/33 34/34/34
f 33/33/33 32/32/32 31/31/31
f 31/31/31 35/35/35 33/33/33
f 35/35/35 31/31/31 36/36/36
f 36/36/36 37/37/37 35/35/35
f 37/37/37 36/36/36 38/38/38
f 34/34/34 38/38/38 32/32/32
f 38/38/38 34/34/34 37/37/37
f 38/38/38 39/39/39 40/40/40
f 41/41/41 40/40/40 39/39/39
f 38/38/38 40/40/40 39/39/39
f 41/41/41 39/39/39 40/40/40
f 42/42/42 43/43/43 44/44/44
f 45/45/45 43/43/43 42/42/42
f 46/46/46 43/43/43 45/45/45
f 44/44/44 43/43/43 46/46/46
f 47/47/47 48/48/48 49/49/49
f 47/47/47 50/50/50 48/48/48
f 47/47/47 51/51/51 50/50/50
f 47/47/47 49/49/49 51/51/51
f 52/52/52 53/53/53 54/54/54
f 55/55/55 53/53/53 52/52/52
f 56/56/56 53/53/53 55/55/55
f 54/54/54 53/53/53 56/56/56
f 57/57/57 58/58/58 59/59/59
f 60/60/60 59/59/59 58/58/58
f 59/59/59 60/60/60 61/61/61
f 62/62/62 61/61/61 60/60/60
f 63/63/63 64/64/64 65/65/65
f 66/66/66 65/65/65 64/64/64
f 65/65/65 66/66/66 67/67/67
f 68/68/68 67/67/67 66/66/66
f 67/67/67 68/68/68 69/69/69
f 70/70/70 69/69/69 68/68/68
f 69/69/69 70/70/70 63/63/63
f 64/64/64 63/63/63 70/70/70
f 71/71/71 72/72/72 73/73/73
f 73/73/73 74/74/74 71/71/71
f 74/74/74 73/73/73 75/75/75
f 75/75/75 76/76/76 74/74/74
f 77/77/77 78/78/78 79/79/79
f 80/80/80 79/79/79 78/78/78
f 78/78/78 77/77/77 81/81/81
f 82/82/82 81/81/81 77/77/77
f 81/81/81 82/82/82 83/83/83
f 84/84/84 83/83/83 82/82/82
f 83/83/83 84/84/84 80/80/80
f 79/79/79 80/80/80 84/84/84
f 85/85/85 86/86/86 87/87/87
f 87/87/87 88/88/88 89/89/89
f 86/86/86 88/88/88 87/87/87
f 88/88/88 86/86/86 90/90/90
f 91/91/91 92/92/92 85/85/85
f 92/92/92 86/86/86 85/85/85
f 86/86/86 92/92/92 93/93/93
f 90/90/90 86/86/86 93/93/93
f 94/94/94 88/88/88 90/90/90
f 95/95/95 88/88/88 94/94/94
f 88/88/88 95/95/95 89/89/89
f 96/96/96 95/95/95 94/94/94
f 93/93/93 92/92/92 96/96/96
f 92/92/92 95/95/95 96/96/96
f 95/95/95 92/92/92 91/91/91
f 89/89/89 95/95/95 91/91/91
f 97/97/97 98/98/98 99/99/99
f 99/99/99 100/100/100 97/97/97
f 98/98/98 97/97/97 101/101/101
f 101/101/101 102/102/102 98/98/98
f 102/102/102 101/101/101 103/103/103
f 103/103/103 104/104/104 102/102/102
f 104/104/104 103/103/103 100/100/100
f 100/100/100 99/99/99 104/104/104
f 105/105/105 106/106/106 107/107/107
f 108/108/108 107/107/107 106/106/106
f 105/105/105 107/107/107 109/109/109
f 110/110/110 111/111/111 112/112/112
f 112/112/112 113/113/113 110/110/110
f 108/108/108 110/110/110 113/113/113
f 113/113/113 114/114/114 108/108/108
f 107/107/107 108/108/108 114/114/114
f 114/114/114 115/115/115 107/107/107
f 107/107/107 115/115/115 109/109/109
f 109/109/109 115/115/115 116/116/116
f 105/105/105 109/109/109 116/116/116
f 106/106/106 105/105/105 116/116/116
f 115/115/115 114/114/114 116/116/116
f 117/117/117 116/116/116 114/114/114
f 116/116/116 117/117/117 106/106/106
f 110/110/110 108/108/108 106/106/106
f 106/106/106 118/118/118 110/110/110
f 118/118/118 106/106/106 117/117/117
f 117/117/117 119/119/119 118/118/118
f 119/119/119 117/117/117 114/114/114
f 114/114/114 113/113/113 119/119/119
f 111/111/111 110/110/110 118/118/118
f 118/118/118 120/120/120 111/111/111
f 120/120/120 118/118/118 119/119/119
f 119/119/119 121/121/121 120/120/120
f 121/121/121 119/119/119 113/113/113
f 113/113/113 112/112/112 121/121/121
f 122/122/122 123/123/123 124/124/124
f 124/124/124 3/3/3 122/122/122
f 3/3/3 124/124/124 1/1/1
