# Exported using wow.export v0.1.65
o orcstaff05
mtllib orcstaff05.mtl
v -1.012292504310608 0.05891522392630577 -0.025990376248955727
v -1.0116517543792725 0.03970997408032417 -0.005573006812483072
v -1.0157018899917603 0.07913289219141006 -0.006865950766950846
v 0.5285601019859314 -0.03585939481854439 -0.0005839181249029934
v 0.46042415499687195 -0.08502643555402756 -0.0023110874462872744
v 0.461380273103714 -0.028160741552710533 -0.06965450197458267
v 0.3780117332935333 -0.07393346726894379 -0.003202972235158086
v 0.4564822018146515 -0.02268553338944912 0.0617201067507267
v -0.3545171320438385 0.04981390759348869 -0.02699904702603817
v -0.3509119749069214 0.08438286930322647 0.006733804941177368
v -0.6839178204536438 0.07633288204669952 -0.014369027689099312
v -0.6841246485710144 0.10519741475582123 -0.04503899812698364
v -0.3461139500141144 0.08267581462860107 -0.06157355383038521
v -0.6884493827819824 0.13569103181362152 -0.016311222687363625
v -0.3425087034702301 0.11724477261304855 -0.02784072421491146
v -0.688242495059967 0.10682652145624161 0.014358741231262684
v -1.0116517543792725 0.03970997408032417 -0.005573006812483072
v -1.012292504310608 0.05891522392630577 -0.025990376248955727
v -1.0157018899917603 0.07913289219141006 -0.006865950766950846
v -1.0150612592697144 0.05992763489484787 0.013551421463489532
v 0.13421863317489624 -0.009289039298892021 0.0011783130466938019
v 0.11687102913856506 0.029684819281101227 0.03653089702129364
v -0.10714425146579742 -0.00924332533031702 -0.015216286294162273
v -0.10410468280315399 0.025335920974612236 0.016981810331344604
v 0.1119627133011818 0.06524145603179932 -0.0022639830131083727
v -0.09699435532093048 0.054066624492406845 -0.017592696473002434
v 0.12163012474775314 0.026872044429183006 -0.03761657699942589
v -0.10013329982757568 0.022334057837724686 -0.04979079216718674
v -0.3545171320438385 0.04981390759348869 -0.02699904702603817
v -0.3461139500141144 0.08267581462860107 -0.06157355383038521
v -0.3509119749069214 0.08438286930322647 0.006733804941177368
v -0.3425087034702301 0.11724477261304855 -0.02784072421491146
v 0.2349720001220703 0.027722878381609917 0.009391922503709793
v 0.13421863317489624 -0.009289039298892021 0.0011783130466938019
v 0.12163012474775314 0.026872044429183006 -0.03761657699942589
v 0.2319842129945755 0.0675635114312172 0.04298771545290947
v 0.11687102913856506 0.029684819281101227 0.03653089702129364
v 0.23152105510234833 0.11204050481319427 0.007797677535563707
v 0.1119627133011818 0.06524145603179932 -0.0022639830131083727
v 0.23277844488620758 0.0649128183722496 -0.024578409269452095
v 0.3216170370578766 0.026131561025977135 0.002764288568869233
v 0.34750092029571533 0.0733606219291687 0.04991759732365608
v 0.36883673071861267 0.12364178150892258 -0.007153733167797327
v 0.46601220965385437 0.06264134496450424 -0.003949514124542475
v 0.3502589464187622 0.07102516293525696 -0.04039445146918297
v 0.461380273103714 -0.028160741552710533 -0.06965450197458267
v 0.3760465979576111 -0.01906457543373108 -0.004162240773439407
v 0.3780117332935333 -0.07393346726894379 -0.003202972235158086
v 0.3780117332935333 -0.07393346726894379 -0.003202972235158086
v 0.4564822018146515 -0.02268553338944912 0.0617201067507267
v 0.5285601019859314 -0.03585939481854439 -0.0005839181249029934
v -1.0150612592697144 0.05992763489484787 0.013551421463489532
vn -0.3938692808151245 -0.3486083745956421 -0.8504934906959534
vn -0.5892687439918518 -0.7776551842689514 0.21912270784378052
vn -0.7531265616416931 0.5901570320129395 -0.29071471095085144
vn 0.9781063795089722 -0.20181097090244293 0.05079589784145355
vn 0.255900502204895 -0.9656121134757996 0.045914892107248306
vn 0.042292382568120956 -0.22541970014572144 -0.9733433723449707
vn -0.6885029077529907 -0.7250929474830627 0.014281167648732662
vn 0.04202619940042496 -0.22090622782707214 0.9743891358375549
vn -0.16826465725898743 -0.985575258731842 0.01812078058719635
vn 0.027567589655518532 0.02356063202023506 0.9993422627449036
vn 0.018404966220259666 -0.999416708946228 0.02876656875014305
vn -0.08585521578788757 -0.03302445262670517 -0.9957601428031921
vn -0.03207254037261009 -0.017153725028038025 -0.9993383288383484
vn -0.06193361058831215 0.9976422190666199 -0.029566537588834763
vn 0.1630191206932068 0.9865648746490479 -0.010700381360948086
vn 0.04235894978046417 0.030050290748476982 0.9986504316329956
vn -0.5892687439918518 -0.7776551842689514 0.21912270784378052
vn -0.3938692808151245 -0.3486083745956421 -0.8504934906959534
vn -0.7531265616416931 0.5901570320129395 -0.29071471095085144
vn -0.46042385697364807 0.2771071791648865 0.8433395028114319
vn 0.16423362493515015 -0.9852840304374695 0.047357190400362015
vn -0.13163450360298157 0.00575419282540679 0.9912816286087036
vn -0.12455639988183975 -0.9916802644729614 0.032494671642780304
vn -0.10711301118135452 0.05702758580446243 0.9926100373268127
vn -0.1806744784116745 0.9803522229194641 -0.07915986329317093
vn 0.10676807165145874 0.993619978427887 -0.03632987663149834
vn 0.1282641887664795 0.00897261407226324 -0.9916994571685791
vn 0.09207778424024582 -0.02609914541244507 -0.9954097270965576
vn -0.16826465725898743 -0.985575258731842 0.01812078058719635
vn -0.03207254037261009 -0.017153725028038025 -0.9993383288383484
vn 0.027567589655518532 0.02356063202023506 0.9993422627449036
vn 0.1630191206932068 0.9865648746490479 -0.010700381360948086
vn 0.2204599529504776 -0.9576936364173889 -0.18498721718788147
vn 0.16423362493515015 -0.9852840304374695 0.047357190400362015
vn 0.1282641887664795 0.00897261407226324 -0.9916994571685791
vn 0.01642627827823162 -0.11741690337657928 0.9929468631744385
vn -0.13163450360298157 0.00575419282540679 0.9912816286087036
vn -0.25645071268081665 0.9495741724967957 0.18039366602897644
vn -0.1806744784116745 0.9803522229194641 -0.07915986329317093
vn -0.07273291051387787 0.06534186750650406 -0.9952086806297302
vn -0.24239572882652283 -0.9701687693595886 -0.004102854989469051
vn -0.056005194783210754 0.02923589013516903 0.9980023503303528
vn 0.09712472558021545 0.9899773001670837 -0.10252682119607925
vn 0.6652576923370361 0.7454970479011536 -0.040820781141519547
vn -0.1402495801448822 -0.001198350335471332 -0.9901154637336731
vn 0.042292382568120956 -0.22541970014572144 -0.9733433723449707
vn -0.8447191119194031 -0.5347447991371155 -0.022307446226477623
vn -0.6885029077529907 -0.7250929474830627 0.014281167648732662
vn -0.6885029077529907 -0.7250929474830627 0.014281167648732662
vn 0.04202619940042496 -0.22090622782707214 0.9743891358375549
vn 0.9781063795089722 -0.20181097090244293 0.05079589784145355
vn -0.46042385697364807 0.2771071791648865 0.8433395028114319
vt 0.9830749034881592 0.2409806251525879
vt 0.5247212052345276 0.2415289282798767
vt 0.9825253486633301 0.009678661823272705
vt 0.9819226264953613 0.005726993083953857
vt 0.7595909833908081 0.11500364542007446
vt 0.5007913708686829 0.005486488342285156
vt 0.5013960599899292 0.2444976568222046
vt 0.98326176404953 0.2446984052658081
vt 0.010220538824796677 0.00878530740737915
vt 0.253465473651886 0.00808805227279663
vt 0.010260247625410557 0.9966392517089844
vt 0.25319284200668335 0.9968143701553345
vt 0.25312340259552 0.00879061222076416
vt 0.4805498719215393 0.9965688586235046
vt 0.48100483417510986 0.00809335708618164
vt 0.25448036193847656 0.9963937401771545
vt 0.010069248266518116 0.008105874061584473
vt 0.253030389547348 0.008289039134979248
vt 0.48076748847961426 0.008032262325286865
vt 0.25388750433921814 0.007849037647247314
vt 0.5105359554290771 0.9959542751312256
vt 0.7473511099815369 0.995306134223938
vt 0.5106080174446106 0.6040339469909668
vt 0.747382402420044 0.6049296855926514
vt 0.9841256737709045 0.9953526258468628
vt 0.9840285778045654 0.6059972047805786
vt 0.7473042607307434 0.9955577850341797
vt 0.7473223209381104 0.605150580406189
vt 0.5110123157501221 0.25576603412628174
vt 0.7478928565979004 0.25590580701828003
vt 0.7479038238525391 0.2558267116546631
vt 0.9846602082252502 0.2559664249420166
vt 0.011865139938890934 0.4074903726577759
vt 0.011784642934799194 0.010227680206298828
vt 0.25799259543418884 0.009813666343688965
vt 0.2580920457839966 0.40666937828063965
vt 0.2579951882362366 0.009796738624572754
vt 0.4842499792575836 0.4075508117675781
vt 0.4839724600315094 0.010136306285858154
vt 0.25808900594711304 0.40668511390686035
vt 0.011875937692821026 0.6297737956047058
vt 0.25811195373535156 0.6290603280067444
vt 0.4843117296695709 0.6299007534980774
vt 0.48433342576026917 0.8035155534744263
vt 0.25810903310775757 0.6290707588195801
vt 0.258008748292923 0.8028048276901245
vt 0.011701559647917747 0.8034181594848633
vt 0.011643468402326107 0.997488260269165
vt 0.011643480509519577 0.9974881410598755
vt 0.2580156922340393 0.8027532696723938
vt 0.4843076765537262 0.9975706934928894
vt 0.5241715908050537 0.010226905345916748
g Geoset0
s 1
usemtl mat_stave_2h_long_a_01green
f 1/1/1 2/2/2 3/3/3
f 4/4/4 5/5/5 6/6/6
f 5/5/5 7/7/7 6/6/6
f 5/5/5 8/8/8 7/7/7
f 4/4/4 8/8/8 5/5/5
f 9/9/9 10/10/10 11/11/11
f 9/9/9 11/11/11 12/12/12
f 13/13/13 9/9/9 12/12/12
f 13/13/13 12/12/12 14/14/14
f 15/15/15 13/13/13 14/14/14
f 15/15/15 14/14/14 16/16/16
f 11/11/11 17/17/17 18/18/18
f 11/11/11 16/16/16 17/17/17
f 10/10/10 16/16/16 11/11/11
f 10/10/10 15/15/15 16/16/16
f 12/12/12 11/11/11 18/18/18
f 12/12/12 18/18/18 19/19/19
f 14/14/14 12/12/12 19/19/19
f 14/14/14 19/19/19 20/20/20
f 16/16/16 14/14/14 20/20/20
f 16/16/16 20/20/20 17/17/17
f 21/21/21 22/22/22 23/23/23
f 22/22/22 24/24/24 23/23/23
f 22/22/22 25/25/25 24/24/24
f 25/25/25 26/26/26 24/24/24
f 25/25/25 27/27/27 26/26/26
f 27/27/27 28/28/28 26/26/26
f 23/23/23 29/29/29 30/30/30
f 28/28/28 23/23/23 30/30/30
f 21/21/21 23/23/23 28/28/28
f 27/27/27 21/21/21 28/28/28
f 23/23/23 24/24/24 29/29/29
f 24/24/24 31/31/31 29/29/29
f 24/24/24 26/26/26 31/31/31
f 26/26/26 32/32/32 31/31/31
f 26/26/26 28/28/28 32/32/32
f 28/28/28 30/30/30 32/32/32
f 33/33/33 34/34/34 35/35/35
f 33/33/33 36/36/36 34/34/34
f 36/36/36 37/37/37 34/34/34
f 36/36/36 38/38/38 37/37/37
f 38/38/38 39/39/39 37/37/37
f 38/38/38 40/40/40 39/39/39
f 40/40/40 35/35/35 39/39/39
f 40/40/40 33/33/33 35/35/35
f 33/33/33 40/40/40 41/41/41
f 33/33/33 41/41/41 36/36/36
f 41/41/41 42/42/42 36/36/36
f 42/42/42 43/43/43 36/36/36
f 44/44/44 43/43/43 42/42/42
f 44/44/44 45/45/45 43/43/43
f 46/46/46 45/45/45 44/44/44
f 46/46/46 47/47/47 45/45/45
f 48/48/48 47/47/47 46/46/46
f 49/49/49 50/50/50 47/47/47
f 43/43/43 38/38/38 36/36/36
f 43/43/43 40/40/40 38/38/38
f 45/45/45 40/40/40 43/43/43
f 41/41/41 40/40/40 45/45/45
f 47/47/47 41/41/41 45/45/45
f 47/47/47 42/42/42 41/41/41
f 50/50/50 42/42/42 47/47/47
f 44/44/44 42/42/42 50/50/50
f 51/51/51 44/44/44 50/50/50
f 46/46/46 44/44/44 51/51/51
f 2/2/2 52/52/52 3/3/3
