# Exported using wow.export v0.1.65
o dwarvenstein01
mtllib dwarvenstein01.mtl
v 0.0023527799639850855 0.10043500363826752 0.19582599401474
v -0.03323030099272728 0.13512499630451202 0.1460369974374771
v -0.03323030099272728 0.10477100312709808 0.04076309874653816
v 0.03794499859213829 0.10477100312709808 0.04076309874653816
v -0.03323030099272728 0.10477100312709808 0.04076309874653816
v -0.03323030099272728 0.13512499630451202 0.1460369974374771
v -0.03323030099272728 0.13512499630451202 0.1460369974374771
v 0.03794499859213829 0.13512499630451202 0.1460369974374771
v 0.03794499859213829 0.10477100312709808 0.04076309874653816
v 0.0023527799639850855 0.04313080012798309 0.06989689916372299
v 0.03794499859213829 0.10477100312709808 0.04076309874653816
v 0.03794499859213829 0.13512499630451202 0.1460369974374771
v 0.03794499859213829 0.13512499630451202 0.1460369974374771
v 0.0023527799639850855 0.10043500363826752 0.19582599401474
v 0.0023527799639850855 0.04313080012798309 0.06989689916372299
v -0.03323030099272728 0.10477100312709808 0.04076309874653816
v 0.0023527799639850855 0.04313080012798309 0.06989689916372299
v 0.0023527799639850855 0.10043500363826752 0.19582599401474
v 0.0021416700910776854 0.0027166700456291437 -0.26783499121665955
v -0.10655300319194794 0.5152220129966736 -0.15889200568199158
v 0.0021416700910776854 0.5152220129966736 -0.2216469943523407
v -0.14655299484729767 0.0027166700456291437 -0.181986004114151
v -0.14655299484729767 0.0027166700456291437 -0.181986004114151
v 0.1508370041847229 0.0027166700456291437 -0.010287499986588955
v 0.0021416700910776854 0.0027166700456291437 0.07556170225143433
v -0.14655299484729767 0.0027166700456291437 -0.010286900214850903
v 0.1508370041847229 0.0027166700456291437 -0.181986004114151
v 0.0021416700910776854 0.0027166700456291437 -0.26783499121665955
v -0.14655299484729767 0.0027166700456291437 -0.181986004114151
v -0.10655300319194794 0.5152220129966736 -0.033381398767232895
v -0.10655300319194794 0.5152220129966736 -0.15889200568199158
v -0.14655299484729767 0.0027166700456291437 -0.010286900214850903
v 0.0021416700910776854 0.5152220129966736 0.029373599216341972
v 0.0021416700910776854 0.0027166700456291437 0.07556170225143433
v 0.0021416700910776854 0.6321110129356384 -0.09613669663667679
v 0.11083699762821198 0.5152220129966736 -0.033381398767232895
v 0.11083699762821198 0.5152220129966736 -0.15889200568199158
v 0.0021416700910776854 0.5152220129966736 0.029373599216341972
v -0.10655300319194794 0.5152220129966736 -0.033381398767232895
v -0.10655300319194794 0.5152220129966736 -0.15889200568199158
v 0.0021416700910776854 0.5152220129966736 -0.2216469943523407
v 0.0021416700910776854 0.0027166700456291437 0.07556170225143433
v 0.11083699762821198 0.5152220129966736 -0.033381398767232895
v 0.0021416700910776854 0.5152220129966736 0.029373599216341972
v 0.1508370041847229 0.0027166700456291437 -0.010287499986588955
v 0.11083699762821198 0.5152220129966736 -0.15889200568199158
v 0.1508370041847229 0.0027166700456291437 -0.181986004114151
v 0.0021416700910776854 0.5152220129966736 -0.2216469943523407
v 0.0021416700910776854 0.0027166700456291437 -0.26783499121665955
v 0.03757999837398529 0.4042919874191284 0.1491059958934784
v -0.03359530121088028 0.4257810115814209 0.015256100334227085
v 0.03757999837398529 0.4257810115814209 0.015256100334227085
v -0.03359530121088028 0.4042919874191284 0.1491059958934784
v -0.03359530121088028 0.4042919874191284 0.1491059958934784
v 0.001988890115171671 0.4874190092086792 0.029391400516033173
v -0.03359530121088028 0.4257810115814209 0.015256100334227085
v 0.001988890115171671 0.44614699482917786 0.20097100734710693
v 0.03757999837398529 0.4042919874191284 0.1491059958934784
v -0.03323030099272728 0.13512499630451202 0.1460369974374771
v 0.0023527799639850855 0.10043500363826752 0.19582599401474
v 0.03794499859213829 0.13512499630451202 0.1460369974374771
v -0.03359530121088028 0.4042919874191284 0.1491059958934784
v -0.03323030099272728 0.13512499630451202 0.1460369974374771
vn -0.7980120182037354 -0.5790529847145081 0.16695599257946014
vn -0.7980120182037354 -0.5790529847145081 0.16695599257946014
vn -0.7980120182037354 -0.5790529847145081 0.16695599257946014
vn -2.6099499450538133e-7 0.9608579874038696 -0.2770409882068634
vn -2.6099499450538133e-7 0.9608579874038696 -0.2770409882068634
vn -2.6099499450538133e-7 0.9608579874038696 -0.2770409882068634
vn -4.0294798964168876e-7 0.9608579874038696 -0.2770409882068634
vn -4.0294798964168876e-7 0.9608579874038696 -0.2770409882068634
vn -4.0294798964168876e-7 0.9608579874038696 -0.2770409882068634
vn 0.8840100169181824 -0.4491710066795349 0.12950800359249115
vn 0.8840100169181824 -0.4491710066795349 0.12950800359249115
vn 0.8840100169181824 -0.4491710066795349 0.12950800359249115
vn 0.8262289762496948 -0.5127429962158203 0.23332299292087555
vn 0.8262289762496948 -0.5127429962158203 0.23332299292087555
vn 0.8262289762496948 -0.5127429962158203 0.23332299292087555
vn -0.8864759802818298 -0.4212140142917633 0.19167299568653107
vn -0.8864759802818298 -0.4212140142917633 0.19167299568653107
vn -0.8864759802818298 -0.4212140142917633 0.19167299568653107
vn -0.1814740002155304 -0.2790699899196625 -0.9429669976234436
vn -0.7354009747505188 0.3793950080871582 -0.5614669919013977
vn 0.11854399740695953 0.3793950080871582 -0.9176089763641357
vn -0.5420269966125488 -0.8191159963607788 -0.1877640038728714
vn -0.5420269966125488 -0.8191159963607788 -0.1877640038728714
vn 0.7851020097732544 -0.556460976600647 0.27196699380874634
vn 0.15702000260353088 -0.556460976600647 0.8159019947052002
vn -0.7258960008621216 -0.2790699899196625 0.6286450028419495
vn 0.6280810236930847 -0.556460976600647 -0.5439350008964539
vn -0.1814740002155304 -0.2790699899196625 -0.9429669976234436
vn -0.5420269966125488 -0.8191159963607788 -0.1877640038728714
vn -0.8539450168609619 0.3793950080871582 0.3561420142650604
vn -0.7354009747505188 0.3793950080871582 -0.5614669919013977
vn -0.7258960008621216 -0.2790699899196625 0.6286450028419495
vn -0.11854399740695953 0.3793950080871582 0.9176089763641357
vn 0.15702000260353088 -0.556460976600647 0.8159019947052002
vn 7.294060022644544e-9 1 -2.9176300486710716e-8
vn 0.7354009747505188 0.3793950080871582 0.5614669919013977
vn 0.8539450168609619 0.3793950080871582 -0.3561429977416992
vn -0.11854399740695953 0.3793950080871582 0.9176089763641357
vn -0.8539450168609619 0.3793950080871582 0.3561420142650604
vn -0.7354009747505188 0.3793950080871582 -0.5614669919013977
vn 0.11854399740695953 0.3793950080871582 -0.9176089763641357
vn 0.15702000260353088 -0.556460976600647 0.8159019947052002
vn 0.7354009747505188 0.3793950080871582 0.5614669919013977
vn -0.11854399740695953 0.3793950080871582 0.9176089763641357
vn 0.7851020097732544 -0.556460976600647 0.27196699380874634
vn 0.8539450168609619 0.3793950080871582 -0.3561429977416992
vn 0.6280810236930847 -0.556460976600647 -0.5439350008964539
vn 0.11854399740695953 0.3793950080871582 -0.9176089763641357
vn -0.1814740002155304 -0.2790699899196625 -0.9429669976234436
vn 0.8677999973297119 -0.49619200825691223 -0.02677750028669834
vn -0.4999749958515167 -0.8550930023193359 -0.13726399838924408
vn 0.9988269805908203 0.038863301277160645 0.028877299278974533
vn -0.8771070241928101 0.019516199827194214 -0.47989898920059204
vn -0.8771070241928101 0.019516199827194214 -0.47989898920059204
vn -0.4740790128707886 0.8608530163764954 0.18488000333309174
vn -0.4999749958515167 -0.8550930023193359 -0.13726399838924408
vn 0.014574900269508362 0.6074119806289673 0.7942540049552917
vn 0.8677999973297119 -0.49619200825691223 -0.02677750028669834
vn -0.9959869980812073 -0.0034428199287503958 0.08943290263414383
vn 0.42925599217414856 -0.011803699657320976 0.9031059741973877
vn 0.4976699948310852 0.010564800351858139 -0.8673020005226135
vn -0.8771070241928101 0.019516199827194214 -0.47989898920059204
vn -0.9959869980812073 -0.0034428199287503958 0.08943290263414383
vt 0.16151100397109985 0.38780397176742554
vt 0.0022905899677425623 0.43670201301574707
vt 0.0022905298974364996 0.28402698040008545
vt 0.001712369965389371 0.28402698040008545
vt 0.16412599384784698 0.28402698040008545
vt 0.16412599384784698 0.38850897550582886
vt 0.16412599384784698 0.38850897550582886
vt 0.0017124300356954336 0.38850897550582886
vt 0.001712369965389371 0.28402698040008545
vt 0.16151100397109985 0.2831079959869385
vt 0.001712369965389371 0.28402698040008545
vt 0.0017124300356954336 0.43670201301574707
vt 0.0017124300356954336 0.43670201301574707
vt 0.16151100397109985 0.38780397176742554
vt 0.16151100397109985 0.2831079959869385
vt 0.0022905298974364996 0.28402698040008545
vt 0.16151100397109985 0.2831079959869385
vt 0.16151100397109985 0.38780397176742554
vt 0.16444799304008484 0
vt 0.4394479990005493 1
vt 0.16444799304008484 1
vt 0.4394479990005493 0
vt 0.749750018119812 0.08404099941253662
vt 0.2502500116825104 0.000500023365020752
vt 0.18407399952411652 0.05072498321533203
vt 0.2502500116825104 0.0840420126914978
vt 0.749750018119812 0.000500023365020752
vt 0.888388991355896 0.04830902814865112
vt 0.4410179853439331 0
vt 0.71601802110672 1
vt 0.4410179853439331 1
vt 0.71601802110672 0
vt 0.9910179972648621 1
vt 0.9910179972648621 0
vt 0.08314389735460281 0.28323501348495483
vt 0.004880399908870459 0.0008450150489807129
vt 0.15534600615501404 0.0007770061492919922
vt 0.15575499832630157 0.000729978084564209
vt 0.004880399908870459 0.000885009765625
vt 0.15534600615501404 0.000908970832824707
vt 0.0050318799912929535 0.0009689927101135254
vt 0.16848500072956085 0
vt 0.44348400831222534 1
vt 0.16848500072956085 1
vt 0.44348400831222534 0
vt 0.7184839844703674 1
vt 0.7184839844703674 0
vt 0.9934840202331543 1
vt 0.9934840202331543 0
vt 0.00254053995013237 0.8898829966783524
vt 0.16253900527954102 0.9961665300652385
vt 0.002540480112656951 0.9961665300652385
vt 0.16253900527954102 0.8898829966783524
vt 0.003118680091574788 0.8296419978141785
vt 0.1621599942445755 0.9970850900281221
vt 0.003118680091574788 0.9961665300652385
vt 0.1621599942445755 0.8873710036277771
vt 0.00254053995013237 0.8294959962368011
vt 0.0022905899677425623 0.43670201301574707
vt 0.16151100397109985 0.38780397176742554
vt 0.0017124300356954336 0.43681800365448
vt 0.16253900527954102 0.8294959962368011
vt 0.16412599384784698 0.43681800365448
g Geoset0
s 1
usemtl mat_steinironforge02large
f 1/1/1 2/2/2 3/3/3
f 4/4/4 5/5/5 6/6/6
f 7/7/7 8/8/8 9/9/9
f 10/10/10 11/11/11 12/12/12
f 13/13/13 14/14/14 15/15/15
f 16/16/16 17/17/17 18/18/18
f 19/19/19 20/20/20 21/21/21
f 19/19/19 22/22/22 20/20/20
f 23/23/23 24/24/24 25/25/25
f 23/23/23 25/25/25 26/26/26
f 23/23/23 27/27/27 24/24/24
f 23/23/23 28/28/28 27/27/27
f 29/29/29 30/30/30 31/31/31
f 29/29/29 32/32/32 30/30/30
f 32/32/32 33/33/33 30/30/30
f 32/32/32 34/34/34 33/33/33
f 35/35/35 36/36/36 37/37/37
f 35/35/35 38/38/38 36/36/36
f 35/35/35 39/39/39 38/38/38
f 35/35/35 40/40/40 39/39/39
f 35/35/35 41/41/41 40/40/40
f 35/35/35 37/37/37 41/41/41
f 42/42/42 43/43/43 44/44/44
f 42/42/42 45/45/45 43/43/43
f 45/45/45 46/46/46 43/43/43
f 45/45/45 47/47/47 46/46/46
f 47/47/47 48/48/48 46/46/46
f 47/47/47 49/49/49 48/48/48
f 50/50/50 51/51/51 52/52/52
f 50/50/50 53/53/53 51/51/51
f 54/54/54 55/55/55 56/56/56
f 54/54/54 57/57/57 55/55/55
f 57/57/57 52/52/52 55/55/55
f 57/57/57 58/58/58 52/52/52
f 59/59/59 57/57/57 54/54/54
f 59/59/59 60/60/60 57/57/57
f 60/60/60 58/58/58 57/57/57
f 60/60/60 61/61/61 58/58/58
f 61/61/61 62/62/62 58/58/58
f 61/61/61 63/63/63 62/62/62
