# Exported using wow.export v0.1.65
o grainsacs02
mtllib grainsacs02.mtl
v 0.5614249110221863 0.9312868118286133 0.01349242590367794
v 0.1960250437259674 0.9361206889152527 0.42427578568458557
v 0.48861774802207947 0.6127408742904663 -0.16071733832359314
v -0.1664952039718628 0.6717002391815186 0.1082819476723671
v 0.12624113261699677 0.671700656414032 0.2804044783115387
v 0.01751828007400036 0.8317736983299255 -0.048643600195646286
v -0.314920037984848 0.723057746887207 -0.06166812404990196
v -0.166495218873024 0.7554969191551208 -0.20917901396751404
v 0.48861774802207947 0.6127408742904663 -0.16071733832359314
v 0.13816122710704803 0.7554968595504761 -0.2489832043647766
v 0.8679536581039429 0.001694817328825593 0.17147371172904968
v 1.0425190925598145 0.001695064129307866 -0.5147993564605713
v 0.4457910358905792 0.29783037304878235 -0.25199413299560547
v 0.39532971382141113 -0.027762839570641518 -0.9230628609657288
v -0.1011219471693039 0.031053287908434868 -0.4751206934452057
v 0.042333152145147324 0.031053461134433746 0.09858819097280502
v 0.443173885345459 -0.0254142377525568 0.36348292231559753
v -0.4392470717430115 1.0100749731063843 -0.06830883771181107
v -0.166495218873024 0.7554969191551208 -0.20917901396751404
v -0.22551529109477997 1.0567876100540161 -0.28072458505630493
v 0.2131899744272232 1.0567876100540161 -0.33804258704185486
v 0.13816122710704803 0.7554968595504761 -0.2489832043647766
v 0.5892691612243652 1.0151623487472534 -0.3286788761615753
v 0.48861774802207947 0.6127408742904663 -0.16071733832359314
v -0.314920037984848 0.723057746887207 -0.06166812404990196
v -0.1664952039718628 0.6717002391815186 0.1082819476723671
v -0.22551533579826355 0.9361200332641602 0.3661000430583954
v 0.12624113261699677 0.671700656414032 0.2804044783115387
v 0.1960250437259674 0.9361206889152527 0.42427578568458557
v 0.5614249110221863 0.9312868118286133 0.01349242590367794
v 0.1532445102930069 0.028809841722249985 0.5309872627258301
v 0.2395782172679901 0.5818586945533752 0.2782489061355591
v -0.11496789008378983 0.6103704571723938 0.1693355143070221
v -0.22551533579826355 0.9361200332641602 0.3661000430583954
v -0.5009430050849915 0.6656541228294373 -0.16071756184101105
v -0.4392470717430115 1.0100749731063843 -0.06830883771181107
v -0.25190356373786926 0.6632838249206543 -0.3453763723373413
v -0.22551529109477997 1.0567876100540161 -0.28072458505630493
v 0.2395782470703125 0.6632838249206543 -0.3453763723373413
v 0.2131899744272232 1.0567876100540161 -0.33804258704185486
v 0.5892691612243652 1.0151623487472534 -0.3286788761615753
v -0.25190362334251404 0.02798786759376526 0.2323792576789856
v 0.21319003403186798 -0.0345352478325367 -0.13495828211307526
v 0.37865835428237915 0.06274831295013428 -0.1333736926317215
v -0.2255152016878128 -0.034535277634859085 -0.13495834171772003
v -0.4545093774795532 -0.008720486424863338 -0.1349583864212036
v -0.5009429454803467 0.14241178333759308 -0.1349584311246872
v -0.2519035041332245 0.027987901121377945 -0.2616526186466217
v 0.15324465930461884 0.02880970574915409 -0.4768376350402832
v 0.6612850427627563 0.14076830446720123 -0.09352696686983109
vn -0.9478936195373535 0.30350247025489807 -0.09687044471502304
vn 0.08200325071811676 0.8155792355537415 0.5728053450584412
vn 0.8303967118263245 0.5232898592948914 -0.19133497774600983
vn 0.28164568543434143 0.958025336265564 -0.05350836366415024
vn -0.1039779856801033 0.8738304972648621 -0.47498294711112976
vn 0.026651369407773018 0.9934542179107666 0.1110786497592926
vn 0.6126488447189331 0.7806174159049988 0.12368422001600266
vn 0.18478670716285706 0.801027774810791 0.56939297914505
vn 0.8303967118263245 0.5232898592948914 -0.19133497774600983
vn 0.1883613020181656 0.7790207266807556 0.5980356931686401
vn 0.3141193985939026 0.8961228132247925 0.3135169446468353
vn 0.37372490763664246 0.9104334115982056 -0.177315354347229
vn 0.004862143658101559 0.9999706149101257 0.005926889833062887
vn -0.007122551556676626 0.8998822569847107 -0.43607476353645325
vn -0.37328261137008667 0.9111672043800354 -0.17445461452007294
vn -0.3213035762310028 0.8944861888885498 0.31089937686920166
vn -0.0013130578445270658 0.8853288888931274 0.46496349573135376
vn -0.45437610149383545 0.8889347314834595 0.0577705055475235
vn 0.18478670716285706 0.801027774810791 0.56939297914505
vn -0.06543893367052078 0.9711461663246155 -0.22933125495910645
vn 0.5118845701217651 0.8453007340431213 -0.1531039923429489
vn 0.1883613020181656 0.7790207266807556 0.5980356931686401
vn -0.8282538652420044 -0.5208001732826233 0.20679135620594025
vn 0.8303967118263245 0.5232898592948914 -0.19133497774600983
vn 0.6126488447189331 0.7806174159049988 0.12368422001600266
vn 0.28164568543434143 0.958025336265564 -0.05350836366415024
vn -0.032406628131866455 0.5851202607154846 0.8102987408638
vn -0.1039779856801033 0.8738304972648621 -0.47498294711112976
vn 0.08200325071811676 0.8155792355537415 0.5728053450584412
vn -0.9478936195373535 0.30350247025489807 -0.09687044471502304
vn 0.11431478708982468 -0.4430577754974365 0.8891748785972595
vn 0.46947628259658813 0.05862773582339287 0.8809964656829834
vn -0.5198991894721985 -0.15768839418888092 0.8395470380783081
vn -0.032406628131866455 0.5851202607154846 0.8102987408638
vn -0.9791600108146667 0.057298146188259125 -0.19483980536460876
vn -0.45437610149383545 0.8889347314834595 0.0577705055475235
vn -0.3715853989124298 0.10116086900234222 -0.922870934009552
vn -0.06543893367052078 0.9711461663246155 -0.22933125495910645
vn 0.32380738854408264 0.11184636503458023 -0.9394887685775757
vn 0.5118845701217651 0.8453007340431213 -0.1531039923429489
vn -0.8282538652420044 -0.5208001732826233 0.20679135620594025
vn -0.5529599189758301 -0.5505831241607666 0.6253747344017029
vn 0.2532103955745697 -0.9657649397850037 -0.056414008140563965
vn 0.3576790690422058 -0.9332083463668823 -0.03446587175130844
vn -0.05064054951071739 -0.9887732863426208 -0.14058081805706024
vn -0.7041903138160706 -0.6776373386383057 -0.21195197105407715
vn -0.9688443541526794 -0.11813858896493912 -0.21767830848693848
vn -0.3366148769855499 -0.5846173167228699 -0.7381822466850281
vn 0.1319887936115265 -0.5410921573638916 -0.8305409550666809
vn 0.9362318515777588 -0.3421214818954468 -0.08014257252216339
vt 0.017765140160918236 0.9905022978782654
vt 0.3354286849498749 0.9905022978782654
vt 0.017765140160918236 0.7477838397026062
vt 0.014492753893136978 0.24275362491607666
vt 0.014492753893136978 0.012077271938323975
vt 0.5417320728302002 0.24275362491607666
vt 0.014492753893136978 0.012077271938323975
vt 0.987922728061676 0.012077271938323975
vt 0.987922728061676 0.012077271938323975
vt 0.987922728061676 0.24275362491607666
vt 0.020462214946746826 0.23407655954360962
vt 0.020462214946746826 0.017846524715423584
vt 0.5271443724632263 0.23407655954360962
vt 0.9820006489753723 0.017846524715423584
vt 0.9820006489753723 0.23407655954360962
vt 0.9820006489753723 0.017846524715423584
vt 0.020462214946746826 0.017846524715423584
vt 0.9842270612716675 0.987922728061676
vt 0.6541299819946289 0.6811594367027283
vt 0.6541299819946289 0.987922728061676
vt 0.33374160528182983 0.987922728061676
vt 0.33374160528182983 0.6811594367027283
vt 0.01335325837135315 0.987922728061676
vt 0.01335325837135315 0.6811594367027283
vt 0.9842270612716675 0.6811594367027283
vt 0.6541299819946289 0.6811594367027283
vt 0.6541299819946289 0.987922728061676
vt 0.33374160528182983 0.6811594367027283
vt 0.33374160528182983 0.987922728061676
vt 0.01335325837135315 0.987922728061676
vt 0.3354286849498749 0.5050654411315918
vt 0.3354286849498749 0.7477838397026062
vt 0.6530922651290894 0.7477838397026062
vt 0.6530922651290894 0.9905022978782654
vt 0.980381965637207 0.7477838397026062
vt 0.980381965637207 0.9905022978782654
vt 0.6530922651290894 0.7477838397026062
vt 0.6530922651290894 0.9905022978782654
vt 0.3354286849498749 0.7477838397026062
vt 0.3354286849498749 0.9905022978782654
vt 0.017765140160918236 0.9905022978782654
vt 0.6530922651290894 0.5050654411315918
vt 0.3354286849498749 0.2623469829559326
vt 0.017765140160918236 0.2623469829559326
vt 0.6530922651290894 0.2623469829559326
vt 0.980381965637207 0.2623469829559326
vt 0.980381965637207 0.5050654411315918
vt 0.6530922651290894 0.5050654411315918
vt 0.3354286849498749 0.5050654411315918
vt 0.017765140160918236 0.5050654411315918
g Geoset0
s 1
usemtl mat_grainsac01
f 1/1/1 2/2/2 3/3/3
f 4/4/4 5/5/5 6/6/6
f 7/7/7 4/4/4 6/6/6
f 8/8/8 7/7/7 6/6/6
f 5/5/5 9/9/9 6/6/6
f 9/9/9 10/10/10 6/6/6
f 10/10/10 8/8/8 6/6/6
f 11/11/11 12/12/12 13/13/13
f 12/12/12 14/14/14 13/13/13
f 14/14/14 15/15/15 13/13/13
f 15/15/15 16/16/16 13/13/13
f 16/16/16 17/17/17 13/13/13
f 17/17/17 11/11/11 13/13/13
f 18/18/18 19/19/19 20/20/20
f 21/21/21 20/20/20 19/19/19
f 19/19/19 22/22/22 21/21/21
f 23/23/23 21/21/21 22/22/22
f 24/24/24 23/23/23 22/22/22
f 19/19/19 18/18/18 25/25/25
f 26/26/26 25/25/25 18/18/18
f 27/27/27 26/26/26 18/18/18
f 26/26/26 27/27/27 28/28/28
f 27/27/27 29/29/29 28/28/28
f 24/24/24 28/28/28 29/29/29
f 29/29/29 30/30/30 24/24/24
f 31/31/31 32/32/32 33/33/33
f 34/34/34 33/33/33 32/32/32
f 34/34/34 35/35/35 33/33/33
f 35/35/35 34/34/34 36/36/36
f 37/37/37 35/35/35 36/36/36
f 36/36/36 38/38/38 37/37/37
f 39/39/39 37/37/37 38/38/38
f 38/38/38 40/40/40 39/39/39
f 39/39/39 40/40/40 3/3/3
f 41/41/41 3/3/3 40/40/40
f 42/42/42 33/33/33 35/35/35
f 33/33/33 42/42/42 31/31/31
f 43/43/43 31/31/31 42/42/42
f 31/31/31 43/43/43 44/44/44
f 42/42/42 45/45/45 43/43/43
f 46/46/46 42/42/42 47/47/47
f 42/42/42 46/46/46 45/45/45
f 46/46/46 48/48/48 45/45/45
f 43/43/43 45/45/45 48/48/48
f 48/48/48 49/49/49 43/43/43
f 44/44/44 43/43/43 49/49/49
f 49/49/49 50/50/50 44/44/44
f 44/44/44 50/50/50 31/31/31
f 32/32/32 31/31/31 50/50/50
f 48/48/48 46/46/46 47/47/47
f 32/32/32 2/2/2 34/34/34
f 32/32/32 3/3/3 2/2/2
f 50/50/50 3/3/3 32/32/32
f 39/39/39 3/3/3 50/50/50
f 50/50/50 49/49/49 39/39/39
f 37/37/37 39/39/39 49/49/49
f 49/49/49 48/48/48 37/37/37
f 35/35/35 37/37/37 48/48/48
f 48/48/48 47/47/47 35/35/35
f 35/35/35 47/47/47 42/42/42
