# Exported using wow.export v0.1.65
o fishdeadpurple
mtllib fishdeadpurple.mtl
v 0.012866091914474964 0.0010272242361679673 0.09969156235456467
v 0.07147612422704697 -0.00835314579308033 0.17367476224899292
v 0.024107487872242928 -0.0037802751176059246 0.2162388563156128
v 0.017020689323544502 0.13440759479999542 0.18162737786769867
v -0.01014573685824871 0.08271225541830063 0.23254558444023132
v -0.023247340694069862 0.09570245444774628 0.10496556013822556
v 0.03470614552497864 0.16792719066143036 0.10862524807453156
v -0.023247340694069862 0.09570245444774628 0.10496556013822556
v -0.01014573685824871 0.08271225541830063 0.23254558444023132
v -0.13716360926628113 0.000931697606574744 0.05013744533061981
v -0.10156220942735672 0.011691983789205551 0.10075511783361435
v -0.13379929959774017 -0.0028502692002803087 0.1410660594701767
v -0.06743413954973221 0.006355722434818745 0.24369928240776062
v 0.024107487872242928 -0.0037802751176059246 0.2162388563156128
v 0.012255671434104443 0.019235283136367798 0.34277793765068054
v 0.039476435631513596 0.03134690597653389 0.3357155919075012
v -0.01014573685824871 0.08271225541830063 0.23254558444023132
v 0.012866091914474964 0.0010272242361679673 0.09969156235456467
v 0.09118097275495529 0.0850377082824707 0.10390201210975647
v 0.0429239459335804 0.04220186546444893 -0.07051218301057816
v -0.023247340694069862 0.09570245444774628 0.10496556013822556
v 0.06287781149148941 0.04441281408071518 0.3155685365200043
v 0.0805111676454544 0.07542483508586884 0.2034052014350891
v -0.05526359751820564 0.005858154501765966 -0.06353359669446945
v -0.014916201122105122 0.047512635588645935 -0.06778810918331146
v -0.04380721598863602 0.0043185120448470116 -0.205098956823349
v 0.002576551167294383 0.00054738245671615 -0.06625769287347794
v -0.002419669646769762 0.006533883512020111 -0.20837242901325226
v 0.03027121163904667 0.032098449766635895 -0.21088506281375885
v 0.12558136880397797 0.052183009684085846 -0.33499565720558167
v -0.011116345413029194 0.02988308109343052 -0.2076115608215332
v -0.006402280647307634 0.001367728691548109 -0.2841644287109375
v -0.09717237204313278 -0.006309045944362879 -0.31759682297706604
v 0.10424326360225677 -0.014371822588145733 0.09847009927034378
v 0.012866091914474964 0.0010272242361679673 0.09969156235456467
v 0.024107487872242928 -0.0037802751176059246 0.2162388563156128
vn 0.22386759519577026 -0.9741711616516113 -0.029560860246419907
vn 0.1440918743610382 0.9894996881484985 0.011308502405881882
vn 0.37193161249160767 -0.9271731376647949 0.04490899667143822
vn 0.7961515784263611 -0.5933568477630615 -0.11861854791641235
vn 0.8123717904090881 -0.5658272504806519 -0.1410376876592636
vn 0.7961515784263611 -0.5933568477630615 -0.11861854791641235
vn 0.7787183523178101 -0.6199823617935181 -0.09601869434118271
vn -0.4939173758029938 0.8666465878486633 -0.0704934224486351
vn -0.3646950125694275 0.8798014521598816 0.304872065782547
vn 0.3448868691921234 -0.9366722106933594 0.06081271916627884
vn -0.9233281016349792 -0.3824774920940399 0.03429505228996277
vn 0.03539540618658066 -0.05176364257931709 -0.9980319142341614
vn -0.8126509785652161 -0.4020332992076874 0.42186203598976135
vn 0.37193161249160767 -0.9271731376647949 0.04490899667143822
vn -0.3399389982223511 -0.302507221698761 0.8904666304588318
vn 0.4652215838432312 0.017383025959134102 0.8850235342979431
vn -0.3646950125694275 0.8798014521598816 0.304872065782547
vn 0.22386759519577026 -0.9741711616516113 -0.029560860246419907
vn 0.9295096397399902 0.36406195163726807 -0.058912958949804306
vn 0.9111329913139343 0.3175153434276581 -0.2627178132534027
vn -0.4939173758029938 0.8666465878486633 -0.0704934224486351
vn 0.8313598036766052 0.24624484777450562 0.49820107221603394
vn 0.9108953475952148 0.367633193731308 0.1873912364244461
vn -0.9133883118629456 -0.3627915382385254 -0.18467281758785248
vn -0.3536798655986786 0.9219011664390564 -0.15814168751239777
vn -0.9319316148757935 -0.36171719431877136 0.025771519169211388
vn 0.34681111574172974 -0.9375743269920349 -0.0260073971003294
vn 0.30583369731903076 -0.9493130445480347 0.07259789109230042
vn 0.9247946739196777 0.36893847584724426 0.09294719249010086
vn 0.8938649296760559 0.30774351954460144 0.32603585720062256
vn -0.30621424317359924 0.9461507797241211 -0.1050311028957367
vn 0.05669042095541954 -0.26412567496299744 -0.9628207683563232
vn -0.8380182981491089 -0.5454474091529846 -0.014575783163309097
vn 0.1660897582769394 0.9860888719558716 -0.006550836376845837
vn 0.1440918743610382 0.9894996881484985 0.011308502405881882
vn 0.12197664380073547 0.9921045899391174 0.029158636927604675
vt 0.34737318754196167 0.23309177160263062
vt 0.3046875 0.015625
vt 0.5078125 0.046875
vt 0.3046875 0.015625
vt 0.5078125 0.046875
vt 0.34737318754196167 0.23309177160263062
vt 0.1484375 0.109375
vt 0.34737318754196167 0.23309177160263062
vt 0.5078125 0.046875
vt 0.4140625 0.96875
vt 0.59375 0.84375
vt 0.671875 0.984375
vt 0.7997002601623535 0.8243508338928223
vt 0.7997002601623535 0.4999997615814209
vt 0.984375 0.671875
vt 0.984375 0.546875
vt 0.7997002601623535 0.4999997615814209
vt 0.6015625 0.5
vt 0.609375 0.15625
vt 0.40625 0.3125
vt 0.6015625 0.5
vt 0.984375 0.421875
vt 0.8046875 0.203125
vt 0.390625 0.703125
vt 0.4000999331474304 0.49999988079071045
vt 0.20029973983764648 0.6536924839019775
vt 0.4000999331474304 0.49999988079071045
vt 0.20029976963996887 0.4999999403953552
vt 0.20029973983764648 0.3463073968887329
vt 0.0078125 0.046875
vt 0.20029976963996887 0.4999999403953552
vt 0.05531895160675049 0.5
vt 0.0078125 0.96875
vt 0.1484375 0.109375
vt 0.34737318754196167 0.23309177160263062
vt 0.5078125 0.046875
g Geoset0
s 1
usemtl mat_misc_1h_fish_a_01purple
f 1/1/1 2/2/2 3/3/3
f 4/4/4 5/5/5 6/6/6
f 7/7/7 4/4/4 6/6/6
f 7/7/7 8/8/8 4/4/4
f 4/4/4 8/8/8 9/9/9
f 10/10/10 11/11/11 12/12/12
f 11/11/11 10/10/10 12/12/12
f 11/11/11 12/12/12 13/13/13
f 12/12/12 11/11/11 13/13/13
f 14/14/14 15/15/15 13/13/13
f 16/16/16 17/17/17 15/15/15
f 15/15/15 17/17/17 13/13/13
f 13/13/13 17/17/17 11/11/11
f 14/14/14 13/13/13 11/11/11
f 18/18/18 14/14/14 11/11/11
f 14/14/14 18/18/18 19/19/19
f 19/19/19 18/18/18 20/20/20
f 21/21/21 19/19/19 20/20/20
f 14/14/14 16/16/16 15/15/15
f 17/17/17 22/22/22 23/23/23
f 16/16/16 22/22/22 17/17/17
f 22/22/22 16/16/16 14/14/14
f 22/22/22 14/14/14 23/23/23
f 23/23/23 14/14/14 19/19/19
f 17/17/17 23/23/23 19/19/19
f 21/21/21 17/17/17 19/19/19
f 17/17/17 21/21/21 11/11/11
f 11/11/11 21/21/21 24/24/24
f 18/18/18 11/11/11 24/24/24
f 25/25/25 21/21/21 20/20/20
f 21/21/21 25/25/25 24/24/24
f 24/24/24 25/25/25 26/26/26
f 27/27/27 24/24/24 26/26/26
f 28/28/28 27/27/27 26/26/26
f 27/27/27 28/28/28 29/29/29
f 29/29/29 28/28/28 30/30/30
f 31/31/31 29/29/29 30/30/30
f 32/32/32 31/31/31 30/30/30
f 31/31/31 32/32/32 33/33/33
f 27/27/27 18/18/18 24/24/24
f 18/18/18 27/27/27 20/20/20
f 20/20/20 27/27/27 29/29/29
f 25/25/25 20/20/20 29/29/29
f 31/31/31 25/25/25 29/29/29
f 25/25/25 31/31/31 26/26/26
f 26/26/26 31/31/31 33/33/33
f 28/28/28 26/26/26 33/33/33
f 32/32/32 28/28/28 33/33/33
f 28/28/28 32/32/32 30/30/30
f 1/1/1 34/34/34 2/2/2
f 35/35/35 2/2/2 34/34/34
f 35/35/35 36/36/36 2/2/2
