# Exported using wow.export v0.1.65
o taurenshirthangingblue
mtllib taurenshirthangingblue.mtl
v 0.0765611007809639 0.6921030282974243 -0.1923699975013733
v 0.0765611007809639 0.9033439755439758 0.013470799662172794
v 0.0765611007809639 0.6921030282974243 0.009968889877200127
v 0.018061399459838867 0.5928220152854919 0.31044700741767883
v -0.0020472200121730566 0.7393890023231506 0.020119700580835342
v 0.06475470215082169 0.423878014087677 0.28914201259613037
v -0.002216669963672757 0.008149719797074795 -0.011084400117397308
v 0.04684250056743622 0.036483898758888245 0.289669007062912
v 0.046842798590660095 0.036483898758888245 -0.28924399614334106
v 0.04413359984755516 0.4432249963283539 -0.304064005613327
v -0.013660600408911705 0.5975890159606934 -0.30877500772476196
v 0.05761580169200897 0.6944940090179443 -0.35615798830986023
v 0.07586219906806946 0.7409610152244568 -0.15270400047302246
v 0.07696779817342758 0.7843250036239624 -0.10779500007629395
v 0.003553610062226653 0.7784889936447144 0.018285799771547318
v 0.07696779817342758 0.7839440107345581 0.14385999739170074
v 0.07586219906806946 0.7449719905853271 0.17757000029087067
v 0.07504250109195709 0.6930440068244934 0.32667800784111023
v 0.07586219906806946 0.7449719905853271 0.17757000029087067
v 0.07504250109195709 0.6930440068244934 0.32667800784111023
v 0.110944002866745 0.6009079813957214 0.29354700446128845
v 0.11298699676990509 0.6732029914855957 0.006862780079245567
v 0.07696779817342758 0.7839440107345581 0.14385999739170074
v 0.14264899492263794 0.7283750176429749 0.05631810054183006
v 0.07586219906806946 0.7409610152244568 -0.15270400047302246
v 0.108924001455307 0.5963280200958252 -0.3319000005722046
v 0.05761580169200897 0.6944940090179443 -0.35615798830986023
v 0.07696779817342758 0.7843250036239624 -0.10779500007629395
v 0.14308799803256989 0.7233080267906189 -0.028692500665783882
v 0.06475470215082169 0.423878014087677 0.28914201259613037
v 0.04684250056743622 0.036483898758888245 0.289669007062912
v 0.09507580101490021 0.014808599837124348 0.12429399788379669
v 0.10315500199794769 0.004303889814764261 -0.011084400117397308
v 0.04413359984755516 0.4432249963283539 -0.304064005613327
v 0.08515500277280807 0.01484999991953373 -0.15534399449825287
v 0.046842798590660095 0.036483898758888245 -0.28924399614334106
v 0.0765611007809639 0.6921030282974243 0.22412200272083282
vn 1 1.5023799448954378e-7 0
vn 1 1.5023799448954378e-7 0
vn 1 1.5023799448954378e-7 0
vn -0.9880930185317993 0.09851299971342087 0.11818200349807739
vn -0.9593240022659302 0.282245010137558 -0.005906779784709215
vn 0.7381179928779602 -0.36236199736595154 0.569100022315979
vn -0.9998340010643005 0.007573239970952272 0.016569100320339203
vn -0.06569010019302368 0.00439526978880167 0.9978299736976624
vn -0.05144910141825676 -0.03670269995927811 -0.998000979423523
vn 0.7062349915504456 -0.5039950013160706 -0.4972139894962311
vn -0.9948779940605164 0.10073799639940262 -0.008314399980008602
vn -0.17441700398921967 0.9448260068893433 -0.27727699279785156
vn 0.5494830012321472 0.7645699977874756 -0.336899995803833
vn -0.26075899600982666 -0.001268710009753704 -0.9654030203819275
vn -0.9580540060997009 0.24739299714565277 0.1446709930896759
vn 0.3263919949531555 -0.14372700452804565 0.9342430233955383
vn 0.2284190058708191 0.7851020097732544 0.5757079720497131
vn -0.28819599747657776 0.8786669969558716 0.3806400001049042
vn 0.2284190058708191 0.7851020097732544 0.5757079720497131
vn -0.28819599747657776 0.8786669969558716 0.3806400001049042
vn 0.9904810190200806 0.12837199866771698 0.04967489838600159
vn 0.9902369976043701 -0.13878799974918365 -0.012956599704921246
vn 0.3263919949531555 -0.14372700452804565 0.9342430233955383
vn 0.2556689977645874 -0.7178810238838196 0.64751797914505
vn 0.5494830012321472 0.7645699977874756 -0.336899995803833
vn 0.9891980290412903 0.13062100112438202 -0.06652840226888657
vn -0.17441700398921967 0.9448260068893433 -0.27727699279785156
vn -0.26075899600982666 -0.001268710009753704 -0.9654030203819275
vn 0.2484699934720993 -0.6553999781608582 -0.7132419943809509
vn 0.7381179928779602 -0.36236199736595154 0.569100022315979
vn -0.06569010019302368 0.00439526978880167 0.9978299736976624
vn 0.9851549863815308 0.0038596598897129297 0.17162400484085083
vn 0.9993330240249634 0.019594799727201462 -0.03081369958817959
vn 0.7062349915504456 -0.5039950013160706 -0.4972139894962311
vn 0.9798009991645813 0.02494009956717491 -0.19841499626636505
vn -0.05144910141825676 -0.03670269995927811 -0.998000979423523
vn 1 1.5023799448954378e-7 0
vt 0.8736730217933655 0.12659502029418945
vt 0.752498984336853 0.24959200620651245
vt 0.7510169744491577 0.12659502029418945
vt 0.6287639737129211 0.7030999958515167
vt 0.7475929856300354 0.723455011844635
vt 0.6288629770278931 0.6537689864635468
vt 0.7472839951515198 0.5020669996738434
vt 0.6290900111198425 0.5021210014820099
vt 0.629243016242981 0.5021210014820099
vt 0.6288509964942932 0.653784990310669
vt 0.6288700103759766 0.7030659914016724
vt 0.6287959814071655 0.7278139889240265
vt 0.70135897397995 0.7363420128822327
vt 0.7145169973373413 0.7472589910030365
vt 0.747107982635498 0.7383309900760651
vt 0.7144839763641357 0.7472560107707977
vt 0.70135897397995 0.7363759875297546
vt 0.628711998462677 0.7279680073261261
vt 0.5913580060005188 0.725149005651474
vt 0.6222519874572754 0.731097012758255
vt 0.6221460103988647 0.7010380029678345
vt 0.5005360245704651 0.7084220051765442
vt 0.5607249736785889 0.7376439869403839
vt 0.5119770169258118 0.7278389930725098
vt 0.5913450121879578 0.7249540090560913
vt 0.622219979763031 0.7010599970817566
vt 0.6220459938049316 0.7313379943370819
vt 0.560604989528656 0.7376480102539062
vt 0.5118269920349121 0.7275669872760773
vt 0.6222209930419922 0.6659649908542633
vt 0.6219840049743652 0.5022740066051483
vt 0.5505340099334717 0.5021589994430542
vt 0.501075029373169 0.5020189881324768
vt 0.6222130060195923 0.6658949851989746
vt 0.550557017326355 0.5021600127220154
vt 0.6219840049743652 0.5022749900817871
vt 0.8733850121498108 0.12659502029418945
g Geoset0
s 1
usemtl mat_clothstuff
f 1/1/1 2/2/2 3/3/3
f 4/4/4 5/5/5 6/6/6
f 7/7/7 6/6/6 5/5/5
f 7/7/7 8/8/8 6/6/6
f 9/9/9 7/7/7 10/10/10
f 7/7/7 5/5/5 10/10/10
f 10/10/10 5/5/5 11/11/11
f 11/11/11 5/5/5 12/12/12
f 5/5/5 13/13/13 12/12/12
f 13/13/13 5/5/5 14/14/14
f 15/15/15 14/14/14 5/5/5
f 16/16/16 15/15/15 17/17/17
f 5/5/5 17/17/17 15/15/15
f 5/5/5 18/18/18 17/17/17
f 5/5/5 4/4/4 18/18/18
f 19/19/19 20/20/20 21/21/21
f 19/19/19 21/21/21 22/22/22
f 19/19/19 22/22/22 23/23/23
f 24/24/24 23/23/23 22/22/22
f 25/25/25 26/26/26 27/27/27
f 22/22/22 26/26/26 25/25/25
f 22/22/22 25/25/25 28/28/28
f 28/28/28 29/29/29 22/22/22
f 22/22/22 21/21/21 30/30/30
f 30/30/30 31/31/31 32/32/32
f 33/33/33 30/30/30 32/32/32
f 33/33/33 22/22/22 30/30/30
f 22/22/22 33/33/33 34/34/34
f 26/26/26 22/22/22 34/34/34
f 34/34/34 35/35/35 36/36/36
f 33/33/33 35/35/35 34/34/34
f 3/3/3 2/2/2 37/37/37
