# Exported using wow.export v0.1.65
o mug01
mtllib mug01.mtl
v -0.04537919908761978 0.06279779970645905 0.1867389976978302
v -0.07621219754219055 0.09342890232801437 0.14299200475215912
v -0.07621219754219055 0.06655439734458923 0.07900889962911606
v -0.014546399936079979 0.06655439734458923 0.07900889962911606
v -0.07621219754219055 0.06655439734458923 0.07900889962911606
v -0.07621219754219055 0.09342890232801437 0.14299200475215912
v -0.07621219754219055 0.09342890232801437 0.14299200475215912
v -0.014546399936079979 0.09342890232801437 0.14299200475215912
v -0.014546399936079979 0.06655439734458923 0.07900889962911606
v -0.04537919908761978 0.013150299899280071 0.07900889962911606
v -0.014546399936079979 0.06655439734458923 0.07900889962911606
v -0.014546399936079979 0.09342890232801437 0.14299200475215912
v -0.014546399936079979 0.09342890232801437 0.14299200475215912
v -0.04537919908761978 0.06279779970645905 0.1867389976978302
v -0.04537919908761978 0.013150299899280071 0.07900889962911606
v -0.07621219754219055 0.06655439734458923 0.07900889962911606
v -0.04537919908761978 0.013150299899280071 0.07900889962911606
v -0.04537919908761978 0.06279779970645905 0.1867389976978302
v -0.014863300137221813 0.189533993601799 0.1429090052843094
v -0.07652860134840012 0.20252099633216858 0.07174830138683319
v -0.014863300137221813 0.20252099633216858 0.07174830138683319
v -0.07652860134840012 0.189533993601799 0.1429090052843094
v -0.045695800334215164 0.22016599774360657 0.18665599822998047
v -0.014863300137221813 0.20252099633216858 0.07174830138683319
v -0.045695800334215164 0.2559249997138977 0.07174830138683319
v -0.014863300137221813 0.189533993601799 0.1429090052843094
v -0.07652860134840012 0.189533993601799 0.1429090052843094
v -0.045695800334215164 0.2559249997138977 0.07174830138683319
v -0.07652860134840012 0.20252099633216858 0.07174830138683319
v -0.045695800334215164 0.22016599774360657 0.18665599822998047
v -0.014546399936079979 0.09342890232801437 0.14299200475215912
v -0.07652860134840012 0.189533993601799 0.1429090052843094
v -0.014863300137221813 0.189533993601799 0.1429090052843094
v -0.07621219754219055 0.09342890232801437 0.14299200475215912
v -0.04537919908761978 0.06279779970645905 0.1867389976978302
v -0.014863300137221813 0.189533993601799 0.1429090052843094
v -0.045695800334215164 0.22016599774360657 0.18665599822998047
v -0.014546399936079979 0.09342890232801437 0.14299200475215912
v -0.07621219754219055 0.09342890232801437 0.14299200475215912
v -0.045695800334215164 0.22016599774360657 0.18665599822998047
v -0.07652860134840012 0.189533993601799 0.1429090052843094
v -0.04537919908761978 0.06279779970645905 0.1867389976978302
v 0.05301250144839287 0.272040992975235 -0.041817501187324524
v -0.04572749882936478 0.26883700489997864 -0.0758633017539978
v 0.0171642005443573 0.26883700489997864 -0.030169399455189705
v -0.04572749882936478 0.272040992975235 -0.11355599761009216
v 0.015296700410544872 0.272040992975235 0.07425809651613235
v 0.0171642005443573 0.26883700489997864 -0.030169399455189705
v -0.006857779808342457 0.26883700489997864 0.04376329854130745
v 0.05301250144839287 0.272040992975235 -0.041817501187324524
v -0.10675200074911118 0.272040992975235 0.07425809651613235
v -0.006857779808342457 0.26883700489997864 0.04376329854130745
v -0.08459670096635818 0.26883700489997864 0.04376329854130745
v 0.015296700410544872 0.272040992975235 0.07425809651613235
v -0.14446699619293213 0.272040992975235 -0.041817501187324524
v -0.08459670096635818 0.26883700489997864 0.04376329854130745
v -0.10861899703741074 0.26883700489997864 -0.030169399455189705
v -0.10675200074911118 0.272040992975235 0.07425809651613235
v -0.04572749882936478 0.272040992975235 -0.11355599761009216
v -0.10861899703741074 0.26883700489997864 -0.030169399455189705
v -0.04572749882936478 0.26883700489997864 -0.0758633017539978
v -0.14446699619293213 0.272040992975235 -0.041817501187324524
v 0.07700580358505249 -0.01050109975039959 -0.049613598734140396
v -0.04572749882936478 0.272040992975235 -0.11355599761009216
v 0.05301250144839287 0.272040992975235 -0.041817501187324524
v -0.04572749882936478 -0.01050109975039959 -0.1387850046157837
v 0.030126100406050682 -0.01050109975039959 0.09466829895973206
v 0.05301250144839287 0.272040992975235 -0.041817501187324524
v 0.015296700410544872 0.272040992975235 0.07425809651613235
v 0.07700580358505249 -0.01050109975039959 -0.049613598734140396
v -0.12158100306987762 -0.01050109975039959 0.09466829895973206
v 0.015296700410544872 0.272040992975235 0.07425809651613235
v -0.10675200074911118 0.272040992975235 0.07425809651613235
v 0.030126100406050682 -0.01050109975039959 0.09466829895973206
v -0.16846099495887756 -0.01050109975039959 -0.049613598734140396
v -0.10675200074911118 0.272040992975235 0.07425809651613235
v -0.14446699619293213 0.272040992975235 -0.041817501187324524
v -0.12158100306987762 -0.01050109975039959 0.09466829895973206
v -0.04572749882936478 -0.01050109975039959 -0.1387850046157837
v -0.14446699619293213 0.272040992975235 -0.041817501187324524
v -0.04572749882936478 0.272040992975235 -0.11355599761009216
v -0.16846099495887756 -0.01050109975039959 -0.049613598734140396
v -0.12158100306987762 -0.01050109975039959 0.09466829895973206
v 0.07700580358505249 -0.01050109975039959 -0.049613598734140396
v 0.030126100406050682 -0.01050109975039959 0.09466829895973206
v -0.04572749882936478 -0.01050109975039959 -0.1387850046157837
v -0.16846099495887756 -0.01050109975039959 -0.049613598734140396
v -0.04572749882936478 0.2220049947500229 -0.00973471999168396
v -0.08459670096635818 0.26883700489997864 0.04376329854130745
v -0.006857779808342457 0.26883700489997864 0.04376329854130745
v -0.10861899703741074 0.26883700489997864 -0.030169399455189705
v -0.04572749882936478 0.26883700489997864 -0.0758633017539978
v 0.0171642005443573 0.26883700489997864 -0.030169399455189705
vn -0.8259980082511902 -0.5196920037269592 0.21828299760818481
vn -0.8259980082511902 -0.5196920037269592 0.21828299760818481
vn -0.8259980082511902 -0.5196920037269592 0.21828299760818481
vn -2.619750034682511e-7 0.9219740033149719 -0.38725098967552185
vn -2.619750034682511e-7 0.9219740033149719 -0.38725098967552185
vn -2.619750034682511e-7 0.9219740033149719 -0.38725098967552185
vn -3.9993500422497164e-7 0.9219740033149719 -0.38725098967552185
vn -3.9993500422497164e-7 0.9219740033149719 -0.38725098967552185
vn -3.9993500422497164e-7 0.9219740033149719 -0.38725098967552185
vn 0.8475369811058044 -0.48932498693466187 0.20552800595760345
vn 0.8475369811058044 -0.48932498693466187 0.20552800595760345
vn 0.8475369811058044 -0.48932498693466187 0.20552800595760345
vn 0.8313819766044617 -0.5046859979629517 0.23258499801158905
vn 0.8313819766044617 -0.5046859979629517 0.23258499801158905
vn 0.8313819766044617 -0.5046859979629517 0.23258499801158905
vn -0.8439109921455383 -0.4872319996356964 0.22454200685024261
vn -0.8439109921455383 -0.4872319996356964 0.22454200685024261
vn -0.8439109921455383 -0.4872319996356964 0.22454200685024261
vn 0.8730509877204895 -0.48646000027656555 -0.033731598407030106
vn -0.49998700618743896 -0.8519619703292847 -0.15547800064086914
vn 0.9954140186309814 0.07944449782371521 0.053279101848602295
vn -0.8805760145187378 0.02590169943869114 -0.47319701313972473
vn 0.0029012500308454037 0.611132025718689 0.7915229797363281
vn 0.9954140186309814 0.07944449782371521 0.053279101848602295
vn -0.4512830078601837 0.8615339994430542 0.23260100185871124
vn 0.8730509877204895 -0.48646000027656555 -0.033731598407030106
vn -0.8805760145187378 0.02590169943869114 -0.47319701313972473
vn -0.4512830078601837 0.8615339994430542 0.23260100185871124
vn -0.49998700618743896 -0.8519619703292847 -0.15547800064086914
vn 0.0029012500308454037 0.611132025718689 0.7915229797363281
vn 0.4977540075778961 0.0008870650199241936 -0.8673179745674133
vn -0.8805760145187378 0.02590169943869114 -0.47319701313972473
vn 0.8730509877204895 -0.48646000027656555 -0.033731598407030106
vn -0.9956669807434082 -0.0026781600899994373 0.0929562970995903
vn 0.4271790087223053 0.0019874100107699633 0.9041650295257568
vn 0.8730509877204895 -0.48646000027656555 -0.033731598407030106
vn 0.0029012500308454037 0.611132025718689 0.7915229797363281
vn 0.4977540075778961 0.0008870650199241936 -0.8673179745674133
vn -0.9956669807434082 -0.0026781600899994373 0.0929562970995903
vn 0.0029012500308454037 0.611132025718689 0.7915229797363281
vn -0.8805760145187378 0.02590169943869114 -0.47319701313972473
vn 0.4271790087223053 0.0019874100107699633 0.9041650295257568
vn 0.5770689845085144 0.8165799975395203 -0.013706300407648087
vn -0.02050670050084591 0.996196985244751 0.08467649668455124
vn -0.08686839789152145 0.9961979985237122 0.006663090083748102
vn 0.1652889996767044 0.8165810108184814 -0.553059995174408
vn 0.1913599967956543 0.8165799975395203 0.5445899963378906
vn -0.08686839789152145 0.9961979985237122 0.006663090083748102
vn -0.03318069875240326 0.996196985244751 -0.08055830001831055
vn 0.5770689845085144 0.8165799975395203 -0.013706300407648087
vn -0.4588020145893097 0.8165810108184814 0.3502810001373291
vn -0.03318069875240326 0.996196985244751 -0.08055830001831055
vn 0.0663624033331871 0.996196985244751 -0.05645120143890381
vn 0.1913599967956543 0.8165799975395203 0.5445899963378906
vn -0.4749149978160858 0.8165810108184814 -0.3281039893627167
vn 0.0663624033331871 0.996196985244751 -0.05645120143890381
vn 0.07419539988040924 0.996196985244751 0.04566999897360802
vn -0.4588020145893097 0.8165810108184814 0.3502810001373291
vn 0.1652889996767044 0.8165810108184814 -0.553059995174408
vn 0.07419539988040924 0.996196985244751 0.04566999897360802
vn -0.02050670050084591 0.996196985244751 0.08467649668455124
vn -0.4749149978160858 0.8165810108184814 -0.3281039893627167
vn 0.8484119772911072 0.08645769953727722 -0.522229015827179
vn 0.1652889996767044 0.8165810108184814 -0.553059995174408
vn 0.5770689845085144 0.8165799975395203 -0.013706300407648087
vn -0.23449499905109406 0.08645769953727722 -0.9682649970054626
vn 0.7588430047035217 0.08645769953727722 0.6455100178718567
vn 0.5770689845085144 0.8165799975395203 -0.013706300407648087
vn 0.1913599967956543 0.8165799975395203 0.5445899963378906
vn 0.8484119772911072 0.08645769953727722 -0.522229015827179
vn -0.3794209957122803 0.08645779639482498 0.921176016330719
vn 0.1913599967956543 0.8165799975395203 0.5445899963378906
vn -0.4588020145893097 0.8165810108184814 0.3502810001373291
vn 0.7588430047035217 0.08645769953727722 0.6455100178718567
vn -0.9933379888534546 0.08645779639482498 -0.07619210332632065
vn -0.4588020145893097 0.8165810108184814 0.3502810001373291
vn -0.4749149978160858 0.8165810108184814 -0.3281039893627167
vn -0.3794209957122803 0.08645779639482498 0.921176016330719
vn -0.23449499905109406 0.08645769953727722 -0.9682649970054626
vn -0.4749149978160858 0.8165810108184814 -0.3281039893627167
vn 0.1652889996767044 0.8165810108184814 -0.553059995174408
vn -0.9933379888534546 0.08645779639482498 -0.07619210332632065
vn 0 -1 0
vn 0 -1 0
vn 0 -1 0
vn 0 -1 0
vn 0 -1 0
vn 2.376470042975143e-8 1 0
vn 0.33970698714256287 0.8160759806632996 -0.46756699681282043
vn -0.33970698714256287 0.8160759806632996 -0.46756699681282043
vn 0.5496580004692078 0.8160759806632996 0.17859500646591187
vn 6.46461018050104e-8 0.8160759806632996 0.5779449939727783
vn -0.5496580004692078 0.8160759806632996 0.17859500646591187
vt 0.9092170000076294 0.2762269973754883
vt 0.9092170000076294 0.006381988525390625
vt 0.5098680257797241 0.006381988525390625
vt 0.5098680257797241 0.006381988525390625
vt 0.5098680257797241 0.2762269973754883
vt 0.9092170000076294 0.2762269973754883
vt 0.9092170000076294 0.2762269973754883
vt 0.9092170000076294 0.006381988525390625
vt 0.5098680257797241 0.006381988525390625
vt 0.5098680257797241 0.006381988525390625
vt 0.5098680257797241 0.2762269973754883
vt 0.9092170000076294 0.2762269973754883
vt 0.9092170000076294 0.2762269973754883
vt 0.9092170000076294 0.006381988525390625
vt 0.5098680257797241 0.006381988525390625
vt 0.5098680257797241 0.006381988525390625
vt 0.5098680257797241 0.2762269973754883
vt 0.9092170000076294 0.2762269973754883
vt 0.9092170000076294 0.2762269973754883
vt 0.5098680257797241 0.006381988525390625
vt 0.5098680257797241 0.2762269973754883
vt 0.9092170000076294 0.006381988525390625
vt 0.9092170000076294 0.2762269973754883
vt 0.5098680257797241 0.006381988525390625
vt 0.5098680257797241 0.2762269973754883
vt 0.9092170000076294 0.006381988525390625
vt 0.9092170000076294 0.2762269973754883
vt 0.5098680257797241 0.006381988525390625
vt 0.5098680257797241 0.2762269973754883
vt 0.9092170000076294 0.006381988525390625
vt 0.7032759785652161 0.2689800262451172
vt 0.9131640195846558 0.018459022045135498
vt 0.9131640195846558 0.2689800262451172
vt 0.7032759785652161 0.018459022045135498
vt 0.7032759785652161 0.2689800262451172
vt 0.9131640195846558 0.018459022045135498
vt 0.9131640195846558 0.2689800262451172
vt 0.7032759785652161 0.018459022045135498
vt 0.7032759785652161 0.2689800262451172
vt 0.9131640195846558 0.018459022045135498
vt 0.9131640195846558 0.2689800262451172
vt 0.7032759785652161 0.018459022045135498
vt 0 0.9855075003579259
vt 0.4987170100212097 0.886473998427391
vt 0 0.886473998427391
vt 0.4987170100212097 0.9855075003579259
vt 0 0.9855075003579259
vt 0.4987170100212097 0.886473998427391
vt 0 0.886473998427391
vt 0.4987170100212097 0.9855075003579259
vt 0 0.9855075003579259
vt 0.4987170100212097 0.886473998427391
vt 0 0.886473998427391
vt 0.4987170100212097 0.9855075003579259
vt 0 0.9855075003579259
vt 0.4987170100212097 0.886473998427391
vt 0 0.886473998427391
vt 0.4987170100212097 0.9855075003579259
vt 0 0.9855075003579259
vt 0.4987170100212097 0.886473998427391
vt 0 0.886473998427391
vt 0.4987170100212097 0.9855075003579259
vt 0 0
vt 0.4987170100212097 0.9782609008252621
vt 0 0.9782609008252621
vt 0.4987170100212097 0
vt 0 0
vt 0.4987170100212097 0.9782609008252621
vt 0 0.9782609008252621
vt 0.4987170100212097 0
vt 0 0
vt 0.4987170100212097 0.9782609008252621
vt 0 0.9782609008252621
vt 0.4987170100212097 0
vt 0 0
vt 0.4987170100212097 0.9782609008252621
vt 0 0.9782609008252621
vt 0.4987170100212097 0
vt 0 0
vt 0.4987170100212097 0.9782609008252621
vt 0 0.9782609008252621
vt 0.4987170100212097 0
vt 0.018254999071359634 0.6643930077552795
vt 0.30839401483535767 0.2845960259437561
vt 0.018254999071359634 0.3742539882659912
vt 0.48770999908447266 0.519324004650116
vt 0.30839401483535767 0.754050999879837
vt 0.7507969737052917 0.565216988325119
vt 0.5057479739189148 0.9650991000235081
vt 0.5175889730453491 0.3126789927482605
vt 0.9545869827270508 0.9625638984143734
vt 0.9896330237388611 0.31884002685546875
vt 0.7513110041618347 0.31521397829055786
g Geoset0
s 1
usemtl mat_mug_002
f 1/1/1 2/2/2 3/3/3
f 4/4/4 5/5/5 6/6/6
f 7/7/7 8/8/8 9/9/9
f 10/10/10 11/11/11 12/12/12
f 13/13/13 14/14/14 15/15/15
f 16/16/16 17/17/17 18/18/18
f 19/19/19 20/20/20 21/21/21
f 19/19/19 22/22/22 20/20/20
f 23/23/23 24/24/24 25/25/25
f 23/23/23 26/26/26 24/24/24
f 27/27/27 28/28/28 29/29/29
f 27/27/27 30/30/30 28/28/28
f 31/31/31 32/32/32 33/33/33
f 31/31/31 34/34/34 32/32/32
f 35/35/35 36/36/36 37/37/37
f 35/35/35 38/38/38 36/36/36
f 39/39/39 40/40/40 41/41/41
f 39/39/39 42/42/42 40/40/40
f 43/43/43 44/44/44 45/45/45
f 43/43/43 46/46/46 44/44/44
f 47/47/47 48/48/48 49/49/49
f 47/47/47 50/50/50 48/48/48
f 51/51/51 52/52/52 53/53/53
f 51/51/51 54/54/54 52/52/52
f 55/55/55 56/56/56 57/57/57
f 55/55/55 58/58/58 56/56/56
f 59/59/59 60/60/60 61/61/61
f 59/59/59 62/62/62 60/60/60
f 63/63/63 64/64/64 65/65/65
f 63/63/63 66/66/66 64/64/64
f 67/67/67 68/68/68 69/69/69
f 67/67/67 70/70/70 68/68/68
f 71/71/71 72/72/72 73/73/73
f 71/71/71 74/74/74 72/72/72
f 75/75/75 76/76/76 77/77/77
f 75/75/75 78/78/78 76/76/76
f 79/79/79 80/80/80 81/81/81
f 79/79/79 82/82/82 80/80/80
f 83/83/83 84/84/84 85/85/85
f 83/83/83 86/86/86 84/84/84
f 83/83/83 87/87/87 86/86/86
f 88/88/88 89/89/89 90/90/90
f 88/88/88 91/91/91 89/89/89
f 88/88/88 92/92/92 91/91/91
f 88/88/88 93/93/93 92/92/92
f 88/88/88 90/90/90 93/93/93
