# Exported using wow.export v0.1.65
o clothyarnblue
mtllib clothyarnblue.mtl
v 0.04284830018877983 -0.24016499519348145 -0.16794100403785706
v 0 -0.169173002243042 -0.20824700593948364
v 0.08569689840078354 -0.169173002243042 -0.20824700593948364
v 0.03552220016717911 0.14113399386405945 0.1764809936285019
v 0.08569689840078354 0.169173002243042 0.20824700593948364
v 0 0.169173002243042 0.20824700593948364
v 0.04284830018877983 0.24016499519348145 0.16794100403785706
v 0.04284830018877983 -0.24016499519348145 0.16794100403785706
v 0.08569689840078354 -0.169173002243042 0.20824700593948364
v 0 -0.169173002243042 0.20824700593948364
v 0.04529060050845146 -0.14113399386405945 0.1764799952507019
v 0.04284830018877983 0.24016499519348145 -0.16794100403785706
v 0.08569689840078354 0.169173002243042 -0.20824700593948364
v 0 0.169173002243042 -0.20824700593948364
v 0.04529060050845146 0.14113399386405945 -0.1764799952507019
v 0 0.169173002243042 0.20824700593948364
v 0.025747200474143028 0.1496019959449768 0
v 0.03552220016717911 0.14113399386405945 0.1764809936285019
v 0.04529060050845146 0.14113399386405945 -0.1764799952507019
v 0.04284830018877983 0.2265709936618805 0
v 0.04284830018877983 0.24016499519348145 0.16794100403785706
v 0.08569689840078354 0.169173002243042 0.20824700593948364
v 0.04284830018877983 0.24016499519348145 -0.16794100403785706
v 0.08569689840078354 0.169173002243042 -0.20824700593948364
v 0.05994969978928566 0.1496029943227768 0
v 0.04529060050845146 0.14113399386405945 -0.1764799952507019
v 0.08846750110387802 0 0
v 0.03552220016717911 0.14113399386405945 0.1764809936285019
v 0.06405360251665115 0 0.19557799398899078
v 0.06405360251665115 0 -0.19557799398899078
v 0.021643100306391716 0 -0.19557799398899078
v 0.04529060050845146 -0.14113399386405945 -0.1764799952507019
v 0.05994969978928566 -0.1496029943227768 0
v 0.04529060050845146 -0.14113399386405945 0.1764799952507019
v 0.021643100306391716 0 0.19557799398899078
v -0.002766669960692525 0 0
v 0.021643100306391716 0 -0.19557799398899078
v 0.025747200474143028 -0.1496029943227768 0
v 0.021643100306391716 0 0.19557799398899078
v 0.04529060050845146 -0.14113399386405945 0.1764799952507019
v 0.08569689840078354 -0.169173002243042 0.20824700593948364
v 0.08569689840078354 -0.169173002243042 -0.20824700593948364
v 0.04529060050845146 -0.14113399386405945 -0.1764799952507019
v 0.04284830018877983 -0.2265709936618805 0
v 0.04284830018877983 -0.24016499519348145 -0.16794100403785706
v 0.04284830018877983 -0.24016499519348145 0.16794100403785706
v 0 -0.169173002243042 0.20824700593948364
v 0.04529060050845146 -0.14113399386405945 -0.1764799952507019
vn 9.147110091589639e-8 -0.8841270208358765 -0.46724700927734375
vn -0.8524569869041443 0.24741500616073608 -0.46054700016975403
vn 0.8593699932098389 0.2358269989490509 -0.4537290036678314
vn -0.06391330063343048 -0.595615029335022 0.8007240295410156
vn 0.8464279770851135 -0.2567330002784729 0.4665279984474182
vn -0.8672729730606079 -0.22123999893665314 0.4459710121154785
vn 7.793399703359682e-8 0.8841270208358765 0.46724700927734375
vn -1.20701002970236e-7 -0.8841270208358765 0.46724700927734375
vn 0.8593689799308777 0.2358269989490509 0.4537290036678314
vn -0.8524569869041443 0.24741500616073608 0.46054700016975403
vn 0.021152300760149956 0.5997580289840698 0.7999020218849182
vn 1.2069999399955122e-7 0.8841270208358765 -0.46724700927734375
vn 0.8593699932098389 -0.23582600057125092 -0.4537290036678314
vn -0.8524569869041443 -0.2474139928817749 -0.46054700016975403
vn 0.021152200177311897 -0.5997570157051086 -0.7999020218849182
vn -0.8672729730606079 -0.22123999893665314 0.4459710121154785
vn -0.8733969926834106 -0.48670199513435364 -0.017277700826525688
vn -0.06391330063343048 -0.595615029335022 0.8007240295410156
vn 0.021152200177311897 -0.5997570157051086 -0.7999020218849182
vn -1.5653199625376146e-7 1 1.8138900159669902e-8
vn 7.793399703359682e-8 0.8841270208358765 0.46724700927734375
vn 0.8464279770851135 -0.2567330002784729 0.4665279984474182
vn 1.2069999399955122e-7 0.8841270208358765 -0.46724700927734375
vn 0.8593699932098389 -0.23582600057125092 -0.4537290036678314
vn 0.8606410026550293 -0.5089409947395325 0.01662589982151985
vn 0.021152200177311897 -0.5997570157051086 -0.7999020218849182
vn 0.9999439716339111 0.008203510195016861 0.006617819890379906
vn -0.06391330063343048 -0.595615029335022 0.8007240295410156
vn 0.659080982208252 0.022070299834012985 0.7517480254173279
vn 0.6612499952316284 1.0620299661923127e-7 -0.7501659989356995
vn -0.6594129800796509 -8.137020302001474e-8 -0.7517809867858887
vn 0.02115200087428093 0.5997580289840698 -0.7999020218849182
vn 0.8721939921379089 0.4891589879989624 -2.724789993635568e-8
vn 0.021152300760149956 0.5997580289840698 0.7999020218849182
vn -0.6609060168266296 -0.022377900779247284 0.7501350045204163
vn -0.9999420046806335 -0.008376969955861568 -0.006708200089633465
vn -0.6594129800796509 -8.137020302001474e-8 -0.7517809867858887
vn -0.8596749901771545 0.5108410120010376 1.4099399869849094e-8
vn -0.6609060168266296 -0.022377900779247284 0.7501350045204163
vn 0.021152300760149956 0.5997580289840698 0.7999020218849182
vn 0.8593689799308777 0.2358269989490509 0.4537290036678314
vn 0.8593699932098389 0.2358269989490509 -0.4537290036678314
vn 0.02115200087428093 0.5997580289840698 -0.7999020218849182
vn 1.3787099817363924e-7 -1 3.08472998256093e-8
vn 9.147110091589639e-8 -0.8841270208358765 -0.46724700927734375
vn -1.20701002970236e-7 -0.8841270208358765 0.46724700927734375
vn -0.8524569869041443 0.24741500616073608 0.46054700016975403
vn 0.02115200087428093 0.5997580289840698 -0.7999020218849182
vt 0.9854210019111633 0.8762860000133514
vt 0.9708510041236877 0.908583901822567
vt 0.9983800053596497 0.908583901822567
vt 0.9849029779434204 0.9213444963097572
vt 0.9983800053596497 0.9085818976163864
vt 0.9708510041236877 0.9085818976163864
vt 0.9854210019111633 0.8762769997119904
vt 0.9854210019111633 0.8762860000133514
vt 0.9983800053596497 0.908583901822567
vt 0.9708510041236877 0.908583901822567
vt 0.9849179983139038 0.9213932007551193
vt 0.9854210019111633 0.8762769997119904
vt 0.9983800053596497 0.9085818976163864
vt 0.9708510041236877 0.9085818976163864
vt 0.9849179983139038 0.9213444963097572
vt 0.7514060139656067 0.9086204990744591
vt 0.8725020289421082 0.9228065013885498
vt 0.7529370188713074 0.9210150986909866
vt 0.9863629937171936 0.9210150986909866
vt 0.8725020289421082 0.8764059990644455
vt 0.7514129877090454 0.8764029964804649
vt 0.7514060139656067 0.9086204990744591
vt 0.9839770197868347 0.8764029964804649
vt 0.9718409776687622 0.9086204990744591
vt 0.8725020289421082 0.9228065013885498
vt 0.9983180165290833 0.9231913015246391
vt 0.8725020289421082 0.9949052901938558
vt 0.751459002494812 0.9231913015246391
vt 0.7514070272445679 0.9949052901938558
vt 0.9983890056610107 0.9949052301235497
vt 0.9945250153541565 0.9949052301235497
vt 0.9983180165290833 0.9231918975710869
vt 0.8725020289421082 0.9231918975710869
vt 0.751459002494812 0.9231918975710869
vt 0.7547199726104736 0.9949052901938558
vt 0.8725020289421082 0.9949052901938558
vt 0.9983890056610107 0.9949052301235497
vt 0.8725020289421082 0.9231918975710869
vt 0.7514070272445679 0.9949052901938558
vt 0.7529370188713074 0.9210665002465248
vt 0.7514060139656067 0.9086235016584396
vt 0.9718409776687622 0.9086235016584396
vt 0.9863629937171936 0.9210665002465248
vt 0.8725020289421082 0.8763979971408844
vt 0.9839770197868347 0.8763929978013039
vt 0.7514129877090454 0.8763929978013039
vt 0.7514060139656067 0.9086235016584396
vt 0.9849179983139038 0.9213932007551193
g Geoset0
s 1
usemtl mat_clothstuff
f 1/1/1 2/2/2 3/3/3
f 4/4/4 5/5/5 6/6/6
f 7/7/7 6/6/6 5/5/5
f 8/8/8 9/9/9 10/10/10
f 11/11/11 10/10/10 9/9/9
f 12/12/12 13/13/13 14/14/14
f 15/15/15 14/14/14 13/13/13
f 16/16/16 17/17/17 18/18/18
f 14/14/14 19/19/19 17/17/17
f 17/17/17 16/16/16 14/14/14
f 20/20/20 14/14/14 16/16/16
f 16/16/16 21/21/21 20/20/20
f 20/20/20 21/21/21 22/22/22
f 14/14/14 20/20/20 23/23/23
f 23/23/23 20/20/20 24/24/24
f 22/22/22 24/24/24 20/20/20
f 24/24/24 22/22/22 25/25/25
f 18/18/18 25/25/25 22/22/22
f 25/25/25 19/19/19 24/24/24
f 26/26/26 25/25/25 27/27/27
f 28/28/28 27/27/27 25/25/25
f 27/27/27 28/28/28 29/29/29
f 26/26/26 30/30/30 31/31/31
f 32/32/32 31/31/31 30/30/30
f 27/27/27 32/32/32 30/30/30
f 27/27/27 30/30/30 26/26/26
f 32/32/32 27/27/27 33/33/33
f 34/34/34 33/33/33 27/27/27
f 27/27/27 29/29/29 34/34/34
f 34/34/34 29/29/29 35/35/35
f 28/28/28 35/35/35 29/29/29
f 32/32/32 36/36/36 37/37/37
f 26/26/26 37/37/37 36/36/36
f 36/36/36 17/17/17 26/26/26
f 36/36/36 28/28/28 17/17/17
f 36/36/36 38/38/38 34/34/34
f 34/34/34 39/39/39 36/36/36
f 28/28/28 36/36/36 39/39/39
f 36/36/36 32/32/32 38/38/38
f 33/33/33 40/40/40 41/41/41
f 42/42/42 33/33/33 41/41/41
f 33/33/33 42/42/42 43/43/43
f 44/44/44 45/45/45 42/42/42
f 42/42/42 41/41/41 44/44/44
f 46/46/46 44/44/44 41/41/41
f 2/2/2 45/45/45 44/44/44
f 44/44/44 47/47/47 2/2/2
f 47/47/47 44/44/44 46/46/46
f 2/2/2 38/38/38 43/43/43
f 38/38/38 2/2/2 47/47/47
f 47/47/47 40/40/40 38/38/38
f 48/48/48 3/3/3 2/2/2
