# Exported using wow.export v0.1.65
o clothboltwhite
mtllib clothboltwhite.mtl
v 0.08039219677448273 -0.6474720239639282 -0.15981900691986084
v 0.1195560023188591 -0.6474720239639282 -0.09589140117168427
v 0.04122859984636307 -0.6474720239639282 -0.09589140117168427
v 0.08039189875125885 0.6503999829292297 -0.15981900691986084
v 0.04122830182313919 0.6503999829292297 -0.09589169919490814
v 0.1195560023188591 0.6503999829292297 -0.09589140117168427
v 0.1195560023188591 0.6503999829292297 0.09589140117168427
v 0.04122830182313919 0.6503999829292297 0.09589140117168427
v 0.08039189875125885 0.6503999829292297 0.15981900691986084
v 0.08039219677448273 -0.5122420191764832 0.19358399510383606
v 0.15047599375247955 -0.5122420191764832 0.11614999920129776
v 0.15047499537467957 0 0.11614999920129776
v 0.15047499537467957 0 -0.11614999920129776
v 0.15047499537467957 -0.5122420191764832 -0.11614999920129776
v 0.08039189875125885 0 -0.19358399510383606
v 0.08039219677448273 -0.5122420191764832 -0.19358399510383606
v 0.01030889991670847 -0.5122420191764832 -0.11614999920129776
v 0.04122830182313919 -0.5359780192375183 -0.09589140117168427
v 0.04122859984636307 -0.5359780192375183 0.09589140117168427
v 0.04122859984636307 -0.6474720239639282 0.09589140117168427
v 0.08039219677448273 -0.6474720239639282 0.15981900691986084
v 0.1195560023188591 -0.5359780192375183 -0.09589140117168427
v 0.1195560023188591 -0.5359780192375183 0.09589140117168427
v 0.1195560023188591 -0.6474720239639282 0.09589169919490814
v 0.08039219677448273 -0.5359780192375183 0.15981900691986084
v 0.01030889991670847 -0.5122420191764832 0.11614999920129776
v 0.01030889991670847 0 -0.11614999920129776
v 0.08039189875125885 0.5122420191764832 -0.19358399510383606
v 0.08039219677448273 -0.5359780192375183 -0.15981900691986084
v 0.08039219677448273 -0.6474720239639282 -0.15981900691986084
v 0.04122859984636307 -0.6474720239639282 -0.09589140117168427
v 0.1195560023188591 -0.6474720239639282 -0.09589140117168427
v 0.1195560023188591 0.5389059782028198 0.09589140117168427
v 0.1195560023188591 0.5389059782028198 -0.09589169919490814
v 0.1195560023188591 0.6503999829292297 -0.09589140117168427
v 0.08039189875125885 0.6503999829292297 -0.15981900691986084
v 0.08039189875125885 0.5389059782028198 -0.15981900691986084
v 0.04122830182313919 0.5389059782028198 -0.09589169919490814
v 0.01030889991670847 0.5122420191764832 -0.11614999920129776
v 0.01030889991670847 0.5122420191764832 0.11614999920129776
v 0.01030889991670847 0 0.11614999920129776
v 0.08039189875125885 0 0.19358399510383606
v 0.08039189875125885 0.5122420191764832 0.19358399510383606
v 0.15047499537467957 0.5122420191764832 0.11614999920129776
v 0.15047499537467957 0.5122420191764832 -0.11614999920129776
v 0.08039189875125885 0.5389059782028198 0.15981900691986084
v 0.08039189875125885 0.6503999829292297 0.15981900691986084
v 0.04122830182313919 0.6503999829292297 0.09589140117168427
v 0.1195560023188591 0.6503999829292297 0.09589140117168427
v 0.04122830182313919 0.5389059782028198 0.09589140117168427
v 0.04122830182313919 0.6503999829292297 -0.09589169919490814
v 0.08039219677448273 -0.6474720239639282 0.15981900691986084
v 0.04122859984636307 -0.6474720239639282 0.09589140117168427
v 0.1195560023188591 -0.6474720239639282 0.09589169919490814
vn 2.669679872724373e-7 -0.6914550065994263 -0.7224199771881104
vn 0.6483709812164307 -0.7189710140228271 -0.2503890097141266
vn -0.7679499983787537 -0.5677139759063721 -0.29656898975372314
vn 2.561500025421992e-7 0.4316810071468353 -0.9020259976387024
vn -0.6836709976196289 0.7189710140228271 -0.1251949965953827
vn 0.8097609877586365 0.5677139759063721 -0.14828400313854218
vn 0.6483709812164307 0.7189720273017883 0.2503890097141266
vn -0.7679510116577148 0.5677139759063721 0.29656800627708435
vn -1.8453900452186645e-7 0.6914560198783875 0.722419023513794
vn 2.988460039432539e-7 -0.3534710109233856 0.9354450106620789
vn 0.8464940190315247 -0.4527370035648346 0.2801379859447479
vn 0.9331179857254028 1.1548299738706191e-7 0.3595690131187439
vn 0.9331179857254028 1.587419973247961e-7 -0.3595690131187439
vn 0.8105360269546509 -0.47886401414871216 -0.3372269868850708
vn 3.254939997532347e-7 4.837439959715084e-8 -1
vn 2.0823800639391266e-7 -0.7019550204277039 -0.7122219800949097
vn -0.8105350136756897 -0.47886401414871216 -0.3372269868850708
vn -0.8696020245552063 -0.4258669912815094 -0.2498590052127838
vn -0.8456569910049438 -0.4683299958705902 0.25599199533462524
vn -0.6836709976196289 -0.7189710140228271 0.1251949965953827
vn 1.8126399936591042e-7 -0.4316810071468353 0.9020259976387024
vn 0.8696020245552063 -0.4258669912815094 -0.2498590052127838
vn 0.8456569910049438 -0.4683299958705902 0.25599199533462524
vn 0.8097609877586365 -0.5677139759063721 0.14828400313854218
vn 3.335890141897835e-7 -0.7648980021476746 0.6441519856452942
vn -0.8464930057525635 -0.4527379870414734 0.2801379859447479
vn -0.9331179857254028 -1.1600000249245568e-7 -0.3595690131187439
vn 2.057810064570731e-7 0.32984399795532227 -0.944034993648529
vn 1.6819099357689993e-7 -0.3773159980773926 -0.9260849952697754
vn 2.669679872724373e-7 -0.6914550065994263 -0.7224199771881104
vn -0.7679499983787537 -0.5677139759063721 -0.29656898975372314
vn 0.6483709812164307 -0.7189710140228271 -0.2503890097141266
vn 0.8799489736557007 0.40022099018096924 0.25595301389694214
vn 0.8589159846305847 0.44286400079727173 -0.2571670114994049
vn 0.8097609877586365 0.5677139759063721 -0.14828400313854218
vn 2.561500025421992e-7 0.4316810071468353 -0.9020259976387024
vn 8.769020354293389e-8 0.7365419864654541 -0.6763910055160522
vn -0.8589159846305847 0.44286400079727173 -0.2571670114994049
vn -0.8579919934272766 0.42642998695373535 -0.2863689959049225
vn -0.8244860172271729 0.4530799984931946 0.3390290141105652
vn -0.9331179857254028 -1.5182999391072372e-7 0.3595690131187439
vn 2.0745099504893005e-7 -5.507590117304062e-8 1
vn 8.920480354390747e-8 0.6709489822387695 0.7415040135383606
vn 0.8244860172271729 0.4530799984931946 0.3390290141105652
vn 0.8579919934272766 0.42642998695373535 -0.2863680124282837
vn -3.7210298842182965e-7 0.3492319881916046 0.9370359778404236
vn -1.8453900452186645e-7 0.6914560198783875 0.722419023513794
vn -0.7679510116577148 0.5677139759063721 0.29656800627708435
vn 0.6483709812164307 0.7189720273017883 0.2503890097141266
vn -0.8799499869346619 0.40022099018096924 0.25595301389694214
vn -0.6836709976196289 0.7189710140228271 -0.1251949965953827
vn 1.8126399936591042e-7 -0.4316810071468353 0.9020259976387024
vn -0.6836709976196289 -0.7189710140228271 0.1251949965953827
vn 0.8097609877586365 -0.5677139759063721 0.14828400313854218
vt 0.2430959939956665 0.7511100023984909
vt 0.23707500100135803 0.7667990028858185
vt 0.24852800369262695 0.7667990028858185
vt 0.24309700727462769 0.8728069961071014
vt 0.24852900207042694 0.8571179956197739
vt 0.23707500100135803 0.8571179956197739
vt 0.23707500100135803 0.76596899330616
vt 0.24852800369262695 0.76596899330616
vt 0.24309700727462769 0.7512380033731461
vt 0.19254200160503387 0.7511100023984909
vt 0.19254200160503387 0.7754240036010742
vt 0.004993959795683622 0.7755520045757294
vt 0.004993959795683622 0.8484929949045181
vt 0.19254200160503387 0.848364993929863
vt 0.004994019865989685 0.8728069961071014
vt 0.19254200160503387 0.8726789951324463
vt 0.19254200160503387 0.848364993929863
vt 0.21284599602222443 0.8420040011405945
vt 0.21284599602222443 0.7817849963903427
vt 0.23715899884700775 0.7817849963903427
vt 0.23715899884700775 0.7617119997739792
vt 0.21284599602222443 0.8420040011405945
vt 0.21284599602222443 0.7817849963903427
vt 0.23715899884700775 0.7817849963903427
vt 0.21284599602222443 0.7617119997739792
vt 0.19254200160503387 0.7754240036010742
vt 0.004993959795683622 0.8484929949045181
vt 0.19255000352859497 0.8728069961071014
vt 0.21284599602222443 0.862076997756958
vt 0.23715899884700775 0.862076997756958
vt 0.23715899884700775 0.8420040011405945
vt 0.23715899884700775 0.8420040011405945
vt 0.21285699307918549 0.7819129973649979
vt 0.21285699307918549 0.8421320021152496
vt 0.2371699959039688 0.8421320021152496
vt 0.2371699959039688 0.8622049987316132
vt 0.21285699307918549 0.8622049987316132
vt 0.21285699307918549 0.8421320021152496
vt 0.19255000352859497 0.8484929949045181
vt 0.19255000352859497 0.7755520045757294
vt 0.004993959795683622 0.7755520045757294
vt 0.004993959795683622 0.7512380033731461
vt 0.19255000352859497 0.7512380033731461
vt 0.19255000352859497 0.7755520045757294
vt 0.19255000352859497 0.8484929949045181
vt 0.21285699307918549 0.7618400007486343
vt 0.2371699959039688 0.7618400007486343
vt 0.2371699959039688 0.7819129973649979
vt 0.2371699959039688 0.7819129973649979
vt 0.21285699307918549 0.7819129973649979
vt 0.2371699959039688 0.8421320021152496
vt 0.2430959939956665 0.8726789951324463
vt 0.24852800369262695 0.8579480051994324
vt 0.23707500100135803 0.8579480051994324
g Geoset0
s 1
usemtl mat_clothstuff
f 1/1/1 2/2/2 3/3/3
f 4/4/4 5/5/5 6/6/6
f 7/7/7 6/6/6 5/5/5
f 5/5/5 8/8/8 7/7/7
f 9/9/9 7/7/7 8/8/8
f 10/10/10 11/11/11 12/12/12
f 13/13/13 12/12/12 11/11/11
f 11/11/11 14/14/14 13/13/13
f 15/15/15 13/13/13 14/14/14
f 14/14/14 16/16/16 15/15/15
f 15/15/15 16/16/16 17/17/17
f 18/18/18 17/17/17 16/16/16
f 17/17/17 18/18/18 19/19/19
f 20/20/20 19/19/19 18/18/18
f 19/19/19 20/20/20 21/21/21
f 22/22/22 23/23/23 24/24/24
f 21/21/21 24/24/24 23/23/23
f 23/23/23 25/25/25 21/21/21
f 21/21/21 25/25/25 19/19/19
f 26/26/26 19/19/19 25/25/25
f 19/19/19 26/26/26 17/17/17
f 27/27/27 17/17/17 26/26/26
f 17/17/17 27/27/27 15/15/15
f 28/28/28 15/15/15 27/27/27
f 13/13/13 15/15/15 28/28/28
f 29/29/29 30/30/30 31/31/31
f 32/32/32 30/30/30 29/29/29
f 29/29/29 22/22/22 32/32/32
f 24/24/24 32/32/32 22/22/22
f 25/25/25 10/10/10 26/26/26
f 11/11/11 10/10/10 25/25/25
f 25/25/25 23/23/23 11/11/11
f 14/14/14 11/11/11 23/23/23
f 23/23/23 22/22/22 14/14/14
f 16/16/16 14/14/14 22/22/22
f 22/22/22 29/29/29 16/16/16
f 16/16/16 29/29/29 18/18/18
f 31/31/31 18/18/18 29/29/29
f 18/18/18 31/31/31 20/20/20
f 33/33/33 34/34/34 35/35/35
f 36/36/36 35/35/35 34/34/34
f 34/34/34 37/37/37 36/36/36
f 36/36/36 37/37/37 38/38/38
f 39/39/39 38/38/38 37/37/37
f 38/38/38 39/39/39 40/40/40
f 41/41/41 40/40/40 39/39/39
f 40/40/40 41/41/41 42/42/42
f 10/10/10 42/42/42 41/41/41
f 12/12/12 42/42/42 10/10/10
f 43/43/43 44/44/44 33/33/33
f 34/34/34 33/33/33 44/44/44
f 44/44/44 45/45/45 34/34/34
f 37/37/37 34/34/34 45/45/45
f 45/45/45 28/28/28 37/37/37
f 37/37/37 28/28/28 39/39/39
f 27/27/27 39/39/39 28/28/28
f 39/39/39 27/27/27 41/41/41
f 26/26/26 41/41/41 27/27/27
f 41/41/41 26/26/26 10/10/10
f 46/46/46 47/47/47 48/48/48
f 49/49/49 47/47/47 46/46/46
f 46/46/46 33/33/33 49/49/49
f 35/35/35 49/49/49 33/33/33
f 50/50/50 48/48/48 51/51/51
f 48/48/48 50/50/50 46/46/46
f 43/43/43 46/46/46 50/50/50
f 33/33/33 46/46/46 43/43/43
f 28/28/28 45/45/45 13/13/13
f 12/12/12 13/13/13 45/45/45
f 45/45/45 44/44/44 12/12/12
f 42/42/42 12/12/12 44/44/44
f 44/44/44 43/43/43 42/42/42
f 42/42/42 43/43/43 40/40/40
f 50/50/50 40/40/40 43/43/43
f 40/40/40 50/50/50 38/38/38
f 51/51/51 38/38/38 50/50/50
f 38/38/38 51/51/51 36/36/36
f 52/52/52 53/53/53 54/54/54
f 2/2/2 54/54/54 53/53/53
f 53/53/53 3/3/3 2/2/2
