# Exported using wow.export v0.1.65
o mop
mtllib mop.mtl
v -0.43754956126213074 0.8513591885566711 0.0538991279900074
v -0.5347290635108948 0.824409008026123 -0.01938883401453495
v -0.5668738484382629 0.7189294695854187 -0.024376485496759415
v -0.4825398623943329 0.8516247272491455 -0.009432475082576275
v -0.5141046643257141 -0.006659137085080147 -0.07987258583307266
v -0.3789452612400055 0.1914684921503067 0.3254641592502594
v 0.49059000611305237 -0.010450893081724644 -0.009432475082576275
v -0.13488776981830597 0.2756800651550293 -0.3443290889263153
v -0.0794704481959343 0.2986522912979126 0.06100763380527496
v -0.5668738484382629 0.7189294695854187 -0.024376485496759415
v -0.38417619466781616 0.7695959806442261 -0.13019230961799622
v -0.4175562560558319 0.6534762978553772 -0.013721306808292866
v -0.38417619466781616 0.7695959806442261 0.11340488493442535
v -0.43754956126213074 0.8513591885566711 -0.07567384839057922
v -0.9699152112007141 2.833902597427368 -0.10665024816989899
v -0.5347290635108948 0.824409008026123 -0.01938883401453495
v -0.9699152112007141 2.833902597427368 0.0877092182636261
v -1.1156846284866333 2.7934772968292236 -0.02222273126244545
v -1.044198989868164 2.913076877593994 -0.01372126117348671
v -1.1156846284866333 2.7934772968292236 -0.02222273126244545
vn 0.31295841932296753 0.46474313735961914 0.8282939195632935
vn -0.9969485402107239 0.060019351541996 -0.04991254583001137
vn -0.9216609597206116 -0.3825659155845642 -0.06468695402145386
vn -0.31044381856918335 0.9505910873413086 0.001122622168622911
vn -0.6973897814750671 -0.6793542504310608 -0.22830958664417267
vn -0.27378231287002563 -0.16139240562915802 0.9481538534164429
vn 0.9600834250450134 -0.2776608467102051 0.033827830106019974
vn 0.2197617143392563 0.15838146209716797 -0.9626110792160034
vn 0.5960017442703247 0.7082759141921997 0.3783215582370758
vn -0.9216609597206116 -0.3825659155845642 -0.06468695402145386
vn 0.5102436542510986 0.015229769051074982 -0.8598950505256653
vn 0.27281519770622253 -0.9620518088340759 0.005310043226927519
vn 0.4643445611000061 0.003956562839448452 0.8856458067893982
vn 0.3766063153743744 0.4562913775444031 -0.806204617023468
vn 0.3691200911998749 0.44677701592445374 -0.8149482607841492
vn -0.9969485402107239 0.060019351541996 -0.04991254583001137
vn 0.31934893131256104 0.4424417018890381 0.8380104899406433
vn -0.9963625073432922 0.0619940385222435 -0.058467984199523926
vn -0.2626956105232239 0.9648689031600952 0.004365415312349796
vn -0.9963625073432922 0.0619940385222435 -0.058467984199523926
vt 0.5133681297302246 0.3360973000526428
vt 0.5178173184394836 0.28799760341644287
vt 0.38178569078445435 0.2919034957885742
vt 0.016705159097909927 0.3746713399887085
vt 0.2431315779685974 0.40092360973358154
vt 0.24320055544376373 0.2218937873840332
vt 0.47970348596572876 0.3492950201034546
vt 0.24312828481197357 0.21969497203826904
vt 0.24328583478927612 0.4005606174468994
vt 0.3768371343612671 0.3686091899871826
vt 0.3816245496273041 0.3011338710784912
vt 0.14284873008728027 0.3549259901046753
vt 0.3765931725502014 0.3825860619544983
vt 0.5178093314170837 0.2884570360183716
vt 0.9926281571388245 0.29207611083984375
vt 0.5128688216209412 0.36470329761505127
vt 0.9877763390541077 0.363243043422699
vt 0.9878254532814026 0.360437273979187
vt 0.9254112839698792 0.32569146156311035
vt 0.9927738308906555 0.28373146057128906
g Geoset0
s 1
usemtl mat_desk
f 1/1/1 2/2/2 3/3/3
f 4/4/4 5/5/5 6/6/6
f 5/5/5 7/7/7 6/6/6
f 8/8/8 7/7/7 5/5/5
f 9/9/9 7/7/7 8/8/8
f 6/6/6 7/7/7 9/9/9
f 4/4/4 6/6/6 9/9/9
f 4/4/4 9/9/9 8/8/8
f 4/4/4 8/8/8 5/5/5
f 10/10/10 11/11/11 12/12/12
f 11/11/11 13/13/13 12/12/12
f 13/13/13 11/11/11 14/14/14
f 15/15/15 14/14/14 16/16/16
f 16/16/16 14/14/14 11/11/11
f 11/11/11 10/10/10 16/16/16
f 13/13/13 3/3/3 12/12/12
f 3/3/3 13/13/13 1/1/1
f 14/14/14 1/1/1 13/13/13
f 17/17/17 1/1/1 14/14/14
f 17/17/17 14/14/14 15/15/15
f 15/15/15 16/16/16 18/18/18
f 19/19/19 15/15/15 18/18/18
f 19/19/19 17/17/17 15/15/15
f 19/19/19 20/20/20 17/17/17
f 20/20/20 1/1/1 17/17/17
f 20/20/20 2/2/2 1/1/1
