# Exported using wow.export v0.1.65
o ruinedsteamtankaxle01
mtllib ruinedsteamtankaxle01.mtl
v 1.4719868898391724 0.4737434983253479 2.2719297409057617
v 1.293439507484436 0.36115965247154236 2.283107280731201
v 1.2844136953353882 0.1892213523387909 2.40572452545166
v -1.2645362615585327 0.27887049317359924 -2.7408556938171387
v -1.2989517450332642 0.03043164499104023 -2.7217793464660645
v -1.4355072975158691 0.4371671676635742 -2.646085500717163
v -1.6753084659576416 0.09858588874340057 -2.5131618976593018
v -1.6408931016921997 0.3470248281955719 -2.532238245010376
v -1.504338026046753 -0.05971068888902664 -2.6079325675964355
v -1.6408931016921997 0.3470248281955719 -2.532238245010376
v -1.6753084659576416 0.09858588874340057 -2.5131618976593018
v -0.3280898332595825 0.10448315739631653 0.14162276685237885
v -0.29592591524124146 0.33666905760765076 0.12379416078329086
v 0.6682581901550293 0.09858575463294983 1.444337010383606
v 0.7002927660942078 0.34702467918395996 1.4214869737625122
v 1.2875757217407227 0.010908897966146469 1.9307844638824463
v 1.2973695993423462 0.17573551833629608 1.8943021297454834
v 1.2844136953353882 0.1892213523387909 2.40572452545166
v 1.293439507484436 0.36115965247154236 2.283107280731201
v -1.4355072975158691 0.4371671676635742 -2.646085500717163
v -0.10397668182849884 0.4209142327308655 0.017394503578543663
v 0.8914703726768494 0.4371670186519623 1.2851208448410034
v 1.4376343488693237 0.23852653801441193 1.8237487077713013
v 1.4719868898391724 0.4737434983253479 2.2719297409057617
v -1.2645362615585327 0.27887049317359924 -2.7408556938171387
v 0.0558091402053833 0.2729734778404236 -0.07117585092782974
v 1.0506136417388916 0.2788703739643097 1.1716049909591675
v 1.5681051015853882 0.13649092614650726 1.7896775007247925
v 1.6415081024169922 0.41438913345336914 2.3833694458007812
v -1.2989517450332642 0.03043164499104023 -2.7217793464660645
v 0.023645227774977684 0.040787626057863235 -0.05334724113345146
v 1.018579363822937 0.030431509017944336 1.1944553852081299
v 1.5583109855651855 -0.028335630893707275 1.8261598348617554
v 1.6324820518493652 0.24245098233222961 2.5059866905212402
v -1.504338026046753 -0.05971068888902664 -2.6079325675964355
v -0.1683042347431183 -0.043457575142383575 0.053052064031362534
v 0.8274015188217163 -0.05971086025238037 1.33082115650177
v 1.4180463552474976 -0.0911267101764679 1.8967132568359375
v 1.453934907913208 0.12986712157726288 2.517164468765259
v 1.6415081024169922 0.41438913345336914 2.3833694458007812
v 1.6324820518493652 0.24245098233222961 2.5059866905212402
v 1.453934907913208 0.12986712157726288 2.517164468765259
vn -0.033670660108327866 0.995101273059845 0.09295018017292023
vn -0.7393302917480469 0.673342227935791 0.000976508017629385
vn -0.7129113674163818 0.29209908843040466 0.6375229954719543
vn 0.5485848188400269 0.5007342100143433 -0.6695669889450073
vn 0.34590211510658264 -0.38350823521614075 -0.8563137054443359
vn -0.4200703501701355 0.5523362159729004 -0.7200455665588379
vn -0.8833695650100708 -0.4154193103313446 -0.2169909030199051
vn -0.8976030349731445 0.4360966682434082 0.06425338983535767
vn -0.26757264137268066 -0.799841582775116 -0.5372693538665771
vn -0.8976030349731445 0.4360966682434082 0.06425338983535767
vn -0.8833695650100708 -0.4154193103313446 -0.2169909030199051
vn -0.7937778234481812 -0.3590722382068634 0.4909011423587799
vn -0.6511736512184143 0.6301432251930237 0.42295679450035095
vn -0.6919970512390137 -0.3548804223537445 0.6286492943763733
vn -0.5061079859733582 0.6297601461410522 0.5892850756645203
vn -0.7448634505271912 -0.39664673805236816 0.5365164279937744
vn -0.733427882194519 0.6178461313247681 0.2834602892398834
vn -0.7129113674163818 0.29209908843040466 0.6375229954719543
vn -0.7393302917480469 0.673342227935791 0.000976508017629385
vn -0.4200703501701355 0.5523362159729004 -0.7200455665588379
vn 0.14046183228492737 0.9876538515090942 -0.06935696303844452
vn 0.19773854315280914 0.9801997542381287 0.010390751995146275
vn 0.08157013356685638 0.9629475474357605 -0.2570570111274719
vn -0.033670660108327866 0.995101273059845 0.09295018017292023
vn 0.5485848188400269 0.5007342100143433 -0.6695669889450073
vn 0.7907075881958008 0.35924702882766724 -0.49570468068122864
vn 0.7515644431114197 0.36281925439834595 -0.5509202480316162
vn 0.7893766164779663 0.3666307032108307 -0.4924088418483734
vn 0.6989878416061401 0.6204655766487122 0.3555818498134613
vn 0.34590211510658264 -0.38350823521614075 -0.8563137054443359
vn 0.6477435827255249 -0.6303800940513611 -0.4278424382209778
vn 0.5831387639045715 -0.6314526200294495 -0.5110937356948853
vn 0.754029393196106 -0.6153917908668518 -0.22963592410087585
vn 0.5598592758178711 -0.24009564518928528 0.7930395007133484
vn -0.26757264137268066 -0.799841582775116 -0.5372693538665771
vn -0.1434626281261444 -0.9874899387359619 0.06543749570846558
vn -0.1358567774295807 -0.9881178140640259 0.07187580317258835
vn -0.0353303998708725 -0.9590464234352112 0.2810367941856384
vn -0.3079513609409332 -0.7122067809104919 0.6308149695396423
vn 0.6989878416061401 0.6204655766487122 0.3555818498134613
vn 0.5598592758178711 -0.24009564518928528 0.7930395007133484
vn -0.3079513609409332 -0.7122067809104919 0.6308149695396423
vt 0.2588760554790497 0.7872993350028992
vt 0.23174430429935455 0.807102620601654
vt 0.23615369200706482 0.8386437296867371
vt 0.23295429348945618 0.835701048374176
vt 0.23803479969501495 0.8053812980651855
vt 0.25819361209869385 0.8564072251319885
vt 0.2935939431190491 0.816473662853241
vt 0.2885134518146515 0.8467934727668762
vt 0.2683546543121338 0.7957675457000732
vt 0.8277032375335693 0.8192321062088013
vt 0.8316748142242432 0.775492787361145
vt 0.6699246168136597 0.7774283289909363
vt 0.6763773560523987 0.8194302320480347
vt 0.8316748142242432 0.775492787361145
vt 0.8277032375335693 0.8192321062088013
vt 0.6699246168136597 0.7774283289909363
vt 0.6763773560523987 0.8194302320480347
vt 0.8316748142242432 0.775492787361145
vt 0.8277032375335693 0.8192321062088013
vt 0.8316748142242432 0.775492787361145
vt 0.6699246168136597 0.7774283289909363
vt 0.8316748142242432 0.775492787361145
vt 0.6699246168136597 0.7774283289909363
vt 0.8316748142242432 0.775492787361145
vt 0.8277032375335693 0.8192321062088013
vt 0.6763773560523987 0.8194302320480347
vt 0.8277032375335693 0.8192321062088013
vt 0.6763773560523987 0.8194302320480347
vt 0.8277032375335693 0.8192321062088013
vt 0.8316748142242432 0.775492787361145
vt 0.6699246168136597 0.7774283289909363
vt 0.8316748142242432 0.775492787361145
vt 0.6699246168136597 0.7774283289909363
vt 0.8316748142242432 0.775492787361145
vt 0.8277032375335693 0.8192321062088013
vt 0.6763773560523987 0.8194302320480347
vt 0.8277032375335693 0.8192321062088013
vt 0.6763773560523987 0.8194302320480347
vt 0.8277032375335693 0.8192321062088013
vt 0.2904171645641327 0.7990372180938721
vt 0.29482656717300415 0.8305783867835999
vt 0.2676948606967926 0.85038161277771
g Geoset0
s 1
usemtl mat_steamtankwrecked02
f 1/1/1 2/2/2 3/3/3
f 4/4/4 5/5/5 6/6/6
f 7/7/7 8/8/8 6/6/6
f 9/9/9 7/7/7 6/6/6
f 5/5/5 9/9/9 6/6/6
f 10/10/10 11/11/11 12/12/12
f 12/12/12 13/13/13 10/10/10
f 14/14/14 13/13/13 12/12/12
f 14/14/14 15/15/15 13/13/13
f 16/16/16 15/15/15 14/14/14
f 16/16/16 17/17/17 15/15/15
f 18/18/18 17/17/17 16/16/16
f 18/18/18 19/19/19 17/17/17
f 20/20/20 10/10/10 13/13/13
f 13/13/13 21/21/21 20/20/20
f 15/15/15 21/21/21 13/13/13
f 15/15/15 22/22/22 21/21/21
f 17/17/17 22/22/22 15/15/15
f 17/17/17 23/23/23 22/22/22
f 19/19/19 23/23/23 17/17/17
f 19/19/19 24/24/24 23/23/23
f 25/25/25 20/20/20 21/21/21
f 21/21/21 26/26/26 25/25/25
f 22/22/22 26/26/26 21/21/21
f 22/22/22 27/27/27 26/26/26
f 23/23/23 27/27/27 22/22/22
f 23/23/23 28/28/28 27/27/27
f 24/24/24 28/28/28 23/23/23
f 24/24/24 29/29/29 28/28/28
f 30/30/30 25/25/25 26/26/26
f 26/26/26 31/31/31 30/30/30
f 27/27/27 31/31/31 26/26/26
f 27/27/27 32/32/32 31/31/31
f 28/28/28 32/32/32 27/27/27
f 28/28/28 33/33/33 32/32/32
f 29/29/29 33/33/33 28/28/28
f 29/29/29 34/34/34 33/33/33
f 35/35/35 30/30/30 31/31/31
f 31/31/31 36/36/36 35/35/35
f 32/32/32 36/36/36 31/31/31
f 32/32/32 37/37/37 36/36/36
f 33/33/33 37/37/37 32/32/32
f 33/33/33 38/38/38 37/37/37
f 34/34/34 38/38/38 33/33/33
f 34/34/34 39/39/39 38/38/38
f 11/11/11 35/35/35 36/36/36
f 36/36/36 12/12/12 11/11/11
f 37/37/37 12/12/12 36/36/36
f 37/37/37 14/14/14 12/12/12
f 38/38/38 14/14/14 37/37/37
f 38/38/38 16/16/16 14/14/14
f 39/39/39 16/16/16 38/38/38
f 39/39/39 18/18/18 16/16/16
f 40/40/40 1/1/1 3/3/3
f 41/41/41 40/40/40 3/3/3
f 42/42/42 41/41/41 3/3/3
