# Exported using wow.export v0.1.65
o ruinedsteamtankgastank01
mtllib ruinedsteamtankgastank01.mtl
v 1.4735000133514404 1.0802199840545654 -0.5790889859199524
v 0.8089079856872559 1.5660400390625 -0.9569439888000488
v -0.3775390088558197 1.4807599782943726 1.0217000246047974
v -1.0658600330352783 0.19417400658130646 0.6869860291481018
v -0.4671280086040497 -0.24349400401115417 1.027400016784668
v -0.5845109820365906 0.5783830285072327 1.2926199436187744
v -1.0511000156402588 1.0089099407196045 0.7304360270500183
v -0.4376029968261719 1.385990023612976 1.114300012588501
v -1.058519959449768 1.062209963798523 0.5956140160560608
v -0.3775390088558197 1.4807599782943726 1.0217000246047974
v 0.1463650017976761 0.13357999920845032 1.4112600088119507
v 0.16112899780273438 0.9483190178871155 1.4547100067138672
v 0.2870500087738037 0.9949560165405273 1.3995599746704102
v 0.2706640064716339 0.09059079736471176 1.351330041885376
v -0.41031399369239807 -0.32795798778533936 0.9252390265464783
v -1.074910044670105 0.1578499972820282 0.5473809838294983
v 1.457110047340393 0.1758590042591095 -0.6273170113563538
v 1.4500800371170044 0.22839100658893585 -0.762857973575592
v 1.4735000133514404 1.0802199840545654 -0.5790889859199524
v 1.464840054512024 1.0431300401687622 -0.7194030284881592
v 0.9840890169143677 0.6919559836387634 -1.3232799768447876
v 0.8661109805107117 1.4808000326156616 -1.0598200559616089
v 0.2526170015335083 1.1037299633026123 -1.4436800479888916
v 0.23785300552845 0.28898298740386963 -1.487130045890808
v 0.8365830183029175 -0.14868399500846863 -1.146720051765442
v 0.7761309742927551 -0.2426930069923401 -1.0534100532531738
v 0.1115420013666153 0.24311800301074982 -1.4312599897384644
v 0.12793000042438507 1.1474800109863281 -1.3830300569534302
v 0.8089079856872559 1.5660400390625 -0.9569439888000488
v -1.058519959449768 1.062209963798523 0.5956140160560608
v 0.12793000042438507 1.1474800109863281 -1.3830300569534302
v -1.074910044670105 0.1578499972820282 0.5473809838294983
v 0.1115420013666153 0.24311800301074982 -1.4312599897384644
v -0.41031399369239807 -0.32795798778533936 0.9252390265464783
v 0.7761309742927551 -0.2426930069923401 -1.0534100532531738
v 0.2706640064716339 0.09059079736471176 1.351330041885376
v 1.457110047340393 0.1758590042591095 -0.6273170113563538
v 0.2870500087738037 0.9949560165405273 1.3995599746704102
vn 0.8730819821357727 0.4628570079803467 0.1532689929008484
vn 0.1738789975643158 0.9539200067520142 -0.24454699456691742
vn -0.0020447499118745327 0.9043819904327393 0.42671999335289
vn -0.8240709900856018 -0.3899869918823242 0.4108729958534241
vn -0.33815500140190125 -0.6380419731140137 0.6917750239372253
vn -0.5138279795646667 -0.03263450041413307 0.8572720289230347
vn -0.8911319971084595 0.21960000693798065 0.39706501364707947
vn -0.4733180105686188 0.5794829726219177 0.6634529829025269
vn -0.7714759707450867 0.6345030069351196 -0.04722420126199722
vn -0.0020447499118745327 0.9043819904327393 0.42671999335289
vn 0.07890640199184418 -0.2762500047683716 0.9578409790992737
vn 0.01080860011279583 0.3316810131072998 0.9433299899101257
vn 0.599636971950531 0.25763198733329773 0.7576680183410645
vn 0.43187499046325684 -0.660116970539093 0.6145970225334167
vn -0.33839601278305054 -0.9305130243301392 0.14011800289154053
vn -0.9400659799575806 -0.28264498710632324 -0.19075599312782288
vn 0.8710340261459351 -0.47850000858306885 0.11106999963521957
vn 0.8917229771614075 -0.2184479981660843 -0.396371990442276
vn 0.8730819821357727 0.4628570079803467 0.1532689929008484
vn 0.8243550062179565 0.39176398515701294 -0.40860599279403687
vn 0.5139639973640442 0.04015979915857315 -0.8568710088729858
vn 0.3370240032672882 0.6414039731025696 -0.6892129778862
vn -0.08167439699172974 0.27847498655319214 -0.9569640159606934
vn -0.011947300285100937 -0.33169999718666077 -0.9433090090751648
vn 0.4741150140762329 -0.5789769887924194 -0.6633250117301941
vn 0.17006799578666687 -0.9289659857749939 -0.3287839889526367
vn -0.5291150212287903 -0.43827199935913086 -0.7266049981117249
vn -0.5273510217666626 0.5032569766044617 -0.6845679879188538
vn 0.1738789975643158 0.9539200067520142 -0.24454699456691742
vn -0.7714759707450867 0.6345030069351196 -0.04722420126199722
vn -0.5273510217666626 0.5032569766044617 -0.6845679879188538
vn -0.9400659799575806 -0.28264498710632324 -0.19075599312782288
vn -0.5291150212287903 -0.43827199935913086 -0.7266049981117249
vn -0.33839601278305054 -0.9305130243301392 0.14011800289154053
vn 0.17006799578666687 -0.9289659857749939 -0.3287839889526367
vn 0.43187499046325684 -0.660116970539093 0.6145970225334167
vn 0.8710340261459351 -0.47850000858306885 0.11106999963521957
vn 0.599636971950531 0.25763198733329773 0.7576680183410645
vt 0.0072463802061975 0.16765302419662476
vt 0.0072463802061975 0.24794501066207886
vt 0.5 0.24794501066207886
vt 0.5429149866104126 0.0770990252494812
vt 0.7374079823493958 0.0308150053024292
vt 0.7374709844589233 0.11847901344299316
vt 0.5431540012359619 0.16167497634887695
vt 0.7373530268669128 0.21950101852416992
vt 0.5157729983329773 0.1747419834136963
vt 0.7373089790344238 0.2417449951171875
vt 0.5425249934196472 0.07692098617553711
vt 0.5422859787940979 0.16149699687957764
vt 0.5157510042190552 0.17453300952911377
vt 0.5157549977302551 0.056919991970062256
vt 0.737371027469635 0.0016369819641113281
vt 0.5157690048217773 0.05712997913360596
vt 0.5157549977302551 0.056919991970062256
vt 0.5425249934196472 0.07692098617553711
vt 0.5157510042190552 0.17453300952911377
vt 0.5422859787940979 0.16149699687957764
vt 0.7374709844589233 0.11847901344299316
vt 0.7373530268669128 0.21950101852416992
vt 0.5431540012359619 0.16167497634887695
vt 0.5429149866104126 0.0770990252494812
vt 0.7374079823493958 0.0308150053024292
vt 0.737371027469635 0.0016369819641113281
vt 0.5157690048217773 0.05712997913360596
vt 0.5157729983329773 0.1747419834136963
vt 0.7373089790344238 0.2417449951171875
vt 0.5 0.16765302419662476
vt 0.0072463802061975 0.16765302419662476
vt 0.5 0.08736097812652588
vt 0.0072463802061975 0.08736097812652588
vt 0.5 0.004635989665985107
vt 0.0072463802061975 0.004635989665985107
vt 0.5 0.08736097812652588
vt 0.0072463802061975 0.08736097812652588
vt 0.5 0.16765302419662476
g Geoset0
s 1
usemtl mat_steamtankwrecked01
f 1/1/1 2/2/2 3/3/3
f 4/4/4 5/5/5 6/6/6
f 7/7/7 4/4/4 6/6/6
f 8/8/8 7/7/7 6/6/6
f 9/9/9 7/7/7 8/8/8
f 8/8/8 10/10/10 9/9/9
f 5/5/5 11/11/11 6/6/6
f 11/11/11 12/12/12 6/6/6
f 12/12/12 8/8/8 6/6/6
f 10/10/10 8/8/8 12/12/12
f 12/12/12 13/13/13 10/10/10
f 13/13/13 12/12/12 11/11/11
f 11/11/11 14/14/14 13/13/13
f 14/14/14 11/11/11 5/5/5
f 5/5/5 15/15/15 14/14/14
f 15/15/15 5/5/5 4/4/4
f 4/4/4 16/16/16 15/15/15
f 16/16/16 4/4/4 7/7/7
f 7/7/7 9/9/9 16/16/16
f 17/17/17 18/18/18 19/19/19
f 20/20/20 19/19/19 18/18/18
f 20/20/20 18/18/18 21/21/21
f 22/22/22 20/20/20 21/21/21
f 23/23/23 22/22/22 21/21/21
f 24/24/24 23/23/23 21/21/21
f 25/25/25 24/24/24 21/21/21
f 18/18/18 25/25/25 21/21/21
f 18/18/18 17/17/17 25/25/25
f 26/26/26 25/25/25 17/17/17
f 25/25/25 26/26/26 24/24/24
f 27/27/27 24/24/24 26/26/26
f 24/24/24 27/27/27 23/23/23
f 28/28/28 23/23/23 27/27/27
f 23/23/23 28/28/28 22/22/22
f 29/29/29 22/22/22 28/28/28
f 22/22/22 29/29/29 20/20/20
f 19/19/19 20/20/20 29/29/29
f 3/3/3 2/2/2 30/30/30
f 2/2/2 31/31/31 30/30/30
f 31/31/31 32/32/32 30/30/30
f 31/31/31 33/33/33 32/32/32
f 32/32/32 33/33/33 34/34/34
f 33/33/33 35/35/35 34/34/34
f 34/34/34 35/35/35 36/36/36
f 35/35/35 37/37/37 36/36/36
f 36/36/36 37/37/37 38/38/38
f 37/37/37 1/1/1 38/38/38
f 38/38/38 1/1/1 3/3/3
