# Exported using wow.export v0.1.65
o ruinedsteamtankwheel01
mtllib ruinedsteamtankwheel01.mtl
v -1.2572300434112549 1.1032099723815918 -0.6111469864845276
v -0.8370940089225769 1.0911600589752197 -1.1944600343704224
v -0.8442559838294983 -0.19659599661827087 -1.173009991645813
v 1.1749399900436401 1.0783300399780273 -1.2931100130081177
v 0.5126559734344482 1.0773500204086304 -1.5729199647903442
v 0.23259000480175018 1.4095799922943115 0.01250780001282692
v 1.6502399444580078 1.0846699476242065 -0.7537029981613159
v 1.8444199562072754 1.0951199531555176 -0.061538901180028915
v -0.8370940089225769 1.0911600589752197 -1.1944600343704224
v -1.2572300434112549 1.1032099723815918 -0.6111469864845276
v -0.20542900264263153 1.0819300413131714 -1.5377099514007568
v -1.3826299905776978 1.1157000064849854 0.09668529778718948
v -1.188439965248108 1.1261399984359741 0.788847029209137
v -0.713138997554779 1.1324800252914429 1.3282500505447388
v -0.05086139962077141 1.1334600448608398 1.6080600023269653
v 1.7190300226211548 1.1075999736785889 0.646291971206665
v 0.6672220230102539 1.1288800239562988 1.572849988937378
v 1.2988899946212769 1.1196500062942505 1.2296099662780762
v 0.22373700141906738 -0.1823520064353943 0.03901920095086098
v -1.1956100463867188 -0.16161400079727173 0.8102970123291016
v -1.3897900581359863 -0.1720609962940216 0.11813099682331085
v -0.7203029990196228 -0.15527400374412537 1.3496999740600586
v -0.058023300021886826 -0.15429699420928955 1.6295100450515747
v 0.6600639820098877 -0.15887700021266937 1.5943000316619873
v 1.2917300462722778 -0.16810600459575653 1.2510499954223633
v 1.7118699550628662 -0.18015700578689575 0.6677420139312744
v 1.1677800416946411 -0.20942799746990204 -1.2716599702835083
v 1.6430799961090088 -0.20308899879455566 -0.7322559952735901
v 1.8372600078582764 -0.1926420032978058 -0.04009279981255531
v 0.5054969787597656 -0.21040500700473785 -1.5514700412750244
v -0.21258999407291412 -0.20582500100135803 -1.516260027885437
v -0.8442559838294983 -0.19659599661827087 -1.173009991645813
v -1.264389991760254 -0.18454599380493164 -0.5896999835968018
v 1.6430799961090088 -0.20308899879455566 -0.7322559952735901
v 1.6502399444580078 1.0846699476242065 -0.7537029981613159
v 1.8372600078582764 -0.1926420032978058 -0.04009279981255531
v 1.8444199562072754 1.0951199531555176 -0.061538901180028915
v 1.7118699550628662 -0.18015700578689575 0.6677420139312744
v 1.7190300226211548 1.1075999736785889 0.646291971206665
v 1.2917300462722778 -0.16810600459575653 1.2510499954223633
v 1.2988899946212769 1.1196500062942505 1.2296099662780762
v 0.6600639820098877 -0.15887700021266937 1.5943000316619873
v 0.6672220230102539 1.1288800239562988 1.572849988937378
v -0.058023300021886826 -0.15429699420928955 1.6295100450515747
v -0.05086139962077141 1.1334600448608398 1.6080600023269653
v -0.21258999407291412 -0.20582500100135803 -1.516260027885437
v -0.20542900264263153 1.0819300413131714 -1.5377099514007568
v 0.5054969787597656 -0.21040500700473785 -1.5514700412750244
v 0.5126559734344482 1.0773500204086304 -1.5729199647903442
v 1.1677800416946411 -0.20942799746990204 -1.2716599702835083
v 1.1749399900436401 1.0783300399780273 -1.2931100130081177
v -0.7203029990196228 -0.15527400374412537 1.3496999740600586
v -0.713138997554779 1.1324800252914429 1.3282500505447388
v -1.1956100463867188 -0.16161400079727173 0.8102970123291016
v -1.188439965248108 1.1261399984359741 0.788847029209137
v -1.3897900581359863 -0.1720609962940216 0.11813099682331085
v -1.3826299905776978 1.1157000064849854 0.09668529778718948
v -1.264389991760254 -0.18454599380493164 -0.5896999835968018
vn -0.8889840245246887 -0.002682540100067854 -0.4579299986362457
vn -0.6022700071334839 -0.009944199584424496 -0.798229992389679
vn -0.5947920083999634 -0.5695760250091553 -0.5672789812088013
vn 0.5509639978408813 0.49698299169540405 -0.6704080104827881
vn 0.037741001695394516 0.9793620109558105 -0.19855999946594238
vn 0.005559979937970638 0.9998459815979004 -0.01665079966187477
vn 0.7839260101318359 0.5007399916648865 -0.3670409917831421
vn 0.8621860146522522 0.506538987159729 0.007337000221014023
vn -0.11687999963760376 0.9809439778327942 -0.15520599484443665
vn -0.16500799357891083 0.9823240041732788 -0.08838610351085663
vn -0.04451939836144447 0.979885995388031 -0.19452700018882751
vn -0.17937299609184265 0.9837539792060852 -0.007300619967281818
vn -0.1571280062198639 0.9849510192871094 0.0719899982213974
vn -0.10267999768257141 0.9856770038604736 0.13378100097179413
vn -0.20375500619411469 0.5260949730873108 0.825655996799469
vn 0.7702410221099854 0.5132330060005188 0.37857601046562195
vn 0.17868900299072266 0.5240859985351562 0.832709014415741
vn 0.5263040065765381 0.5194950103759766 0.673147976398468
vn -0.0055600497871637344 -0.9998459815979004 0.016650699079036713
vn -0.6970059871673584 -0.5519369840621948 0.45776399970054626
vn -0.8228899836540222 -0.5569900274276733 0.11231900006532669
vn -0.433692991733551 -0.5491269826889038 0.7144020199775696
vn -0.0851014032959938 -0.5491170287132263 0.831400990486145
vn 0.27972498536109924 -0.5519090294837952 0.7855889797210693
vn 0.5885279774665833 -0.5569499731063843 0.5860390067100525
vn 0.780144989490509 -0.5632410049438477 0.27227500081062317
vn 0.4274280071258545 -0.5773980021476746 -0.6956409811973572
vn 0.6907410025596619 -0.5745890140533447 -0.43900400400161743
vn 0.8166249990463257 -0.5695359706878662 -0.09355860203504562
vn 0.07883679866790771 -0.5774080157279968 -0.8126410245895386
vn -0.28598999977111816 -0.574616014957428 -0.7668290138244629
vn -0.5947920083999634 -0.5695760250091553 -0.5672789812088013
vn -0.7864099740982056 -0.5632849931716919 -0.25351500511169434
vn 0.6907410025596619 -0.5745890140533447 -0.43900400400161743
vn 0.7839260101318359 0.5007399916648865 -0.3670409917831421
vn 0.8166249990463257 -0.5695359706878662 -0.09355860203504562
vn 0.8621860146522522 0.506538987159729 0.007337000221014023
vn 0.780144989490509 -0.5632410049438477 0.27227500081062317
vn 0.7702410221099854 0.5132330060005188 0.37857601046562195
vn 0.5885279774665833 -0.5569499731063843 0.5860390067100525
vn 0.5263040065765381 0.5194950103759766 0.673147976398468
vn 0.27972498536109924 -0.5519090294837952 0.7855889797210693
vn 0.17868900299072266 0.5240859985351562 0.832709014415741
vn -0.0851014032959938 -0.5491170287132263 0.831400990486145
vn -0.20375500619411469 0.5260949730873108 0.825655996799469
vn -0.28598999977111816 -0.574616014957428 -0.7668290138244629
vn -0.19626900553703308 -0.01523630041629076 -0.9804319739341736
vn 0.07883679866790771 -0.5774080157279968 -0.8126410245895386
vn 0.24860599637031555 -0.01751069910824299 -0.9684460163116455
vn 0.4274280071258545 -0.5773980021476746 -0.6956409811973572
vn 0.5509639978408813 0.49698299169540405 -0.6704080104827881
vn -0.433692991733551 -0.5491269826889038 0.7144020199775696
vn -0.6442409753799438 0.016316600143909454 0.7646480202674866
vn -0.6970059871673584 -0.5519369840621948 0.45776399970054626
vn -0.9122769832611084 0.011891299858689308 0.4094020128250122
vn -0.8228899836540222 -0.5569900274276733 0.11231900006532669
vn -0.9996240139007568 0.005110439844429493 -0.026930799707770348
vn -0.7864099740982056 -0.5632849931716919 -0.25351500511169434
vt 0.5 0.7572460025548935
vt 0.5 0.9927536197938025
vt 0.9879230260848999 0.9927536197938025
vt 0.7771340012550354 0.5472509860992432
vt 0.8210870027542114 0.6412110030651093
vt 0.9957979917526245 0.4951080083847046
vt 0.7771340012550354 0.44296401739120483
vt 0.8210870027542114 0.34900397062301636
vt 0.9957979917526245 0.729438990354538
vt 0.9002879858016968 0.7062329947948456
vt 0.9002879858016968 0.7062329947948456
vt 0.8210870027542114 0.6412110030651093
vt 0.7771340012550354 0.5472509860992432
vt 0.7771340012550354 0.44296401739120483
vt 0.8210870027542114 0.34900397062301636
vt 0.9002879858016968 0.28398197889328003
vt 0.9002879858016968 0.28398197889328003
vt 0.9957979917526245 0.26077598333358765
vt 0.9930480122566223 0.49864500761032104
vt 0.8939269781112671 0.6958799958229065
vt 0.9931049942970276 0.7205229997634888
vt 0.8162230253219604 0.6336010098457336
vt 0.773597002029419 0.544191986322403
vt 0.7745590209960938 0.4453269839286804
vt 0.8186730146408081 0.35697299242019653
vt 0.8974260091781616 0.2961040139198303
vt 0.818651020526886 0.35700100660324097
vt 0.8974170088768005 0.2961120009422302
vt 0.9929909706115723 0.2767680287361145
vt 0.7743930220603943 0.44580698013305664
vt 0.7736309766769409 0.5444160103797913
vt 0.8162729740142822 0.6336829960346222
vt 0.8939380049705505 0.6958920061588287
vt 0.9879230260848999 0.9927536197938025
vt 0.5 0.9927536197938025
vt 0.9879230260848999 0.7572460025548935
vt 0.5 0.7572460025548935
vt 0.9879230260848999 0.9927536197938025
vt 0.5 0.9927536197938025
vt 0.9879230260848999 0.7574879974126816
vt 0.5 0.7574879974126816
vt 0.9879230260848999 0.9927536197938025
vt 0.5 0.9927536197938025
vt 0.9879230260848999 0.7574879974126816
vt 0.5 0.7574879974126816
vt 0.9879230260848999 0.7572460025548935
vt 0.5 0.7572460025548935
vt 0.9879230260848999 0.9927536197938025
vt 0.5 0.9927536197938025
vt 0.9879230260848999 0.7572460025548935
vt 0.5 0.7572460025548935
vt 0.9879230260848999 0.9927536197938025
vt 0.5 0.9927536197938025
vt 0.9879230260848999 0.7574879974126816
vt 0.5 0.7574879974126816
vt 0.9879230260848999 0.9927536197938025
vt 0.5 0.9927536197938025
vt 0.9879230260848999 0.7572460025548935
g Geoset0
s 1
usemtl mat_steamtankwrecked02
f 1/1/1 2/2/2 3/3/3
f 4/4/4 5/5/5 6/6/6
f 7/7/7 4/4/4 6/6/6
f 8/8/8 7/7/7 6/6/6
f 9/9/9 10/10/10 6/6/6
f 11/11/11 9/9/9 6/6/6
f 5/5/5 11/11/11 6/6/6
f 10/10/10 12/12/12 6/6/6
f 12/12/12 13/13/13 6/6/6
f 13/13/13 14/14/14 6/6/6
f 14/14/14 15/15/15 6/6/6
f 16/16/16 8/8/8 6/6/6
f 15/15/15 17/17/17 6/6/6
f 17/17/17 18/18/18 6/6/6
f 18/18/18 16/16/16 6/6/6
f 19/19/19 20/20/20 21/21/21
f 19/19/19 22/22/22 20/20/20
f 19/19/19 23/23/23 22/22/22
f 19/19/19 24/24/24 23/23/23
f 19/19/19 25/25/25 24/24/24
f 19/19/19 26/26/26 25/25/25
f 19/19/19 27/27/27 28/28/28
f 19/19/19 28/28/28 29/29/29
f 19/19/19 29/29/29 26/26/26
f 19/19/19 30/30/30 27/27/27
f 19/19/19 31/31/31 30/30/30
f 19/19/19 32/32/32 31/31/31
f 19/19/19 33/33/33 32/32/32
f 19/19/19 21/21/21 33/33/33
f 34/34/34 35/35/35 36/36/36
f 35/35/35 37/37/37 36/36/36
f 36/36/36 37/37/37 38/38/38
f 37/37/37 39/39/39 38/38/38
f 40/40/40 38/38/38 39/39/39
f 40/40/40 39/39/39 41/41/41
f 40/40/40 41/41/41 42/42/42
f 41/41/41 43/43/43 42/42/42
f 42/42/42 43/43/43 44/44/44
f 43/43/43 45/45/45 44/44/44
f 46/46/46 47/47/47 48/48/48
f 47/47/47 49/49/49 48/48/48
f 48/48/48 49/49/49 50/50/50
f 49/49/49 51/51/51 50/50/50
f 50/50/50 51/51/51 34/34/34
f 51/51/51 35/35/35 34/34/34
f 3/3/3 2/2/2 46/46/46
f 2/2/2 47/47/47 46/46/46
f 44/44/44 45/45/45 52/52/52
f 45/45/45 53/53/53 52/52/52
f 52/52/52 53/53/53 54/54/54
f 53/53/53 55/55/55 54/54/54
f 54/54/54 55/55/55 56/56/56
f 55/55/55 57/57/57 56/56/56
f 56/56/56 57/57/57 58/58/58
f 57/57/57 1/1/1 58/58/58
f 58/58/58 1/1/1 3/3/3
