# Exported using wow.export v0.1.65
o dwarvenbed01
mtllib dwarvenbed01.mtl
v 1.2706868648529053 0.7906827926635742 2.0263290405273438
v 1.5140494108200073 0 1.9615579843521118
v 1.7335412502288818 0 1.8249950408935547
v 1.416973352432251 0.7854936718940735 -2.280592918395996
v 1.2706868648529053 0.7906827926635742 -2.421252965927124
v 1.1642619371414185 0.9339483380317688 -2.1800968647003174
v -1.413972020149231 0.9339451193809509 -2.18009877204895
v -1.5203969478607178 0.7906827926635742 -2.421252965927124
v -1.666683554649353 0.7854779362678528 -2.280592918395996
v 1.416973352432251 0.7855384945869446 1.8856688737869263
v 1.3297001123428345 0.7089987397193909 -0.2071182131767273
v 1.1758041381835938 0.8555925488471985 -0.19551794230937958
v -1.4255142211914062 0.8555925488471985 -0.19746197760105133
v -1.735892653465271 0 1.9615579843521118
v -1.5203969478607178 0.7906827926635742 2.0263285636901855
v -1.666683554649353 0.7855538129806519 1.8856688737869263
v -1.8779184818267822 0 1.8249948024749756
v -1.7931870222091675 0 -0.19746175408363342
v -1.5203969478607178 0.7906827926635742 -2.421252965927124
v -1.735892653465271 0 -2.3564822673797607
v -1.8779184818267822 0 -2.219918966293335
v -1.5794100761413574 0.7089987397193909 -0.21381382644176483
v -1.413972020149231 0.9339451193809509 1.7851749658584595
v 1.1642619371414185 0.9339421391487122 1.7851766347885132
v -1.5203969478607178 0.7906827926635742 2.0263285636901855
v 1.2706868648529053 0.7906827926635742 2.0263290405273438
v 1.7306944131851196 0 -2.3564822673797607
v 1.2706868648529053 0.7906827926635742 -2.421252965927124
v 1.416973352432251 0.7854936718940735 -2.280592918395996
v 1.416973352432251 0.7855384945869446 1.8856688737869263
v 1.3297001123428345 0.7089987397193909 -0.2071182131767273
v 1.6488099098205566 0 -0.19746194779872894
v 1.7335412502288818 0 -2.219918966293335
v 1.3321738243103027 1.0835806131362915 1.957000494003296
v -1.492941975593567 1.083580732345581 1.957000494003296
v -1.492941975593567 1.083580732345581 2.7695512771606445
v 0.8771365284919739 2.2805356979370117 -3.540504217147827
v 0.8771364092826843 2.2805356979370117 -2.7279534339904785
v 1.2835556268692017 1.4148311614990234 -2.626490592956543
v 1.2835557460784912 1.4148311614990234 -3.6419670581817627
v 0.8771364092826843 2.2805356979370117 -2.7279534339904785
v -1.0447108745574951 2.2805356979370117 -2.7279534339904785
v -1.3477493524551392 1.4148311614990234 -2.626490592956543
v 1.2835556268692017 1.4148311614990234 -2.626490592956543
v -1.0447108745574951 2.2805356979370117 -2.7279534339904785
v -1.0447108745574951 2.2805356979370117 -3.540504217147827
v -1.3477493524551392 1.4148311614990234 -3.6419670581817627
v -1.3477493524551392 1.4148311614990234 -2.626490592956543
v -1.0447108745574951 2.2805356979370117 -3.540504217147827
v 0.8771365284919739 2.2805356979370117 -3.540504217147827
v 1.2835557460784912 1.4148311614990234 -3.6419670581817627
v -1.3477493524551392 1.4148311614990234 -3.6419670581817627
v -1.0447108745574951 2.2805356979370117 -2.7279534339904785
v 0.8771364092826843 2.2805356979370117 -2.7279534339904785
v 0.8771365284919739 2.2805356979370117 -3.540504217147827
v -1.0447108745574951 2.2805356979370117 -3.540504217147827
v 1.5314233303070068 1.7102640867233276 -3.7011866569519043
v 1.5314232110977173 1.710263967514038 -2.4114253520965576
v 2.212500810623169 -0.01586427167057991 -2.250373363494873
v 2.212500810623169 -0.015864243730902672 -3.862239122390747
v 1.5314232110977173 1.710263967514038 -2.4114253520965576
v -1.6892088651657104 1.7102643251419067 -2.4114253520965576
v -2.1970407962799072 -0.01586427167057991 -2.250373363494873
v 2.212500810623169 -0.01586427167057991 -2.250373363494873
v -1.6892088651657104 1.7102643251419067 -2.4114253520965576
v -1.6892088651657104 1.7102643251419067 -3.7011866569519043
v -2.1970407962799072 -0.015864243730902672 -3.862239122390747
v -2.1970407962799072 -0.01586427167057991 -2.250373363494873
v -1.6892088651657104 1.7102643251419067 -3.7011866569519043
v 1.5314233303070068 1.7102640867233276 -3.7011866569519043
v 2.212500810623169 -0.015864243730902672 -3.862239122390747
v -2.1970407962799072 -0.015864243730902672 -3.862239122390747
v -1.6892088651657104 1.7102643251419067 -2.4114253520965576
v 1.5314232110977173 1.710263967514038 -2.4114253520965576
v 1.5314233303070068 1.7102640867233276 -3.7011866569519043
v -1.6892088651657104 1.7102643251419067 -3.7011866569519043
v 0.8837676644325256 0.8498403429985046 2.247316598892212
v 0.8837676644325256 0.8498403429985046 3.0598673820495605
v 1.2929705381393433 -0.015864258632063866 3.161330461502075
v 1.2929706573486328 -0.01586424559354782 2.1458537578582764
v 0.8837676644325256 0.8498403429985046 3.0598673820495605
v -1.0512429475784302 0.8498404622077942 3.0598673820495605
v -1.3563570976257324 -0.015864258632063866 3.161330461502075
v 1.2929705381393433 -0.015864258632063866 3.161330461502075
v -1.0512429475784302 0.8498404622077942 3.0598673820495605
v -1.0512429475784302 0.8498404622077942 2.247316598892212
v -1.3563570976257324 -0.01586424559354782 2.1458537578582764
v -1.3563570976257324 -0.015864258632063866 3.161330461502075
v -1.0512429475784302 0.8498404622077942 3.0598673820495605
v 0.8837676644325256 0.8498403429985046 3.0598673820495605
v 0.8837676644325256 0.8498403429985046 2.247316598892212
v -1.0512429475784302 0.8498404622077942 2.247316598892212
v 1.3321738243103027 1.0835806131362915 1.957000494003296
v 1.3321737051010132 1.0835806131362915 2.7695512771606445
v 1.9296098947525024 -0.015864262357354164 2.87101411819458
v 1.9296101331710815 -0.015864243730902672 1.8555376529693604
v 1.3321737051010132 1.0835806131362915 2.7695512771606445
v -1.492941975593567 1.083580732345581 2.7695512771606445
v -1.9384084939956665 -0.015864262357354164 2.87101411819458
v 1.9296098947525024 -0.015864262357354164 2.87101411819458
v -1.492941975593567 1.083580732345581 2.7695512771606445
v -1.492941975593567 1.083580732345581 1.957000494003296
v -1.9384084939956665 -0.015864243730902672 1.8555376529693604
v -1.9384084939956665 -0.015864262357354164 2.87101411819458
v -1.492941975593567 1.083580732345581 1.957000494003296
v 1.3321738243103027 1.0835806131362915 1.957000494003296
v 1.9296101331710815 -0.015864243730902672 1.8555376529693604
v -1.9384084939956665 -0.015864243730902672 1.8555376529693604
v 1.3321737051010132 1.0835806131362915 2.7695512771606445
vn 0.4506513178348541 0.5649930834770203 0.6911556720733643
vn 0.5261731147766113 0.08910780400037766 0.8456959128379822
vn 0.8592331409454346 0.29780223965644836 0.4159713685512543
vn 0.8001626133918762 0.5754692554473877 -0.16904126107692719
vn 0.2819882333278656 0.7752806544303894 -0.5651747584342957
vn 0.35004305839538574 0.921764612197876 -0.16679292917251587
vn -0.16101586818695068 0.9593316912651062 -0.23185470700263977
vn -0.5029965043067932 0.5555051565170288 -0.6621242761611938
vn -0.7441651225090027 0.6324257850646973 -0.21507178246974945
vn 0.7176364660263062 0.6647821068763733 0.2075153887271881
vn 0.8088008165359497 0.5880780220031738 -0.0023405265528708696
vn 0.2951282858848572 0.9554091691970825 -0.00962274894118309
vn -0.4138188362121582 0.9102581143379211 0.013570512644946575
vn -0.6888793110847473 0.12468794733285904 0.7140715718269348
vn -0.2991170585155487 0.7466720938682556 0.5941462516784668
vn -0.8172078132629395 0.4779985845088959 0.32200735807418823
vn -0.9044289588928223 0.20610538125038147 0.3735356032848358
vn -0.9627313017845154 0.26993030309677124 -0.01691409945487976
vn -0.5029965043067932 0.5555051565170288 -0.6621242761611938
vn -0.6877681016921997 0.12389708310365677 -0.7152793407440186
vn -0.9038999676704407 0.21357108652591705 -0.37061068415641785
vn -0.8438981771469116 0.536494255065918 0.003135769162327051
vn -0.29093363881111145 0.9476499557495117 0.13159483671188354
vn 0.19298246502876282 0.9383732676506042 0.28672873973846436
vn -0.2991170585155487 0.7466720938682556 0.5941462516784668
vn 0.4506513178348541 0.5649930834770203 0.6911556720733643
vn 0.8527591824531555 0.3624255657196045 -0.376097708940506
vn 0.2819882333278656 0.7752806544303894 -0.5651747584342957
vn 0.8001626133918762 0.5754692554473877 -0.16904126107692719
vn 0.7176364660263062 0.6647821068763733 0.2075153887271881
vn 0.8088008165359497 0.5880780220031738 -0.0023405265528708696
vn 0.9222723245620728 0.38611486554145813 0.01814023219048977
vn 0.9321465492248535 0.3619491457939148 0.00977920088917017
vn 3.6842535688919043e-9 1 2.5255216411650984e-16
vn 3.6842535688919043e-9 1 0
vn 3.6842535688919043e-9 1 2.5255216411650984e-16
vn 0.13592946529388428 0.9907185435295105 1.6773659794466766e-8
vn 0.13592946529388428 0.9907185435295105 1.8635672560662897e-8
vn 0.13592946529388428 0.9907185435295105 1.6773659794466766e-8
vn 0.13592946529388428 0.9907185435295105 1.4911648804627475e-8
vn 2.373149898815541e-9 0.8763716220855713 0.48163554072380066
vn 4.746299353541872e-9 0.8763716220855713 0.48163557052612305
vn 2.373149898815541e-9 0.8763716220855713 0.48163554072380066
vn 0 0.8763716220855713 0.4816354811191559
vn -0.18097099661827087 0.9834884405136108 0
vn -0.18097099661827087 0.9834884405136108 0
vn -0.18097099661827087 0.9834884405136108 0
vn -0.18097099661827087 0.9834884405136108 0
vn 2.373149898815541e-9 0.8763716220855713 -0.48163554072380066
vn 4.746299797631082e-9 0.8763716220855713 -0.4816354811191559
vn 2.373149898815541e-9 0.8763716220855713 -0.48163554072380066
vn 0 0.8763716220855713 -0.48163557052612305
vn 5.415852655232811e-9 1 3.7125162910580365e-16
vn 5.415853099322021e-9 1 7.425032582116073e-16
vn 5.415852655232811e-9 1 3.7125162910580365e-16
vn 5.415852655232811e-9 1 0
vn 0.16111400723457336 0.9869357943534851 1.8670624157834936e-8
vn 0.16111402213573456 0.9869357943534851 1.3915728125368787e-8
vn 0.16111400723457336 0.9869357943534851 1.8670624157834936e-8
vn 0.16111400723457336 0.9869357943534851 2.3425522854836345e-8
vn 2.6595836644105475e-9 0.8229416608810425 0.5681259036064148
vn 5.319167772910305e-9 0.8229416608810425 0.5681259036064148
vn 2.6595836644105475e-9 0.8229416608810425 0.5681259036064148
vn 0 0.8229417204856873 0.5681257843971252
vn -0.2138720601797104 0.9768616557121277 5.719578144436355e-10
vn -0.2138720601797104 0.9768616557121277 0
vn -0.2138720601797104 0.9768616557121277 5.719578144436355e-10
vn -0.2138720601797104 0.9768616557121277 1.143915628887271e-9
vn 2.6595865509904115e-9 0.8229424953460693 -0.5681247115135193
vn 5.319172657891613e-9 0.8229425549507141 -0.5681246519088745
vn 2.6595865509904115e-9 0.8229424953460693 -0.5681247115135193
vn 0 0.8229424357414246 -0.5681247115135193
vn 6.463601653905471e-9 1 2.791368755012373e-16
vn 6.463601653905471e-9 1 5.582737510024746e-16
vn 6.463601653905471e-9 1 2.791368755012373e-16
vn 6.463601653905471e-9 1 0
vn 0.13502167165279388 0.9908426403999329 7.867872575673118e-9
vn 0.13502170145511627 0.9908426403999329 0
vn 0.13502167165279388 0.9908426403999329 7.867872575673118e-9
vn 0.13502167165279388 0.9908426403999329 1.5735745151346237e-8
vn 1.1785029618849308e-9 0.8763715028762817 0.48163577914237976
vn 2.3570057017252566e-9 0.876371443271637 0.48163580894470215
vn 1.1785029618849308e-9 0.8763715028762817 0.48163577914237976
vn 0 0.8763715028762817 0.48163577914237976
vn -0.17977984249591827 0.9837068915367126 4.5851361596405127e-10
vn -0.17977984249591827 0.9837068915367126 0
vn -0.17977984249591827 0.9837068915367126 4.5851361596405127e-10
vn -0.17977984249591827 0.9837068915367126 9.170272319281025e-10
vn 2.68950528514722e-9 1 0
vn 2.68950528514722e-9 1 0
vn 2.68950528514722e-9 1 0
vn 2.68950528514722e-9 1 0
vn 0.11771178245544434 0.9930477738380432 2.1570023989170295e-8
vn 0.11771178245544434 0.9930477738380432 1.613806865918832e-8
vn 0.11771178245544434 0.9930477738380432 2.1570023989170295e-8
vn 0.11771176010370255 0.993047833442688 2.700197399008175e-8
vn 1.5105712236618274e-9 0.8200148344039917 0.5723422169685364
vn 3.0211424473236548e-9 0.8200147747993469 0.5723423361778259
vn 1.5105712236618274e-9 0.8200148344039917 0.5723422169685364
vn 0 0.8200148344039917 0.5723422169685364
vn -0.15700246393680573 0.9875982403755188 5.846158557254455e-10
vn -0.15700246393680573 0.9875982403755188 0
vn -0.15700246393680573 0.9875982403755188 5.846158557254455e-10
vn -0.15700246393680573 0.9875982403755188 1.169231711450891e-9
vn 1.5105713346841299e-9 0.8200148940086365 -0.5723421573638916
vn 3.0211424473236548e-9 0.8200149536132812 -0.5723420977592468
vn 1.5105713346841299e-9 0.8200148940086365 -0.5723421573638916
vn 0 0.8200148940086365 -0.5723421573638916
vn 3.6842535688919043e-9 1 5.051043282330197e-16
vt 1 0.0004995465278625488
vt 0.620195746421814 0.015048205852508545
vt 0.620195746421814 0.04572248458862305
vt 0 0.9679056406021118
vt 0 0.9995002746582031
vt 0.08236950635910034 0.9453326463699341
vt 0.9176301956176758 0.9453332424163818
vt 0.9521082639694214 0.9995004534721375
vt 1 0.9679058790206909
vt 0 0.03209412097930908
vt 0 0.5021688938140869
vt 0.07863035798072815 0.4995632767677307
vt 0.9213696122169495 0.5000000596046448
vt 0.6201955676078796 0.015048384666442871
vt 1 0.0004997849464416504
vt 1 0.032094359397888184
vt 0.6201955676078796 0.04572272300720215
vt 0.6201955676078796 0.5
vt 1 0.9995004534721375
vt 0.6201955676078796 0.9849518537521362
vt 0.6201955676078796 0.954277515411377
vt 1 0.5036729574203491
vt 0.9176304936408997 0.054666876792907715
vt 0.08236980438232422 0.05466639995574951
vt 0.95210862159729 0.0004997849464416504
vt 0.04789173603057861 0.0004995465278625488
vt 0.620195746421814 0.9849517345428467
vt 1 0.9995002746582031
vt 1 0.9679056406021118
vt 1 0.03209412097930908
vt 1 0.5021688938140869
vt 0.620195746421814 0.4999999403953552
vt 0.620195746421814 0.9542773365974426
vt 0 0.19082129001617432
vt 1 0.19082129001617432
vt 1 0.29429733753204346
vt 0.32997679710388184 0.2941667437553406
vt 0.16036133468151093 0.2941667437553406
vt 0.15794585645198822 0.04106283187866211
vt 0.32756131887435913 0.04106283187866211
vt 1 0.29440128803253174
vt 0 0.29440128803253174
vt 0 0.06280195713043213
vt 1 0.06280195713043213
vt 0.32997679710388184 0.2941667437553406
vt 0.16036133468151093 0.2941667437553406
vt 0.15794585645198822 0.04106283187866211
vt 0.32756131887435913 0.04106283187866211
vt 1 0.29440128803253174
vt 0 0.29440128803253174
vt 0 0.06280195713043213
vt 1 0.06280195713043213
vt 1 0.29429733753204346
vt 0 0.29429733753204346
vt 0 0.19082129001617432
vt 1 0.19082129001617432
vt 0.4629719853401184 0.29711824655532837
vt 0.02282509207725525 0.29711824655532837
vt 0.020409613847732544 0.0038472414016723633
vt 0.4605565071105957 0.0038472414016723633
vt 1.0339854955673218 0.29712343215942383
vt 0.08212560415267944 0.29712343215942383
vt 0.08212560415267944 0.004295408725738525
vt 1.0339854955673218 0.004295408725738525
vt 0.4629719853401184 0.29711824655532837
vt 0.02282509207725525 0.29711824655532837
vt 0.020409613847732544 0.0038472414016723633
vt 0.4605565071105957 0.0038472414016723633
vt 1.1692512035369873 0.2974448800086975
vt 0 0.2974448800086975
vt 0 0.0025028586387634277
vt 1.1692512035369873 0.0025028586387634277
vt 1.1692512035369873 0.29712116718292236
vt 0 0.29712116718292236
vt 0 0.19082129001617432
vt 1.1692512035369873 0.19082129001617432
vt 0.6294937133789062 0.23378026485443115
vt 0.37050625681877136 0.23378026485443115
vt 0.36809077858924866 0.0033453702926635742
vt 0.6270782351493835 0.0033453702926635742
vt 0.9073638916015625 0.23401474952697754
vt 0.23712240159511566 0.23401474952697754
vt 0.23712240159511566 0.002194821834564209
vt 0.9073638916015625 0.002194821834564209
vt 0.4555807411670685 0.23378026485443115
vt 0.1965932697057724 0.23378026485443115
vt 0.1941777914762497 0.0033453702926635742
vt 0.45316532254219055 0.0033453702926635742
vt 1 0.29429733753204346
vt 0 0.29429733753204346
vt 0 0.19082129001617432
vt 1 0.19082129001617432
vt 0.49664345383644104 0.2941667437553406
vt 0.3270280063152313 0.2941667437553406
vt 0.3246125280857086 0.0033453702926635742
vt 0.49422797560691833 0.0033453702926635742
vt 1 0.29440128803253174
vt 0.17149761319160461 0.29440128803253174
vt 0.17149761319160461 0.0039010047912597656
vt 1 0.0039010047912597656
vt 0.49664345383644104 0.2941667437553406
vt 0.3270280063152313 0.2941667437553406
vt 0.3246125280857086 0.0033453702926635742
vt 0.49422797560691833 0.0033453702926635742
vt 1 0.29440128803253174
vt 0 0.29440128803253174
vt 0 0.0039010047912597656
vt 1 0.0039010047912597656
vt 0 0.29429733753204346
g Geoset0
s 1
usemtl mat_dwarvenbedquilt
f 1/1/1 2/2/2 3/3/3
f 4/4/4 5/5/5 6/6/6
f 7/7/7 6/6/6 5/5/5
f 5/5/5 8/8/8 7/7/7
f 8/8/8 9/9/9 7/7/7
f 10/10/10 11/11/11 12/12/12
f 13/13/13 7/7/7 9/9/9
f 7/7/7 13/13/13 12/12/12
f 12/12/12 6/6/6 7/7/7
f 6/6/6 12/12/12 11/11/11
f 11/11/11 4/4/4 6/6/6
f 14/14/14 15/15/15 16/16/16
f 16/16/16 17/17/17 14/14/14
f 18/18/18 17/17/17 16/16/16
f 19/19/19 20/20/20 21/21/21
f 21/21/21 9/9/9 19/19/19
f 22/22/22 9/9/9 21/21/21
f 9/9/9 22/22/22 13/13/13
f 23/23/23 13/13/13 22/22/22
f 12/12/12 13/13/13 23/23/23
f 23/23/23 24/24/24 12/12/12
f 12/12/12 24/24/24 10/10/10
f 21/21/21 18/18/18 22/22/22
f 16/16/16 22/22/22 18/18/18
f 22/22/22 16/16/16 23/23/23
f 16/16/16 25/25/25 23/23/23
f 24/24/24 23/23/23 25/25/25
f 25/25/25 26/26/26 24/24/24
f 26/26/26 10/10/10 24/24/24
f 27/27/27 28/28/28 29/29/29
f 3/3/3 30/30/30 1/1/1
f 31/31/31 30/30/30 3/3/3
f 3/3/3 32/32/32 31/31/31
f 29/29/29 31/31/31 32/32/32
f 32/32/32 33/33/33 29/29/29
f 29/29/29 33/33/33 27/27/27
g Geoset1
s 1
usemtl mat_dwarvenbookshelfbase
f 34/34/34 35/35/35 36/36/36
f 37/37/37 38/38/38 39/39/39
f 39/39/39 40/40/40 37/37/37
f 41/41/41 42/42/42 43/43/43
f 43/43/43 44/44/44 41/41/41
f 45/45/45 46/46/46 47/47/47
f 47/47/47 48/48/48 45/45/45
f 49/49/49 50/50/50 51/51/51
f 51/51/51 52/52/52 49/49/49
f 53/53/53 54/54/54 55/55/55
f 55/55/55 56/56/56 53/53/53
f 57/57/57 58/58/58 59/59/59
f 59/59/59 60/60/60 57/57/57
f 61/61/61 62/62/62 63/63/63
f 63/63/63 64/64/64 61/61/61
f 65/65/65 66/66/66 67/67/67
f 67/67/67 68/68/68 65/65/65
f 69/69/69 70/70/70 71/71/71
f 71/71/71 72/72/72 69/69/69
f 73/73/73 74/74/74 75/75/75
f 75/75/75 76/76/76 73/73/73
f 77/77/77 78/78/78 79/79/79
f 79/79/79 80/80/80 77/77/77
f 81/81/81 82/82/82 83/83/83
f 83/83/83 84/84/84 81/81/81
f 85/85/85 86/86/86 87/87/87
f 87/87/87 88/88/88 85/85/85
f 89/89/89 90/90/90 91/91/91
f 91/91/91 92/92/92 89/89/89
f 93/93/93 94/94/94 95/95/95
f 95/95/95 96/96/96 93/93/93
f 97/97/97 98/98/98 99/99/99
f 99/99/99 100/100/100 97/97/97
f 101/101/101 102/102/102 103/103/103
f 103/103/103 104/104/104 101/101/101
f 105/105/105 106/106/106 107/107/107
f 107/107/107 108/108/108 105/105/105
f 36/36/36 109/109/109 34/34/34
