# Exported using wow.export v0.1.65
o dwarventiling02
mtllib dwarventiling02.mtl
v -2.7124767303466797 -0.0038897660560905933 -3.1235105991363525
v -2.7124767303466797 -0.0038897660560905933 2.86537766456604
v -2.3652546405792236 0.09518767893314362 2.491072177886963
v 2.843079090118408 -0.0038897660560905933 2.86537766456604
v 2.495856761932373 0.09518767148256302 2.491072177886963
v 2.495856761932373 0.09518767893314362 -2.7492051124572754
v -2.3652546405792236 0.09518767148256302 -2.7492051124572754
v 2.843079090118408 -0.0038897660560905933 -3.1235105991363525
vn -0.38001418113708496 0.9080319404602051 -0.1762589067220688
vn -0.19145871698856354 0.9149692058563232 0.3552110195159912
vn -0.23501864075660706 0.965859055519104 0.10900680720806122
vn 0.38001418113708496 0.9080319404602051 0.1762589067220688
vn 0.1463618129491806 0.9512320756912231 0.2715432941913605
vn 0.23501864075660706 0.965859055519104 -0.10900680720806122
vn -0.1463618129491806 0.9512320756912231 -0.2715432941913605
vn 0.19145871698856354 0.9149692058563232 -0.3552110195159912
vt 0.9995002746582031 0.0004994869232177734
vt 0.9995005130767822 0.9995002746582031
vt 0.9660484790802002 0.9588018655776978
vt 0.000499725341796875 0.9995005130767822
vt 0.04844450578093529 0.9588021039962769
vt 0.048444297164678574 0.07743000984191895
vt 0.9660482406616211 0.07742977142333984
vt 0.0004994869232177734 0.000499725341796875
g Geoset0
s 1
usemtl mat_dwarvenstonemosaic02
f 1/1/1 2/2/2 3/3/3
f 2/2/2 4/4/4 5/5/5
f 5/5/5 3/3/3 2/2/2
f 3/3/3 5/5/5 6/6/6
f 6/6/6 7/7/7 3/3/3
f 6/6/6 5/5/5 4/4/4
f 4/4/4 8/8/8 6/6/6
f 7/7/7 6/6/6 8/8/8
f 8/8/8 1/1/1 7/7/7
f 3/3/3 7/7/7 1/1/1
