# Exported using wow.export v0.1.65
o dwarventiling03
mtllib dwarventiling03.mtl
v -2.7290778160095215 -0.005622451659291983 -3.0245256423950195
v -2.7290778160095215 -0.005622451659291983 2.964362621307373
v -2.3818557262420654 0.0934549942612648 2.590057134628296
v 2.8264780044555664 -0.005622451659291983 2.964362621307373
v 2.4792556762695312 0.0934549868106842 2.590057134628296
v 2.4792556762695312 0.0934549942612648 -2.6502201557159424
v -2.3818557262420654 0.0934549868106842 -2.6502201557159424
v 2.8264780044555664 -0.005622451659291983 -3.0245256423950195
vn -0.38001418113708496 0.9080319404602051 -0.1762589067220688
vn -0.19145871698856354 0.9149692058563232 0.3552110195159912
vn -0.23501864075660706 0.965859055519104 0.10900680720806122
vn 0.38001418113708496 0.9080319404602051 0.1762589067220688
vn 0.1463618129491806 0.9512320756912231 0.2715432941913605
vn 0.23501864075660706 0.965859055519104 -0.10900680720806122
vn -0.1463618129491806 0.9512320756912231 -0.2715432941913605
vn 0.19145871698856354 0.9149692058563232 -0.3552110195159912
vt 0.9995002746582031 0.0004994869232177734
vt 0.9995005130767822 0.9995002746582031
vt 0.9177392721176147 0.9588018655776978
vt 0.000499725341796875 0.9995005130767822
vt 0.04844450578093529 0.9588021039962769
vt 0.048444297164678574 0.09192276000976562
vt 0.9177390336990356 0.09192252159118652
vt 0.0004994869232177734 0.000499725341796875
g Geoset0
s 1
usemtl mat_dwarvenstonemosaic03
f 1/1/1 2/2/2 3/3/3
f 2/2/2 4/4/4 5/5/5
f 5/5/5 3/3/3 2/2/2
f 3/3/3 5/5/5 6/6/6
f 6/6/6 7/7/7 3/3/3
f 6/6/6 5/5/5 4/4/4
f 4/4/4 8/8/8 6/6/6
f 7/7/7 6/6/6 8/8/8
f 8/8/8 1/1/1 7/7/7
f 3/3/3 7/7/7 1/1/1
