# Exported using wow.export v0.1.65
o humanstaff02
mtllib humanstaff02.mtl
v -0.2186480015516281 -0.02691500075161457 -0.00027777798823080957
v -1.0279699563980103 0.0010055600432679057 -0.02499469928443432
v -0.2185869961977005 0.0010055600432679057 -0.02499469928443432
v 0.2264699935913086 0.02851109951734543 -0.00016666699957568198
v 0.2265229970216751 0.0005277780001051724 0.024570800364017487
v 0.5900220274925232 0.0005277780001051724 0.024570800364017487
v 0.5900750160217285 0.02851109951734543 -0.00016666699957568198
v 0.2263759970664978 0.0005277780001051724 -0.024947499856352806
v 0.5901669859886169 0.0005277780001051724 -0.024947499856352806
v 0.22649699449539185 -0.027446700260043144 -0.00016666699957568198
v 0.5900440216064453 -0.027446700260043144 -0.00016666699957568198
v -0.2186480015516281 -0.02691500075161457 -0.00027777798823080957
v -0.2185869961977005 0.0010055600432679057 -0.02499469928443432
v 0.2263759970664978 0.0005277780001051724 -0.024947499856352806
v 0.22649699449539185 -0.027446700260043144 -0.00016666699957568198
v 0.2264699935913086 0.02851109951734543 -0.00016666699957568198
v -0.2186339944601059 0.028936900198459625 -0.00027777798823080957
v 0.2265229970216751 0.0005277780001051724 0.024570800364017487
v -0.21865999698638916 0.0010055600432679057 0.024429399520158768
v 0.6794970035552979 0.062456101179122925 0
v 0.6794970035552979 0 0.0552682988345623
v 0.7259389758110046 0 0
v 0.5900220274925232 0.0005277780001051724 0.024570800364017487
v 0.5900750160217285 0.02851109951734543 -0.00016666699957568198
v 0.5901669859886169 0.0005277780001051724 -0.024947499856352806
v 0.6794970035552979 0 -0.05526860058307648
v 0.7259389758110046 0 0
v 0.5900440216064453 -0.027446700260043144 -0.00016666699957568198
v 0.6794970035552979 -0.062455300241708755 0
v -0.21865999698638916 0.0010055600432679057 0.024429399520158768
v -1.0279099941253662 -0.02691500075161457 -0.00027777798823080957
v -1.0278899669647217 0.0010055600432679057 0.024429399520158768
v -0.2186339944601059 0.028936900198459625 -0.00027777798823080957
v -1.0279200077056885 0.028936900198459625 -0.00027777798823080957
v -1.1705299615859985 0.0006388889742083848 -0.00016666699957568198
v -1.1055099964141846 0.0006361110135912895 0.04829249903559685
v -1.1055099964141846 0.055424198508262634 -0.00016666699957568198
v -1.0279200077056885 0.028936900198459625 -0.00027777798823080957
v -1.1055099964141846 0.0006361110135912895 -0.048669200390577316
v -1.1055099964141846 -0.05414719879627228 -0.00016666699957568198
v -1.0279099941253662 -0.02691500075161457 -0.00027777798823080957
vn -0.0005219249869696796 -0.9358100295066833 -0.3525030016899109
vn 0.16861100494861603 -0.12504200637340546 -0.9777190089225769
vn 0.0002029430033871904 0.2829209864139557 -0.9591429829597473
vn 0.0005179509753361344 1 -7.502740118070506e-7
vn -6.228349747061657e-8 5.181009896659816e-7 1
vn -0.18840700387954712 0.12587599456310272 0.9739909768104553
vn -0.14376600086688995 0.9646070003509521 -0.22105200588703156
vn -0.00010565700358711183 -8.099539741124318e-7 -1
vn -0.18625900149345398 -0.12489800155162811 -0.9745299816131592
vn -0.0006373199867084622 -1 1.8064200446588075e-7
vn -0.14796799421310425 -0.9641240239143372 0.2203879952430725
vn -0.0005219249869696796 -0.9358100295066833 -0.3525030016899109
vn 0.0002029430033871904 0.2829209864139557 -0.9591429829597473
vn -0.00010565700358711183 -8.099539741124318e-7 -1
vn -0.0006373199867084622 -1 1.8064200446588075e-7
vn 0.0005179509753361344 1 -7.502740118070506e-7
vn 0.00041002299985848367 0.9358109831809998 0.3525030016899109
vn -6.228349747061657e-8 5.181009896659816e-7 1
vn -0.00030433700885623693 -0.28292199969291687 0.9591429829597473
vn 0.09915389865636826 0.9950720071792603 -0.0004742880119010806
vn 0.30843600630760193 0.0004515009932219982 0.9512450098991394
vn 1 2.572039932147163e-7 -2.6968800170834584e-7
vn -0.18840700387954712 0.12587599456310272 0.9739909768104553
vn -0.14376600086688995 0.9646070003509521 -0.22105200588703156
vn -0.18625900149345398 -0.12489800155162811 -0.9745299816131592
vn 0.30999699234962463 0.00044801601325161755 -0.9507369995117188
vn 1 2.572039932147163e-7 -2.6968800170834584e-7
vn -0.14796799421310425 -0.9641240239143372 0.2203879952430725
vn 0.09140119701623917 -0.9958140254020691 -0.00048760900972411036
vn -0.00030433700885623693 -0.28292199969291687 0.9591429829597473
vn 0.13347700238227844 -0.9662110209465027 0.22050200402736664
vn 0.16985200345516205 0.12574300169944763 0.9774140119552612
vn 0.00041002299985848367 0.9358109831809998 0.3525030016899109
vn 0.1300169974565506 0.9666100144386292 -0.22081799805164337
vn -1 0.000012077300198143348 6.204849967161863e-8
vn -0.1868479996919632 0.0003229709982406348 0.982388973236084
vn -0.024676399305462837 0.9996950030326843 -0.00022527000692207366
vn 0.1300169974565506 0.9666100144386292 -0.22081799805164337
vn -0.18782900273799896 0.0003214530006516725 -0.9822019934654236
vn -0.018449600785970688 -0.9998300075531006 -0.00023113300267141312
vn 0.13347700238227844 -0.9662110209465027 0.22050200402736664
vt 0.3957589864730835 0.3364819884300232
vt 0.09888450056314468 0.37090998888015747
vt 0.3957589864730835 0.37090998888015747
vt 0.3957589864730835 0.3364819884300232
vt 0.3957589864730835 0.37090998888015747
vt 0.09888450056314468 0.37090998888015747
vt 0.09888450056314468 0.3364819884300232
vt 0.3957589864730835 0.37090998888015747
vt 0.09888450056314468 0.37090998888015747
vt 0.3957589864730835 0.3364819884300232
vt 0.09888450056314468 0.3364819884300232
vt 0.002009520074352622 0.37885499000549316
vt 0.002009520074352622 0.41328299045562744
vt 0.3957589864730835 0.41328299045562744
vt 0.3957589864730835 0.37885499000549316
vt 0.3957589864730835 0.37885499000549316
vt 0.002009520074352622 0.37885499000549316
vt 0.3957589864730835 0.41328299045562744
vt 0.002009520074352622 0.41328299045562744
vt 0.10200999677181244 0.41857999563217163
vt 0.10200999677181244 0.4980289936065674
vt 0.1207600012421608 0.4980289936065674
vt 0.002009520074352622 0.4980289936065674
vt 0.002009520074352622 0.4609529972076416
vt 0.002009520074352622 0.4980289936065674
vt 0.10200999677181244 0.4980289936065674
vt 0.1207600012421608 0.434469997882843
vt 0.002009520074352622 0.4609529972076416
vt 0.10200999677181244 0.41857999563217163
vt 0.3957589864730835 0.37090998888015747
vt 0.09888450056314468 0.3364819884300232
vt 0.09888450056314468 0.37090998888015747
vt 0.3957589864730835 0.3364819884300232
vt 0.09888450056314468 0.3364819884300232
vt 0.002009520074352622 0.37090998888015747
vt 0.07700960338115692 0.37090998888015747
vt 0.07700960338115692 0.3364819884300232
vt 0.09888450056314468 0.35502099990844727
vt 0.07700960338115692 0.37090998888015747
vt 0.07700960338115692 0.3364819884300232
vt 0.09888450056314468 0.35502099990844727
g Geoset0
s 1
usemtl mat_waeponpage01
f 1/1/1 2/2/2 3/3/3
f 4/4/4 5/5/5 6/6/6
f 6/6/6 7/7/7 4/4/4
f 8/8/8 4/4/4 7/7/7
f 7/7/7 9/9/9 8/8/8
f 10/10/10 8/8/8 9/9/9
f 9/9/9 11/11/11 10/10/10
f 5/5/5 10/10/10 11/11/11
f 11/11/11 6/6/6 5/5/5
f 12/12/12 13/13/13 14/14/14
f 14/14/14 15/15/15 12/12/12
f 16/16/16 14/14/14 13/13/13
f 13/13/13 17/17/17 16/16/16
f 18/18/18 16/16/16 17/17/17
f 17/17/17 19/19/19 18/18/18
f 15/15/15 18/18/18 19/19/19
f 19/19/19 12/12/12 15/15/15
f 20/20/20 21/21/21 22/22/22
f 20/20/20 23/23/23 21/21/21
f 23/23/23 20/20/20 24/24/24
f 25/25/25 24/24/24 20/20/20
f 20/20/20 26/26/26 25/25/25
f 26/26/26 20/20/20 27/27/27
f 23/23/23 28/28/28 29/29/29
f 29/29/29 21/21/21 23/23/23
f 21/21/21 29/29/29 27/27/27
f 29/29/29 26/26/26 22/22/22
f 29/29/29 25/25/25 26/26/26
f 25/25/25 29/29/29 28/28/28
f 30/30/30 31/31/31 1/1/1
f 31/31/31 30/30/30 32/32/32
f 33/33/33 32/32/32 30/30/30
f 32/32/32 33/33/33 34/34/34
f 3/3/3 34/34/34 33/33/33
f 34/34/34 3/3/3 2/2/2
f 35/35/35 36/36/36 37/37/37
f 37/37/37 36/36/36 32/32/32
f 32/32/32 38/38/38 37/37/37
f 2/2/2 37/37/37 38/38/38
f 37/37/37 2/2/2 39/39/39
f 35/35/35 37/37/37 39/39/39
f 40/40/40 35/35/35 39/39/39
f 40/40/40 36/36/36 35/35/35
f 40/40/40 32/32/32 36/36/36
f 32/32/32 40/40/40 41/41/41
f 40/40/40 39/39/39 2/2/2
f 2/2/2 41/41/41 40/40/40
f 2/2/2 1/1/1 31/31/31
