# Exported using wow.export v0.1.65
o humansword02
mtllib humansword02.mtl
v -0.3695422410964966 0.000332235504174605 -0.06357559561729431
v -0.35033270716667175 -0.07490725070238113 -2.218156325284326e-8
v -0.3695422112941742 -0.24141965806484222 -5.2851461873615335e-8
v -0.3695422410964966 0.0003322213888168335 0.06357558071613312
v -0.3695422112941742 -0.24141965806484222 -5.2851461873615335e-8
v -0.35033270716667175 -0.07490725070238113 -2.218156325284326e-8
v -0.4262535870075226 -0.03617763891816139 -1.9623636049459492e-8
v -0.4262535870075226 0.0003337485541123897 0.03230970352888107
v -0.4262535870075226 0.03684515133500099 -1.118843773184608e-8
v -0.36954227089881897 0.24208416044712067 2.5626187283300794e-10
v -0.35033270716667175 0.07557172328233719 -1.215970790724441e-8
v 1.0872776508331299 0.00033201128826476634 1.4814779625282881e-8
v 0.977141261100769 -0.03931153565645218 1.1988466219747806e-8
v 0.9200292229652405 0.00033200596226379275 -0.020614370703697205
v -0.15695986151695251 -0.05214155837893486 -3.096993772544465e-9
v -0.15701325237751007 0.0003358103276696056 -0.032164715230464935
v -0.35033270716667175 -0.07490725070238113 -2.218156325284326e-8
v -0.3695422410964966 0.000332235504174605 -0.06357559561729431
v 1.0872776508331299 0.00033201128826476634 1.4814779625282881e-8
v 0.9200289845466614 0.00033200200414285064 0.02061438374221325
v 0.977141261100769 -0.03931153565645218 1.1988466219747806e-8
v -0.15695986151695251 -0.05214155837893486 -3.096993772544465e-9
v -0.15701325237751007 0.00033580471063032746 0.032164715230464935
v -0.35033270716667175 -0.07490725070238113 -2.218156325284326e-8
v -0.3695422410964966 0.0003322213888168335 0.06357558071613312
v 1.0872776508331299 0.00033201128826476634 1.4814779625282881e-8
v 0.9771416187286377 0.039975546300411224 1.4878397180950742e-8
v 0.9200289845466614 0.00033200200414285064 0.02061438374221325
v -0.1569599211215973 0.05285115912556648 -1.7120063700026833e-10
v -0.15701325237751007 0.00033580471063032746 0.032164715230464935
v -0.35033270716667175 0.07557172328233719 -1.215970790724441e-8
v -0.3695422410964966 0.0003322213888168335 0.06357558071613312
v 1.0872776508331299 0.00033201128826476634 1.4814779625282881e-8
v 0.9200292229652405 0.00033200596226379275 -0.020614370703697205
v 0.9771416187286377 0.039975546300411224 1.4878397180950742e-8
v -0.1569599211215973 0.05285115912556648 -1.7120063700026833e-10
v -0.15701325237751007 0.0003358103276696056 -0.032164715230464935
v -0.35033270716667175 0.07557172328233719 -1.215970790724441e-8
v -0.3695422410964966 0.000332235504174605 -0.06357559561729431
v -0.9340723156929016 0.0003337603702675551 0.03230966255068779
v -0.9340723156929016 -0.0361776240170002 -6.609366209886502e-8
v -0.4262535870075226 -0.03617763891816139 -1.9623636049459492e-8
v -0.4262535870075226 0.00033374832128174603 -0.03230969235301018
v -0.9340723156929016 0.00033376013743691146 -0.032309725880622864
v -0.4262535870075226 0.03684515133500099 -1.118843773184608e-8
v -1.0090432167053223 -0.06558772921562195 -7.641173027650439e-8
v -1.0090432167053223 0.00033354051993228495 0.05833512544631958
v -1.0872776508331299 0.0003364993608556688 -4.409979581510015e-8
v -1.0090430974960327 0.00033354011247865856 -0.05833517387509346
v -1.0090432167053223 0.06625485420227051 -6.118197859450447e-8
v -0.9340723156929016 0.03684515133500099 -5.765847177485739e-8
v -0.4262535870075226 0.0003337485541123897 0.03230970352888107
v -0.36954227089881897 0.24208416044712067 2.5626187283300794e-10
v -0.35033270716667175 0.07557172328233719 -1.215970790724441e-8
v -0.4262535870075226 0.03684515133500099 -1.118843773184608e-8
v -0.4262535870075226 0.00033374832128174603 -0.03230969235301018
v -0.4262535870075226 -0.03617763891816139 -1.9623636049459492e-8
vn -0.32159337401390076 -0.0000034428442177159013 -0.9468778967857361
vn 0.910691499710083 -0.10506079345941544 -0.3995037078857422
vn 0.013309047557413578 -0.25430843234062195 -0.9670315980911255
vn -0.32159319519996643 -0.00000360162425749877 0.9468779563903809
vn 0.013308939523994923 -0.2543085813522339 0.9670315384864807
vn 0.910691499710083 -0.10506089776754379 0.3995036482810974
vn -0.6091452240943909 -0.3185091018676758 0.726287841796875
vn -0.4828029274940491 0.00001231326677952893 0.8757290244102478
vn -0.609136700630188 0.31850847601890564 0.7262952923774719
vn 0.013309464789927006 0.25430846214294434 0.9670315980911255
vn 0.910691499710083 0.10506097227334976 0.3995037376880646
vn 0.11582420766353607 -0.3217787444591522 -0.9397037625312805
vn 0.08977263420820236 -0.3546225130558014 -0.9306899309158325
vn 0.027287153527140617 -0.4313194155693054 -0.9017865657806396
vn 0.03610343486070633 -0.5213565826416016 -0.8525748252868652
vn 0.04389326646924019 -0.5381615161895752 -0.8416980504989624
vn 0.10507092624902725 -0.6067664623260498 -0.7879051566123962
vn 0.1142592579126358 -0.6240097880363464 -0.7730178833007812
vn 0.11582402884960175 -0.32177814841270447 0.9397040009498596
vn 0.02728704921901226 -0.4313191771507263 0.9017866849899292
vn 0.08977256715297699 -0.35462191700935364 0.9306901693344116
vn 0.03610338643193245 -0.5213566422462463 0.8525747656822205
vn 0.04389322176575661 -0.5381616353988647 0.8416979312896729
vn 0.10507085174322128 -0.6067666411399841 0.7879050374031067
vn 0.11425917595624924 -0.624009907245636 0.7730177640914917
vn 0.11582396179437637 0.32177746295928955 0.9397042393684387
vn 0.08977576345205307 0.35461732745170593 0.9306915998458862
vn 0.02730122022330761 0.43129783868789673 0.9017964601516724
vn 0.03602573275566101 0.521086573600769 0.8527431488037109
vn 0.043836671859025955 0.5379319787025452 0.8418476581573486
vn 0.10502272099256516 0.6067190766334534 0.7879480719566345
vn 0.11423792690038681 0.6240144968032837 0.7730172276496887
vn 0.11582416296005249 0.32177790999412537 -0.9397040605545044
vn 0.027301326394081116 0.43129801750183105 -0.9017963409423828
vn 0.08977584540843964 0.35461780428886414 -0.9306914210319519
vn 0.03602577745914459 0.5210864543914795 -0.8527432084083557
vn 0.043836720287799835 0.5379319190979004 -0.8418477177619934
vn 0.1050228476524353 0.6067191362380981 -0.7879480123519897
vn 0.11423806101083755 0.6240145564079285 -0.773017168045044
vn 0.1791127324104309 6.165769264043774e-7 0.9838285446166992
vn 0.20443683862686157 -0.9788797497749329 -4.4482737848738907e-7
vn 6.371381289227429e-8 -1 -3.082327282299957e-7
vn 5.987840268062428e-8 7.839092930339575e-9 -1
vn 0.17911282181739807 8.993433198156708e-7 -0.9838285446166992
vn -9.13878253072653e-8 1 -3.623057409640751e-7
vn -0.13339592516422272 -0.9910628199577332 -4.139538987146807e-7
vn -0.1294127255678177 -0.00000486167937197024 0.9915907979011536
vn -1 0.000025768276827875525 -1.702023695315802e-7
vn -0.1294124275445938 -0.000004651439667213708 -0.9915908575057983
vn -0.13338105380535126 0.9910648465156555 -3.742467242773273e-7
vn 0.20443414151668549 0.9788803458213806 -4.799454131898528e-7
vn -8.30527611128673e-8 -1.5943929554396163e-7 1
vn 0.013309706933796406 0.2543084919452667 -0.9670315384864807
vn 0.9106914401054382 0.10506095737218857 -0.39950382709503174
vn -0.6091369390487671 0.31850817799568176 -0.7262952327728271
vn -0.4828035831451416 0.000012274090295250062 -0.8757286667823792
vn -0.6091452836990356 -0.31850871443748474 -0.7262879610061646
vt 0.40222305059432983 0.20575207471847534
vt 0.45881393551826477 0.1695256233215332
vt 0.6883217692375183 0.20575207471847534
vt 0.40222305059432983 0.20575207471847534
vt 0.6883217692375183 0.20575207471847534
vt 0.45881393551826477 0.1695256233215332
vt 0.45881393551826477 0.1695256233215332
vt 0.40222305059432983 0.1695256233215332
vt 0.45881393551826477 0.1695256233215332
vt 0.6883217692375183 0.20575207471847534
vt 0.45881393551826477 0.1695256233215332
vt 0.7952156662940979 0.32995712757110596
vt 0.7952156662940979 0.25491654872894287
vt 0.7354807257652283 0.32995712757110596
vt 0.5017357468605042 0.25491654872894287
vt 0.5017357468605042 0.32995712757110596
vt 0.40222305059432983 0.25491654872894287
vt 0.40222305059432983 0.32995712757110596
vt 0.7952156662940979 0.32995712757110596
vt 0.7354807257652283 0.32995712757110596
vt 0.7952156662940979 0.25491654872894287
vt 0.5017357468605042 0.25491654872894287
vt 0.5017357468605042 0.32995712757110596
vt 0.40222305059432983 0.25491654872894287
vt 0.40222305059432983 0.32995712757110596
vt 0.7952156662940979 0.32995712757110596
vt 0.7952156662940979 0.25491654872894287
vt 0.7354807257652283 0.32995712757110596
vt 0.5017357468605042 0.25491654872894287
vt 0.5017357468605042 0.32995712757110596
vt 0.40222305059432983 0.25491654872894287
vt 0.40222305059432983 0.32995712757110596
vt 0.7952156662940979 0.32995712757110596
vt 0.7354807257652283 0.32995712757110596
vt 0.7952156662940979 0.25491654872894287
vt 0.5017357468605042 0.25491654872894287
vt 0.5017357468605042 0.32995712757110596
vt 0.40222305059432983 0.25491654872894287
vt 0.40222305059432983 0.32995712757110596
vt 0.4996851086616516 0.24715375900268555
vt 0.4996851086616516 0.2109273076057434
vt 0.7983598113059998 0.2109273076057434
vt 0.7983598113059998 0.24715375900268555
vt 0.4996851086616516 0.24715375900268555
vt 0.7983598113059998 0.2109273076057434
vt 0.45252615213394165 0.2109273076057434
vt 0.45252615213394165 0.24715375900268555
vt 0.40222305059432983 0.24715375900268555
vt 0.45252615213394165 0.24715375900268555
vt 0.45252615213394165 0.2109273076057434
vt 0.4996851086616516 0.2109273076057434
vt 0.7983598113059998 0.24715375900268555
vt 0.6883217692375183 0.20575207471847534
vt 0.45881393551826477 0.1695256233215332
vt 0.45881393551826477 0.1695256233215332
vt 0.40222305059432983 0.1695256233215332
vt 0.45881393551826477 0.1695256233215332
g Geoset0
s 1
usemtl mat_waeponpage01
f 1/1/1 2/2/2 3/3/3
f 4/4/4 5/5/5 6/6/6
f 4/4/4 7/7/7 5/5/5
f 7/7/7 4/4/4 8/8/8
f 9/9/9 8/8/8 4/4/4
f 4/4/4 10/10/10 9/9/9
f 4/4/4 11/11/11 10/10/10
f 12/12/12 13/13/13 14/14/14
f 15/15/15 14/14/14 13/13/13
f 15/15/15 16/16/16 14/14/14
f 17/17/17 16/16/16 15/15/15
f 17/17/17 18/18/18 16/16/16
f 19/19/19 20/20/20 21/21/21
f 20/20/20 22/22/22 21/21/21
f 20/20/20 23/23/23 22/22/22
f 23/23/23 24/24/24 22/22/22
f 24/24/24 23/23/23 25/25/25
f 26/26/26 27/27/27 28/28/28
f 29/29/29 28/28/28 27/27/27
f 29/29/29 30/30/30 28/28/28
f 31/31/31 30/30/30 29/29/29
f 31/31/31 32/32/32 30/30/30
f 33/33/33 34/34/34 35/35/35
f 34/34/34 36/36/36 35/35/35
f 34/34/34 37/37/37 36/36/36
f 37/37/37 38/38/38 36/36/36
f 38/38/38 37/37/37 39/39/39
f 40/40/40 41/41/41 42/42/42
f 43/43/43 42/42/42 41/41/41
f 41/41/41 44/44/44 43/43/43
f 45/45/45 43/43/43 44/44/44
f 46/46/46 47/47/47 48/48/48
f 46/46/46 48/48/48 49/49/49
f 48/48/48 50/50/50 49/49/49
f 49/49/49 50/50/50 51/51/51
f 40/40/40 51/51/51 50/50/50
f 51/51/51 40/40/40 52/52/52
f 42/42/42 52/52/52 40/40/40
f 52/52/52 45/45/45 51/51/51
f 44/44/44 51/51/51 45/45/45
f 51/51/51 44/44/44 49/49/49
f 41/41/41 49/49/49 44/44/44
f 49/49/49 41/41/41 46/46/46
f 46/46/46 41/41/41 40/40/40
f 40/40/40 47/47/47 46/46/46
f 50/50/50 47/47/47 40/40/40
f 48/48/48 47/47/47 50/50/50
f 1/1/1 53/53/53 54/54/54
f 1/1/1 55/55/55 53/53/53
f 55/55/55 1/1/1 56/56/56
f 57/57/57 56/56/56 1/1/1
f 1/1/1 3/3/3 57/57/57
