# Exported using wow.export v0.1.65
o humanstaff01
mtllib humanstaff01.mtl
v -0.27423998713493347 -0.026801899075508118 0.024444999173283577
v -0.2773889899253845 -0.05454999953508377 -0.00022222200641408563
v 0.31736698746681213 -0.021511400118470192 -0.00016666699957568198
v -0.8655139803886414 0.08013609796762466 -0.02497890032827854
v -0.9149280190467834 0.1609559953212738 -0.00016666699957568198
v -0.8543329834938049 0.10572700202465057 -0.00022222200641408563
v -0.9367719888687134 0.11071400344371796 -0.04865359887480736
v -0.9963970184326172 0.1366419941186905 -0.00016666699957568198
v -0.865444004535675 0.08010700345039368 0.024444999173283577
v -0.9367719888687134 0.11071400344371796 0.048308100551366806
v -0.9586169719696045 0.06047169864177704 -0.00016666699957568198
v -0.8765919804573059 0.05450170114636421 -0.00022222200641408563
v -0.274167001247406 -0.02681029960513115 -0.02497890032827854
v -0.5914689898490906 0.032402198761701584 -0.00022222200641408563
v -0.2710529863834381 0.0009361110278405249 -0.00022222200641408563
v -0.6012060046195984 0.006275000050663948 0.024444999173283577
v -0.8765919804573059 0.05450170114636421 -0.00022222200641408563
v -0.27423998713493347 -0.026801899075508118 0.024444999173283577
v -0.6057779788970947 -0.021251900121569633 -0.00022222200641408563
v -0.2773889899253845 -0.05454999953508377 -0.00022222200641408563
v -0.5983330011367798 0.0058288900181651115 -0.02497890032827854
v -0.8543329834938049 0.10572700202465057 -0.00022222200641408563
v 1.5440200567245483 -0.13471999764442444 0
v 1.514389991760254 -0.052816398441791534 0
v 1.4863300323486328 -0.10141900181770325 0.049663301557302475
v 1.4863300323486328 -0.10141900181770325 -0.049663301557302475
v 1.4343899488449097 -0.0709289014339447 -0.020282799378037453
v 1.4582699537277222 -0.15002299845218658 0
v 1.4229300022125244 -0.09057919681072235 -0.00011111100320704281
v 1.4342900514602661 -0.07086919993162155 0.019976399838924408
v 1.4457000494003296 -0.05119030177593231 -0.00011111100320704281
v 1.4457000494003296 -0.05119030177593231 -0.00011111100320704281
v 1.241979956626892 0.025567499920725822 -0.00016666699957568198
v 1.231909990310669 0.004073610063642263 -0.022083299234509468
v 0.926006019115448 0.059463899582624435 -0.02730030007660389
v 0.924157977104187 0.027566099539399147 -0.00016666699957568198
v 0.6232439875602722 0.021846700459718704 -0.00016666699957568198
v 0.6226720213890076 0.051069699227809906 0.025996899232268333
v 0.31617501378059387 0.006442219950258732 0.024586400017142296
v 0.3149000108242035 0.03439220041036606 -0.00016666699957568198
v 1.222190022468567 -0.02029000036418438 -0.00016666699957568198
v 0.9284440279006958 0.0579380989074707 0.026954999193549156
v 0.6213139891624451 0.07965359836816788 -0.00016666699957568198
v 0.3160249888896942 0.006435830146074295 -0.02493170090019703
v 1.4229300022125244 -0.09057919681072235 -0.00011111100320704281
v 1.232300043106079 0.0025361101143062115 0.02173830009996891
v 0.9308609962463379 0.08906889706850052 -0.00016666699957568198
v 0.6161500215530396 0.05146719887852669 -0.026342500001192093
v 0.31736698746681213 -0.021511400118470192 -0.00016666699957568198
v -0.274167001247406 -0.02681029960513115 -0.02497890032827854
v 0.3160249888896942 0.006435830146074295 -0.02493170090019703
v 0.3149000108242035 0.03439220041036606 -0.00016666699957568198
v -0.2710529863834381 0.0009361110278405249 -0.00022222200641408563
v 0.31617501378059387 0.006442219950258732 0.024586400017142296
vn -0.006565860006958246 -0.28284400701522827 0.9591429829597473
vn -0.020936699584126472 -0.9358580112457275 -0.35175400972366333
vn 0.09843689948320389 -0.9951379895210266 -0.0032635799143463373
vn 0.12086500227451324 -0.18685699999332428 -0.9749240279197693
vn 0.37599799036979675 0.9266200065612793 -0.00022529800480697304
vn 0.4334299862384796 0.8736429810523987 -0.22110199928283691
vn -0.1721230000257492 0.07519160211086273 -0.9822019934654236
vn -0.9170550107955933 0.39875999093055725 8.940789797406978e-8
vn 0.19052499532699585 0.05395159870386124 0.9801989793777466
vn -0.1712220013141632 0.07480160146951675 0.982388973236084
vn -0.4156000018119812 -0.909546971321106 -0.0002310720010427758
vn -0.1857050061225891 -0.9582539796829224 0.21739999949932098
vn 0.0060636200942099094 0.28527799248695374 -0.9584259986877441
vn 0.1841229945421219 0.982903003692627 -0.00028273998759686947
vn 0.019718600437045097 0.9368690252304077 0.349124014377594
vn -0.02540469914674759 0.006575339939445257 0.9996560215950012
vn -0.1857050061225891 -0.9582539796829224 0.21739999949932098
vn -0.006565860006958246 -0.28284400701522827 0.9591429829597473
vn -0.1855269968509674 -0.9826390147209167 0.0001949459983734414
vn -0.020936699584126472 -0.9358580112457275 -0.35175400972366333
vn 0.02575800009071827 -0.0003486800123937428 -0.9996680021286011
vn 0.4334299862384796 0.8736429810523987 -0.22110199928283691
vn 0.8660309910774231 -0.49998998641967773 -4.2588499127305113e-7
vn 0.4060260057449341 0.9138609766960144 -0.0007001750054769218
vn 0.09043840318918228 -0.05139939859509468 0.994575023651123
vn 0.0919886976480484 -0.05229780077934265 -0.9943860173225403
vn -0.2635749876499176 0.014623300172388554 -0.9645280241966248
vn -0.5953779816627502 -0.8034449815750122 -0.0007138209766708314
vn -0.5699399709701538 -0.789883017539978 0.22639100253582
vn -0.17958299815654755 0.24653899669647217 0.9523490071296692
vn 0.21529899537563324 0.9531739950180054 -0.21238000690937042
vn 0.21529899537563324 0.9531739950180054 -0.21238000690937042
vn 0.27564701437950134 0.9612039923667908 0.010254199616611004
vn 0.04204469919204712 0.010784500278532505 -0.9990580081939697
vn 0.03865119814872742 0.013657799921929836 -0.9991589784622192
vn -0.06962659955024719 -0.997514009475708 -0.010890199802815914
vn 0.08033440262079239 -0.9967300295829773 -0.008733189664781094
vn -0.02177710086107254 0.0009378989925608039 0.9997619986534119
vn 0.010875900276005268 0.000711027008946985 0.9999409914016724
vn -0.10217099636793137 0.9947649836540222 -0.0019480299670249224
vn -0.24685099720954895 -0.9690250158309937 -0.00746564008295536
vn -0.02397879958152771 -0.0013960900250822306 0.9997119903564453
vn -0.08917219936847687 0.9959880113601685 0.007533960044384003
vn -0.01596760004758835 0.0044701797887682915 -0.999862015247345
vn -0.5699399709701538 -0.789883017539978 0.22639100253582
vn -0.012103700079023838 -0.0001471410068916157 0.9999269843101501
vn 0.08465989679098129 0.9963520169258118 0.010781499557197094
vn 0.012294399552047253 0.018445799127221107 -0.999754011631012
vn 0.09843689948320389 -0.9951379895210266 -0.0032635799143463373
vn 0.0060636200942099094 0.28527799248695374 -0.9584259986877441
vn -0.01596760004758835 0.0044701797887682915 -0.999862015247345
vn -0.10217099636793137 0.9947649836540222 -0.0019480299670249224
vn 0.019718600437045097 0.9368690252304077 0.349124014377594
vn 0.010875900276005268 0.000711027008946985 0.9999409914016724
vt 0.6036189794540405 0.16635197401046753
vt 0.6036189794540405 0.12891900539398193
vt 0.9970870018005371 0.12891900539398193
vt 0.7004240155220032 0.12420600652694702
vt 0.6785650253295898 0.08410799503326416
vt 0.7004240155220032 0.1074020266532898
vt 0.6785650253295898 0.12420600652694702
vt 0.6036189794540405 0.12420600652694702
vt 0.7004240155220032 0.12420600652694702
vt 0.6785650253295898 0.12420600652694702
vt 0.6785650253295898 0.08410799503326416
vt 0.7004240155220032 0.1074020266532898
vt 0.9970870018005371 0.12420600652694702
vt 0.8372290134429932 0.08410799503326416
vt 0.9970870018005371 0.08410799503326416
vt 0.8266419768333435 0.12420600652694702
vt 0.7004240155220032 0.08410799503326416
vt 0.9970870018005371 0.12420600652694702
vt 0.8259339928627014 0.08410799503326416
vt 0.9970870018005371 0.08410799503326416
vt 0.8280889987945557 0.12420600652694702
vt 0.7004240155220032 0.08410799503326416
vt 0.6036189794540405 0.12420600652694702
vt 0.6785650253295898 0.08410799503326416
vt 0.6785650253295898 0.12420600652694702
vt 0.6785650253295898 0.12420600652694702
vt 0.7004240155220032 0.12420600652694702
vt 0.6785650253295898 0.08410799503326416
vt 0.7004240155220032 0.1074020266532898
vt 0.7004240155220032 0.12420600652694702
vt 0.7004240155220032 0.1074020266532898
vt 0.7004240155220032 0.08410799503326416
vt 0.7524960041046143 0.08410799503326416
vt 0.7498999834060669 0.12420600652694702
vt 0.8377789855003357 0.12420600652694702
vt 0.829276978969574 0.08410799503326416
vt 0.9151510000228882 0.08410799503326416
vt 0.9156870245933533 0.12420600652694702
vt 0.9970870018005371 0.12420600652694702
vt 0.9970870018005371 0.08410799503326416
vt 0.7535240054130554 0.08410799503326416
vt 0.8286179900169373 0.12420600652694702
vt 0.9204959869384766 0.08410799503326416
vt 0.9970870018005371 0.12420600652694702
vt 0.7004240155220032 0.08410799503326416
vt 0.7521560192108154 0.12420600652694702
vt 0.8322849869728088 0.08410799503326416
vt 0.9213830232620239 0.12420600652694702
vt 0.9970870018005371 0.08410799503326416
vt 0.6036189794540405 0.16635197401046753
vt 0.9970870018005371 0.16635197401046753
vt 0.9970870018005371 0.12891900539398193
vt 0.6036189794540405 0.12891900539398193
vt 0.9970870018005371 0.16635197401046753
g Geoset0
s 1
usemtl mat_waeponpage01
f 1/1/1 2/2/2 3/3/3
f 4/4/4 5/5/5 6/6/6
f 5/5/5 4/4/4 7/7/7
f 8/8/8 5/5/5 7/7/7
f 9/9/9 6/6/6 5/5/5
f 5/5/5 10/10/10 9/9/9
f 8/8/8 10/10/10 5/5/5
f 11/11/11 10/10/10 8/8/8
f 11/11/11 8/8/8 7/7/7
f 11/11/11 7/7/7 4/4/4
f 11/11/11 9/9/9 10/10/10
f 9/9/9 11/11/11 12/12/12
f 4/4/4 12/12/12 11/11/11
f 13/13/13 14/14/14 15/15/15
f 15/15/15 14/14/14 16/16/16
f 9/9/9 16/16/16 14/14/14
f 17/17/17 16/16/16 9/9/9
f 15/15/15 16/16/16 18/18/18
f 18/18/18 16/16/16 19/19/19
f 17/17/17 19/19/19 16/16/16
f 4/4/4 19/19/19 17/17/17
f 18/18/18 19/19/19 20/20/20
f 20/20/20 19/19/19 21/21/21
f 4/4/4 21/21/21 19/19/19
f 22/22/22 21/21/21 4/4/4
f 9/9/9 14/14/14 22/22/22
f 22/22/22 14/14/14 21/21/21
f 13/13/13 21/21/21 14/14/14
f 20/20/20 21/21/21 13/13/13
f 23/23/23 24/24/24 25/25/25
f 23/23/23 26/26/26 24/24/24
f 24/24/24 26/26/26 27/27/27
f 28/28/28 27/27/27 26/26/26
f 27/27/27 28/28/28 29/29/29
f 30/30/30 29/29/29 28/28/28
f 27/27/27 31/31/31 24/24/24
f 30/30/30 24/24/24 31/31/31
f 24/24/24 30/30/30 25/25/25
f 28/28/28 25/25/25 30/30/30
f 28/28/28 23/23/23 25/25/25
f 28/28/28 26/26/26 23/23/23
f 30/30/30 32/32/32 33/33/33
f 34/34/34 33/33/33 32/32/32
f 33/33/33 34/34/34 35/35/35
f 36/36/36 35/35/35 34/34/34
f 35/35/35 36/36/36 37/37/37
f 38/38/38 37/37/37 36/36/36
f 37/37/37 38/38/38 39/39/39
f 40/40/40 39/39/39 38/38/38
f 32/32/32 27/27/27 34/34/34
f 41/41/41 34/34/34 27/27/27
f 34/34/34 41/41/41 36/36/36
f 42/42/42 36/36/36 41/41/41
f 36/36/36 42/42/42 38/38/38
f 43/43/43 38/38/38 42/42/42
f 38/38/38 43/43/43 40/40/40
f 44/44/44 40/40/40 43/43/43
f 27/27/27 45/45/45 41/41/41
f 46/46/46 41/41/41 45/45/45
f 41/41/41 46/46/46 42/42/42
f 47/47/47 42/42/42 46/46/46
f 42/42/42 47/47/47 43/43/43
f 48/48/48 43/43/43 47/47/47
f 43/43/43 48/48/48 44/44/44
f 49/49/49 44/44/44 48/48/48
f 45/45/45 30/30/30 46/46/46
f 33/33/33 46/46/46 30/30/30
f 46/46/46 33/33/33 47/47/47
f 35/35/35 47/47/47 33/33/33
f 47/47/47 35/35/35 48/48/48
f 37/37/37 48/48/48 35/35/35
f 48/48/48 37/37/37 49/49/49
f 39/39/39 49/49/49 37/37/37
f 2/2/2 50/50/50 51/51/51
f 51/51/51 3/3/3 2/2/2
f 52/52/52 51/51/51 50/50/50
f 50/50/50 53/53/53 52/52/52
f 54/54/54 52/52/52 53/53/53
f 53/53/53 1/1/1 54/54/54
f 3/3/3 54/54/54 1/1/1
