# Exported using wow.export v0.1.65
o barbershop_shavecup
mtllib barbershop_shavecup.mtl
v -0.11194764077663422 0.19854004681110382 -0.06302913278341293
v -0.08898454904556274 0.20570671558380127 0.05176225304603577
v -0.08898454904556274 0.20570671558380127 -0.049771398305892944
v -0.001053840504027903 0.03780172020196915 0.0009954241104424
v 0.06833180040121078 0.03780172020196915 0.04105522483587265
v 0.06833178550004959 0.03780172020196915 -0.03906439617276192
v -0.0010538334026932716 0.03780172020196915 0.08111504465341568
v -0.07043946534395218 0.03780172020196915 0.041055239737033844
v -0.07043946534395218 0.03780172020196915 -0.03906438499689102
v -0.001053840504027903 0.03780172020196915 -0.07912419736385345
v -0.07043946534395218 0.03780172020196915 0.041055239737033844
v -0.07043946534395218 0.03780172020196915 -0.03906438499689102
v -0.08898454904556274 0.20570671558380127 -0.049771398305892944
v -0.08898454904556274 0.20570671558380127 0.05176225304603577
v -0.0010538334026932716 0.03780172020196915 0.08111504465341568
v -0.0010538321221247315 0.20570671558380127 0.10252908617258072
v 0.06833180040121078 0.03780172020196915 0.04105522483587265
v 0.08687689155340195 0.20570671558380127 0.05176223814487457
v 0.06833178550004959 0.03780172020196915 -0.03906439617276192
v 0.08687687665224075 0.20570671558380127 -0.04977141693234444
v -0.001053840504027903 0.03780172020196915 -0.07912419736385345
v -0.0010538408532738686 0.20570671558380127 -0.1005382314324379
v -0.07043946534395218 0.03780172020196915 -0.03906438499689102
v -0.08898454904556274 0.20570671558380127 -0.049771398305892944
v -0.09602968394756317 0.09476769715547562 -0.05383889749646187
v -0.11194764077663422 0.19854004681110382 0.06502000242471695
v -0.11194764077663422 0.19854004681110382 -0.06302913278341293
v -0.09602968394756317 0.09476769715547562 0.055829763412475586
v -0.11035828292369843 0.029298368841409683 -0.06211153045296669
v -0.11035828292369843 0.029298368841409683 0.06410238146781921
v -0.09164723753929138 -0.0006271037855185568 -0.05130869150161743
v -0.09164723753929138 -0.0006271037855185568 0.05329954996705055
v -0.0010538384085521102 -0.0006271037855185568 0.0009954231791198254
v -0.001053829095326364 0.19854004681110382 0.1290445476770401
v -0.0010538315400481224 0.09476769715547562 0.11066409945487976
v -0.0010538300266489387 0.029298368841409683 0.12720933556556702
v -0.0010538293281570077 -0.0006271037855185568 0.1056036651134491
v -0.0010538384085521102 -0.0006271037855185568 0.0009954231791198254
v 0.10983996093273163 0.19854004681110382 0.06501997262239456
v 0.09392202645540237 0.09476769715547562 0.055829744786024094
v 0.10825061798095703 0.029298368841409683 0.06410235911607742
v 0.08953956514596939 -0.0006271037855185568 0.05329953506588936
v -0.0010538384085521102 -0.0006271037855185568 0.0009954231791198254
v 0.10983995348215103 0.19854004681110382 -0.06302915513515472
v 0.09392199665307999 0.09476769715547562 -0.05383891984820366
v 0.10825061053037643 0.029298368841409683 -0.062111545354127884
v 0.0895395502448082 -0.0006271037855185568 -0.051308706402778625
v -0.0010538384085521102 -0.0006271037855185568 0.0009954231791198254
v -0.0010538400383666158 0.19854004681110382 -0.12705369293689728
v -0.001053841202519834 0.09476769715547562 -0.10867325216531754
v -0.0010538410861045122 0.029298368841409683 -0.1252184808254242
v -0.0010538384085521102 -0.0006271037855185568 -0.10361281782388687
v -0.0010538384085521102 -0.0006271037855185568 0.0009954231791198254
v -0.11194764077663422 0.19854004681110382 0.06502000242471695
v -0.0010538321221247315 0.20570671558380127 0.10252908617258072
v -0.001053829095326364 0.19854004681110382 0.1290445476770401
v 0.08687689155340195 0.20570671558380127 0.05176223814487457
v 0.10983996093273163 0.19854004681110382 0.06501997262239456
v 0.08687687665224075 0.20570671558380127 -0.04977141693234444
v 0.10983995348215103 0.19854004681110382 -0.06302915513515472
v -0.0010538408532738686 0.20570671558380127 -0.1005382314324379
v -0.0010538400383666158 0.19854004681110382 -0.12705369293689728
v -0.11194764077663422 0.19854004681110382 -0.06302913278341293
vn -0.7703425288200378 0.45690613985061646 -0.4447574019432068
vn 0.289939820766449 0.9422914385795593 -0.16739682853221893
vn 0.2899397909641266 0.9422914981842041 0.16739678382873535
vn 0 1 0
vn -0.6527142524719238 0.6572306752204895 -0.3768446445465088
vn -0.652714192867279 0.6572306752204895 0.3768448233604431
vn -7.047471228815994e-8 0.6572306752204895 -0.7536894679069519
vn 0.6527142524719238 0.6572306752204895 -0.3768447935581207
vn 0.6527142524719238 0.6572306752204895 0.37684470415115356
vn 4.863782976372022e-8 0.6572306752204895 0.7536894679069519
vn 0.6527142524719238 0.6572306752204895 -0.3768447935581207
vn 0.6527142524719238 0.6572306752204895 0.37684470415115356
vn 0.2899397909641266 0.9422914981842041 0.16739678382873535
vn 0.289939820766449 0.9422914385795593 -0.16739682853221893
vn -7.047471228815994e-8 0.6572306752204895 -0.7536894679069519
vn -7.01142344183836e-9 0.9422914981842041 -0.3347935378551483
vn -0.6527142524719238 0.6572306752204895 -0.3768446445465088
vn -0.2899397909641266 0.9422914981842041 -0.16739678382873535
vn -0.652714192867279 0.6572306752204895 0.3768448233604431
vn -0.2899397611618042 0.9422914981842041 0.16739685833454132
vn 4.863782976372022e-8 0.6572306752204895 0.7536894679069519
vn -5.3537392297187125e-9 0.9422914981842041 0.3347935974597931
vn 0.6527142524719238 0.6572306752204895 0.37684470415115356
vn 0.2899397909641266 0.9422914981842041 0.16739678382873535
vn -0.865373969078064 0.03878018260002136 -0.4996238648891449
vn -0.7703425288200378 0.4569060802459717 0.44475752115249634
vn -0.7703425288200378 0.45690613985061646 -0.4447574019432068
vn -0.8653739094734192 0.03878017142415047 0.49962398409843445
vn -0.853876531124115 -0.1669127196073532 -0.4929858148097992
vn -0.8538764715194702 -0.1669127643108368 0.49298587441444397
vn -0.4836171567440033 -0.8295496106147766 -0.279216468334198
vn -0.4836171567440033 -0.8295496106147766 0.27921655774116516
vn 0 -1 0
vn 1.0403005035186652e-7 0.45690613985061646 0.8895149230957031
vn 9.779919452057584e-8 0.03878013789653778 0.9992477893829346
vn 9.057637129217255e-8 -0.1669127196073532 0.9859716892242432
vn 5.6446562979317605e-8 -0.8295495510101318 0.5584331154823303
vn 0 -1 0
vn 0.7703425884246826 0.4569060802459717 0.4447574019432068
vn 0.865373969078064 0.03878018260002136 0.4996238052845001
vn 0.853876531124115 -0.16691270470619202 0.4929857850074768
vn 0.48361724615097046 -0.8295495510101318 0.2792165279388428
vn 0 -1 0
vn 0.7703424096107483 0.45690616965293884 -0.4447575807571411
vn 0.8653738498687744 0.03878020495176315 -0.49962401390075684
vn 0.8538764715194702 -0.16691277921199799 -0.49298590421676636
vn 0.4836171269416809 -0.8295496106147766 -0.27921658754348755
vn 0 -1 0
vn -4.9673392510385384e-8 0.45690611004829407 -0.8895149230957031
vn -9.362619834973884e-8 0.038780152797698975 -0.9992477893829346
vn -5.825871696174545e-8 -0.1669127196073532 -0.9859716892242432
vn -1.9408453511005064e-8 -0.8295495510101318 -0.5584330558776855
vn 0 -1 0
vn -0.7703425288200378 0.4569060802459717 0.44475752115249634
vn -7.01142344183836e-9 0.9422914981842041 -0.3347935378551483
vn 1.0403005035186652e-7 0.45690613985061646 0.8895149230957031
vn -0.2899397909641266 0.9422914981842041 -0.16739678382873535
vn 0.7703425884246826 0.4569060802459717 0.4447574019432068
vn -0.2899397611618042 0.9422914981842041 0.16739685833454132
vn 0.7703424096107483 0.45690616965293884 -0.4447575807571411
vn -5.3537392297187125e-9 0.9422914981842041 0.3347935974597931
vn -4.9673392510385384e-8 0.45690611004829407 -0.8895149230957031
vn -0.7703425288200378 0.45690613985061646 -0.4447574019432068
vt 0.8403127789497375 0.18970006704330444
vt 0.7901390790939331 0.21481502056121826
vt 0.8403127789497375 0.21487057209014893
vt 0.7646499276161194 0.04589051008224487
vt 0.6898496747016907 0.0049381256103515625
vt 0.7400902509689331 0.0049381256103515625
vt 0.7397447824478149 0.0049381256103515625
vt 0.7901390790939331 0.0049381256103515625
vt 0.8403127789497375 0.0049381256103515625
vt 0.7901771664619446 0.0049381256103515625
vt 0.7901390790939331 0.03835868835449219
vt 0.8403127789497375 0.03835868835449219
vt 0.8403127789497375 0.18745452165603638
vt 0.7901390790939331 0.18743008375167847
vt 0.7397447824478149 0.03835868835449219
vt 0.7397447824478149 0.18744635581970215
vt 0.6898496747016907 0.03835868835449219
vt 0.6898496747016907 0.18744635581970215
vt 0.7400902509689331 0.03835868835449219
vt 0.7400902509689331 0.18743818998336792
vt 0.7901771664619446 0.03835868835449219
vt 0.7901771664619446 0.18743008375167847
vt 0.8403398394584656 0.03835868835449219
vt 0.8403398394584656 0.18743818998336792
vt 0.8403127789497375 0.11086273193359375
vt 0.7901390790939331 0.19090229272842407
vt 0.8403127789497375 0.19090229272842407
vt 0.7901390790939331 0.11086273193359375
vt 0.8403127789497375 0.05756145715713501
vt 0.7901390790939331 0.05756145715713501
vt 0.8403127789497375 -0.0006563663482666016
vt 0.7901390790939331 -0.0006563663482666016
vt 0.8403127789497375 -0.0006563663482666016
vt 0.7397447824478149 0.19090229272842407
vt 0.7397447824478149 0.11086273193359375
vt 0.7397447824478149 0.05756145715713501
vt 0.7397447824478149 -0.0006563663482666016
vt 0.7901390790939331 -0.0006563663482666016
vt 0.6898496747016907 0.19090229272842407
vt 0.6898496747016907 0.11086273193359375
vt 0.6898496747016907 0.05756145715713501
vt 0.6898496747016907 -0.0006563663482666016
vt 0.7397447824478149 -0.0006563663482666016
vt 0.7400902509689331 0.19090229272842407
vt 0.7400902509689331 0.11086273193359375
vt 0.7400902509689331 0.05756145715713501
vt 0.7400902509689331 -0.0006563663482666016
vt 0.6898496747016907 -0.0006563663482666016
vt 0.7901771664619446 0.19090229272842407
vt 0.7901771664619446 0.11086273193359375
vt 0.7901771664619446 0.05756145715713501
vt 0.7901771664619446 -0.0006563663482666016
vt 0.7400902509689331 -0.0006563663482666016
vt 0.7901390790939331 0.18970006704330444
vt 0.7397447824478149 0.21481502056121826
vt 0.7397447824478149 0.18970006704330444
vt 0.6898496747016907 0.21481502056121826
vt 0.6898496747016907 0.18964272737503052
vt 0.7400902509689331 0.21481502056121826
vt 0.7400902509689331 0.18970006704330444
vt 0.7901771664619446 0.21481502056121826
vt 0.7901771664619446 0.18970006704330444
vt 0.8403398394584656 0.18970006704330444
g Geoset0
s 1
usemtl mat_barberpole
f 1/1/1 2/2/2 3/3/3
f 4/4/4 5/5/5 6/6/6
f 4/4/4 7/7/7 5/5/5
f 4/4/4 8/8/8 7/7/7
f 4/4/4 9/9/9 8/8/8
f 4/4/4 10/10/10 9/9/9
f 4/4/4 6/6/6 10/10/10
f 11/11/11 12/12/12 13/13/13
f 13/13/13 14/14/14 11/11/11
f 15/15/15 11/11/11 14/14/14
f 14/14/14 16/16/16 15/15/15
f 17/17/17 15/15/15 16/16/16
f 16/16/16 18/18/18 17/17/17
f 19/19/19 17/17/17 18/18/18
f 18/18/18 20/20/20 19/19/19
f 21/21/21 19/19/19 20/20/20
f 20/20/20 22/22/22 21/21/21
f 23/23/23 21/21/21 22/22/22
f 22/22/22 24/24/24 23/23/23
f 25/25/25 26/26/26 27/27/27
f 25/25/25 28/28/28 26/26/26
f 29/29/29 28/28/28 25/25/25
f 29/29/29 30/30/30 28/28/28
f 31/31/31 30/30/30 29/29/29
f 31/31/31 32/32/32 30/30/30
f 33/33/33 32/32/32 31/31/31
f 28/28/28 34/34/34 26/26/26
f 28/28/28 35/35/35 34/34/34
f 30/30/30 35/35/35 28/28/28
f 30/30/30 36/36/36 35/35/35
f 32/32/32 36/36/36 30/30/30
f 32/32/32 37/37/37 36/36/36
f 38/38/38 37/37/37 32/32/32
f 35/35/35 39/39/39 34/34/34
f 35/35/35 40/40/40 39/39/39
f 36/36/36 40/40/40 35/35/35
f 36/36/36 41/41/41 40/40/40
f 37/37/37 41/41/41 36/36/36
f 37/37/37 42/42/42 41/41/41
f 43/43/43 42/42/42 37/37/37
f 40/40/40 44/44/44 39/39/39
f 40/40/40 45/45/45 44/44/44
f 41/41/41 45/45/45 40/40/40
f 41/41/41 46/46/46 45/45/45
f 42/42/42 46/46/46 41/41/41
f 42/42/42 47/47/47 46/46/46
f 48/48/48 47/47/47 42/42/42
f 45/45/45 49/49/49 44/44/44
f 45/45/45 50/50/50 49/49/49
f 46/46/46 50/50/50 45/45/45
f 46/46/46 51/51/51 50/50/50
f 47/47/47 51/51/51 46/46/46
f 47/47/47 52/52/52 51/51/51
f 53/53/53 52/52/52 47/47/47
f 50/50/50 27/27/27 49/49/49
f 50/50/50 25/25/25 27/27/27
f 51/51/51 25/25/25 50/50/50
f 51/51/51 29/29/29 25/25/25
f 52/52/52 29/29/29 51/51/51
f 52/52/52 31/31/31 29/29/29
f 38/38/38 31/31/31 52/52/52
f 54/54/54 55/55/55 2/2/2
f 54/54/54 56/56/56 55/55/55
f 56/56/56 57/57/57 55/55/55
f 56/56/56 58/58/58 57/57/57
f 58/58/58 59/59/59 57/57/57
f 58/58/58 60/60/60 59/59/59
f 60/60/60 61/61/61 59/59/59
f 60/60/60 62/62/62 61/61/61
f 62/62/62 3/3/3 61/61/61
f 62/62/62 63/63/63 3/3/3
f 1/1/1 54/54/54 2/2/2
