# Exported using wow.export v0.1.65
o barbershop_shavebrush
mtllib barbershop_shavebrush.mtl
v -0.0006829647463746369 0.10016995668411255 0.06708819419145584
v -0.05876719951629639 0.10016995668411255 0.033553238958120346
v -0.07551894336938858 0.0009954307461157441 0.04322485998272896
v -0.03945005312561989 0.15414239466190338 -0.022363906726241112
v -0.0006829549674876034 0.15414239466190338 -0.044746097177267075
v -0.0006829523481428623 0.13246174156665802 -0.07982683181762695
v -0.06983084976673126 0.13246174156665802 -0.03990427777171135
v -0.039450060576200485 0.15414239466190338 0.02240048721432686
v -0.06983086466789246 0.13246174156665802 0.03994085267186165
v -0.0006829588674008846 0.15414239466190338 0.04478268697857857
v -0.0006829593330621719 0.13246174156665802 0.07986341416835785
v 0.03808414563536644 0.15414239466190338 0.022400492802262306
v 0.0684649646282196 0.13246174156665802 0.039940860122442245
v 0.03808414563536644 0.15414239466190338 -0.022363899275660515
v 0.0684649646282196 0.13246174156665802 -0.039904262870550156
v -0.000682951242197305 0.27730509638786316 0.00001829531538533047
v -0.05233887583017349 0.25014838576316833 0.029841849580407143
v -0.0006829581689089537 0.25014838576316833 0.059665415436029434
v -0.052338872104883194 0.25014838576316833 -0.029805272817611694
v -0.0006829529302194715 0.25014838576316833 -0.059628818184137344
v 0.050972964614629745 0.25014838576316833 0.02984185703098774
v 0.050972964614629745 0.25014838576316833 -0.029805263504385948
v -0.000682951242197305 0.10018259286880493 0.00001829531538533047
v -0.000682951183989644 0.10018260031938553 -0.08556286245584488
v 0.07343251258134842 0.10018260031938553 -0.04277228191494942
v -0.0006829586927779019 0.10018260031938553 0.08559945225715637
v -0.07479842007160187 0.10018260031938553 0.04280886799097061
v 0.07343251258134842 0.10018260031938553 0.04280887916684151
v -0.07479840517044067 0.10018260031938553 -0.04277229681611061
v -0.0006829586927779019 -0.012851529754698277 0.00001829531538533047
v 0.07415302097797394 0.0009954307461157441 0.04322487488389015
v -0.0006829662015661597 0.0009954307461157441 0.08643143624067307
v 0.07415302097797394 0.0009954307461157441 -0.043188273906707764
v -0.0006829586927779019 0.0009954307461157441 -0.08639485388994217
v -0.07551893591880798 0.0009954307461157441 -0.043188292533159256
v 0.05740128085017204 0.10016995668411255 0.03355325013399124
v 0.05740128085017204 0.10016995668411255 -0.03351665288209915
v -0.0006829589256085455 0.10016995668411255 -0.06705161184072495
v -0.05876719206571579 0.10016995668411255 -0.03351666405797005
vn -8.571986853667113e-8 0.19143518805503845 0.981505274772644
vn -0.8500085473060608 0.19143515825271606 0.49075254797935486
vn -0.7572267055511475 -0.4852597713470459 0.4371849596500397
vn -0.7477511763572693 0.5044708847999573 -0.43171441555023193
vn 2.3089000933396164e-8 0.504470944404602 -0.8634286522865295
vn 1.8940633950137453e-8 0.5081223845481873 -0.8612848520278931
vn -0.7458944916725159 0.5081225037574768 -0.4306425154209137
vn -0.7477512359619141 0.5044708847999573 0.4317142367362976
vn -0.7458946108818054 0.508122444152832 0.430642306804657
vn -7.19723232123215e-8 0.504470944404602 0.8634286522865295
vn -4.8038010902473616e-8 0.5081223845481873 0.8612849116325378
vn 0.7477511167526245 0.504470944404602 0.43171438574790955
vn 0.7458945512771606 0.508122444152832 0.4306424558162689
vn 0.7477511763572693 0.504470944404602 -0.4317142963409424
vn 0.7458945512771606 0.508122444152832 -0.43064242601394653
vn -1.0259757488029209e-9 1 1.1185285586634564e-8
vn -0.790242075920105 0.40909257531166077 0.45624634623527527
vn -4.5454086716745223e-8 0.40909263491630554 0.9124928712844849
vn -0.7902418971061707 0.40909266471862793 -0.456246554851532
vn 4.503114325871138e-8 0.40909266471862793 -0.9124928712844849
vn 0.7902419567108154 0.40909263491630554 0.4562464952468872
vn 0.7902419567108154 0.40909266471862793 -0.45624643564224243
vn 0 -1 0
vn 3.308355900344395e-8 -0.5433100461959839 -0.8395321369171143
vn 0.7270562052726746 -0.5433099865913391 -0.41976606845855713
vn -4.118554031151689e-8 -0.5433101058006287 0.8395320773124695
vn -0.7270562052726746 -0.5433100461959839 0.41976597905158997
vn 0.7270562052726746 -0.5433099865913391 0.41976606845855713
vn -0.7270561456680298 -0.5433099865913391 -0.4197661876678467
vn 3.2002063221625576e-9 -1 2.8409103958182413e-9
vn 0.7572266459465027 -0.4852597117424011 0.4371850788593292
vn -7.966303172679545e-8 -0.4852597117424011 0.8743700981140137
vn 0.7572267055511475 -0.4852597415447235 -0.43718498945236206
vn 5.612169218238705e-8 -0.4852597117424011 -0.8743700981140137
vn -0.7572266459465027 -0.4852597415447235 -0.4371851086616516
vn 0.850008487701416 0.19143518805503845 0.490752637386322
vn 0.8500085473060608 0.19143517315387726 -0.49075257778167725
vn 6.367640992266388e-8 0.19143518805503845 -0.981505274772644
vn -0.8500084280967712 0.19143520295619965 -0.4907526969909668
vt 0.7396736145019531 0.34077227115631104
vt 0.7907102704048157 0.34077227115631104
vt 0.7907102704048157 0.22082394361495972
vt 0.7938770055770874 0.4288393259048462
vt 0.8406169414520264 0.4288393259048462
vt 0.8406258821487427 0.39303338527679443
vt 0.7938827276229858 0.39303338527679443
vt 0.7382297515869141 0.4288393259048462
vt 0.7382246851921082 0.39303338527679443
vt 0.6914865970611572 0.4288393259048462
vt 0.6914733052253723 0.39303338527679443
vt 0.7382297515869141 0.4288393259048462
vt 0.7382246851921082 0.39303338527679443
vt 0.7938770055770874 0.4288393259048462
vt 0.7938827276229858 0.39303338527679443
vt 0.7660531997680664 0.5291963219642639
vt 0.7382344603538513 0.4875109791755676
vt 0.6914988160133362 0.4875109791755676
vt 0.7938718199729919 0.4875109791755676
vt 0.8406086564064026 0.4875109791755676
vt 0.7382344603538513 0.4875109791755676
vt 0.7938718199729919 0.4875109791755676
vt 0.7660531997680664 0.3453787565231323
vt 0.8405929803848267 0.3453787565231323
vt 0.7938618063926697 0.3453788161277771
vt 0.6915220618247986 0.3453787565231323
vt 0.7382432818412781 0.3453787565231323
vt 0.7382432818412781 0.3453788161277771
vt 0.7938618063926697 0.3453787565231323
vt 0.7696632742881775 0.2627512216567993
vt 0.6886355876922607 0.22082394361495972
vt 0.7396736145019531 0.22082394361495972
vt 0.7396723031997681 0.22082394361495972
vt 0.7907089591026306 0.22082394361495972
vt 0.8417456746101379 0.22082394361495972
vt 0.6886355876922607 0.34077227115631104
vt 0.7396723031997681 0.34077227115631104
vt 0.7907089591026306 0.34077227115631104
vt 0.8417456746101379 0.34077227115631104
g Geoset0
s 1
usemtl mat_barberpole
f 1/1/1 2/2/2 3/3/3
f 4/4/4 5/5/5 6/6/6
f 4/4/4 6/6/6 7/7/7
f 8/8/8 4/4/4 7/7/7
f 8/8/8 7/7/7 9/9/9
f 10/10/10 8/8/8 9/9/9
f 10/10/10 9/9/9 11/11/11
f 12/12/12 10/10/10 11/11/11
f 12/12/12 11/11/11 13/13/13
f 14/14/14 12/12/12 13/13/13
f 14/14/14 13/13/13 15/15/15
f 16/16/16 17/17/17 18/18/18
f 16/16/16 19/19/19 17/17/17
f 16/16/16 20/20/20 19/19/19
f 19/19/19 20/20/20 5/5/5
f 19/19/19 5/5/5 4/4/4
f 17/17/17 19/19/19 4/4/4
f 17/17/17 4/4/4 8/8/8
f 18/18/18 17/17/17 8/8/8
f 18/18/18 8/8/8 10/10/10
f 21/21/21 18/18/18 10/10/10
f 21/21/21 10/10/10 12/12/12
f 22/22/22 21/21/21 12/12/12
f 22/22/22 12/12/12 14/14/14
f 23/23/23 24/24/24 25/25/25
f 6/6/6 25/25/25 24/24/24
f 6/6/6 15/15/15 25/25/25
f 5/5/5 15/15/15 6/6/6
f 5/5/5 14/14/14 15/15/15
f 20/20/20 14/14/14 5/5/5
f 20/20/20 22/22/22 14/14/14
f 16/16/16 22/22/22 20/20/20
f 16/16/16 21/21/21 22/22/22
f 16/16/16 18/18/18 21/21/21
f 23/23/23 26/26/26 27/27/27
f 23/23/23 28/28/28 26/26/26
f 23/23/23 25/25/25 28/28/28
f 23/23/23 27/27/27 29/29/29
f 23/23/23 29/29/29 24/24/24
f 7/7/7 6/6/6 24/24/24
f 7/7/7 24/24/24 29/29/29
f 9/9/9 7/7/7 29/29/29
f 9/9/9 29/29/29 27/27/27
f 11/11/11 9/9/9 27/27/27
f 11/11/11 27/27/27 26/26/26
f 13/13/13 11/11/11 26/26/26
f 13/13/13 26/26/26 28/28/28
f 15/15/15 13/13/13 28/28/28
f 15/15/15 28/28/28 25/25/25
f 30/30/30 31/31/31 32/32/32
f 30/30/30 33/33/33 31/31/31
f 30/30/30 34/34/34 33/33/33
f 30/30/30 35/35/35 34/34/34
f 30/30/30 3/3/3 35/35/35
f 30/30/30 32/32/32 3/3/3
f 1/1/1 3/3/3 32/32/32
f 36/36/36 1/1/1 32/32/32
f 36/36/36 32/32/32 31/31/31
f 37/37/37 36/36/36 31/31/31
f 37/37/37 31/31/31 33/33/33
f 38/38/38 37/37/37 33/33/33
f 38/38/38 33/33/33 34/34/34
f 39/39/39 38/38/38 34/34/34
f 39/39/39 34/34/34 35/35/35
f 2/2/2 39/39/39 35/35/35
f 2/2/2 35/35/35 3/3/3
