# Exported using wow.export v0.1.65
o barbershop_poster02
mtllib barbershop_poster02.mtl
v 0.04602588713169098 0.4119626581668854 -0.5266409516334534
v 0.14291857182979584 0.4574441909790039 -0.5401400923728943
v 0.06792352348566055 0.48771536350250244 -0.46905067563056946
v 0.035260893404483795 -0.45451968908309937 0.5534036159515381
v 0.08481193333864212 -0.44255995750427246 0.5783973932266235
v 0.0963171198964119 -0.47472137212753296 0.19338873028755188
v 0.046766072511672974 -0.4844759404659271 0.18505747616291046
v 0.046766072511672974 -0.4844759404659271 -0.18328866362571716
v 0.0963171124458313 -0.47472137212753296 -0.19161993265151978
v 0.0352608896791935 -0.45451968908309937 -0.5516347289085388
v 0.08481193333864212 -0.44255995750427246 -0.5766285061836243
v 0.011505171656608582 -0.4418974220752716 -0.17495739459991455
v -1.1127157861778869e-8 -0.4141463339328766 -0.5266409516334534
v 0.018767882138490677 -0.023784538730978966 -0.5266409516334534
v 0.030273066833615303 -0.0010918114567175508 -0.17495739459991455
v 0.011505171656608582 -0.4418974220752716 0.17672619223594666
v -1.1127157861778869e-8 -0.4141463339328766 0.5284097790718079
v 0.030273063108325005 -0.0010918114567175508 0.17672620713710785
v 0.018767882138490677 -0.02045621909201145 0.5284097790718079
v 9.992871419228777e-9 0.3732338845729828 0.5284097790718079
v 0.04602588713169098 0.4119626581668854 0.5284097790718079
v 1.1305140823480997e-8 0.41821831464767456 0.4491329789161682
v 0.011505194008350372 0.439713716506958 0.17672619223594666
v 0.011505194008350372 0.439713716506958 -0.17495739459991455
v 9.814318246981202e-9 0.36657726764678955 -0.5266409516334534
v 0.14291857182979584 0.4574441909790039 0.5419089794158936
v 0.06792352348566055 0.4881319999694824 0.46583107113838196
v 0.04546695202589035 0.4939136505126953 0.18505747616291046
v 0.04546695202589035 0.4939136505126953 -0.18328866362571716
v 1.1369392538540524e-8 0.4196881949901581 -0.42873620986938477
v 0.07942871004343033 0.4749642610549927 0.19338873028755188
v 0.07942871004343033 0.4749642610549927 -0.19161993265151978
vn 0.588394284248352 -0.5891014933586121 0.5538516044616699
vn 0.34902146458625793 -0.5630968809127808 0.7490700483322144
vn 0.6011124849319458 -0.6584930419921875 0.45282524824142456
vn 0.17387960851192474 0.9803533554077148 -0.0931301936507225
vn -0.19147902727127075 0.9755964279174805 -0.10745885968208313
vn -0.18581585586071014 0.9808712601661682 -0.05800073593854904
vn 0.294852077960968 0.954772412776947 -0.03836487978696823
vn 0.29485201835632324 0.9547724723815918 0.03836488351225853
vn -0.18581585586071014 0.9808712601661682 0.058000754565000534
vn 0.17387953400611877 0.9803533554077148 0.0931301936507225
vn -0.19147902727127075 0.9755964279174805 0.10745888203382492
vn 0.9394681453704834 0.34262770414352417 -0.0024288424756377935
vn 0.9338331818580627 0.35770857334136963 0.0003948617377318442
vn 0.9991934895515442 -0.0024260380305349827 -0.04008151590824127
vn 0.999763011932373 0.0011615402763709426 -0.021739812567830086
vn 0.9394681453704834 0.34262770414352417 0.00242884480394423
vn 0.9338096380233765 0.3577701449394226 -0.0002911095507442951
vn 0.9997661113739014 0.0009865446481853724 0.021605100482702255
vn 0.9991921782493591 -0.0020538880489766598 0.04013499245047569
vn 0.9536167979240417 -0.2512352764606476 -0.16581857204437256
vn 0.5385067462921143 -0.6138160228729248 -0.5772697925567627
vn 0.9070577025413513 -0.3797532618045807 -0.18175195157527924
vn 0.9623059034347534 -0.2717772424221039 0.010223685763776302
vn 0.9623642563819885 -0.2715216279029846 -0.01144629716873169
vn 0.9635075926780701 -0.22757448256015778 0.14093612134456635
vn 0.35769692063331604 -0.5870853662490845 -0.7262118458747864
vn 0.5872713327407837 -0.6859824657440186 -0.4295817017555237
vn 0.20578065514564514 -0.9785965085029602 -0.001788189634680748
vn 0.2052420675754547 -0.9787095189094543 0.0018388581229373813
vn 0.9234273433685303 -0.35689806938171387 0.14108771085739136
vn -0.48940593004226685 -0.8719345331192017 0.014559948816895485
vn -0.48924222588539124 -0.872044563293457 -0.013429375365376472
vt 0.9960466027259827 0.9703519940376282
vt 0.9960466027259827 0.9996920228004456
vt 0.9502212405204773 0.9996920228004456
vt 0.5040357112884521 0.5261011719703674
vt 0.5040357112884521 0.5076811909675598
vt 0.6680392622947693 0.5076811909675598
vt 0.6680392622947693 0.5261011719703674
vt 0.832042932510376 0.5261011719703674
vt 0.832042932510376 0.5076811909675598
vt 0.9960466027259827 0.5261011719703674
vt 0.9960466027259827 0.5076811909675598
vt 0.832042932510376 0.5445213317871094
vt 0.9960466027259827 0.5445213317871094
vt 0.9960466027259827 0.7515584230422974
vt 0.832042932510376 0.7634098529815674
vt 0.6680392622947693 0.5445213317871094
vt 0.5040357112884521 0.5445213317871094
vt 0.6680392622947693 0.7634098529815674
vt 0.5040357112884521 0.7522192001342773
vt 0.5040357112884521 0.9458428621292114
vt 0.5040357112884521 0.967605710029602
vt 0.541005551815033 0.9644070267677307
vt 0.6680392622947693 0.967605710029602
vt 0.832042932510376 0.967605710029602
vt 0.9960466027259827 0.9476103186607361
vt 0.5040357112884521 0.9996920228004456
vt 0.551986038684845 0.9996920228004456
vt 0.6680392622947693 0.9836488366127014
vt 0.832042932510376 0.9836488366127014
vt 0.9503899216651917 0.967605710029602
vt 0.6680392622947693 0.9996920228004456
vt 0.832042932510376 0.9996920228004456
g Geoset0
s 1
usemtl mat_barberwigs
f 1/1/1 2/2/2 3/3/3
f 4/4/4 5/5/5 6/6/6
f 6/6/6 7/7/7 4/4/4
f 8/8/8 7/7/7 6/6/6
f 6/6/6 9/9/9 8/8/8
f 10/10/10 8/8/8 9/9/9
f 9/9/9 11/11/11 10/10/10
f 7/7/7 8/8/8 12/12/12
f 13/13/13 12/12/12 8/8/8
f 8/8/8 10/10/10 13/13/13
f 13/13/13 14/14/14 15/15/15
f 15/15/15 12/12/12 13/13/13
f 16/16/16 12/12/12 15/15/15
f 12/12/12 16/16/16 7/7/7
f 7/7/7 16/16/16 17/17/17
f 17/17/17 4/4/4 7/7/7
f 17/17/17 16/16/16 18/18/18
f 18/18/18 19/19/19 17/17/17
f 20/20/20 19/19/19 18/18/18
f 15/15/15 18/18/18 16/16/16
f 21/21/21 20/20/20 22/22/22
f 22/22/22 20/20/20 23/23/23
f 18/18/18 23/23/23 20/20/20
f 24/24/24 23/23/23 18/18/18
f 18/18/18 15/15/15 24/24/24
f 25/25/25 24/24/24 15/15/15
f 15/15/15 14/14/14 25/25/25
f 26/26/26 21/21/21 27/27/27
f 27/27/27 21/21/21 22/22/22
f 27/27/27 22/22/22 28/28/28
f 23/23/23 28/28/28 22/22/22
f 29/29/29 28/28/28 23/23/23
f 23/23/23 24/24/24 29/29/29
f 29/29/29 24/24/24 30/30/30
f 25/25/25 30/30/30 24/24/24
f 25/25/25 1/1/1 30/30/30
f 28/28/28 31/31/31 27/27/27
f 32/32/32 31/31/31 28/28/28
f 28/28/28 29/29/29 32/32/32
f 3/3/3 32/32/32 29/29/29
f 29/29/29 30/30/30 3/3/3
f 3/3/3 30/30/30 1/1/1
