# Exported using wow.export v0.1.65
o armorshoulderblue
mtllib armorshoulderblue.mtl
v 0.0012250000145286322 0.11065500229597092 -0.20708000659942627
v -0.21581900119781494 0.010059700347483158 -0.15839700400829315
v -0.18701599538326263 0.21029500663280487 0.07714220136404037
v 0.2409670054912567 -0.0033252800349146128 0.2027609944343567
v 0.246955007314682 -0.0037247200962156057 -0.08787579834461212
v 0.16246800124645233 0.2108670026063919 0.08272580057382584
v 0.16826799511909485 0.17120300233364105 -0.10362699627876282
v 0.1618809998035431 0.1623079925775528 0.2577599883079529
v 0.004701669793576002 0.2834610044956207 0.0860356017947197
v -0.006856389809399843 0.20805099606513977 0.26980701088905334
v -0.18286199867725372 0.1733819991350174 0.25985801219940186
v -0.18701599538326263 0.21029500663280487 0.07714220136404037
v -0.26829901337623596 0.013110600411891937 0.20597000420093536
v 0.0006583330105058849 0.20933400094509125 -0.10689900070428848
v -0.18001200258731842 0.18297499418258667 -0.10263299942016602
v -0.28075799345970154 0.013637799769639969 -0.08510000258684158
v 0.004701669793576002 0.2834610044956207 0.0860356017947197
v 0.16246800124645233 0.21086600422859192 0.08272580057382584
v 0.18662600219249725 -0.005373890046030283 -0.14928700029850006
vn 0.049577098339796066 0.8233349919319153 -0.5653859972953796
vn -0.45000898838043213 0.7067980170249939 -0.5458279848098755
vn -0.3732770085334778 0.7701600193977356 -0.5172209739685059
vn 0.9243350028991699 0.37580999732017517 0.06611429899930954
vn 0.9249060153961182 0.3796919882297516 -0.019553400576114655
vn 0.7731810212135315 0.633446991443634 0.03059069998562336
vn 0.557000994682312 0.8024349808692932 -0.2141209989786148
vn 0.5706760287284851 0.7770619988441467 0.2655259966850281
vn 0.034781601279973984 0.9992070198059082 0.019403699785470963
vn 0.03464210033416748 0.9238139986991882 0.38127198815345764
vn -0.5235859751701355 0.8176320195198059 0.23944999277591705
vn -0.7270280122756958 0.6864010095596313 0.01682860031723976
vn -0.9038820266723633 0.42125099897384644 0.07447029650211334
vn 0.035962898284196854 0.9326149821281433 -0.35907599329948425
vn -0.4852910041809082 0.8457909822463989 -0.22165299952030182
vn -0.8906310200691223 0.45338401198387146 -0.03492850065231323
vn 0.03519130125641823 0.860722005367279 -0.5078579783439636
vn 0.4648660123348236 0.7243620157241821 -0.509115993976593
vn 0.5621629953384399 0.6333820223808289 -0.5317890048027039
vt 0.17909200489521027 0.37598299980163574
vt 0.12512099742889404 0.37585902214050293
vt 0.12523800134658813 0.5004850029945374
vt 0.24734899401664734 0.37603598833084106
vt 0.12509199976921082 0.3762059807777405
vt 0.18709400296211243 0.44386398792266846
vt 0.12509199976921082 0.44386398792266846
vt 0.24743400514125824 0.4439070224761963
vt 0.18709400296211243 0.49820297956466675
vt 0.24743400514125824 0.49820297956466675
vt 0.24743400514125824 0.4439070224761963
vt 0.18709400296211243 0.44386398792266846
vt 0.24734899401664734 0.37603598833084106
vt 0.12509199976921082 0.49820297956466675
vt 0.12509199976921082 0.44386398792266846
vt 0.12509199976921082 0.3762059807777405
vt 0.17912299931049347 0.5003890097141266
vt 0.12523899972438812 0.5003629922866821
vt 0.12512099742889404 0.37585002183914185
g Geoset0
s 1
usemtl mat_armorermisc
f 1/1/1 2/2/2 3/3/3
f 4/4/4 5/5/5 6/6/6
f 7/7/7 6/6/6 5/5/5
f 6/6/6 8/8/8 4/4/4
f 6/6/6 9/9/9 8/8/8
f 7/7/7 9/9/9 6/6/6
f 10/10/10 8/8/8 9/9/9
f 9/9/9 11/11/11 10/10/10
f 11/11/11 9/9/9 12/12/12
f 11/11/11 12/12/12 13/13/13
f 9/9/9 7/7/7 14/14/14
f 14/14/14 15/15/15 9/9/9
f 12/12/12 9/9/9 15/15/15
f 12/12/12 15/15/15 16/16/16
f 16/16/16 13/13/13 12/12/12
f 17/17/17 18/18/18 1/1/1
f 19/19/19 1/1/1 18/18/18
f 3/3/3 17/17/17 1/1/1
