# Exported using wow.export v0.1.65
o armorhelmtrimflat
mtllib armorhelmtrimflat.mtl
v -0.02142000012099743 -0.025939399376511574 -0.12586000561714172
v 0.10994599759578705 0.002166670048609376 -0.12999799847602844
v 0.0811849981546402 -0.02427780069410801 -0.19126500189304352
v 0.100491002202034 -0.03312639892101288 0.24699699878692627
v 0.08118580281734467 -0.02550330013036728 0.18602900207042694
v -0.006260000169277191 -0.03294580057263374 0.2526229918003082
v -0.0922446995973587 -0.036512501537799835 0.08869720250368118
v -0.09714390337467194 -0.03413829952478409 0.2547619938850403
v -0.025865299627184868 -0.036741700023412704 0.1928430050611496
v -0.02142000012099743 -0.025939399376511574 0.12586000561714172
v 0.10994599759578705 0.002166670048609376 0.12999799847602844
v -0.02142000012099743 -0.025939399376511574 0.12586000561714172
v -0.0826374962925911 0.07043779641389847 0.10127200186252594
v -0.0922446995973587 -0.036512501537799835 0.08869720250368118
v 0.032009199261665344 0.06733079999685287 0.13343000411987305
v -0.00022222200641408563 0.1596989929676056 0.09876970201730728
v -0.126569002866745 0.0750930979847908 0
v -0.07206189632415771 0.16116400063037872 0
v 0.030282799154520035 0.19490399956703186 0
v 0.10994599759578705 0.002166670048609376 0.12999799847602844
v 0.1614300012588501 0.12005099654197693 0.08720999956130981
v 0.14143499732017517 0.18190599977970123 0
v -0.00022222200641408563 0.1596989929676056 -0.09876970201730728
v -0.0826374962925911 0.07043779641389847 -0.10127200186252594
v 0.19264300167560577 0.033226098865270615 0.09147530049085617
v 0.19736899435520172 0.13861900568008423 0
v 0.1614300012588501 0.12005099654197693 -0.08720999956130981
v 0.032009199261665344 0.06733079999685287 -0.13343000411987305
v -0.1219940036535263 -0.03270469978451729 0
v -0.0922446995973587 -0.036512501537799835 -0.08869720250368118
v -0.02142000012099743 -0.025939399376511574 -0.12586000561714172
v 0.10994599759578705 0.002166670048609376 -0.12999799847602844
v 0.19264300167560577 0.033226098865270615 -0.09147530049085617
v 0.2241320013999939 0.034940801560878754 0
v -0.09499110281467438 -0.03563470020890236 -0.27671900391578674
v -0.025815000757575035 -0.0361005999147892 -0.1978909969329834
v -0.005934440065175295 -0.03504670038819313 -0.2789190113544464
v -0.0922446995973587 -0.036512501537799835 -0.08869720250368118
v 0.1007699966430664 -0.034703098237514496 -0.27249300479888916
vn -0.273591011762619 0.6141449809074402 -0.7402520179748535
vn 0.10983999818563461 0.3707979917526245 -0.9221950173377991
vn -0.10433299839496613 0.9838619828224182 -0.14535999298095703
vn 0.008087890222668648 0.9925529956817627 0.1215440034866333
vn -0.10083500295877457 0.9835690259933472 0.1497489959001541
vn -0.037675101310014725 0.999222993850708 0.011588199995458126
vn -0.6995710134506226 0.5279039740562439 0.48157799243927
vn 0.005125869996845722 0.999334990978241 -0.03611129894852638
vn -0.08217649906873703 0.9958570003509521 0.03893909975886345
vn -0.2707670032978058 0.6035529971122742 0.7499390244483948
vn 0.10927099734544754 0.36294299364089966 0.9253820180892944
vn -0.2707670032978058 0.6035529971122742 0.7499390244483948
vn -0.6150209903717041 0.2612200081348419 0.7439849972724915
vn -0.6995710134506226 0.5279039740562439 0.48157799243927
vn -0.0282732006162405 0.1860560029745102 0.9821320176124573
vn -0.13128699362277985 0.7462869882583618 0.6525480151176453
vn -0.9831140041351318 0.18299199640750885 -1.1581599679288956e-8
vn -0.64969801902771 0.7601929903030396 -1.527840076676057e-8
vn -0.10549800097942352 0.9944199919700623 -2.6372399375418354e-8
vn 0.10927099734544754 0.36294299364089966 0.9253820180892944
vn 0.4422900080680847 0.49118199944496155 0.7504130005836487
vn 0.34562399983406067 0.9383730292320251 -8.656409988816449e-8
vn -0.13128699362277985 0.7462869882583618 -0.6525480151176453
vn -0.6150209903717041 0.2612200081348419 -0.7439849972724915
vn 0.7611780166625977 0.26382601261138916 0.5924550294876099
vn 0.8746209740638733 0.48480701446533203 -8.444000343388325e-8
vn 0.4422900080680847 0.49118199944496155 -0.7504130005836487
vn -0.0282732006162405 0.1860560029745102 -0.9821320176124573
vn -0.9991009831428528 -0.04240329936146736 -1.5834499933475854e-8
vn -0.7019799947738647 0.5278840065002441 -0.4780830144882202
vn -0.273591011762619 0.6141449809074402 -0.7402520179748535
vn 0.10983999818563461 0.3707979917526245 -0.9221950173377991
vn 0.7611780166625977 0.26382601261138916 -0.5924550294876099
vn 0.9682629704475403 0.24993500113487244 -2.1116600024129184e-8
vn -0.002442440018057823 0.9999650120735168 0.00804980006068945
vn -0.0853205993771553 0.9950370192527771 -0.05119439959526062
vn -0.03707300126552582 0.9983869791030884 -0.04300349950790405
vn -0.7019799947738647 0.5278840065002441 -0.4780830144882202
vn 0.004415399860590696 0.9919880032539368 -0.12625400722026825
vt 0.5789719820022583 0.5723490118980408
vt 0.5789740085601807 0.6389789879322052
vt 0.6353849768638611 0.638933002948761
vt 0.6878769993782043 0.6389639973640442
vt 0.6353489756584167 0.638933002948761
vt 0.6879019737243652 0.5724030137062073
vt 0.5789570212364197 0.5281769931316376
vt 0.6879119873046875 0.5281110107898712
vt 0.635487973690033 0.5723330080509186
vt 0.5789740085601807 0.5723490118980408
vt 0.5789759755134583 0.6389789879322052
vt 0.6736699938774109 0.1351349949836731
vt 0.6854860186576843 0.19833999872207642
vt 0.7209360003471375 0.1351349949836731
vt 0.6539750099182129 0.19432199001312256
vt 0.6358000040054321 0.234391987323761
vt 0.7445690035820007 0.2103930115699768
vt 0.7445690035820007 0.24644500017166138
vt 0.6051579713821411 0.24644500017166138
vt 0.5988309979438782 0.1351349949836731
vt 0.5555030107498169 0.19833999872207642
vt 0.5042979717254639 0.24644500017166138
vt 0.6358000040054321 0.234391987323761
vt 0.6854860186576843 0.19833999872207642
vt 0.5515639781951904 0.1351349949836731
vt 0.5042979717254639 0.20235800743103027
vt 0.5555030107498169 0.19833999872207642
vt 0.6539750099182129 0.19432199001312256
vt 0.7445690035820007 0.1351349949836731
vt 0.7209360003471375 0.1351349949836731
vt 0.6736699938774109 0.1351349949836731
vt 0.5988309979438782 0.1351349949836731
vt 0.5515639781951904 0.1351349949836731
vt 0.5042979717254639 0.1351349949836731
vt 0.6879950165748596 0.5281400084495544
vt 0.6355199813842773 0.5723330080509186
vt 0.6880049705505371 0.5724039971828461
vt 0.5789560079574585 0.5281769931316376
vt 0.6879760026931763 0.6389650106430054
g Geoset0
s 1
usemtl mat_armorermisc
f 1/1/1 2/2/2 3/3/3
f 4/4/4 5/5/5 6/6/6
f 7/7/7 8/8/8 9/9/9
f 9/9/9 10/10/10 7/7/7
f 10/10/10 5/5/5 11/11/11
f 9/9/9 5/5/5 10/10/10
f 9/9/9 6/6/6 5/5/5
f 8/8/8 6/6/6 9/9/9
f 12/12/12 13/13/13 14/14/14
f 15/15/15 13/13/13 12/12/12
f 15/15/15 16/16/16 13/13/13
f 17/17/17 14/14/14 13/13/13
f 18/18/18 17/17/17 13/13/13
f 13/13/13 16/16/16 18/18/18
f 19/19/19 18/18/18 16/16/16
f 20/20/20 15/15/15 12/12/12
f 20/20/20 21/21/21 15/15/15
f 21/21/21 16/16/16 15/15/15
f 21/21/21 22/22/22 16/16/16
f 22/22/22 19/19/19 16/16/16
f 22/22/22 23/23/23 19/19/19
f 19/19/19 23/23/23 18/18/18
f 24/24/24 18/18/18 23/23/23
f 18/18/18 24/24/24 17/17/17
f 21/21/21 20/20/20 25/25/25
f 21/21/21 25/25/25 26/26/26
f 21/21/21 26/26/26 22/22/22
f 27/27/27 22/22/22 26/26/26
f 27/27/27 23/23/23 22/22/22
f 27/27/27 28/28/28 23/23/23
f 28/28/28 24/24/24 23/23/23
f 17/17/17 29/29/29 14/14/14
f 17/17/17 30/30/30 29/29/29
f 17/17/17 24/24/24 30/30/30
f 31/31/31 30/30/30 24/24/24
f 28/28/28 31/31/31 24/24/24
f 32/32/32 31/31/31 28/28/28
f 32/32/32 28/28/28 27/27/27
f 27/27/27 33/33/33 32/32/32
f 27/27/27 26/26/26 33/33/33
f 26/26/26 34/34/34 33/33/33
f 26/26/26 25/25/25 34/34/34
f 35/35/35 36/36/36 37/37/37
f 38/38/38 36/36/36 35/35/35
f 39/39/39 37/37/37 3/3/3
f 36/36/36 3/3/3 37/37/37
f 36/36/36 1/1/1 3/3/3
f 38/38/38 1/1/1 36/36/36
