# Exported using wow.export v0.1.65
o armorbreastplategreen
mtllib armorbreastplategreen.mtl
v -0.13329200446605682 0.3029249906539917 0.004496669862419367
v 0.0020916699431836605 0.32558301091194153 -0.11740600317716599
v -0.026657799258828163 0.3145639896392822 -0.2523910105228424
v -0.01476689986884594 -0.2842170000076294 -0.22948099672794342
v -0.20629000663757324 -0.2836030125617981 -0.00022222200641408563
v -0.030188599601387978 0.03789810091257095 -0.29717499017715454
v 0.183105006814003 -0.043789200484752655 -0.18954700231552124
v 0.11825300008058548 0.19485299289226532 -0.26876100897789
v 0.08284779638051987 0.28799399733543396 0.002608329989016056
v 0.0020916699431836605 0.32558301091194153 -0.11740600317716599
v 0.20031799376010895 -0.2839750051498413 -0.011621899902820587
v 0.23192499577999115 0.0009250000002793968 -0.0018277800409123302
v 0.18883299827575684 0.17636600136756897 0.0006666670087724924
v -0.021886900067329407 -0.2833389937877655 0.21850299835205078
v 0.1860859990119934 -0.048045601695775986 0.18557099997997284
v 0.12297499924898148 0.18811100721359253 0.27139198780059814
v -0.021935800090432167 0.30782198905944824 0.2598400115966797
v 0.004017219878733158 0.32283899188041687 0.12471599876880646
v -0.025455599650740623 0.03113969974219799 0.2984029948711395
v -0.22359900176525116 0.1469379961490631 0.0033424999564886093
v -0.17985500395298004 0.2137099951505661 -0.26641300320625305
v 0.004017219878733158 0.32283899188041687 0.12471599876880646
v -0.17513300478458405 0.20696799457073212 0.2737410068511963
vn -0.5680400133132935 0.8228440284729004 0.016064900904893875
vn 0.24562899768352509 0.9605069756507874 -0.1307380050420761
vn 0.1538590043783188 0.9723359942436218 -0.17575399577617645
vn 0.12012799829244614 -0.32986900210380554 -0.936352014541626
vn -0.9919670224189758 -0.12638500332832336 0.005248269997537136
vn -0.41825300455093384 -0.30651000142097473 -0.8550530076026917
vn 0.7378990054130554 -0.16176599264144897 -0.6552379727363586
vn 0.831853985786438 0.3817110061645508 -0.40288400650024414
vn 0.6698920130729675 0.7424489855766296 0.0036909000482410192
vn 0.24562899768352509 0.9605069756507874 -0.1307380050420761
vn 0.9449710249900818 -0.326898992061615 -0.012904400005936623
vn 0.9950990080833435 0.09859850257635117 -0.00744348019361496
vn 0.8764870166778564 0.4814240038394928 -0.0016025799559429288
vn 0.1171329990029335 -0.3725009858608246 0.9206100106239319
vn 0.7431730031967163 -0.19470100104808807 0.6401439905166626
vn 0.8383659720420837 0.3720470070838928 0.39840200543403625
vn 0.1563110053539276 0.9674239754676819 0.1991419941186905
vn 0.24652700126171112 0.9568729996681213 0.15368400514125824
vn -0.4089739918708801 -0.3292829990386963 0.851065993309021
vn -0.9985209703445435 -0.053773101419210434 0.007970999926328659
vn -0.926925003528595 0.31626200675964355 -0.20196300745010376
vn 0.24652700126171112 0.9568729996681213 0.15368400514125824
vn -0.9228270053863525 0.3116919994354248 0.2263599932193756
vt 0.7436490058898926 0.9690546002238989
vt 0.677977979183197 0.9947349401190877
vt 0.6267650127410889 0.9820470008999109
vt 0.6387270092964172 0.7509119957685471
vt 0.7436490058898926 0.7508659958839417
vt 0.6387889981269836 0.8311239928007126
vt 0.5976189970970154 0.8224399983882904
vt 0.6387869715690613 0.9023841992020607
vt 0.5036900043487549 0.9506513997912407
vt 0.5726649761199951 0.982023399323225
vt 0.5036900043487549 0.7509140074253082
vt 0.5036900043487549 0.8362399935722351
vt 0.5036900043487549 0.9029370993375778
vt 0.6387270092964172 0.7509119957685471
vt 0.5976079702377319 0.8224399983882904
vt 0.6387869715690613 0.9023843035101891
vt 0.6267650127410889 0.9820470008999109
vt 0.572613000869751 0.982023399323225
vt 0.6387889981269836 0.8311239928007126
vt 0.7436490058898926 0.8598880022764206
vt 0.6387889981269836 0.9024951979517937
vt 0.6778879761695862 0.9947349401190877
vt 0.6387889981269836 0.9024951979517937
g Geoset0
s 1
usemtl mat_armorermisc
f 1/1/1 2/2/2 3/3/3
f 4/4/4 5/5/5 6/6/6
f 4/4/4 6/6/6 7/7/7
f 8/8/8 7/7/7 6/6/6
f 9/9/9 3/3/3 10/10/10
f 11/11/11 4/4/4 7/7/7
f 11/11/11 7/7/7 12/12/12
f 8/8/8 12/12/12 7/7/7
f 8/8/8 13/13/13 12/12/12
f 14/14/14 11/11/11 15/15/15
f 15/15/15 11/11/11 12/12/12
f 12/12/12 16/16/16 15/15/15
f 13/13/13 16/16/16 12/12/12
f 16/16/16 13/13/13 9/9/9
f 13/13/13 8/8/8 9/9/9
f 9/9/9 8/8/8 3/3/3
f 17/17/17 16/16/16 9/9/9
f 18/18/18 17/17/17 9/9/9
f 15/15/15 16/16/16 19/19/19
f 19/19/19 14/14/14 15/15/15
f 5/5/5 14/14/14 19/19/19
f 20/20/20 5/5/5 19/19/19
f 5/5/5 20/20/20 6/6/6
f 20/20/20 21/21/21 6/6/6
f 1/1/1 17/17/17 22/22/22
f 1/1/1 23/23/23 17/17/17
f 23/23/23 20/20/20 19/19/19
f 20/20/20 23/23/23 1/1/1
f 20/20/20 1/1/1 21/21/21
f 21/21/21 1/1/1 3/3/3
