# Exported using wow.export v0.1.65
o armorbreastplatetrim
mtllib armorbreastplatetrim.mtl
v -0.13329200446605682 0.3029249906539917 0.004496669862419367
v 0.0020916699431836605 0.32558301091194153 -0.11740600317716599
v -0.026657799258828163 0.3145639896392822 -0.2480510026216507
v -0.01476689986884594 -0.2842170000076294 -0.22948099672794342
v -0.20629000663757324 -0.2836030125617981 -0.00022222200641408563
v -0.030188599601387978 0.03789810091257095 -0.29717499017715454
v 0.183105006814003 -0.043789200484752655 -0.18954700231552124
v 0.11825300008058548 0.19485299289226532 -0.25927600264549255
v 0.08284779638051987 0.28799399733543396 0.002608329989016056
v 0.0020916699431836605 0.32558301091194153 -0.11740600317716599
v 0.20031799376010895 -0.2839750051498413 -0.011621899902820587
v 0.23192499577999115 0.0009250000002793968 -0.0018277800409123302
v 0.18883299827575684 0.17636600136756897 0.0006972220144234598
v -0.021886900067329407 -0.2833389937877655 0.21850299835205078
v 0.1860859990119934 -0.048045601695775986 0.18557099997997284
v 0.12297499924898148 0.18811100721359253 0.26192399859428406
v -0.021935800090432167 0.30782198905944824 0.255499005317688
v 0.004017219878733158 0.32283899188041687 0.12471599876880646
v -0.025455599650740623 0.03113969974219799 0.2984029948711395
v -0.22359900176525116 0.1469379961490631 0.003443890018388629
v -0.17985500395298004 0.2137099951505661 -0.2570109963417053
v 0.004017219878733158 0.32283899188041687 0.12471599876880646
v -0.17513300478458405 0.20696799457073212 0.2641890048980713
vn -0.5699480175971985 0.8215140104293823 0.016561200842261314
vn 0.24989500641822815 0.9586930274963379 -0.13586799800395966
vn 0.15606999397277832 0.9708989858627319 -0.1816519945859909
vn 0.12012799829244614 -0.32986900210380554 -0.936352014541626
vn -0.9919670224189758 -0.12638700008392334 0.005306680221110582
vn -0.41698700189590454 -0.29393699765205383 -0.8600710034370422
vn 0.7402290105819702 -0.15054099261760712 -0.6552850008010864
vn 0.8279190063476562 0.38886600732803345 -0.4041450023651123
vn 0.6739169955253601 0.7387980222702026 0.003712679957970977
vn 0.24989500641822815 0.9586930274963379 -0.13586799800395966
vn 0.9449710249900818 -0.326898992061615 -0.012904400005936623
vn 0.9947559833526611 0.10200399905443192 -0.007468520198017359
vn 0.8764140009880066 0.4815559983253479 -0.0016363899921998382
vn 0.1171329990029335 -0.3725009858608246 0.9206100106239319
vn 0.7456520199775696 -0.1836470067501068 0.6405289769172668
vn 0.8345350027084351 0.3789600133895874 0.39992499351501465
vn 0.15831999480724335 0.9657300114631653 0.20566800236701965
vn 0.25061601400375366 0.9548789858818054 0.15936799347400665
vn -0.40761399269104004 -0.3169569969177246 0.8563820123672485
vn -0.9987580180168152 -0.04912060126662254 0.008336369879543781
vn -0.9254440069198608 0.31773999333381653 -0.20638500154018402
vn 0.25061601400375366 0.9548789858818054 0.15936799347400665
vn -0.9211710095405579 0.3127250075340271 0.2316190004348755
vt 0.9929360151290894 0.9690546002238989
vt 0.9398720264434814 0.9878580998629332
vt 0.885221004486084 0.9734508004039526
vt 0.888014018535614 0.7509119957685471
vt 0.9929360151290894 0.7508659958839417
vt 0.8880760073661804 0.8569120019674301
vt 0.8469060063362122 0.8482290059328079
vt 0.8880739808082581 0.9023841992020607
vt 0.7529069781303406 0.9460668005049229
vt 0.8024669885635376 0.9728542994707823
vt 0.7529069781303406 0.7509140074253082
vt 0.7529069781303406 0.8620280027389526
vt 0.7529069781303406 0.9029370993375778
vt 0.888014018535614 0.7509119957685471
vt 0.8468949794769287 0.8482290059328079
vt 0.8880739808082581 0.9023843035101891
vt 0.885221004486084 0.9734508004039526
vt 0.8024160265922546 0.9728542994707823
vt 0.8880760073661804 0.8569120019674301
vt 0.9929360151290894 0.8845309987664223
vt 0.8880760073661804 0.9024951979517937
vt 0.939782977104187 0.9878580998629332
vt 0.8880760073661804 0.9024951979517937
g Geoset0
s 1
usemtl mat_armorermisc
f 1/1/1 2/2/2 3/3/3
f 4/4/4 5/5/5 6/6/6
f 4/4/4 6/6/6 7/7/7
f 8/8/8 7/7/7 6/6/6
f 9/9/9 3/3/3 10/10/10
f 11/11/11 4/4/4 7/7/7
f 11/11/11 7/7/7 12/12/12
f 8/8/8 12/12/12 7/7/7
f 8/8/8 13/13/13 12/12/12
f 14/14/14 11/11/11 15/15/15
f 15/15/15 11/11/11 12/12/12
f 12/12/12 16/16/16 15/15/15
f 13/13/13 16/16/16 12/12/12
f 16/16/16 13/13/13 9/9/9
f 13/13/13 8/8/8 9/9/9
f 9/9/9 8/8/8 3/3/3
f 17/17/17 16/16/16 9/9/9
f 18/18/18 17/17/17 9/9/9
f 15/15/15 16/16/16 19/19/19
f 19/19/19 14/14/14 15/15/15
f 5/5/5 14/14/14 19/19/19
f 20/20/20 5/5/5 19/19/19
f 5/5/5 20/20/20 6/6/6
f 20/20/20 21/21/21 6/6/6
f 1/1/1 17/17/17 22/22/22
f 1/1/1 23/23/23 17/17/17
f 23/23/23 20/20/20 19/19/19
f 20/20/20 23/23/23 1/1/1
f 20/20/20 1/1/1 21/21/21
f 21/21/21 1/1/1 3/3/3
