# Exported using wow.export v0.1.65
o armorshouldertrim
mtllib armorshouldertrim.mtl
v 0.007661390118300915 0.11699999868869781 -0.20734499394893646
v -0.2093849927186966 0.01640469953417778 -0.15866200625896454
v -0.18008199334144592 0.21809400618076324 0.07724720239639282
v 0.24634699523448944 0.0008555559907108545 0.20194600522518158
v 0.2517080008983612 0.00041111098835244775 -0.08870310336351395
v 0.169404998421669 0.21570999920368195 0.08208110183477402
v 0.17447000741958618 0.17600399255752563 -0.10428400337696075
v 0.1687840074300766 0.167153000831604 0.2571159899234772
v 0.012266400270164013 0.28963300585746765 0.0857297033071518
v 0.0004611109907273203 0.21432100236415863 0.2695249915122986
v -0.17584900557994843 0.18114300072193146 0.25995299220085144
v -0.18008199334144592 0.21809400618076324 0.0772475004196167
v -0.26275399327278137 0.021601900458335876 0.20624800026416779
v 0.007183609995990992 0.2155510038137436 -0.10719600319862366
v -0.17369399964809418 0.19072100520133972 -0.10254299640655518
v -0.2758379876613617 0.022241700440645218 -0.08479440212249756
v 0.012266400270164013 0.28963300585746765 0.08572939783334732
v 0.169404998421669 0.21570999920368195 0.08208079636096954
v 0.1930599957704544 0.0009666670230217278 -0.14955300092697144
vn 0.05302640050649643 0.8231599926948547 -0.5653290152549744
vn -0.44984200596809387 0.7056649923324585 -0.5474290251731873
vn -0.3702790141105652 0.770986020565033 -0.5181450247764587
vn 0.9276210069656372 0.36797600984573364 0.06413339823484421
vn 0.9280409812927246 0.3718549907207489 -0.021535299718379974
vn 0.7785750031471252 0.6268839836120605 0.028935899958014488
vn 0.5633080005645752 0.7976999878883362 -0.2153100073337555
vn 0.577796995639801 0.7721999883651733 0.2643060088157654
vn 0.043273698538541794 0.9988759756088257 0.019335899502038956
vn 0.04327290132641792 0.9234780073165894 0.3812029957771301
vn -0.5161359906196594 0.8220250010490417 0.24057899415493011
vn -0.7211580276489258 0.6925259828567505 0.018393399193882942
vn -0.9001240134239197 0.4288789927959442 0.07641260325908661
vn 0.04307959973812103 0.9322869777679443 -0.35914599895477295
vn -0.47859400510787964 0.8498709797859192 -0.2206050008535385
vn -0.8868370056152344 0.46090200543403625 -0.0330142006278038
vn 0.041594699025154114 0.8605939745903015 -0.5075910091400146
vn 0.46778398752212524 0.7232149839401245 -0.5080739855766296
vn 0.5623300075531006 0.6342549920082092 -0.5305699706077576
vt 0.0548258014023304 0.2502250075340271
vt 0.0008550789789296687 0.2501000165939331
vt 0.0009716359782032669 0.3747270107269287
vt 0.12330999970436096 0.2515289783477783
vt 0.0010534200118854642 0.25169897079467773
vt 0.06305540353059769 0.3193579912185669
vt 0.0010534200118854642 0.3193579912185669
vt 0.12339500337839127 0.31940001249313354
vt 0.06305540353059769 0.3736969828605652
vt 0.12339500337839127 0.3736969828605652
vt 0.12339500337839127 0.31940001249313354
vt 0.06305540353059769 0.3193579912185669
vt 0.12330999970436096 0.2515289783477783
vt 0.0010534200118854642 0.3736969828605652
vt 0.0010534200118854642 0.3193579912185669
vt 0.0010534200118854642 0.25169897079467773
vt 0.05485669896006584 0.37463098764419556
vt 0.0009727239958010614 0.3746039867401123
vt 0.000854765996336937 0.250091016292572
g Geoset0
s 1
usemtl mat_armorermisc
f 1/1/1 2/2/2 3/3/3
f 4/4/4 5/5/5 6/6/6
f 7/7/7 6/6/6 5/5/5
f 6/6/6 8/8/8 4/4/4
f 6/6/6 9/9/9 8/8/8
f 7/7/7 9/9/9 6/6/6
f 10/10/10 8/8/8 9/9/9
f 9/9/9 11/11/11 10/10/10
f 11/11/11 9/9/9 12/12/12
f 11/11/11 12/12/12 13/13/13
f 9/9/9 7/7/7 14/14/14
f 14/14/14 15/15/15 9/9/9
f 12/12/12 9/9/9 15/15/15
f 12/12/12 15/15/15 16/16/16
f 16/16/16 13/13/13 12/12/12
f 17/17/17 18/18/18 1/1/1
f 19/19/19 1/1/1 18/18/18
f 3/3/3 17/17/17 1/1/1
