# Exported using wow.export v0.1.65
o armorhelmgreenflat
mtllib armorhelmgreenflat.mtl
v 0.23081299662590027 -0.03557970002293587 0.022188300266861916
v 0.23081299662590027 -0.03557970002293587 -0.022558899596333504
v 0.20618000626564026 0.04805079847574234 -0.014941399917006493
v 0.1007699966430664 -0.034703098237514496 -0.27249300479888916
v -0.005934440065175295 -0.03504670038819313 -0.2789190113544464
v 0.0811849981546402 -0.02427780069410801 -0.19126500189304352
v -0.0922446995973587 -0.036512501537799835 -0.08869720250368118
v -0.025815000757575035 -0.0361005999147892 -0.1978909969329834
v -0.09499110281467438 -0.03563470020890236 -0.27671900391578674
v -0.02142000012099743 -0.025939399376511574 -0.12586000561714172
v 0.10994599759578705 0.002166670048609376 -0.12999799847602844
v 0.100491002202034 -0.03312639892101288 0.24699699878692627
v 0.08118580281734467 -0.02550330013036728 0.18602900207042694
v -0.006260000169277191 -0.03294580057263374 0.2526229918003082
v -0.025865299627184868 -0.036741700023412704 0.1928430050611496
v -0.09714390337467194 -0.03413829952478409 0.2547619938850403
v -0.02142000012099743 -0.025939399376511574 0.12586000561714172
v 0.10994599759578705 0.002166670048609376 0.12999799847602844
v -0.0922446995973587 -0.036512501537799835 0.08869720250368118
v 0.1614300012588501 0.12005099654197693 0.08720999956130981
v 0.10994599759578705 0.002166670048609376 0.12999799847602844
v 0.19264300167560577 0.033226098865270615 0.09147530049085617
v 0.032009199261665344 0.06733079999685287 0.13343000411987305
v -0.00022222200641408563 0.1596989929676056 0.09876970201730728
v 0.19736899435520172 0.13861900568008423 0
v 0.14143499732017517 0.18190599977970123 0
v 0.030282799154520035 0.19490399956703186 0
v 0.1614300012588501 0.12005099654197693 -0.08720999956130981
v -0.00022222200641408563 0.1596989929676056 -0.09876970201730728
v -0.07206189632415771 0.16116400063037872 0
v -0.0826374962925911 0.07043779641389847 0.10127200186252594
v -0.02142000012099743 -0.025939399376511574 0.12586000561714172
v 0.032009199261665344 0.06733079999685287 -0.13343000411987305
v -0.0826374962925911 0.07043779641389847 -0.10127200186252594
v -0.126569002866745 0.0750930979847908 0
v -0.0922446995973587 -0.036512501537799835 0.08869720250368118
v 0.2241320013999939 0.034940801560878754 0
v 0.19264300167560577 0.033226098865270615 -0.09147530049085617
v 0.10994599759578705 0.002166670048609376 -0.12999799847602844
v -0.02142000012099743 -0.025939399376511574 -0.12586000561714172
v -0.0922446995973587 -0.036512501537799835 -0.08869720250368118
v -0.1219940036535263 -0.03270469978451729 0
v 0.20618000626564026 0.04805079847574234 0.01457079965621233
vn 0.9592530131340027 0.28255000710487366 -6.259190055146746e-9
vn 0.9592530131340027 0.28255000710487366 -6.259190055146746e-9
vn 0.9592530131340027 0.28255000710487366 -6.259190055146746e-9
vn 0.004415399860590696 0.9919880032539368 -0.12625400722026825
vn -0.03707300126552582 0.9983869791030884 -0.04300349950790405
vn -0.10433299839496613 0.9838619828224182 -0.14535999298095703
vn -0.7019799947738647 0.5278840065002441 -0.4780830144882202
vn -0.0853205993771553 0.9950370192527771 -0.05119439959526062
vn -0.002442440018057823 0.9999650120735168 0.00804980006068945
vn -0.273591011762619 0.6141449809074402 -0.7402520179748535
vn 0.10983999818563461 0.3707979917526245 -0.9221950173377991
vn 0.008087890222668648 0.9925529956817627 0.1215440034866333
vn -0.10083500295877457 0.9835690259933472 0.1497489959001541
vn -0.037675101310014725 0.999222993850708 0.011588199995458126
vn -0.08217649906873703 0.9958570003509521 0.03893909975886345
vn 0.005125869996845722 0.999334990978241 -0.03611129894852638
vn -0.2707670032978058 0.6035529971122742 0.7499390244483948
vn 0.10927099734544754 0.36294299364089966 0.9253820180892944
vn -0.6995710134506226 0.5279039740562439 0.48157799243927
vn 0.4422900080680847 0.49118199944496155 0.7504130005836487
vn 0.10927099734544754 0.36294299364089966 0.9253820180892944
vn 0.7611780166625977 0.26382601261138916 0.5924550294876099
vn -0.0282732006162405 0.1860560029745102 0.9821320176124573
vn -0.13128699362277985 0.7462869882583618 0.6525480151176453
vn 0.8746209740638733 0.48480701446533203 -8.444000343388325e-8
vn 0.34562399983406067 0.9383730292320251 -8.656409988816449e-8
vn -0.10549800097942352 0.9944199919700623 -2.6372399375418354e-8
vn 0.4422900080680847 0.49118199944496155 -0.7504130005836487
vn -0.13128699362277985 0.7462869882583618 -0.6525480151176453
vn -0.64969801902771 0.7601929903030396 -1.527840076676057e-8
vn -0.6150209903717041 0.2612200081348419 0.7439849972724915
vn -0.2707670032978058 0.6035529971122742 0.7499390244483948
vn -0.0282732006162405 0.1860560029745102 -0.9821320176124573
vn -0.6150209903717041 0.2612200081348419 -0.7439849972724915
vn -0.9831140041351318 0.18299199640750885 -1.1581599679288956e-8
vn -0.6995710134506226 0.5279039740562439 0.48157799243927
vn 0.9682629704475403 0.24993500113487244 -2.1116600024129184e-8
vn 0.7611780166625977 0.26382601261138916 -0.5924550294876099
vn 0.10983999818563461 0.3707979917526245 -0.9221950173377991
vn -0.273591011762619 0.6141449809074402 -0.7402520179748535
vn -0.7019799947738647 0.5278840065002441 -0.4780830144882202
vn -0.9991009831428528 -0.04240329936146736 -1.5834499933475854e-8
vn 0.9592530131340027 0.28255000710487366 -6.259190055146746e-9
vt 0.5411610007286072 0.3511750102043152
vt 0.5852720141410828 0.3511750102043152
vt 0.577763020992279 0.24626702070236206
vt 0.9168450236320496 0.6389650106430054
vt 0.9168739914894104 0.5724039971828461
vt 0.8642550110816956 0.638933002948761
vt 0.8078250288963318 0.5281769931316376
vt 0.8643900156021118 0.5723330080509186
vt 0.9168639779090881 0.5281400084495544
vt 0.8078420162200928 0.5723490118980408
vt 0.8078439831733704 0.6389789879322052
vt 0.9167460203170776 0.6389639973640442
vt 0.8642190098762512 0.638933002948761
vt 0.9167720079421997 0.5724030137062073
vt 0.8643569946289062 0.5723330080509186
vt 0.9167810082435608 0.5281110107898712
vt 0.807843029499054 0.5723490118980408
vt 0.8078449964523315 0.6389789879322052
vt 0.8078269958496094 0.5281769931316376
vt 0.5555030107498169 0.4465550184249878
vt 0.5988309979438782 0.3833490014076233
vt 0.5515639781951904 0.3833490014076233
vt 0.6539750099182129 0.44253700971603394
vt 0.6358000040054321 0.4826059937477112
vt 0.5042979717254639 0.45057201385498047
vt 0.5042979717254639 0.4946590065956116
vt 0.6051579713821411 0.4946590065956116
vt 0.5555030107498169 0.4465550184249878
vt 0.6358000040054321 0.4826059937477112
vt 0.7445690035820007 0.4946590065956116
vt 0.6854860186576843 0.4465550184249878
vt 0.6736699938774109 0.3833490014076233
vt 0.6539750099182129 0.44253700971603394
vt 0.6854860186576843 0.4465550184249878
vt 0.7445690035820007 0.4586079716682434
vt 0.7209360003471375 0.3833490014076233
vt 0.5042979717254639 0.3833490014076233
vt 0.5515639781951904 0.3833490014076233
vt 0.5988309979438782 0.3833490014076233
vt 0.6736699938774109 0.3833490014076233
vt 0.7209360003471375 0.3833490014076233
vt 0.7445690035820007 0.3833490014076233
vt 0.5486699938774109 0.24626702070236206
g Geoset0
s 1
usemtl mat_armorermisc
f 1/1/1 2/2/2 3/3/3
f 4/4/4 5/5/5 6/6/6
f 7/7/7 8/8/8 9/9/9
f 7/7/7 10/10/10 8/8/8
f 9/9/9 8/8/8 5/5/5
f 8/8/8 6/6/6 5/5/5
f 8/8/8 10/10/10 6/6/6
f 10/10/10 11/11/11 6/6/6
f 12/12/12 13/13/13 14/14/14
f 15/15/15 14/14/14 13/13/13
f 16/16/16 14/14/14 15/15/15
f 17/17/17 13/13/13 18/18/18
f 15/15/15 13/13/13 17/17/17
f 15/15/15 17/17/17 19/19/19
f 19/19/19 16/16/16 15/15/15
f 20/20/20 21/21/21 22/22/22
f 21/21/21 20/20/20 23/23/23
f 20/20/20 24/24/24 23/23/23
f 20/20/20 22/22/22 25/25/25
f 20/20/20 25/25/25 26/26/26
f 20/20/20 26/26/26 24/24/24
f 26/26/26 27/27/27 24/24/24
f 28/28/28 26/26/26 25/25/25
f 28/28/28 29/29/29 26/26/26
f 26/26/26 29/29/29 27/27/27
f 27/27/27 29/29/29 30/30/30
f 27/27/27 30/30/30 24/24/24
f 31/31/31 24/24/24 30/30/30
f 23/23/23 24/24/24 31/31/31
f 23/23/23 31/31/31 32/32/32
f 21/21/21 23/23/23 32/32/32
f 28/28/28 33/33/33 29/29/29
f 33/33/33 34/34/34 29/29/29
f 34/34/34 30/30/30 29/29/29
f 30/30/30 34/34/34 35/35/35
f 30/30/30 35/35/35 31/31/31
f 35/35/35 36/36/36 31/31/31
f 32/32/32 31/31/31 36/36/36
f 25/25/25 22/22/22 37/37/37
f 25/25/25 37/37/37 38/38/38
f 28/28/28 25/25/25 38/38/38
f 28/28/28 38/38/38 39/39/39
f 39/39/39 33/33/33 28/28/28
f 39/39/39 40/40/40 33/33/33
f 33/33/33 40/40/40 34/34/34
f 40/40/40 41/41/41 34/34/34
f 35/35/35 34/34/34 41/41/41
f 35/35/35 41/41/41 42/42/42
f 35/35/35 42/42/42 36/36/36
f 3/3/3 43/43/43 1/1/1
