# Exported using wow.export v0.1.65
o lunchbox01
mtllib lunchbox01.mtl
v 0.1277780681848526 0.5048912167549133 0.03469885140657425
v 0.17724335193634033 0.5048912167549133 0.03469885140657425
v 0.17724333703517914 0.7719529271125793 0.03469885513186455
v -0.05066892132163048 0.45864376425743103 0.2867816686630249
v -0.05066891387104988 0.25729694962501526 0.2867816686630249
v 0.06438828259706497 0.45864376425743103 0.2867814600467682
v 0.06438829004764557 0.25729697942733765 0.2867814600467682
v -0.05066892132163048 0.45864376425743103 0.2867816686630249
v 0.06438828259706497 0.45864376425743103 0.2867814600467682
v -0.05066891759634018 0.45864376425743103 0.2176455855369568
v 0.06438828259706497 0.45864376425743103 0.2176455855369568
v -0.2933498024940491 0.6367879509925842 0.1913614571094513
v -0.4142540991306305 0.3721126616001129 0.2671096920967102
v 0.3111705780029297 0.6367879509925842 0.19136127829551697
v 0.43207472562789917 0.3721126914024353 0.267109751701355
v -0.4142540991306305 0.3721126616001129 0.2671096920967102
v -0.2933499813079834 -0.0460461787879467 0.1913614571094513
v 0.43207472562789917 0.3721126914024353 0.267109751701355
v 0.3111706078052521 -0.04604615271091461 0.19136127829551697
v -0.2933497726917267 0.6367879509925842 -0.19388695061206818
v -0.4142540693283081 0.3721126616001129 -0.2696351706981659
v -0.2933498024940491 0.6367879509925842 0.1913614571094513
v -0.4142540991306305 0.3721126616001129 0.2671096920967102
v 0.3111706078052521 0.6367879509925842 -0.1938869208097458
v 0.4320746958255768 0.3721126914024353 -0.2696351110935211
v -0.2933497726917267 0.6367879509925842 -0.19388695061206818
v -0.4142540693283081 0.3721126616001129 -0.2696351706981659
v 0.4320746958255768 0.3721126914024353 -0.2696351110935211
v 0.31117063760757446 -0.04604615271091461 -0.1938869208097458
v -0.4142540693283081 0.3721126616001129 -0.2696351706981659
v -0.293349951505661 -0.0460461787879467 -0.19388695061206818
v 0.3111705780029297 0.6367879509925842 0.19136127829551697
v 0.43207472562789917 0.3721126914024353 0.267109751701355
v 0.3111706078052521 0.6367879509925842 -0.1938869208097458
v 0.4320746958255768 0.3721126914024353 -0.2696351110935211
v -0.2933498024940491 0.6367879509925842 0.1913614571094513
v 0.3111705780029297 0.6367879509925842 0.19136127829551697
v -0.2933497726917267 0.6367879509925842 -0.19388695061206818
v 0.3111706078052521 0.6367879509925842 -0.1938869208097458
v -0.05066891759634018 0.45864376425743103 0.2176455855369568
v -0.05066891014575958 0.25729694962501526 0.2176455855369568
v -0.05066892132163048 0.45864376425743103 0.2867816686630249
v -0.05066891387104988 0.25729694962501526 0.2867816686630249
v 0.06438828259706497 0.45864376425743103 0.2867814600467682
v 0.06438829004764557 0.25729697942733765 0.2867814600467682
v 0.06438828259706497 0.45864376425743103 0.2176455855369568
v 0.06438829749822617 0.25729697942733765 0.2176455855369568
v -0.05066891014575958 0.25729694962501526 0.2176455855369568
v 0.06438829749822617 0.25729697942733765 0.2176455855369568
v -0.4142540693283081 0.3721126616001129 -0.2696351706981659
v -0.293349951505661 -0.0460461787879467 -0.19388695061206818
v -0.4142540991306305 0.3721126616001129 0.2671096920967102
v -0.2933499813079834 -0.0460461787879467 0.1913614571094513
v 0.31117063760757446 -0.04604615271091461 -0.1938869208097458
v 0.3111706078052521 -0.04604615271091461 0.19136127829551697
v -0.293349951505661 -0.0460461787879467 -0.19388695061206818
v 0.31117063760757446 -0.04604615271091461 -0.1938869208097458
v 0.4320746958255768 0.3721126914024353 -0.2696351110935211
v 0.43207472562789917 0.3721126914024353 0.267109751701355
v -0.15507549047470093 0.7719529271125793 -0.04043417051434517
v -0.105610191822052 0.5048912167549133 -0.04043416678905487
v -0.15507549047470093 0.5048912167549133 -0.04043416678905487
v -0.1056102067232132 0.7224876284599304 -0.04043416678905487
v 0.17724335193634033 0.5048912167549133 -0.040434159338474274
v 0.12777817249298096 0.7224876284599304 -0.04043415188789368
v 0.17724335193634033 0.7719529271125793 -0.04043415188789368
v 0.1277780681848526 0.5048912167549133 -0.040434159338474274
v -0.1056102067232132 0.7224876284599304 0.034698840230703354
v 0.1277780532836914 0.7224876284599304 0.03469885513186455
v 0.1277780532836914 0.7224876284599304 0.03469885513186455
v 0.1277780681848526 0.5048912167549133 -0.040434159338474274
v 0.1277780681848526 0.5048912167549133 0.03469885140657425
v 0.12777817249298096 0.7224876284599304 -0.04043415188789368
v 0.17724335193634033 0.7719529271125793 -0.04043415188789368
v -0.1056102067232132 0.7224876284599304 -0.04043416678905487
v -0.15507549047470093 0.7719529271125793 -0.04043417051434517
v -0.105610191822052 0.5048912167549133 0.034698840230703354
v -0.1056102067232132 0.7224876284599304 0.034698840230703354
v -0.105610191822052 0.5048912167549133 -0.04043416678905487
v 0.17724335193634033 0.5048912167549133 0.03469885140657425
v 0.17724335193634033 0.7719529271125793 -0.04043415188789368
v 0.17724333703517914 0.7719529271125793 0.03469885513186455
v 0.17724335193634033 0.5048912167549133 -0.040434159338474274
v -0.15507550537586212 0.7719529271125793 0.03469883278012276
v -0.15507549047470093 0.5048912167549133 -0.04043416678905487
v -0.15507549047470093 0.5048912167549133 0.034698836505413055
v -0.15507549047470093 0.7719529271125793 -0.04043417051434517
v 0.1277780532836914 0.7224876284599304 0.03469885513186455
v -0.1056102067232132 0.7224876284599304 0.034698840230703354
v -0.1056102067232132 0.7224876284599304 0.034698840230703354
v -0.15507549047470093 0.5048912167549133 0.034698836505413055
v -0.105610191822052 0.5048912167549133 0.034698840230703354
v -0.15507550537586212 0.7719529271125793 0.03469883278012276
v -0.15507549047470093 0.7719529271125793 -0.04043417051434517
v 0.17724335193634033 0.7719529271125793 -0.04043415188789368
v 0.1277780532836914 0.7224876284599304 0.03469885513186455
vn -0.7071068286895752 -3.090862321641907e-8 0.7071067094802856
vn 0.7071066498756409 3.0908619663705394e-8 0.7071069478988647
vn 0.5773501992225647 0.5773502588272095 0.5773503184318542
vn -0.577349841594696 0.5773501992225647 0.5773508548736572
vn -0.577349841594696 -0.5773501396179199 0.5773507952690125
vn 0.5773506760597229 0.577350378036499 0.5773497223854065
vn 0.5773507356643677 -0.577350378036499 0.5773497223854065
vn -0.577349841594696 0.5773501992225647 0.5773508548736572
vn 0.5773506760597229 0.577350378036499 0.5773497223854065
vn -0.7071068286895752 0.7071067690849304 -3.090862321641907e-8
vn 0.7071067094802856 0.7071068286895752 3.090862321641907e-8
vn -0.4335877597332001 0.7508392930030823 0.4982389211654663
vn -0.7272377014160156 0.07046513259410858 0.6827591061592102
vn 0.4335879385471344 0.7508394122123718 0.49823856353759766
vn 0.7272375822067261 0.07046503573656082 0.6827592253684998
vn -0.7272377014160156 0.07046513259410858 0.6827591061592102
vn -0.4875575006008148 -0.694240152835846 0.5294508934020996
vn 0.7272375822067261 0.07046503573656082 0.6827592253684998
vn 0.48755761981010437 -0.6942403316497803 0.5294505953788757
vn -0.43358781933784485 0.7508392930030823 -0.49823886156082153
vn -0.7272376418113708 0.0704651027917862 -0.682759165763855
vn -0.4335877597332001 0.7508392930030823 0.4982389211654663
vn -0.7272377014160156 0.07046513259410858 0.6827591061592102
vn 0.43358805775642395 0.7508391737937927 -0.49823880195617676
vn 0.7272376418113708 0.07046493887901306 -0.6827592253684998
vn -0.43358781933784485 0.7508392930030823 -0.49823886156082153
vn -0.7272376418113708 0.0704651027917862 -0.682759165763855
vn 0.7272376418113708 0.07046493887901306 -0.6827592253684998
vn 0.4875575602054596 -0.694240152835846 -0.5294508337974548
vn -0.7272376418113708 0.0704651027917862 -0.682759165763855
vn -0.4875575304031372 -0.694240152835846 -0.5294509530067444
vn 0.4335879385471344 0.7508394122123718 0.49823856353759766
vn 0.7272375822067261 0.07046503573656082 0.6827592253684998
vn 0.43358805775642395 0.7508391737937927 -0.49823880195617676
vn 0.7272376418113708 0.07046493887901306 -0.6827592253684998
vn -0.4335877597332001 0.7508392930030823 0.4982389211654663
vn 0.4335879385471344 0.7508394122123718 0.49823856353759766
vn -0.43358781933784485 0.7508392930030823 -0.49823886156082153
vn 0.43358805775642395 0.7508391737937927 -0.49823880195617676
vn -0.7071068286895752 0.7071067690849304 -3.090862321641907e-8
vn -0.7071067094802856 -0.70710688829422 -3.090862321641907e-8
vn -0.577349841594696 0.5773501992225647 0.5773508548736572
vn -0.577349841594696 -0.5773501396179199 0.5773507952690125
vn 0.5773506760597229 0.577350378036499 0.5773497223854065
vn 0.5773507356643677 -0.577350378036499 0.5773497223854065
vn 0.7071067094802856 0.7071068286895752 3.090862321641907e-8
vn 0.7071068286895752 -0.7071067094802856 3.090862321641907e-8
vn -0.7071067094802856 -0.70710688829422 -3.090862321641907e-8
vn 0.7071068286895752 -0.7071067094802856 3.090862321641907e-8
vn -0.7272376418113708 0.0704651027917862 -0.682759165763855
vn -0.4875575304031372 -0.694240152835846 -0.5294509530067444
vn -0.7272377014160156 0.07046513259410858 0.6827591061592102
vn -0.4875575006008148 -0.694240152835846 0.5294508934020996
vn 0.4875575602054596 -0.694240152835846 -0.5294508337974548
vn 0.48755761981010437 -0.6942403316497803 0.5294505953788757
vn -0.4875575304031372 -0.694240152835846 -0.5294509530067444
vn 0.4875575602054596 -0.694240152835846 -0.5294508337974548
vn 0.7272376418113708 0.07046493887901306 -0.6827592253684998
vn 0.7272375822067261 0.07046503573656082 0.6827592253684998
vn -0.5773502588272095 0.5773502588272095 -0.5773503184318542
vn 0.7071069478988647 3.090863032184643e-8 -0.7071066498756409
vn -0.7071067690849304 -3.090862676913275e-8 -0.7071068286895752
vn 0.30151137709617615 -0.30151134729385376 -0.9045340418815613
vn 0.7071067690849304 3.090862321641907e-8 -0.7071067690849304
vn -0.30151116847991943 -0.30151084065437317 -0.9045342803001404
vn 0.5773501992225647 0.5773503184318542 -0.5773503184318542
vn -0.7071067690849304 4.197370984115878e-8 -0.7071067690849304
vn 0.301511287689209 -0.30151131749153137 0.9045340418815613
vn -0.3015114367008209 -0.30151158571243286 0.9045339226722717
vn -0.3015114367008209 -0.30151158571243286 0.9045339226722717
vn -0.7071067690849304 4.197370984115878e-8 -0.7071067690849304
vn -0.7071068286895752 -3.090862321641907e-8 0.7071067094802856
vn -0.30151116847991943 -0.30151084065437317 -0.9045342803001404
vn 0.5773501992225647 0.5773503184318542 -0.5773503184318542
vn 0.30151137709617615 -0.30151134729385376 -0.9045340418815613
vn -0.5773502588272095 0.5773502588272095 -0.5773503184318542
vn 0.7071067094802856 3.090862321641907e-8 0.70710688829422
vn 0.301511287689209 -0.30151131749153137 0.9045340418815613
vn 0.7071069478988647 3.090863032184643e-8 -0.7071066498756409
vn 0.7071066498756409 3.0908619663705394e-8 0.7071069478988647
vn 0.5773501992225647 0.5773503184318542 -0.5773503184318542
vn 0.5773501992225647 0.5773502588272095 0.5773503184318542
vn 0.7071067690849304 3.090862321641907e-8 -0.7071067690849304
vn -0.5773503184318542 0.5773502588272095 0.5773503184318542
vn -0.7071067690849304 -3.090862676913275e-8 -0.7071068286895752
vn -0.7071067690849304 -3.090862321641907e-8 0.7071068286895752
vn -0.5773502588272095 0.5773502588272095 -0.5773503184318542
vn -0.3015114367008209 -0.30151158571243286 0.9045339226722717
vn 0.301511287689209 -0.30151131749153137 0.9045340418815613
vn 0.301511287689209 -0.30151131749153137 0.9045340418815613
vn -0.7071067690849304 -3.090862321641907e-8 0.7071068286895752
vn 0.7071067094802856 3.090862321641907e-8 0.70710688829422
vn -0.5773503184318542 0.5773502588272095 0.5773503184318542
vn -0.5773502588272095 0.5773502588272095 -0.5773503184318542
vn 0.5773501992225647 0.5773503184318542 -0.5773503184318542
vn -0.3015114367008209 -0.30151158571243286 0.9045339226722717
vt 0.7028985619544983 0.9492753744125366
vt 0.7028985619544983 0.8454105854034424
vt 0.5483091473579407 0.8454105854034424
vt 0.24921853840351105 0.6855641007423401
vt 0.24921853840351105 0.5052571892738342
vt 0.37880080938339233 0.6855641007423401
vt 0.37880080938339233 0.5052571892738342
vt 0.3699914813041687 0.6855641007423401
vt 0.3699914813041687 0.5052571892738342
vt 0.4995737671852112 0.6855641007423401
vt 0.4995737671852112 0.5052571892738342
vt 0.9976972341537476 0.744073748588562
vt 0.9976972341537476 0.507133424282074
vt 0.5023028254508972 0.744073748588562
vt 0.5023028254508972 0.507133424282074
vt 0.5023028254508972 0.7440740466117859
vt 0.5023028254508972 0.5071337223052979
vt 0.9976972341537476 0.7440740466117859
vt 0.9976972341537476 0.5071337223052979
vt 0.7464895248413086 0.992866039276123
vt 0.7464895248413086 0.755925714969635
vt 0.5023028254508972 0.992866039276123
vt 0.5023028254508972 0.755925714969635
vt 0.9976972341537476 0.744073748588562
vt 0.9976972341537476 0.507133424282074
vt 0.5023028254508972 0.744073748588562
vt 0.5023028254508972 0.507133424282074
vt 0.5023028254508972 0.7440740466117859
vt 0.5023028254508972 0.5071337223052979
vt 0.9976972341537476 0.7440740466117859
vt 0.9976972341537476 0.5071337223052979
vt 0.7464895248413086 0.992866039276123
vt 0.7464895248413086 0.755925714969635
vt 0.5023028254508972 0.992866039276123
vt 0.5023028254508972 0.755925714969635
vt 0.5023028254508972 0.755925714969635
vt 0.5023028254508972 0.992866039276123
vt 0.7464895248413086 0.755925714969635
vt 0.7464895248413086 0.992866039276123
vt 0.3699914813041687 0.6855641007423401
vt 0.3699914813041687 0.5052571892738342
vt 0.4995737671852112 0.6855641007423401
vt 0.4995737671852112 0.5052571892738342
vt 0.3699914813041687 0.6855641007423401
vt 0.3699914813041687 0.5052571892738342
vt 0.4995737671852112 0.6855641007423401
vt 0.4995737671852112 0.5052571892738342
vt 0.4995737671852112 0.6855641007423401
vt 0.3699914813041687 0.6855641007423401
vt 0.5023028254508972 0.7440740466117859
vt 0.5023028254508972 0.5071337223052979
vt 0.9976972341537476 0.7440740466117859
vt 0.9976972341537476 0.5071337223052979
vt 0.5023028254508972 0.7440740466117859
vt 0.5023028254508972 0.5071337223052979
vt 0.9976972341537476 0.7440740466117859
vt 0.9976972341537476 0.5071337223052979
vt 0.9976972341537476 0.7440740466117859
vt 0.5023028254508972 0.7440740466117859
vt 0.5483091473579407 0.8454105854034424
vt 0.7028985619544983 0.9492753744125366
vt 0.7028985619544983 0.8454105854034424
vt 0.5483091473579407 0.9492753744125366
vt 0.5483091473579407 0.8454105854034424
vt 0.7028985619544983 0.9492753744125366
vt 0.7028985619544983 0.8454105854034424
vt 0.5483091473579407 0.9492753744125366
vt 0.5483091473579407 0.8454105854034424
vt 0.7028985619544983 0.8454105854034424
vt 0.5483091473579407 0.8454105854034424
vt 0.7028985619544983 0.9492753744125366
vt 0.7028985619544983 0.8454105854034424
vt 0.5483091473579407 0.9492753744125366
vt 0.5483091473579407 0.8454105854034424
vt 0.7028985619544983 0.9492753744125366
vt 0.7028985619544983 0.8454105854034424
vt 0.5483091473579407 0.8454105854034424
vt 0.7028985619544983 0.8454105854034424
vt 0.5483091473579407 0.9492753744125366
vt 0.5483091473579407 0.8454105854034424
vt 0.7028985619544983 0.9492753744125366
vt 0.7028985619544983 0.8454105854034424
vt 0.5483091473579407 0.9492753744125366
vt 0.5483091473579407 0.8454105854034424
vt 0.7028985619544983 0.9492753744125366
vt 0.7028985619544983 0.8454105854034424
vt 0.5483091473579407 0.9492753744125366
vt 0.7028985619544983 0.9492753744125366
vt 0.5483091473579407 0.9492753744125366
vt 0.7028985619544983 0.9492753744125366
vt 0.5483091473579407 0.8454105854034424
vt 0.5483091473579407 0.9492753744125366
vt 0.7028985619544983 0.8454105854034424
vt 0.7028985619544983 0.9492753744125366
vt 0.5483091473579407 0.9492753744125366
vt 0.5483091473579407 0.9492753744125366
g Geoset0
s 1
usemtl mat_breadfossillunchbox
f 1/1/1 2/2/2 3/3/3
f 4/4/4 5/5/5 6/6/6
f 7/7/7 6/6/6 5/5/5
f 8/8/8 9/9/9 10/10/10
f 11/11/11 10/10/10 9/9/9
f 12/12/12 13/13/13 14/14/14
f 15/15/15 14/14/14 13/13/13
f 16/16/16 17/17/17 18/18/18
f 19/19/19 18/18/18 17/17/17
f 20/20/20 21/21/21 22/22/22
f 23/23/23 22/22/22 21/21/21
f 24/24/24 25/25/25 26/26/26
f 27/27/27 26/26/26 25/25/25
f 28/28/28 29/29/29 30/30/30
f 31/31/31 30/30/30 29/29/29
f 32/32/32 33/33/33 34/34/34
f 35/35/35 34/34/34 33/33/33
f 36/36/36 37/37/37 38/38/38
f 39/39/39 38/38/38 37/37/37
f 40/40/40 41/41/41 42/42/42
f 43/43/43 42/42/42 41/41/41
f 44/44/44 45/45/45 46/46/46
f 47/47/47 46/46/46 45/45/45
f 43/43/43 48/48/48 45/45/45
f 49/49/49 45/45/45 48/48/48
f 50/50/50 51/51/51 52/52/52
f 53/53/53 52/52/52 51/51/51
f 54/54/54 55/55/55 56/56/56
f 53/53/53 56/56/56 55/55/55
f 57/57/57 58/58/58 55/55/55
f 59/59/59 55/55/55 58/58/58
f 60/60/60 61/61/61 62/62/62
f 60/60/60 63/63/63 61/61/61
f 64/64/64 65/65/65 66/66/66
f 64/64/64 67/67/67 65/65/65
f 68/68/68 65/65/65 69/69/69
f 68/68/68 63/63/63 65/65/65
f 70/70/70 71/71/71 72/72/72
f 70/70/70 73/73/73 71/71/71
f 74/74/74 75/75/75 76/76/76
f 74/74/74 73/73/73 75/75/75
f 77/77/77 75/75/75 78/78/78
f 77/77/77 79/79/79 75/75/75
f 80/80/80 81/81/81 82/82/82
f 80/80/80 83/83/83 81/81/81
f 84/84/84 85/85/85 86/86/86
f 84/84/84 87/87/87 85/85/85
f 88/88/88 84/84/84 89/89/89
f 88/88/88 82/82/82 84/84/84
f 90/90/90 91/91/91 92/92/92
f 90/90/90 93/93/93 91/91/91
f 3/3/3 94/94/94 93/93/93
f 3/3/3 95/95/95 94/94/94
f 1/1/1 3/3/3 96/96/96
