# Exported using wow.export v0.1.65
o bread01
mtllib bread01.mtl
v 0.41506823897361755 0.005422310438007116 0.2269309163093567
v 0.5860441327095032 0.08154559135437012 -0.09723325818777084
v 0.5860441327095032 0.08154559135437012 0.11887619644403458
v 0.24996182322502136 0.05649834871292114 -0.1763349026441574
v 0.6649143695831299 0.24124713242053986 -0.17633481323719025
v 0.36877551674842834 0.10939764976501465 -0.36349111795425415
v 0.2499617487192154 0.056498341262340546 0.19797766208648682
v 0.3687754273414612 0.10939765721559525 0.3851340115070343
v 0.6649142503738403 0.24124707281589508 0.19797773659229279
v 0.3943319022655487 0.015586335211992264 -0.09723331034183502
v 0.6681913137435913 0.07130373269319534 -0.09723325818777084
v 0.4847922921180725 0.03399078920483589 -0.20528800785541534
v 0.3943319022655487 0.015586361289024353 0.1188761368393898
v 0.48479217290878296 0.03399081900715828 0.2269309163093567
v 0.6681913137435913 0.07130373269319534 0.11887619644403458
v 0.03690657019615173 0.029045220464468002 -0.2052880823612213
v 0.36132633686065674 0.44428354501724243 -0.20528799295425415
v 0.130876362323761 0.14932116866111755 -0.42139744758605957
v 0.03690647706389427 0.02904510125517845 0.22693082690238953
v 0.13087628781795502 0.14932113885879517 0.44304031133651733
v 0.3613261282444 0.4442834258079529 0.22693093121051788
v 0.2533918023109436 0.053601521998643875 0.3851340115070343
v 0.4529672861099243 0.30904650688171387 -0.17633481323719025
v 0.4529672861099243 0.3090463876724243 0.19797773659229279
v 0.1733202487230301 -0.04888543486595154 0.19797766208648682
v 0.17332035303115845 -0.048885393887758255 -0.1763349026441574
v 0.25339189171791077 0.05360157787799835 -0.36349111795425415
v 0.04152459651231766 0.5206121802330017 0.22693093121051788
v 0.04152461886405945 0.14629967510700226 -0.42139744758605957
v 0.04152462258934975 0.5206122994422913 -0.20528799295425415
v 0.041524577885866165 0.1462996006011963 0.4430403411388397
v 0.041524674743413925 -0.006332815624773502 0.22693082690238953
v 0.041524674743413925 -0.006332662887871265 -0.2052880823612213
v 0.49309778213500977 -0.006832147017121315 0.010821451433002949
v 0.6681913137435913 0.07130373269319534 0.11887619644403458
v 0.48479217290878296 0.03399081900715828 0.2269309163093567
v 0.6681913137435913 0.07130373269319534 -0.09723325818777084
v 0.4847922921180725 0.03399078920483589 -0.20528800785541534
v 0.3943319022655487 0.015586335211992264 -0.09723331034183502
v 0.3943319022655487 0.015586361289024353 0.1188761368393898
v 0.5860441327095032 0.08154559135437012 0.11887619644403458
v 0.6649142503738403 0.24124707281589508 0.19797773659229279
v 0.3687754273414612 0.10939765721559525 0.3851340115070343
v 0.5860441327095032 0.08154559135437012 -0.09723325818777084
v 0.6649143695831299 0.24124713242053986 -0.17633481323719025
v 0.41506829857826233 0.005422292742878199 -0.20528800785541534
v 0.36877551674842834 0.10939764976501465 -0.36349111795425415
v 0.3307356536388397 -0.03212510421872139 -0.09723331034183502
v 0.24996182322502136 0.05649834871292114 -0.1763349026441574
v 0.33073562383651733 -0.0321250781416893 0.1188761368393898
v 0.2499617487192154 0.056498341262340546 0.19797766208648682
v 0.41506823897361755 0.005422310438007116 0.2269309163093567
v 0.4529672861099243 0.3090463876724243 0.19797773659229279
v 0.13087628781795502 0.14932113885879517 0.44304031133651733
v 0.2533918023109436 0.053601521998643875 0.3851340115070343
v 0.3613261282444 0.4442834258079529 0.22693093121051788
v 0.4529672861099243 0.30904650688171387 -0.17633481323719025
v 0.36132633686065674 0.44428354501724243 -0.20528799295425415
v 0.25339189171791077 0.05360157787799835 -0.36349111795425415
v 0.130876362323761 0.14932116866111755 -0.42139744758605957
v 0.17332035303115845 -0.048885393887758255 -0.1763349026441574
v 0.03690657019615173 0.029045220464468002 -0.2052880823612213
v 0.1733202487230301 -0.04888543486595154 0.19797766208648682
v 0.03690647706389427 0.02904510125517845 0.22693082690238953
v -0.6939804553985596 0.3334559500217438 0.1188761368393898
v -0.7356396913528442 0.14629970490932465 0.010821395553648472
v -0.6939804553985596 0.1462996006011963 0.22693085670471191
v -0.6939804553985596 0.3334559500217438 -0.09723331034183502
v -0.6939804553985596 0.14629969000816345 -0.20528805255889893
v -0.5801652073860168 0.14629970490932465 -0.36349114775657654
v -0.5801651477813721 0.01624189130961895 -0.1763349324464798
v -0.4246908724308014 -0.006332663353532553 -0.2052881121635437
v -0.4246908724308014 -0.006332720164209604 0.22693081200122833
v 0.041524674743413925 -0.006332815624773502 0.22693082690238953
v 0.041524577885866165 0.1462996006011963 0.4430403411388397
v -0.6939804553985596 0.05398605391383171 -0.0972333624958992
v -0.6939804553985596 0.05398605391383171 0.11887608468532562
v -0.5801653265953064 0.01624189130961895 0.19797761738300323
v -0.5801652669906616 0.14629961550235748 0.3851339817047119
v -0.5801652669906616 0.4704638719558716 0.1979777067899704
v -0.5801652073860168 0.47046396136283875 -0.17633485794067383
v -0.4246908724308014 0.1462996006011963 0.44304031133651733
v -0.42469093203544617 0.5206121802330017 0.2269309163093567
v -0.4246908724308014 0.5206122994422913 -0.20528800785541534
v -0.424690842628479 0.14629970490932465 -0.42139747738838196
v 0.04152459651231766 0.5206121802330017 0.22693093121051788
v 0.04152462258934975 0.5206122994422913 -0.20528799295425415
v 0.04152461886405945 0.14629967510700226 -0.42139744758605957
v 0.041524674743413925 -0.006332662887871265 -0.2052880823612213
v 0.33073562383651733 -0.0321250781416893 0.1188761368393898
v 0.3307356536388397 -0.03212510421872139 -0.09723331034183502
v 0.41506829857826233 0.005422292742878199 -0.20528800785541534
vn 0.2754429280757904 -0.8372980356216431 0.4722956120967865
vn 0.6934008598327637 -0.7130661606788635 -0.10359513014554977
vn 0.7106765508651733 -0.6095930337905884 0.3511910140514374
vn -0.9658282399177551 -0.1399267166852951 -0.2181658148765564
vn 0.14979328215122223 0.7486682534217834 -0.6458001732826233
vn -0.12010814249515533 -0.5108428597450256 -0.8512424230575562
vn -0.8481727838516235 -0.1821986436843872 0.49739986658096313
vn 0.041791968047618866 -0.11682604253292084 0.992272675037384
vn 0.902803897857666 -0.31729814410209656 0.2902878522872925
vn -0.9296945333480835 -0.021716397255659103 -0.36769068241119385
vn -0.11658507585525513 0.9850715398788452 -0.12665684521198273
vn 0.14227892458438873 -0.8664458990097046 -0.4785689115524292
vn -0.9296945333480835 -0.02171648107469082 0.36769065260887146
vn -0.22687458992004395 0.06445293873548508 0.9717889428138733
vn 0.5326986312866211 -0.8124860525131226 0.23685143887996674
vn -0.9215341210365295 -0.3115527331829071 -0.23175355792045593
vn -0.41930973529815674 0.7148326635360718 -0.5596370697021484
vn -0.3143986761569977 -0.21184642612934113 -0.9253510236740112
vn -0.846412181854248 -0.26447799801826477 0.4622097313404083
vn -0.3222031891345978 0.1933087259531021 0.9267237186431885
vn 0.7057993412017822 0.568863570690155 0.42218661308288574
vn 0.48782581090927124 -0.5565313696861267 0.6725316643714905
vn 0.9698700308799744 -0.18641608953475952 -0.15684770047664642
vn 0.8331629633903503 0.005168135277926922 0.5530034303665161
vn 0.16493476927280426 -0.9569218754768372 0.23894979059696198
vn 0.23063020408153534 -0.8596446514129639 -0.45587357878685
vn 0.5101056694984436 -0.2777659595012665 -0.8140259981155396
vn 0.6656404137611389 0.4231302738189697 0.6147223711013794
vn 0.8434321284294128 0.008127211593091488 -0.5371742844581604
vn 0.4567478597164154 0.7832362055778503 -0.42180851101875305
vn 0.6334848403930664 -0.23781004548072815 0.7363038659095764
vn 0.6941275000572205 -0.6775481104850769 0.2431369125843048
vn 0.40783146023750305 -0.7121493220329285 -0.5714164972305298
vn 0.20273466408252716 -0.9792336821556091 1.2983349506612285e-7
vn 0.5326986312866211 -0.8124860525131226 0.23685143887996674
vn -0.22687458992004395 0.06445293873548508 0.9717889428138733
vn -0.11658507585525513 0.9850715398788452 -0.12665684521198273
vn 0.14227892458438873 -0.8664458990097046 -0.4785689115524292
vn -0.9296945333480835 -0.021716397255659103 -0.36769068241119385
vn -0.9296945333480835 -0.02171648107469082 0.36769065260887146
vn 0.7106765508651733 -0.6095930337905884 0.3511910140514374
vn 0.902803897857666 -0.31729814410209656 0.2902878522872925
vn 0.041791968047618866 -0.11682604253292084 0.992272675037384
vn 0.6934008598327637 -0.7130661606788635 -0.10359513014554977
vn 0.14979328215122223 0.7486682534217834 -0.6458001732826233
vn 0.44953131675720215 -0.7089015245437622 -0.5434889793395996
vn -0.12010814249515533 -0.5108428597450256 -0.8512424230575562
vn -0.06362876296043396 -0.9421138167381287 -0.32920050621032715
vn -0.9658282399177551 -0.1399267166852951 -0.2181658148765564
vn -0.2255583256483078 -0.9555039405822754 0.19009386003017426
vn -0.8481727838516235 -0.1821986436843872 0.49739986658096313
vn 0.2754429280757904 -0.8372980356216431 0.4722956120967865
vn 0.8331629633903503 0.005168135277926922 0.5530034303665161
vn -0.3222031891345978 0.1933087259531021 0.9267237186431885
vn 0.48782581090927124 -0.5565313696861267 0.6725316643714905
vn 0.7057993412017822 0.568863570690155 0.42218661308288574
vn 0.9698700308799744 -0.18641608953475952 -0.15684770047664642
vn -0.41930973529815674 0.7148326635360718 -0.5596370697021484
vn 0.5101056694984436 -0.2777659595012665 -0.8140259981155396
vn -0.3143986761569977 -0.21184642612934113 -0.9253510236740112
vn 0.23063020408153534 -0.8596446514129639 -0.45587357878685
vn -0.9215341210365295 -0.3115527331829071 -0.23175355792045593
vn 0.16493476927280426 -0.9569218754768372 0.23894979059696198
vn -0.846412181854248 -0.26447799801826477 0.4622097313404083
vn -0.9592829942703247 0.2312150001525879 0.16222131252288818
vn -0.9992765188217163 -0.038032807409763336 -1.2757977785327057e-8
vn -0.9021202921867371 -0.007454457227140665 0.4314202070236206
vn -0.9406273365020752 0.18767787516117096 -0.28283780813217163
vn -0.8866023421287537 -0.13425415754318237 -0.4426196217536926
vn -0.6209895610809326 -0.1530720293521881 -0.7687268257141113
vn -0.5427396893501282 -0.7407991886138916 -0.3957905173301697
vn -0.16829274594783783 -0.8598004579544067 -0.4821002781391144
vn -0.15529075264930725 -0.8587205410003662 0.4883480668067932
vn 0.6941275000572205 -0.6775481104850769 0.2431369125843048
vn 0.6334848403930664 -0.23781004548072815 0.7363038659095764
vn -0.8455591201782227 -0.49770045280456543 -0.1931941658258438
vn -0.8680400252342224 -0.40065017342567444 0.29323360323905945
vn -0.4885586202144623 -0.7634040117263794 0.4225219488143921
vn -0.5983647108078003 -0.10362254083156586 0.7944948673248291
vn -0.7622185945510864 0.485942542552948 0.42764779925346375
vn -0.752996027469635 0.4405921995639801 -0.4887488782405853
vn -0.17179028689861298 -0.14236919581890106 0.9747918248176575
vn -0.2598962187767029 0.7096201777458191 0.6548992991447449
vn -0.27895480394363403 0.6941057443618774 -0.6636274456977844
vn -0.18472307920455933 -0.14844347536563873 -0.9715152978897095
vn 0.6656404137611389 0.4231302738189697 0.6147223711013794
vn 0.4567478597164154 0.7832362055778503 -0.42180851101875305
vn 0.8434321284294128 0.008127211593091488 -0.5371742844581604
vn 0.40783146023750305 -0.7121493220329285 -0.5714164972305298
vn -0.2255583256483078 -0.9555039405822754 0.19009386003017426
vn -0.06362876296043396 -0.9421138167381287 -0.32920050621032715
vn 0.44953131675720215 -0.7089015245437622 -0.5434889793395996
vt 0.23599818348884583 0.5625587105751038
vt 0.07319837808609009 0.6817229390144348
vt 0.18173164129257202 0.6817229390144348
vt 0.07126114517450333 0.5058499574661255
vt 0.07126107066869736 0.6821960806846619
vt 0.013948600739240646 0.5563432574272156
vt 0.18588608503341675 0.5058499574661255
vt 0.24319858849048615 0.5563433766365051
vt 0.18588608503341675 0.6821960806846619
vt 0.07335682213306427 0.5071743726730347
vt 0.06505091488361359 0.6833438277244568
vt 0.0166131891310215 0.563450813293457
vt 0.18135690689086914 0.5061740279197693
vt 0.23261335492134094 0.5662811398506165
vt 0.17305099964141846 0.6823435425758362
vt 0.06705529242753983 0.5061721205711365
vt 0.07359399646520615 0.686790943145752
vt 0.00915641337633133 0.5601689219474792
vt 0.18664108216762543 0.502812922000885
vt 0.24832786619663239 0.5534505248069763
vt 0.19317974150180817 0.6834316849708557
vt 0.2340829223394394 0.5532060265541077
vt 0.08275896310806274 0.6686822772026062
vt 0.18632324039936066 0.6657730937004089
vt 0.18068690598011017 0.5100812315940857
vt 0.07712262868881226 0.512990415096283
vt 0.02695433609187603 0.5590243935585022
vt 0.07176067680120468 0.6789088249206543
vt 0.24778304994106293 0.5643435716629028
vt 0.18910901248455048 0.6789088249206543
vt 0.013086536899209023 0.5643435716629028
vt 0.07176067680120468 0.5176275968551636
vt 0.18910890817642212 0.5176275968551636
vt 0.23556646704673767 0.792138934135437
vt 0.18168334662914276 0.9072568416595459
vt 0.12325350940227509 0.7943791151046753
vt 0.29392102360725403 0.9056529998779297
vt 0.3477288782596588 0.7911714315414429
vt 0.2904701232910156 0.7359015941619873
vt 0.17823246121406555 0.7375054359436035
vt 0.4717086851596832 0.8730069994926453
vt 0.40680786967277527 0.9729342460632324
vt 0.4151984751224518 0.7888174057006836
vt 0.47170865535736084 0.8730069994926453
vt 0.4068078398704529 0.9729342460632324
vt 0.47655296325683594 0.7667071223258972
vt 0.4151984453201294 0.7888173460960388
vt 0.4789424538612366 0.7142753005027771
vt 0.4185648560523987 0.7149479389190674
vt 0.4789424538612366 0.7142753601074219
vt 0.4185648560523987 0.7149479389190674
vt 0.47655296325683594 0.7667071223258972
vt 0.4846597909927368 0.978081226348877
vt 0.41815385222435 0.7738876342773438
vt 0.48576819896698 0.7875224947929382
vt 0.416873961687088 0.9939258694648743
vt 0.48465973138809204 0.9780812859535217
vt 0.4168739914894104 0.993925929069519
vt 0.48576819896698 0.787522554397583
vt 0.41815385222435 0.7738876342773438
vt 0.48621290922164917 0.7110685110092163
vt 0.4186757802963257 0.6841633319854736
vt 0.48621290922164917 0.7110685110092163
vt 0.41867581009864807 0.6841632127761841
vt 0.0395357683300972 0.8860711455345154
vt 0.01577739417552948 0.7811251878738403
vt 0.0395357683300972 0.7811251878738403
vt 0.0395357683300972 0.8860711455345154
vt 0.0395357683300972 0.7811251878738403
vt 0.10444483906030655 0.7811251878738403
vt 0.10444489121437073 0.7081965804100037
vt 0.19311225414276123 0.6955381035804749
vt 0.19311225414276123 0.6955381035804749
vt 0.4589961767196655 0.6955379843711853
vt 0.458996057510376 0.7811250686645508
vt 0.0395357683300972 0.7293612360954285
vt 0.0395357683300972 0.7293612360954285
vt 0.10444479435682297 0.7081965804100037
vt 0.10444483906030655 0.7811251282691956
vt 0.10444483906030655 0.9628969430923462
vt 0.10444489121437073 0.9628970623016357
vt 0.19311225414276123 0.7811251282691956
vt 0.19311225414276123 0.9910171031951904
vt 0.19311228394508362 0.99101722240448
vt 0.19311228394508362 0.7811251878738403
vt 0.4589961767196655 0.9910171031951904
vt 0.4589961767196655 0.99101722240448
vt 0.458996057510376 0.7811251878738403
vt 0.4589961767196655 0.6955381035804749
vt 0.18173164129257202 0.5037817358970642
vt 0.07319845259189606 0.5037816762924194
vt 0.018931858241558075 0.5625587105751038
g Geoset0
s 1
usemtl mat_breadfossillunchbox
f 1/1/1 2/2/2 3/3/3
f 4/4/4 5/5/5 6/6/6
f 7/7/7 5/5/5 4/4/4
f 8/8/8 5/5/5 7/7/7
f 9/9/9 5/5/5 8/8/8
f 10/10/10 11/11/11 12/12/12
f 13/13/13 11/11/11 10/10/10
f 14/14/14 11/11/11 13/13/13
f 15/15/15 11/11/11 14/14/14
f 16/16/16 17/17/17 18/18/18
f 19/19/19 17/17/17 16/16/16
f 20/20/20 17/17/17 19/19/19
f 21/21/21 17/17/17 20/20/20
f 22/22/22 23/23/23 24/24/24
f 25/25/25 23/23/23 22/22/22
f 26/26/26 23/23/23 25/25/25
f 27/27/27 23/23/23 26/26/26
f 28/28/28 29/29/29 30/30/30
f 31/31/31 29/29/29 28/28/28
f 32/32/32 29/29/29 31/31/31
f 33/33/33 29/29/29 32/32/32
f 34/34/34 35/35/35 36/36/36
f 34/34/34 37/37/37 35/35/35
f 34/34/34 38/38/38 37/37/37
f 34/34/34 39/39/39 38/38/38
f 34/34/34 40/40/40 39/39/39
f 34/34/34 36/36/36 40/40/40
f 41/41/41 42/42/42 43/43/43
f 44/44/44 42/42/42 41/41/41
f 44/44/44 45/45/45 42/42/42
f 46/46/46 45/45/45 44/44/44
f 46/46/46 47/47/47 45/45/45
f 48/48/48 47/47/47 46/46/46
f 48/48/48 49/49/49 47/47/47
f 50/50/50 49/49/49 48/48/48
f 50/50/50 51/51/51 49/49/49
f 52/52/52 51/51/51 50/50/50
f 52/52/52 43/43/43 51/51/51
f 41/41/41 43/43/43 52/52/52
f 53/53/53 54/54/54 55/55/55
f 53/53/53 56/56/56 54/54/54
f 57/57/57 56/56/56 53/53/53
f 57/57/57 58/58/58 56/56/56
f 59/59/59 58/58/58 57/57/57
f 59/59/59 60/60/60 58/58/58
f 61/61/61 60/60/60 59/59/59
f 61/61/61 62/62/62 60/60/60
f 63/63/63 62/62/62 61/61/61
f 63/63/63 64/64/64 62/62/62
f 55/55/55 64/64/64 63/63/63
f 55/55/55 54/54/54 64/64/64
f 65/65/65 66/66/66 67/67/67
f 68/68/68 66/66/66 65/65/65
f 69/69/69 66/66/66 68/68/68
f 70/70/70 69/69/69 68/68/68
f 71/71/71 69/69/69 70/70/70
f 72/72/72 71/71/71 70/70/70
f 73/73/73 71/71/71 72/72/72
f 74/74/74 73/73/73 72/72/72
f 75/75/75 73/73/73 74/74/74
f 76/76/76 66/66/66 69/69/69
f 77/77/77 66/66/66 76/76/76
f 67/67/67 66/66/66 77/77/77
f 71/71/71 76/76/76 69/69/69
f 78/78/78 76/76/76 71/71/71
f 78/78/78 77/77/77 76/76/76
f 79/79/79 77/77/77 78/78/78
f 79/79/79 67/67/67 77/77/77
f 80/80/80 67/67/67 79/79/79
f 80/80/80 65/65/65 67/67/67
f 81/81/81 65/65/65 80/80/80
f 81/81/81 68/68/68 65/65/65
f 70/70/70 68/68/68 81/81/81
f 73/73/73 78/78/78 71/71/71
f 82/82/82 78/78/78 73/73/73
f 82/82/82 79/79/79 78/78/78
f 83/83/83 79/79/79 82/82/82
f 83/83/83 80/80/80 79/79/79
f 84/84/84 80/80/80 83/83/83
f 84/84/84 81/81/81 80/80/80
f 85/85/85 81/81/81 84/84/84
f 85/85/85 70/70/70 81/81/81
f 72/72/72 70/70/70 85/85/85
f 75/75/75 82/82/82 73/73/73
f 86/86/86 82/82/82 75/75/75
f 86/86/86 83/83/83 82/82/82
f 87/87/87 83/83/83 86/86/86
f 87/87/87 84/84/84 83/83/83
f 88/88/88 84/84/84 87/87/87
f 88/88/88 85/85/85 84/84/84
f 89/89/89 85/85/85 88/88/88
f 89/89/89 72/72/72 85/85/85
f 74/74/74 72/72/72 89/89/89
f 1/1/1 90/90/90 2/2/2
f 90/90/90 91/91/91 2/2/2
f 91/91/91 92/92/92 2/2/2
