# Exported using wow.export v0.1.65
o cheesewheelswiss01
mtllib cheesewheelswiss01.mtl
v 0 0 -0.0449099987745285
v -0.03889309987425804 0 -0.02245499938726425
v -0.03889309987425804 0.032848600298166275 -0.02245499938726425
v 0.03889309987425804 0 -0.02245499938726425
v 0 0.032848600298166275 -0.0449099987745285
v 0.03889309987425804 0.032848600298166275 -0.02245499938726425
v 0 0 -0.0449099987745285
v 0.03889309987425804 0 0.02245499938726425
v 0.03889309987425804 0.032848600298166275 -0.02245499938726425
v 0.03889309987425804 0.032848600298166275 0.02245499938726425
v 0.03889309987425804 0 -0.02245499938726425
v 0 0 0.0449099987745285
v 0.03889309987425804 0.032848600298166275 0.02245499938726425
v 0 0.032848600298166275 0.0449099987745285
v 0.03889309987425804 0 0.02245499938726425
v -0.03889309987425804 0 0.02245499938726425
v 0 0.032848600298166275 0.0449099987745285
v -0.03889309987425804 0.032848600298166275 0.02245499938726425
v 0 0 0.0449099987745285
v -0.03889309987425804 0 -0.02245499938726425
v -0.03889309987425804 0.032848600298166275 0.02245499938726425
v -0.03889309987425804 0.032848600298166275 -0.02245499938726425
v -0.03889309987425804 0 0.02245499938726425
v 0 0.032848600298166275 0
v 0.03889309987425804 0.032848600298166275 -0.02245499938726425
v 0 0.032848600298166275 -0.0449099987745285
v 0.03889309987425804 0.032848600298166275 0.02245499938726425
v 0 0.032848600298166275 0.0449099987745285
v -0.03889309987425804 0.032848600298166275 0.02245499938726425
v -0.03889309987425804 0.032848600298166275 -0.02245499938726425
v 0 0 0
v -0.03889309987425804 0 -0.02245499938726425
v 0 0 -0.0449099987745285
v 0.03889309987425804 0 -0.02245499938726425
v 0.03889309987425804 0 0.02245499938726425
v -0.03889309987425804 0 0.02245499938726425
v 0 0 0.0449099987745285
v 0 0.032848600298166275 -0.0449099987745285
vn -0.15075600147247314 -0.6030229926109314 -0.7833489775657654
vn -0.7537779808044434 -0.6030229926109314 -0.26111599802970886
vn -0.6030229926109314 0.6030229926109314 -0.5222330093383789
vn 0.6030229926109314 -0.6030229926109314 -0.5222330093383789
vn 0.15075600147247314 0.6030229926109314 -0.7833489775657654
vn 0.7537779808044434 0.6030229926109314 -0.26111701130867004
vn -0.15075600147247314 -0.6030229926109314 -0.7833489775657654
vn 0.7537779808044434 -0.6030229926109314 0.26111599802970886
vn 0.7537779808044434 0.6030229926109314 -0.26111701130867004
vn 0.6030229926109314 0.6030229926109314 0.5222330093383789
vn 0.6030229926109314 -0.6030229926109314 -0.5222330093383789
vn 0.15075600147247314 -0.6030229926109314 0.7833489775657654
vn 0.6030229926109314 0.6030229926109314 0.5222330093383789
vn -0.15075600147247314 0.6030229926109314 0.7833489775657654
vn 0.7537779808044434 -0.6030229926109314 0.26111599802970886
vn -0.6030229926109314 -0.6030229926109314 0.5222330093383789
vn -0.15075600147247314 0.6030229926109314 0.7833489775657654
vn -0.7537779808044434 0.6030229926109314 0.26111701130867004
vn 0.15075600147247314 -0.6030229926109314 0.7833489775657654
vn -0.7537779808044434 -0.6030229926109314 -0.26111599802970886
vn -0.7537779808044434 0.6030229926109314 0.26111701130867004
vn -0.6030229926109314 0.6030229926109314 -0.5222330093383789
vn -0.6030229926109314 -0.6030229926109314 0.5222330093383789
vn 0 1 0
vn 0.7537779808044434 0.6030229926109314 -0.26111701130867004
vn 0.15075600147247314 0.6030229926109314 -0.7833489775657654
vn 0.6030229926109314 0.6030229926109314 0.5222330093383789
vn -0.15075600147247314 0.6030229926109314 0.7833489775657654
vn -0.7537779808044434 0.6030229926109314 0.26111701130867004
vn -0.6030229926109314 0.6030229926109314 -0.5222330093383789
vn 0 -1 0
vn -0.7537779808044434 -0.6030229926109314 -0.26111599802970886
vn -0.15075600147247314 -0.6030229926109314 -0.7833489775657654
vn 0.6030229926109314 -0.6030229926109314 -0.5222330093383789
vn 0.7537779808044434 -0.6030229926109314 0.26111599802970886
vn -0.6030229926109314 -0.6030229926109314 0.5222330093383789
vn 0.15075600147247314 -0.6030229926109314 0.7833489775657654
vn 0.15075600147247314 0.6030229926109314 -0.7833489775657654
vt 0.619737982749939 0.9983362599741668
vt 0.619737982749939 0.5007590055465698
vt 0.4999319911003113 0.5007590055465698
vt 0.5000759959220886 0.9985442799516022
vt 0.6197729706764221 0.5008530020713806
vt 0.6197729706764221 0.9985442799516022
vt 0.5000759959220886 0.5008530020713806
vt 0.619737982749939 0.998334710020572
vt 0.4999319911003113 0.5007579922676086
vt 0.4999319911003113 0.998334710020572
vt 0.619737982749939 0.5007579922676086
vt 0.5000759959220886 0.9985268099699169
vt 0.6197729706764221 0.5008539855480194
vt 0.6197729706764221 0.9985268099699169
vt 0.5000759959220886 0.5008539855480194
vt 0.619737982749939 0.9983505000127479
vt 0.4999319911003113 0.5007660090923309
vt 0.4999319911003113 0.9983505000127479
vt 0.619737982749939 0.5007660090923309
vt 0.5000759959220886 0.9985248999437317
vt 0.6197729706764221 0.5008470118045807
vt 0.6197729706764221 0.9985248999437317
vt 0.5000759959220886 0.5008470118045807
vt 0.12506000697612762 0.368490993976593
vt 0.24596700072288513 0.43825602531433105
vt 0.12503400444984436 0.4964110255241394
vt 0.24599599838256836 0.30399298667907715
vt 0.1250399947166443 0.2483680248260498
vt 0.24598300457000732 0.30399298667907715
vt 0.24596500396728516 0.43825602531433105
vt 0.12500600516796112 0.36868399381637573
vt 0.24595700204372406 0.43825197219848633
vt 0.1250319927930832 0.4964349865913391
vt 0.24595800042152405 0.43825197219848633
vt 0.24593999981880188 0.304099977016449
vt 0.24592700600624084 0.304099977016449
vt 0.12502600252628326 0.24848699569702148
vt 0.4999319911003113 0.9983362599741668
g Geoset0
s 1
usemtl mat_breadandcheese
f 1/1/1 2/2/2 3/3/3
f 4/4/4 5/5/5 6/6/6
f 4/4/4 7/7/7 5/5/5
f 8/8/8 9/9/9 10/10/10
f 8/8/8 11/11/11 9/9/9
f 12/12/12 13/13/13 14/14/14
f 12/12/12 15/15/15 13/13/13
f 16/16/16 17/17/17 18/18/18
f 16/16/16 19/19/19 17/17/17
f 20/20/20 21/21/21 22/22/22
f 20/20/20 23/23/23 21/21/21
f 24/24/24 25/25/25 26/26/26
f 24/24/24 27/27/27 25/25/25
f 24/24/24 28/28/28 27/27/27
f 24/24/24 29/29/29 28/28/28
f 24/24/24 30/30/30 29/29/29
f 24/24/24 26/26/26 30/30/30
f 31/31/31 32/32/32 33/33/33
f 31/31/31 33/33/33 34/34/34
f 31/31/31 34/34/34 35/35/35
f 31/31/31 36/36/36 32/32/32
f 31/31/31 37/37/37 36/36/36
f 31/31/31 35/35/35 37/37/37
f 1/1/1 3/3/3 38/38/38
